<?xml version="1.0" encoding="UTF-8" standalone="no"?>
<svg
   width="16"
   height="18"
   viewBox="0 0 16 18"
   fill="none"
   version="1.1"
   id="svg1"
   sodipodi:docname="calendar.svg"
   inkscape:version="1.4.2 (f4327f4, 2025-05-13)"
   xmlns:inkscape="http://www.inkscape.org/namespaces/inkscape"
   xmlns:sodipodi="http://sodipodi.sourceforge.net/DTD/sodipodi-0.dtd"
   xmlns="http://www.w3.org/2000/svg"
   xmlns:svg="http://www.w3.org/2000/svg">
  <defs
     id="defs1" />
  <sodipodi:namedview
     id="namedview1"
     pagecolor="#ffffff"
     bordercolor="#000000"
     borderopacity="0.25"
     inkscape:showpageshadow="2"
     inkscape:pageopacity="0.0"
     inkscape:pagecheckerboard="0"
     inkscape:deskcolor="#d1d1d1"
     inkscape:zoom="64.833333"
     inkscape:cx="7.9974293"
     inkscape:cy="9"
     inkscape:window-width="3440"
     inkscape:window-height="1369"
     inkscape:window-x="-8"
     inkscape:window-y="-8"
     inkscape:window-maximized="1"
     inkscape:current-layer="svg1" />
  <path
     style="baseline-shift:baseline;display:inline;overflow:visible;vector-effect:none;fill:#a4a7ae;stroke-linecap:round;stroke-linejoin:round;enable-background:accumulate;stop-color:#000000;stop-opacity:1;opacity:1"
     d="m 4.6660156,0.16601562 a 0.5,0.5 0 0 0 -0.5,0.5 V 1.8710937 C 3.0525522,1.8706664 2.2499732,1.8486758 1.6386719,2.1601563 1.074246,2.4477447 0.61376518,2.9062698 0.32617188,3.4707031 -0.02644546,4.1627537 0,4.9338544 0,6.3339844 v 1 5.9999996 c 0,1.4001 -0.0264786,2.169316 0.32617188,2.861328 0.28758714,0.56441 0.74806202,1.022929 1.31250002,1.310547 C 2.3307282,17.8585 3.09987,17.833984 4.5,17.833984 h 7 c 1.4001,0 2.169253,0.02451 2.861328,-0.328125 0.564451,-0.287625 1.024914,-0.746171 1.3125,-1.310547 C 16.026501,15.503297 16,14.734084 16,13.333984 v -5.9999996 -1 C 16,4.9338544 16.026468,4.1627572 15.673828,3.4707031 15.386235,2.906304 14.925767,2.4477512 14.361328,2.1601563 13.75001,1.8486791 12.947432,1.8706664 11.833984,1.8710937 V 0.66601562 a 0.5,0.5 0 0 0 -0.5,-0.5 0.5,0.5 0 0 0 -0.5,0.5 V 1.8339844 H 5.1660156 V 0.66601562 a 0.5,0.5 0 0 0 -0.5,-0.5 z m 0.5,2.66796878 H 10.833984 V 4 a 0.5,0.5 0 0 0 0.5,0.5 0.5,0.5 0 0 0 0.5,-0.5 V 2.8632813 c 1.030667,0.00846 1.749039,0.021815 2.074219,0.1875 0.376361,0.191765 0.68124,0.4985791 0.873047,0.875 C 14.97361,4.3032872 15,4.9338544 15,6.3339844 v 0.5 H 1 v -0.5 C 1,4.9338544 1.0263993,4.3032907 1.21875,3.9257813 1.4105287,3.5493946 1.7154228,3.2425528 2.0917969,3.0507813 2.4169587,2.8850994 3.135337,2.8717415 4.1660156,2.8632813 V 4 a 0.5,0.5 0 0 0 0.5,0.5 0.5,0.5 0 0 0 0.5,-0.5 z M 1,7.8339844 h 14 v 5.4999996 c 0,1.4001 -0.02642,2.030819 -0.21875,2.408204 -0.191813,0.376424 -0.496698,0.681271 -0.873047,0.873046 -0.377525,0.192363 -1.008103,0.21875 -2.408203,0.21875 h -7 c -1.40013,0 -2.0306994,-0.02639 -2.4082031,-0.21875 C 1.7154348,16.423453 1.4105349,16.118578 1.21875,15.742188 1.0264325,15.3648 1,14.734084 1,13.333984 Z"
     id="path1" />
</svg>
