<?xml version="1.0" encoding="UTF-8" standalone="no"?>
<svg
   width="24"
   height="24"
   viewBox="0 0 24 24"
   fill="none"
   version="1.1"
   id="svg1"
   sodipodi:docname="compare.svg"
   inkscape:version="1.4.2 (f4327f4, 2025-05-13)"
   xmlns:inkscape="http://www.inkscape.org/namespaces/inkscape"
   xmlns:sodipodi="http://sodipodi.sourceforge.net/DTD/sodipodi-0.dtd"
   xmlns="http://www.w3.org/2000/svg"
   xmlns:svg="http://www.w3.org/2000/svg">
  <defs
     id="defs1" />
  <sodipodi:namedview
     id="namedview1"
     pagecolor="#ffffff"
     bordercolor="#000000"
     borderopacity="0.25"
     inkscape:showpageshadow="2"
     inkscape:pageopacity="0.0"
     inkscape:pagecheckerboard="0"
     inkscape:deskcolor="#d1d1d1"
     inkscape:zoom="48.625"
     inkscape:cx="12"
     inkscape:cy="12"
     inkscape:window-width="3440"
     inkscape:window-height="1369"
     inkscape:window-x="-8"
     inkscape:window-y="-8"
     inkscape:window-maximized="1"
     inkscape:current-layer="svg1" />
  <path
     style="baseline-shift:baseline;display:inline;overflow:visible;vector-effect:none;fill:#414651;stroke-linecap:round;stroke-linejoin:round;enable-background:accumulate;stop-color:#000000;stop-opacity:1;opacity:1"
     d="M 3,2 A 1,1 0 0 0 2,3 v 14.800781 c 0,1.1201 -0.052124,1.818151 0.3261719,2.560547 0.2875469,0.564326 0.7479932,1.024944 1.3125,1.3125 C 4.3810452,22.052112 5.0791087,22 6.1992187,22 H 21 a 1,1 0 0 0 1,-1 1,1 0 0 0 -1,-1 H 6.1992187 c -1.12011,0 -1.539077,-0.05166 -1.6523437,-0.109375 -0.1881533,-0.09584 -0.3415669,-0.249226 -0.4375,-0.4375 C 4.0516908,19.339921 4,18.920881 4,17.800781 V 3 A 1,1 0 0 0 3,2 Z m 17.5,2.5 a 1,1 0 0 0 -1,1 v 12 a 1,1 0 0 0 1,1 1,1 0 0 0 1,-1 v -12 a 1,1 0 0 0 -1,-1 z m -4.5,3 a 1,1 0 0 0 -1,1 v 9 a 1,1 0 0 0 1,1 1,1 0 0 0 1,-1 v -9 a 1,1 0 0 0 -1,-1 z m -4.5,3 a 1,1 0 0 0 -1,1 v 6 a 1,1 0 0 0 1,1 1,1 0 0 0 1,-1 v -6 a 1,1 0 0 0 -1,-1 z m -4.5,3 a 1,1 0 0 0 -1,1 v 3 a 1,1 0 0 0 1,1 1,1 0 0 0 1,-1 v -3 a 1,1 0 0 0 -1,-1 z"
     id="path1" />
</svg>
