<?xml version="1.0" encoding="UTF-8" standalone="no"?>
<svg
   width="20"
   height="20"
   viewBox="0 0 20 20"
   fill="none"
   version="1.1"
   id="svg1"
   sodipodi:docname="copy.svg"
   inkscape:version="1.4.2 (f4327f4, 2025-05-13)"
   xmlns:inkscape="http://www.inkscape.org/namespaces/inkscape"
   xmlns:sodipodi="http://sodipodi.sourceforge.net/DTD/sodipodi-0.dtd"
   xmlns="http://www.w3.org/2000/svg"
   xmlns:svg="http://www.w3.org/2000/svg">
  <sodipodi:namedview
     id="namedview1"
     pagecolor="#ffffff"
     bordercolor="#000000"
     borderopacity="0.25"
     inkscape:showpageshadow="2"
     inkscape:pageopacity="0.0"
     inkscape:pagecheckerboard="0"
     inkscape:deskcolor="#d1d1d1"
     inkscape:zoom="58.35"
     inkscape:cx="10"
     inkscape:cy="10"
     inkscape:window-width="3440"
     inkscape:window-height="1369"
     inkscape:window-x="-8"
     inkscape:window-y="-8"
     inkscape:window-maximized="1"
     inkscape:current-layer="svg1" />
  <path
     style="baseline-shift:baseline;display:inline;overflow:visible;vector-effect:none;fill:#414651;stroke-linecap:round;stroke-linejoin:round;enable-background:accumulate;stop-color:#000000;stop-opacity:1;opacity:1"
     d="m 4.3339844,0.83398438 c -0.93343,0 -1.5161235,-0.0437365 -2.1347656,0.27148432 C 1.7289245,1.3450999 1.3470618,1.7288923 1.1074219,2.1992188 0.79222119,2.8178554 0.83398438,3.4005644 0.83398438,4.3339844 V 10 c 0,0.7766 -0.0307487,1.254671 0.19140622,1.791016 0.2536141,0.612182 0.7393029,1.097891 1.3515625,1.351562 a 0.83341832,0.83341832 0 0 0 0.00195,0 c 0.5362709,0.222016 1.0124925,0.191406 1.7890624,0.191406 A 0.83333498,0.83333498 0 0 0 5.0019531,12.5 0.83333498,0.83333498 0 0 0 4.1679687,11.666016 c -0.7765699,0 -1.0760547,-0.03092 -1.1523437,-0.0625 C 2.8111246,11.518787 2.6491391,11.356762 2.5644531,11.152344 2.532868,11.076088 2.5019531,10.7766 2.5019531,10 V 4.3339844 c 0,-0.93342 0.041744,-1.2845029 0.089844,-1.3789063 C 2.671737,2.7981846 2.8001255,2.6717458 2.9570313,2.5917969 3.0514291,2.5436977 3.4005544,2.5 4.3339844,2.5 h 5.6679686 c 0.7766,0 1.076306,0.032948 1.152344,0.064453 0.204535,0.084719 0.364599,0.2468142 0.449219,0.4511719 a 0.83341832,0.83341832 0 0 0 0.002,0 c 0.03158,0.076215 0.0625,0.3738206 0.0625,1.1503906 A 0.83333498,0.83333498 0 0 0 12.501953,5 0.83333498,0.83333498 0 0 0 13.333984,4.1660156 c 0,-0.77657 0.03277,-1.2526974 -0.189453,-1.7890625 C 12.890951,1.7645508 12.403281,1.2770387 11.791016,1.0234375 11.254654,0.80120289 10.778553,0.83398438 10.001953,0.83398438 Z M 10.167969,6.6679687 c -0.9334502,0 -1.5161292,-0.043716 -2.1347659,0.2714844 C 7.5628767,7.179093 7.1810374,7.5609557 6.9414062,8.03125 6.6261854,8.6498922 6.6679687,9.2345387 6.6679687,10.167969 v 5.5 c 0,0.9334 -0.041798,1.516129 0.2734375,2.134765 0.2396214,0.470275 0.6214491,0.852131 1.0917969,1.091797 0.6186642,0.315302 1.2013157,0.273438 2.1347659,0.273438 h 5.5 c 0.9334,0 1.516106,0.04188 2.134765,-0.273438 0.470309,-0.239653 0.852144,-0.621488 1.091797,-1.091797 a 0.83341832,0.83341832 0 0 0 0.002,0 c 0.315115,-0.618603 0.271485,-1.201365 0.271485,-2.134765 v -5.5 c 0,-0.9334302 0.04361,-1.5181099 -0.271485,-2.136719 a 0.83341832,0.83341832 0 0 0 -0.002,0 C 18.654868,7.5609219 18.273022,7.1790809 17.802734,6.9394531 17.184103,6.6242375 16.601369,6.6679687 15.667969,6.6679687 Z m 0,1.6660157 h 5.5 c 0.9334,0 1.284537,0.041759 1.378906,0.089844 0.156912,0.079952 0.283345,0.2083625 0.363281,0.3652344 0.0481,0.094431 0.0918,0.4454763 0.0918,1.3789065 v 5.5 c 0,0.9334 -0.04371,1.282557 -0.0918,1.376953 -0.07995,0.156891 -0.20639,0.285288 -0.363281,0.365234 C 16.952534,17.45824 16.601369,17.5 15.667969,17.5 h -5.5 c -0.9334502,0 -1.2845307,-0.04174 -1.3789065,-0.08984 -0.1568722,-0.07993 -0.2833226,-0.208309 -0.3632812,-0.365234 -0.048084,-0.09436 -0.091797,-0.443553 -0.091797,-1.376953 v -5.5 c 0,-0.9334302 0.043698,-1.2845087 0.091797,-1.3789065 0.079949,-0.1569057 0.2063877,-0.2852943 0.3632812,-0.3652344 0.094403,-0.048099 0.4454562,-0.089844 1.3789065,-0.089844 z"
     id="path1" />
  <defs
     id="defs1" />
</svg>
