<?xml version="1.0" encoding="UTF-8" standalone="no"?>
<svg
   width="16"
   height="16"
   viewBox="0 0 16 16"
   fill="none"
   version="1.1"
   id="svg1"
   sodipodi:docname="cube-04.svg"
   inkscape:version="1.4.2 (f4327f4, 2025-05-13)"
   xmlns:inkscape="http://www.inkscape.org/namespaces/inkscape"
   xmlns:sodipodi="http://sodipodi.sourceforge.net/DTD/sodipodi-0.dtd"
   xmlns="http://www.w3.org/2000/svg"
   xmlns:svg="http://www.w3.org/2000/svg">
  <defs
     id="defs1" />
  <sodipodi:namedview
     id="namedview1"
     pagecolor="#ffffff"
     bordercolor="#000000"
     borderopacity="0.25"
     inkscape:showpageshadow="2"
     inkscape:pageopacity="0.0"
     inkscape:pagecheckerboard="0"
     inkscape:deskcolor="#d1d1d1"
     inkscape:zoom="72.9375"
     inkscape:cx="8"
     inkscape:cy="8"
     inkscape:window-width="3440"
     inkscape:window-height="1369"
     inkscape:window-x="-8"
     inkscape:window-y="-8"
     inkscape:window-maximized="1"
     inkscape:current-layer="svg1" />
  <path
     style="baseline-shift:baseline;display:inline;overflow:visible;vector-effect:none;fill:#ffffff;stroke-linecap:round;stroke-linejoin:round;enable-background:accumulate;stop-color:#000000;stop-opacity:1;opacity:1"
     d="m 5.7753906,1.5 c -0.16306,0 -0.2825886,-0.00399 -0.4375,0.033203 C 5.2188197,1.561785 5.1043606,1.607929 5,1.671875 4.8641947,1.7551105 4.7832736,1.8436895 4.6679687,1.9589844 L 1.9589844,4.6679687 C 1.8436742,4.783279 1.7550989,4.8642136 1.671875,5 1.607929,5.1043606 1.561785,5.2188197 1.5332031,5.3378906 1.4960099,5.492802 1.5,5.6123306 1.5,5.7753906 v 7.6914064 c 0,0.1867 -0.024638,0.349614 0.091797,0.578125 0.079858,0.156668 0.2067118,0.283399 0.3632812,0.363281 a 0.50005,0.50005 0 0 0 0,0.002 C 2.1835865,14.526477 2.3465231,14.5 2.5332031,14.5 h 7.6914059 c 0.1631,0 0.282758,0.0058 0.4375,-0.03125 a 0.50005,0.50005 0 0 0 0.002,-0.002 c 0.118543,-0.02859 0.231713,-0.07495 0.335937,-0.138672 0.135108,-0.08304 0.216629,-0.171707 0.332031,-0.287109 l 2.708985,-2.708985 C 14.156418,11.216629 14.24509,11.135108 14.328125,11 c 0.06372,-0.104224 0.110082,-0.217394 0.138672,-0.335937 a 0.50005,0.50005 0 0 0 0.002,-0.002 C 14.505824,10.507367 14.5,10.387709 14.5,10.224609 V 2.5332031 c 0,-0.18668 0.02648,-0.3496166 -0.08984,-0.578125 a 0.50005,0.50005 0 0 0 -0.002,0 C 14.328321,1.7985087 14.20159,1.671655 14.044922,1.5917969 13.816411,1.475362 13.653497,1.5 13.466797,1.5 Z m 0.058594,1 H 12.792969 L 10.458984,4.8339844 H 5.8339844 Z m -1,0.7070313 V 4.8339844 H 3.2070313 Z m 8.6660156,0 V 10.166016 H 11.166016 V 5.5410156 Z M 2.5,5.8339844 H 4.8339844 V 10.458984 L 2.5,12.792969 Z m 3.3339844,0 H 10.166016 V 10.166016 H 5.8339844 Z M 5.5410156,11.166016 H 10.166016 V 13.5 H 3.2070313 Z m 5.6250004,0 h 1.626953 l -1.626953,1.626953 z"
     id="path1" />
</svg>
