<?xml version="1.0" encoding="UTF-8" standalone="no"?>
<svg
   width="24"
   height="24"
   viewBox="0 0 24 24"
   fill="none"
   version="1.1"
   id="svg1"
   sodipodi:docname="dislike.svg"
   inkscape:version="1.4.2 (f4327f4, 2025-05-13)"
   xmlns:inkscape="http://www.inkscape.org/namespaces/inkscape"
   xmlns:sodipodi="http://sodipodi.sourceforge.net/DTD/sodipodi-0.dtd"
   xmlns="http://www.w3.org/2000/svg"
   xmlns:svg="http://www.w3.org/2000/svg">
  <defs
     id="defs1" />
  <sodipodi:namedview
     id="namedview1"
     pagecolor="#ffffff"
     bordercolor="#000000"
     borderopacity="0.25"
     inkscape:showpageshadow="2"
     inkscape:pageopacity="0.0"
     inkscape:pagecheckerboard="0"
     inkscape:deskcolor="#d1d1d1"
     inkscape:zoom="48.625"
     inkscape:cx="12"
     inkscape:cy="12"
     inkscape:window-width="3440"
     inkscape:window-height="1369"
     inkscape:window-x="-8"
     inkscape:window-y="-8"
     inkscape:window-maximized="1"
     inkscape:current-layer="svg1" />
  <path
     style="baseline-shift:baseline;display:inline;overflow:visible;vector-effect:none;fill:#98a2b3;stroke-linecap:round;stroke-linejoin:round;enable-background:accumulate;stop-color:#000000;stop-opacity:1;opacity:1"
     d="M 8.1191406,1.5 C 6.6576606,1.5 5.8623853,1.4810383 5.1308594,1.8125 4.5240231,2.0874767 4.0066291,2.5299031 3.6425781,3.0878906 3.2037248,3.7605049 3.1030892,4.5496621 2.8808594,5.9941406 L 2.3574219,9.3945313 C 2.0643117,11.299712 1.8744637,12.319805 2.2285156,13.248047 2.5179751,14.006983 3.0615285,14.641458 3.7675781,15.042969 4.6311984,15.534008 5.6681031,15.5 7.5957031,15.5 h 0.8046875 c 0.56005,0 0.7714945,0.02583 0.828125,0.05469 0.09428,0.04805 0.1707984,0.124627 0.21875,0.21875 0.028857,0.05665 0.054687,0.266071 0.054687,0.826171 v 2.935547 c 0,1.632031 1.3327329,2.964844 2.9648439,2.964844 0.521126,0 0.997267,-0.309112 1.208984,-0.785156 l 3.359375,-7.5625 c 0.152902,-0.344004 0.217281,-0.459815 0.253906,-0.498047 0.05332,-0.05566 0.118746,-0.09883 0.191407,-0.125 a 0.50005,0.50005 0 0 0 0.002,0 C 17.532164,13.511374 17.664716,13.5 18.041016,13.5 h 0.759765 c 1.1201,0 1.750837,0.02472 2.335938,-0.273437 0.47037,-0.239623 0.852174,-0.621427 1.091797,-1.091797 0.298158,-0.585101 0.273437,-1.213885 0.273437,-2.3339847 V 5.1992187 c 0,-1.12011 0.02471,-1.7488877 -0.273437,-2.3339843 C 21.988888,2.394816 21.607032,2.013081 21.136719,1.7734375 20.551621,1.4752946 19.920881,1.5 18.800781,1.5 h -1.798828 z m 0,1 H 16.501953 V 13 a 0.5,0.5 0 0 0 0.0293,0.0293 c -0.170872,0.198616 -0.27013,0.403713 -0.410156,0.71875 l -3.359375,7.560547 C 12.709436,21.42615 12.595271,21.5 12.466797,21.5 c -1.091689,0 -1.964844,-0.873274 -1.964844,-1.964844 v -2.935547 c 0,-0.5601 0.025,-0.910099 -0.164062,-1.28125 C 10.194082,15.036082 9.9636808,14.807811 9.6816406,14.664063 9.3104512,14.474919 8.9604406,14.5 8.4003906,14.5 H 7.5957031 c -1.9276,0 -2.8183846,-0.03301 -3.3339844,-0.326172 C 3.7572283,13.886939 3.3689299,13.432889 3.1621094,12.890625 2.9507413,12.336467 3.0525933,11.452054 3.3457031,9.546875 L 3.8691406,6.1464844 C 4.0913708,4.7020029 4.211182,4.0474914 4.4804687,3.6347656 4.7405378,3.2361531 5.109445,2.9190996 5.5429687,2.7226563 5.9918628,2.5192579 6.6576606,2.5 8.1191406,2.5 Z m 9.3828124,0 h 1.298828 c 1.1201,0 1.610358,0.026225 1.88086,0.1640625 0.282287,0.1438365 0.512478,0.3720552 0.65625,0.6542969 0.137858,0.2705433 0.164062,0.7607493 0.164062,1.8808593 v 4.6015626 c 0,1.1200997 -0.02622,1.6103597 -0.164062,1.8808597 -0.143778,0.282229 -0.374021,0.510519 -0.65625,0.654297 C 20.411141,12.47378 19.920881,12.5 18.800781,12.5 h -0.759765 c -0.22578,0 -0.372682,0.03439 -0.539063,0.05273 z"
     id="path1" />
</svg>
