<?xml version="1.0" encoding="UTF-8" standalone="no"?>
<svg
   width="24"
   height="24"
   viewBox="0 0 24 24"
   fill="none"
   version="1.1"
   id="svg1"
   sodipodi:docname="filter-funnel.svg"
   inkscape:version="1.4.2 (f4327f4, 2025-05-13)"
   xmlns:inkscape="http://www.inkscape.org/namespaces/inkscape"
   xmlns:sodipodi="http://sodipodi.sourceforge.net/DTD/sodipodi-0.dtd"
   xmlns="http://www.w3.org/2000/svg"
   xmlns:svg="http://www.w3.org/2000/svg">
  <defs
     id="defs1" />
  <sodipodi:namedview
     id="namedview1"
     pagecolor="#ffffff"
     bordercolor="#000000"
     borderopacity="0.25"
     inkscape:showpageshadow="2"
     inkscape:pageopacity="0.0"
     inkscape:pagecheckerboard="0"
     inkscape:deskcolor="#d1d1d1"
     inkscape:zoom="48.625"
     inkscape:cx="12"
     inkscape:cy="12"
     inkscape:window-width="3440"
     inkscape:window-height="1369"
     inkscape:window-x="-8"
     inkscape:window-y="-8"
     inkscape:window-maximized="1"
     inkscape:current-layer="svg1" />
  <path
     style="baseline-shift:baseline;display:inline;overflow:visible;vector-effect:none;fill:#667085;stroke-linecap:round;stroke-linejoin:round;enable-background:accumulate;stop-color:#000000;stop-opacity:1;opacity:1"
     d="m 4.578125,2.1660156 c -0.567145,0 -1.0005764,-0.00134 -1.3847656,0.033203 -0.3841892,0.034542 -0.7712374,0.09462 -1.125,0.3867187 C 1.627401,2.9500244 1.3816101,3.5009027 1.4042969,4.0722656 1.422495,4.5306763 1.6348015,4.8586227 1.8652344,5.1679687 2.0956673,5.4773148 2.387455,5.7999963 2.765625,6.2226562 l 5.7050781,6.3769528 c 0.1507093,0.168433 0.1806844,0.213403 0.1738282,0.201172 0.0078,0.01392 0.014038,0.02903 0.017578,0.04492 -0.0031,-0.01391 0.00391,0.03952 0.00391,0.265625 v 6.707031 c 0,0.3958 -0.083783,0.717728 0.2226563,1.179688 0.1940063,0.292875 0.4962823,0.496989 0.8398437,0.568359 0.5425274,0.112935 0.8101344,-0.08347 1.1777344,-0.230469 a 0.83341832,0.83341832 0 0 0 0,-0.002 l 3.400391,-1.359375 c 0.181328,-0.07263 0.367258,-0.123912 0.589843,-0.326172 0.157306,-0.142907 0.277275,-0.322585 0.351563,-0.521484 a 0.83341832,0.83341832 0 0 0 0.002,0 c 0.104782,-0.281415 0.08398,-0.472469 0.08398,-0.667969 v -5.347656 c 0,-0.2261 0.007,-0.279621 0.0039,-0.265625 0.0035,-0.0159 0.0078,-0.03103 0.01563,-0.04492 a 0.83341832,0.83341832 0 0 0 0.002,0 c -0.0071,0.0126 0.02308,-0.03273 0.173828,-0.201172 L 21.234375,6.2226562 C 21.612519,5.8000031 21.904335,5.4772994 22.134766,5.1679687 22.365196,4.8586381 22.577455,4.5306594 22.595703,4.0722656 22.61841,3.5008688 22.370621,2.9500185 21.929687,2.5859375 21.575905,2.2938116 21.19084,2.2337603 20.806641,2.1992188 20.422442,2.1646772 19.989025,2.1660156 19.421875,2.1660156 Z m 0,1.6679688 h 14.84375 c 0.56715,0 0.984052,0.00271 1.236328,0.025391 0.252276,0.022681 0.28752,0.074955 0.210938,0.011719 0.04067,0.033579 0.06264,0.082082 0.06055,0.1347656 0.0039,-0.099184 0.02046,-0.035163 -0.130859,0.1679687 -0.151319,0.2031319 -0.428484,0.5148332 -0.806641,0.9375 l -5.705078,6.3769529 c -0.150485,0.168149 -0.272514,0.292587 -0.386718,0.496094 -0.0876,0.156106 -0.150598,0.325701 -0.189453,0.5 -0.05092,0.228596 -0.04492,0.400853 -0.04492,0.626953 v 5.324219 l -3.332032,1.332031 v -6.65625 c 0,-0.2261 0.0059,-0.398444 -0.04492,-0.626953 C 10.250242,12.31007 10.187145,12.142412 10.099609,11.986328 9.9852331,11.782297 9.8637214,11.656849 9.7128906,11.488281 L 4.0078125,5.1113281 C 3.6296425,4.6886681 3.352474,4.3769446 3.2011719,4.1738281 3.0498698,3.9707117 3.0663744,3.9066587 3.0703125,4.0058594 3.0682193,3.9531423 3.0901978,3.9046669 3.1308594,3.8710938 3.0543068,3.9343026 3.0895361,3.8820555 3.3417969,3.859375 3.5940577,3.8366945 4.01098,3.8339844 4.578125,3.8339844 Z"
     id="path1" />
</svg>
