<?xml version="1.0" encoding="UTF-8" standalone="no"?>
<svg
   width="20"
   height="20"
   viewBox="0 0 20 20"
   fill="none"
   version="1.1"
   id="svg4"
   sodipodi:docname="grid.svg"
   inkscape:version="1.4.2 (f4327f4, 2025-05-13)"
   xmlns:inkscape="http://www.inkscape.org/namespaces/inkscape"
   xmlns:sodipodi="http://sodipodi.sourceforge.net/DTD/sodipodi-0.dtd"
   xmlns="http://www.w3.org/2000/svg"
   xmlns:svg="http://www.w3.org/2000/svg">
  <defs
     id="defs4" />
  <sodipodi:namedview
     id="namedview4"
     pagecolor="#ffffff"
     bordercolor="#000000"
     borderopacity="0.25"
     inkscape:showpageshadow="2"
     inkscape:pageopacity="0.0"
     inkscape:pagecheckerboard="0"
     inkscape:deskcolor="#d1d1d1"
     inkscape:zoom="58.35"
     inkscape:cx="10"
     inkscape:cy="10"
     inkscape:window-width="3440"
     inkscape:window-height="1369"
     inkscape:window-x="-8"
     inkscape:window-y="-8"
     inkscape:window-maximized="1"
     inkscape:current-layer="svg4" />
  <path
     style="baseline-shift:baseline;display:inline;overflow:visible;vector-effect:none;fill:#181d27;stroke-linecap:round;stroke-linejoin:round;enable-background:accumulate;stop-color:#000000;stop-opacity:1;opacity:1"
     d="M 3.8339844,1.5 C 3.3672744,1.5 2.9947524,1.4481195 2.5019531,1.6992187 2.1570785,1.8749333 1.8749333,2.1570785 1.6992187,2.5019531 1.4481195,2.9947524 1.5,3.3672744 1.5,3.8339844 V 7 c 0,0.46671 -0.051887,0.8392185 0.1992187,1.3320313 0.1757224,0.3448899 0.4579288,0.6250799 0.8027344,0.8007812 0.492786,0.2510649 0.8653213,0.2011719 1.3320313,0.2011719 H 7 c 0.46671,0 0.8392318,0.0499 1.3320313,-0.2011719 C 8.6768522,8.9571034 8.9571034,8.6768522 9.1328125,8.3320313 9.3838842,7.8392318 9.3339844,7.46671 9.3339844,7 V 3.8339844 c 0,-0.46671 0.049893,-0.8392453 -0.2011719,-1.3320313 C 8.9571112,2.1571475 8.6769212,1.8749411 8.3320313,1.6992187 7.8392185,1.4481126 7.46671,1.5 7,1.5 Z M 3.4863281,3.4863281 C 3.447974,3.5115727 3.45294,3.5 3.8339844,3.5 H 7 c 0.3827972,0 0.3877662,0.012242 0.3476562,-0.013672 -0.025238,-0.03834 -0.013672,-0.033388 -0.013672,0.3476563 V 7 c 0,0.3827972 -0.012235,0.3877525 0.013672,0.3476562 C 7.3877525,7.3217491 7.3827972,7.3339844 7,7.3339844 H 3.8339844 c -0.3810444,0 -0.3859967,-0.011566 -0.3476563,0.013672 C 3.5122422,7.3877662 3.5,7.3827972 3.5,7 V 3.8339844 C 3.5,3.45294 3.5115727,3.447974 3.4863281,3.4863281 Z"
     id="path1" />
  <path
     style="baseline-shift:baseline;display:inline;overflow:visible;vector-effect:none;fill:#181d27;stroke-linecap:round;stroke-linejoin:round;enable-background:accumulate;stop-color:#000000;stop-opacity:1;opacity:1"
     d="m 13,1.5 c -0.4667,0 -0.839078,-0.052043 -1.332031,0.1992187 -0.34486,0.1757068 -0.62505,0.4578687 -0.800781,0.8027344 -0.250997,0.4927596 -0.201172,0.8653213 -0.201172,1.3320313 V 7 c 0,0.46671 -0.04983,0.8392582 0.201172,1.3320313 0.175739,0.344881 0.45599,0.6250877 0.800781,0.8007812 C 12.160909,9.3840403 12.5333,9.3339844 13,9.3339844 h 3.166016 c 0.4667,0 0.83937,0.049773 1.332031,-0.2011719 C 17.842837,8.957119 18.125041,8.6769123 18.300781,8.3320313 18.551784,7.8392582 18.5,7.46671 18.5,7 V 3.8339844 c 0,-0.46671 0.05178,-0.8392717 -0.199219,-1.3320313 C 18.125049,2.1570874 17.842906,1.8749255 17.498047,1.6992187 17.005373,1.4482394 16.632716,1.5 16.166016,1.5 Z M 12.652344,3.4863281 C 12.612119,3.5123055 12.617211,3.5 13,3.5 h 3.166016 c 0.381036,0 0.385932,0.011527 0.347656,-0.013672 C 16.488448,3.4480151 16.5,3.45294 16.5,3.8339844 V 7 c 0,0.3827972 -0.01222,0.3877251 0.01367,0.3476562 0.03826,-0.025192 0.03338,-0.013672 -0.347656,-0.013672 H 13 c -0.382789,0 -0.387868,-0.012299 -0.347656,0.013672 0.02589,0.040069 0.01367,0.035141 0.01367,-0.3476562 V 3.8339844 c 0,-0.3810444 0.01155,-0.3859693 -0.01367,-0.3476563 z"
     id="path2" />
  <path
     style="baseline-shift:baseline;display:inline;overflow:visible;vector-effect:none;fill:#181d27;stroke-linecap:round;stroke-linejoin:round;enable-background:accumulate;stop-color:#000000;stop-opacity:1;opacity:1"
     d="m 13,10.666016 c -0.4667,0 -0.839118,-0.04999 -1.332031,0.201172 -0.344851,0.175724 -0.625057,0.45593 -0.800781,0.800781 C 10.616029,12.160882 10.666016,12.5333 10.666016,13 v 3.166016 c 0,0.4667 -0.04971,0.839396 0.201172,1.332031 0.175724,0.34485 0.45593,0.62701 0.800781,0.802734 C 12.160882,18.55194 12.5333,18.5 13,18.5 h 3.166016 c 0.4667,0 0.839396,0.05166 1.332031,-0.199219 0.34485,-0.175724 0.62701,-0.457884 0.802734,-0.802734 C 18.551657,17.005412 18.5,16.632716 18.5,16.166016 V 13 c 0,-0.4667 0.05194,-0.839118 -0.199219,-1.332031 -0.175724,-0.344851 -0.457884,-0.625057 -0.802734,-0.800781 -0.492635,-0.250877 -0.865331,-0.201172 -1.332031,-0.201172 z m -0.347656,1.986328 C 12.61216,12.6783 12.617211,12.666016 13,12.666016 h 3.166016 c 0.381036,0 0.385891,0.01151 0.347656,-0.01367 C 16.487715,12.61216 16.5,12.617211 16.5,13 v 3.166016 c 0,0.381036 -0.01151,0.385891 0.01367,0.347656 C 16.551907,16.488494 16.547052,16.5 16.166016,16.5 H 13 c -0.382789,0 -0.38784,-0.01228 -0.347656,0.01367 0.02518,0.03824 0.01367,0.03338 0.01367,-0.347656 V 13 c 0,-0.382789 0.01228,-0.38784 -0.01367,-0.347656 z"
     id="path3" />
  <path
     style="baseline-shift:baseline;display:inline;overflow:visible;vector-effect:none;fill:#181d27;stroke-linecap:round;stroke-linejoin:round;enable-background:accumulate;stop-color:#000000;stop-opacity:1;opacity:1"
     d="m 3.8339844,10.666016 c -0.46671,0 -0.8392717,-0.04983 -1.3320313,0.201172 C 2.1570874,11.042919 1.8749255,11.323109 1.6992187,11.667969 1.4479566,12.160922 1.5,12.5333 1.5,13 v 3.166016 c 0,0.4667 -0.051761,0.839357 0.1992187,1.332031 0.1757068,0.344859 0.4578687,0.627002 0.8027344,0.802734 C 2.9947127,18.551777 3.3672744,18.5 3.8339844,18.5 H 7 c 0.46671,0 0.8392582,0.05178 1.3320313,-0.199219 0.344881,-0.17574 0.6250877,-0.457944 0.8007812,-0.802734 0.2509449,-0.492661 0.2011719,-0.865331 0.2011719,-1.332031 V 13 c 0,-0.4667 0.050056,-0.839091 -0.2011719,-1.332031 C 8.957119,11.323178 8.6769123,11.042927 8.3320313,10.867188 7.8392582,10.616185 7.46671,10.666016 7,10.666016 Z m -0.3476563,1.986328 c -0.038313,0.02522 -0.033388,0.01367 0.3476563,0.01367 H 7 c 0.3827972,0 0.3877251,0.01222 0.3476562,-0.01367 C 7.3216858,12.612132 7.3339844,12.617211 7.3339844,13 v 3.166016 c 0,0.381036 -0.01152,0.385918 0.013672,0.347656 C 7.3877251,16.487779 7.3827972,16.5 7,16.5 H 3.8339844 C 3.45294,16.5 3.4480151,16.488448 3.4863281,16.513672 3.5115267,16.551948 3.5,16.547052 3.5,16.166016 V 13 c 0,-0.382789 0.012306,-0.387881 -0.013672,-0.347656 z"
     id="path4" />
</svg>
