<?xml version="1.0" encoding="UTF-8" standalone="no"?>
<svg
   width="32"
   height="32"
   viewBox="0 0 32 32"
   fill="none"
   version="1.1"
   id="svg4"
   sodipodi:docname="grid-thin.svg"
   inkscape:version="1.4.2 (f4327f4, 2025-05-13)"
   xmlns:inkscape="http://www.inkscape.org/namespaces/inkscape"
   xmlns:sodipodi="http://sodipodi.sourceforge.net/DTD/sodipodi-0.dtd"
   xmlns="http://www.w3.org/2000/svg"
   xmlns:svg="http://www.w3.org/2000/svg">
  <defs
     id="defs4" />
  <sodipodi:namedview
     id="namedview4"
     pagecolor="#ffffff"
     bordercolor="#000000"
     borderopacity="0.25"
     inkscape:showpageshadow="2"
     inkscape:pageopacity="0.0"
     inkscape:pagecheckerboard="0"
     inkscape:deskcolor="#d1d1d1"
     inkscape:zoom="36.46875"
     inkscape:cx="16"
     inkscape:cy="16"
     inkscape:window-width="3440"
     inkscape:window-height="1369"
     inkscape:window-x="-8"
     inkscape:window-y="-8"
     inkscape:window-maximized="1"
     inkscape:current-layer="svg4" />
  <path
     style="baseline-shift:baseline;display:inline;overflow:visible;vector-effect:none;fill:#414651;stroke-linecap:round;stroke-linejoin:round;enable-background:accumulate;stop-color:#000000;stop-opacity:1;opacity:1"
     d="M 6.1328125,3 C 5.3860825,3 4.8731924,2.9483302 4.2734375,3.2539063 3.8345348,3.4775563 3.4775563,3.8345348 3.2539063,4.2734375 2.9483302,4.8731924 3,5.3860825 3,6.1328125 v 5.0664065 c 0,0.7467 -0.051709,1.259584 0.2539063,1.859375 0.2236328,0.438904 0.5804745,0.795873 1.0195312,1.019531 0.5997384,0.305526 1.112645,0.255859 1.859375,0.255859 h 5.0664065 c 0.7467,0 1.259601,0.04971 1.859375,-0.255859 0.439058,-0.223641 0.79589,-0.580473 1.019531,-1.019531 0.305565,-0.599774 0.255859,-1.112675 0.255859,-1.859375 V 6.1328125 c 0,-0.74673 0.04967,-1.2596366 -0.255859,-1.859375 C 13.854467,3.8343808 13.497498,3.4775391 13.058594,3.2539063 12.458803,2.9482906 11.945919,3 11.199219,3 Z m 0,2 h 5.0664065 c 0.7467,0 0.980562,0.052085 0.951172,0.037109 0.0629,0.032047 0.114542,0.081828 0.146484,0.1445312 -0.01493,-0.029298 0.03711,0.2044419 0.03711,0.9511719 v 5.0664065 c 0,0.7467 -0.05207,0.980546 -0.03711,0.951172 a 1.0001,1.0001 0 0 0 0,0.002 c -0.03196,0.06274 -0.08179,0.112572 -0.144531,0.144531 a 1.0001,1.0001 0 0 0 -0.002,0 c 0.02937,-0.01497 -0.204472,0.03711 -0.951172,0.03711 H 6.1328125 c -0.74673,0 -0.9804703,-0.05204 -0.9511719,-0.03711 -0.062703,-0.03194 -0.112484,-0.08359 -0.1445312,-0.146484 C 5.052085,12.179781 5,11.945919 5,11.199219 V 6.1328125 C 5,5.3860825 5.0520454,5.1523257 5.0371094,5.1816406 5.0691393,5.1187834 5.1187834,5.0691393 5.1816406,5.0371094 5.1523257,5.0520454 5.3860825,5 6.1328125,5 Z"
     id="path1" />
  <path
     style="baseline-shift:baseline;display:inline;overflow:visible;vector-effect:none;fill:#414651;stroke-linecap:round;stroke-linejoin:round;enable-background:accumulate;stop-color:#000000;stop-opacity:1;opacity:1"
     d="m 20.800781,3 c -0.7467,0 -1.259584,-0.051709 -1.859375,0.2539063 -0.438904,0.2236328 -0.795873,0.5804745 -1.019531,1.0195312 -0.305526,0.5997384 -0.255859,1.112645 -0.255859,1.859375 v 5.0664065 c 0,0.7467 -0.04971,1.259601 0.255859,1.859375 0.223641,0.439058 0.580473,0.79589 1.019531,1.019531 0.599774,0.305565 1.112675,0.255859 1.859375,0.255859 h 5.066406 c 0.7467,0 1.259601,0.04971 1.859375,-0.255859 0.439154,-0.22369 0.795936,-0.580905 1.019532,-1.019531 C 29.051659,12.45882 29,11.945919 29,11.199219 V 6.1328125 c 0,-0.74673 0.05162,-1.2596366 -0.253906,-1.859375 C 28.52248,3.8348125 28.165562,3.4775878 27.726562,3.2539063 27.126772,2.9482906 26.613888,3 25.867187,3 Z m 0,2 h 5.066406 c 0.7467,0 0.980563,0.052085 0.951172,0.037109 0.0628,0.031998 0.112345,0.081396 0.144532,0.1445312 C 26.947965,5.1523422 27,5.3860825 27,6.1328125 v 5.0664065 c 0,0.7467 -0.05207,0.980546 -0.03711,0.951172 -0.0322,0.06317 -0.08188,0.114574 -0.144532,0.146484 0.02937,-0.01497 -0.204472,0.03711 -0.951172,0.03711 h -5.066406 c -0.7467,0 -0.980546,-0.05207 -0.951172,-0.03711 a 1.0001,1.0001 0 0 0 -0.002,0 c -0.06274,-0.03196 -0.112572,-0.08179 -0.144531,-0.144531 a 1.0001,1.0001 0 0 0 0,-0.002 c 0.01497,0.02937 -0.03711,-0.204472 -0.03711,-0.951172 V 6.1328125 c 0,-0.74673 0.05204,-0.9804703 0.03711,-0.9511719 0.03194,-0.062703 0.08359,-0.112484 0.146484,-0.1445312 C 19.820219,5.052085 20.054081,5 20.800781,5 Z"
     id="path2" />
  <path
     style="baseline-shift:baseline;display:inline;overflow:visible;vector-effect:none;fill:#414651;stroke-linecap:round;stroke-linejoin:round;enable-background:accumulate;stop-color:#000000;stop-opacity:1;opacity:1"
     d="m 20.800781,17.666016 c -0.7467,0 -1.259601,-0.04971 -1.859375,0.255859 -0.439058,0.223641 -0.79589,0.580473 -1.019531,1.019531 -0.305565,0.599774 -0.255859,1.112675 -0.255859,1.859375 v 5.066406 c 0,0.7467 -0.04971,1.259601 0.255859,1.859375 0.22369,0.439154 0.580905,0.795936 1.019531,1.019532 C 19.54118,29.051659 20.054081,29 20.800781,29 h 5.066406 c 0.7467,0 1.259601,0.05166 1.859375,-0.253906 0.438722,-0.223645 0.795887,-0.58081 1.019532,-1.019532 C 29.051659,27.126788 29,26.613888 29,25.867187 v -5.066406 c 0,-0.7467 0.05166,-1.259601 -0.253906,-1.859375 -0.223596,-0.438626 -0.580378,-0.795841 -1.019532,-1.019531 -0.599774,-0.305565 -1.112675,-0.255859 -1.859375,-0.255859 z m 0,2 h 5.066406 c 0.7467,0 0.980547,0.05207 0.951172,0.03711 0.06265,0.03191 0.112328,0.08331 0.144532,0.146484 C 26.947925,19.820235 27,20.054081 27,20.800781 v 5.066406 c 0,0.7467 -0.05207,0.980547 -0.03711,0.951172 -0.03215,0.06308 -0.08145,0.112377 -0.144532,0.144532 C 26.847734,26.947925 26.613887,27 25.867187,27 h -5.066406 c -0.7467,0 -0.980546,-0.05207 -0.951172,-0.03711 -0.06317,-0.0322 -0.114574,-0.08188 -0.146484,-0.144532 0.01497,0.02937 -0.03711,-0.204471 -0.03711,-0.951172 v -5.066406 c 0,-0.7467 0.05207,-0.980546 0.03711,-0.951172 a 1.0001,1.0001 0 0 0 0,-0.002 c 0.03196,-0.06274 0.08179,-0.112572 0.144531,-0.144531 a 1.0001,1.0001 0 0 0 0.002,0 c -0.02937,0.01497 0.204472,-0.03711 0.951172,-0.03711 z"
     id="path3" />
  <path
     style="baseline-shift:baseline;display:inline;overflow:visible;vector-effect:none;fill:#414651;stroke-linecap:round;stroke-linejoin:round;enable-background:accumulate;stop-color:#000000;stop-opacity:1;opacity:1"
     d="m 6.1328125,17.666016 c -0.74673,0 -1.2596366,-0.04967 -1.859375,0.255859 C 3.8343808,18.145533 3.4775391,18.502502 3.2539063,18.941406 2.9482906,19.541197 3,20.054081 3,20.800781 v 5.066406 c 0,0.7467 -0.051709,1.259585 0.2539063,1.859375 0.2236815,0.439 0.5809062,0.795918 1.0195312,1.019532 C 4.8731759,29.051619 5.3860825,29 6.1328125,29 h 5.0664065 c 0.7467,0 1.259601,0.05166 1.859375,-0.253906 0.438626,-0.223596 0.795841,-0.580378 1.019531,-1.019532 0.305565,-0.599774 0.255859,-1.112675 0.255859,-1.859375 v -5.066406 c 0,-0.7467 0.04971,-1.259601 -0.255859,-1.859375 -0.223641,-0.439058 -0.580473,-0.79589 -1.019531,-1.019531 -0.599774,-0.305565 -1.112675,-0.255859 -1.859375,-0.255859 z m 0,2 h 5.0664065 c 0.7467,0 0.980546,0.05207 0.951172,0.03711 a 1.0001,1.0001 0 0 0 0.002,0 c 0.06274,0.03196 0.112572,0.08179 0.144531,0.144531 a 1.0001,1.0001 0 0 0 0,0.002 c -0.01497,-0.02937 0.03711,0.204472 0.03711,0.951172 v 5.066406 c 0,0.7467 -0.05207,0.980547 -0.03711,0.951172 -0.03191,0.06265 -0.08331,0.112328 -0.146484,0.144532 C 12.179765,26.947925 11.945919,27 11.199219,27 H 6.1328125 C 5.3860825,27 5.1523422,26.947965 5.1816406,26.962891 5.1185056,26.930704 5.0691078,26.88116 5.0371094,26.818359 5.052085,26.84775 5,26.613888 5,25.867187 v -5.066406 c 0,-0.7467 0.052085,-0.980562 0.037109,-0.951172 0.032047,-0.0629 0.081828,-0.114542 0.1445312,-0.146484 -0.029298,0.01493 0.2044419,-0.03711 0.9511719,-0.03711 z"
     id="path4" />
</svg>
