<?xml version="1.0" encoding="UTF-8" standalone="no"?>
<svg
   width="20"
   height="20"
   viewBox="0 0 20 20"
   fill="none"
   version="1.1"
   id="svg1"
   sodipodi:docname="like.svg"
   inkscape:version="1.4.2 (f4327f4, 2025-05-13)"
   xmlns:inkscape="http://www.inkscape.org/namespaces/inkscape"
   xmlns:sodipodi="http://sodipodi.sourceforge.net/DTD/sodipodi-0.dtd"
   xmlns="http://www.w3.org/2000/svg"
   xmlns:svg="http://www.w3.org/2000/svg">
  <defs
     id="defs1" />
  <sodipodi:namedview
     id="namedview1"
     pagecolor="#ffffff"
     bordercolor="#000000"
     borderopacity="0.25"
     inkscape:showpageshadow="2"
     inkscape:pageopacity="0.0"
     inkscape:pagecheckerboard="0"
     inkscape:deskcolor="#d1d1d1"
     inkscape:zoom="58.35"
     inkscape:cx="10"
     inkscape:cy="10"
     inkscape:window-width="3440"
     inkscape:window-height="1369"
     inkscape:window-x="-8"
     inkscape:window-y="-8"
     inkscape:window-maximized="1"
     inkscape:current-layer="svg1" />
  <path
     style="baseline-shift:baseline;display:inline;overflow:visible;vector-effect:none;fill:#a4a7ae;stroke-linecap:round;stroke-linejoin:round;enable-background:accumulate;stop-color:#000000;stop-opacity:1;opacity:1"
     d="m 9.6132813,1.1660156 c -0.4669881,0 -0.8923632,0.2783336 -1.0820313,0.7050781 L 5.5976562,8.46875 C 5.5436309,8.590308 5.4259911,8.6660156 5.2929687,8.6660156 H 3.3339844 c -1.1906977,0 -2.1660156,0.9772923 -2.1660157,2.1679684 v 5.832032 c 0,1.190641 0.9753143,2.167968 2.1660157,2.167968 h 2.5 8.6894536 c 1.477112,0 2.740262,-1.085022 2.964843,-2.544922 l 0.896485,-5.832031 C 18.66295,8.6489984 17.249244,7 15.419922,7 H 12.501953 C 12.311998,7 12.167969,6.8560184 12.167969,6.6660156 V 3.7207031 c 0,-1.4050918 -1.149576,-2.5546875 -2.5546877,-2.5546875 z m 0,1 c 0.8646877,0 1.5546877,0.6900394 1.5546877,1.5546875 V 6.6660156 C 11.167969,7.3964728 11.771508,8 12.501953,8 h 2.917969 C 16.655,8 17.5843,9.0840004 17.396484,10.304688 L 16.5,16.136719 c -0.150619,0.979101 -0.985875,1.697265 -1.976562,1.697265 H 6.3339844 V 9.1660156 A 0.5,0.5 0 0 0 6.2265625,9.0585938 C 6.302567,8.9666885 6.4618898,8.987116 6.5117187,8.875 L 9.4433594,2.2773438 c 0.030212,-0.067976 0.09555,-0.1113282 0.1699219,-0.1113282 z M 5.3339844,9.6386719 v 8.1953121 h -2 c -0.6502587,0 -1.1660156,-0.51781 -1.1660156,-1.167968 v -5.832032 c 0,-0.650223 0.5157533,-1.1679684 1.1660156,-1.1679684 h 1.9589843 c 0.017832,0 0.023299,-0.026632 0.041016,-0.027344 z"
     id="path1" />
</svg>
