<?xml version="1.0" encoding="UTF-8" standalone="no"?>
<svg
   width="14"
   height="14"
   viewBox="0 0 14 14"
   fill="none"
   version="1.1"
   id="svg2"
   sodipodi:docname="play-square.svg"
   inkscape:version="1.4.2 (f4327f4, 2025-05-13)"
   xmlns:inkscape="http://www.inkscape.org/namespaces/inkscape"
   xmlns:sodipodi="http://sodipodi.sourceforge.net/DTD/sodipodi-0.dtd"
   xmlns="http://www.w3.org/2000/svg"
   xmlns:svg="http://www.w3.org/2000/svg">
  <defs
     id="defs2" />
  <sodipodi:namedview
     id="namedview2"
     pagecolor="#ffffff"
     bordercolor="#000000"
     borderopacity="0.25"
     inkscape:showpageshadow="2"
     inkscape:pageopacity="0.0"
     inkscape:pagecheckerboard="0"
     inkscape:deskcolor="#d1d1d1"
     inkscape:zoom="83.357143"
     inkscape:cx="7"
     inkscape:cy="7"
     inkscape:window-width="3440"
     inkscape:window-height="1369"
     inkscape:window-x="-8"
     inkscape:window-y="-8"
     inkscape:window-maximized="1"
     inkscape:current-layer="svg2" />
  <path
     style="baseline-shift:baseline;display:inline;overflow:visible;vector-effect:none;fill:#ffffff;stroke-linecap:round;stroke-linejoin:round;enable-background:accumulate;stop-color:#000000;stop-opacity:1;opacity:1"
     d="M 5.6074219,3.7792969 C 5.3666337,3.7964996 5.1446968,3.9180662 5,4.1113281 4.7618122,4.429461 4.8339844,4.6583725 4.8339844,4.9765625 v 4.046875 C 4.8339844,9.3416275 4.7618122,9.570539 5,9.8886719 5.1446968,10.081934 5.3666337,10.2035 5.6074219,10.220703 6.0038585,10.249038 6.1581363,10.064635 6.4257812,9.8925781 L 9.5722656,7.8691406 C 9.8045214,7.7198334 10.01219,7.6513047 10.150391,7.3242187 c 0.08755,-0.2071831 0.08755,-0.4412543 0,-0.6484375 C 10.01219,6.3486953 9.8045214,6.2801666 9.5722656,6.1308594 L 6.4257812,4.1074219 C 6.1581363,3.9353651 6.0038585,3.7509621 5.6074219,3.7792969 Z m 0.2167968,1.1191406 c 0.048617,0.024 -0.018057,2.501e-4 0.060547,0.050781 L 9.03125,6.9726562 C 9.0997158,7.0166699 9.0543341,6.9717203 9.0898438,7 c -0.03551,0.02828 0.00987,-0.01667 -0.058594,0.027344 L 5.8847656,9.0507813 c -0.078604,0.050531 -0.01193,0.026781 -0.060547,0.050781 -0.00611,-0.053894 0.00977,0.01546 0.00977,-0.078125 v -4.046875 c 0,-0.093585 -0.015875,-0.024231 -0.00977,-0.078125 z"
     id="path1" />
  <path
     style="baseline-shift:baseline;display:inline;overflow:visible;vector-effect:none;fill:#ffffff;stroke-linecap:round;stroke-linejoin:round;enable-background:accumulate;stop-color:#000000;stop-opacity:1;opacity:1"
     d="M 4.1992187,0.5 C 3.0791188,0.5 2.4503311,0.47530924 1.8652344,0.7734375 1.3948736,1.0130862 1.0130862,1.3948736 0.7734375,1.8652344 0.47530924,2.4503311 0.5,3.0791187 0.5,4.1992187 v 5.6015626 c 0,1.1200997 -0.0247054,1.7488867 0.2734375,2.3339847 0.2396435,0.470313 0.6213785,0.852169 1.0917969,1.091797 C 2.4503338,13.524706 3.0791187,13.5 4.1992187,13.5 h 5.6015626 c 1.1200997,0 1.7488837,0.02472 2.3339847,-0.273437 0.47037,-0.239623 0.852174,-0.621427 1.091797,-1.091797 C 13.52472,11.549665 13.5,10.920881 13.5,9.8007813 V 4.1992187 C 13.5,3.0791188 13.524706,2.4503338 13.226563,1.8652344 12.986935,1.394816 12.605079,1.013081 12.134766,0.7734375 11.549668,0.47529459 10.920881,0.5 9.8007813,0.5 Z m 0,1 h 5.6015626 c 1.1200997,0 1.6103577,0.026225 1.8808597,0.1640625 0.282287,0.1438365 0.510524,0.3720552 0.654297,0.6542969 C 12.473794,2.5888999 12.5,3.0791187 12.5,4.1992187 v 5.6015626 c 0,1.1200997 -0.02622,1.6103597 -0.164062,1.8808597 C 12.19216,11.96387 11.96387,12.19216 11.681641,12.335938 11.411141,12.47378 10.920881,12.5 9.8007813,12.5 H 4.1992187 C 3.0791188,12.5 2.5888999,12.473794 2.3183594,12.335938 2.0361177,12.192165 1.807899,11.963928 1.6640625,11.681641 1.5262254,11.411139 1.5,10.920881 1.5,9.8007813 V 4.1992187 C 1.5,3.0791188 1.5262108,2.5889027 1.6640625,2.3183594 1.8078938,2.0360602 2.0360602,1.8078938 2.3183594,1.6640625 2.5889027,1.5262108 3.0791187,1.5 4.1992187,1.5 Z"
     id="path2" />
</svg>
