<?xml version="1.0" encoding="UTF-8" standalone="no"?>
<svg
   width="32"
   height="32"
   viewBox="0 0 32 32"
   fill="none"
   version="1.1"
   id="svg2"
   sodipodi:docname="rows-01.svg"
   inkscape:version="1.4.2 (f4327f4, 2025-05-13)"
   xmlns:inkscape="http://www.inkscape.org/namespaces/inkscape"
   xmlns:sodipodi="http://sodipodi.sourceforge.net/DTD/sodipodi-0.dtd"
   xmlns="http://www.w3.org/2000/svg"
   xmlns:svg="http://www.w3.org/2000/svg">
  <defs
     id="defs2" />
  <sodipodi:namedview
     id="namedview2"
     pagecolor="#ffffff"
     bordercolor="#000000"
     borderopacity="0.25"
     inkscape:showpageshadow="2"
     inkscape:pageopacity="0.0"
     inkscape:pagecheckerboard="0"
     inkscape:deskcolor="#d1d1d1"
     inkscape:zoom="36.46875"
     inkscape:cx="16"
     inkscape:cy="16"
     inkscape:window-width="3440"
     inkscape:window-height="1369"
     inkscape:window-x="-8"
     inkscape:window-y="-8"
     inkscape:window-maximized="1"
     inkscape:current-layer="svg2" />
  <path
     style="baseline-shift:baseline;display:inline;overflow:visible;vector-effect:none;fill:#d5d7da;stroke-linecap:round;stroke-linejoin:round;enable-background:accumulate;stop-color:#000000;stop-opacity:1;opacity:1"
     d="M 8.2675781,3 C 6.7740981,3 5.8869256,2.9494725 5.0019531,3.4003906 4.3121289,3.7518673 3.7518673,4.3121289 3.4003906,5.0019531 2.9494725,5.8869256 3,6.7740981 3,8.2675781 v 0.7988282 c 0,1.4934297 -0.050563,2.3806297 0.4003906,3.2656247 0.3514869,0.689886 0.9118341,1.25008 1.6015625,1.601563 0.8849519,0.45083 1.772145,0.40039 3.265625,0.40039 H 23.732422 c 1.4935,0 2.380669,0.05039 3.265625,-0.40039 0.689617,-0.351475 1.250021,-0.911679 1.601562,-1.601563 C 29.050475,11.447057 29,10.559836 29,9.0664063 V 8.2675781 C 29,6.7740981 29.050439,5.886905 28.599609,5.0019531 28.248079,4.3121307 27.68776,3.7518597 26.998047,3.4003906 26.11307,2.9495257 25.225922,3 23.732422,3 Z m 0,2 H 23.732422 c 1.4935,0 2.101398,0.051206 2.357422,0.1816406 0.313687,0.159851 0.568646,0.4147981 0.728515,0.7285156 C 26.948729,6.1660644 27,6.7740981 27,8.2675781 v 0.7988282 c 0,1.4934297 -0.05131,2.1015957 -0.181641,2.3574217 -0.159859,0.313716 -0.414732,0.568591 -0.728515,0.728516 -0.256044,0.130423 -0.863922,0.18164 -2.357422,0.18164 H 8.2675781 c -1.49348,0 -2.1015137,-0.05127 -2.3574219,-0.18164 C 5.5963447,11.992427 5.3414737,11.737543 5.1816406,11.423828 5.0512939,11.168023 5,10.559836 5,9.0664063 V 8.2675781 C 5,6.7740981 5.0512588,6.1660438 5.1816406,5.9101562 5.3414839,5.5964404 5.5964404,5.3414839 5.9101562,5.1816406 6.1660438,5.0512588 6.7740981,5 8.2675781,5 Z"
     id="path1" />
  <path
     style="baseline-shift:baseline;display:inline;overflow:visible;vector-effect:none;fill:#d5d7da;stroke-linecap:round;stroke-linejoin:round;enable-background:accumulate;stop-color:#000000;stop-opacity:1;opacity:1"
     d="m 8.2675781,17.666016 c -1.49348,0 -2.3806731,-0.05044 -3.265625,0.40039 C 4.3122247,18.417889 3.7518775,18.978083 3.4003906,19.667969 2.9494374,20.552964 3,21.440194 3,22.933594 v 0.798828 c 0,1.4935 -0.050474,2.380648 0.4003906,3.265625 0.3514691,0.689713 0.9117401,1.250032 1.6015625,1.601562 C 5.886905,29.050439 6.7740981,29 8.2675781,29 H 23.732422 c 1.4935,0 2.380669,0.05039 3.265625,-0.400391 0.689711,-0.351523 1.250039,-0.911851 1.601562,-1.601562 C 29.050386,26.113091 29,25.225922 29,23.732422 v -0.798828 c 0,-1.4934 0.05047,-2.380651 -0.400391,-3.265625 -0.351541,-0.689884 -0.911945,-1.250088 -1.601562,-1.601563 -0.884956,-0.450777 -1.772125,-0.40039 -3.265625,-0.40039 z m 0,2 H 23.732422 c 1.4935,0 2.101378,0.05122 2.357422,0.18164 0.313783,0.159925 0.568656,0.4148 0.728515,0.728516 C 26.948694,20.831998 27,21.440194 27,22.933594 v 0.798828 c 0,1.4935 -0.05122,2.101378 -0.181641,2.357422 -0.159876,0.313689 -0.414826,0.568639 -0.728515,0.728515 C 25.8338,26.948783 25.225922,27 23.732422,27 H 8.2675781 C 6.7740981,27 6.1660644,26.948729 5.9101562,26.818359 5.5964387,26.65849 5.3414916,26.403531 5.1816406,26.089844 5.0512055,25.83382 5,25.225922 5,23.732422 v -0.798828 c 0,-1.4934 0.051294,-2.101617 0.1816406,-2.357422 0.1598331,-0.313715 0.4147041,-0.568599 0.7285156,-0.728516 0.2559082,-0.13037 0.8639419,-0.18164 2.3574219,-0.18164 z"
     id="path2" />
</svg>
