<svg width="21" height="17" viewBox="0 0 21 17" fill="none" xmlns="http://www.w3.org/2000/svg">
<path d="M1.0607 7.45445C1.10555 7.43203 1.15041 7.41073 1.19413 7.39055C1.95425 7.03852 2.72446 6.70891 3.49354 6.3793C3.53503 6.3793 3.60452 6.3311 3.64376 6.3154C3.70317 6.28961 3.7626 6.26495 3.82202 6.23917C3.93638 6.18984 4.05074 6.14163 4.16397 6.0923C4.39268 5.99476 4.62025 5.89722 4.84896 5.79968L6.21783 5.21334C7.13042 4.82319 8.04415 4.43192 8.95674 4.04177C9.86933 3.65163 10.783 3.26036 11.6956 2.87021C12.6082 2.48006 13.5219 2.0888 14.4345 1.69865C15.3471 1.3085 16.2608 0.917229 17.1734 0.527081C17.3763 0.439633 17.5961 0.309581 17.8136 0.271463C17.9963 0.238951 18.1745 0.176171 18.3584 0.141416C18.7071 0.0752707 19.0916 0.0483664 19.4257 0.19299C19.5412 0.24344 19.6477 0.31407 19.7363 0.402638C20.16 0.821936 20.1006 1.5103 20.0109 2.1C19.3865 6.21001 18.762 10.3211 18.1364 14.4312C18.0512 14.9951 17.9346 15.6139 17.4895 15.9704C17.1128 16.272 16.5769 16.3057 16.1117 16.1779C15.6464 16.0489 15.2361 15.7787 14.8336 15.513C13.1643 14.4076 11.4938 13.3022 9.82448 12.1968C9.42761 11.9344 8.98589 11.5914 8.99038 11.1149C8.99262 10.8279 9.16414 10.5723 9.33903 10.3447C10.7898 8.45225 12.8829 7.15175 14.4401 5.34676C14.6598 5.09226 14.8325 4.63261 14.5309 4.48574C14.3515 4.39829 14.1452 4.51713 13.9816 4.63036C11.9232 6.05978 9.86596 7.49033 7.8076 8.91975C7.13605 9.38613 6.43199 9.86597 5.62254 9.98033C4.8983 10.0835 4.16958 9.88167 3.46888 9.67538C2.88142 9.50273 2.29505 9.32559 1.71095 9.14285C1.4004 9.04643 1.07976 8.94217 0.839844 8.72355C0.599925 8.50494 0.462047 8.13721 0.606671 7.84572C0.697481 7.66298 0.873499 7.5475 1.05848 7.45333L1.0607 7.45445Z" fill="white"/>
</svg>
