<svg width="22" height="22" viewBox="0 0 22 22" fill="none" xmlns="http://www.w3.org/2000/svg">
<path d="M14.1185 15.681C10.023 15.681 6.69106 12.3479 6.68994 8.25247C6.69106 7.21432 7.53639 6.37012 8.5723 6.37012C8.6788 6.37012 8.78418 6.37909 8.88508 6.39702C9.10706 6.43402 9.31784 6.50914 9.51179 6.62237C9.53982 6.63918 9.55888 6.6661 9.56336 6.69749L9.99611 9.42516C10.0017 9.45655 9.99163 9.48906 9.97033 9.51261C9.73153 9.77719 9.42658 9.96778 9.08689 10.0631L8.92321 10.109L8.98486 10.2671C9.54318 11.6887 10.68 12.8244 12.1027 13.3849L12.2608 13.4477L12.3067 13.284C12.402 12.9443 12.5926 12.6394 12.8572 12.4006C12.8763 12.3827 12.902 12.3737 12.9278 12.3737C12.9334 12.3737 12.939 12.3737 12.9458 12.3748L15.6734 12.8076C15.706 12.8132 15.7329 12.8311 15.7497 12.8591C15.8618 13.0531 15.9369 13.265 15.975 13.487C15.993 13.5856 16.0008 13.6899 16.0008 13.7986C16.0008 14.8357 15.1566 15.6799 14.1185 15.681Z" fill="white"/>
<path d="M21.381 10.1019C21.1601 7.60626 20.0166 5.29115 18.1611 3.58369C16.2945 1.86614 13.8729 0.919922 11.3403 0.919922C5.78178 0.919922 1.25921 5.4425 1.25921 11.001C1.25921 12.8665 1.77379 14.6839 2.74804 16.2669L0.575317 21.0765L7.53184 20.3354C8.74153 20.8309 10.0218 21.0821 11.3391 21.0821C11.6856 21.0821 12.041 21.0641 12.3975 21.0271C12.7114 20.9935 13.0287 20.9442 13.3403 20.8814C17.9952 19.9408 21.3933 15.8095 21.4202 11.0548V11.001C21.4202 10.6983 21.4068 10.3956 21.3799 10.103L21.381 10.1019ZM7.79979 18.2243L3.95101 18.6347L5.10015 16.0886L4.87032 15.7803C4.8535 15.7579 4.83669 15.7355 4.81763 15.7097C3.81984 14.3318 3.2929 12.704 3.2929 11.0021C3.2929 6.56474 6.90289 2.95475 11.3403 2.95475C15.4974 2.95475 19.021 6.19813 19.3607 10.3384C19.3787 10.5604 19.3888 10.7835 19.3888 11.0032C19.3888 11.066 19.3876 11.1277 19.3865 11.1938C19.3013 14.9058 16.7082 18.0584 13.0802 18.8611C12.8033 18.9228 12.5197 18.9699 12.2372 19.0002C11.9434 19.0338 11.6419 19.0506 11.3425 19.0506C10.2763 19.0506 9.24043 18.8443 8.26169 18.4362C8.15294 18.3925 8.04643 18.3454 7.94665 18.2972L7.80091 18.2266L7.79979 18.2243Z" fill="white"/>
</svg>
