<svg width="22" height="16" viewBox="0 0 22 16" fill="none" xmlns="http://www.w3.org/2000/svg">
<path d="M21.0749 4.68421C20.949 3.46884 20.6781 2.1253 19.6808 1.41923C18.9084 0.871695 17.8931 0.851453 16.9454 0.852577C14.9418 0.852577 12.9372 0.855954 10.9337 0.857079C9.00663 0.859327 7.07956 0.86045 5.1525 0.862699C4.3475 0.862699 3.56498 0.800861 2.81731 1.1494C2.17533 1.44846 1.67277 2.01736 1.37033 2.65035C0.950963 3.53068 0.863272 4.52794 0.812678 5.50159C0.719361 7.27462 0.729479 9.05214 0.840786 10.824C0.92286 12.117 1.13085 13.546 2.13036 14.3701C3.01632 15.0998 4.26654 15.1358 5.41558 15.1369C9.06283 15.1403 12.7112 15.1436 16.3596 15.1459C16.8273 15.147 17.3153 15.138 17.792 15.0863C18.7296 14.9851 19.6234 14.7164 20.2261 14.0216C20.8343 13.3211 20.9906 12.3464 21.0828 11.4233C21.3077 9.18369 21.3054 6.92271 21.0749 4.68421ZM8.82449 11.1389V4.85961L14.2616 7.99867L8.82449 11.1389Z" fill="white"/>
</svg>
