<svg width="346" height="336" viewBox="0 0 346 336" fill="none" xmlns="http://www.w3.org/2000/svg">
<path d="M102.258 118.705C115.504 118.705 124.299 115.498 128.75 108.978C133.2 102.565 135.319 93.5862 135.319 82.256C135.319 70.9258 132.988 62.4816 128.326 55.7477C123.663 49.0137 114.974 45.5933 102.152 45.5933C88.3762 45.5933 77.9915 46.0208 71.2096 46.8759V118.598H102.152L102.258 118.705ZM250.293 119.774C266.082 119.774 277.527 116.674 284.521 110.581C291.514 104.489 295.011 94.9757 295.011 82.0422C295.011 69.1087 291.514 60.0232 284.521 53.8237C277.527 47.6241 266.188 44.5244 250.293 44.5244C234.398 44.5244 223.272 47.6241 216.384 53.8237C209.39 60.0232 205.893 69.4294 205.893 82.0422C205.893 94.6551 209.39 104.275 216.384 110.475C223.378 116.674 234.716 119.774 250.293 119.774ZM112.96 215.653C121.332 236.496 141.995 250.285 175.057 257.019C169.547 263.218 165.308 269.418 162.341 275.51C159.268 281.603 155.877 289.727 152.062 299.774C139.452 296.033 127.372 289.62 115.716 280.534C104.059 271.449 94.6283 260.012 87.5285 246.33C80.4287 259.905 70.9977 271.342 59.2354 280.427C47.4731 289.62 35.3929 296.033 22.9948 299.774C19.18 289.727 15.6831 281.603 12.716 275.51C9.64297 269.418 5.4043 263.218 0 257.019C32.9556 250.605 53.5132 236.817 61.7786 215.653H7.73557V176.745H65.8053L66.0173 161.567H57.4339C44.2941 161.567 31.0482 161.567 17.6964 161.353C18.8621 133.028 19.3919 106.733 19.3919 82.256C19.3919 57.7786 18.8621 31.8047 17.6964 4.86877C34.6511 3.47922 57.4339 2.73102 86.045 2.73102C112.855 2.73102 133.942 6.04455 149.519 12.5647C159.056 16.6265 166.898 21.5434 172.938 27.5291C174.527 25.6051 176.223 23.8949 178.13 22.1847C193.389 7.86166 217.444 0.593231 250.187 0.593231C282.931 0.593231 307.197 7.75477 322.457 22.1847C337.716 36.5078 345.451 56.4959 345.451 82.0422C345.451 107.589 337.822 128.111 322.563 142.327C312.178 152.054 297.554 158.467 278.904 161.46L285.474 179.311L292.15 161.353L333.477 164.881L327.013 180.059H341.107V206.781H304.442V212.767H339.729V241.947H304.442V248.254H343.544V277.327H304.442V297.209H264.811V277.327H227.51V248.254H264.811V241.947H229.418V212.767H264.811V206.781H229.1L231.007 207.529L213.947 232.327L229.418 234.572L214.371 296.354L210.556 295.498C194.025 292.185 181.839 289.94 173.891 288.764C177.282 280.534 180.037 272.731 182.369 265.356C184.594 257.981 187.137 249.216 189.786 239.168L192.436 229.335L205.999 231.259C198.37 227.517 188.197 224.204 175.693 221.211L194.555 194.275C198.37 195.237 202.396 196.413 206.635 198.016C210.874 199.513 215.006 201.116 218.927 202.719L228.358 206.46V181.876L218.609 199.085C205.046 193.42 190.634 189.358 175.375 186.793L192.647 158.681C197.204 159.75 202.29 161.247 208.119 163.171C213.841 165.095 217.232 166.27 218.291 166.591C225.073 169.049 230.372 170.867 234.186 171.829L229.524 180.059H243.829L237.365 164.881L252.095 163.598H250.187C217.55 163.598 193.601 156.437 178.236 142.22C176.011 140.083 173.891 137.945 171.984 135.593C165.732 142.114 157.996 147.458 148.777 151.734C137.545 156.864 124.193 160.071 108.934 161.14L108.722 176.745H167.003V215.653H112.96Z" fill="url(#paint0_linear_4351_15224)"/>
<path d="M12.6744 336.001C12.4427 336.001 12.3269 335.752 12.3269 335.253C12.3269 334.921 12.3931 334.506 12.5255 334.008C12.691 333.543 12.8896 332.994 13.1213 332.363C13.3861 332.131 13.5185 331.832 13.5185 331.466C13.5847 331.499 13.6178 331.499 13.6178 331.466C13.6509 331.4 13.6674 331.367 13.6674 331.367C13.7336 331.267 13.7667 331.167 13.7667 331.068C13.7667 330.935 13.7833 330.818 13.8164 330.719V330.619C13.684 330.287 13.6178 330.004 13.6178 329.772L13.5185 329.722C13.4523 329.523 13.4026 329.307 13.3695 329.074C13.3695 328.842 13.3861 328.626 13.4192 328.427C13.4523 328.227 13.4357 328.128 13.3695 328.128C13.3364 328.094 13.3199 328.044 13.3199 327.978C13.3199 327.912 13.3199 327.862 13.3199 327.829C13.353 327.762 13.3861 327.662 13.4192 327.53C13.4523 327.463 13.5019 327.347 13.5681 327.181C13.6674 326.981 13.7171 326.865 13.7171 326.832C13.7171 326.765 13.7005 326.716 13.6674 326.682C13.6343 326.616 13.6178 326.566 13.6178 326.533L13.7667 326.334V325.985C13.7998 325.918 13.8164 325.835 13.8164 325.736C13.8495 325.669 13.8991 325.619 13.9653 325.586C14.0315 325.52 14.0812 325.47 14.1143 325.437C14.1805 325.37 14.2301 325.287 14.2632 325.187C14.3294 325.055 14.3791 324.955 14.4122 324.889C14.4453 324.822 14.4784 324.772 14.5115 324.739C14.5777 324.673 14.6273 324.59 14.6604 324.49C14.7266 324.39 14.7763 324.307 14.8094 324.241C14.8425 324.141 14.8921 324.041 14.9583 323.942L15.3059 323.643C15.4383 323.51 15.5707 323.443 15.7031 323.443C15.8355 323.443 15.9182 323.576 15.9513 323.842L15.9017 324.091L15.1073 324.938C15.0411 325.005 15.008 325.088 15.008 325.187C14.9749 325.221 14.9418 325.254 14.9087 325.287C14.9087 325.32 14.8921 325.37 14.859 325.437C14.859 325.503 14.8094 325.586 14.7101 325.686L14.5611 326.134C14.4949 326.134 14.4618 326.168 14.4618 326.234C14.4287 326.267 14.3956 326.466 14.3625 326.832C14.3625 327.164 14.3625 327.363 14.3625 327.43H14.5115C14.5115 327.463 14.5115 327.513 14.5115 327.579C14.5446 327.613 14.5446 327.662 14.5115 327.729V328.028C14.5115 328.094 14.4949 328.161 14.4618 328.227C14.4618 328.227 14.4453 328.244 14.4122 328.277C14.4122 328.277 14.4122 328.294 14.4122 328.327C14.4122 328.36 14.4287 328.41 14.4618 328.476C14.4949 328.51 14.5115 328.559 14.5115 328.626C14.5115 328.659 14.4949 328.692 14.4618 328.726C14.4618 328.726 14.4618 328.742 14.4618 328.775C14.4618 328.809 14.4784 328.842 14.5115 328.875C14.5446 328.875 14.5611 328.892 14.5611 328.925V328.975C14.8259 328.476 15.0742 327.961 15.3059 327.43C15.5707 326.898 15.8355 326.367 16.1003 325.835C16.1665 325.702 16.2327 325.669 16.2989 325.736C16.3982 325.769 16.4644 325.752 16.4975 325.686C16.5306 325.653 16.5471 325.57 16.5471 325.437C16.5471 325.337 16.5306 325.237 16.4975 325.138C16.4975 325.038 16.5471 324.922 16.6464 324.789L17.3415 323.543C18.3014 321.816 19.2613 320.155 20.2212 318.56C21.2142 316.965 22.141 315.736 23.0015 314.872L23.1505 314.773L23.2994 314.524C23.2994 314.524 23.3325 314.507 23.3987 314.474C23.4649 314.441 23.5146 314.457 23.5477 314.524C23.5477 314.557 23.5146 314.623 23.4484 314.723C23.4153 314.823 23.3987 314.889 23.3987 314.922C23.498 315.088 23.6139 315.105 23.7463 314.972C23.7794 314.906 23.7794 314.756 23.7463 314.524C23.7132 314.291 23.7132 314.175 23.7463 314.175C23.8125 314.142 23.8456 314.142 23.8456 314.175C23.8787 314.208 23.9118 314.225 23.9449 314.225C24.0111 314.225 24.0442 314.175 24.0442 314.075C24.0442 313.976 24.0607 313.909 24.0938 313.876C24.4579 313.743 24.7889 313.677 25.0868 313.677C25.2523 313.677 25.484 313.76 25.7819 313.926C26.1129 314.092 26.2784 314.324 26.2784 314.623C26.2784 314.789 26.1957 314.989 26.0302 315.221C25.9971 315.255 25.964 315.321 25.9309 315.421C25.8978 315.487 25.8481 315.553 25.7819 315.62C25.7488 315.653 25.7157 315.67 25.6826 315.67C25.6826 315.637 25.6495 315.637 25.5833 315.67C25.5502 315.703 25.5006 315.72 25.4344 315.72C25.4013 315.686 25.3516 315.67 25.2854 315.67C25.2192 315.67 25.2027 315.72 25.2358 315.819C25.302 315.919 25.3185 315.985 25.2854 316.019C25.2523 316.052 25.2192 316.052 25.1861 316.019C25.153 315.985 25.1034 316.002 25.0372 316.068C25.0041 316.102 25.0206 316.135 25.0868 316.168C25.1861 316.168 25.2027 316.201 25.1365 316.268C24.9379 316.467 24.6896 316.683 24.3917 316.916C24.1269 317.115 23.8621 317.314 23.5973 317.514C23.5642 317.547 23.5311 317.547 23.498 317.514C23.4649 317.447 23.4318 317.43 23.3987 317.464L23.0512 317.962C22.7202 318.294 22.3892 318.643 22.0582 319.008C21.7272 319.374 21.3797 319.789 21.0156 320.254C20.9163 320.454 20.8004 320.636 20.668 320.802C20.5356 320.968 20.3536 321.035 20.1219 321.002C20.1219 321.035 20.155 321.085 20.2212 321.151C20.2874 321.184 20.2874 321.251 20.2212 321.351C19.6585 322.148 19.0958 322.978 18.5331 323.842C17.9704 324.706 17.4408 325.603 16.9443 326.533C16.7126 326.932 16.4313 327.447 16.1003 328.078L15.6534 328.975C15.6203 329.074 15.5707 329.124 15.5045 329.124C15.4714 329.091 15.4217 329.074 15.3555 329.074C15.4548 329.274 15.4714 329.49 15.4052 329.722C15.4383 329.722 15.4548 329.739 15.4548 329.772C16.0837 330.204 16.5306 330.503 16.7954 330.669C17.0933 330.835 17.5897 331.001 18.2848 331.167C18.5496 331.234 18.8144 331.317 19.0792 331.416C19.344 331.483 19.6254 331.516 19.9233 331.516C19.9564 331.516 19.9564 331.533 19.9233 331.566C19.9233 331.599 19.9398 331.616 19.9729 331.616C20.1053 331.616 20.2377 331.632 20.3701 331.666C20.5025 331.666 20.6349 331.666 20.7673 331.666C20.8004 331.666 20.817 331.666 20.817 331.666C20.8501 331.632 20.8832 331.616 20.9163 331.616C20.9825 331.616 21.0818 331.649 21.2142 331.715C21.4459 331.715 21.6941 331.715 21.9589 331.715C22.2568 331.715 22.5216 331.699 22.7533 331.666C23.0181 331.632 23.2663 331.599 23.498 331.566C23.7628 331.499 24.0111 331.45 24.2428 331.416C24.7062 331.383 25.153 331.3 25.5833 331.167C26.0467 331.001 26.4936 330.852 26.9239 330.719C27.4204 330.553 27.95 330.37 28.5126 330.171C29.1084 329.938 29.7208 329.672 30.3497 329.373C30.4159 329.34 30.449 329.423 30.449 329.622C30.4821 329.789 30.5317 329.855 30.5979 329.822C30.6641 329.789 30.7469 329.656 30.8462 329.423C30.9786 329.191 31.0613 329.058 31.0944 329.024L31.5413 328.427L31.9385 327.978C32.0047 327.878 32.0709 327.745 32.1371 327.579C32.2033 327.413 32.2529 327.28 32.286 327.181C32.3853 326.915 32.4681 326.633 32.5343 326.334C32.6005 326.035 32.6336 325.719 32.6336 325.387C32.6336 325.221 32.7163 325.138 32.8818 325.138C33.0473 325.138 33.1301 325.221 33.1301 325.387C33.1301 325.553 33.1301 325.736 33.1301 325.935C33.1301 326.134 33.097 326.317 33.0308 326.483C33.0308 326.516 32.9977 326.533 32.9315 326.533C32.8984 326.5 32.8818 326.5 32.8818 326.533C32.8487 326.765 32.8156 327.015 32.7825 327.28C32.7494 327.513 32.6667 327.745 32.5343 327.978L32.2364 328.476C32.9315 328.111 33.5935 327.729 34.2223 327.33C34.8843 326.898 35.447 326.417 35.9104 325.885L36.3573 325.387C36.3904 325.32 36.44 325.271 36.5062 325.237C36.5724 325.204 36.6221 325.254 36.6552 325.387C36.5559 325.486 36.5393 325.619 36.6055 325.785C36.771 325.752 36.8703 325.603 36.9034 325.337C36.9365 325.038 36.9862 324.772 37.0524 324.54C37.3503 324.174 37.6482 323.776 37.9461 323.344C37.9792 323.311 38.0288 323.294 38.095 323.294C38.2274 323.294 38.3433 323.311 38.4426 323.344C38.5419 323.377 38.6412 323.327 38.7405 323.194C38.6743 323.028 38.6081 322.912 38.5419 322.845C38.4757 322.746 38.4922 322.613 38.5915 322.447L38.7405 322.198C38.906 321.899 39.088 321.683 39.2866 321.55C39.4852 321.417 39.6176 321.135 39.6838 320.703C40.3127 319.573 40.6271 318.344 40.6271 317.015C40.6271 315.487 40.1472 314.075 39.1873 312.78C38.2605 311.451 36.8372 310.62 34.9174 310.288C34.8512 310.288 34.6526 310.238 34.3216 310.139C34.0237 310.006 33.8417 309.939 33.7755 309.939C33.7093 309.939 33.6431 309.939 33.5769 309.939C33.5107 309.906 33.4445 309.889 33.3783 309.889C33.2459 309.889 33.1466 309.906 33.0804 309.939C33.0142 309.939 32.8653 309.906 32.6336 309.84C32.3357 309.673 31.955 309.574 31.4916 309.541C31.0613 309.474 30.8131 309.424 30.7469 309.391L29.8532 309.59C29.6877 309.59 29.5222 309.59 29.3567 309.59C29.2243 309.557 29.0919 309.541 28.9595 309.541C28.1982 309.541 27.5693 309.607 27.0728 309.74C26.6094 309.84 26.1957 309.906 25.8316 309.939L23.7959 310.139C23.5973 310.039 23.4153 310.072 23.2498 310.238H23.2001C22.9684 310.238 22.7367 310.271 22.5051 310.338C22.3065 310.371 22.0913 310.421 21.8596 310.487C21.7272 310.521 21.5783 310.537 21.4128 310.537C21.2804 310.537 21.1314 310.57 20.9659 310.637V310.687C20.8335 310.72 20.6846 310.753 20.5191 310.786C20.3867 310.786 20.2377 310.82 20.0722 310.886H20.0226C19.8902 310.952 19.7578 311.019 19.6254 311.085C19.5261 311.152 19.3937 311.168 19.2282 311.135C19.0958 311.168 18.9468 311.202 18.7813 311.235C18.6489 311.268 18.5 311.318 18.3345 311.384H18.2352C18.1359 311.384 18.0366 311.285 17.9373 311.085C17.838 310.886 17.7883 310.753 17.7883 310.687C17.7552 310.886 17.7056 311.102 17.6394 311.334C17.6063 311.567 17.4904 311.683 17.2919 311.683V311.733C17.0602 311.766 16.845 311.833 16.6464 311.932C16.4478 312.032 16.2327 312.115 16.001 312.182C15.8686 312.215 15.7362 312.231 15.6038 312.231C15.4714 312.198 15.3224 312.182 15.1569 312.182C15.0907 312.182 15.0245 312.198 14.9583 312.231C14.8921 312.231 14.8259 312.248 14.7597 312.281C14.6604 312.314 14.5942 312.381 14.5611 312.481C14.5611 312.58 14.528 312.663 14.4618 312.73C14.3294 312.863 14.1639 312.962 13.9653 313.029C13.7667 313.095 13.6012 313.162 13.4688 313.228C13.4026 313.261 13.3033 313.228 13.1709 313.128C13.0716 313.029 12.9889 313.012 12.9227 313.079C12.8896 313.112 12.8565 313.195 12.8234 313.328C12.8234 313.461 12.7903 313.544 12.7241 313.577H12.6744L11.4829 314.125C11.3174 314.191 11.1188 314.291 10.8871 314.424C10.6554 314.557 10.4568 314.64 10.2913 314.673C10.2582 314.673 10.2416 314.607 10.2416 314.474C10.2416 314.341 10.2085 314.308 10.1423 314.374C9.97682 314.441 9.79477 314.623 9.59617 314.922C9.43067 315.188 9.26517 315.371 9.09967 315.47C8.93418 315.603 8.76868 315.67 8.60318 315.67C8.43768 315.67 8.28873 315.736 8.15633 315.869C8.05703 315.936 7.95774 316.085 7.85844 316.318C7.79224 316.517 7.70949 316.666 7.61019 316.766L6.91509 317.713C6.8489 317.779 6.7827 317.846 6.7165 317.912C6.6503 317.979 6.6172 318.062 6.6172 318.161C6.4186 318.494 6.3193 318.876 6.3193 319.307C6.3193 320.038 6.56755 320.57 7.06404 320.902C7.59364 321.201 8.17288 321.434 8.80178 321.6H8.85143C9.08313 321.766 9.29827 321.832 9.49687 321.799C9.62927 321.733 9.74512 321.699 9.84442 321.699C9.97682 321.699 10.0927 321.766 10.192 321.899L10.8871 322.048C11.2512 322.148 11.4332 322.247 11.4332 322.347C11.4332 322.414 11.3505 322.48 11.185 322.546C11.0526 322.58 10.9036 322.596 10.7381 322.596C10.1754 322.596 9.48032 322.48 8.65283 322.247C7.85844 322.015 7.14679 321.649 6.5179 321.151C5.889 320.62 5.52491 319.972 5.42561 319.208C5.42561 319.175 5.37596 319.091 5.27666 318.959C5.21046 318.826 5.16081 318.709 5.12771 318.61C5.09461 318.444 5.06151 318.294 5.02841 318.161C5.02841 317.995 5.02841 317.846 5.02841 317.713C5.02841 316.65 5.44216 315.67 6.26965 314.773C6.43515 314.607 6.5841 314.49 6.7165 314.424C6.8489 314.358 7.01439 314.258 7.21299 314.125C7.37849 313.992 7.46124 313.892 7.46124 313.826C7.46124 313.726 7.56054 313.61 7.75914 313.477C8.02393 313.278 8.37148 313.079 8.80178 312.879C9.23207 312.647 9.57962 312.464 9.84442 312.331V312.281H9.94372C10.0761 312.281 10.2085 312.215 10.3409 312.082C10.9367 311.783 11.5656 311.517 12.2276 311.285C12.9227 311.019 13.6178 310.77 14.3129 310.537C14.5115 310.438 14.6935 310.388 14.859 310.388C15.0245 310.388 15.1569 310.438 15.2562 310.537C15.2562 310.471 15.2562 310.421 15.2562 310.388C15.2562 310.321 15.2728 310.271 15.3059 310.238V310.188C16.0672 309.956 16.8285 309.723 17.5897 309.491C18.351 309.225 19.0958 309.092 19.824 309.092H19.8736C20.0722 309.092 20.2212 309.059 20.3205 308.992L20.6184 308.943H20.668C20.8666 309.009 21.0487 308.976 21.2142 308.843C22.0417 308.677 22.8361 308.577 23.5973 308.544C24.3586 308.511 25.0041 308.477 25.5337 308.444C25.633 308.477 25.7323 308.494 25.8316 308.494C25.9309 308.461 26.0136 308.444 26.0798 308.444L26.5763 308.394C26.6756 308.394 26.7749 308.411 26.8742 308.444C27.0066 308.444 27.1225 308.428 27.2218 308.394L30.0021 308.345H30.0518C30.1511 308.345 30.2338 308.394 30.3 308.494C30.3993 308.561 30.4986 308.527 30.5979 308.394C30.8627 308.394 31.2599 308.444 31.7895 308.544C32.3522 308.644 32.9149 308.743 33.4776 308.843C34.0403 308.909 34.454 308.976 34.7188 309.042C35.2153 309.142 35.9104 309.374 36.8041 309.74C37.7309 310.072 38.6577 310.587 39.5845 311.285C40.5113 311.949 41.256 312.846 41.8187 313.976C42.4145 315.072 42.6297 316.45 42.4642 318.111C42.4311 318.709 42.2987 319.274 42.067 319.806C41.8353 320.337 41.587 320.885 41.3222 321.45L40.8257 322.546C40.7926 322.58 40.743 322.63 40.6768 322.696C40.6106 322.729 40.5444 322.779 40.4782 322.845C40.4451 322.945 40.3954 323.028 40.3292 323.095C40.263 323.128 40.1968 323.194 40.1306 323.294C39.9982 323.493 39.8493 323.693 39.6838 323.892C39.5183 324.058 39.3528 324.257 39.1873 324.49L39.088 324.639C38.6246 325.37 38.0454 326.035 37.3503 326.633C36.6552 327.197 35.9601 327.712 35.265 328.177V328.227C35.1988 328.26 35.116 328.31 35.0167 328.377C34.9505 328.41 34.8843 328.46 34.8181 328.526L34.7685 328.576H34.7188C34.6526 328.609 34.5699 328.642 34.4706 328.676C34.3713 328.709 34.2885 328.792 34.2223 328.925C34.0899 329.024 33.9575 329.074 33.8251 329.074C33.3949 329.307 32.9977 329.506 32.6336 329.672C32.2695 329.805 31.955 329.938 31.6902 330.071C31.6902 330.137 31.6406 330.237 31.5413 330.37C31.442 330.503 31.3592 330.602 31.293 330.669C30.7303 331.134 30.3497 331.516 30.1511 331.815C29.9525 332.114 29.7042 332.347 29.4063 332.513C29.3732 332.546 29.3236 332.562 29.2574 332.562C29.125 332.562 29.0257 332.612 28.9595 332.712C28.8933 332.812 28.8271 332.911 28.7609 333.011C28.5954 333.177 28.2644 333.343 27.7679 333.509C27.3045 333.675 26.957 333.841 26.7253 334.008C26.626 334.041 26.5101 334.074 26.3777 334.107C26.2784 334.174 26.2288 334.207 26.2288 334.207H25.9805C25.9474 334.207 25.8812 334.24 25.7819 334.307C25.6826 334.406 25.5999 334.473 25.5337 334.506C25.4675 334.539 25.4013 334.556 25.3351 334.556C25.2689 334.556 25.2192 334.589 25.1861 334.655C25.0206 334.655 24.8386 334.689 24.64 334.755C24.6069 334.755 24.4414 334.755 24.1435 334.755C23.8456 334.788 23.6635 334.821 23.5973 334.855C23.5642 334.888 23.4484 334.938 23.2498 335.004C23.0512 335.071 22.9188 335.104 22.8526 335.104C22.8195 335.104 22.7864 335.087 22.7533 335.054C22.7202 335.054 22.6706 335.071 22.6044 335.104C22.5713 335.17 22.5216 335.204 22.4554 335.204C22.4223 335.204 22.3561 335.187 22.2568 335.154C22.1906 335.154 22.1244 335.154 22.0582 335.154C22.0251 335.12 21.9589 335.137 21.8596 335.204C21.7934 335.27 21.7272 335.303 21.661 335.303C21.6279 335.303 21.5948 335.287 21.5617 335.253C21.5617 335.253 21.5452 335.253 21.5121 335.253C21.4459 335.253 21.3797 335.27 21.3135 335.303C21.2473 335.336 21.1811 335.353 21.1149 335.353C20.8832 335.353 20.668 335.336 20.4694 335.303C20.2708 335.27 20.0722 335.253 19.8736 335.253C19.8405 335.253 19.7412 335.204 19.5757 335.104C19.4433 335.004 19.3606 334.954 19.3275 334.954C19.0958 334.954 18.8641 334.938 18.6324 334.905C18.4338 334.905 18.2352 334.888 18.0366 334.855C18.0035 334.855 17.9704 334.821 17.9373 334.755C17.9373 334.722 17.9042 334.705 17.838 334.705H17.7387C17.7056 334.705 17.6228 334.672 17.4904 334.606C17.3911 334.539 17.325 334.489 17.2919 334.456L17.2422 334.406C17.1098 334.373 17.0271 334.323 16.994 334.257C16.994 334.19 16.9609 334.157 16.8947 334.157C16.8616 334.157 16.845 334.157 16.845 334.157C16.845 334.19 16.8285 334.207 16.7954 334.207C16.7292 334.207 16.6961 334.174 16.6961 334.107C16.5968 334.041 16.4313 333.958 16.1996 333.858C16.001 333.758 15.8686 333.642 15.8024 333.509C15.67 333.476 15.5872 333.443 15.5541 333.41C15.5541 333.376 15.521 333.31 15.4548 333.21L15.2562 333.111L14.7597 332.662C14.7597 332.562 14.7432 332.513 14.7101 332.513L14.5611 332.413C14.5611 332.28 14.5115 332.214 14.4122 332.214C14.346 332.014 14.3129 331.915 14.3129 331.915C14.015 332.579 13.7502 333.227 13.5185 333.858C13.3199 334.489 13.1378 335.071 12.9723 335.602C12.9061 335.868 12.8068 336.001 12.6744 336.001ZM21.3631 334.506C21.4293 334.506 21.479 334.489 21.5121 334.456C21.5783 334.423 21.6279 334.39 21.661 334.356H21.8596C22.0913 334.224 22.2072 334.224 22.2072 334.356C22.2072 334.489 22.2899 334.489 22.4554 334.356H22.7037C22.7368 334.257 22.7864 334.207 22.8526 334.207C22.9519 334.207 23.0181 334.19 23.0512 334.157C23.1174 334.157 23.1505 334.124 23.1505 334.057C23.1836 334.024 23.2498 334.008 23.3491 334.008C23.3822 334.008 23.4318 334.041 23.498 334.107C23.6304 334.107 23.8952 334.041 24.2924 333.908C24.7227 333.775 24.9544 333.709 24.9875 333.709C25.0206 333.742 25.0703 333.709 25.1365 333.609C25.2358 333.509 25.302 333.476 25.3351 333.509C25.3351 333.476 25.3847 333.443 25.484 333.41C25.5833 333.41 25.6495 333.393 25.6826 333.36C25.8812 333.26 26.0467 333.21 26.1791 333.21C26.2122 333.177 26.295 333.111 26.4274 333.011C26.5929 332.945 26.6756 332.895 26.6756 332.861C26.7418 332.795 26.8411 332.745 26.9735 332.712C27.1059 332.679 27.1887 332.646 27.2218 332.612C27.3211 332.612 27.6521 332.446 28.2148 332.114C28.8105 331.749 29.3567 331.317 29.8532 330.818C29.2905 331.018 28.7443 331.184 28.2148 331.317C27.7183 331.416 27.4535 331.466 27.4204 331.466C27.3542 331.533 27.3045 331.566 27.2714 331.566C27.139 331.499 27.0728 331.466 27.0728 331.466L27.0232 331.516C26.9901 331.516 26.957 331.533 26.9239 331.566C26.8908 331.599 26.8246 331.616 26.7253 331.616C26.6922 331.582 26.5929 331.616 26.4274 331.715C26.295 331.782 26.2122 331.815 26.1791 331.815C26.146 331.815 26.0964 331.832 26.0302 331.865C25.9971 331.865 25.9474 331.848 25.8812 331.815C25.7488 331.948 25.4013 332.048 24.8386 332.114C24.309 332.147 23.9614 332.164 23.7959 332.164H23.7463C23.7132 332.131 23.6635 332.131 23.5973 332.164C23.5642 332.164 23.5146 332.164 23.4484 332.164C23.4484 332.197 23.4318 332.23 23.3987 332.264H23.1008C22.9684 332.264 22.8361 332.28 22.7037 332.313C22.6044 332.347 22.4885 332.363 22.3561 332.363L22.3065 332.313C22.2734 332.313 22.2237 332.33 22.1575 332.363C22.0913 332.396 22.0417 332.413 22.0086 332.413C21.9755 332.413 21.9424 332.396 21.9093 332.363C21.9093 332.297 21.8762 332.264 21.81 332.264C21.7769 332.264 21.7272 332.297 21.661 332.363C21.6279 332.396 21.5948 332.396 21.5617 332.363H21.3631C21.2638 332.363 21.2142 332.363 21.2142 332.363C21.1811 332.363 21.148 332.38 21.1149 332.413C21.1149 332.413 21.0983 332.413 21.0652 332.413C21.0652 332.413 21.0321 332.38 20.9659 332.313C20.9328 332.313 20.8666 332.347 20.7673 332.413C20.7011 332.446 20.6349 332.446 20.5687 332.413H20.4694C20.4032 332.347 20.3701 332.313 20.3701 332.313C20.337 332.313 20.3205 332.33 20.3205 332.363H19.8736C19.675 332.363 19.4764 332.297 19.2778 332.164C19.0792 332.031 18.8972 331.965 18.7317 331.965C18.6986 331.965 18.6655 331.981 18.6324 332.014C18.6324 332.014 18.6158 332.014 18.5827 332.014C18.5496 332.014 18.5165 332.014 18.4834 332.014C18.4834 331.981 18.4669 331.965 18.4338 331.965C18.4338 331.965 18.4172 331.965 18.3841 331.965C18.3841 331.965 18.3676 331.981 18.3345 332.014C18.3345 331.981 18.3179 331.965 18.2848 331.965C18.2848 331.931 18.2848 331.915 18.2848 331.915L17.838 331.815C17.838 331.715 17.8049 331.666 17.7387 331.666C17.7056 331.566 17.4904 331.466 17.0933 331.367C16.6961 331.267 16.4644 331.2 16.3982 331.167C16.3651 331.167 16.2989 331.134 16.1996 331.068C16.1334 331.001 16.1003 330.985 16.1003 331.018H16.0506C15.9513 331.018 15.8189 330.951 15.6534 330.818C15.521 330.652 15.3886 330.553 15.2562 330.519C15.1569 330.42 15.1073 330.32 15.1073 330.22H15.0576L15.008 330.27L14.9087 330.569C14.9087 330.602 14.9252 330.669 14.9583 330.769C14.9914 330.868 14.9914 330.951 14.9583 331.018C15.0245 331.084 15.0576 331.167 15.0576 331.267C15.0576 331.333 15.0907 331.383 15.1569 331.416C15.19 331.516 15.2231 331.616 15.2562 331.715C15.3224 331.815 15.3721 331.915 15.4052 332.014C15.4052 332.048 15.4879 332.114 15.6534 332.214C15.8189 332.28 15.9017 332.347 15.9017 332.413C15.9348 332.446 15.9679 332.479 16.001 332.513C16.0672 332.546 16.1003 332.596 16.1003 332.662C16.1334 332.695 16.1665 332.745 16.1996 332.812C16.2327 332.878 16.2492 332.945 16.2492 333.011C16.3154 333.011 16.3651 333.028 16.3982 333.061C16.4313 333.127 16.514 333.227 16.6464 333.36C16.7788 333.526 16.8781 333.626 16.9443 333.659C16.9774 333.659 16.994 333.642 16.994 333.609C16.994 333.609 17.0105 333.609 17.0436 333.609C17.1098 333.642 17.1926 333.709 17.2919 333.808C17.3911 333.941 17.4573 334.008 17.4904 334.008C17.5566 334.008 17.5897 334.008 17.5897 334.008C17.8545 334.041 18.1193 334.074 18.3841 334.107C18.6489 334.174 18.9137 334.224 19.1785 334.257C19.2116 334.257 19.2613 334.273 19.3275 334.307C19.3937 334.373 19.4764 334.406 19.5757 334.406C19.8405 334.439 20.155 334.456 20.5191 334.456C20.9163 334.456 21.1811 334.456 21.3135 334.456L21.3631 334.506Z" fill="white"/>
<path d="M43.5134 325.536C43.2817 325.536 43.0831 325.52 42.9176 325.486C42.7521 325.453 42.6859 325.42 42.719 325.387C42.7521 325.32 42.7521 325.254 42.719 325.187C42.6859 325.088 42.6694 325.021 42.6694 324.988C42.6694 324.922 42.719 324.822 42.8183 324.689C42.9507 324.556 43.0335 324.407 43.0666 324.241C43.2321 324.241 43.3976 324.158 43.5631 323.992C43.5631 324.058 43.5962 324.124 43.6623 324.191C43.6623 324.158 43.6789 324.124 43.712 324.091C43.712 324.091 43.7451 324.108 43.8113 324.141C43.9106 324.141 43.9602 324.158 43.9602 324.191C44.0926 324.124 44.2085 324.075 44.3078 324.041C44.4071 324.008 44.5229 323.975 44.6553 323.942C44.6884 323.942 44.6884 323.958 44.6553 323.992C44.6553 324.025 44.6719 324.058 44.705 324.091L44.8539 324.041C44.8539 324.075 45.036 324.058 45.4001 323.992C45.7642 323.925 45.9628 323.892 45.9959 323.892H46.1945C46.4593 323.892 46.6579 323.859 46.7903 323.792C46.8234 323.759 46.9227 323.809 47.0882 323.942C47.2868 324.041 47.4026 324.058 47.4357 323.992C47.5019 323.958 47.6674 323.925 47.9322 323.892C48.2301 323.859 48.4122 323.892 48.4784 323.992C48.5115 323.958 48.5611 323.942 48.6273 323.942C48.6935 324.075 48.7101 324.174 48.677 324.241C48.6439 324.274 48.6439 324.307 48.677 324.34C48.7432 324.34 48.7928 324.324 48.8259 324.291C48.859 324.257 48.8921 324.257 48.9252 324.291C48.9583 324.291 48.9749 324.274 48.9749 324.241C48.9749 324.207 48.9914 324.174 49.0245 324.141C49.1238 324.141 49.2231 324.141 49.3224 324.141C49.4217 324.141 49.5375 324.124 49.6699 324.091C49.7361 324.224 49.7858 324.291 49.8189 324.291C49.8851 324.291 49.9844 324.257 50.1168 324.191C50.2823 324.091 50.3816 324.058 50.4147 324.091C50.4147 324.091 50.4809 324.158 50.6133 324.291C50.6795 324.224 50.7126 324.191 50.7126 324.191C50.8781 324.191 51.0601 324.174 51.2587 324.141C51.4904 324.075 51.6228 324.058 51.6559 324.091C51.7221 324.091 51.7387 324.108 51.7056 324.141C51.6725 324.174 51.6725 324.207 51.7056 324.241C51.7387 324.241 51.7552 324.224 51.7552 324.191C51.7883 324.158 51.8214 324.141 51.8545 324.141C51.9207 324.174 51.9538 324.207 51.9538 324.241C51.9538 324.241 51.9704 324.257 52.0035 324.291C52.1028 324.158 52.2186 324.041 52.351 323.942C52.5165 323.842 52.7151 323.825 52.9468 323.892C53.013 323.892 53.0296 323.908 52.9965 323.942C52.9634 323.942 52.9634 323.942 52.9965 323.942C53.3937 324.041 53.5923 324.124 53.5923 324.191C53.5923 324.291 53.4599 324.374 53.1951 324.44C52.9303 324.506 52.7813 324.54 52.7482 324.54C52.7151 324.506 52.6986 324.49 52.6986 324.49C52.7317 324.49 52.7482 324.49 52.7482 324.49H52.6489C52.5827 324.49 52.4172 324.523 52.1524 324.59C51.8876 324.623 51.6725 324.656 51.507 324.689C51.4077 324.722 51.2587 324.789 51.0601 324.889C50.8615 324.955 50.7291 324.988 50.6629 324.988C50.6298 324.988 50.5305 325.021 50.365 325.088C50.1995 325.121 50.0837 325.138 50.0175 325.138C49.9844 325.104 49.9844 325.088 50.0175 325.088C50.0506 325.055 50.034 325.021 49.9678 324.988C49.9347 324.988 49.9182 325.021 49.9182 325.088C49.9513 325.121 49.9347 325.138 49.8685 325.138C49.8023 325.138 49.703 325.138 49.5706 325.138C49.4713 325.104 49.3721 325.088 49.2728 325.088C49.008 325.088 48.8259 325.154 48.7266 325.287H48.6273C48.5942 325.287 48.5611 325.271 48.528 325.237C48.4949 325.171 48.4453 325.138 48.3791 325.138C48.2467 325.138 48.1308 325.187 48.0315 325.287C47.9984 325.354 47.8495 325.403 47.5847 325.437C47.353 325.47 47.0716 325.486 46.7406 325.486C46.3434 325.486 45.9462 325.47 45.549 325.437C45.1518 325.403 44.9036 325.37 44.8043 325.337C44.7712 325.337 44.7381 325.37 44.705 325.437C44.705 325.47 44.6719 325.47 44.6057 325.437C44.5726 325.437 44.5726 325.437 44.6057 325.437C44.6388 325.403 44.6222 325.387 44.556 325.387C44.5229 325.387 44.4567 325.437 44.3574 325.536C44.3905 325.503 44.3905 325.47 44.3574 325.437C44.2581 325.47 44.1257 325.503 43.9602 325.536C43.8279 325.536 43.6789 325.536 43.5134 325.536Z" fill="white"/>
<path d="M66.1524 333.958C66.0531 333.958 65.8876 333.941 65.6559 333.908C65.4573 333.908 65.3415 333.891 65.3084 333.858C65.2753 333.792 65.3084 333.725 65.4077 333.659C65.5401 333.626 65.5401 333.592 65.4077 333.559C65.2753 333.526 65.176 333.459 65.1098 333.36C65.0436 333.293 64.9277 333.26 64.7622 333.26C64.5967 333.26 64.3651 333.327 64.0672 333.459C63.7693 333.592 63.5707 333.642 63.4714 333.609C62.7763 333.443 62.0977 333.21 61.4357 332.911C60.8068 332.646 60.211 332.297 59.6483 331.865C59.5821 331.798 59.5325 331.682 59.4994 331.516C59.4663 331.35 59.3504 331.25 59.1518 331.217C58.9202 331.184 58.7381 331.068 58.6057 330.868C58.4733 330.636 58.3078 330.436 58.1092 330.27C57.8775 330.071 57.712 329.838 57.6127 329.573C57.5465 329.274 57.4803 328.991 57.4141 328.726C57.2817 328.36 57.199 328.028 57.1659 327.729C57.1659 327.43 57.1659 327.081 57.1659 326.682C57.1659 326.417 57.2155 325.935 57.3148 325.237C57.4472 324.54 57.5134 324.058 57.5134 323.792V323.742C57.7451 323.211 57.8775 322.845 57.9106 322.646C57.9768 322.447 58.0265 322.297 58.0596 322.198C58.0927 322.065 58.192 321.882 58.3575 321.649C58.523 321.417 58.8208 321.002 59.2511 320.404C59.4497 320.138 59.5656 319.988 59.5987 319.955C59.6649 319.922 59.7642 319.839 59.8966 319.706C60.0952 319.44 60.3269 319.125 60.5917 318.759C60.8565 318.394 61.1047 318.111 61.3364 317.912C61.7005 317.613 62.1308 317.298 62.6273 316.965C63.1238 316.6 63.5707 316.301 63.9679 316.068C64.1003 315.969 64.2161 315.919 64.3154 315.919C64.4147 315.886 64.5306 315.852 64.6629 315.819C64.7622 315.786 64.9774 315.67 65.3084 315.47C65.6394 315.238 65.9704 315.022 66.3014 314.823C66.6655 314.623 66.8806 314.54 66.9468 314.573C66.9799 314.573 66.9965 314.59 66.9965 314.623C67.0296 314.623 67.0627 314.623 67.0958 314.623C67.162 314.623 67.2447 314.59 67.344 314.524C67.4433 314.424 67.5261 314.358 67.5923 314.324C67.9564 314.092 68.337 313.976 68.7342 313.976C69.0321 313.942 69.2804 313.892 69.479 313.826C69.6776 313.76 69.8927 313.693 70.1244 313.627C70.323 313.56 70.654 313.477 71.1174 313.378C71.5808 313.278 72.0111 313.228 72.4083 313.228C72.64 313.228 72.822 313.261 72.9544 313.328C73.153 313.427 73.2854 313.477 73.3516 313.477C73.4178 313.477 73.484 313.477 73.5502 313.477C73.6164 313.444 73.6992 313.411 73.7985 313.378C73.8978 313.344 74.0136 313.328 74.146 313.328C74.2122 313.328 74.2619 313.361 74.295 313.427C74.3612 313.461 74.4605 313.544 74.5928 313.677C74.626 313.71 74.6922 313.726 74.7915 313.726C74.8577 313.726 74.9239 313.71 74.9901 313.677C75.0894 313.643 75.1721 313.627 75.2383 313.627C75.4038 313.627 75.5196 313.693 75.5858 313.826C75.6851 313.926 75.801 313.992 75.9334 314.025C76.0989 314.059 76.2478 314.092 76.3802 314.125C76.5126 314.125 76.645 314.158 76.7774 314.225C77.0753 314.358 77.3898 314.59 77.7208 314.922C78.0849 315.221 78.3 315.553 78.3662 315.919C78.3662 315.985 78.3662 316.085 78.3662 316.218C78.3662 316.318 78.3 316.318 78.1676 316.218C77.7042 315.786 77.2574 315.421 76.8271 315.122C76.4299 314.789 75.8837 314.623 75.1887 314.623C74.5598 314.623 73.7819 314.69 72.8551 314.823C71.9283 314.956 71.0346 315.155 70.174 315.421C69.3135 315.653 68.6349 315.936 68.1384 316.268C67.9729 316.401 67.8571 316.5 67.7909 316.567C67.7247 316.6 67.5592 316.617 67.2944 316.617C66.9634 316.617 66.6324 316.749 66.3014 317.015C66.0035 317.248 65.7056 317.447 65.4077 317.613C65.2753 317.68 65.1098 317.729 64.9112 317.763C64.7126 317.796 64.5636 317.862 64.4643 317.962C64.3981 318.028 64.365 318.078 64.365 318.111C64.365 318.145 64.3319 318.195 64.2658 318.261L64.2161 318.311C63.8189 318.709 63.4217 319.008 63.0245 319.208C62.6604 319.407 62.2467 319.689 61.7833 320.055C61.7502 320.055 61.6509 320.188 61.4854 320.454C61.3199 320.686 61.1544 320.919 60.9889 321.151C60.8234 321.384 60.7075 321.517 60.6413 321.55C60.3765 321.616 60.1448 321.799 59.9462 322.098C59.7476 322.364 59.5987 322.596 59.4994 322.796C59.4001 322.928 59.2677 323.095 59.1022 323.294C58.9698 323.46 58.854 323.626 58.7547 323.792C58.523 324.224 58.3575 324.689 58.2582 325.187C58.1589 325.686 58.1092 326.201 58.1092 326.732C58.1092 326.965 58.1092 327.214 58.1092 327.48C58.1423 327.745 58.1754 328.011 58.2085 328.277C58.2416 328.51 58.2582 328.676 58.2582 328.775C58.2582 328.842 58.3409 328.958 58.5064 329.124C58.6719 329.323 58.8043 329.539 58.9036 329.772C59.036 329.971 59.1849 330.154 59.3504 330.32C59.3835 330.353 59.4001 330.403 59.4001 330.47C59.4001 330.735 59.4332 330.885 59.4994 330.918C59.5987 330.951 59.698 330.968 59.7973 330.968C59.8966 330.968 59.9793 331.084 60.0455 331.317L60.1448 331.416C60.542 331.483 60.9061 331.616 61.2371 331.815C61.5681 331.981 61.9157 332.114 62.2798 332.214C62.5115 332.247 62.7432 332.297 62.9749 332.363C63.2397 332.396 63.4714 332.446 63.67 332.513C63.7693 332.546 63.852 332.596 63.9182 332.662C64.0175 332.762 64.0837 332.828 64.1168 332.861H64.1665C64.2326 332.861 64.2823 332.828 64.3154 332.762C64.3816 332.695 64.4643 332.662 64.5636 332.662C64.6629 332.662 64.7953 332.646 64.9608 332.612C65.1263 332.612 65.2422 332.646 65.3084 332.712C65.4739 332.812 65.6228 332.861 65.7552 332.861C65.8876 332.861 66.02 332.828 66.1524 332.762C66.2186 332.729 66.3841 332.712 66.6489 332.712C66.9468 332.712 67.1123 332.712 67.1454 332.712C67.2116 332.745 67.2944 332.795 67.3937 332.861C67.5261 332.928 67.6419 332.945 67.7412 332.911C67.8074 332.845 67.824 332.795 67.7909 332.762C67.7909 332.729 67.8571 332.695 67.9895 332.662L68.9328 332.562C68.999 332.529 69.0652 332.513 69.1314 332.513C69.4293 332.479 69.7768 332.413 70.174 332.313C70.6043 332.18 70.9353 332.097 71.167 332.064C71.5642 332.064 71.978 331.931 72.4083 331.666C72.9048 331.4 73.4178 331.167 73.9474 330.968C74.477 330.735 75.0066 330.519 75.5362 330.32C75.9003 330.187 76.2147 330.021 76.4795 329.822C76.7443 329.622 77.0091 329.423 77.2739 329.224C77.5387 329.058 77.787 328.892 78.0187 328.726C78.2835 328.559 78.5152 328.393 78.7138 328.227C78.8131 328.128 78.8958 328.011 78.962 327.878C79.0282 327.745 79.1275 327.646 79.2599 327.579C80.1205 327.081 80.8156 326.516 81.3452 325.885C81.8748 325.254 82.5037 324.623 83.2319 323.992C83.3974 323.825 83.5132 323.693 83.5794 323.593C83.6456 323.493 83.7284 323.36 83.8277 323.194C84.0594 322.829 84.3573 322.463 84.7214 322.098C85.0855 321.699 85.3834 321.234 85.6151 320.703C85.7144 320.47 85.8633 320.321 86.0619 320.254C86.2605 320.155 86.3764 320.022 86.4095 319.856C86.4095 319.856 86.3598 319.723 86.2605 319.457C86.1943 319.158 86.2439 318.959 86.4095 318.859C86.575 318.759 86.6577 318.643 86.6577 318.51C86.6577 318.311 86.5584 318.128 86.3598 317.962C86.1943 317.763 86.1115 317.597 86.1115 317.464C86.1447 316.6 86.0785 315.919 85.9129 315.421C85.7806 314.889 85.5323 314.407 85.1682 313.976C84.8041 313.544 84.3407 313.062 83.778 312.53C83.1491 311.932 82.2885 311.501 81.1962 311.235C80.1371 310.936 79.1772 310.736 78.3166 310.637C78.118 310.637 77.9028 310.587 77.6711 310.487C77.4725 310.388 77.2739 310.371 77.0753 310.438C77.0091 310.471 76.8436 310.487 76.5788 310.487C76.3471 310.487 76.0823 310.487 75.7844 310.487C75.4865 310.454 75.3045 310.421 75.2383 310.388C74.9073 310.321 74.6094 310.338 74.3446 310.438C74.0798 310.504 73.7985 310.537 73.5006 310.537C73.302 310.537 73.153 310.521 73.0537 310.487C72.9544 310.454 72.8551 310.438 72.7558 310.438C72.6234 310.438 72.5076 310.471 72.4083 310.537C72.3421 310.57 72.2262 310.62 72.0607 310.687C71.1339 311.019 70.1409 311.268 69.0818 311.434C69.0487 311.434 68.8004 311.501 68.337 311.633C67.8736 311.766 67.4102 311.916 66.9468 312.082C66.4834 312.215 66.2021 312.298 66.1028 312.331C65.7718 312.464 65.4573 312.58 65.1594 312.68C64.8615 312.78 64.5802 312.929 64.3154 313.128C64.2492 313.162 64.1665 313.211 64.0672 313.278C63.9679 313.344 63.8686 313.378 63.7693 313.378C63.5376 313.411 63.339 313.494 63.1735 313.627C63.0411 313.726 62.8921 313.826 62.7266 313.926C62.5942 314.025 62.4122 314.092 62.1805 314.125C61.9819 314.158 61.8164 314.225 61.684 314.324C61.6178 314.358 61.5847 314.457 61.5847 314.623C61.6178 314.789 61.5847 314.889 61.4854 314.922C61.353 314.989 61.1875 315.039 60.9889 315.072C60.8234 315.072 60.6579 315.088 60.4924 315.122C60.2607 315.155 60.029 315.321 59.7973 315.62C59.5656 315.886 59.367 316.102 59.2015 316.268C59.0029 316.401 58.7381 316.65 58.4071 317.015C58.0761 317.347 57.8113 317.58 57.6127 317.713C57.4472 317.813 57.2817 317.879 57.1162 317.912C56.9507 317.945 56.8514 318.111 56.8183 318.41L56.1729 319.008C55.9412 319.042 55.7922 319.141 55.726 319.307C55.6598 319.44 55.544 319.573 55.3785 319.706C55.1137 319.905 54.9482 320.055 54.882 320.155C54.8489 320.221 54.6999 320.37 54.4351 320.603C54.2034 320.836 53.9883 320.952 53.7897 320.952C53.6904 320.952 53.6407 320.902 53.6407 320.802C53.6407 320.57 53.7897 320.238 54.0876 319.806C54.3855 319.64 54.6006 319.407 54.733 319.108C54.8654 318.809 55.064 318.56 55.3288 318.361C55.5936 318.195 55.7922 318.012 55.9246 317.813C56.0901 317.613 56.2556 317.397 56.4211 317.165C56.4873 317.098 56.537 317.065 56.5701 317.065C56.8349 316.866 57.05 316.65 57.2155 316.417C57.4141 316.151 57.6624 315.952 57.9603 315.819C58.2582 315.686 58.5064 315.52 58.705 315.321C58.9036 315.088 59.1187 314.889 59.3504 314.723C60.9723 313.593 62.7432 312.58 64.6629 311.683C66.5827 310.753 68.5025 310.172 70.4223 309.939C70.6871 309.906 70.9188 309.873 71.1174 309.84C71.3491 309.773 71.5808 309.723 71.8125 309.69C71.9118 309.657 72.1269 309.624 72.4579 309.59C72.822 309.524 73.1696 309.474 73.5006 309.441C73.8647 309.374 74.0798 309.358 74.146 309.391C74.2453 309.391 74.3446 309.408 74.4439 309.441C74.5432 309.441 74.626 309.441 74.6922 309.441C74.9239 309.441 75.1059 309.424 75.2383 309.391C75.4038 309.358 75.6024 309.341 75.8341 309.341C77.2574 309.374 78.5979 309.557 79.8557 309.889C81.1135 310.222 82.3382 310.77 83.5298 311.534C83.6953 311.667 83.8277 311.8 83.927 311.932C84.0263 312.032 84.1752 312.115 84.3738 312.182C84.5393 312.281 84.7048 312.431 84.8703 312.63C85.102 312.962 85.3668 313.294 85.6647 313.627C85.9626 313.926 86.2109 314.258 86.4095 314.623C86.7735 315.288 87.0383 315.985 87.2038 316.716C87.4024 317.447 87.5017 318.178 87.5017 318.909C87.5017 321.467 86.6577 323.643 84.9696 325.437C84.8372 325.57 84.6221 325.653 84.3242 325.686C84.0594 325.686 83.8939 325.719 83.8277 325.785C83.7946 325.819 83.8442 325.918 83.9766 326.084C84.109 326.251 84.1421 326.367 84.0759 326.433C83.6125 326.898 83.1326 327.33 82.6361 327.729C82.603 327.762 82.5699 327.712 82.5368 327.579C82.5037 327.413 82.4375 327.314 82.3382 327.28C82.2389 327.214 82.1727 327.314 82.1396 327.579C82.1396 327.845 82.1065 328.011 82.0403 328.078L81.5934 327.579C81.5272 327.613 81.5272 327.779 81.5934 328.078C81.6596 328.377 81.6596 328.559 81.5934 328.626C80.8652 329.157 80.1205 329.656 79.3592 330.121C78.5979 330.586 77.787 331.018 76.9264 331.416C75.2052 332.247 73.4013 332.878 71.5146 333.31C69.661 333.775 67.8736 333.991 66.1524 333.958Z" fill="white"/>
<path d="M94.1067 332.562C92.882 332.562 91.9552 332.347 91.3263 331.915C90.6974 331.483 90.2671 330.968 90.0354 330.37C89.8037 329.772 89.7375 329.091 89.8368 328.327L89.9361 328.177C90.0023 328.078 90.052 327.945 90.0851 327.779C90.1182 327.613 90.1513 327.513 90.1844 327.48L90.5816 327.579C90.6478 327.613 90.6974 327.563 90.7305 327.43C90.7636 327.297 90.7471 327.247 90.6809 327.28C90.4823 327.314 90.383 327.347 90.383 327.38C90.383 327.413 90.3499 327.347 90.2837 327.181L90.4326 327.081L90.383 327.031C90.383 326.965 90.4161 326.932 90.4823 326.932L90.383 326.782C90.383 326.782 90.5154 326.799 90.7802 326.832C91.0781 326.832 91.1939 326.799 91.1277 326.732C91.1608 326.732 91.1443 326.716 91.0781 326.682C91.0119 326.616 90.9788 326.566 90.9788 326.533C90.9457 326.566 90.9291 326.566 90.9291 326.533C90.9291 326.466 90.8133 326.466 90.5816 326.533C90.4823 326.566 90.4326 326.55 90.4326 326.483C90.4326 326.417 90.4326 326.383 90.4326 326.383C90.5319 326.35 90.6312 326.317 90.7305 326.284C90.8298 326.217 90.896 326.118 90.9291 325.985C90.9622 325.653 90.9953 325.47 91.0284 325.437C91.0615 325.403 91.0946 325.354 91.1277 325.287C91.1608 325.221 91.2105 325.138 91.2767 325.038C91.3428 324.905 91.3925 324.839 91.4256 324.839C91.3925 324.805 91.376 324.756 91.376 324.689C91.376 324.523 91.4918 324.457 91.7235 324.49C91.9883 324.523 92.071 324.423 91.9717 324.191C91.8725 324.058 91.9221 323.992 92.1207 323.992L92.071 323.942C92.2034 323.875 92.2862 323.842 92.3193 323.842C92.3855 323.809 92.3524 323.742 92.22 323.643L92.4186 323.194C92.4517 323.128 92.5179 323.028 92.6172 322.895C92.7496 322.729 92.9482 322.563 93.213 322.397C93.213 322.397 93.1964 322.414 93.1633 322.447C93.1633 322.447 93.1633 322.463 93.1633 322.497H93.213C93.3123 322.497 93.4943 322.397 93.7591 322.198C93.726 322.164 93.6598 322.148 93.5605 322.148C93.4943 322.115 93.4447 322.081 93.4116 322.048C93.3785 321.948 93.544 321.733 93.9081 321.4C94.2722 321.068 94.6694 320.753 95.0997 320.454C95.53 320.121 95.7948 319.922 95.8941 319.856C96.3906 319.59 96.9367 319.374 97.5325 319.208C98.1614 319.008 98.7075 318.959 99.1709 319.058C99.2702 319.091 99.4192 319.224 99.6178 319.457C99.8495 319.689 100.015 319.756 100.114 319.656C100.412 319.39 100.76 319.125 101.157 318.859C101.554 318.593 101.786 318.477 101.852 318.51C102.018 318.543 102.183 318.61 102.349 318.709C102.514 318.776 102.597 318.975 102.597 319.307C102.597 319.54 102.58 319.739 102.547 319.905C102.514 320.105 102.431 320.271 102.299 320.404C102.166 320.537 102.034 320.686 101.902 320.852C101.769 321.052 101.521 321.367 101.157 321.799C100.826 322.198 100.578 322.447 100.412 322.546C100.313 322.58 100.197 322.679 100.065 322.845C99.9653 322.978 99.8329 323.111 99.6674 323.244C99.535 323.344 99.3695 323.427 99.1709 323.493C99.0054 323.526 98.8896 323.56 98.8234 323.593C98.7572 323.626 98.6413 323.643 98.4758 323.643C98.3434 323.61 98.3103 323.543 98.3765 323.443C98.4096 323.41 98.4096 323.377 98.3765 323.344C98.3765 323.277 98.3765 323.227 98.3765 323.194C98.4096 323.128 98.4593 323.078 98.5255 323.045C98.5917 323.012 98.6413 322.962 98.6744 322.895C98.7075 322.862 98.7903 322.746 98.9227 322.546C99.0882 322.347 99.1709 322.231 99.1709 322.198C99.1378 322.164 99.1378 322.131 99.1709 322.098C99.204 322.032 99.2206 321.982 99.2206 321.948C99.2537 321.915 99.2702 321.865 99.2702 321.799C99.2702 321.733 99.3033 321.699 99.3695 321.699C99.5019 321.666 99.5681 321.616 99.5681 321.55C99.5681 321.284 99.5847 321.035 99.6178 320.802C99.684 320.57 99.6674 320.37 99.5681 320.204C99.4357 319.939 99.1875 319.806 98.8234 319.806C98.3269 319.806 97.7476 320.022 97.0856 320.454C96.4237 320.852 95.9768 321.184 95.7451 321.45C94.6859 322.646 93.8253 323.992 93.1633 325.486C92.5013 326.981 92.2365 328.31 92.3689 329.473C92.4351 330.038 92.6668 330.503 93.064 330.868C93.4612 331.234 93.9081 331.416 94.4046 331.416H95.2486C95.3479 331.416 95.4472 331.416 95.5465 331.416C95.6789 331.383 95.8113 331.35 95.9437 331.317C96.1423 331.25 96.2913 331.217 96.3906 331.217C96.5561 331.051 96.6554 331.051 96.6885 331.217C96.9533 331.084 97.0691 331.034 97.036 331.068C97.0029 331.101 97.0526 331.101 97.185 331.068C97.8469 330.901 98.4924 330.619 99.1213 330.22C99.7502 329.822 100.329 329.423 100.859 329.024C100.958 328.958 101.124 328.858 101.356 328.726C101.587 328.593 101.753 328.493 101.852 328.427C101.918 328.327 101.968 328.244 102.001 328.177C102.067 328.078 102.15 328.011 102.249 327.978C102.315 327.878 102.398 327.779 102.497 327.679C102.597 327.546 102.663 327.463 102.696 327.43C102.862 327.363 102.911 327.314 102.845 327.28C102.779 327.214 102.862 327.131 103.093 327.031C103.159 326.998 103.226 326.981 103.292 326.981C103.358 326.981 103.391 327.015 103.391 327.081C103.391 327.148 103.292 327.33 103.093 327.629C102.961 327.862 102.713 328.161 102.349 328.526L101.852 329.024L101.256 329.323C101.19 329.39 101.157 329.456 101.157 329.523C101.157 329.556 101.124 329.606 101.058 329.672C100.131 330.503 99.0716 331.2 97.88 331.765C96.7216 332.297 95.4638 332.562 94.1067 332.562Z" fill="white"/>
<path d="M106.812 332.513C105.984 332.513 105.256 332.28 104.627 331.815C103.998 331.35 103.684 330.553 103.684 329.423C103.684 328.991 103.734 328.559 103.833 328.128C103.932 327.662 104.048 327.214 104.18 326.782C104.247 326.35 104.346 325.968 104.478 325.636C104.511 325.503 104.528 325.437 104.528 325.437C104.561 325.403 104.644 325.354 104.776 325.287L105.173 324.689V324.49C105.14 324.49 105.124 324.49 105.124 324.49C105.124 324.457 105.124 324.44 105.124 324.44C105.124 324.34 105.207 324.224 105.372 324.091C105.538 323.958 105.62 323.892 105.62 323.892C105.653 323.726 105.703 323.643 105.769 323.643C105.835 323.643 105.918 323.593 106.018 323.493H106.564V323.394C106.564 323.227 106.481 323.161 106.315 323.194C106.183 323.194 106.117 323.178 106.117 323.144C106.117 323.111 106.166 323.045 106.266 322.945C106.398 322.812 106.481 322.729 106.514 322.696C106.613 322.563 106.696 322.447 106.762 322.347C106.828 322.214 106.928 322.115 107.06 322.048C107.656 321.317 108.02 320.852 108.152 320.653C108.318 320.454 108.483 320.304 108.649 320.204C108.715 320.204 108.765 320.238 108.798 320.304C108.864 320.337 108.864 320.387 108.798 320.454C108.864 320.553 108.914 320.57 108.947 320.503C109.013 320.437 109.046 320.404 109.046 320.404L109.245 320.304C109.179 320.238 109.145 320.155 109.145 320.055C109.145 319.889 109.179 319.756 109.245 319.656C109.311 319.523 109.427 319.39 109.592 319.258C109.791 319.125 109.89 319.042 109.89 319.008C110.089 318.942 110.238 318.876 110.337 318.809C110.469 318.743 110.602 318.709 110.734 318.709C110.966 318.709 111.198 318.793 111.429 318.959C112.058 319.291 112.588 319.623 113.018 319.955C113.448 320.287 113.664 320.753 113.664 321.351C113.664 321.982 113.399 322.53 112.869 322.995C112.373 323.427 111.76 323.792 111.032 324.091C110.304 324.39 109.576 324.639 108.848 324.839C108.152 325.005 107.606 325.138 107.209 325.237C106.977 325.271 106.862 325.37 106.862 325.536C106.895 325.669 106.878 325.819 106.812 325.985L106.464 326.533L106.166 327.231L105.918 327.679C105.687 327.878 105.604 328.028 105.67 328.128C105.736 328.227 105.852 328.211 106.018 328.078C106.051 328.111 106.067 328.161 106.067 328.227C106.067 328.36 106.034 328.526 105.968 328.726C105.902 328.892 105.852 329.024 105.819 329.124C105.786 329.257 105.786 329.323 105.819 329.323C105.885 329.29 105.918 329.357 105.918 329.523L105.968 330.22C106.166 330.852 106.613 331.217 107.308 331.317C107.375 331.317 107.441 331.333 107.507 331.367C107.606 331.367 107.689 331.367 107.755 331.367C108.351 331.367 108.665 331.317 108.699 331.217C108.765 331.117 108.848 331.051 108.947 331.018C109.245 330.951 109.493 330.885 109.692 330.818C109.923 330.752 110.155 330.652 110.387 330.519C110.784 330.353 111.165 330.137 111.529 329.872C111.893 329.606 112.273 329.34 112.671 329.074L113.167 328.726C113.2 328.659 113.2 328.609 113.167 328.576C113.134 328.543 113.134 328.51 113.167 328.476C113.233 328.443 113.283 328.443 113.316 328.476C113.382 328.476 113.432 328.46 113.465 328.427C113.531 328.393 113.597 328.343 113.664 328.277C113.73 328.177 113.796 328.094 113.862 328.028C113.928 327.961 113.961 327.895 113.961 327.829C113.995 327.762 114.044 327.696 114.11 327.629C114.375 327.363 114.64 327.081 114.905 326.782C115.203 326.483 115.451 326.217 115.65 325.985C115.881 325.653 116.063 325.486 116.196 325.486C116.262 325.486 116.295 325.52 116.295 325.586C116.295 325.752 116.179 326.001 115.947 326.334C115.385 327.164 114.739 327.978 114.011 328.775C113.283 329.539 112.489 330.237 111.628 330.868C110.999 331.3 110.254 331.682 109.394 332.014C108.533 332.347 107.673 332.513 106.812 332.513ZM107.557 324.49C108.053 324.457 108.699 324.324 109.493 324.091C110.287 323.825 110.949 323.477 111.479 323.045C112.042 322.58 112.323 322.065 112.323 321.5C112.323 320.968 112.042 320.454 111.479 319.955C111.016 320.287 110.503 320.769 109.94 321.4C109.41 321.998 108.93 322.596 108.5 323.194C108.07 323.759 107.755 324.191 107.557 324.49Z" fill="white"/>
<path d="M123.925 332.562C123.727 332.562 123.627 332.446 123.627 332.214C123.627 332.048 123.677 331.848 123.776 331.616C124.041 331.051 124.339 330.254 124.67 329.224C125.034 328.194 125.481 327.314 126.01 326.583C126.374 325.852 126.705 325.138 127.003 324.44C127.334 323.709 127.649 322.978 127.947 322.247C127.947 322.247 127.914 322.231 127.847 322.198C127.781 322.131 127.748 322.065 127.748 321.998C127.583 321.865 127.384 321.683 127.152 321.45C126.921 321.184 126.904 320.919 127.103 320.653C127.169 320.586 127.202 320.553 127.202 320.553C127.235 320.553 127.252 320.553 127.252 320.553C127.252 320.52 127.235 320.503 127.202 320.503C127.202 320.503 127.202 320.487 127.202 320.454L127.152 320.404C127.119 320.404 127.086 320.404 127.053 320.404C127.053 320.37 127.036 320.354 127.003 320.354C126.871 320.354 126.722 320.387 126.557 320.454C126.391 320.487 126.226 320.503 126.06 320.503C125.861 320.503 125.597 320.586 125.266 320.753C124.935 320.885 124.637 321.002 124.372 321.101C124.24 321.135 124.157 321.151 124.124 321.151C124.124 321.118 124.058 321.135 123.925 321.201C123.892 321.234 123.892 321.184 123.925 321.052C123.991 320.885 124.024 320.769 124.024 320.703C124.024 320.669 124.008 320.653 123.975 320.653C123.909 320.653 123.776 320.753 123.578 320.952C123.379 321.118 123.247 321.218 123.18 321.251C123.147 321.284 123.131 321.334 123.131 321.4C123.164 321.467 123.18 321.533 123.18 321.6C123.18 321.699 123.098 321.816 122.932 321.948C122.767 322.048 122.651 322.131 122.585 322.198C122.452 322.297 122.287 322.364 122.088 322.397C121.923 322.397 121.757 322.463 121.592 322.596C121.393 322.729 121.294 322.829 121.294 322.895C121.327 322.962 121.227 323.078 120.996 323.244C120.698 323.477 120.284 323.825 119.755 324.291C119.258 324.756 118.877 325.171 118.613 325.536C117.984 326.3 117.404 327.181 116.875 328.177C116.378 329.174 116.13 329.955 116.13 330.519C116.13 330.951 116.312 331.167 116.676 331.167C116.742 331.167 116.809 331.167 116.875 331.167C116.941 331.134 117.024 331.101 117.123 331.068L118.414 330.32L118.712 330.27V330.22L118.911 330.37C118.944 330.337 118.927 330.287 118.861 330.22C118.828 330.121 118.828 330.071 118.861 330.071C118.894 330.071 118.911 330.088 118.911 330.121C118.944 330.121 118.977 330.121 119.01 330.121L119.109 329.971C119.109 329.971 119.159 329.988 119.258 330.021C119.39 330.021 119.49 329.988 119.556 329.921C119.655 329.888 119.672 329.838 119.606 329.772C119.573 329.706 119.523 329.656 119.457 329.622L119.804 329.323C119.837 329.257 119.97 329.191 120.201 329.124C120.764 328.759 121.227 328.327 121.592 327.829C121.989 327.297 122.436 326.815 122.932 326.383H122.982L123.578 325.785L123.528 325.636L124.173 324.889H124.273C124.306 324.822 124.372 324.739 124.471 324.639C124.604 324.54 124.686 324.457 124.719 324.39C124.786 324.357 124.935 324.191 125.166 323.892C125.431 323.56 125.679 323.294 125.911 323.095C126.176 322.895 126.325 322.796 126.358 322.796C126.391 322.796 126.408 322.812 126.408 322.845C126.408 322.945 126.358 323.095 126.259 323.294C126.192 323.493 126.126 323.626 126.06 323.693C125.828 324.058 125.53 324.473 125.166 324.938C124.802 325.37 124.587 325.636 124.521 325.736C124.124 326.168 123.644 326.749 123.081 327.48C122.518 328.177 121.906 328.875 121.244 329.573C120.582 330.27 119.92 330.868 119.258 331.367C118.629 331.832 118.033 332.064 117.471 332.064C116.941 332.064 116.378 331.898 115.783 331.566C115.187 331.234 114.889 330.602 114.889 329.672C114.889 329.373 114.922 329.041 114.988 328.676C115.087 328.277 115.236 327.862 115.435 327.43C115.435 327.43 115.468 327.397 115.534 327.33C115.601 327.231 115.65 327.197 115.683 327.231C115.749 327.131 115.766 327.031 115.733 326.932C115.733 326.799 115.733 326.716 115.733 326.682L115.832 326.583C115.898 326.217 116.147 325.885 116.577 325.586C117.007 325.287 117.239 325.055 117.272 324.889C117.305 324.855 117.322 324.805 117.322 324.739L117.52 324.091V323.892H117.719L117.868 323.693L117.918 323.593C117.851 323.56 117.868 323.51 117.967 323.443C118.1 323.344 118.166 323.294 118.166 323.294C118.199 323.227 118.232 323.178 118.265 323.144C118.331 323.111 118.381 323.078 118.414 323.045H118.762C118.828 322.945 118.795 322.895 118.662 322.895C118.53 322.895 118.464 322.895 118.464 322.895C118.464 322.862 118.464 322.845 118.464 322.845C118.497 322.812 118.513 322.779 118.513 322.746L119.059 322.297C119.225 322.164 119.39 322.048 119.556 321.948C119.721 321.849 119.87 321.733 120.003 321.6C120.102 321.6 120.119 321.649 120.052 321.749C120.086 321.816 120.119 321.816 120.152 321.749C120.218 321.683 120.251 321.649 120.251 321.649L120.499 321.6V321.55C120.499 321.483 120.516 321.384 120.549 321.251C120.582 321.118 120.599 321.035 120.599 321.002C121.294 320.47 122.022 320.005 122.783 319.606C123.544 319.175 124.289 318.959 125.017 318.959C125.878 318.959 126.656 319.291 127.351 319.955L127.599 320.105C127.632 320.105 127.649 320.088 127.649 320.055C127.715 319.59 128.096 319.241 128.791 319.008C129.519 318.776 130.164 318.66 130.727 318.66C131.323 318.66 131.621 318.743 131.621 318.909C131.621 318.975 131.521 319.091 131.323 319.258C131.224 319.324 131.058 319.474 130.826 319.706C130.595 319.939 130.363 320.221 130.131 320.553C130.098 320.653 130.049 320.753 129.982 320.852C129.916 320.952 129.85 321.052 129.784 321.151C129.751 321.218 129.701 321.301 129.635 321.4C129.602 321.467 129.552 321.533 129.486 321.6C128.923 322.563 128.476 323.377 128.145 324.041C127.814 324.706 127.417 325.553 126.954 326.583C126.888 326.782 126.854 326.898 126.854 326.932C126.854 327.197 127.003 327.33 127.301 327.33C127.5 327.33 127.698 327.28 127.897 327.181L128.394 326.981C129.188 326.251 130.015 325.636 130.876 325.138C130.909 325.138 130.926 325.138 130.926 325.138C130.959 325.104 130.992 325.088 131.025 325.088C131.124 325.088 131.19 325.154 131.224 325.287C131.257 325.387 131.224 325.47 131.124 325.536C130.164 326.068 129.271 326.749 128.443 327.579C128.41 327.646 128.377 327.712 128.344 327.779C128.311 327.845 128.261 327.912 128.195 327.978C128.096 328.044 127.996 328.161 127.897 328.327C127.798 328.493 127.748 328.593 127.748 328.626C127.715 328.726 127.665 328.759 127.599 328.726C127.566 328.692 127.467 328.742 127.301 328.875C127.268 328.908 127.235 328.975 127.202 329.074C127.202 329.174 127.185 329.257 127.152 329.323C127.086 329.423 127.02 329.506 126.954 329.573C126.888 329.606 126.854 329.639 126.854 329.672C126.821 329.805 126.755 329.888 126.656 329.921C126.59 329.921 126.523 329.955 126.457 330.021C126.424 330.021 126.408 330.038 126.408 330.071C126.408 330.37 126.374 330.503 126.308 330.47C126.242 330.436 126.176 330.47 126.11 330.569C126.043 330.702 125.961 330.769 125.861 330.769C125.663 330.835 125.58 330.885 125.613 330.918C125.679 330.951 125.729 330.985 125.762 331.018C125.828 331.018 125.779 331.068 125.613 331.167C125.547 331.2 125.481 331.3 125.415 331.466C125.348 331.599 125.282 331.699 125.216 331.765C125.117 331.832 125.017 331.881 124.918 331.915C124.819 331.948 124.736 332.014 124.67 332.114C124.372 332.413 124.124 332.562 123.925 332.562Z" fill="white"/>
<path d="M130.65 332.562C130.452 332.562 130.352 332.446 130.352 332.214C130.352 332.048 130.402 331.848 130.501 331.616C130.766 331.051 131.081 330.254 131.445 329.224C131.809 328.194 132.256 327.314 132.785 326.583L134.722 322.247C134.722 322.247 134.688 322.231 134.622 322.198C134.556 322.131 134.523 322.065 134.523 321.998C134.324 321.865 134.109 321.683 133.878 321.45C133.679 321.184 133.662 320.919 133.828 320.653C133.894 320.586 133.944 320.553 133.977 320.553C134.01 320.553 134.026 320.553 134.026 320.553V320.454C134.026 320.321 134.076 320.238 134.175 320.204C134.308 320.171 134.391 320.121 134.424 320.055C134.49 319.59 134.871 319.241 135.566 319.008C136.294 318.776 136.939 318.66 137.502 318.66C138.065 318.66 138.346 318.743 138.346 318.909C138.346 319.008 138.247 319.125 138.048 319.258C137.982 319.324 137.816 319.474 137.552 319.706C137.32 319.939 137.105 320.221 136.906 320.553L136.559 321.151L136.211 321.6C135.681 322.563 135.251 323.377 134.92 324.041C134.589 324.706 134.192 325.553 133.729 326.583C133.629 326.782 133.58 326.948 133.58 327.081C133.58 327.247 133.646 327.33 133.778 327.33C133.844 327.33 133.911 327.314 133.977 327.28C134.076 327.214 134.175 327.164 134.275 327.131C134.54 326.965 134.755 326.815 134.92 326.682C135.119 326.516 135.334 326.35 135.566 326.184C135.665 326.084 135.748 326.084 135.814 326.184C135.88 326.251 135.88 326.35 135.814 326.483C135.681 326.749 135.582 326.915 135.516 326.981C135.483 327.015 135.433 327.048 135.367 327.081C135.301 327.114 135.152 327.264 134.92 327.53L134.722 327.928C134.655 327.995 134.573 328.128 134.473 328.327C134.407 328.493 134.374 328.593 134.374 328.626C134.374 328.692 134.341 328.726 134.275 328.726C134.209 328.692 134.109 328.742 133.977 328.875C133.944 328.908 133.927 328.975 133.927 329.074C133.96 329.174 133.944 329.257 133.878 329.323C133.844 329.423 133.795 329.506 133.729 329.573C133.662 329.606 133.629 329.639 133.629 329.672C133.596 329.805 133.53 329.888 133.431 329.921C133.364 329.921 133.298 329.955 133.232 330.021C133.199 330.021 133.182 330.054 133.182 330.121C133.182 330.387 133.149 330.503 133.083 330.47C133.017 330.436 132.951 330.47 132.885 330.569C132.818 330.702 132.736 330.769 132.636 330.769C132.438 330.835 132.355 330.885 132.388 330.918C132.421 330.951 132.471 330.985 132.537 331.018C132.603 331.018 132.554 331.068 132.388 331.167C132.289 331.2 132.206 331.3 132.14 331.466C132.074 331.599 132.007 331.699 131.941 331.765C131.875 331.832 131.792 331.881 131.693 331.915C131.594 331.948 131.511 332.014 131.445 332.114C131.147 332.413 130.882 332.562 130.65 332.562ZM145.446 332.164C145.313 332.164 145.198 332.164 145.098 332.164C144.999 332.131 144.9 332.097 144.8 332.064C144.469 331.998 144.172 331.898 143.907 331.765C143.675 331.632 143.476 331.383 143.311 331.018C143.278 330.852 143.195 330.636 143.063 330.37C142.963 330.104 142.897 329.855 142.864 329.622C142.831 329.456 142.814 329.257 142.814 329.024C142.781 328.858 142.765 328.642 142.765 328.377C142.699 328.044 142.665 327.745 142.665 327.48C142.699 327.214 142.715 326.898 142.715 326.533C142.715 326.168 142.732 325.902 142.765 325.736C142.831 325.437 142.864 325.287 142.864 325.287C142.864 325.254 142.864 325.088 142.864 324.789C142.897 324.39 142.914 323.975 142.914 323.543C142.914 323.111 142.93 322.762 142.963 322.497C143.063 321.5 142.864 321.002 142.368 321.002C142.169 321.002 141.904 321.085 141.573 321.251C141.54 321.351 141.474 321.417 141.375 321.45C141.308 321.45 141.209 321.483 141.077 321.55L140.828 321.699C140.828 321.733 140.795 321.749 140.729 321.749C140.663 321.716 140.63 321.733 140.63 321.799C140.663 321.932 140.646 322.015 140.58 322.048C140.547 322.081 140.497 322.065 140.431 321.998L139.885 322.397C139.885 322.43 139.835 322.497 139.736 322.596L139.687 322.646C139.554 322.779 139.438 322.845 139.339 322.845L139.19 322.995C139.19 323.028 139.157 323.095 139.091 323.194C139.058 323.261 138.975 323.277 138.842 323.244L138.594 323.493C138.462 323.693 138.346 323.809 138.247 323.842C138.18 323.875 138.098 323.908 137.998 323.942L137.601 324.44L137.403 324.49C137.403 324.623 137.254 324.822 136.956 325.088C136.691 325.354 136.509 325.536 136.41 325.636C136.31 325.736 136.211 325.785 136.112 325.785C136.046 325.785 136.012 325.752 136.012 325.686C136.012 325.653 136.095 325.52 136.261 325.287C136.393 325.154 136.592 324.905 136.856 324.54C137.154 324.174 137.32 324.008 137.353 324.041C137.518 323.875 137.634 323.709 137.701 323.543C137.767 323.344 137.883 323.178 138.048 323.045C138.048 323.078 138.048 323.111 138.048 323.144C138.081 323.144 138.098 323.144 138.098 323.144C138.164 323.144 138.247 323.061 138.346 322.895C138.445 322.696 138.511 322.613 138.545 322.646L139.389 321.899C139.389 321.865 139.471 321.799 139.637 321.699C139.769 321.633 139.852 321.6 139.885 321.6C139.918 321.6 140.001 321.5 140.133 321.301L140.481 321.052C140.514 320.985 140.547 321.002 140.58 321.101C140.646 321.168 140.696 321.184 140.729 321.151L140.878 320.802C140.944 320.703 141.044 320.62 141.176 320.553C141.341 320.454 141.507 320.354 141.672 320.254C142.07 319.856 142.368 319.656 142.566 319.656H142.765C143.195 319.49 143.592 319.407 143.956 319.407C144.486 319.407 144.9 319.606 145.198 320.005C145.264 320.105 145.33 320.287 145.396 320.553C145.462 320.586 145.479 320.636 145.446 320.703C145.446 320.736 145.462 320.786 145.496 320.852C145.529 320.919 145.595 321.002 145.694 321.101C145.793 321.168 145.843 321.251 145.843 321.351V321.45C145.843 321.583 145.76 321.699 145.595 321.799C145.76 321.932 145.827 322.015 145.793 322.048C145.793 322.048 145.777 322.098 145.744 322.198L145.644 322.895C145.611 323.128 145.562 323.311 145.496 323.443C145.429 323.543 145.363 323.726 145.297 323.992C145.429 324.191 145.429 324.324 145.297 324.39H145.198L145.148 324.59C145.148 324.656 145.181 324.722 145.247 324.789L145.098 325.088C145.131 325.055 145.148 325.055 145.148 325.088C145.181 325.088 145.198 325.088 145.198 325.088C145.165 325.154 145.115 325.287 145.049 325.486C144.982 325.653 144.933 325.785 144.9 325.885C144.867 326.051 144.8 326.134 144.701 326.134C144.602 326.134 144.569 326.217 144.602 326.383C144.635 326.417 144.651 326.533 144.651 326.732C144.685 326.898 144.668 326.981 144.602 326.981L144.503 327.579V327.729C144.503 327.895 144.469 328.061 144.403 328.227C144.37 328.393 144.337 328.559 144.304 328.726C144.271 328.892 144.238 329.074 144.205 329.274C144.205 329.44 144.205 329.606 144.205 329.772C144.205 329.905 144.205 330.054 144.205 330.22C144.238 330.353 144.271 330.486 144.304 330.619C144.304 330.652 144.354 330.752 144.453 330.918C144.552 331.084 144.602 331.184 144.602 331.217L144.751 331.367C144.817 331.4 144.916 331.4 145.049 331.367C145.214 331.333 145.33 331.35 145.396 331.416C145.694 331.45 146.075 331.3 146.538 330.968C147.035 330.602 147.481 330.204 147.879 329.772C147.978 329.672 148.077 329.622 148.177 329.622C148.243 329.622 148.292 329.672 148.326 329.772C148.359 329.872 148.326 330.004 148.226 330.171C147.697 330.935 147.2 331.466 146.737 331.765C146.273 332.031 145.843 332.164 145.446 332.164Z" fill="white"/>
<defs>
<linearGradient id="paint0_linear_4351_15224" x1="26.1845" y1="-9.79294" x2="357.497" y2="178.76" gradientUnits="userSpaceOnUse">
<stop stop-color="#C62D80"/>
<stop offset="1" stop-color="#FFEE6B"/>
</linearGradient>
</defs>
</svg>
