<svg width="42" height="42" viewBox="0 0 42 42" fill="none" xmlns="http://www.w3.org/2000/svg">
<path d="M35.8749 12.7361L20.9999 21M20.9999 21L6.12494 12.7361M20.9999 21L21 37.625M24.5 36.5556L22.3598 37.7446C21.8635 38.0203 21.6153 38.1582 21.3525 38.2122C21.12 38.2601 20.8801 38.2601 20.6475 38.2122C20.3847 38.1582 20.1365 38.0203 19.6402 37.7446L6.6902 30.5501C6.16605 30.2589 5.90395 30.1133 5.71311 29.9062C5.54428 29.723 5.41651 29.5059 5.33835 29.2693C5.25 29.0019 5.25 28.7021 5.25 28.1025V13.8976C5.25 13.2979 5.25 12.9981 5.33835 12.7307C5.41651 12.4942 5.54428 12.277 5.71311 12.0938C5.90395 11.8867 6.16604 11.7411 6.6902 11.4499L19.6402 4.25547C20.1365 3.97975 20.3847 3.84188 20.6475 3.78783C20.8801 3.73999 21.12 3.73999 21.3525 3.78783C21.6153 3.84188 21.8635 3.97974 22.3598 4.25547L35.3098 11.4499C35.834 11.7411 36.0961 11.8867 36.2869 12.0938C36.4557 12.277 36.5835 12.4942 36.6617 12.7307C36.75 12.9981 36.75 13.2979 36.75 13.8976L36.75 21.875M13.125 7.87502L28.875 16.625M28 31.5L31.5 35L38.5 28" stroke="#F4D400" stroke-width="2" stroke-linecap="round" stroke-linejoin="round"/>
</svg>
