<svg width="32" height="32" viewBox="0 0 32 32" fill="none" xmlns="http://www.w3.org/2000/svg">
<path d="M16.0083 29.665L21.5283 12.6763H10.4883L16.0083 29.665Z" fill="#E24329"/>
<path d="M16.0086 29.665L10.4886 12.6763H2.75244L16.0086 29.665Z" fill="#FC6D26"/>
<path d="M2.75249 12.6763L1.07506 17.839C0.922062 18.3098 1.08963 18.8257 1.49021 19.1167L16.0086 29.665L2.75249 12.6763Z" fill="#FCA326"/>
<path d="M2.75244 12.6763H10.4886L7.16387 2.44413C6.99287 1.91756 6.24801 1.9177 6.07701 2.44413L2.75244 12.6763Z" fill="#E24329"/>
<path d="M16.0093 29.665L21.5293 12.6763H29.2654L16.0093 29.665Z" fill="#FC6D26"/>
<path d="M29.2654 12.6763L30.9429 17.839C31.0958 18.3098 30.9283 18.8257 30.5277 19.1167L16.0093 29.665L29.2654 12.6763Z" fill="#FCA326"/>
<path d="M29.265 12.6763H21.5288L24.8535 2.44413C25.0245 1.91756 25.7694 1.9177 25.9404 2.44413L29.265 12.6763Z" fill="#E24329"/>
</svg>
