<svg width="32" height="32" viewBox="0 0 32 32" fill="none" xmlns="http://www.w3.org/2000/svg">
<path d="M3.22716 13.4234C3.58773 12.9763 3.9386 12.5026 4.05879 11.9486C4.17898 11.3926 3.99482 10.7374 3.48499 10.4642C2.75417 10.0725 1.67442 10.6017 1.08123 10.0267C1.81981 8.35128 3.52182 7.29483 5.18506 6.49247C8.37392 4.94314 11.8109 3.89624 15.3332 3.39571C16.7018 3.19512 18.0878 3.08623 19.4545 3.30402C18.9097 3.49506 18.3825 3.75105 17.8823 4.05098C17.6516 4.18853 17.3919 4.43306 17.5043 4.6795C17.5508 4.78839 17.6613 4.85335 17.7718 4.91639C19.6755 5.9098 21.9687 5.17047 24.0836 4.79794C26.4409 4.37957 28.8892 4.44261 31.2193 4.97943C29.7964 5.02528 28.327 5.34432 27.2085 6.21737C25.9892 7.16493 25.3223 8.65886 24.2135 9.7325C22.6995 11.2092 20.5749 11.7594 18.4271 12.1109C18.8496 12.2695 19.247 12.4854 19.596 12.7796C19.3827 13.3775 18.4484 13.3737 18.0742 13.8914C17.9889 14.0099 17.9424 14.1455 17.9289 14.2869C19.4777 14.0137 21.0499 13.8761 22.6239 13.88C24.0584 13.88 25.6073 14.0443 26.7026 14.9613C26.4893 15.5592 25.555 15.5554 25.1808 16.0731C24.9211 16.4342 25.0199 16.9519 25.2952 17.2996C25.5705 17.6454 25.9795 17.8574 26.3846 18.0465C26.9662 18.3159 28.7574 18.7954 27.6078 19.2711C27.35 19.3743 27.0709 19.4526 26.7762 19.5156C26.8925 19.5596 27.0069 19.6035 27.1213 19.6513C25.9969 19.6112 24.7931 19.8652 23.7773 20.7364C22.6705 21.6801 21.9125 23.2466 20.8715 24.3356C19.0571 26.246 16.6998 26.4657 14.5209 26.7102C11.9621 27.0044 9.39745 27.4763 6.84055 28.1067C5.62317 28.4066 4.1247 29.2109 2.92669 29.2262C1.65115 29.2262 3.31052 27.6597 3.81841 27.0044C4.17122 26.5459 4.52209 26.0587 4.70431 25.4665C4.88653 24.8762 4.84583 24.1579 4.48914 23.8331C3.97737 23.367 3.04688 23.8675 2.67275 23.2142C3.21553 22.0832 4.03165 21.2522 4.9253 20.6026C4.40772 20.5874 3.89595 20.509 3.39388 20.3428C2.25015 19.9665 2.01753 20.1919 0.866057 19.3074C0.0576973 18.7782 5.31882 17.1009 1.77716 16.864C3.37837 16.4132 5.22965 16.1572 6.21248 14.8275C6.26676 14.7454 6.32297 14.6651 6.31716 14.5734C6.31716 14.5429 6.3094 14.5142 6.29777 14.4894C5.05325 14.8944 3.70985 15.4465 2.51185 15.5267C0.902887 15.6184 2.70571 14.0595 3.22329 13.4234" fill="#FF7DBC"/>
<path d="M18.6153 9.36192C17.2196 10.3553 15.6494 11.1023 13.9939 11.557C15.1124 10.4547 15.1764 8.77925 15.0931 7.28532C16.3686 7.73999 17.5802 8.39717 18.6522 9.22628C18.6425 9.27213 18.625 9.31798 18.6153 9.36192ZM13.0615 11.7576C11.8228 11.9123 10.5376 11.4481 9.77959 10.4451C9.0856 9.53385 8.95766 8.30547 9.34537 7.24902C9.71562 7.28532 10.0936 7.24902 10.4639 7.12102C10.648 7.05798 10.7411 6.92043 10.7682 6.77524C10.9815 6.83828 11.1928 6.88413 11.406 6.89369C11.4157 6.91279 11.4331 6.92998 11.4428 6.93954C11.6464 7.17642 11.8868 7.33117 12.1446 7.41331C12.3578 8.79835 12.6622 10.1643 13.0499 11.5035C13.077 11.6028 13.1332 11.685 13.2069 11.7404C13.1972 11.7404 13.1797 11.7499 13.1701 11.7499C13.1429 11.7499 13.0964 11.7499 13.0596 11.7595L13.0615 11.7576ZM8.63393 12.0861C8.09696 12.1129 7.55224 12.1587 7.02497 12.2772C6.87764 12.3039 5.85022 12.6134 5.56526 12.7605C5.6021 12.6975 5.62924 12.6325 5.63893 12.5427C5.78625 11.0488 6.10999 9.48227 7.0618 8.26153C7.4495 7.77056 7.90311 7.39612 8.40131 7.13248C8.00392 8.38953 8.17062 9.81086 8.96541 10.8941C9.30659 11.3583 9.74276 11.7499 10.2313 12.0498C9.70399 12.0594 9.16896 12.0594 8.63199 12.0861H8.63393ZM23.8183 9.31798C22.5525 9.63701 21.2498 9.62746 20.0014 9.29887C19.9917 9.20718 19.9452 9.11739 19.854 9.03524C17.8845 7.32352 15.4362 6.17538 12.8308 5.80094C12.5265 5.75509 12.2124 5.71879 11.9061 5.69205C11.8693 5.36346 11.9061 5.01768 11.943 4.70819C12.0263 4.13507 11.1288 3.88863 11.0551 4.46175C10.9989 4.83428 10.9621 5.24501 10.9815 5.6462C10.8051 5.6462 10.6403 5.6462 10.4736 5.65575C9.63226 5.00048 9.18835 3.5887 8.97705 2.66789C8.84717 2.09477 7.95157 2.3393 8.08921 2.91433C8.32958 3.92493 8.62618 5.01004 9.31823 5.81049C9.1709 5.84679 9.01388 5.88309 8.86461 5.92894C8.74443 5.96523 8.63393 6.01108 8.51374 6.05693C7.59877 5.46471 6.99783 4.17137 6.61982 3.26011C6.39882 2.72329 5.50129 2.96018 5.73198 3.50655C6.15651 4.54581 6.61012 5.6653 7.48827 6.42182C6.77684 6.46767 6.04602 6.18493 5.5013 5.74745C4.66967 5.08263 4.16953 4.11788 3.71786 3.17797C3.46779 2.64879 2.66331 3.11492 2.92307 3.63264C3.47749 4.79798 4.16178 5.98243 5.2803 6.7122C5.72422 6.99494 6.21467 7.19553 6.72256 7.27768C6.44535 7.56041 6.19528 7.87945 5.98398 8.21568C5.16205 9.50902 4.86546 11.0392 4.71813 12.5427V12.6421C4.61733 12.7414 4.56112 12.8885 4.60764 13.0604C4.74721 13.6431 5.3559 13.817 5.89287 13.6431C6.18947 13.5438 6.45698 13.3795 6.75164 13.2878C7.04823 13.1884 7.35258 13.1235 7.66661 13.0776C9.01582 12.877 10.4019 13.0318 11.7608 12.8961C14.4126 12.623 16.954 11.6754 19.1174 10.1356C19.1639 10.0993 19.2105 10.063 19.2376 10.0172C20.8 10.5464 22.473 10.5999 24.08 10.1987C24.6441 10.0439 24.4037 9.16897 23.8202 9.31607L23.8183 9.31798Z" fill="#272425"/>
<path d="M13.0611 11.5111C12.6734 10.1624 12.3671 8.79646 12.1559 7.42097C11.898 7.33882 11.6577 7.18408 11.4541 6.94719C11.4444 6.92809 11.427 6.91089 11.4173 6.90134C11.1963 6.88224 10.983 6.84594 10.7795 6.7829C10.7524 6.92809 10.6593 7.06564 10.4752 7.12868C10.1049 7.25668 9.72689 7.29297 9.35664 7.25668C8.96893 8.31313 9.09881 9.53387 9.79086 10.4528C10.5488 11.4538 11.8341 11.92 13.0728 11.7652C13.1193 11.7557 13.1561 11.7557 13.2026 11.7652C13.2123 11.7652 13.2298 11.7557 13.2395 11.7557C13.1464 11.6926 13.0922 11.6105 13.0631 11.5092" fill="#98FF3C"/>
<path d="M8.96753 10.9017C8.17274 9.81851 8.01572 8.39718 8.40343 7.14014C7.90523 7.40377 7.44193 7.77821 7.06392 8.26918C6.11211 9.48992 5.78837 11.0469 5.64104 12.5504C5.63135 12.6325 5.60421 12.7051 5.56738 12.7682C5.85428 12.623 6.87976 12.3135 7.02708 12.2848C7.55436 12.1759 8.09908 12.1205 8.63605 12.0938C9.17302 12.067 9.69836 12.067 10.2353 12.067C9.74488 11.7576 9.31065 11.3659 8.96947 10.9017" fill="white"/>
<path d="M14.0029 11.557C15.6565 11.1023 17.2189 10.3554 18.6243 9.36196C18.634 9.31611 18.6437 9.27026 18.6612 9.22441C17.5892 8.3953 16.3873 7.74003 15.1021 7.28345C15.1854 8.77738 15.1215 10.4528 14.0029 11.5551" fill="#98FF3C"/>
<path d="M20.0106 29.0983V29.7898H20.189V29.0849C20.189 28.9645 20.1463 28.869 20.0591 28.7983C19.9719 28.7276 19.8459 28.6913 19.6811 28.6913C19.5648 28.6913 19.462 28.7124 19.3748 28.7563C19.2876 28.8002 19.2217 28.8614 19.1771 28.9378V28.7143H18.9987V29.7879H19.1771V29.1345C19.1771 29.0715 19.1965 29.0161 19.2372 28.9664C19.2779 28.9168 19.3322 28.8766 19.402 28.848C19.4717 28.8193 19.5512 28.8041 19.6404 28.8041C19.7683 28.8041 19.8614 28.8289 19.9215 28.8805C19.9816 28.932 20.0106 29.0027 20.0106 29.0944M17.4441 28.9072C17.4731 28.8919 17.51 28.8747 17.5565 28.8575C17.6011 28.8403 17.6534 28.8251 17.7154 28.8136C17.7775 28.8002 17.8473 28.7945 17.9248 28.7945C18.0023 28.7945 18.0644 28.8021 18.1167 28.8155C18.1691 28.8289 18.2117 28.848 18.2427 28.8709C18.2737 28.8938 18.2951 28.9206 18.3106 28.9492C18.3241 28.9779 18.3319 29.0085 18.3319 29.039V29.7841H18.5102V29.0237C18.5102 28.9531 18.487 28.8919 18.4424 28.8423C18.3959 28.7926 18.3319 28.7544 18.2466 28.7276C18.1613 28.7009 18.0605 28.6875 17.9403 28.6875C17.8007 28.6875 17.6844 28.7028 17.5894 28.7315C17.4945 28.7601 17.4169 28.7888 17.3568 28.8174L17.446 28.9091L17.4441 28.9072ZM17.4363 29.4631C17.4363 29.4077 17.4537 29.3638 17.4906 29.3294C17.5274 29.295 17.5778 29.2702 17.6437 29.253C17.7096 29.2358 17.7852 29.2282 17.8763 29.2282C17.9733 29.2282 18.0644 29.2377 18.1535 29.2549C18.2408 29.2721 18.3241 29.3008 18.4017 29.3371V29.2606C18.3804 29.2473 18.3474 29.2301 18.2989 29.2091C18.2505 29.188 18.1904 29.1708 18.1148 29.1537C18.0411 29.1365 17.9519 29.1288 17.8492 29.1288C17.667 29.1288 17.5216 29.1594 17.415 29.2205C17.3084 29.2816 17.256 29.3638 17.256 29.4689C17.256 29.5453 17.2812 29.6083 17.3316 29.658C17.382 29.7077 17.4479 29.7459 17.5313 29.7707C17.6146 29.7955 17.6999 29.8089 17.7891 29.8089C17.8783 29.8089 17.9713 29.7955 18.0605 29.7688C18.1497 29.7421 18.2233 29.7019 18.2834 29.6465C18.3435 29.5911 18.3726 29.5224 18.3726 29.4383L18.3319 29.3351C18.3319 29.4154 18.3086 29.4822 18.264 29.5357C18.2175 29.5892 18.1574 29.6313 18.0838 29.6599C18.0101 29.6886 17.9267 29.7019 17.8376 29.7019C17.7639 29.7019 17.698 29.6924 17.636 29.6752C17.5759 29.658 17.5274 29.6313 17.4925 29.595C17.4576 29.5587 17.4402 29.5147 17.4402 29.4612L17.4363 29.4631ZM16.2519 29.8089C16.4089 29.8089 16.5485 29.786 16.6648 29.7421C16.783 29.6981 16.8858 29.6293 16.9749 29.5357L16.8315 29.4727C16.7598 29.5491 16.6803 29.6045 16.5892 29.6408C16.4981 29.6771 16.3934 29.6943 16.2712 29.6943C16.1569 29.6943 16.0561 29.6752 15.9708 29.6389C15.8855 29.6007 15.8196 29.5491 15.7711 29.4803C15.7246 29.4116 15.7013 29.3313 15.7013 29.2396C15.7013 29.1479 15.7246 29.0715 15.7731 29.0046C15.8215 28.9378 15.8874 28.8881 15.9747 28.8499C16.0599 28.8136 16.1608 28.7945 16.279 28.7945C16.3798 28.7945 16.4709 28.8117 16.5504 28.8442C16.6299 28.8766 16.6938 28.9225 16.7404 28.9798C16.7869 29.0371 16.8102 29.1021 16.8102 29.1766C16.8102 29.19 16.8082 29.2014 16.8024 29.2148C16.7966 29.2282 16.7908 29.2377 16.7869 29.2473L16.8625 29.1747H15.6335V29.2797H16.9963C16.9963 29.2797 17.0001 29.2625 17.0021 29.2511C17.0021 29.2396 17.0021 29.2301 17.0021 29.2205C17.0021 29.1154 16.9711 29.0237 16.911 28.9435C16.8509 28.8633 16.7656 28.8002 16.657 28.7563C16.5485 28.7104 16.4225 28.6894 16.2771 28.6894C16.1317 28.6894 15.996 28.7124 15.8816 28.7601C15.7672 28.8079 15.6781 28.8728 15.6141 28.9569C15.5501 29.0409 15.5172 29.1365 15.5172 29.2473C15.5172 29.3581 15.5482 29.4536 15.6122 29.5376C15.6742 29.6217 15.7614 29.6886 15.8719 29.7363C15.9824 29.7841 16.1084 29.8089 16.2499 29.8089H16.2519ZM14.0303 29.2492C14.0303 29.1613 14.0575 29.0849 14.1117 29.018C14.166 28.9512 14.2416 28.8996 14.3366 28.8614C14.4316 28.8232 14.5382 28.8041 14.6584 28.8041C14.7437 28.8041 14.8212 28.8117 14.8949 28.8289C14.9686 28.8461 15.0325 28.8671 15.0849 28.8938C15.1392 28.9206 15.1779 28.9492 15.1992 28.9779V28.827C15.1508 28.7888 15.0771 28.7582 14.9783 28.7295C14.8794 28.7028 14.7708 28.6894 14.6565 28.6894C14.5033 28.6894 14.3657 28.7143 14.2455 28.762C14.1234 28.8098 14.0284 28.8766 13.9547 28.9607C13.883 29.0448 13.8462 29.1403 13.8462 29.2511C13.8462 29.3619 13.883 29.4555 13.9547 29.5396C14.0265 29.6236 14.1234 29.6905 14.2455 29.7382C14.3676 29.786 14.5033 29.8108 14.6565 29.8108C14.7708 29.8108 14.8775 29.7975 14.9783 29.7707C15.0771 29.744 15.1508 29.7115 15.1992 29.6733V29.5224C15.176 29.551 15.1372 29.5778 15.0849 29.6045C15.0306 29.6313 14.9666 29.6542 14.8949 29.6714C14.8212 29.6886 14.7418 29.6962 14.6584 29.6962C14.5402 29.6962 14.4316 29.6771 14.3366 29.6389C14.2416 29.6007 14.166 29.5491 14.1117 29.4822C14.0575 29.4154 14.0303 29.339 14.0303 29.2511V29.2492ZM11.1923 28.9683C11.1923 29.0887 11.2214 29.1995 11.2815 29.3008C11.3416 29.402 11.425 29.4918 11.5316 29.5663C11.6401 29.6427 11.7661 29.7 11.9115 29.7421C12.0569 29.7841 12.2159 29.8051 12.3865 29.8051C12.5571 29.8051 12.716 29.7841 12.8614 29.7421C13.0068 29.7 13.1328 29.6408 13.2414 29.5663C13.348 29.4918 13.4333 29.402 13.4914 29.3008C13.5515 29.1995 13.5806 29.0887 13.5806 28.9683C13.5806 28.848 13.5515 28.7372 13.4914 28.6359C13.4313 28.5347 13.348 28.4449 13.2414 28.3704C13.1347 28.294 13.0068 28.2367 12.8614 28.1946C12.716 28.1526 12.5571 28.1316 12.3865 28.1316C12.2159 28.1316 12.0569 28.1526 11.9115 28.1946C11.7661 28.2367 11.6401 28.2959 11.5316 28.3704C11.425 28.4468 11.3397 28.5347 11.2815 28.6359C11.2214 28.7372 11.1923 28.848 11.1923 28.9683ZM11.392 28.9683C11.392 28.8308 11.4347 28.7104 11.52 28.6035C11.6052 28.4965 11.7235 28.4124 11.8728 28.3513C12.022 28.2902 12.1946 28.2596 12.3865 28.2596C12.5784 28.2596 12.749 28.2902 12.9002 28.3513C13.0494 28.4124 13.1677 28.4965 13.253 28.6035C13.3383 28.7104 13.3809 28.8327 13.3809 28.9683C13.3809 29.104 13.3383 29.2243 13.253 29.3332C13.1677 29.4402 13.0514 29.5243 12.9002 29.5873C12.7509 29.6484 12.5784 29.679 12.3865 29.679C12.1946 29.679 12.024 29.6484 11.8728 29.5873C11.7235 29.5262 11.6052 29.4421 11.52 29.3332C11.4347 29.2263 11.392 29.104 11.392 28.9683ZM10.3375 29.2587H11.0237V29.1441H10.3375V29.2587ZM8.98826 29.786C9.22088 29.786 9.42636 29.7516 9.6047 29.6828C9.78111 29.6141 9.92068 29.5185 10.0195 29.3963C10.1184 29.274 10.1688 29.1307 10.1688 28.9683C10.1688 28.806 10.1184 28.6627 10.0195 28.5404C9.92068 28.4182 9.78111 28.3226 9.6047 28.2539C9.4283 28.1851 9.22282 28.1507 8.98826 28.1507H8.43966V28.2787H8.98826C9.13752 28.2787 9.27321 28.2959 9.39534 28.3284C9.51747 28.3608 9.62215 28.4067 9.70938 28.4678C9.79662 28.527 9.86252 28.5996 9.91099 28.6856C9.95751 28.7697 9.98078 28.8652 9.98078 28.9683C9.98078 29.0715 9.95751 29.167 9.91099 29.2511C9.86446 29.3351 9.79662 29.4077 9.70938 29.4689C9.62215 29.5281 9.51747 29.5759 9.39534 29.6083C9.27321 29.6408 9.13752 29.658 8.98826 29.658H8.43966V29.786H8.98826ZM8.33691 28.1526V29.786H8.52495V28.1526H8.33691Z" fill="#272425"/>
<path d="M8.98337 19.3113C9.62114 19.3113 10.0457 19.1585 10.2589 18.8547C10.4721 18.551 10.5768 18.1326 10.5768 17.5977C10.5768 17.0628 10.4663 16.6692 10.2434 16.3521C10.0205 16.035 9.60175 15.8764 8.98337 15.8764C8.31846 15.8764 7.82219 15.8974 7.49265 15.9375V19.3113H8.98337ZM16.1113 19.3629C16.8712 19.3629 17.4198 19.2196 17.7571 18.933C18.0924 18.6465 18.2611 18.1975 18.2611 17.59C18.2611 16.9825 18.0924 16.5527 17.7571 16.2623C17.4217 15.9719 16.8731 15.8267 16.1113 15.8267C15.3494 15.8267 14.8125 15.9719 14.4771 16.2623C14.1418 16.5527 13.9731 16.9959 13.9731 17.59C13.9731 18.1842 14.1418 18.6369 14.4771 18.9273C14.8125 19.2177 15.3572 19.3629 16.1113 19.3629ZM9.49901 23.8714C9.90222 24.8534 10.8986 25.501 12.4882 25.8162C12.2246 26.1085 12.021 26.3989 11.8756 26.6854C11.7302 26.972 11.5655 27.3522 11.3794 27.8278C10.7746 27.6521 10.1911 27.3483 9.62889 26.9223C9.06672 26.4944 8.61505 25.9576 8.27193 25.3138C7.93075 25.9537 7.47714 26.4887 6.91109 26.9185C6.34505 27.3483 5.76349 27.6521 5.16449 27.8278C4.98034 27.3541 4.81556 26.972 4.66823 26.6854C4.52285 26.3989 4.3193 26.1085 4.05566 25.8162C5.63943 25.5124 6.63001 24.8648 7.02741 23.8714H4.44143V22.0432H7.23676L7.24452 21.3287H6.83162C6.2016 21.3287 5.56383 21.3249 4.92024 21.3191C4.97452 19.9876 5.00166 18.7496 5.00166 17.6015C5.00166 16.4533 4.97452 15.2269 4.92024 13.9641C5.73636 13.8972 6.83161 13.8628 8.2099 13.8628C9.49901 13.8628 10.5167 14.0157 11.2631 14.3233C11.7244 14.5124 12.1005 14.7474 12.3893 15.0282C12.4669 14.9403 12.5502 14.8563 12.6375 14.7741C13.3741 14.0978 14.5314 13.7616 16.1074 13.7616C17.6834 13.7616 18.8504 14.0997 19.587 14.7741C20.3237 15.4504 20.692 16.3884 20.692 17.59C20.692 18.7917 20.3256 19.7583 19.5928 20.427C19.0927 20.8836 18.391 21.1835 17.4915 21.3287L17.8075 22.1673L18.1273 21.3229L20.1182 21.4891L19.808 22.1998H20.4884V23.4569H18.7244V23.7377H20.4206V25.1113H18.7244V25.4093H20.6047V26.7752H18.7244V27.7094H16.8188V26.7752H15.0218V25.4093H16.8188V25.1113H15.1149V23.7377H16.8188V23.4569H15.0974L15.1905 23.4893L14.3686 24.6566L15.1149 24.7636L14.3918 27.6674L14.2077 27.6253C13.4129 27.4706 12.8255 27.3655 12.4436 27.3101C12.6064 26.9242 12.7421 26.5574 12.8507 26.2097C12.9593 25.862 13.0794 25.4513 13.2074 24.9775L13.3334 24.5133L13.9886 24.605C13.6183 24.4292 13.1318 24.2707 12.527 24.1331L13.4342 22.8665C13.6184 22.9105 13.8141 22.9678 14.0177 23.0404C14.2212 23.113 14.419 23.1875 14.6089 23.2639L15.0625 23.4378V22.2801L14.5915 23.0901C13.9363 22.8245 13.2423 22.6316 12.5095 22.5112L13.3411 21.1873C13.5602 21.237 13.8064 21.3077 14.0836 21.3974C14.3608 21.4891 14.5236 21.5426 14.574 21.5579C14.8978 21.6745 15.1537 21.7566 15.3378 21.8063L15.111 22.196H15.7992L15.489 21.4853L16.1985 21.4261H16.1055C14.5353 21.4261 13.3819 21.0899 12.6413 20.4193C12.5328 20.32 12.432 20.2168 12.3389 20.106C12.0385 20.4136 11.6643 20.6658 11.2204 20.8664C10.6796 21.109 10.0399 21.2561 9.30128 21.3077L9.29352 22.0413H12.0986V23.8695H9.49513L9.49901 23.8714Z" fill="#272425"/>
</svg>
