<svg width="1920" height="1000" viewBox="0 0 1920 1000" fill="none" xmlns="http://www.w3.org/2000/svg">
<path d="M2425.51 4.11785C2434.78 -0.445679 2446.1 -1.49302 2460.42 2.3786C2463.45 3.1968 2465.54 5.9615 2465.5 9.09735C2465.46 12.233 2463.3 14.9442 2460.26 15.6872C2448.66 18.5155 2444.37 27.0176 2444.96 34.3268C2445.55 41.6041 2450.94 48.4294 2461.67 48.4294C2465.47 48.4295 2468.55 51.5058 2468.55 55.3005C2468.55 55.4175 2468.54 55.5345 2468.54 55.6501H2468.55V99.9997H1920V1000H0V99.9997H-2V55.6501H-1.99121C-1.997 55.5345 -2 55.4175 -2 55.3005C-1.99996 51.5057 1.07632 48.4294 4.87109 48.4294C10.5444 48.4294 14.7374 45.9802 18.9658 41.4128C22.0657 38.0644 24.6391 34.2532 27.5791 29.8991C29.0699 27.6912 30.6553 25.3431 32.4512 22.8454C37.4153 15.9415 43.6318 8.56468 52.6689 4.11785C61.9434 -0.445667 73.2574 -1.49299 87.583 2.3786C90.6105 3.1968 92.7 5.9615 92.6611 9.09735C92.6221 12.233 90.4647 14.9443 87.418 15.6872C75.8192 18.5156 71.5346 27.0176 72.123 34.3268C72.7091 41.6041 78.0995 48.4294 88.8369 48.4294C88.9673 48.4294 89.0969 48.4329 89.2256 48.4401C89.3544 48.4329 89.4846 48.4294 89.6152 48.4294C95.2885 48.4294 99.4815 45.9802 103.71 41.4128C106.81 38.0644 109.383 34.2531 112.323 29.8991C113.814 27.6911 115.399 25.3432 117.195 22.8454C122.159 15.9415 128.376 8.56468 137.413 4.11785C146.688 -0.445661 158.002 -1.49297 172.327 2.3786C175.355 3.1968 177.444 5.9615 177.405 9.09735C177.366 12.233 175.209 14.9443 172.162 15.6872C160.563 18.5156 156.279 27.0176 156.867 34.3268C157.453 41.6041 162.844 48.4294 173.581 48.4294C173.712 48.4294 173.842 48.4329 173.971 48.4401C174.099 48.4329 174.229 48.4294 174.359 48.4294C180.033 48.4294 184.226 45.9802 188.454 41.4128C191.554 38.0644 194.127 34.2532 197.067 29.8991C198.558 27.6911 200.143 25.3433 201.939 22.8454C206.904 15.9416 213.12 8.56469 222.157 4.11785C231.432 -0.445652 242.746 -1.49295 257.071 2.3786C260.099 3.1968 262.188 5.9615 262.149 9.09735C262.11 12.233 259.953 14.9443 256.906 15.6872C245.308 18.5156 241.023 27.0176 241.611 34.3268C242.197 41.6041 247.588 48.4294 258.325 48.4294C258.456 48.4294 258.586 48.4329 258.715 48.4401C258.843 48.4329 258.973 48.4294 259.104 48.4294C264.777 48.4294 268.97 45.9801 273.198 41.4128C276.298 38.0644 278.871 34.2532 281.812 29.8991L281.813 29.8972C283.304 27.6897 284.889 25.3425 286.685 22.8454C291.649 15.9417 297.864 8.56462 306.901 4.11785C316.176 -0.445646 327.49 -1.49293 341.815 2.3786C344.843 3.1968 346.932 5.9615 346.894 9.09735C346.855 12.233 344.697 14.9443 341.65 15.6872C330.052 18.5156 325.767 27.0176 326.355 34.3268C326.942 41.6041 332.332 48.4294 343.069 48.4294C343.2 48.4294 343.33 48.4329 343.459 48.4401C343.588 48.4329 343.717 48.4294 343.848 48.4294C349.521 48.4294 353.714 45.9801 357.942 41.4128C361.042 38.0644 363.616 34.2532 366.556 29.8991L366.558 29.8962C368.048 27.689 369.633 25.3421 371.429 22.8454C376.393 15.9417 382.609 8.56464 391.646 4.11785C400.92 -0.445637 412.234 -1.4929 426.56 2.3786C429.587 3.1968 431.677 5.9615 431.638 9.09735C431.599 12.2329 429.442 14.9441 426.396 15.6872C414.797 18.5156 410.512 27.0175 411.101 34.3268C411.687 41.6041 417.076 48.4294 427.813 48.4294C427.944 48.4294 428.074 48.4329 428.203 48.4401C428.332 48.4329 428.461 48.4294 428.592 48.4294C434.265 48.4294 438.458 45.9801 442.687 41.4128C445.786 38.0644 448.36 34.2532 451.3 29.8991C452.791 27.691 454.377 25.3433 456.173 22.8454C461.137 15.9417 467.353 8.56465 476.39 4.11785C485.664 -0.445634 496.978 -1.49289 511.304 2.3786C514.331 3.1968 516.421 5.9615 516.382 9.09735C516.343 12.2329 514.186 14.9441 511.14 15.6872C499.541 18.5156 495.256 27.0175 495.845 34.3268C496.431 41.6041 501.82 48.4294 512.558 48.4294C512.688 48.4294 512.818 48.4329 512.947 48.4401C513.076 48.4329 513.206 48.4294 513.337 48.4294C519.01 48.4292 523.203 45.9801 527.432 41.4128C530.531 38.0644 533.104 34.253 536.044 29.8991C537.535 27.6912 539.121 25.3431 540.917 22.8454C545.881 15.9415 552.098 8.56463 561.135 4.11785C570.409 -0.445598 581.723 -1.493 596.049 2.3786C599.076 3.19694 601.165 5.96165 601.126 9.09735C601.087 12.2329 598.93 14.9442 595.884 15.6872C584.285 18.5156 580 27.0184 580.589 34.3278C581.175 41.6049 586.565 48.4293 597.302 48.4294C597.432 48.4294 597.562 48.4329 597.691 48.4401C597.746 48.4371 597.801 48.435 597.855 48.4333C597.93 48.4309 598.006 48.4294 598.081 48.4294C603.754 48.4293 607.947 45.9801 612.176 41.4128C615.276 38.0644 617.849 34.2531 620.789 29.8991C622.28 27.6911 623.865 25.3432 625.661 22.8454C630.625 15.9415 636.842 8.56464 645.879 4.11785C655.153 -0.445619 666.467 -1.49301 680.793 2.3786C683.82 3.1969 685.909 5.96161 685.87 9.09735C685.831 12.233 683.674 14.9442 680.628 15.6872C669.029 18.5156 664.744 27.0184 665.333 34.3278C665.919 41.6048 671.309 48.4293 682.046 48.4294C682.102 48.4294 682.159 48.43 682.215 48.4313C682.289 48.4331 682.362 48.436 682.436 48.4401C682.564 48.4329 682.695 48.4294 682.825 48.4294C688.498 48.4293 692.692 45.9801 696.92 41.4128C700.02 38.0644 702.593 34.2531 705.533 29.8991C707.024 27.6911 708.609 25.3432 710.405 22.8454C715.37 15.9415 721.586 8.56464 730.623 4.11785C739.898 -0.445639 751.212 -1.49302 765.537 2.3786C768.565 3.19688 770.653 5.96159 770.614 9.09735C770.575 12.233 768.419 14.9442 765.372 15.6872C753.773 18.5156 749.489 27.0184 750.077 34.3278C750.663 41.6048 756.053 48.4292 766.79 48.4294C766.921 48.4294 767.051 48.4329 767.18 48.4401C767.309 48.4329 767.439 48.4294 767.569 48.4294C773.242 48.4293 777.436 45.9802 781.664 41.4128C784.764 38.0644 787.337 34.2531 790.277 29.8991C791.768 27.6911 793.353 25.3432 795.149 22.8454C800.114 15.9415 806.33 8.56465 815.367 4.11785C824.642 -0.445679 835.956 -1.49303 850.281 2.3786C853.309 3.19686 855.398 5.96157 855.359 9.09735C855.32 12.233 853.163 14.9442 850.116 15.6872C838.517 18.5156 834.233 27.0184 834.821 34.3278C835.407 41.6048 840.797 48.4292 851.534 48.4294C851.665 48.4294 851.795 48.4329 851.924 48.4401C852.053 48.4329 852.183 48.4294 852.313 48.4294C857.987 48.4293 862.18 45.9802 866.408 41.4128C869.508 38.0644 872.081 34.2532 875.021 29.8991C876.512 27.6911 878.098 25.3432 879.894 22.8454C884.858 15.9415 891.074 8.56466 900.111 4.11785C909.386 -0.445679 920.7 -1.49303 935.025 2.3786C938.053 3.19682 940.142 5.96153 940.104 9.09735C940.065 12.233 937.907 14.9442 934.86 15.6872C923.261 18.5156 918.977 27.0184 919.565 34.3278C920.152 41.6048 925.541 48.4292 936.278 48.4294C936.409 48.4294 936.539 48.4329 936.668 48.4401C936.797 48.4329 936.927 48.4294 937.058 48.4294C942.731 48.4293 946.924 45.9802 951.152 41.4128C954.252 38.0644 956.826 34.2532 959.766 29.8991L959.771 29.8913C961.26 27.6855 962.844 25.3404 964.638 22.8454C969.602 15.9415 975.818 8.56467 984.855 4.11785C994.13 -0.445679 1005.44 -1.49303 1019.77 2.3786C1022.8 3.19682 1024.89 5.96153 1024.85 9.09735C1024.81 12.233 1022.65 14.9443 1019.6 15.6872C1008.01 18.5156 1003.72 27.0184 1004.31 34.3278C1004.9 41.6048 1010.29 48.4292 1021.02 48.4294C1021.15 48.4294 1021.28 48.4329 1021.41 48.4401C1021.54 48.4329 1021.67 48.4294 1021.8 48.4294C1027.47 48.4294 1031.67 45.9802 1035.9 41.4128C1039 38.0644 1041.57 34.2532 1044.51 29.8991L1044.51 29.8913C1046 27.6855 1047.59 25.3403 1049.38 22.8454C1054.35 15.9415 1060.56 8.56468 1069.6 4.11785C1078.87 -0.445679 1090.19 -1.49303 1104.51 2.3786C1107.54 3.19682 1109.63 5.96153 1109.59 9.09735C1109.55 12.233 1107.4 14.9443 1104.35 15.6872C1092.75 18.5156 1088.46 27.0184 1089.05 34.3278C1089.64 41.6049 1095.03 48.4294 1105.77 48.4294C1105.83 48.4294 1105.89 48.4306 1105.96 48.4323C1106.02 48.4341 1106.09 48.4364 1106.16 48.4401C1106.25 48.4348 1106.35 48.4318 1106.44 48.4304C1106.48 48.4298 1106.51 48.4294 1106.55 48.4294C1112.22 48.4294 1116.41 45.9802 1120.64 41.4128C1123.74 38.0643 1126.31 34.2532 1129.25 29.8991C1130.74 27.6911 1132.33 25.3433 1134.13 22.8454C1139.09 15.9415 1145.31 8.56468 1154.34 4.11785C1163.62 -0.445663 1174.93 -1.49298 1189.26 2.3786C1192.29 3.1968 1194.37 5.9615 1194.34 9.09735C1194.3 12.233 1192.14 14.9443 1189.09 15.6872C1177.49 18.5156 1173.21 27.0184 1173.8 34.3278C1174.38 41.6049 1179.77 48.4294 1190.51 48.4294C1190.57 48.4294 1190.63 48.4299 1190.68 48.4313C1190.76 48.4331 1190.83 48.4361 1190.9 48.4401C1191.03 48.4329 1191.16 48.4294 1191.29 48.4294C1196.96 48.4294 1201.16 45.9802 1205.38 41.4128C1208.48 38.0648 1211.06 34.2544 1214 29.9011L1214 29.9001C1215.49 27.6919 1217.07 25.3434 1218.87 22.8454C1223.83 15.9415 1230.05 8.56468 1239.09 4.11785C1248.36 -0.445663 1259.68 -1.49298 1274 2.3786C1277.03 3.1968 1279.12 5.9615 1279.08 9.09735C1279.04 12.233 1276.88 14.9443 1273.84 15.6872C1262.24 18.5157 1257.95 27.0185 1258.54 34.3278C1259.13 41.6049 1264.52 48.4294 1275.26 48.4294C1275.31 48.4294 1275.37 48.43 1275.42 48.4313C1275.46 48.4322 1275.5 48.4337 1275.54 48.4352C1275.57 48.4367 1275.61 48.4381 1275.64 48.4401L1275.7 48.4372C1275.74 48.4354 1275.78 48.4335 1275.82 48.4323L1275.89 48.4313C1275.93 48.4303 1275.98 48.4294 1276.03 48.4294C1281.71 48.4294 1285.9 45.9802 1290.13 41.4128C1293.23 38.0645 1295.8 34.2539 1298.74 29.9001L1298.74 29.8962L1298.75 29.8884L1298.76 29.8786C1300.24 27.6766 1301.82 25.3354 1303.62 22.8454C1308.58 15.9416 1314.8 8.56462 1323.83 4.11785C1333.11 -0.445651 1344.42 -1.49295 1358.75 2.3786C1361.77 3.1968 1363.86 5.9615 1363.82 9.09735C1363.79 12.233 1361.63 14.9443 1358.58 15.6872C1346.98 18.5157 1342.7 27.0185 1343.29 34.3278C1343.87 41.6049 1349.26 48.4294 1360 48.4294C1360.06 48.4294 1360.13 48.4306 1360.19 48.4323C1360.26 48.4341 1360.32 48.4364 1360.39 48.4401C1360.52 48.4329 1360.65 48.4294 1360.78 48.4294C1366.45 48.4294 1370.64 45.9802 1374.87 41.4128C1377.97 38.0645 1380.55 34.2539 1383.49 29.9001C1384.98 27.6919 1386.56 25.3435 1388.36 22.8454C1393.32 15.9417 1399.54 8.56462 1408.58 4.11785C1417.85 -0.445639 1429.16 -1.49291 1443.49 2.3786C1446.52 3.1968 1448.61 5.9615 1448.57 9.09735C1448.53 12.233 1446.37 14.9443 1443.33 15.6872C1431.73 18.5157 1427.44 27.0185 1428.03 34.3278C1428.62 41.6049 1434.01 48.4294 1444.74 48.4294C1444.87 48.4294 1445.01 48.4329 1445.13 48.4401C1445.2 48.4362 1445.28 48.4331 1445.35 48.4313C1445.41 48.4299 1445.46 48.4294 1445.52 48.4294C1451.2 48.4294 1455.39 45.9802 1459.62 41.4128C1462.72 38.0645 1465.29 34.2539 1468.23 29.9001L1468.23 29.8962C1469.72 27.689 1471.31 25.3421 1473.1 22.8454C1478.07 15.9416 1484.28 8.56462 1493.32 4.11785C1502.59 -0.445639 1513.91 -1.49291 1528.23 2.3786C1531.26 3.1968 1533.35 5.9615 1533.31 9.09735C1533.27 12.2329 1531.12 14.9441 1528.07 15.6872C1516.47 18.5156 1512.19 27.0184 1512.77 34.3278C1513.36 41.6049 1518.75 48.4294 1529.49 48.4294C1529.62 48.4294 1529.75 48.4329 1529.88 48.4401C1530.01 48.4329 1530.14 48.4294 1530.27 48.4294C1535.94 48.4294 1540.13 45.9801 1544.36 41.4128C1547.46 38.0645 1550.03 34.2538 1552.97 29.9001L1552.98 29.8962C1554.47 27.689 1556.05 25.3421 1557.85 22.8454C1562.81 15.9417 1569.03 8.56464 1578.06 4.11785C1587.34 -0.445679 1598.65 -1.49303 1612.98 2.3786C1616.01 3.19694 1618.1 5.96165 1618.06 9.09735C1618.02 12.2329 1615.86 14.9441 1612.81 15.6872C1601.22 18.5156 1596.93 27.0184 1597.52 34.3278C1598.1 41.6049 1603.5 48.4294 1614.23 48.4294H1614.31C1614.35 48.4298 1614.38 48.4313 1614.42 48.4323L1614.48 48.4333C1614.53 48.435 1614.57 48.4374 1614.62 48.4401C1614.7 48.4358 1614.78 48.4331 1614.86 48.4313C1614.91 48.4302 1614.96 48.4294 1615.01 48.4294C1620.68 48.4294 1624.88 45.9802 1629.11 41.4128C1632.21 38.0646 1634.78 34.2538 1637.72 29.9001L1637.73 29.8864C1639.22 27.6822 1640.8 25.3384 1642.59 22.8454C1647.56 15.9415 1653.77 8.56463 1662.81 4.11785C1672.08 -0.445578 1683.4 -1.49299 1697.72 2.3786C1700.75 3.1969 1702.84 5.96161 1702.8 9.09735C1702.76 12.2329 1700.6 14.9441 1697.56 15.6872C1685.96 18.5156 1681.68 27.0184 1682.26 34.3278C1682.85 41.6049 1688.24 48.4294 1698.98 48.4294C1699.11 48.4294 1699.24 48.4329 1699.37 48.4401C1699.5 48.4329 1699.63 48.4294 1699.76 48.4294C1705.43 48.4292 1709.62 45.9801 1713.85 41.4128C1716.95 38.0652 1719.52 34.2548 1722.46 29.902L1722.46 29.9001L1722.47 29.8864C1723.96 27.6822 1725.54 25.3384 1727.34 22.8454C1732.3 15.9415 1738.52 8.56463 1747.55 4.11785C1756.83 -0.445578 1768.14 -1.49299 1782.47 2.3786C1785.49 3.1969 1787.58 5.96161 1787.54 9.09735C1787.51 12.2329 1785.35 14.9442 1782.3 15.6872C1770.7 18.5156 1766.42 27.0184 1767.01 34.3278C1767.59 41.6049 1772.98 48.4294 1783.72 48.4294C1783.85 48.4294 1783.98 48.4329 1784.11 48.4401C1784.24 48.4329 1784.37 48.4294 1784.5 48.4294C1790.17 48.4292 1794.37 45.9801 1798.59 41.4128C1801.69 38.0652 1804.27 34.2548 1807.21 29.902L1807.21 29.9001C1808.7 27.6919 1810.28 25.3435 1812.08 22.8454C1817.04 15.9415 1823.26 8.56464 1832.3 4.11785C1841.57 -0.445619 1852.89 -1.49301 1867.21 2.3786C1870.24 3.19686 1872.33 5.96157 1872.29 9.09735C1872.25 12.233 1870.09 14.9442 1867.05 15.6872C1855.45 18.5156 1851.16 27.0184 1851.75 34.3278C1852.34 41.6049 1857.73 48.4293 1868.46 48.4294C1868.52 48.4294 1868.58 48.43 1868.63 48.4313C1868.71 48.4331 1868.78 48.436 1868.85 48.4401C1868.98 48.4329 1869.11 48.4294 1869.24 48.4294C1874.92 48.4293 1879.11 45.9801 1883.34 41.4128C1886.44 38.0651 1889.01 34.2548 1891.95 29.902L1891.95 29.9001C1893.44 27.6919 1895.03 25.3435 1896.82 22.8454C1901.79 15.9415 1908 8.56465 1917.04 4.11785C1926.32 -0.445619 1937.63 -1.49301 1951.96 2.3786C1954.98 3.1969 1957.07 5.96161 1957.03 9.09735C1957 12.233 1954.84 14.9442 1951.79 15.6872C1940.19 18.5156 1935.91 27.0184 1936.5 34.3278C1937.08 41.6048 1942.47 48.4293 1953.21 48.4294C1953.34 48.4294 1953.47 48.4329 1953.6 48.4401L1953.66 48.4372L1953.71 48.4352C1953.75 48.4339 1953.78 48.4322 1953.82 48.4313C1953.85 48.4305 1953.89 48.4297 1953.92 48.4294H1953.99C1959.66 48.4293 1963.85 45.9801 1968.08 41.4128C1971.18 38.0651 1973.75 34.2548 1976.69 29.902L1976.7 29.9001C1978.19 27.6919 1979.77 25.3435 1981.57 22.8454C1986.53 15.9415 1992.75 8.56465 2001.79 4.11785C2011.06 -0.44566 2022.37 -1.49302 2036.7 2.3786C2039.73 3.19686 2041.82 5.96157 2041.78 9.09735C2041.74 12.233 2039.58 14.9442 2036.54 15.6872C2024.94 18.5156 2020.65 27.0184 2021.24 34.3278C2021.83 41.6048 2027.22 48.4293 2037.95 48.4294C2038.01 48.4294 2038.07 48.4298 2038.13 48.4313L2038.21 48.4343C2038.25 48.4359 2038.3 48.4376 2038.34 48.4401C2038.41 48.4366 2038.47 48.4341 2038.53 48.4323C2038.6 48.4304 2038.67 48.4294 2038.73 48.4294C2044.41 48.4293 2048.6 45.9802 2052.83 41.4128C2055.93 38.0651 2058.5 34.2548 2061.44 29.902L2061.44 29.9001C2062.93 27.6919 2064.52 25.3435 2066.31 22.8454C2071.28 15.9415 2077.49 8.56465 2086.53 4.11785C2095.8 -0.44566 2107.12 -1.49302 2121.44 2.3786C2124.47 3.19686 2126.56 5.96157 2126.52 9.09735C2126.48 12.233 2124.33 14.9442 2121.28 15.6872C2109.68 18.5156 2105.4 27.0184 2105.98 34.3278C2106.57 41.6048 2111.96 48.4293 2122.7 48.4294C2122.83 48.4294 2122.96 48.4329 2123.09 48.4401C2123.12 48.438 2123.16 48.4367 2123.2 48.4352C2123.29 48.4316 2123.38 48.4294 2123.48 48.4294C2129.15 48.4293 2133.34 45.9802 2137.57 41.4128C2140.67 38.0651 2143.24 34.2548 2146.18 29.902L2146.18 29.9001C2147.68 27.6919 2149.26 25.3435 2151.06 22.8454C2156.02 15.9415 2162.24 8.56468 2171.27 4.11785C2180.55 -0.445675 2191.86 -1.49302 2206.19 2.3786C2209.22 3.1968 2211.31 5.9615 2211.27 9.09735C2211.23 12.233 2209.07 14.9442 2206.02 15.6872C2194.42 18.5156 2190.14 27.0184 2190.73 34.3278C2191.31 41.6049 2196.71 48.4294 2207.44 48.4294C2207.57 48.4294 2207.7 48.4329 2207.83 48.4401C2207.96 48.4329 2208.09 48.4294 2208.22 48.4294C2213.89 48.4294 2218.09 45.9802 2222.32 41.4128C2225.41 38.0651 2227.99 34.2548 2230.93 29.902L2230.93 29.9001C2232.42 27.6919 2234 25.3435 2235.8 22.8454C2240.76 15.9415 2246.98 8.56468 2256.02 4.11785C2265.29 -0.445675 2276.61 -1.49302 2290.93 2.3786C2293.96 3.1968 2296.05 5.9615 2296.01 9.09735C2295.97 12.233 2293.81 14.9442 2290.77 15.6872C2279.17 18.5156 2274.88 27.0184 2275.47 34.3278C2276.06 41.6049 2281.45 48.4294 2292.19 48.4294C2292.32 48.4294 2292.45 48.4329 2292.58 48.4401C2292.65 48.436 2292.72 48.4331 2292.8 48.4313L2292.87 48.4304L2292.96 48.4294C2298.64 48.4294 2302.83 45.9802 2307.06 41.4128C2310.16 38.0643 2312.73 34.2532 2315.67 29.8991C2317.16 27.6911 2318.75 25.3432 2320.54 22.8454C2325.51 15.9415 2331.73 8.56468 2340.76 4.11785C2350.04 -0.445679 2361.35 -1.49302 2375.68 2.3786C2378.7 3.1968 2380.79 5.9615 2380.75 9.09735C2380.72 12.233 2378.56 14.9442 2375.51 15.6872C2363.91 18.5155 2359.63 27.0176 2360.22 34.3268C2360.8 41.6041 2366.19 48.4294 2376.93 48.4294C2377.06 48.4294 2377.19 48.4329 2377.32 48.4401C2377.45 48.4329 2377.58 48.4294 2377.71 48.4294C2383.38 48.4294 2387.58 45.9802 2391.8 41.4128C2394.9 38.0645 2397.48 34.2539 2400.42 29.9001L2400.42 29.8962C2401.91 27.689 2403.49 25.3421 2405.29 22.8454C2410.25 15.9415 2416.47 8.56468 2425.51 4.11785Z" fill="url(#paint0_linear_4007_632)"/>
<path d="M2425.51 4.11785C2434.78 -0.445679 2446.1 -1.49302 2460.42 2.3786C2463.45 3.1968 2465.54 5.9615 2465.5 9.09735C2465.46 12.233 2463.3 14.9442 2460.26 15.6872C2448.66 18.5155 2444.37 27.0176 2444.96 34.3268C2445.55 41.6041 2450.94 48.4294 2461.67 48.4294C2465.47 48.4295 2468.55 51.5058 2468.55 55.3005C2468.55 55.4175 2468.54 55.5345 2468.54 55.6501H2468.55V99.9997H1920V1000H0V99.9997H-2V55.6501H-1.99121C-1.997 55.5345 -2 55.4175 -2 55.3005C-1.99996 51.5057 1.07632 48.4294 4.87109 48.4294C10.5444 48.4294 14.7374 45.9802 18.9658 41.4128C22.0657 38.0644 24.6391 34.2532 27.5791 29.8991C29.0699 27.6912 30.6553 25.3431 32.4512 22.8454C37.4153 15.9415 43.6318 8.56468 52.6689 4.11785C61.9434 -0.445667 73.2574 -1.49299 87.583 2.3786C90.6105 3.1968 92.7 5.9615 92.6611 9.09735C92.6221 12.233 90.4647 14.9443 87.418 15.6872C75.8192 18.5156 71.5346 27.0176 72.123 34.3268C72.7091 41.6041 78.0995 48.4294 88.8369 48.4294C88.9673 48.4294 89.0969 48.4329 89.2256 48.4401C89.3544 48.4329 89.4846 48.4294 89.6152 48.4294C95.2885 48.4294 99.4815 45.9802 103.71 41.4128C106.81 38.0644 109.383 34.2531 112.323 29.8991C113.814 27.6911 115.399 25.3432 117.195 22.8454C122.159 15.9415 128.376 8.56468 137.413 4.11785C146.688 -0.445661 158.002 -1.49297 172.327 2.3786C175.355 3.1968 177.444 5.9615 177.405 9.09735C177.366 12.233 175.209 14.9443 172.162 15.6872C160.563 18.5156 156.279 27.0176 156.867 34.3268C157.453 41.6041 162.844 48.4294 173.581 48.4294C173.712 48.4294 173.842 48.4329 173.971 48.4401C174.099 48.4329 174.229 48.4294 174.359 48.4294C180.033 48.4294 184.226 45.9802 188.454 41.4128C191.554 38.0644 194.127 34.2532 197.067 29.8991C198.558 27.6911 200.143 25.3433 201.939 22.8454C206.904 15.9416 213.12 8.56469 222.157 4.11785C231.432 -0.445652 242.746 -1.49295 257.071 2.3786C260.099 3.1968 262.188 5.9615 262.149 9.09735C262.11 12.233 259.953 14.9443 256.906 15.6872C245.308 18.5156 241.023 27.0176 241.611 34.3268C242.197 41.6041 247.588 48.4294 258.325 48.4294C258.456 48.4294 258.586 48.4329 258.715 48.4401C258.843 48.4329 258.973 48.4294 259.104 48.4294C264.777 48.4294 268.97 45.9801 273.198 41.4128C276.298 38.0644 278.871 34.2532 281.812 29.8991L281.813 29.8972C283.304 27.6897 284.889 25.3425 286.685 22.8454C291.649 15.9417 297.864 8.56462 306.901 4.11785C316.176 -0.445646 327.49 -1.49293 341.815 2.3786C344.843 3.1968 346.932 5.9615 346.894 9.09735C346.855 12.233 344.697 14.9443 341.65 15.6872C330.052 18.5156 325.767 27.0176 326.355 34.3268C326.942 41.6041 332.332 48.4294 343.069 48.4294C343.2 48.4294 343.33 48.4329 343.459 48.4401C343.588 48.4329 343.717 48.4294 343.848 48.4294C349.521 48.4294 353.714 45.9801 357.942 41.4128C361.042 38.0644 363.616 34.2532 366.556 29.8991L366.558 29.8962C368.048 27.689 369.633 25.3421 371.429 22.8454C376.393 15.9417 382.609 8.56464 391.646 4.11785C400.92 -0.445637 412.234 -1.4929 426.56 2.3786C429.587 3.1968 431.677 5.9615 431.638 9.09735C431.599 12.2329 429.442 14.9441 426.396 15.6872C414.797 18.5156 410.512 27.0175 411.101 34.3268C411.687 41.6041 417.076 48.4294 427.813 48.4294C427.944 48.4294 428.074 48.4329 428.203 48.4401C428.332 48.4329 428.461 48.4294 428.592 48.4294C434.265 48.4294 438.458 45.9801 442.687 41.4128C445.786 38.0644 448.36 34.2532 451.3 29.8991C452.791 27.691 454.377 25.3433 456.173 22.8454C461.137 15.9417 467.353 8.56465 476.39 4.11785C485.664 -0.445634 496.978 -1.49289 511.304 2.3786C514.331 3.1968 516.421 5.9615 516.382 9.09735C516.343 12.2329 514.186 14.9441 511.14 15.6872C499.541 18.5156 495.256 27.0175 495.845 34.3268C496.431 41.6041 501.82 48.4294 512.558 48.4294C512.688 48.4294 512.818 48.4329 512.947 48.4401C513.076 48.4329 513.206 48.4294 513.337 48.4294C519.01 48.4292 523.203 45.9801 527.432 41.4128C530.531 38.0644 533.104 34.253 536.044 29.8991C537.535 27.6912 539.121 25.3431 540.917 22.8454C545.881 15.9415 552.098 8.56463 561.135 4.11785C570.409 -0.445598 581.723 -1.493 596.049 2.3786C599.076 3.19694 601.165 5.96165 601.126 9.09735C601.087 12.2329 598.93 14.9442 595.884 15.6872C584.285 18.5156 580 27.0184 580.589 34.3278C581.175 41.6049 586.565 48.4293 597.302 48.4294C597.432 48.4294 597.562 48.4329 597.691 48.4401C597.746 48.4371 597.801 48.435 597.855 48.4333C597.93 48.4309 598.006 48.4294 598.081 48.4294C603.754 48.4293 607.947 45.9801 612.176 41.4128C615.276 38.0644 617.849 34.2531 620.789 29.8991C622.28 27.6911 623.865 25.3432 625.661 22.8454C630.625 15.9415 636.842 8.56464 645.879 4.11785C655.153 -0.445619 666.467 -1.49301 680.793 2.3786C683.82 3.1969 685.909 5.96161 685.87 9.09735C685.831 12.233 683.674 14.9442 680.628 15.6872C669.029 18.5156 664.744 27.0184 665.333 34.3278C665.919 41.6048 671.309 48.4293 682.046 48.4294C682.102 48.4294 682.159 48.43 682.215 48.4313C682.289 48.4331 682.362 48.436 682.436 48.4401C682.564 48.4329 682.695 48.4294 682.825 48.4294C688.498 48.4293 692.692 45.9801 696.92 41.4128C700.02 38.0644 702.593 34.2531 705.533 29.8991C707.024 27.6911 708.609 25.3432 710.405 22.8454C715.37 15.9415 721.586 8.56464 730.623 4.11785C739.898 -0.445639 751.212 -1.49302 765.537 2.3786C768.565 3.19688 770.653 5.96159 770.614 9.09735C770.575 12.233 768.419 14.9442 765.372 15.6872C753.773 18.5156 749.489 27.0184 750.077 34.3278C750.663 41.6048 756.053 48.4292 766.79 48.4294C766.921 48.4294 767.051 48.4329 767.18 48.4401C767.309 48.4329 767.439 48.4294 767.569 48.4294C773.242 48.4293 777.436 45.9802 781.664 41.4128C784.764 38.0644 787.337 34.2531 790.277 29.8991C791.768 27.6911 793.353 25.3432 795.149 22.8454C800.114 15.9415 806.33 8.56465 815.367 4.11785C824.642 -0.445679 835.956 -1.49303 850.281 2.3786C853.309 3.19686 855.398 5.96157 855.359 9.09735C855.32 12.233 853.163 14.9442 850.116 15.6872C838.517 18.5156 834.233 27.0184 834.821 34.3278C835.407 41.6048 840.797 48.4292 851.534 48.4294C851.665 48.4294 851.795 48.4329 851.924 48.4401C852.053 48.4329 852.183 48.4294 852.313 48.4294C857.987 48.4293 862.18 45.9802 866.408 41.4128C869.508 38.0644 872.081 34.2532 875.021 29.8991C876.512 27.6911 878.098 25.3432 879.894 22.8454C884.858 15.9415 891.074 8.56466 900.111 4.11785C909.386 -0.445679 920.7 -1.49303 935.025 2.3786C938.053 3.19682 940.142 5.96153 940.104 9.09735C940.065 12.233 937.907 14.9442 934.86 15.6872C923.261 18.5156 918.977 27.0184 919.565 34.3278C920.152 41.6048 925.541 48.4292 936.278 48.4294C936.409 48.4294 936.539 48.4329 936.668 48.4401C936.797 48.4329 936.927 48.4294 937.058 48.4294C942.731 48.4293 946.924 45.9802 951.152 41.4128C954.252 38.0644 956.826 34.2532 959.766 29.8991L959.771 29.8913C961.26 27.6855 962.844 25.3404 964.638 22.8454C969.602 15.9415 975.818 8.56467 984.855 4.11785C994.13 -0.445679 1005.44 -1.49303 1019.77 2.3786C1022.8 3.19682 1024.89 5.96153 1024.85 9.09735C1024.81 12.233 1022.65 14.9443 1019.6 15.6872C1008.01 18.5156 1003.72 27.0184 1004.31 34.3278C1004.9 41.6048 1010.29 48.4292 1021.02 48.4294C1021.15 48.4294 1021.28 48.4329 1021.41 48.4401C1021.54 48.4329 1021.67 48.4294 1021.8 48.4294C1027.47 48.4294 1031.67 45.9802 1035.9 41.4128C1039 38.0644 1041.57 34.2532 1044.51 29.8991L1044.51 29.8913C1046 27.6855 1047.59 25.3403 1049.38 22.8454C1054.35 15.9415 1060.56 8.56468 1069.6 4.11785C1078.87 -0.445679 1090.19 -1.49303 1104.51 2.3786C1107.54 3.19682 1109.63 5.96153 1109.59 9.09735C1109.55 12.233 1107.4 14.9443 1104.35 15.6872C1092.75 18.5156 1088.46 27.0184 1089.05 34.3278C1089.64 41.6049 1095.03 48.4294 1105.77 48.4294C1105.83 48.4294 1105.89 48.4306 1105.96 48.4323C1106.02 48.4341 1106.09 48.4364 1106.16 48.4401C1106.25 48.4348 1106.35 48.4318 1106.44 48.4304C1106.48 48.4298 1106.51 48.4294 1106.55 48.4294C1112.22 48.4294 1116.41 45.9802 1120.64 41.4128C1123.74 38.0643 1126.31 34.2532 1129.25 29.8991C1130.74 27.6911 1132.33 25.3433 1134.13 22.8454C1139.09 15.9415 1145.31 8.56468 1154.34 4.11785C1163.62 -0.445663 1174.93 -1.49298 1189.26 2.3786C1192.29 3.1968 1194.37 5.9615 1194.34 9.09735C1194.3 12.233 1192.14 14.9443 1189.09 15.6872C1177.49 18.5156 1173.21 27.0184 1173.8 34.3278C1174.38 41.6049 1179.77 48.4294 1190.51 48.4294C1190.57 48.4294 1190.63 48.4299 1190.68 48.4313C1190.76 48.4331 1190.83 48.4361 1190.9 48.4401C1191.03 48.4329 1191.16 48.4294 1191.29 48.4294C1196.96 48.4294 1201.16 45.9802 1205.38 41.4128C1208.48 38.0648 1211.06 34.2544 1214 29.9011L1214 29.9001C1215.49 27.6919 1217.07 25.3434 1218.87 22.8454C1223.83 15.9415 1230.05 8.56468 1239.09 4.11785C1248.36 -0.445663 1259.68 -1.49298 1274 2.3786C1277.03 3.1968 1279.12 5.9615 1279.08 9.09735C1279.04 12.233 1276.88 14.9443 1273.84 15.6872C1262.24 18.5157 1257.95 27.0185 1258.54 34.3278C1259.13 41.6049 1264.52 48.4294 1275.26 48.4294C1275.31 48.4294 1275.37 48.43 1275.42 48.4313C1275.46 48.4322 1275.5 48.4337 1275.54 48.4352C1275.57 48.4367 1275.61 48.4381 1275.64 48.4401L1275.7 48.4372C1275.74 48.4354 1275.78 48.4335 1275.82 48.4323L1275.89 48.4313C1275.93 48.4303 1275.98 48.4294 1276.03 48.4294C1281.71 48.4294 1285.9 45.9802 1290.13 41.4128C1293.23 38.0645 1295.8 34.2539 1298.74 29.9001L1298.74 29.8962L1298.75 29.8884L1298.76 29.8786C1300.24 27.6766 1301.82 25.3354 1303.62 22.8454C1308.58 15.9416 1314.8 8.56462 1323.83 4.11785C1333.11 -0.445651 1344.42 -1.49295 1358.75 2.3786C1361.77 3.1968 1363.86 5.9615 1363.82 9.09735C1363.79 12.233 1361.63 14.9443 1358.58 15.6872C1346.98 18.5157 1342.7 27.0185 1343.29 34.3278C1343.87 41.6049 1349.26 48.4294 1360 48.4294C1360.06 48.4294 1360.13 48.4306 1360.19 48.4323C1360.26 48.4341 1360.32 48.4364 1360.39 48.4401C1360.52 48.4329 1360.65 48.4294 1360.78 48.4294C1366.45 48.4294 1370.64 45.9802 1374.87 41.4128C1377.97 38.0645 1380.55 34.2539 1383.49 29.9001C1384.98 27.6919 1386.56 25.3435 1388.36 22.8454C1393.32 15.9417 1399.54 8.56462 1408.58 4.11785C1417.85 -0.445639 1429.16 -1.49291 1443.49 2.3786C1446.52 3.1968 1448.61 5.9615 1448.57 9.09735C1448.53 12.233 1446.37 14.9443 1443.33 15.6872C1431.73 18.5157 1427.44 27.0185 1428.03 34.3278C1428.62 41.6049 1434.01 48.4294 1444.74 48.4294C1444.87 48.4294 1445.01 48.4329 1445.13 48.4401C1445.2 48.4362 1445.28 48.4331 1445.35 48.4313C1445.41 48.4299 1445.46 48.4294 1445.52 48.4294C1451.2 48.4294 1455.39 45.9802 1459.62 41.4128C1462.72 38.0645 1465.29 34.2539 1468.23 29.9001L1468.23 29.8962C1469.72 27.689 1471.31 25.3421 1473.1 22.8454C1478.07 15.9416 1484.28 8.56462 1493.32 4.11785C1502.59 -0.445639 1513.91 -1.49291 1528.23 2.3786C1531.26 3.1968 1533.35 5.9615 1533.31 9.09735C1533.27 12.2329 1531.12 14.9441 1528.07 15.6872C1516.47 18.5156 1512.19 27.0184 1512.77 34.3278C1513.36 41.6049 1518.75 48.4294 1529.49 48.4294C1529.62 48.4294 1529.75 48.4329 1529.88 48.4401C1530.01 48.4329 1530.14 48.4294 1530.27 48.4294C1535.94 48.4294 1540.13 45.9801 1544.36 41.4128C1547.46 38.0645 1550.03 34.2538 1552.97 29.9001L1552.98 29.8962C1554.47 27.689 1556.05 25.3421 1557.85 22.8454C1562.81 15.9417 1569.03 8.56464 1578.06 4.11785C1587.34 -0.445679 1598.65 -1.49303 1612.98 2.3786C1616.01 3.19694 1618.1 5.96165 1618.06 9.09735C1618.02 12.2329 1615.86 14.9441 1612.81 15.6872C1601.22 18.5156 1596.93 27.0184 1597.52 34.3278C1598.1 41.6049 1603.5 48.4294 1614.23 48.4294H1614.31C1614.35 48.4298 1614.38 48.4313 1614.42 48.4323L1614.48 48.4333C1614.53 48.435 1614.57 48.4374 1614.62 48.4401C1614.7 48.4358 1614.78 48.4331 1614.86 48.4313C1614.91 48.4302 1614.96 48.4294 1615.01 48.4294C1620.68 48.4294 1624.88 45.9802 1629.11 41.4128C1632.21 38.0646 1634.78 34.2538 1637.72 29.9001L1637.73 29.8864C1639.22 27.6822 1640.8 25.3384 1642.59 22.8454C1647.56 15.9415 1653.77 8.56463 1662.81 4.11785C1672.08 -0.445578 1683.4 -1.49299 1697.72 2.3786C1700.75 3.1969 1702.84 5.96161 1702.8 9.09735C1702.76 12.2329 1700.6 14.9441 1697.56 15.6872C1685.96 18.5156 1681.68 27.0184 1682.26 34.3278C1682.85 41.6049 1688.24 48.4294 1698.98 48.4294C1699.11 48.4294 1699.24 48.4329 1699.37 48.4401C1699.5 48.4329 1699.63 48.4294 1699.76 48.4294C1705.43 48.4292 1709.62 45.9801 1713.85 41.4128C1716.95 38.0652 1719.52 34.2548 1722.46 29.902L1722.46 29.9001L1722.47 29.8864C1723.96 27.6822 1725.54 25.3384 1727.34 22.8454C1732.3 15.9415 1738.52 8.56463 1747.55 4.11785C1756.83 -0.445578 1768.14 -1.49299 1782.47 2.3786C1785.49 3.1969 1787.58 5.96161 1787.54 9.09735C1787.51 12.2329 1785.35 14.9442 1782.3 15.6872C1770.7 18.5156 1766.42 27.0184 1767.01 34.3278C1767.59 41.6049 1772.98 48.4294 1783.72 48.4294C1783.85 48.4294 1783.98 48.4329 1784.11 48.4401C1784.24 48.4329 1784.37 48.4294 1784.5 48.4294C1790.17 48.4292 1794.37 45.9801 1798.59 41.4128C1801.69 38.0652 1804.27 34.2548 1807.21 29.902L1807.21 29.9001C1808.7 27.6919 1810.28 25.3435 1812.08 22.8454C1817.04 15.9415 1823.26 8.56464 1832.3 4.11785C1841.57 -0.445619 1852.89 -1.49301 1867.21 2.3786C1870.24 3.19686 1872.33 5.96157 1872.29 9.09735C1872.25 12.233 1870.09 14.9442 1867.05 15.6872C1855.45 18.5156 1851.16 27.0184 1851.75 34.3278C1852.34 41.6049 1857.73 48.4293 1868.46 48.4294C1868.52 48.4294 1868.58 48.43 1868.63 48.4313C1868.71 48.4331 1868.78 48.436 1868.85 48.4401C1868.98 48.4329 1869.11 48.4294 1869.24 48.4294C1874.92 48.4293 1879.11 45.9801 1883.34 41.4128C1886.44 38.0651 1889.01 34.2548 1891.95 29.902L1891.95 29.9001C1893.44 27.6919 1895.03 25.3435 1896.82 22.8454C1901.79 15.9415 1908 8.56465 1917.04 4.11785C1926.32 -0.445619 1937.63 -1.49301 1951.96 2.3786C1954.98 3.1969 1957.07 5.96161 1957.03 9.09735C1957 12.233 1954.84 14.9442 1951.79 15.6872C1940.19 18.5156 1935.91 27.0184 1936.5 34.3278C1937.08 41.6048 1942.47 48.4293 1953.21 48.4294C1953.34 48.4294 1953.47 48.4329 1953.6 48.4401L1953.66 48.4372L1953.71 48.4352C1953.75 48.4339 1953.78 48.4322 1953.82 48.4313C1953.85 48.4305 1953.89 48.4297 1953.92 48.4294H1953.99C1959.66 48.4293 1963.85 45.9801 1968.08 41.4128C1971.18 38.0651 1973.75 34.2548 1976.69 29.902L1976.7 29.9001C1978.19 27.6919 1979.77 25.3435 1981.57 22.8454C1986.53 15.9415 1992.75 8.56465 2001.79 4.11785C2011.06 -0.44566 2022.37 -1.49302 2036.7 2.3786C2039.73 3.19686 2041.82 5.96157 2041.78 9.09735C2041.74 12.233 2039.58 14.9442 2036.54 15.6872C2024.94 18.5156 2020.65 27.0184 2021.24 34.3278C2021.83 41.6048 2027.22 48.4293 2037.95 48.4294C2038.01 48.4294 2038.07 48.4298 2038.13 48.4313L2038.21 48.4343C2038.25 48.4359 2038.3 48.4376 2038.34 48.4401C2038.41 48.4366 2038.47 48.4341 2038.53 48.4323C2038.6 48.4304 2038.67 48.4294 2038.73 48.4294C2044.41 48.4293 2048.6 45.9802 2052.83 41.4128C2055.93 38.0651 2058.5 34.2548 2061.44 29.902L2061.44 29.9001C2062.93 27.6919 2064.52 25.3435 2066.31 22.8454C2071.28 15.9415 2077.49 8.56465 2086.53 4.11785C2095.8 -0.44566 2107.12 -1.49302 2121.44 2.3786C2124.47 3.19686 2126.56 5.96157 2126.52 9.09735C2126.48 12.233 2124.33 14.9442 2121.28 15.6872C2109.68 18.5156 2105.4 27.0184 2105.98 34.3278C2106.57 41.6048 2111.96 48.4293 2122.7 48.4294C2122.83 48.4294 2122.96 48.4329 2123.09 48.4401C2123.12 48.438 2123.16 48.4367 2123.2 48.4352C2123.29 48.4316 2123.38 48.4294 2123.48 48.4294C2129.15 48.4293 2133.34 45.9802 2137.57 41.4128C2140.67 38.0651 2143.24 34.2548 2146.18 29.902L2146.18 29.9001C2147.68 27.6919 2149.26 25.3435 2151.06 22.8454C2156.02 15.9415 2162.24 8.56468 2171.27 4.11785C2180.55 -0.445675 2191.86 -1.49302 2206.19 2.3786C2209.22 3.1968 2211.31 5.9615 2211.27 9.09735C2211.23 12.233 2209.07 14.9442 2206.02 15.6872C2194.42 18.5156 2190.14 27.0184 2190.73 34.3278C2191.31 41.6049 2196.71 48.4294 2207.44 48.4294C2207.57 48.4294 2207.7 48.4329 2207.83 48.4401C2207.96 48.4329 2208.09 48.4294 2208.22 48.4294C2213.89 48.4294 2218.09 45.9802 2222.32 41.4128C2225.41 38.0651 2227.99 34.2548 2230.93 29.902L2230.93 29.9001C2232.42 27.6919 2234 25.3435 2235.8 22.8454C2240.76 15.9415 2246.98 8.56468 2256.02 4.11785C2265.29 -0.445675 2276.61 -1.49302 2290.93 2.3786C2293.96 3.1968 2296.05 5.9615 2296.01 9.09735C2295.97 12.233 2293.81 14.9442 2290.77 15.6872C2279.17 18.5156 2274.88 27.0184 2275.47 34.3278C2276.06 41.6049 2281.45 48.4294 2292.19 48.4294C2292.32 48.4294 2292.45 48.4329 2292.58 48.4401C2292.65 48.436 2292.72 48.4331 2292.8 48.4313L2292.87 48.4304L2292.96 48.4294C2298.64 48.4294 2302.83 45.9802 2307.06 41.4128C2310.16 38.0643 2312.73 34.2532 2315.67 29.8991C2317.16 27.6911 2318.75 25.3432 2320.54 22.8454C2325.51 15.9415 2331.73 8.56468 2340.76 4.11785C2350.04 -0.445679 2361.35 -1.49302 2375.68 2.3786C2378.7 3.1968 2380.79 5.9615 2380.75 9.09735C2380.72 12.233 2378.56 14.9442 2375.51 15.6872C2363.91 18.5155 2359.63 27.0176 2360.22 34.3268C2360.8 41.6041 2366.19 48.4294 2376.93 48.4294C2377.06 48.4294 2377.19 48.4329 2377.32 48.4401C2377.45 48.4329 2377.58 48.4294 2377.71 48.4294C2383.38 48.4294 2387.58 45.9802 2391.8 41.4128C2394.9 38.0645 2397.48 34.2539 2400.42 29.9001L2400.42 29.8962C2401.91 27.689 2403.49 25.3421 2405.29 22.8454C2410.25 15.9415 2416.47 8.56468 2425.51 4.11785Z" fill="url(#paint1_linear_4007_632)"/>
<defs>
<linearGradient id="paint0_linear_4007_632" x1="1235.27" y1="-4.66779e-10" x2="1235.27" y2="999.999" gradientUnits="userSpaceOnUse">
<stop stop-color="#EAEAEA"/>
<stop offset="1" stop-color="#848484"/>
</linearGradient>
<linearGradient id="paint1_linear_4007_632" x1="187.262" y1="-34.7154" x2="1450.71" y2="1503.77" gradientUnits="userSpaceOnUse">
<stop stop-color="#C62D80"/>
<stop offset="1" stop-color="#FFEE6B"/>
</linearGradient>
</defs>
</svg>
