<svg width="745" height="719" viewBox="0 0 745 719" fill="none" xmlns="http://www.w3.org/2000/svg">
<path d="M710.5 330.228C684.425 305.445 649.695 292.13 614.966 283.308C594.018 277.85 572.739 274.018 551.239 271.234C560.804 261.392 569.707 251.827 577.645 242.702C569.211 231.758 560.583 220.648 551.818 209.732C574.255 185.858 588.119 154.156 594.624 121.792C602.617 81.792 600.054 40.4687 596.057 0C572.573 6.6437 549.062 13.1496 525.578 19.7933C500.054 26.878 474.227 34.1558 451.377 47.4983C436.934 55.8236 413.864 71.4543 408.985 88.5459C408.406 90.8616 407.993 93.1772 407.882 95.2724C342.364 72.6672 266.565 80.0828 206.229 114.79C205.595 115.203 204.768 115.672 204.134 116.086C203.693 115.259 203.225 114.294 202.783 113.467C194.129 97.8637 167.833 88.3805 151.819 83.7217C126.461 76.3888 99.6415 75.4515 73.1531 74.4867C48.7595 73.6045 24.3936 72.9153 0 72.0607C5.76074 112.474 13.0926 153.081 30.3748 190.021C43.4949 218.277 63.1476 244.521 88.5335 262.275C83.4618 277.63 79.7959 293.343 77.5632 309.415C130.953 346.52 189.994 378.581 254.134 389.58C318.274 400.579 386.686 392.475 443.108 359.973C450.881 355.397 458.93 350.242 467.254 344.397C473.014 344.728 478.61 345.114 484.233 345.638C528.72 349.111 574.31 357.492 611.355 382.688C620.974 389.167 630.126 397.244 634.701 407.967C639.111 418.719 637.678 432.585 628.665 439.918C623.758 443.805 617.529 445.431 611.438 446.672C463.45 479.642 307.193 445.597 158.517 475.728C131.257 481.269 104.107 489.07 80.3471 503.571C56.5875 518.071 36.3009 539.601 28.0595 566.093C14.2778 609.925 36.4112 659.656 73.3736 686.92C110.336 714.212 158.792 721.875 204.465 718.099C224.751 716.527 249.421 708.34 252.205 688.216C254.244 673.578 242.805 660.538 231.394 651C204.189 628.257 171.361 612.103 136.935 604.301C127.122 602.013 115.518 599.256 111.439 590.021C105.457 576.513 120.176 563.281 133.407 556.472C205.292 519.67 288.34 510.683 369.046 509.608C449.916 508.505 530.98 514.68 611.3 505.831C638.174 502.771 665.159 497.947 689.194 485.845C713.229 473.743 734.177 453.343 741.978 427.402C751.9 393.247 736.355 355.038 710.473 330.228" fill="url(#paint0_linear_6303_15449)"/>
<path d="M406.135 688.784C405.716 688.747 405.546 688.28 405.625 687.382C405.677 686.784 405.862 686.047 406.18 685.17C406.552 684.359 406.998 683.403 407.516 682.303C408.031 681.926 408.318 681.408 408.375 680.75C408.49 680.82 408.549 680.826 408.555 680.766C408.625 680.651 408.66 680.594 408.66 680.594C408.795 680.425 408.871 680.251 408.887 680.071C408.908 679.832 408.956 679.625 409.031 679.451L409.047 679.271C408.86 678.652 408.785 678.133 408.822 677.714L408.65 677.609C408.562 677.239 408.506 676.843 408.483 676.419C408.519 676 408.583 675.614 408.675 675.26C408.766 674.906 408.752 674.724 408.632 674.713C408.577 674.648 408.555 674.556 408.566 674.436C408.576 674.317 408.584 674.227 408.589 674.167C408.66 674.053 408.735 673.878 408.816 673.644C408.886 673.53 408.994 673.328 409.14 673.04C409.351 672.696 409.459 672.495 409.464 672.435C409.475 672.315 409.453 672.223 409.398 672.158C409.349 672.033 409.327 671.941 409.332 671.881L409.633 671.545L409.687 670.917C409.758 670.803 409.801 670.656 409.816 670.476C409.887 670.362 409.984 670.28 410.109 670.231C410.239 670.121 410.337 670.039 410.402 669.985C410.532 669.876 410.635 669.734 410.71 669.56C410.851 669.331 410.956 669.159 411.027 669.045C411.097 668.93 411.165 668.846 411.23 668.791C411.36 668.682 411.463 668.54 411.538 668.366C411.674 668.197 411.776 668.055 411.847 667.941C411.922 667.767 412.028 667.595 412.163 667.426L412.838 666.942C413.099 666.724 413.348 666.625 413.588 666.646C413.827 666.667 413.955 666.92 413.973 667.403L413.844 667.844L412.275 669.244C412.145 669.354 412.072 669.498 412.056 669.677C411.991 669.732 411.926 669.787 411.861 669.841C411.856 669.901 411.818 669.988 411.748 670.103C411.738 670.222 411.635 670.364 411.44 670.528L411.1 671.312C410.98 671.302 410.915 671.356 410.904 671.476C410.839 671.53 410.748 671.884 410.631 672.537C410.578 673.135 410.547 673.494 410.537 673.614L410.806 673.638C410.801 673.697 410.793 673.787 410.782 673.907C410.837 673.972 410.829 674.062 410.759 674.176L410.712 674.715C410.701 674.834 410.661 674.951 410.59 675.066C410.59 675.066 410.558 675.093 410.493 675.148C410.493 675.148 410.49 675.178 410.485 675.237C410.48 675.297 410.502 675.39 410.551 675.514C410.606 675.579 410.628 675.672 410.617 675.792C410.612 675.851 410.577 675.909 410.512 675.963C410.512 675.963 410.509 675.993 410.504 676.053C410.499 676.113 410.523 676.175 410.578 676.24C410.638 676.245 410.665 676.278 410.66 676.338L410.652 676.428C411.209 675.572 411.739 674.684 412.242 673.763C412.804 672.848 413.366 671.932 413.929 671.017C414.069 670.788 414.194 670.739 414.303 670.869C414.477 670.944 414.6 670.925 414.67 670.81C414.735 670.756 414.778 670.609 414.799 670.37C414.815 670.19 414.8 670.008 414.756 669.823C414.772 669.644 414.88 669.442 415.081 669.219L416.533 667.085C418.54 664.125 420.537 661.286 422.523 658.565C424.569 655.851 426.438 653.783 428.129 652.364L428.414 652.208L428.722 651.783C428.722 651.783 428.785 651.758 428.91 651.709C429.035 651.659 429.122 651.697 429.171 651.822C429.166 651.882 429.096 651.996 428.96 652.165C428.885 652.339 428.844 652.456 428.839 652.516C428.992 652.831 429.199 652.879 429.459 652.661C429.53 652.547 429.553 652.277 429.53 651.853C429.507 651.429 429.525 651.22 429.585 651.225C429.71 651.176 429.77 651.181 429.764 651.241C429.819 651.306 429.876 651.341 429.936 651.346C430.056 651.357 430.123 651.272 430.139 651.093C430.155 650.913 430.195 650.796 430.26 650.742C430.939 650.56 431.548 650.492 432.086 650.54C432.385 650.566 432.791 650.752 433.303 651.098C433.875 651.45 434.138 651.895 434.091 652.433C434.065 652.732 433.884 653.078 433.548 653.471C433.483 653.525 433.412 653.64 433.337 653.814C433.267 653.929 433.166 654.04 433.036 654.15C432.971 654.204 432.909 654.229 432.849 654.224C432.854 654.164 432.794 654.159 432.67 654.208C432.604 654.263 432.512 654.285 432.392 654.274C432.338 654.209 432.251 654.171 432.131 654.161C432.011 654.15 431.974 654.237 432.018 654.422C432.122 654.612 432.141 654.734 432.076 654.789C432.011 654.844 431.951 654.838 431.897 654.773C431.842 654.708 431.75 654.73 431.62 654.84C431.555 654.894 431.579 654.957 431.694 655.027C431.873 655.043 431.898 655.105 431.768 655.214C431.377 655.542 430.895 655.891 430.32 656.263C429.81 656.58 429.3 656.897 428.79 657.215C428.725 657.269 428.665 657.264 428.61 657.199C428.561 657.074 428.504 657.039 428.439 657.093L427.732 657.936C427.081 658.482 426.428 659.058 425.772 659.664C425.117 660.269 424.423 660.962 423.692 661.742C423.481 662.086 423.243 662.396 422.977 662.675C422.712 662.953 422.372 663.044 421.959 662.947C421.953 663.007 422.005 663.102 422.115 663.232C422.229 663.303 422.218 663.422 422.083 663.591C420.941 664.938 419.793 666.345 418.64 667.812C417.486 669.278 416.388 670.81 415.344 672.407C414.863 673.088 414.273 673.971 413.575 675.056L412.626 676.6C412.551 676.775 412.453 676.856 412.334 676.846C412.279 676.781 412.192 676.743 412.072 676.733C412.22 677.107 412.216 677.499 412.06 677.907C412.12 677.913 412.147 677.945 412.142 678.005C413.21 678.882 413.971 679.491 414.423 679.832C414.935 680.179 415.807 680.556 417.037 680.965C417.505 681.127 417.97 681.318 418.433 681.54C418.901 681.701 419.405 681.805 419.943 681.853C420.003 681.858 420 681.888 419.935 681.942C419.93 682.002 419.957 682.035 420.017 682.04C420.256 682.061 420.493 682.112 420.727 682.192C420.966 682.213 421.206 682.234 421.445 682.255C421.505 682.261 421.535 682.263 421.535 682.263C421.6 682.209 421.662 682.184 421.722 682.189C421.842 682.2 422.016 682.275 422.245 682.416C422.663 682.452 423.112 682.492 423.591 682.533C424.129 682.581 424.61 682.593 425.034 682.569C425.518 682.551 425.972 682.531 426.396 682.508C426.885 682.43 427.342 682.379 427.766 682.356C428.608 682.37 429.429 682.291 430.228 682.119C431.091 681.893 431.922 681.695 432.721 681.524C433.645 681.303 434.631 681.058 435.679 680.788C436.792 680.463 437.941 680.081 439.125 679.642C439.25 679.593 439.296 679.748 439.265 680.107C439.299 680.411 439.378 680.538 439.503 680.489C439.628 680.44 439.798 680.213 440.014 679.81C440.29 679.412 440.461 679.186 440.526 679.132L441.428 678.125L442.216 677.38C442.351 677.211 442.492 676.983 442.638 676.694C442.784 676.405 442.894 676.174 442.97 675.999C443.191 675.536 443.385 675.041 443.552 674.513C443.719 673.985 443.828 673.422 443.881 672.823C443.907 672.524 444.069 672.388 444.369 672.414C444.668 672.44 444.804 672.603 444.778 672.902C444.752 673.201 444.723 673.53 444.692 673.889C444.66 674.248 444.572 674.572 444.426 674.861C444.421 674.921 444.358 674.945 444.238 674.935C444.184 674.87 444.154 674.867 444.149 674.927C444.052 675.34 443.953 675.784 443.852 676.257C443.755 676.671 443.569 677.077 443.293 677.475L442.676 678.325C443.99 677.777 445.247 677.193 446.446 676.575C447.71 675.902 448.803 675.123 449.725 674.239L450.611 673.412C450.681 673.298 450.779 673.216 450.904 673.167C451.028 673.117 451.11 673.215 451.149 673.459C450.954 673.623 450.903 673.86 450.997 674.169C451.301 674.136 451.504 673.882 451.606 673.409C451.713 672.876 451.844 672.405 452 671.996C452.596 671.385 453.198 670.715 453.804 669.984C453.869 669.929 453.962 669.907 454.081 669.918C454.321 669.939 454.527 669.987 454.701 670.062C454.876 670.138 455.063 670.064 455.263 669.84C455.17 669.531 455.069 669.311 454.959 669.181C454.856 668.991 454.906 668.754 455.112 668.47L455.42 668.045C455.767 667.533 456.13 667.173 456.51 666.965C456.89 666.757 457.173 666.269 457.361 665.502C458.676 663.567 459.438 661.403 459.647 659.01C459.888 656.258 459.243 653.639 457.712 651.154C456.246 648.614 453.805 646.893 450.388 645.991C450.268 645.981 449.917 645.86 449.334 645.628C448.817 645.341 448.498 645.193 448.379 645.182C448.259 645.172 448.139 645.161 448.02 645.151C447.905 645.081 447.788 645.04 447.669 645.03C447.429 645.009 447.247 645.023 447.122 645.072C447.003 645.062 446.739 644.979 446.33 644.822C445.818 644.476 445.146 644.236 444.314 644.103C443.546 643.916 443.106 643.787 442.991 643.716L441.345 643.934C441.045 643.908 440.746 643.882 440.447 643.855C440.213 643.775 439.977 643.724 439.737 643.703C438.361 643.582 437.214 643.603 436.296 643.764C435.443 643.87 434.684 643.924 434.021 643.926L430.311 643.963C429.967 643.752 429.633 643.784 429.308 644.057L429.218 644.049C428.799 644.012 428.375 644.035 427.946 644.118C427.582 644.147 427.185 644.202 426.756 644.285C426.512 644.324 426.24 644.331 425.941 644.305C425.701 644.284 425.427 644.32 425.117 644.413L425.109 644.503C424.865 644.542 424.59 644.578 424.286 644.612C424.047 644.591 423.772 644.627 423.463 644.721L423.373 644.713C423.123 644.812 422.874 644.91 422.624 645.009C422.434 645.113 422.192 645.122 421.898 645.036C421.654 645.075 421.379 645.111 421.075 645.145C420.83 645.184 420.553 645.25 420.244 645.343L420.064 645.328C419.885 645.312 419.721 645.117 419.573 644.742C419.425 644.367 419.356 644.12 419.366 644.001C419.275 644.354 419.151 644.735 418.995 645.144C418.899 645.557 418.671 645.748 418.312 645.717L418.304 645.807C417.88 645.83 417.481 645.916 417.106 646.064C416.732 646.212 416.33 646.327 415.9 646.41C415.656 646.449 415.414 646.458 415.175 646.437C414.941 646.357 414.674 646.303 414.375 646.277C414.255 646.267 414.133 646.286 414.008 646.335C413.889 646.325 413.766 646.344 413.641 646.394C413.457 646.438 413.327 646.547 413.251 646.721C413.235 646.901 413.162 647.045 413.032 647.154C412.772 647.373 412.457 647.526 412.088 647.614C411.718 647.703 411.409 647.796 411.159 647.895C411.034 647.944 410.86 647.869 410.636 647.668C410.473 647.473 410.326 647.43 410.196 647.539C410.131 647.594 410.058 647.738 409.977 647.972C409.956 648.212 409.883 648.356 409.758 648.405L409.668 648.397L407.428 649.196C407.119 649.29 406.744 649.438 406.305 649.64C405.865 649.843 405.493 649.961 405.188 649.995C405.129 649.99 405.109 649.867 405.13 649.628C405.151 649.389 405.096 649.324 404.966 649.433C404.657 649.526 404.299 649.827 403.893 650.334C403.552 650.786 403.224 651.089 402.909 651.243C402.589 651.456 402.28 651.549 401.98 651.523C401.681 651.497 401.402 651.593 401.141 651.811C400.952 651.915 400.748 652.169 400.532 652.572C400.381 652.92 400.208 653.177 400.013 653.34L398.608 654.936C398.477 655.045 398.347 655.154 398.217 655.263C398.087 655.372 398.014 655.517 397.999 655.696C397.587 656.263 397.348 656.936 397.28 657.713C397.164 659.03 397.529 660.026 398.374 660.703C399.284 661.325 400.295 661.836 401.405 662.234L401.495 662.242C401.887 662.578 402.266 662.732 402.63 662.703C402.88 662.604 403.094 662.563 403.274 662.579C403.513 662.6 403.712 662.738 403.87 662.993L405.103 663.372C405.746 663.609 406.059 663.817 406.043 663.997C406.033 664.116 405.873 664.223 405.563 664.316C405.319 664.355 405.047 664.362 404.748 664.335C403.731 664.246 402.493 663.927 401.034 663.377C399.635 662.833 398.406 662.062 397.348 661.065C396.295 660.009 395.739 658.784 395.68 657.393C395.685 657.333 395.609 657.175 395.45 656.92C395.351 656.671 395.28 656.453 395.236 656.269C395.202 655.964 395.166 655.69 395.127 655.445C395.153 655.146 395.177 654.877 395.198 654.637C395.365 652.723 396.267 651.023 397.904 649.539C398.23 649.266 398.517 649.08 398.767 648.981C399.017 648.882 399.331 648.729 399.711 648.521C400.031 648.308 400.197 648.141 400.207 648.022C400.223 647.842 400.421 647.649 400.8 647.441C401.31 647.124 401.97 646.819 402.779 646.529C403.593 646.178 404.25 645.904 404.75 645.706L404.758 645.616L404.937 645.632C405.177 645.653 405.426 645.554 405.686 645.336C406.81 644.892 407.989 644.512 409.222 644.198C410.52 643.83 411.816 643.491 413.109 643.182C413.483 643.034 413.82 642.973 414.119 642.999C414.418 643.025 414.65 643.136 414.814 643.331C414.824 643.211 414.832 643.122 414.837 643.062C414.848 642.942 414.885 642.855 414.95 642.8L414.958 642.711C416.371 642.412 417.783 642.114 419.196 641.815C420.614 641.457 421.981 641.335 423.297 641.451L423.387 641.458C423.745 641.49 424.02 641.454 424.21 641.35L424.756 641.307L424.846 641.315C425.194 641.466 425.529 641.435 425.849 641.222C427.37 641.053 428.822 641 430.203 641.06C431.584 641.121 432.756 641.163 433.718 641.187C433.893 641.262 434.069 641.308 434.249 641.324C434.434 641.279 434.586 641.263 434.705 641.273L435.611 641.262C435.79 641.278 435.967 641.323 436.141 641.399C436.38 641.42 436.592 641.408 436.777 641.364L441.81 641.714L441.9 641.722C442.079 641.737 442.221 641.84 442.325 642.03C442.494 642.166 442.679 642.121 442.879 641.898C443.358 641.94 444.068 642.092 445.009 642.355C446.01 642.624 447.012 642.892 448.013 643.161C449.019 643.369 449.757 643.555 450.225 643.716C451.107 643.974 452.326 644.503 453.884 645.302C455.507 646.047 457.1 647.121 458.666 648.524C460.236 649.867 461.441 651.6 462.28 653.724C463.184 655.792 463.355 658.309 462.794 661.275C462.64 662.347 462.312 663.343 461.81 664.263C461.307 665.184 460.772 666.132 460.204 667.107L459.134 669.003C459.069 669.058 458.972 669.14 458.842 669.249C458.717 669.298 458.589 669.378 458.459 669.487C458.384 669.661 458.281 669.803 458.151 669.912C458.026 669.961 457.896 670.071 457.76 670.24C457.49 670.578 457.189 670.913 456.858 671.246C456.533 671.519 456.203 671.852 455.867 672.244L455.664 672.498C454.711 673.741 453.56 674.846 452.209 675.813C450.864 676.72 449.526 677.538 448.197 678.265L448.189 678.355C448.064 678.405 447.907 678.481 447.717 678.585C447.592 678.634 447.464 678.714 447.334 678.823L447.237 678.905L447.147 678.897C447.022 678.946 446.867 678.993 446.683 679.037C446.498 679.081 446.335 679.218 446.195 679.447C445.94 679.605 445.693 679.674 445.453 679.653C444.639 680.004 443.89 680.3 443.205 680.542C442.526 680.723 441.937 680.913 441.438 681.111C441.427 681.23 441.322 681.402 441.121 681.625C440.921 681.849 440.756 682.016 440.626 682.125C439.535 682.873 438.787 683.501 438.381 684.008C437.975 684.515 437.49 684.895 436.925 685.147C436.86 685.202 436.768 685.224 436.648 685.213C436.409 685.192 436.221 685.266 436.086 685.435C435.951 685.604 435.815 685.773 435.68 685.942C435.355 686.215 434.73 686.462 433.807 686.683C432.943 686.909 432.289 687.153 431.844 687.415C431.659 687.46 431.445 687.501 431.2 687.54C431.01 687.644 430.915 687.696 430.915 687.696L430.467 687.657C430.407 687.651 430.282 687.701 430.092 687.805C429.897 687.969 429.737 688.075 429.612 688.125C429.487 688.174 429.365 688.193 429.245 688.183C429.125 688.172 429.03 688.224 428.96 688.339C428.661 688.313 428.327 688.344 427.957 688.432C427.898 688.427 427.598 688.401 427.06 688.353C426.516 688.366 426.182 688.397 426.057 688.447C425.992 688.501 425.775 688.573 425.406 688.661C425.036 688.749 424.792 688.788 424.672 688.778C424.612 688.772 424.555 688.737 424.5 688.672C424.44 688.667 424.348 688.689 424.223 688.738C424.153 688.853 424.058 688.905 423.938 688.894C423.879 688.889 423.762 688.849 423.587 688.773C423.468 688.763 423.348 688.752 423.228 688.742C423.174 688.677 423.051 688.696 422.862 688.8C422.731 688.909 422.607 688.959 422.487 688.948C422.427 688.943 422.37 688.908 422.315 688.843C422.315 688.843 422.285 688.84 422.226 688.835C422.106 688.824 421.984 688.844 421.859 688.893C421.734 688.943 421.612 688.962 421.492 688.952C421.073 688.915 420.687 688.851 420.333 688.76C419.98 688.669 419.623 688.607 419.264 688.576C419.205 688.571 419.033 688.465 418.749 688.259C418.526 688.059 418.384 687.956 418.324 687.951C417.906 687.914 417.489 687.848 417.076 687.751C416.717 687.72 416.361 687.659 416.007 687.567C415.947 687.562 415.893 687.497 415.843 687.372C415.848 687.312 415.791 687.277 415.672 687.267L415.492 687.251C415.432 687.246 415.288 687.173 415.059 687.032C414.89 686.897 414.778 686.797 414.724 686.732L414.642 686.634C414.408 686.553 414.266 686.45 414.217 686.325C414.227 686.206 414.173 686.141 414.053 686.13C413.993 686.125 413.963 686.122 413.963 686.122C413.958 686.182 413.926 686.21 413.866 686.204C413.746 686.194 413.691 686.129 413.702 686.009C413.533 685.874 413.247 685.698 412.844 685.482C412.501 685.271 412.28 685.041 412.181 684.791C411.947 684.71 411.803 684.637 411.748 684.572C411.753 684.512 411.704 684.387 411.6 684.197L411.257 683.987L410.43 683.1C410.446 682.921 410.424 682.828 410.364 682.823L410.11 682.62C410.131 682.381 410.052 682.253 409.873 682.238C409.784 681.868 409.74 681.683 409.74 681.683C409.097 682.833 408.516 683.958 407.998 685.058C407.54 686.163 407.119 687.182 406.736 688.113C406.575 688.581 406.374 688.805 406.135 688.784ZM422.074 687.465C422.194 687.476 422.286 687.453 422.351 687.399C422.476 687.35 422.571 687.298 422.636 687.243L422.995 687.274C423.435 687.072 423.644 687.09 423.623 687.329C423.602 687.569 423.752 687.582 424.072 687.369L424.521 687.408C424.596 687.234 424.694 687.152 424.813 687.162C424.993 687.178 425.115 687.158 425.18 687.104C425.3 687.114 425.365 687.06 425.375 686.94C425.44 686.885 425.563 686.866 425.742 686.882C425.802 686.887 425.886 686.955 425.996 687.085C426.235 687.106 426.724 687.028 427.463 686.851C428.261 686.68 428.691 686.597 428.75 686.602C428.805 686.667 428.9 686.615 429.035 686.446C429.23 686.283 429.355 686.233 429.41 686.298C429.415 686.238 429.51 686.186 429.695 686.142C429.874 686.158 429.997 686.139 430.062 686.084C430.436 685.936 430.743 685.872 430.982 685.893C431.048 685.839 431.208 685.732 431.463 685.573C431.772 685.48 431.93 685.403 431.935 685.343C432.065 685.234 432.252 685.16 432.497 685.121C432.741 685.082 432.896 685.036 432.961 684.981C433.141 684.997 433.765 684.75 434.834 684.241C435.969 683.677 437.024 682.985 438 682.166C436.951 682.436 435.938 682.649 434.96 682.805C434.047 682.906 433.56 682.954 433.501 682.948C433.371 683.057 433.276 683.109 433.216 683.104C432.987 682.964 432.873 682.893 432.873 682.893L432.775 682.975C432.715 682.97 432.653 682.995 432.588 683.049C432.523 683.104 432.4 683.123 432.221 683.108C432.166 683.043 431.982 683.087 431.667 683.24C431.417 683.339 431.262 683.385 431.202 683.38C431.143 683.375 431.05 683.397 430.925 683.446C430.865 683.441 430.778 683.403 430.664 683.333C430.404 683.552 429.76 683.676 428.732 683.707C427.77 683.683 427.139 683.658 426.84 683.632L426.75 683.624C426.696 683.559 426.606 683.551 426.481 683.6C426.421 683.595 426.332 683.587 426.212 683.577C426.207 683.637 426.172 683.694 426.107 683.748L425.568 683.701C425.329 683.68 425.087 683.689 424.842 683.728C424.658 683.772 424.446 683.784 424.206 683.763L424.125 683.665C424.065 683.66 423.972 683.682 423.848 683.732C423.723 683.781 423.63 683.803 423.57 683.798C423.511 683.793 423.453 683.757 423.399 683.692C423.409 683.573 423.355 683.508 423.235 683.497C423.175 683.492 423.08 683.544 422.95 683.653C422.885 683.708 422.825 683.702 422.771 683.637L422.412 683.606C422.232 683.59 422.143 683.582 422.143 683.582C422.083 683.577 422.02 683.602 421.955 683.656C421.955 683.656 421.925 683.654 421.866 683.649C421.866 683.649 421.811 683.584 421.702 683.453C421.642 683.448 421.517 683.498 421.327 683.602C421.202 683.651 421.083 683.64 420.968 683.57L420.789 683.554C420.68 683.424 420.625 683.359 420.625 683.359C420.565 683.354 420.533 683.381 420.527 683.441L419.72 683.37C419.361 683.339 419.012 683.188 418.674 682.917C418.336 682.647 418.018 682.498 417.719 682.472C417.659 682.467 417.596 682.491 417.531 682.546C417.531 682.546 417.501 682.543 417.442 682.538C417.382 682.533 417.322 682.528 417.262 682.522C417.267 682.463 417.24 682.43 417.18 682.425C417.18 682.425 417.15 682.422 417.091 682.417C417.091 682.417 417.058 682.444 416.993 682.499C416.998 682.439 416.971 682.406 416.911 682.401C416.916 682.341 416.919 682.311 416.919 682.311L416.127 682.061C416.143 681.882 416.091 681.787 415.971 681.776C415.927 681.592 415.554 681.378 414.852 681.136C414.149 680.894 413.741 680.737 413.627 680.667C413.567 680.662 413.453 680.591 413.284 680.456C413.174 680.326 413.117 680.291 413.112 680.351L413.022 680.343C412.843 680.327 412.614 680.186 412.336 679.921C412.123 679.601 411.899 679.4 411.665 679.32C411.501 679.124 411.427 678.937 411.443 678.758L411.353 678.75L411.256 678.832L411.029 679.354C411.024 679.414 411.043 679.537 411.087 679.721C411.131 679.906 411.118 680.056 411.048 680.17C411.157 680.3 411.204 680.455 411.188 680.634C411.178 680.754 411.23 680.849 411.344 680.919C411.388 681.104 411.432 681.289 411.477 681.474C411.58 681.664 411.655 681.851 411.699 682.036C411.693 682.095 411.832 682.228 412.116 682.434C412.405 682.58 412.544 682.712 412.533 682.832C412.588 682.897 412.642 682.962 412.697 683.027C412.811 683.098 412.863 683.193 412.853 683.312C412.907 683.377 412.959 683.472 413.009 683.597C413.058 683.722 413.078 683.844 413.067 683.964C413.187 683.975 413.274 684.012 413.328 684.077C413.378 684.202 413.512 684.395 413.73 684.655C413.943 684.975 414.107 685.17 414.221 685.241C414.281 685.246 414.314 685.219 414.319 685.159C414.319 685.159 414.349 685.161 414.409 685.167C414.523 685.237 414.662 685.37 414.826 685.565C414.984 685.82 415.094 685.95 415.153 685.955C415.273 685.966 415.333 685.971 415.333 685.971C415.806 686.073 416.28 686.174 416.753 686.276C417.221 686.438 417.692 686.569 418.165 686.671C418.225 686.676 418.312 686.714 418.426 686.784C418.536 686.914 418.68 686.987 418.859 687.003C419.333 687.105 419.898 687.184 420.557 687.242C421.274 687.305 421.753 687.347 421.992 687.367L422.074 687.465Z" fill="#FF7DBC"/>
<path d="M463.521 674.813C463.102 674.776 462.746 674.715 462.452 674.629C462.158 674.543 462.044 674.473 462.109 674.418C462.179 674.304 462.189 674.184 462.14 674.059C462.096 673.874 462.076 673.752 462.082 673.692C462.092 673.573 462.198 673.401 462.398 673.177C462.658 672.959 462.831 672.703 462.917 672.409C463.216 672.435 463.529 672.312 463.854 672.039C463.843 672.158 463.893 672.283 464.002 672.413C464.007 672.354 464.042 672.296 464.107 672.242C464.107 672.242 464.165 672.277 464.279 672.347C464.459 672.363 464.546 672.401 464.54 672.461C464.79 672.362 465.007 672.29 465.192 672.246C465.377 672.202 465.591 672.161 465.836 672.122C465.896 672.127 465.893 672.157 465.828 672.211C465.823 672.271 465.848 672.334 465.902 672.399L466.179 672.333C466.174 672.392 466.506 672.391 467.174 672.329C467.843 672.267 468.207 672.239 468.267 672.244L468.626 672.275C469.104 672.317 469.468 672.289 469.718 672.19C469.783 672.135 469.955 672.241 470.233 672.506C470.576 672.717 470.783 672.766 470.853 672.651C470.978 672.602 471.282 672.568 471.766 672.55C472.31 672.537 472.634 672.626 472.738 672.816C472.803 672.761 472.895 672.739 473.015 672.75C473.113 673 473.128 673.182 473.057 673.296C472.992 673.351 472.987 673.411 473.042 673.476C473.161 673.486 473.254 673.464 473.319 673.409C473.384 673.355 473.444 673.36 473.498 673.425C473.558 673.43 473.59 673.403 473.596 673.343C473.601 673.283 473.636 673.226 473.701 673.172C473.881 673.187 474.06 673.203 474.24 673.219C474.419 673.234 474.631 673.223 474.876 673.184C474.974 673.434 475.054 673.561 475.113 673.566C475.233 673.577 475.418 673.533 475.667 673.434C475.982 673.281 476.167 673.237 476.222 673.302C476.222 673.302 476.331 673.432 476.549 673.692C476.679 673.583 476.744 673.528 476.744 673.528C477.043 673.554 477.375 673.553 477.739 673.525C478.168 673.442 478.41 673.433 478.465 673.498C478.585 673.508 478.612 673.541 478.547 673.595C478.482 673.65 478.477 673.71 478.531 673.775C478.591 673.78 478.623 673.753 478.629 673.693C478.694 673.638 478.756 673.614 478.816 673.619C478.93 673.689 478.985 673.754 478.98 673.814C478.98 673.814 479.007 673.847 479.062 673.912C479.262 673.688 479.49 673.497 479.745 673.339C480.06 673.185 480.421 673.187 480.829 673.343C480.949 673.353 480.976 673.386 480.911 673.441C480.851 673.435 480.851 673.435 480.911 673.441C481.613 673.683 481.959 673.864 481.949 673.984C481.933 674.163 481.681 674.292 481.192 674.37C480.703 674.447 480.428 674.484 480.368 674.478C480.314 674.413 480.287 674.381 480.287 674.381C480.346 674.386 480.376 674.389 480.376 674.389L480.197 674.373C480.077 674.362 479.773 674.396 479.284 674.474C478.8 674.492 478.406 674.518 478.101 674.551C477.917 674.595 477.637 674.692 477.262 674.84C476.893 674.928 476.649 674.967 476.529 674.956C476.469 674.951 476.284 674.995 475.975 675.089C475.67 675.122 475.458 675.134 475.339 675.124C475.284 675.058 475.287 675.029 475.347 675.034C475.412 674.979 475.387 674.917 475.273 674.846C475.213 674.841 475.178 674.898 475.167 675.018C475.222 675.083 475.189 675.11 475.07 675.1C474.95 675.089 474.77 675.074 474.531 675.053C474.357 674.977 474.18 674.932 474.001 674.916C473.522 674.874 473.183 674.965 472.982 675.189L472.803 675.173C472.743 675.168 472.686 675.133 472.631 675.067C472.582 674.943 472.497 674.875 472.378 674.864C472.138 674.844 471.921 674.915 471.726 675.079C471.656 675.193 471.379 675.259 470.895 675.277C470.471 675.301 469.96 675.286 469.361 675.234C468.644 675.171 467.928 675.078 467.216 674.955C466.503 674.833 466.06 674.734 465.885 674.658C465.825 674.653 465.76 674.708 465.69 674.822C465.685 674.882 465.625 674.877 465.511 674.806C465.451 674.801 465.451 674.801 465.511 674.806C465.576 674.752 465.548 674.719 465.429 674.709C465.369 674.703 465.241 674.783 465.046 674.947C465.111 674.892 465.117 674.832 465.062 674.767C464.877 674.811 464.633 674.85 464.328 674.884C464.089 674.863 463.82 674.839 463.521 674.813Z" fill="#FF7DBC"/>
<path d="M503.111 693.56C502.931 693.544 502.635 693.488 502.221 693.392C501.862 693.36 501.655 693.312 501.601 693.247C501.551 693.122 501.622 693.008 501.812 692.904C502.056 692.865 502.061 692.805 501.827 692.724C501.593 692.644 501.424 692.508 501.32 692.318C501.211 692.188 501.007 692.11 500.708 692.084C500.409 692.058 499.98 692.141 499.42 692.333C498.861 692.525 498.494 692.583 498.32 692.508C497.09 692.099 495.9 691.573 494.751 690.93C493.656 690.351 492.634 689.629 491.685 688.762C491.576 688.632 491.505 688.415 491.471 688.11C491.437 687.806 491.244 687.608 490.89 687.517C490.476 687.421 490.166 687.182 489.958 686.802C489.755 686.363 489.487 685.978 489.155 685.647C488.767 685.251 488.505 684.806 488.367 684.312C488.295 683.763 488.22 683.244 488.142 682.755C487.96 682.076 487.863 681.464 487.85 680.921C487.897 680.382 487.952 679.754 488.015 679.036C488.057 678.557 488.223 677.698 488.512 676.457C488.861 675.221 489.057 674.364 489.099 673.886L489.106 673.796C489.609 672.875 489.906 672.238 489.997 671.884C490.148 671.536 490.261 671.274 490.337 671.1C490.418 670.866 490.626 670.553 490.962 670.16C491.297 669.767 491.901 669.067 492.773 668.058C493.174 667.61 493.407 667.359 493.472 667.305C493.597 667.255 493.789 667.122 494.05 666.903C494.45 666.456 494.919 665.924 495.455 665.308C495.991 664.692 496.484 664.222 496.935 663.9C497.64 663.419 498.467 662.919 499.417 662.399C500.372 661.819 501.227 661.351 501.981 660.995C502.236 660.837 502.453 660.765 502.633 660.781C502.817 660.737 503.032 660.695 503.277 660.657C503.461 660.612 503.868 660.437 504.498 660.13C505.133 659.764 505.765 659.427 506.395 659.121C507.084 658.819 507.486 658.704 507.601 658.774C507.66 658.779 507.688 658.812 507.683 658.872C507.742 658.877 507.802 658.882 507.862 658.887C507.982 658.898 508.136 658.851 508.326 658.747C508.522 658.583 508.682 658.477 508.806 658.427C509.501 658.066 510.207 657.917 510.925 657.98C511.469 657.967 511.925 657.916 512.295 657.828C512.664 657.74 513.064 657.654 513.493 657.571C513.862 657.483 514.474 657.386 515.327 657.28C516.18 657.173 516.966 657.152 517.683 657.214C518.102 657.251 518.426 657.34 518.655 657.48C518.998 657.691 519.229 657.802 519.349 657.812C519.469 657.823 519.588 657.833 519.708 657.844C519.833 657.794 519.988 657.748 520.172 657.703C520.357 657.659 520.569 657.648 520.808 657.669C520.928 657.679 521.013 657.747 521.062 657.872C521.176 657.942 521.343 658.107 521.561 658.368C521.616 658.433 521.733 658.473 521.912 658.489C522.032 658.499 522.154 658.48 522.279 658.43C522.464 658.386 522.616 658.369 522.735 658.38C523.035 658.406 523.233 658.544 523.332 658.794C523.496 658.989 523.695 659.127 523.929 659.208C524.223 659.294 524.487 659.377 524.721 659.458C524.96 659.479 525.194 659.56 525.423 659.7C525.94 659.987 526.472 660.455 527.018 661.106C527.629 661.702 527.965 662.334 528.028 663.003C528.017 663.123 528.001 663.302 527.98 663.541C527.965 663.721 527.845 663.71 527.621 663.51C526.852 662.659 526.102 661.93 525.371 661.324C524.706 660.662 523.745 660.277 522.489 660.167C521.352 660.068 519.936 660.064 518.24 660.157C516.544 660.25 514.897 660.467 513.3 660.81C511.708 661.093 510.437 661.494 509.487 662.014C509.167 662.227 508.942 662.388 508.812 662.497C508.687 662.547 508.385 662.55 507.907 662.509C507.309 662.456 506.689 662.643 506.049 663.07C505.474 663.441 504.905 663.753 504.34 664.005C504.09 664.104 503.783 664.168 503.419 664.196C503.055 664.224 502.775 664.32 502.58 664.484C502.45 664.593 502.382 664.678 502.377 664.738C502.372 664.798 502.304 664.882 502.174 664.991L502.076 665.073C501.296 665.728 500.531 666.204 499.781 666.5C499.092 666.802 498.3 667.245 497.405 667.83C497.345 667.825 497.144 668.048 496.803 668.501C496.468 668.893 496.132 669.286 495.796 669.679C495.46 670.071 495.23 670.292 495.105 670.342C494.616 670.419 494.169 670.712 493.762 671.219C493.362 671.666 493.056 672.061 492.845 672.405C492.645 672.628 492.379 672.907 492.049 673.239C491.783 673.518 491.548 673.798 491.342 674.082C490.855 674.823 490.483 675.635 490.225 676.516C489.967 677.398 489.796 678.318 489.712 679.275C489.675 679.694 489.636 680.142 489.594 680.621C489.612 681.105 489.63 681.589 489.648 682.073C489.671 682.497 489.675 682.799 489.659 682.978C489.649 683.098 489.78 683.32 490.053 683.646C490.321 684.031 490.526 684.441 490.669 684.875C490.877 685.255 491.117 685.608 491.39 685.933C491.445 685.998 491.467 686.09 491.456 686.21C491.414 686.689 491.451 686.963 491.565 687.034C491.739 687.109 491.916 687.155 492.096 687.17C492.275 687.186 492.406 687.409 492.489 687.838L492.653 688.033C493.361 688.216 493.998 688.512 494.564 688.924C495.137 689.275 495.744 689.57 496.386 689.807C496.8 689.903 497.21 690.029 497.619 690.186C498.092 690.287 498.503 690.414 498.852 690.565C499.026 690.64 499.167 690.743 499.277 690.873C499.44 691.069 499.55 691.199 499.604 691.264L499.694 691.272C499.814 691.282 499.909 691.23 499.979 691.116C500.109 691.006 500.264 690.96 500.443 690.975C500.623 690.991 500.865 690.982 501.169 690.948C501.468 690.975 501.672 691.053 501.781 691.183C502.065 691.389 502.326 691.502 502.565 691.523C502.805 691.544 503.049 691.505 503.299 691.406C503.424 691.357 503.726 691.353 504.204 691.395C504.743 691.442 505.042 691.468 505.101 691.473C505.216 691.544 505.358 691.647 505.527 691.782C505.755 691.923 505.962 691.971 506.147 691.927C506.277 691.817 506.315 691.73 506.26 691.665C506.265 691.605 506.39 691.556 506.635 691.517L508.355 691.487C508.48 691.437 508.603 691.418 508.722 691.428C509.266 691.416 509.905 691.351 510.638 691.234C511.437 691.063 512.048 690.966 512.472 690.943C513.19 691.005 513.959 690.832 514.778 690.421C515.717 690.021 516.681 689.683 517.67 689.408C518.664 689.073 519.655 688.768 520.643 688.492C521.322 688.311 521.917 688.061 522.427 687.744C522.937 687.427 523.447 687.11 523.957 686.793C524.462 686.535 524.936 686.275 525.381 686.013C525.886 685.756 526.331 685.493 526.716 685.225C526.911 685.062 527.079 684.865 527.22 684.636C527.36 684.408 527.556 684.244 527.805 684.145C529.439 683.384 530.785 682.476 531.841 681.423C532.898 680.37 534.134 679.333 535.549 678.311C535.875 678.038 536.105 677.817 536.24 677.648C536.376 677.479 536.546 677.253 536.752 676.97C537.228 676.348 537.824 675.737 538.54 675.136C539.261 674.476 539.872 673.685 540.375 672.765C540.591 672.362 540.884 672.116 541.253 672.028C541.628 671.88 541.858 671.659 541.944 671.365C541.944 671.365 541.875 671.118 541.738 670.623C541.665 670.074 541.786 669.723 542.101 669.57C542.416 669.416 542.584 669.22 542.605 668.981C542.636 668.622 542.486 668.277 542.153 667.946C541.885 667.561 541.762 667.249 541.783 667.01C541.979 665.459 541.966 664.222 541.746 663.299C541.59 662.32 541.217 661.414 540.627 660.578C540.037 659.743 539.276 658.802 538.342 657.756C537.3 656.579 535.813 655.665 533.88 655.014C532.013 654.308 530.31 653.797 528.77 653.482C528.411 653.45 528.03 653.327 527.627 653.11C527.284 652.9 526.928 652.838 526.558 652.927C526.433 652.976 526.132 652.98 525.653 652.938C525.234 652.901 524.756 652.859 524.217 652.812C523.684 652.705 523.36 652.617 523.246 652.546C522.658 652.374 522.117 652.357 521.623 652.495C521.134 652.573 520.62 652.588 520.082 652.541C519.723 652.509 519.456 652.456 519.282 652.38C519.108 652.305 518.931 652.259 518.751 652.244C518.512 652.223 518.297 652.264 518.107 652.368C517.983 652.417 517.765 652.489 517.456 652.582C515.728 653.034 513.894 653.326 511.954 653.458C511.894 653.452 511.435 653.533 510.576 653.699C509.718 653.865 508.857 654.061 507.993 654.287C507.135 654.453 506.613 654.558 506.428 654.602C505.809 654.789 505.223 654.949 504.669 655.081C504.114 655.213 503.582 655.438 503.072 655.755C502.948 655.805 502.79 655.881 502.6 655.985C502.41 656.089 502.226 656.133 502.046 656.118C501.622 656.141 501.25 656.259 500.93 656.472C500.675 656.631 500.39 656.787 500.075 656.94C499.82 657.099 499.481 657.189 499.057 657.213C498.693 657.241 498.383 657.335 498.128 657.493C498.003 657.542 497.928 657.717 497.902 658.016C497.935 658.32 497.86 658.495 497.675 658.539C497.425 658.637 497.118 658.701 496.754 658.729C496.455 658.703 496.153 658.707 495.849 658.741C495.425 658.764 494.98 659.026 494.514 659.528C494.053 659.97 493.66 660.328 493.335 660.601C492.955 660.809 492.437 661.215 491.782 661.821C491.131 662.367 490.616 662.744 490.236 662.952C489.921 663.105 489.612 663.199 489.307 663.233C489.003 663.266 488.797 663.55 488.69 664.083L487.43 665.058C487.006 665.081 486.721 665.237 486.575 665.526C486.434 665.755 486.204 665.976 485.884 666.189C485.374 666.506 485.051 666.749 484.916 666.918C484.846 667.032 484.553 667.278 484.038 667.655C483.582 668.037 483.175 668.213 482.816 668.181C482.637 668.166 482.555 668.068 482.57 667.888C482.607 667.47 482.929 666.895 483.535 666.164C484.1 665.912 484.525 665.527 484.812 665.01C485.098 664.492 485.496 664.075 486.006 663.758C486.511 663.5 486.899 663.203 487.169 662.865C487.5 662.532 487.833 662.169 488.169 661.777C488.299 661.667 488.394 661.615 488.454 661.621C488.964 661.303 489.386 660.949 489.722 660.556C490.123 660.109 490.603 659.789 491.162 659.597C491.722 659.404 492.197 659.145 492.587 658.817C492.983 658.43 493.403 658.105 493.848 657.842C496.957 656.064 500.317 654.519 503.928 653.208C507.545 651.836 511.106 651.092 514.612 650.977C515.096 650.959 515.52 650.936 515.884 650.907C516.313 650.824 516.74 650.771 517.164 650.748C517.349 650.704 517.743 650.678 518.346 650.671C519.015 650.609 519.651 650.574 520.254 650.566C520.923 650.504 521.314 650.508 521.429 650.579C521.608 650.594 521.785 650.64 521.959 650.715C522.139 650.731 522.288 650.744 522.408 650.755C522.827 650.791 523.158 650.79 523.403 650.751C523.707 650.718 524.069 650.719 524.488 650.756C527.055 651.041 529.449 651.582 531.67 652.379C533.891 653.176 536.018 654.357 538.051 655.922C538.329 656.187 538.547 656.447 538.706 656.702C538.87 656.898 539.126 657.071 539.474 657.222C539.758 657.427 540.033 657.723 540.301 658.108C540.667 658.743 541.094 659.383 541.58 660.029C542.071 660.614 542.467 661.252 542.769 661.941C543.322 663.195 543.691 664.494 543.875 665.836C544.118 667.184 544.183 668.516 544.067 669.832C543.664 674.439 541.796 678.225 538.462 681.189C538.202 681.407 537.8 681.523 537.257 681.535C536.778 681.494 536.474 681.527 536.344 681.636C536.279 681.691 536.353 681.878 536.566 682.198C536.779 682.519 536.82 682.733 536.69 682.842C535.779 683.607 534.844 684.309 533.884 684.948C533.819 685.003 533.767 684.908 533.728 684.663C533.694 684.359 533.59 684.169 533.416 684.093C533.247 683.958 533.112 684.127 533.01 684.6C532.968 685.079 532.882 685.373 532.752 685.482L532.023 684.514C531.898 684.563 531.872 684.863 531.944 685.411C532.017 685.96 531.988 686.29 531.858 686.399C530.458 687.241 529.034 688.021 527.584 688.738C526.135 689.455 524.601 690.105 522.983 690.687C519.742 691.91 516.382 692.762 512.904 693.241C509.481 693.786 506.216 693.892 503.111 693.56Z" fill="#FF7DBC"/>
<path d="M553.854 695.467C551.64 695.274 549.999 694.738 548.93 693.861C547.862 692.984 547.165 691.988 546.841 690.875C546.516 689.761 546.504 688.524 546.804 687.164L547.007 686.91C547.142 686.741 547.253 686.51 547.339 686.216C547.425 685.922 547.5 685.748 547.565 685.693L548.268 685.935C548.382 686.006 548.48 685.924 548.56 685.69C548.641 685.455 548.619 685.363 548.494 685.412C548.13 685.441 547.945 685.485 547.94 685.545C547.935 685.605 547.885 685.48 547.792 685.17L548.077 685.014L547.995 684.917C548.005 684.797 548.071 684.742 548.19 684.753L548.034 684.468C548.034 684.468 548.271 684.519 548.744 684.62C549.283 684.668 549.497 684.626 549.388 684.496C549.448 684.501 549.421 684.469 549.306 684.398C549.197 684.268 549.145 684.173 549.15 684.113C549.085 684.168 549.055 684.165 549.061 684.105C549.071 683.986 548.862 683.968 548.432 684.051C548.248 684.095 548.161 684.057 548.171 683.937C548.182 683.818 548.187 683.758 548.187 683.758C548.372 683.714 548.556 683.669 548.741 683.625C548.931 683.521 549.066 683.352 549.147 683.118C549.259 682.525 549.348 682.201 549.413 682.147C549.478 682.092 549.546 682.008 549.616 681.893C549.686 681.779 549.789 681.637 549.924 681.468C550.065 681.239 550.165 681.127 550.225 681.133C550.17 681.068 550.148 680.975 550.159 680.856C550.185 680.556 550.405 680.455 550.818 680.551C551.292 680.653 551.457 680.487 551.314 680.052C551.156 679.797 551.256 679.685 551.615 679.717L551.533 679.619C551.783 679.52 551.937 679.474 551.997 679.479C552.122 679.43 552.073 679.305 551.849 679.104L552.279 678.328C552.349 678.214 552.484 678.044 552.685 677.821C552.95 677.543 553.335 677.275 553.84 677.018C553.84 677.018 553.808 677.045 553.742 677.1C553.742 677.1 553.74 677.129 553.735 677.189L553.824 677.197C554.004 677.213 554.349 677.062 554.859 676.745C554.804 676.68 554.687 676.64 554.507 676.624C554.393 676.554 554.309 676.486 554.254 676.421C554.21 676.236 554.543 675.873 555.253 675.333C555.964 674.792 556.731 674.286 557.556 673.816C558.386 673.286 558.896 672.968 559.086 672.864C560.025 672.464 561.046 672.162 562.149 671.957C563.318 671.697 564.312 671.694 565.134 671.947C565.308 672.022 565.557 672.285 565.879 672.735C566.261 673.191 566.55 673.337 566.745 673.173C567.325 672.741 567.995 672.318 568.755 671.902C569.515 671.486 569.952 671.313 570.066 671.383C570.36 671.469 570.649 671.615 570.932 671.821C571.221 671.967 571.339 672.339 571.287 672.937C571.25 673.356 571.189 673.712 571.103 674.006C571.011 674.36 570.836 674.646 570.575 674.864C570.315 675.083 570.052 675.331 569.787 675.609C569.516 675.947 569.018 676.477 568.292 677.197C567.631 677.862 567.143 678.272 566.828 678.425C566.643 678.469 566.418 678.631 566.153 678.909C565.952 679.132 565.692 679.351 565.372 679.564C565.117 679.722 564.805 679.846 564.435 679.934C564.131 679.968 563.916 680.009 563.792 680.059C563.667 680.108 563.455 680.12 563.156 680.093C562.922 680.013 562.872 679.888 563.008 679.719C563.073 679.664 563.078 679.604 563.023 679.539C563.034 679.42 563.042 679.33 563.047 679.27C563.117 679.156 563.215 679.074 563.34 679.024C563.464 678.975 563.562 678.893 563.632 678.779C563.697 678.724 563.865 678.528 564.136 678.19C564.466 677.857 564.634 677.661 564.64 677.601C564.585 677.536 564.59 677.476 564.655 677.421C564.726 677.307 564.763 677.22 564.769 677.16C564.834 677.105 564.871 677.018 564.882 676.898C564.892 676.779 564.957 676.724 565.077 676.735C565.322 676.696 565.449 676.616 565.46 676.497C565.501 676.018 565.571 675.572 565.667 675.158C565.823 674.75 565.825 674.388 565.672 674.074C565.474 673.574 565.046 673.295 564.388 673.238C563.491 673.159 562.41 673.457 561.146 674.13C559.886 674.743 559.026 675.271 558.566 675.713C556.463 677.699 554.696 679.986 553.264 682.574C551.832 685.162 551.144 687.513 551.2 689.628C551.23 690.656 551.576 691.53 552.236 692.251C552.896 692.972 553.675 693.372 554.573 693.45L556.098 693.584C556.277 693.599 556.457 693.615 556.636 693.631C556.881 693.592 557.125 693.553 557.37 693.514C557.739 693.426 558.014 693.39 558.193 693.405C558.519 693.132 558.698 693.148 558.732 693.452C559.231 693.255 559.448 693.184 559.383 693.238C559.318 693.293 559.408 693.301 559.653 693.262C560.875 693.067 562.086 692.661 563.286 692.042C564.485 691.424 565.595 690.797 566.615 690.163C566.805 690.059 567.12 689.906 567.559 689.703C567.999 689.5 568.314 689.347 568.504 689.243C568.639 689.074 568.742 688.932 568.812 688.818C568.948 688.649 569.108 688.542 569.292 688.498C569.428 688.329 569.593 688.163 569.788 687.999C569.988 687.775 570.121 687.636 570.186 687.582C570.496 687.488 570.593 687.406 570.479 687.336C570.37 687.206 570.532 687.069 570.967 686.926C571.092 686.877 571.214 686.858 571.334 686.868C571.453 686.879 571.508 686.944 571.498 687.063C571.487 687.183 571.279 687.496 570.873 688.003C570.597 688.401 570.101 688.9 569.385 689.501L568.41 690.32L567.286 690.764C567.155 690.873 567.085 690.988 567.075 691.108C567.069 691.167 567.002 691.252 566.872 691.361C565.066 692.71 563.042 693.799 560.799 694.628C558.621 695.402 556.306 695.682 553.854 695.467Z" fill="#FF7DBC"/>
<path d="M576.824 697.387C575.329 697.256 574.049 696.722 572.986 695.785C571.922 694.848 571.48 693.362 571.658 691.328C571.726 690.55 571.884 689.78 572.131 689.018C572.384 688.196 572.664 687.406 572.971 686.65C573.159 685.882 573.399 685.21 573.69 684.632C573.771 684.398 573.811 684.281 573.811 684.281C573.876 684.227 574.034 684.15 574.284 684.051L575.096 683.037L575.127 682.678C575.067 682.673 575.037 682.67 575.037 682.67C575.043 682.611 575.045 682.581 575.045 682.581C575.061 682.401 575.229 682.205 575.549 681.992C575.869 681.778 576.029 681.672 576.029 681.672C576.115 681.378 576.218 681.236 576.337 681.247C576.457 681.257 576.614 681.181 576.81 681.017L577.797 681.103L577.812 680.924C577.839 680.624 577.699 680.492 577.395 680.525C577.156 680.504 577.039 680.464 577.044 680.404C577.049 680.344 577.149 680.233 577.345 680.069C577.605 679.85 577.768 679.714 577.833 679.659C578.033 679.436 578.201 679.239 578.336 679.07C578.477 678.841 578.672 678.678 578.922 678.579C580.114 677.357 580.845 676.577 581.116 676.239C581.446 675.906 581.769 675.663 582.084 675.51C582.203 675.52 582.288 675.588 582.337 675.713C582.452 675.783 582.444 675.873 582.314 675.982C582.418 676.172 582.505 676.21 582.575 676.095C582.705 675.986 582.77 675.931 582.77 675.931L583.145 675.783C583.036 675.653 582.989 675.498 583.005 675.319C583.031 675.02 583.112 674.786 583.247 674.616C583.388 674.388 583.618 674.167 583.938 673.953C584.318 673.746 584.51 673.612 584.516 673.552C584.885 673.464 585.165 673.367 585.355 673.264C585.604 673.165 585.849 673.126 586.088 673.147C586.507 673.183 586.913 673.37 587.305 673.705C588.389 674.403 589.294 675.085 590.02 675.752C590.745 676.418 591.061 677.29 590.966 678.367C590.867 679.503 590.302 680.449 589.271 681.203C588.306 681.902 587.142 682.463 585.779 682.887C584.415 683.31 583.06 683.644 581.712 683.887C580.43 684.077 579.422 684.23 578.688 684.346C578.264 684.37 578.039 684.531 578.013 684.83C578.052 685.074 577.999 685.341 577.853 685.63L577.138 686.562L576.49 687.771L575.971 688.54C575.52 688.862 575.347 689.118 575.451 689.308C575.555 689.498 575.767 689.487 576.087 689.273C576.142 689.339 576.164 689.431 576.153 689.551C576.132 689.79 576.047 690.084 575.895 690.432C575.75 690.721 575.639 690.953 575.563 691.127C575.483 691.361 575.472 691.481 575.532 691.486C575.657 691.436 575.706 691.561 575.68 691.86L575.66 693.125C575.919 694.293 576.669 695.022 577.91 695.311C578.03 695.322 578.147 695.362 578.261 695.432C578.441 695.448 578.59 695.461 578.71 695.472C579.787 695.566 580.363 695.526 580.438 695.351C580.574 695.182 580.734 695.076 580.918 695.032C581.467 694.959 581.926 694.879 582.296 694.791C582.725 694.708 583.159 694.565 583.599 694.362C584.343 694.126 585.065 693.797 585.765 693.376C586.465 692.955 587.195 692.536 587.955 692.12L588.907 691.571C588.977 691.456 588.985 691.367 588.93 691.301C588.876 691.236 588.881 691.177 588.946 691.122C589.071 691.073 589.161 691.08 589.215 691.146C589.335 691.156 589.427 691.134 589.492 691.079C589.617 691.03 589.745 690.951 589.875 690.841C590.01 690.672 590.143 690.533 590.273 690.424C590.403 690.315 590.474 690.201 590.484 690.081C590.554 689.966 590.654 689.855 590.785 689.745C591.305 689.309 591.828 688.842 592.354 688.345C592.939 687.854 593.43 687.415 593.825 687.027C594.297 686.465 594.652 686.195 594.891 686.216C595.011 686.226 595.065 686.292 595.055 686.411C595.029 686.71 594.78 687.141 594.309 687.702C593.161 689.109 591.866 690.473 590.425 691.794C588.988 693.055 587.442 694.186 585.787 695.186C584.583 695.865 583.177 696.435 581.569 696.897C579.961 697.36 578.38 697.523 576.824 697.387ZM579.434 683.055C580.337 683.074 581.524 682.936 582.997 682.643C584.474 682.29 585.726 681.767 586.751 681.073C587.841 680.324 588.431 679.441 588.52 678.424C588.604 677.467 588.176 676.495 587.238 675.508C586.348 676.033 585.345 676.82 584.228 677.868C583.177 678.861 582.215 679.862 581.343 680.871C580.477 681.82 579.84 682.548 579.434 683.055Z" fill="#FF7DBC"/>
<path d="M607.746 700.182C607.387 700.151 607.226 699.926 607.262 699.507C607.289 699.208 607.41 698.857 607.626 698.454C608.193 697.478 608.857 696.089 609.618 694.287C610.438 692.49 611.385 690.975 612.457 689.742C613.23 688.484 613.941 687.25 614.589 686.04C615.303 684.776 615.986 683.51 616.64 682.241C616.64 682.241 616.582 682.205 616.468 682.135C616.359 682.005 616.31 681.88 616.32 681.76C616.042 681.495 615.712 681.134 615.33 680.679C614.953 680.164 614.965 679.682 615.365 679.235C615.496 679.126 615.561 679.071 615.561 679.071C615.62 679.077 615.65 679.079 615.65 679.079C615.656 679.019 615.628 678.987 615.568 678.982C615.568 678.982 615.571 678.952 615.576 678.892L615.494 678.794C615.435 678.789 615.375 678.784 615.315 678.779C615.32 678.719 615.293 678.686 615.233 678.681C614.994 678.66 614.719 678.696 614.41 678.79C614.105 678.823 613.804 678.827 613.505 678.801C613.146 678.77 612.654 678.877 612.03 679.124C611.41 679.311 610.854 679.473 610.359 679.611C610.115 679.65 609.963 679.667 609.903 679.662C609.908 679.602 609.786 679.621 609.536 679.72C609.471 679.775 609.479 679.685 609.56 679.451C609.705 679.162 609.784 678.958 609.794 678.838C609.799 678.778 609.772 678.746 609.712 678.741C609.593 678.73 609.338 678.889 608.947 679.216C608.562 679.484 608.307 679.643 608.182 679.692C608.117 679.747 608.079 679.834 608.069 679.953C608.118 680.078 608.138 680.201 608.127 680.32C608.112 680.5 607.944 680.696 607.624 680.909C607.309 681.062 607.086 681.194 606.956 681.303C606.701 681.461 606.392 681.555 606.027 681.583C605.728 681.557 605.419 681.651 605.099 681.864C604.719 682.072 604.524 682.236 604.513 682.355C604.563 682.48 604.365 682.674 603.92 682.936C603.345 683.308 602.542 683.871 601.512 684.625C600.541 685.384 599.788 686.072 599.251 686.688C597.994 687.965 596.809 689.459 595.695 691.17C594.64 692.886 594.069 694.253 593.98 695.27C593.911 696.048 594.206 696.466 594.865 696.523C594.984 696.534 595.104 696.544 595.223 696.555C595.348 696.505 595.503 696.458 595.688 696.414L598.139 695.272L598.685 695.23L598.693 695.14L599.028 695.441C599.093 695.386 599.071 695.294 598.962 695.163C598.918 694.979 598.926 694.889 598.986 694.894C599.045 694.899 599.073 694.932 599.067 694.992C599.127 694.997 599.187 695.002 599.247 695.007L599.45 694.754C599.45 694.754 599.537 694.792 599.711 694.867C599.951 694.888 600.135 694.844 600.265 694.735C600.45 694.691 600.488 694.604 600.379 694.473C600.329 694.349 600.247 694.251 600.133 694.181L600.808 693.697C600.879 693.583 601.128 693.484 601.558 693.401C602.632 692.832 603.538 692.127 604.274 691.287C605.076 690.393 605.959 689.596 606.925 688.897L607.015 688.905L608.186 687.922L608.119 687.645L609.404 686.401L609.583 686.416C609.653 686.302 609.786 686.163 609.981 685.999C610.236 685.84 610.399 685.704 610.469 685.589C610.594 685.54 610.89 685.264 611.355 684.763C611.886 684.206 612.377 683.767 612.827 683.444C613.337 683.127 613.622 682.971 613.682 682.977C613.742 682.982 613.769 683.014 613.764 683.074C613.748 683.254 613.635 683.515 613.424 683.858C613.273 684.207 613.132 684.436 613.002 684.545C612.526 685.166 611.922 685.867 611.191 686.647C610.464 687.368 610.034 687.812 609.898 687.981C609.112 688.696 608.153 689.667 607.021 690.895C605.894 692.062 604.678 693.222 603.371 694.374C602.065 695.525 600.774 696.498 599.499 697.29C598.289 698.029 597.176 698.353 596.159 698.264C595.202 698.181 594.211 697.792 593.187 697.1C592.162 696.407 591.723 695.223 591.87 693.548C591.917 693.01 592.029 692.417 592.206 691.769C592.448 691.067 592.783 690.342 593.21 689.596C593.21 689.596 593.275 689.541 593.405 689.432C593.541 689.263 593.636 689.211 593.69 689.276C593.826 689.107 593.871 688.93 593.827 688.746C593.848 688.506 593.861 688.357 593.866 688.297L594.061 688.133C594.239 687.485 594.74 686.926 595.564 686.456C596.389 685.985 596.845 685.603 596.931 685.309C596.996 685.255 597.034 685.168 597.044 685.048L597.505 683.913L597.536 683.554L597.895 683.585L598.196 683.25L598.301 683.078C598.187 683.008 598.225 682.92 598.415 682.816C598.67 682.658 598.797 682.579 598.797 682.579C598.867 682.464 598.935 682.38 599 682.325C599.125 682.276 599.22 682.224 599.285 682.169L599.913 682.224C600.049 682.055 599.997 681.96 599.757 681.939C599.518 681.918 599.398 681.908 599.398 681.908C599.404 681.848 599.406 681.818 599.406 681.818C599.471 681.763 599.506 681.706 599.512 681.646L600.569 680.925C600.889 680.712 601.207 680.529 601.522 680.375C601.837 680.222 602.124 680.036 602.384 679.818C602.564 679.833 602.586 679.926 602.45 680.095C602.5 680.22 602.56 680.225 602.63 680.111C602.76 680.001 602.825 679.947 602.825 679.947L603.282 679.896L603.289 679.806C603.3 679.687 603.346 679.51 603.426 679.276C603.507 679.042 603.55 678.895 603.555 678.835C604.895 677.988 606.285 677.265 607.723 676.667C609.167 676.01 610.547 675.739 611.864 675.854C613.419 675.99 614.772 676.711 615.924 678.018L616.349 678.326C616.409 678.332 616.442 678.304 616.447 678.245C616.64 677.417 617.383 676.849 618.676 676.54C620.028 676.237 621.213 676.129 622.23 676.218C623.307 676.313 623.832 676.509 623.806 676.808C623.796 676.928 623.598 677.122 623.213 677.39C623.023 677.494 622.7 677.737 622.245 678.119C621.789 678.501 621.326 678.973 620.855 679.535C620.779 679.709 620.674 679.88 620.539 680.05C620.403 680.219 620.268 680.388 620.133 680.557C620.062 680.671 619.959 680.813 619.824 680.982C619.754 681.096 619.654 681.208 619.524 681.317C618.355 682.963 617.419 684.359 616.716 685.503C616.013 686.647 615.162 688.11 614.162 689.892C614.011 690.24 613.933 690.444 613.927 690.504C613.886 690.983 614.134 691.246 614.672 691.293C615.031 691.324 615.398 691.266 615.773 691.118L616.701 690.837C618.252 689.647 619.845 688.67 621.479 687.909C621.538 687.914 621.568 687.917 621.568 687.917C621.633 687.862 621.696 687.838 621.756 687.843C621.935 687.859 622.044 687.989 622.083 688.233C622.127 688.418 622.054 688.562 621.864 688.666C620.046 689.472 618.323 690.557 616.697 691.922C616.627 692.036 616.556 692.151 616.486 692.265C616.416 692.38 616.315 692.492 616.185 692.601C615.995 692.705 615.798 692.898 615.592 693.182C615.386 693.465 615.281 693.637 615.276 693.697C615.2 693.871 615.105 693.923 614.991 693.853C614.936 693.788 614.749 693.862 614.429 694.075C614.364 694.129 614.293 694.244 614.218 694.418C614.202 694.598 614.159 694.745 614.089 694.859C613.954 695.028 613.821 695.167 613.691 695.276C613.566 695.326 613.501 695.38 613.496 695.44C613.415 695.674 613.282 695.813 613.097 695.858C612.978 695.847 612.853 695.896 612.723 696.006C612.663 696 612.63 696.028 612.625 696.088C612.578 696.626 612.497 696.86 612.383 696.79C612.268 696.719 612.144 696.769 612.008 696.938C611.868 697.167 611.708 697.273 611.528 697.258C611.159 697.346 611.001 697.423 611.056 697.488C611.17 697.558 611.255 697.626 611.309 697.691C611.429 697.701 611.332 697.783 611.017 697.936C610.892 697.986 610.756 698.155 610.611 698.443C610.47 698.672 610.335 698.841 610.205 698.95C610.015 699.054 609.827 699.129 609.643 699.173C609.458 699.217 609.298 699.323 609.163 699.492C608.577 699.984 608.105 700.214 607.746 700.182Z" fill="#FF7DBC"/>
<path d="M619.901 701.246C619.542 701.214 619.381 700.989 619.417 700.57C619.443 700.271 619.565 699.92 619.781 699.517C620.348 698.542 621.042 697.155 621.862 695.358C622.683 693.561 623.629 692.046 624.701 690.814L628.884 683.312C628.884 683.312 628.827 683.277 628.713 683.206C628.603 683.076 628.554 682.951 628.564 682.832C628.227 682.561 627.866 682.198 627.484 681.742C627.167 681.232 627.179 680.751 627.52 680.299C627.65 680.189 627.745 680.137 627.805 680.143C627.865 680.148 627.895 680.15 627.895 680.15L627.911 679.971C627.932 679.732 628.034 679.59 628.219 679.546C628.464 679.507 628.621 679.43 628.691 679.316C628.884 678.489 629.627 677.921 630.92 677.612C632.273 677.308 633.458 677.201 634.475 677.29C635.492 677.379 635.987 677.573 635.961 677.872C635.945 678.051 635.747 678.245 635.367 678.453C635.237 678.562 634.915 678.805 634.399 679.182C633.944 679.564 633.511 680.039 633.099 680.606L632.377 681.628L631.678 682.381C630.569 684.032 629.663 685.43 628.96 686.574C628.258 687.718 627.406 689.181 626.406 690.963C626.195 691.306 626.08 691.597 626.059 691.837C626.032 692.136 626.139 692.296 626.378 692.317C626.498 692.327 626.62 692.308 626.745 692.259C626.935 692.155 627.122 692.081 627.307 692.036C627.812 691.779 628.224 691.544 628.544 691.331C628.929 691.063 629.344 690.798 629.789 690.535C629.985 690.372 630.134 690.385 630.238 690.575C630.347 690.705 630.331 690.884 630.191 691.113C629.91 691.571 629.704 691.854 629.574 691.963C629.509 692.018 629.414 692.07 629.289 692.119C629.164 692.169 628.871 692.414 628.411 692.856L627.989 693.543C627.859 693.652 627.688 693.878 627.478 694.222C627.332 694.51 627.256 694.685 627.251 694.745C627.241 694.864 627.175 694.919 627.056 694.908C626.941 694.838 626.754 694.912 626.494 695.13C626.429 695.185 626.388 695.302 626.373 695.482C626.417 695.666 626.374 695.813 626.244 695.922C626.168 696.097 626.065 696.238 625.935 696.348C625.81 696.397 625.745 696.452 625.74 696.511C625.659 696.746 625.527 696.885 625.342 696.929C625.222 696.918 625.097 696.968 624.967 697.077C624.907 697.072 624.872 697.129 624.862 697.249C624.82 697.727 624.742 697.931 624.627 697.861C624.513 697.791 624.388 697.84 624.253 698.009C624.112 698.238 623.952 698.345 623.773 698.329C623.403 698.417 623.246 698.494 623.3 698.559C623.355 698.624 623.44 698.692 623.554 698.762C623.674 698.772 623.576 698.854 623.261 699.008C623.076 699.052 622.911 699.218 622.765 699.507C622.625 699.736 622.489 699.905 622.359 700.014C622.229 700.123 622.072 700.2 621.887 700.244C621.702 700.288 621.542 700.395 621.407 700.564C620.822 701.055 620.319 701.282 619.901 701.246ZM646.704 702.867C646.465 702.846 646.256 702.828 646.076 702.812C645.902 702.737 645.728 702.661 645.553 702.586C644.966 702.414 644.443 702.187 643.985 701.906C643.587 701.63 643.268 701.15 643.026 700.466C642.993 700.161 642.877 699.759 642.68 699.26C642.542 698.765 642.462 698.306 642.438 697.882C642.405 697.578 642.406 697.216 642.443 696.797C642.409 696.493 642.413 696.101 642.455 695.623C642.388 695.014 642.375 694.47 642.417 693.991C642.519 693.518 642.599 692.952 642.656 692.294C642.714 691.636 642.785 691.16 642.871 690.866C643.038 690.338 643.122 690.074 643.122 690.074C643.127 690.014 643.153 689.715 643.2 689.176C643.323 688.464 643.418 687.718 643.486 686.941C643.554 686.163 643.639 685.537 643.741 685.064C644.077 683.285 643.797 682.356 642.9 682.277C642.541 682.246 642.049 682.353 641.425 682.6C641.349 682.775 641.219 682.884 641.034 682.928C640.915 682.917 640.73 682.962 640.48 683.06L640.008 683.29C640.003 683.35 639.94 683.375 639.821 683.364C639.706 683.294 639.644 683.319 639.633 683.438C639.672 683.683 639.629 683.83 639.504 683.879C639.439 683.934 639.352 683.896 639.243 683.766L638.193 684.398C638.188 684.457 638.088 684.569 637.892 684.733L637.795 684.815C637.535 685.033 637.315 685.135 637.135 685.119L636.842 685.365C636.837 685.424 636.767 685.539 636.632 685.708C636.561 685.822 636.409 685.839 636.175 685.758L635.687 686.168C635.416 686.506 635.189 686.697 635.004 686.741C634.879 686.79 634.724 686.837 634.54 686.881L633.743 687.716L633.376 687.774C633.356 688.014 633.055 688.349 632.475 688.781C631.954 689.217 631.596 689.518 631.401 689.682C631.206 689.845 631.019 689.919 630.839 689.904C630.72 689.893 630.665 689.828 630.675 689.708C630.681 689.649 630.851 689.422 631.187 689.03C631.447 688.811 631.845 688.394 632.382 687.778C632.978 687.167 633.303 686.894 633.357 686.959C633.683 686.686 633.918 686.405 634.064 686.116C634.215 685.768 634.451 685.487 634.771 685.274C634.766 685.334 634.76 685.393 634.755 685.453C634.815 685.458 634.845 685.461 634.845 685.461C634.964 685.472 635.127 685.335 635.333 685.052C635.544 684.708 635.676 684.569 635.731 684.634L637.374 683.422C637.379 683.362 637.539 683.255 637.854 683.102C638.104 683.003 638.259 682.956 638.319 682.962C638.378 682.967 638.544 682.8 638.814 682.462L639.482 682.069C639.552 681.954 639.609 681.989 639.653 682.174C639.763 682.304 639.85 682.342 639.915 682.287L640.239 681.683C640.374 681.514 640.567 681.38 640.817 681.281C641.131 681.128 641.446 680.974 641.761 680.821C642.542 680.166 643.112 679.854 643.47 679.885L643.829 679.917C644.633 679.686 645.364 679.599 646.022 679.656C646.979 679.74 647.696 680.165 648.171 680.93C648.275 681.12 648.366 681.459 648.444 681.948C648.558 682.019 648.58 682.111 648.51 682.225C648.505 682.285 648.527 682.378 648.576 682.502C648.626 682.627 648.732 682.787 648.896 682.983C649.065 683.118 649.142 683.275 649.126 683.455L649.11 683.634C649.089 683.874 648.921 684.07 648.607 684.223C648.885 684.489 648.991 684.649 648.926 684.704C648.926 684.704 648.889 684.791 648.813 684.965L648.524 686.206C648.427 686.619 648.309 686.94 648.168 687.169C648.033 687.338 647.884 687.657 647.723 688.125C647.931 688.505 647.91 688.744 647.66 688.843L647.48 688.827L647.359 689.179C647.349 689.298 647.398 689.423 647.507 689.553L647.191 690.068C647.256 690.014 647.286 690.016 647.281 690.076C647.341 690.081 647.371 690.084 647.371 690.084C647.3 690.198 647.19 690.43 647.039 690.778C646.893 691.067 646.782 691.299 646.706 691.473C646.621 691.767 646.488 691.906 646.308 691.89C646.129 691.874 646.056 692.019 646.09 692.323C646.144 692.388 646.156 692.6 646.124 692.959C646.158 693.264 646.115 693.411 645.995 693.4L645.722 694.461L645.698 694.731C645.672 695.03 645.586 695.324 645.44 695.612C645.354 695.906 645.268 696.2 645.182 696.494C645.096 696.788 645.008 697.112 644.916 697.466C644.89 697.765 644.864 698.064 644.838 698.363C644.817 698.602 644.793 698.872 644.767 699.171C644.806 699.415 644.845 699.66 644.884 699.905C644.879 699.964 644.953 700.152 645.106 700.467C645.259 700.781 645.333 700.969 645.328 701.029L645.574 701.321C645.688 701.392 645.867 701.407 646.112 701.369C646.416 701.335 646.623 701.383 646.732 701.513C647.265 701.62 647.977 701.411 648.867 700.886C649.822 700.306 650.692 699.659 651.478 698.944C651.673 698.78 651.861 698.706 652.04 698.722C652.16 698.732 652.242 698.83 652.286 699.015C652.33 699.199 652.249 699.434 652.043 699.717C650.966 701.009 649.985 701.888 649.1 702.353C648.221 702.759 647.422 702.93 646.704 702.867Z" fill="#FF7DBC"/>
<defs>
<linearGradient id="paint0_linear_6303_15449" x1="56.4694" y1="-24.9604" x2="806.716" y2="358.194" gradientUnits="userSpaceOnUse">
<stop stop-color="#7CDAEC"/>
<stop offset="1" stop-color="#C62D80"/>
</linearGradient>
</defs>
</svg>
