<svg width="430" height="373" viewBox="0 0 430 373" fill="none" xmlns="http://www.w3.org/2000/svg">
<path d="M34.5663 146.655C39.6598 140.252 44.6164 133.466 46.3143 125.531C48.0121 117.568 45.4106 108.183 38.2084 104.27C27.8844 98.6607 12.6312 106.24 4.25153 98.004C14.6851 74.0068 38.7287 58.8752 62.2247 47.3828C107.272 25.1916 155.825 10.1968 205.583 3.02774C224.917 0.154645 244.497 -1.40503 263.803 1.71433C256.108 4.4506 248.659 8.11722 241.594 12.4132C238.335 14.3833 234.666 17.8857 236.254 21.4155C236.911 22.9752 238.472 23.9055 240.033 24.8085C266.925 39.0372 299.321 28.4478 329.197 23.112C362.497 17.1196 397.084 18.0225 430 25.7115C409.9 26.3682 389.142 30.9378 373.341 43.4426C356.116 57.0145 346.696 78.4122 331.032 93.7901C309.645 114.942 279.631 122.822 249.289 127.857C255.259 130.128 260.873 133.22 265.802 137.434C262.79 145.998 249.59 145.944 244.305 153.359C243.1 155.055 242.443 156.998 242.251 159.023C264.131 155.11 286.34 153.14 308.577 153.195C328.841 153.195 350.722 155.548 366.194 168.682C363.182 177.247 349.982 177.192 344.697 184.607C341.027 189.779 342.424 197.194 346.313 202.174C350.201 207.127 355.979 210.164 361.703 212.873C369.918 216.731 395.222 223.599 378.982 230.412C375.34 231.89 371.397 233.012 367.234 233.915C368.878 234.544 370.493 235.174 372.109 235.858C356.226 235.283 339.22 238.922 324.87 251.4C309.234 264.917 298.527 287.354 283.821 302.951C258.189 330.314 224.889 333.461 194.109 336.963C157.961 341.177 121.731 347.936 85.6112 356.965C68.4136 361.261 47.2453 372.781 30.3216 373C12.3026 373 35.7438 350.562 42.9186 341.177C47.9026 334.61 52.8592 327.632 55.4334 319.15C58.0075 310.695 57.4324 300.406 52.3937 295.755C45.1641 289.078 32.0195 296.247 26.7343 286.889C34.402 270.691 45.9309 258.788 58.5552 249.484C51.2435 249.265 44.014 248.144 36.9213 245.763C20.7644 240.373 17.4783 243.601 1.21184 230.932C-10.2075 223.353 64.1143 199.328 14.0826 195.935C36.7023 189.478 62.8546 185.811 76.7386 166.767C77.5054 165.59 78.2995 164.441 78.2173 163.127C78.2173 162.69 78.1078 162.279 77.9435 161.923C60.3626 167.724 41.385 175.632 24.4613 176.781C1.73211 178.095 27.1998 155.767 34.5115 146.655" fill="#F4D400"/>
</svg>
