<svg width="158" height="145" viewBox="0 0 158 145" fill="none" xmlns="http://www.w3.org/2000/svg">
<g clip-path="url(#clip0_4148_2939)">
<path d="M89.2595 9.55469C89.2595 9.55469 68.9218 14.2696 71.128 25.0053C73.3342 35.7411 87.4579 43.404 107.42 36.01L91.8029 50.2699L70.5307 53.3524C70.5307 53.3524 57.5631 47.9461 58.4109 30.3732C58.4109 30.3732 65.2801 -1.58441 89.2595 9.56427V9.55469Z" fill="#E5D0CA"/>
<path d="M107.422 35.2321C107.422 35.2321 135.592 6.41459 150.766 37.2775C165.94 68.1308 137.846 107.607 95.6103 109.163C53.3742 110.719 36.6012 135.964 32.4489 151.77L10.8684 148.111L8.09375 135.964L23.4313 111.304L42.6322 96.401L68.4035 92.4447L92.4503 86.3566L109.05 83.9752L137.952 61.4282L128.973 40.8593C128.973 40.8593 117.971 36.5189 107.412 35.2513L107.422 35.2321Z" fill="#E5D0CA"/>
<g style="mix-blend-mode:multiply">
<path d="M24.9037 138.038C24.9807 141.716 23.2562 144.741 21.0596 144.779C18.863 144.818 17.0229 141.87 16.9458 138.192C16.8688 134.514 18.5933 131.489 20.7899 131.451C22.9865 131.412 24.8266 134.36 24.9037 138.038Z" fill="#E5D0CA"/>
<g style="mix-blend-mode:multiply">
<path d="M23.4784 138.019C23.517 140.151 22.4187 141.908 21.0121 141.927C19.6055 141.946 18.4301 140.247 18.3916 138.115C18.3531 135.983 19.4514 134.226 20.8579 134.207C22.2645 134.178 23.4399 135.887 23.4784 138.019Z" fill="#E5D0CA"/>
</g>
</g>
<g style="mix-blend-mode:multiply">
<path d="M40.4234 139.997C38.3328 143.031 35.1632 144.481 33.3519 143.243C31.5407 142.004 31.7719 138.537 33.8626 135.503C35.9532 132.469 39.1228 131.019 40.934 132.257C42.7452 133.496 42.514 136.963 40.4234 139.997Z" fill="#E5D0CA"/>
<g style="mix-blend-mode:multiply">
<path d="M39.277 139.162C38.0631 140.919 36.1459 141.697 34.9802 140.909C33.8145 140.122 33.8723 138.048 35.0765 136.29C36.2904 134.533 38.2076 133.755 39.3734 134.543C40.5295 135.34 40.4813 137.404 39.277 139.162Z" fill="#E5D0CA"/>
</g>
</g>
<g style="mix-blend-mode:multiply">
<path d="M43.6308 116.864C41.2994 119.716 38.0238 120.917 36.3185 119.534C34.6133 118.151 35.1239 114.713 37.4553 111.861C39.7868 109.009 43.0624 107.809 44.7677 109.192C46.4729 110.575 45.9623 114.012 43.6308 116.864Z" fill="#E5D0CA"/>
<g style="mix-blend-mode:multiply">
<path d="M42.5516 115.933C41.2028 117.584 39.2182 118.209 38.1295 117.325C37.0409 116.442 37.2528 114.387 38.6016 112.726C39.9504 111.074 41.935 110.45 43.0237 111.333C44.1123 112.217 43.9004 114.272 42.5516 115.933Z" fill="#E5D0CA"/>
</g>
</g>
<g style="mix-blend-mode:multiply">
<path d="M64.1452 104.736C60.542 105.533 57.2279 104.448 56.7558 102.307C56.2837 100.165 58.8175 97.7935 62.4303 96.9964C66.0335 96.1994 69.3476 97.2845 69.8197 99.4259C70.2918 101.567 67.758 103.939 64.1452 104.736Z" fill="#E5D0CA"/>
<g style="mix-blend-mode:multiply">
<path d="M63.8766 103.344C61.786 103.805 59.8495 103.075 59.5412 101.702C59.2329 100.338 60.6877 98.8497 62.7783 98.3888C64.8689 97.9279 66.8054 98.6577 67.1137 100.031C67.422 101.404 65.9672 102.883 63.8766 103.344Z" fill="#E5D0CA"/>
</g>
</g>
<g style="mix-blend-mode:multiply">
<path d="M58.5459 123.135C55.4052 125.075 51.9176 125.142 50.7615 123.279C49.6054 121.416 51.2143 118.334 54.3454 116.394C57.4861 114.454 60.9737 114.387 62.1298 116.25C63.2859 118.113 61.677 121.195 58.5459 123.135Z" fill="#E5D0CA"/>
<g style="mix-blend-mode:multiply">
<path d="M57.8314 121.906C56.0105 123.029 53.9392 122.981 53.1974 121.79C52.4555 120.6 53.3322 118.727 55.1531 117.604C56.9739 116.48 59.0453 116.528 59.7871 117.719C60.5289 118.91 59.6522 120.782 57.8314 121.906Z" fill="#E5D0CA"/>
</g>
</g>
<g style="mix-blend-mode:multiply">
<path d="M87.026 113.926C83.4229 114.723 80.1087 113.638 79.6367 111.496C79.1646 109.355 81.6984 106.983 85.3112 106.186C88.9143 105.389 92.2285 106.474 92.7006 108.616C93.1726 110.757 90.6388 113.129 87.026 113.926Z" fill="#E5D0CA"/>
<g style="mix-blend-mode:multiply">
<path d="M86.7574 112.524C84.6668 112.985 82.7304 112.255 82.4221 110.882C82.1138 109.509 83.5685 108.03 85.6592 107.569C87.7498 107.108 89.6862 107.838 89.9945 109.211C90.3028 110.574 88.8481 112.063 86.7574 112.524Z" fill="#E5D0CA"/>
</g>
</g>
<g style="mix-blend-mode:multiply">
<path d="M101.553 100.396C97.9502 101.193 94.6361 100.108 94.164 97.9663C93.6919 95.8249 96.2257 93.453 99.8385 92.656C103.451 91.859 106.756 92.9441 107.228 95.0855C107.7 97.2269 105.166 99.5987 101.553 100.396Z" fill="#E5D0CA"/>
<g style="mix-blend-mode:multiply">
<path d="M101.285 99.0033C99.1942 99.4642 97.2577 98.7345 96.9494 97.3613C96.6411 95.9977 98.0959 94.5093 100.186 94.0484C102.277 93.5874 104.214 94.3172 104.522 95.6904C104.83 97.054 103.375 98.5424 101.285 99.0033Z" fill="#E5D0CA"/>
</g>
</g>
<g style="mix-blend-mode:multiply">
<path d="M120.658 106.974C117.055 107.771 113.693 106.474 113.163 104.083C112.633 101.692 115.128 99.109 118.731 98.312C122.334 97.515 125.697 98.8114 126.227 101.202C126.757 103.593 124.261 106.177 120.658 106.974Z" fill="#E5D0CA"/>
<g style="mix-blend-mode:multiply">
<path d="M120.359 105.418C118.268 105.879 116.303 105.015 115.956 103.488C115.619 101.961 117.035 100.348 119.126 99.8869C121.216 99.426 123.181 100.29 123.528 101.817C123.866 103.344 122.449 104.957 120.359 105.418Z" fill="#E5D0CA"/>
</g>
</g>
<g style="mix-blend-mode:multiply">
<path d="M142.037 91.9262C139.917 94.5382 136.921 95.6137 135.341 94.3461C133.77 93.0786 134.204 89.9289 136.333 87.317C138.462 84.7051 141.449 83.6295 143.029 84.8971C144.609 86.1646 144.166 89.3143 142.037 91.9262Z" fill="#E5D0CA"/>
<g style="mix-blend-mode:multiply">
<path d="M141.044 91.062C139.811 92.5696 138 93.1362 136.998 92.3296C135.986 91.5133 136.169 89.6312 137.402 88.1236C138.635 86.616 140.447 86.0494 141.449 86.856C142.46 87.6723 142.277 89.5544 141.044 91.062Z" fill="#E5D0CA"/>
</g>
</g>
<g style="mix-blend-mode:multiply">
<path d="M145.263 74.9103C143.789 77.5894 141.275 79.0394 139.656 78.156C138.037 77.2725 137.931 74.3821 139.405 71.703C140.88 69.0238 143.394 67.5738 145.013 68.4573C146.631 69.3407 146.737 72.2311 145.263 74.9103Z" fill="#E5D0CA"/>
<g style="mix-blend-mode:multiply">
<path d="M144.231 74.3053C143.374 75.8609 141.842 76.6579 140.811 76.0914C139.78 75.5248 139.636 73.8059 140.493 72.2599C141.351 70.7043 142.883 69.9073 143.913 70.4738C144.944 71.0404 145.089 72.7593 144.231 74.3053Z" fill="#E5D0CA"/>
</g>
</g>
<g style="mix-blend-mode:multiply">
<path d="M128.336 91.8302C125.812 93.5683 122.921 93.7507 121.871 92.2431C120.821 90.7259 122.016 88.0947 124.54 86.3567C127.064 84.6186 129.954 84.4361 131.004 85.9438C132.055 87.461 130.86 90.0921 128.345 91.8302H128.336Z" fill="#E5D0CA"/>
<g style="mix-blend-mode:multiply">
<path d="M127.691 90.8316C126.227 91.8398 124.503 91.8686 123.828 90.9083C123.154 89.9385 123.799 88.3445 125.254 87.3362C126.718 86.3279 128.443 86.2991 129.117 87.2593C129.792 88.2292 129.146 89.8233 127.691 90.8316Z" fill="#E5D0CA"/>
</g>
</g>
<g style="mix-blend-mode:multiply">
<path d="M157.999 59.6901C157.594 63.3487 155.475 66.1238 153.269 65.8838C151.063 65.6437 149.598 62.4748 150.003 58.8162C150.407 55.1576 152.527 52.3825 154.733 52.6321C156.939 52.8722 158.404 56.0411 157.999 59.6997V59.6901Z" fill="#E5D0CA"/>
<g style="mix-blend-mode:multiply">
<path d="M156.572 59.4885C156.341 61.6107 155.002 63.2047 153.585 63.0511C152.169 62.8974 151.215 61.0537 151.447 58.9315C151.678 56.8093 153.017 55.2153 154.433 55.3689C155.849 55.5226 156.803 57.3663 156.572 59.4885Z" fill="#E5D0CA"/>
</g>
</g>
<g style="mix-blend-mode:multiply">
<path d="M149.985 42.9911C151.623 46.2944 151.334 49.761 149.339 50.7501C147.345 51.7295 144.407 49.8474 142.769 46.5537C141.131 43.2504 141.42 39.7838 143.414 38.7948C145.409 37.8153 148.347 39.6974 149.985 42.9911Z" fill="#E5D0CA"/>
<g style="mix-blend-mode:multiply">
<path d="M148.675 43.5865C149.619 45.4974 149.359 47.5619 148.087 48.1861C146.815 48.8103 145.014 47.7732 144.06 45.8623C143.106 43.9514 143.376 41.8868 144.647 41.2626C145.919 40.6384 147.721 41.6755 148.675 43.5865Z" fill="#E5D0CA"/>
</g>
</g>
<g style="mix-blend-mode:multiply">
<path d="M146.371 26.6762C148.991 28.808 150.061 31.8232 148.751 33.4269C147.44 35.0305 144.261 34.5984 141.641 32.4666C139.02 30.3348 137.951 27.3196 139.261 25.7159C140.571 24.1123 143.75 24.5444 146.371 26.6762Z" fill="#E5D0CA"/>
<g style="mix-blend-mode:multiply">
<path d="M145.493 27.6845C147.016 28.9136 147.565 30.7477 146.736 31.7656C145.898 32.7931 143.99 32.6203 142.478 31.3815C140.956 30.1524 140.407 28.3183 141.235 27.3004C142.073 26.2825 143.981 26.4458 145.493 27.6845Z" fill="#E5D0CA"/>
</g>
</g>
<g style="mix-blend-mode:multiply">
<path d="M127.527 23.3441C130.889 23.0176 133.779 24.4196 133.982 26.4649C134.184 28.5199 131.621 30.45 128.249 30.7765C124.887 31.103 121.997 29.701 121.794 27.6557C121.592 25.6007 124.155 23.6706 127.527 23.3441Z" fill="#E5D0CA"/>
<g style="mix-blend-mode:multiply">
<path d="M127.613 24.6789C129.559 24.4868 131.245 25.399 131.38 26.7146C131.505 28.0302 130.031 29.2401 128.085 29.4321C126.139 29.6242 124.453 28.712 124.318 27.3964C124.193 26.0808 125.667 24.8709 127.613 24.6789Z" fill="#E5D0CA"/>
</g>
</g>
<g style="mix-blend-mode:multiply">
<path d="M73.7101 38.958C76.7352 40.4656 78.4308 43.1927 77.4963 45.0365C76.5714 46.8802 73.3632 47.149 70.3478 45.6318C67.3226 44.1242 65.627 41.3971 66.5615 39.5534C67.4864 37.7096 70.6946 37.4408 73.7101 38.958Z" fill="#E5D0CA"/>
<g style="mix-blend-mode:multiply">
<path d="M73.0736 40.1391C74.827 41.0129 75.7615 42.6838 75.1642 43.8553C74.5668 45.0365 72.6689 45.2765 70.9155 44.4027C69.1621 43.5288 68.2276 41.858 68.8249 40.6864C69.4222 39.5053 71.3201 39.2652 73.0736 40.1391Z" fill="#E5D0CA"/>
</g>
</g>
<g style="mix-blend-mode:multiply">
<path d="M88.113 36.759C91.061 36.5573 93.5466 37.8825 93.6815 39.7166C93.8067 41.5507 91.5235 43.2024 88.5754 43.404C85.6274 43.6057 83.1417 42.2805 83.0069 40.4464C82.8816 38.6123 85.1649 36.9606 88.113 36.759Z" fill="#E5D0CA"/>
<g style="mix-blend-mode:multiply">
<path d="M88.1505 37.9497C89.8557 37.8344 91.3105 38.6891 91.3876 39.8606C91.4646 41.0321 90.1544 42.0788 88.4395 42.1941C86.7343 42.3093 85.2795 41.4547 85.2025 40.2831C85.1254 39.1116 86.4356 38.0649 88.1505 37.9497Z" fill="#E5D0CA"/>
</g>
</g>
<g style="mix-blend-mode:multiply">
<path d="M74.1722 26.6665C74.7214 29.5569 73.7002 32.1785 71.8889 32.5241C70.0777 32.8698 68.1605 30.7957 67.6114 27.9053C67.0622 25.0149 68.0835 22.3934 69.8947 22.0477C71.7059 21.702 73.6231 23.7761 74.1722 26.6665Z" fill="#E5D0CA"/>
<g style="mix-blend-mode:multiply">
<path d="M72.9953 26.8586C73.3133 28.5391 72.6292 30.0659 71.4731 30.2868C70.317 30.5076 69.1224 29.3265 68.8045 27.6461C68.4866 25.9656 69.1706 24.4388 70.3267 24.2179C71.4828 23.997 72.6774 25.1782 72.9953 26.8586Z" fill="#E5D0CA"/>
</g>
</g>
<path d="M18.1404 106.397C21.1752 102.95 24.6049 99.6947 28.2177 96.9196C39.7498 88.0755 52.1875 83.3702 65.7235 80.8927C78.9415 78.4825 92.4197 79.9901 105.532 77.7911C118.692 75.5729 127.218 69.2255 129.405 55.7338C129.781 53.3908 129.28 50.9325 127.825 49.06C122.941 42.8086 111.505 47.1875 105.551 49.4633C99.5008 51.7871 93.6721 54.7351 87.4388 56.5308C81.3597 58.2785 74.5387 58.8259 68.9316 55.9067C65.078 53.8997 62.1588 50.4331 60.0971 46.6305C54.5864 36.4901 55.1452 22.9984 62.5731 14.1543C67.8044 7.93181 75.9164 4.43645 84.0476 4.04274C89.6836 3.77386 95.3099 4.88778 100.946 4.74374C105.879 4.61891 111.139 3.29374 114.597 -0.0863895C115.156 -0.624138 116.081 -0.153597 115.985 0.614614C115.426 4.95501 111.466 8.70002 107.092 10.0156C101.977 11.552 96.4949 10.6206 91.2154 9.78513C85.9455 8.9497 80.3674 8.24869 75.3961 10.1884C68.3825 12.9252 64.2398 20.3384 62.6405 27.6749C61.4459 33.1196 61.4266 39.1404 64.3554 43.8842C70.0203 53.0547 81.1574 51.2782 89.1055 46.6785C97.9111 41.5795 105.484 33.7341 116.187 32.9659C133.673 31.7176 147.7 48.695 140.504 65.394C131.399 86.5007 105.724 90.2649 85.6854 91.8974C83.5563 92.0702 81.4368 92.2335 79.3076 92.4255C48.565 95.1143 13.5738 114.185 10.8088 148.131L0.0378464 146.066C-0.703983 145.922 8.67004 120.667 9.82614 118.449C12.1094 114.06 14.9226 110.066 18.1404 106.407V106.397Z" fill="#BC608C"/>
<g style="mix-blend-mode:multiply">
<path d="M60.9833 89.996C61.1856 91.3884 60.2222 92.6752 58.8253 92.8768C57.4283 93.0785 56.1374 92.1182 55.935 90.7258C55.7327 89.3335 56.6961 88.0467 58.0931 87.845C59.49 87.6434 60.781 88.6036 60.9833 89.996Z" fill="#995074"/>
</g>
<g style="mix-blend-mode:multiply">
<path d="M77.4375 83.9656C77.4375 82.7173 77.9867 81.6994 78.661 81.6994C79.3354 81.6994 79.8846 82.7173 79.8846 83.9656C79.8846 85.214 79.3354 86.2318 78.661 86.2318C77.9867 86.2318 77.4375 85.214 77.4375 83.9656Z" fill="#995074"/>
</g>
<g style="mix-blend-mode:multiply">
<path d="M96.9961 84.7531C96.9961 83.1302 98.316 81.8051 99.9538 81.8051C101.592 81.8051 102.911 83.1206 102.911 84.7531C102.911 86.3855 101.592 87.7011 99.9538 87.7011C98.316 87.7011 96.9961 86.3855 96.9961 84.7531Z" fill="#995074"/>
</g>
<g style="mix-blend-mode:multiply">
<path d="M94.8879 78.905L83.8086 79.3179C84.1843 82.1027 86.5736 84.2633 89.4735 84.2633C94.9649 84.2633 95.1865 78.9626 95.1865 78.8954C94.8397 78.9146 94.8975 78.9146 94.8975 78.9146L94.8879 78.905Z" fill="#995074"/>
</g>
<g style="mix-blend-mode:multiply">
<path d="M70.9352 80.259C64.8465 80.9408 61.7539 81.6994 61.7539 81.6994C62.4765 86.616 65.386 90.6203 67.8523 90.265C70.3187 89.9097 71.7349 85.6365 71.0123 80.7199C70.9931 80.5663 70.9641 80.4127 70.9352 80.259Z" fill="#995074"/>
</g>
<g style="mix-blend-mode:multiply">
<path d="M47.6697 85.9341C41.8603 87.9314 34.1626 92.7712 31.9082 94.2308C33.1414 97.7261 36.4748 100.232 40.4055 100.232C45.3864 100.232 49.4231 96.2089 49.4231 91.2444C49.4231 89.2566 48.768 87.4225 47.6697 85.9341Z" fill="#995074"/>
</g>
<g style="mix-blend-mode:multiply">
<path d="M26.5235 98.2159C19.7314 103.526 14.2496 111.285 14.2207 111.314C15.8103 112.764 18.1611 114.07 20.7045 114.07C25.6853 114.07 29.722 110.046 29.722 105.082C29.722 102.326 28.4792 99.8676 26.5139 98.2159H26.5235Z" fill="#995074"/>
</g>
</g>
<defs>
<clipPath id="clip0_4148_2939">
<rect width="158" height="145" fill="white"/>
</clipPath>
</defs>
</svg>
