<svg width="328" height="323" viewBox="0 0 328 323" fill="none" xmlns="http://www.w3.org/2000/svg">
<path d="M2.70228 264.134C1.23863 263.361 -0.42832 262.71 -1.81066 263.361C-3.11169 263.971 -3.80287 265.68 -4.12812 267.307C-4.8193 271.172 -3.72155 275.402 -1.81066 278.901C1.11665 284.311 9.81729 289.437 12.2974 281.504C14.6148 274.223 7.82509 266.86 2.70228 264.134ZM-16.9351 300.543C-19.9031 298.834 -23.5623 298.102 -26.6522 299.241C-27.3434 299.485 -28.0345 299.851 -28.4411 300.421C-29.4982 301.804 -28.8884 303.838 -27.9939 305.465C-26.4083 308.394 -23.9688 311.079 -20.9602 312.421C-17.8296 313.845 -10.9992 314.781 -9.53553 310.916C-7.99056 306.97 -13.9265 302.211 -16.8945 300.543H-16.9351ZM-14.3331 296.963C-13.154 297.939 -11.7717 298.793 -10.2674 298.956C-9.00698 299.078 -7.78727 298.671 -6.73018 298.021C-4.2501 296.515 -2.62381 293.464 -3.39629 290.657C-3.84352 289.071 -4.90061 287.728 -5.9577 286.508C-6.93347 285.369 -7.90924 284.189 -9.12896 283.294C-10.8366 282.074 -12.9101 281.464 -14.9429 281.016C-27.6686 278.087 -19.0087 293.22 -14.3737 296.963H-14.3331ZM40.2695 295.132C45.0264 295.295 49.458 291.349 50.5965 286.874C51.125 284.677 51.0437 282.318 50.0272 280.284C49.1734 278.576 47.7098 277.274 46.1242 276.175C44.3352 274.955 42.2211 273.979 40.0256 274.101C37.8301 274.223 35.5939 275.647 35.1467 277.762C34.6588 280.081 36.2445 282.277 36.895 284.596C38.196 288.705 33.6424 294.929 40.2695 295.132ZM11.6875 311.323C7.37786 312.055 3.51543 311.77 1.076 316.245C-1.36343 320.679 -0.265692 326.415 2.82425 330.402C5.71091 334.063 10.1426 336.463 14.7775 336.829C19.4124 337.195 24.1693 335.487 27.5845 332.314C28.7229 331.256 29.7393 329.995 30.959 328.978C32.5447 327.676 34.4149 326.781 36.0412 325.52C40.5541 321.9 42.0178 315.106 39.8223 309.736C37.6268 304.367 32.1381 300.665 26.4054 300.054C23.3155 299.729 19.9003 300.38 17.7454 302.617C14.9401 305.546 16.4038 310.509 11.7282 311.323H11.6875ZM102.516 264.175C101.052 263.402 99.3851 262.751 98.0027 263.402C96.7017 264.012 96.0105 265.721 95.6853 267.348C94.9941 271.212 96.0918 275.443 98.0027 278.942C100.93 284.352 109.631 289.478 112.111 281.545C114.428 274.263 107.638 266.9 102.516 264.175ZM82.8783 300.583C79.9103 298.875 76.2511 298.143 73.1612 299.282C72.47 299.526 71.7788 299.892 71.3723 300.461C70.3152 301.844 70.925 303.878 71.8195 305.506C73.4051 308.435 75.8446 311.119 78.8532 312.462C81.9838 313.886 88.8142 314.821 90.2779 310.957C91.8228 307.011 85.8869 302.251 82.9189 300.583H82.8783ZM85.4803 297.004C86.6594 297.98 88.0417 298.834 89.546 298.997C90.8064 299.119 92.0261 298.712 93.0832 298.061C95.5633 296.556 97.1896 293.505 96.4171 290.698C95.9699 289.112 94.9128 287.769 93.8557 286.549C92.8799 285.41 91.9041 284.23 90.6844 283.335C88.9768 282.115 86.9033 281.504 84.8705 281.057C72.1448 278.128 80.8047 293.261 85.4397 297.004H85.4803ZM140.083 295.173C144.84 295.336 149.271 291.39 150.41 286.915C150.938 284.718 150.857 282.359 149.841 280.325C148.987 278.616 147.523 277.314 145.938 276.216C144.149 274.996 142.034 274.019 139.839 274.141C137.643 274.263 135.407 275.687 134.96 277.803C134.472 280.121 136.058 282.318 136.708 284.637C138.05 288.745 133.456 294.97 140.083 295.173ZM111.501 311.363C107.191 312.096 103.329 311.811 100.889 316.286C98.45 320.72 99.5477 326.456 102.638 330.442C105.524 334.104 109.956 336.504 114.591 336.87C119.226 337.236 123.983 335.527 127.398 332.354C128.536 331.297 129.553 330.036 130.772 329.019C132.358 327.717 134.228 326.822 135.855 325.561C140.368 321.94 141.831 315.147 139.636 309.777C137.44 304.407 131.951 300.705 126.219 300.095C123.129 299.77 119.714 300.421 117.559 302.658C114.753 305.587 116.217 310.55 111.542 311.363H111.501ZM199.768 264.216C198.304 263.443 196.637 262.792 195.255 263.443C193.954 264.053 193.263 265.761 192.937 267.389C192.246 271.253 193.344 275.484 195.255 278.982C198.182 284.393 206.883 289.518 209.363 281.586C211.68 274.304 204.89 266.941 199.768 264.216ZM180.13 300.624C177.162 298.915 173.503 298.183 170.413 299.322C169.722 299.566 169.031 299.932 168.624 300.502C167.567 301.885 168.177 303.919 169.071 305.546C170.657 308.475 173.097 311.16 176.105 312.503C179.236 313.926 186.066 314.862 187.53 310.997C189.034 307.051 183.139 302.292 180.171 300.624H180.13ZM182.732 297.044C183.911 298.021 185.294 298.875 186.798 299.037C188.058 299.16 189.278 298.753 190.335 298.102C192.815 296.597 194.442 293.546 193.669 290.739C193.222 289.152 192.165 287.81 191.108 286.589C190.132 285.45 189.156 284.271 187.936 283.376C186.229 282.155 184.155 281.545 182.122 281.098C169.356 278.169 178.057 293.302 182.692 297.044H182.732ZM237.335 295.214C242.092 295.376 246.523 291.43 247.662 286.956C248.19 284.759 248.109 282.399 247.093 280.365C246.239 278.657 244.775 277.355 243.19 276.257C241.401 275.036 239.286 274.06 237.091 274.182C234.895 274.304 232.659 275.728 232.212 277.843C231.724 280.162 233.31 282.359 233.96 284.677C235.261 288.786 230.708 295.01 237.335 295.214ZM208.753 311.404C204.443 312.136 200.581 311.852 198.141 316.326C195.702 320.761 196.8 326.496 199.89 330.483C202.776 334.144 207.208 336.544 211.843 336.91C216.478 337.277 221.235 335.568 224.65 332.395C225.788 331.337 226.805 330.076 228.024 329.059C229.61 327.757 231.48 326.863 233.107 325.601C237.62 321.981 239.083 315.187 236.888 309.818C234.692 304.448 229.203 300.746 223.471 300.136C220.381 299.81 216.966 300.461 214.811 302.699C212.005 305.628 213.469 310.591 208.794 311.404H208.753ZM299.581 264.256C298.117 263.483 296.45 262.832 295.068 263.483C293.767 264.093 293.076 265.802 292.751 267.429C292.06 271.294 293.157 275.525 295.068 279.023C297.995 284.433 306.696 289.559 309.176 281.626C311.494 274.345 304.704 266.982 299.581 264.256ZM279.944 300.665C276.976 298.956 273.317 298.224 270.227 299.363C269.535 299.607 268.844 299.973 268.438 300.543C267.381 301.926 267.99 303.96 268.885 305.587C270.471 308.516 272.91 311.201 275.919 312.543C279.049 313.967 285.88 314.903 287.343 311.038C288.888 307.092 282.952 302.333 279.984 300.665H279.944ZM282.546 297.085C283.725 298.061 285.107 298.915 286.611 299.078C287.872 299.2 289.092 298.793 290.149 298.143C292.629 296.637 294.255 293.586 293.483 290.779C293.035 289.193 291.978 287.851 290.921 286.63C289.945 285.491 288.97 284.311 287.75 283.416C286.042 282.196 283.969 281.586 281.936 281.138C269.21 278.209 277.87 293.342 282.505 297.085H282.546ZM337.148 295.254C341.905 295.417 346.337 291.471 347.475 286.996C348.004 284.8 347.922 282.44 346.906 280.406C346.052 278.698 344.589 277.396 343.003 276.297C341.214 275.077 339.1 274.101 336.904 274.223C334.709 274.345 332.473 275.769 332.026 277.884C331.538 280.203 333.123 282.399 333.774 284.718C335.075 288.827 330.521 295.051 337.148 295.254ZM308.566 311.445C304.257 312.177 300.394 311.892 297.955 316.367C295.515 320.801 296.613 326.537 299.703 330.524C302.59 334.185 307.021 336.585 311.656 336.951C316.291 337.317 321.048 335.609 324.463 332.436C325.602 331.378 326.618 330.117 327.838 329.1C329.423 327.798 331.294 326.903 332.92 325.642C337.433 322.022 338.897 315.228 336.701 309.858C334.506 304.489 329.017 300.787 323.284 300.177C320.194 299.851 316.779 300.502 314.624 302.739C311.819 305.668 313.283 310.631 308.607 311.445H308.566ZM2.70228 88.7632C1.23863 87.9903 -0.42832 87.3394 -1.81066 87.9903C-3.11169 88.6005 -3.80287 90.309 -4.12812 91.9362C-4.8193 95.8008 -3.72155 100.032 -1.81066 103.53C1.11665 108.94 9.81729 114.066 12.2974 106.133C14.6148 98.8518 7.82509 91.4887 2.70228 88.7632ZM-16.9351 125.172C-19.9031 123.463 -23.5623 122.731 -26.6522 123.87C-27.3434 124.114 -28.0345 124.48 -28.4411 125.05C-29.4982 126.433 -28.8884 128.467 -27.9939 130.094C-26.4083 133.023 -23.9688 135.708 -20.9602 137.05C-17.8296 138.474 -10.9992 139.41 -9.53553 135.545C-7.99056 131.599 -13.9265 126.84 -16.8945 125.172H-16.9351ZM-14.3331 121.592C-13.154 122.568 -11.7717 123.422 -10.2674 123.585C-9.00698 123.707 -7.78727 123.3 -6.73018 122.65C-4.2501 121.144 -2.62381 118.093 -3.39629 115.286C-3.84352 113.7 -4.90061 112.358 -5.9577 111.137C-6.93347 109.998 -7.90924 108.818 -9.12896 107.923C-10.8366 106.703 -12.9101 106.093 -14.9429 105.645C-27.6686 102.716 -19.0087 117.849 -14.3737 121.592H-14.3331ZM40.2695 119.761C45.0264 119.924 49.458 115.978 50.5965 111.503C51.125 109.307 51.0437 106.947 50.0272 104.913C49.1734 103.205 47.7098 101.903 46.1242 100.804C44.3352 99.584 42.2211 98.6077 40.0256 98.7298C37.8301 98.8518 35.5939 100.276 35.1467 102.391C34.6588 104.71 36.2445 106.906 36.895 109.225C38.196 113.334 33.6424 119.558 40.2695 119.761ZM11.6875 135.952C7.37786 136.684 3.51543 136.399 1.076 140.874C-1.36343 145.308 -0.265692 151.044 2.82425 155.031C5.71091 158.692 10.1426 161.092 14.7775 161.458C19.4124 161.824 24.1693 160.116 27.5845 156.943C28.7229 155.844 29.7393 154.624 30.959 153.607C32.5447 152.305 34.4149 151.41 36.0412 150.149C40.5541 146.529 42.0178 139.735 39.8223 134.365C37.6268 128.996 32.1381 125.294 26.4054 124.684C23.3155 124.358 19.9003 125.009 17.7454 127.246C14.9401 130.175 16.4038 135.138 11.7282 135.952H11.6875ZM102.516 88.8039C101.052 88.0309 99.3851 87.3801 98.0027 88.0309C96.7017 88.6411 96.0105 90.3497 95.6853 91.9769C94.9941 95.8415 96.0918 100.072 98.0027 103.571C100.93 108.981 109.631 114.107 112.111 106.174C114.428 98.8925 107.638 91.5294 102.516 88.8039ZM82.8783 125.212C79.9103 123.504 76.2511 122.772 73.1612 123.911C72.47 124.155 71.7788 124.521 71.3723 125.09C70.3152 126.473 70.925 128.507 71.8195 130.135C73.4051 133.064 75.8446 135.748 78.8532 137.091C81.9838 138.515 88.8142 139.45 90.2779 135.586C91.8228 131.64 85.8869 126.88 82.9189 125.212H82.8783ZM85.4803 121.633C86.6594 122.609 88.0417 123.463 89.546 123.626C90.8064 123.748 92.0261 123.341 93.0832 122.69C95.5633 121.185 97.1896 118.134 96.4171 115.327C95.9699 113.741 94.9128 112.398 93.8557 111.178C92.8799 110.039 91.9041 108.859 90.6844 107.964C88.9768 106.744 86.9033 106.133 84.8705 105.686C72.1448 102.757 80.8047 117.89 85.4397 121.633H85.4803ZM140.083 119.802C144.84 119.965 149.271 116.019 150.41 111.544C150.938 109.347 150.857 106.988 149.841 104.954C148.987 103.245 147.523 101.943 145.938 100.845C144.149 99.6247 142.034 98.6484 139.839 98.7704C137.643 98.8925 135.407 100.316 134.96 102.432C134.472 104.75 136.058 106.947 136.708 109.266C138.05 113.375 133.456 119.599 140.083 119.802ZM111.501 135.993C107.191 136.725 103.329 136.44 100.889 140.915C98.45 145.349 99.5477 151.085 102.638 155.071C105.524 158.733 109.956 161.133 114.591 161.499C119.226 161.865 123.983 160.156 127.398 156.983C128.536 155.885 129.553 154.665 130.772 153.648C132.358 152.346 134.228 151.451 135.855 150.19C140.368 146.569 141.831 139.776 139.636 134.406C137.44 129.036 131.951 125.334 126.219 124.724C123.129 124.399 119.714 125.05 117.559 127.287C114.753 130.216 116.217 135.179 111.542 135.993H111.501ZM199.768 88.8445C198.304 88.0716 196.637 87.4207 195.255 88.0716C193.954 88.6818 193.263 90.3904 192.937 92.0176C192.246 95.8822 193.344 100.113 195.255 103.611C198.182 109.022 206.883 114.147 209.363 106.215C211.68 98.9332 204.89 91.5701 199.768 88.8445ZM180.13 125.253C177.162 123.544 173.503 122.812 170.413 123.951C169.722 124.195 169.031 124.561 168.624 125.131C167.567 126.514 168.177 128.548 169.071 130.175C170.657 133.104 173.097 135.789 176.105 137.132C179.236 138.555 186.066 139.491 187.53 135.626C189.034 131.68 183.139 126.921 180.171 125.253H180.13ZM182.732 121.673C183.911 122.65 185.294 123.504 186.798 123.667C188.058 123.789 189.278 123.382 190.335 122.731C192.815 121.226 194.442 118.175 193.669 115.368C193.222 113.781 192.165 112.439 191.108 111.218C190.132 110.079 189.156 108.9 187.936 108.005C186.229 106.784 184.155 106.174 182.122 105.727C169.356 102.798 178.057 117.931 182.692 121.673H182.732ZM237.335 119.843C242.092 120.005 246.523 116.059 247.662 111.585C248.19 109.388 248.109 107.028 247.093 104.994C246.239 103.286 244.775 101.984 243.19 100.886C241.401 99.6654 239.286 98.6891 237.091 98.8111C234.895 98.9332 232.659 100.357 232.212 102.472C231.724 104.791 233.31 106.988 233.96 109.307C235.261 113.415 230.708 119.639 237.335 119.843ZM208.753 136.033C204.443 136.765 200.581 136.481 198.141 140.955C195.702 145.39 196.8 151.125 199.89 155.112C202.776 158.773 207.208 161.173 211.843 161.539C216.478 161.906 221.235 160.197 224.65 157.024C225.788 155.926 226.805 154.705 228.024 153.688C229.61 152.387 231.48 151.492 233.107 150.23C237.62 146.61 239.083 139.816 236.888 134.447C234.692 129.077 229.203 125.375 223.471 124.765C220.381 124.439 216.966 125.09 214.811 127.328C212.005 130.257 213.469 135.22 208.794 136.033H208.753ZM299.581 88.8852C298.117 88.1123 296.45 87.4614 295.068 88.1123C293.767 88.7225 293.076 90.4311 292.751 92.0583C292.06 95.9228 293.157 100.154 295.068 103.652C297.995 109.062 306.696 114.188 309.176 106.256C311.494 98.9738 304.704 91.6108 299.581 88.8852ZM279.944 125.294C276.976 123.585 273.317 122.853 270.227 123.992C269.535 124.236 268.844 124.602 268.438 125.172C267.381 126.555 267.99 128.589 268.885 130.216C270.471 133.145 272.91 135.83 275.919 137.172C279.049 138.596 285.88 139.532 287.343 135.667C288.888 131.721 282.952 126.962 279.984 125.294H279.944ZM282.546 121.714C283.725 122.69 285.107 123.544 286.611 123.707C287.872 123.829 289.092 123.422 290.149 122.772C292.629 121.266 294.255 118.215 293.483 115.409C293.035 113.822 291.978 112.48 290.921 111.259C289.945 110.12 288.97 108.94 287.75 108.045C286.042 106.825 283.969 106.215 281.936 105.767C269.21 102.838 277.87 117.971 282.505 121.714H282.546ZM337.148 119.883C341.905 120.046 346.337 116.1 347.475 111.625C348.004 109.429 347.922 107.069 346.906 105.035C346.052 103.327 344.589 102.025 343.003 100.926C341.214 99.7061 339.1 98.7298 336.904 98.8518C334.709 98.9738 332.473 100.398 332.026 102.513C331.538 104.832 333.123 107.028 333.774 109.347C335.075 113.456 330.521 119.68 337.148 119.883ZM308.566 136.074C304.257 136.806 300.394 136.521 297.955 140.996C295.515 145.43 296.613 151.166 299.703 155.153C302.59 158.814 307.021 161.214 311.656 161.58C316.291 161.946 321.048 160.238 324.463 157.065C325.602 155.966 326.618 154.746 327.838 153.729C329.423 152.427 331.294 151.532 332.92 150.271C337.433 146.651 338.897 139.857 336.701 134.487C334.506 129.118 329.017 125.416 323.284 124.806C320.194 124.48 316.779 125.131 314.624 127.368C311.819 130.297 313.283 135.26 308.607 136.074H308.566ZM370.731 189.69C373.211 197.623 381.912 192.538 384.839 187.086C386.75 183.588 387.807 179.357 387.157 175.493C386.872 173.825 386.14 172.198 384.839 171.547C383.457 170.855 381.79 171.547 380.326 172.32C375.244 175.005 368.454 182.368 370.731 189.69ZM392.564 219.102C394.028 222.966 400.858 222.03 403.989 220.607C407.038 219.224 409.437 216.579 411.022 213.65C411.876 212.023 412.486 209.989 411.47 208.606C411.022 208.037 410.372 207.67 409.681 207.426C406.591 206.328 402.932 206.979 399.964 208.728C397.036 210.437 391.141 215.196 392.605 219.102H392.564ZM397.971 189.161C395.939 189.609 393.824 190.219 392.157 191.439C390.938 192.293 389.962 193.473 388.986 194.653C387.929 195.914 386.831 197.256 386.425 198.802C385.652 201.609 387.279 204.66 389.759 206.165C390.816 206.816 392.076 207.223 393.296 207.101C394.8 206.938 396.183 206.084 397.362 205.108C401.997 201.365 410.656 186.273 397.931 189.161H397.971ZM346.134 192.782C346.865 190.504 348.451 188.307 347.882 185.947C347.435 183.832 345.198 182.408 343.003 182.286C340.807 182.164 338.734 183.14 336.904 184.361C335.319 185.419 333.855 186.761 333.001 188.47C331.985 190.463 331.904 192.863 332.432 195.06C333.57 199.534 338.043 203.44 342.759 203.318C349.386 203.155 344.833 196.89 346.134 192.782ZM365.364 210.803C363.21 208.525 359.835 207.915 356.704 208.24C350.972 208.81 345.442 212.552 343.288 217.922C341.092 223.292 342.515 230.085 347.069 233.706C348.654 234.967 350.565 235.862 352.151 237.163C353.371 238.18 354.387 239.441 355.525 240.499C358.9 243.713 363.697 245.381 368.332 245.015C372.967 244.648 377.44 242.248 380.286 238.587C383.376 234.601 384.473 228.865 382.034 224.431C379.594 219.956 375.691 220.2 371.422 219.508C366.665 218.735 368.17 213.772 365.405 210.803H365.364ZM270.918 189.69C273.398 197.623 282.098 192.538 285.026 187.086C286.937 183.588 287.994 179.357 287.343 175.493C287.059 173.825 286.327 172.198 285.026 171.547C283.643 170.855 281.977 171.547 280.513 172.32C275.431 175.005 268.641 182.368 270.918 189.69ZM292.751 219.102C294.214 222.966 301.045 222.03 304.175 220.607C307.225 219.224 309.623 216.579 311.209 213.65C312.063 212.023 312.673 209.989 311.656 208.606C311.209 208.037 310.559 207.67 309.867 207.426C306.777 206.328 303.118 206.979 300.15 208.728C297.223 210.437 291.328 215.196 292.791 219.102H292.751ZM298.158 189.161C296.125 189.609 294.011 190.219 292.344 191.439C291.124 192.293 290.149 193.473 289.173 194.653C288.116 195.914 287.018 197.256 286.611 198.802C285.839 201.609 287.465 204.66 289.945 206.165C291.043 206.816 292.263 207.223 293.483 207.101C294.987 206.938 296.369 206.084 297.548 205.108C302.183 201.365 310.843 186.273 298.117 189.161H298.158ZM246.28 192.782C247.011 190.504 248.597 188.307 248.028 185.947C247.581 183.832 245.344 182.408 243.149 182.286C240.953 182.164 238.88 183.14 237.05 184.361C235.465 185.419 234.001 186.761 233.147 188.47C232.131 190.463 232.049 192.863 232.578 195.06C233.716 199.534 238.189 203.44 242.905 203.318C249.573 203.155 245.019 196.89 246.28 192.782ZM265.551 210.803C263.396 208.525 260.022 207.915 256.891 208.24C251.158 208.81 245.629 212.552 243.474 217.922C241.279 223.292 242.702 230.085 247.255 233.706C248.841 234.967 250.752 235.862 252.337 237.163C253.557 238.18 254.574 239.441 255.712 240.499C259.087 243.713 263.884 245.381 268.478 245.015C273.113 244.648 277.586 242.248 280.432 238.587C283.521 234.601 284.619 228.865 282.18 224.431C279.74 219.956 275.878 220.2 271.568 219.508C266.811 218.735 268.316 213.772 265.551 210.803ZM173.747 189.69C176.227 197.623 184.928 192.538 187.855 187.086C189.766 183.588 190.823 179.357 190.173 175.493C189.888 173.825 189.156 172.198 187.855 171.547C186.473 170.855 184.806 171.547 183.342 172.32C178.219 175.005 171.47 182.368 173.747 189.69ZM195.539 219.102C197.003 222.966 203.833 222.03 206.964 220.607C210.013 219.224 212.412 216.579 213.998 213.65C214.851 212.023 215.461 209.989 214.445 208.606C213.998 208.037 213.347 207.67 212.656 207.426C209.566 206.328 205.907 206.979 202.939 208.728C200.012 210.437 194.116 215.196 195.58 219.102H195.539ZM200.947 189.161C198.914 189.609 196.8 190.219 195.133 191.439C193.913 192.293 192.937 193.473 191.961 194.653C190.904 195.914 189.807 197.256 189.4 198.802C188.628 201.609 190.254 204.66 192.734 206.165C193.791 206.816 195.051 207.223 196.271 207.101C197.775 206.938 199.158 206.084 200.337 205.108C204.972 201.365 213.632 186.273 200.906 189.161H200.947ZM149.109 192.782C149.841 190.504 151.426 188.307 150.857 185.947C150.41 183.832 148.174 182.408 145.978 182.286C143.783 182.164 141.709 183.14 139.88 184.361C138.294 185.419 136.83 186.761 135.977 188.47C134.96 190.463 134.879 192.863 135.407 195.06C136.546 199.534 141.018 203.44 145.734 203.318C152.361 203.155 147.808 196.89 149.109 192.782ZM168.34 210.803C166.185 208.525 162.81 207.915 159.68 208.24C153.947 208.81 148.418 212.552 146.263 217.922C144.067 223.292 145.49 230.085 150.044 233.706C151.63 234.967 153.54 235.862 155.126 237.163C156.346 238.18 157.362 239.441 158.501 240.499C161.875 243.713 166.673 245.381 171.308 245.015C175.943 244.648 180.415 242.248 183.261 238.587C186.351 234.601 187.449 228.865 185.009 224.431C182.57 219.956 178.667 220.2 174.398 219.508C169.681 218.735 171.145 213.772 168.38 210.803H168.34ZM73.893 189.69C76.3731 197.623 85.0737 192.538 88.0011 187.086C89.9119 183.588 90.969 179.357 90.3185 175.493C90.0339 173.825 89.3021 172.198 88.0011 171.547C86.6187 170.855 84.9518 171.547 83.4881 172.32C78.406 175.005 71.6162 182.368 73.893 189.69ZM95.7259 219.102C97.1896 222.966 104.02 222.03 107.151 220.607C110.2 219.224 112.599 216.579 114.184 213.65C115.038 212.023 115.648 209.989 114.632 208.606C114.184 208.037 113.534 207.67 112.843 207.426C109.753 206.328 106.094 206.979 103.126 208.728C100.198 210.437 94.3029 215.196 95.7666 219.102H95.7259ZM101.133 189.161C99.1005 189.609 96.9863 190.219 95.3194 191.439C94.0996 192.293 93.1239 193.473 92.1481 194.653C91.091 195.914 89.9933 197.256 89.5867 198.802C88.8142 201.609 90.4405 204.66 92.9206 206.165C94.0183 206.816 95.238 207.223 96.4577 207.101C97.9621 206.938 99.3444 206.084 100.523 205.108C105.158 201.365 113.818 186.273 101.093 189.161H101.133ZM49.2548 192.782C49.9866 190.504 51.5722 188.307 51.003 185.947C50.5558 183.832 48.3196 182.408 46.1242 182.286C43.9287 182.164 41.8552 183.14 40.0256 184.361C38.4399 185.419 36.9763 186.761 36.1225 188.47C35.1061 190.463 35.0247 192.863 35.5533 195.06C36.6917 199.534 41.164 203.44 45.8802 203.318C52.548 203.155 47.9944 196.89 49.2548 192.782ZM68.5263 210.803C66.3714 208.525 62.9969 207.915 59.8663 208.24C54.1336 208.81 48.6042 212.552 46.4494 217.922C44.2539 223.292 45.6769 230.085 50.2305 233.706C51.8162 234.967 53.7271 235.862 55.3127 237.163C56.5324 238.18 57.5488 239.441 58.6872 240.499C62.0618 243.713 66.8593 245.381 71.4942 245.015C76.1292 244.648 80.6015 242.248 83.4475 238.587C86.5374 234.601 87.6351 228.865 85.1957 224.431C82.7563 219.956 78.8939 220.2 74.5842 219.508C69.8273 218.735 71.3316 213.772 68.5669 210.803H68.5263ZM370.609 18.4277C373.089 26.3602 381.79 21.2753 384.717 15.8242C386.628 12.3257 387.685 8.09498 387.035 4.23039C386.75 2.56252 386.018 0.935323 384.717 0.284445C383.335 -0.407113 381.668 0.284445 380.204 1.05736C375.122 3.74223 368.332 11.1053 370.609 18.4277ZM392.442 47.8392C393.906 51.7038 400.736 50.7682 403.867 49.3444C406.916 47.9613 409.315 45.3171 410.9 42.3881C411.754 40.7609 412.364 38.7269 411.348 37.3438C410.9 36.7743 410.25 36.4082 409.559 36.1641C406.469 35.0657 402.81 35.7166 399.842 37.4659C396.914 39.2151 391.019 43.934 392.483 47.8392H392.442ZM397.849 17.8988C395.817 18.3463 393.702 18.9565 392.036 20.1769C390.816 21.0312 389.84 22.2109 388.864 23.3906C387.807 24.6517 386.709 25.9941 386.303 27.54C385.53 30.3469 387.157 33.3979 389.637 34.903C390.694 35.5539 391.954 35.9607 393.174 35.8387C394.678 35.6759 396.061 34.8217 397.24 33.8453C401.875 30.1028 410.535 15.0106 397.809 17.8988H397.849ZM346.012 21.5193C346.743 19.2413 348.329 17.0446 347.76 14.6851C347.313 12.5698 345.076 11.146 342.881 11.0239C340.685 10.9019 338.612 11.8782 336.782 13.0986C335.197 14.1563 333.733 15.4987 332.879 17.2073C331.863 19.2006 331.782 21.6007 332.31 23.7974C333.448 28.2722 337.921 32.1775 342.637 32.0554C349.264 31.8927 344.711 25.628 346.012 21.5193ZM365.242 39.5405C363.088 37.2625 359.713 36.6523 356.582 36.9777C350.85 37.5472 345.32 41.2898 343.166 46.6595C340.97 52.0292 342.393 58.8228 346.947 62.4433C348.532 63.7044 350.443 64.5993 352.029 65.9011C353.249 66.9181 354.265 68.1792 355.403 69.2368C358.778 72.4506 363.575 74.1184 368.21 73.7523C372.845 73.3862 377.318 70.9861 380.164 67.3249C383.254 63.3383 384.351 57.6024 381.912 53.1683C379.472 48.6935 375.569 48.9376 371.3 48.246C366.543 47.4731 368.048 42.5102 365.283 39.5405H365.242ZM270.796 18.4277C273.276 26.3602 281.977 21.2753 284.904 15.8242C286.815 12.3257 287.872 8.09498 287.221 4.23039C286.937 2.56252 286.205 0.935323 284.904 0.284445C283.521 -0.407113 281.855 0.284445 280.391 1.05736C275.309 3.74223 268.519 11.1053 270.796 18.4277ZM292.629 47.8392C294.092 51.7038 300.923 50.7682 304.053 49.3444C307.103 47.9613 309.501 45.3171 311.087 42.3881C311.941 40.7609 312.551 38.7269 311.534 37.3438C311.087 36.7743 310.437 36.4082 309.745 36.1641C306.655 35.0657 302.996 35.7166 300.028 37.4659C297.101 39.2151 291.206 43.934 292.669 47.8392H292.629ZM298.036 17.8988C296.003 18.3463 293.889 18.9565 292.222 20.1769C291.002 21.0312 290.027 22.2109 289.051 23.3906C287.994 24.6517 286.896 25.9941 286.489 27.54C285.717 30.3469 287.343 33.3979 289.823 34.903C290.921 35.5539 292.141 35.9607 293.361 35.8387C294.865 35.6759 296.247 34.8217 297.426 33.8453C302.061 30.1028 310.721 15.0106 297.995 17.8988H298.036ZM246.158 21.5193C246.889 19.2413 248.475 17.0446 247.906 14.6851C247.459 12.5698 245.222 11.146 243.027 11.0239C240.831 10.9019 238.758 11.8782 236.928 13.0986C235.343 14.1563 233.879 15.4987 233.025 17.2073C232.009 19.2006 231.928 21.6007 232.456 23.7974C233.594 28.2722 238.067 32.1775 242.783 32.0554C249.451 31.8927 244.897 25.628 246.158 21.5193ZM265.429 39.5405C263.274 37.2625 259.9 36.6523 256.769 36.9777C251.036 37.5472 245.507 41.2898 243.352 46.6595C241.157 52.0292 242.58 58.8228 247.133 62.4433C248.719 63.7044 250.63 64.5993 252.215 65.9011C253.435 66.9181 254.452 68.1792 255.59 69.2368C258.965 72.4506 263.762 74.1184 268.356 73.7523C272.991 73.3862 277.464 70.9861 280.31 67.3249C283.4 63.3383 284.497 57.6024 282.058 53.1683C279.618 48.6935 275.756 48.9376 271.446 48.246C266.689 47.4731 268.194 42.5102 265.429 39.5405ZM173.625 18.4277C176.105 26.3602 184.806 21.2753 187.733 15.8242C189.644 12.3257 190.701 8.09498 190.051 4.23039C189.766 2.56252 189.034 0.935323 187.733 0.284445C186.351 -0.407113 184.684 0.284445 183.22 1.05736C178.097 3.74223 171.348 11.1053 173.625 18.4277ZM195.417 47.8392C196.881 51.7038 203.711 50.7682 206.842 49.3444C209.891 47.9613 212.29 45.3171 213.876 42.3881C214.73 40.7609 215.339 38.7269 214.323 37.3438C213.876 36.7743 213.225 36.4082 212.534 36.1641C209.444 35.0657 205.785 35.7166 202.817 37.4659C199.89 39.2151 193.994 43.934 195.458 47.8392H195.417ZM200.825 17.8988C198.792 18.3463 196.678 18.9565 195.011 20.1769C193.791 21.0312 192.815 22.2109 191.84 23.3906C190.782 24.6517 189.685 25.9941 189.278 27.54C188.506 30.3469 190.132 33.3979 192.612 34.903C193.669 35.5539 194.929 35.9607 196.149 35.8387C197.653 35.6759 199.036 34.8217 200.215 33.8453C204.85 30.1028 213.51 15.0106 200.784 17.8988H200.825ZM148.987 21.5193C149.719 19.2413 151.304 17.0446 150.735 14.6851C150.288 12.5698 148.052 11.146 145.856 11.0239C143.661 10.9019 141.587 11.8782 139.758 13.0986C138.172 14.1563 136.708 15.4987 135.855 17.2073C134.838 19.2006 134.757 21.6007 135.285 23.7974C136.424 28.2722 140.896 32.1775 145.612 32.0554C152.239 31.8927 147.686 25.628 148.987 21.5193ZM168.218 39.5405C166.063 37.2625 162.688 36.6523 159.558 36.9777C153.825 37.5472 148.296 41.2898 146.141 46.6595C143.945 52.0292 145.368 58.8228 149.922 62.4433C151.508 63.7044 153.418 64.5993 155.004 65.9011C156.224 66.9181 157.24 68.1792 158.379 69.2368C161.753 72.4506 166.551 74.1184 171.186 73.7523C175.821 73.3862 180.293 70.9861 183.139 67.3249C186.229 63.3383 187.327 57.6024 184.887 53.1683C182.448 48.6935 178.545 48.9376 174.276 48.246C169.559 47.4731 171.023 42.5102 168.258 39.5405H168.218ZM73.771 18.4277C76.2511 26.3602 84.9518 21.2753 87.8791 15.8242C89.79 12.3257 90.8471 8.09498 90.1965 4.23039C89.9119 2.56252 89.1801 0.935323 87.8791 0.284445C86.4967 -0.407113 84.8298 0.284445 83.3661 1.05736C78.284 3.74223 71.4942 11.1053 73.771 18.4277ZM95.604 47.8392C97.0676 51.7038 103.898 50.7682 107.029 49.3444C110.078 47.9613 112.477 45.3171 114.062 42.3881C114.916 40.7609 115.526 38.7269 114.51 37.3438C114.062 36.7743 113.412 36.4082 112.721 36.1641C109.631 35.0657 105.972 35.7166 103.004 37.4659C100.076 39.2151 94.181 43.934 95.6446 47.8392H95.604ZM101.011 17.8988C98.9785 18.3463 96.8643 18.9565 95.1974 20.1769C93.9777 21.0312 93.0019 22.2109 92.0261 23.3906C90.969 24.6517 89.8713 25.9941 89.4647 27.54C88.6922 30.3469 90.3185 33.3979 92.7986 34.903C93.8963 35.5539 95.1161 35.9607 96.3358 35.8387C97.8401 35.6759 99.2224 34.8217 100.402 33.8453C105.036 30.1028 113.696 15.0106 100.971 17.8988H101.011ZM49.1328 21.5193C49.8646 19.2413 51.4502 17.0446 50.8811 14.6851C50.4338 12.5698 48.1977 11.146 46.0022 11.0239C43.8067 10.9019 41.7332 11.8782 39.9036 13.0986C38.318 14.1563 36.8543 15.4987 36.0005 17.2073C34.9841 19.2006 34.9028 21.6007 35.4313 23.7974C36.5697 28.2722 41.042 32.1775 45.7582 32.0554C52.426 31.8927 47.8724 25.628 49.1328 21.5193ZM74.4216 48.2053C78.7312 48.9376 82.5937 48.6528 85.0331 53.1276C87.4725 57.5617 86.3748 63.2976 83.2848 67.2842C80.3982 70.9454 75.9665 73.3455 71.3316 73.7116C66.6967 74.0777 61.9398 72.3692 58.5246 69.1962C57.3862 68.1385 56.3698 66.8774 55.15 65.8604C53.5644 64.5587 51.6942 63.6637 50.0679 62.4026C45.555 58.7821 44.0913 51.9886 46.2868 46.6188C48.4823 41.2491 53.971 37.5472 59.7037 36.937C62.7936 36.6116 66.2088 37.2625 68.3636 39.4998C71.169 42.4288 69.6647 47.3917 74.3809 48.2053H74.4216Z" fill="url(#paint0_linear_4359_14475)"/>
<defs>
<linearGradient id="paint0_linear_4359_14475" x1="4.42685" y1="-11.6991" x2="399.86" y2="243.351" gradientUnits="userSpaceOnUse">
<stop stop-color="#C62D80"/>
<stop offset="1" stop-color="#7CDAEC"/>
</linearGradient>
</defs>
</svg>
