<svg width="744" height="744" viewBox="0 0 744 744" fill="none" xmlns="http://www.w3.org/2000/svg">
<g opacity="0.1">
<path d="M717.447 390.556C713.677 385.366 710.86 379.531 709.128 373.393C713.297 377.542 719.655 377.788 725.309 377.485C723.577 382.221 721.102 386.711 717.961 390.708C717.789 390.67 717.618 390.613 717.447 390.575M708.366 369.945C707.776 365.342 709.547 360.568 713.335 357.764C716.781 355.187 721.445 354.714 725.442 356.154C725.309 357.518 725.442 358.938 725.918 360.302C726.166 360.984 726.68 361.325 727.232 361.439C726.984 362.235 726.813 363.011 726.775 363.807C726.699 363.845 726.642 363.902 726.604 363.94C725.709 364.698 725.119 365.588 724.814 366.554C719.579 367.35 714.401 368.467 709.318 369.926C708.937 370.021 708.633 370.229 708.423 370.513C708.423 370.476 708.385 370.419 708.385 370.381C708.385 370.286 708.385 370.116 708.347 369.964L708.366 369.945ZM707.129 353.501C707.034 351.512 706.843 349.485 706.405 347.534C706.31 346.985 705.13 343.177 704.578 342.116C704.825 342.249 705.054 342.362 705.396 342.4C711.05 342.949 716.99 344.143 721.616 347.686C723.481 349.125 724.89 350.811 725.899 352.668C721.14 351.19 715.753 351.815 711.66 354.771C709.908 356.04 708.423 357.65 707.281 359.469C707.243 357.518 707.243 355.529 707.148 353.539L707.129 353.501ZM717.58 409.918C716.381 405.219 716.4 400.37 717.656 395.747C717.999 395.709 718.341 395.539 718.665 395.198C725.157 387.885 729.497 378.792 730.906 369.112C731.077 367.975 731.21 366.819 731.325 365.683C732.562 365.55 733.876 365.683 735.056 365.815C737.226 366.118 738.159 362.803 735.989 362.519C734.58 362.311 733.019 362.178 731.496 362.235C731.496 361.591 731.496 360.965 731.458 360.34C733.933 357.215 739.282 355.566 742.766 354.771C744.936 354.297 744.003 350.963 741.833 351.474C738.007 352.365 733.895 353.464 730.868 356.04C730.734 355.491 730.582 354.903 730.411 354.354C730.278 353.899 730.106 353.501 729.935 353.047C732.181 349.656 737.074 347.42 740.519 346.018C742.556 345.185 741.662 341.87 739.587 342.722C735.646 344.295 731.42 345.981 728.545 349.239C728.374 346.587 729.44 343.878 731.096 341.851C733.609 338.763 737.264 336.906 740.824 335.22C742.88 334.292 741.109 331.299 739.149 332.265C734.732 334.33 730.24 336.868 727.498 341.017C726.432 342.665 725.671 344.484 725.366 346.378C724.3 345.355 723.082 344.427 721.806 343.631C716.914 340.581 711.108 339.483 705.416 338.933H705.035C704.654 338.554 704.102 338.346 703.455 338.516C701.246 339.028 700.599 341.301 701.246 343.29C701.627 344.389 702.255 345.393 702.598 346.492C702.979 347.591 703.226 348.727 703.398 349.883C704.159 354.903 703.569 360.037 704.083 365.095C705.111 374.946 708.709 384.381 714.534 392.413C714.667 392.584 714.82 392.754 714.991 392.868C712.992 398.665 712.783 404.878 714.306 410.865C714.896 412.949 718.208 412.058 717.656 409.899L717.58 409.918Z" fill="url(#paint0_linear_4407_35889)"/>
<path d="M704.813 466.788C702.284 460.893 700.826 454.58 700.493 448.211C703.642 453.178 709.788 454.823 715.37 455.777C712.633 460.013 709.227 463.845 705.28 467.049C705.122 466.974 704.967 466.881 704.808 466.806M700.512 444.68C700.954 440.06 703.736 435.795 708.05 433.897C711.98 432.146 716.633 432.715 720.214 435.002C719.783 436.303 719.599 437.718 719.761 439.153C719.852 439.873 720.278 440.319 720.791 440.552C720.374 441.273 720.035 441.993 719.822 442.761C719.74 442.781 719.671 442.824 719.626 442.852C718.586 443.394 717.813 444.132 717.303 445.007C712.021 444.626 706.724 444.572 701.445 444.872C701.052 444.88 700.709 445.016 700.442 445.247C700.451 445.21 700.426 445.146 700.434 445.109C700.455 445.017 700.493 444.85 700.489 444.694L700.512 444.68ZM702.94 428.369C703.286 426.408 703.549 424.389 703.553 422.389C703.582 421.833 703.272 417.858 702.968 416.702C703.18 416.886 703.378 417.047 703.704 417.16C709.096 418.945 714.625 421.421 718.354 425.898C719.855 427.714 720.856 429.67 721.43 431.703C717.115 429.211 711.723 428.63 707.078 430.608C705.089 431.459 703.285 432.701 701.769 434.223C702.163 432.311 702.603 430.371 702.95 428.41L702.94 428.369ZM700.664 485.7C700.532 480.853 701.623 476.127 703.87 471.897C704.212 471.935 704.584 471.845 704.975 471.584C712.922 465.886 719.165 457.977 722.679 448.847C723.097 447.776 723.482 446.678 723.845 445.595C725.081 445.739 726.333 446.159 727.455 446.549C729.504 447.324 731.147 444.297 729.093 443.54C727.765 443.026 726.272 442.551 724.774 442.27C724.916 441.642 725.055 441.032 725.156 440.414C728.26 437.913 733.841 437.487 737.415 437.481C739.636 437.498 739.463 434.04 737.234 434.06C733.305 434.083 729.052 434.246 725.531 436.09C725.522 435.525 725.503 434.918 725.458 434.345C725.428 433.872 725.349 433.446 725.282 432.965C728.223 430.154 733.488 429.055 737.159 428.449C739.329 428.086 739.189 424.655 736.977 425.028C732.787 425.691 728.292 426.401 724.769 428.944C725.188 426.319 726.826 423.913 728.889 422.302C732.023 419.845 735.998 418.842 739.842 417.985C742.053 417.533 740.987 414.223 738.862 414.732C734.098 415.77 729.155 417.253 725.565 420.694C724.161 422.066 723.016 423.671 722.3 425.452C721.487 424.218 720.504 423.044 719.436 421.986C715.338 417.93 709.918 415.576 704.488 413.783L704.117 413.699C703.83 413.245 703.337 412.92 702.668 412.943C700.402 412.954 699.268 415.028 699.459 417.111C699.588 418.267 699.979 419.385 700.07 420.532C700.199 421.688 700.189 422.851 700.1 424.016C699.733 429.08 698.023 433.957 697.407 439.004C696.232 448.838 697.656 458.834 701.562 467.955C701.654 468.151 701.765 468.351 701.907 468.499C698.676 473.711 697.099 479.725 697.261 485.9C697.376 488.063 700.803 487.926 700.742 485.698L700.664 485.7Z" fill="url(#paint1_linear_4407_35889)"/>
<path d="M675.376 538.419C674.231 532.108 674.224 525.628 675.325 519.346C677.282 524.893 682.904 527.871 688.131 530.05C684.515 533.566 680.338 536.539 675.774 538.779C675.636 538.67 675.506 538.545 675.368 538.436M676.134 515.91C677.599 511.506 681.265 507.972 685.895 507.088C690.117 506.26 694.525 507.856 697.503 510.887C696.791 512.058 696.295 513.396 696.132 514.831C696.059 515.553 696.375 516.083 696.823 516.425C696.255 517.035 695.763 517.66 695.384 518.361C695.299 518.362 695.223 518.388 695.172 518.406C694.037 518.701 693.119 519.247 692.426 519.986C687.363 518.433 682.213 517.195 677 516.305C676.616 516.225 676.251 516.281 675.939 516.446C675.956 516.412 675.946 516.345 675.962 516.31C676.003 516.225 676.077 516.071 676.109 515.918L676.134 515.91ZM682.151 500.556C682.929 498.722 683.636 496.813 684.088 494.865C684.241 494.329 684.829 490.386 684.791 489.191C684.957 489.418 685.113 489.619 685.406 489.802C690.262 492.748 695.096 496.399 697.728 501.597C698.784 503.703 699.323 505.833 699.426 507.944C695.779 504.549 690.653 502.776 685.684 503.664C683.555 504.049 681.518 504.856 679.7 505.999C680.512 504.225 681.375 502.432 682.152 500.598L682.151 500.556ZM667.099 555.923C668.056 551.169 670.177 546.808 673.314 543.187C673.639 543.302 674.022 543.297 674.461 543.13C683.482 539.355 691.337 533.044 696.806 524.931C697.453 523.982 698.074 522.998 698.67 522.023C699.843 522.44 700.969 523.129 701.975 523.761C703.799 524.975 706.077 522.392 704.245 521.195C703.066 520.396 701.717 519.6 700.32 518.991C700.599 518.41 700.871 517.847 701.107 517.267C704.693 515.524 710.228 516.358 713.712 517.152C715.873 517.666 716.479 514.257 714.302 513.777C710.468 512.92 706.286 512.127 702.441 513.137C702.559 512.584 702.677 511.988 702.76 511.419C702.838 510.952 702.856 510.519 702.899 510.035C706.394 507.953 711.772 508.06 715.485 508.291C717.682 508.423 718.313 505.048 716.074 504.917C711.841 504.625 707.302 504.312 703.298 506.001C704.294 503.537 706.43 501.558 708.801 500.45C712.405 498.757 716.504 498.669 720.443 498.693C722.698 498.748 722.401 495.284 720.215 495.304C715.34 495.25 710.19 495.589 705.921 498.139C704.245 499.162 702.77 500.47 701.674 502.045C701.157 500.661 700.462 499.297 699.658 498.027C696.572 493.157 691.817 489.649 686.926 486.686L686.583 486.521C686.405 486.015 685.998 485.588 685.34 485.461C683.129 484.964 681.56 486.732 681.28 488.805C681.146 489.96 681.277 491.137 681.109 492.276C680.976 493.431 680.706 494.562 680.359 495.678C678.867 500.532 676.109 504.902 674.378 509.682C671.032 519.005 670.182 529.066 671.947 538.829C671.993 539.041 672.056 539.26 672.161 539.437C667.846 543.794 664.962 549.302 663.738 555.357C663.365 557.49 666.736 558.124 667.176 555.939L667.099 555.923Z" fill="url(#paint2_linear_4407_35889)"/>
<path d="M630.678 601.717C630.964 595.309 632.397 588.99 634.867 583.11C635.542 588.952 640.362 593.106 644.973 596.391C640.667 599.016 635.933 600.986 630.985 602.156C630.875 602.02 630.776 601.868 630.666 601.732M636.42 579.939C638.827 575.971 643.187 573.339 647.897 573.506C652.198 573.638 656.141 576.173 658.371 579.789C657.416 580.773 656.635 581.968 656.157 583.331C655.926 584.019 656.116 584.605 656.477 585.038C655.787 585.506 655.169 586.007 654.643 586.606C654.56 586.588 654.48 586.597 654.427 586.603C653.255 586.638 652.238 586.967 651.398 587.533C646.807 584.894 642.061 582.542 637.176 580.517C636.819 580.354 636.451 580.327 636.11 580.419C636.134 580.389 636.14 580.321 636.163 580.292C636.222 580.217 636.328 580.084 636.393 579.942L636.42 579.939ZM645.699 566.306C646.864 564.691 647.979 562.987 648.852 561.188C649.12 560.699 650.57 556.986 650.799 555.812C650.91 556.07 651.018 556.301 651.263 556.544C655.342 560.496 659.244 565.13 660.655 570.782C661.217 573.071 661.268 575.267 660.9 577.348C658.099 573.227 653.495 570.36 648.452 570.122C646.291 570.023 644.126 570.358 642.1 571.069C643.286 569.519 644.526 567.963 645.691 566.348L645.699 566.306ZM618.717 616.944C620.706 612.522 623.744 608.74 627.607 605.908C627.898 606.092 628.273 606.172 628.738 606.107C638.373 604.431 647.434 600.022 654.569 593.328C655.411 592.546 656.236 591.725 657.033 590.907C658.084 591.574 659.029 592.496 659.869 593.335C661.378 594.924 664.173 592.912 662.653 591.338C661.681 590.298 660.543 589.221 659.316 588.317C659.717 587.813 660.107 587.324 660.467 586.812C664.35 585.908 669.562 587.952 672.782 589.5C674.775 590.481 676.123 587.292 674.107 586.34C670.559 584.653 666.658 582.951 662.685 583.08C662.923 582.568 663.17 582.013 663.378 581.477C663.558 581.038 663.671 580.621 663.821 580.158C667.691 578.905 672.911 580.205 676.479 581.255C678.592 581.872 679.958 578.721 677.804 578.095C673.742 576.87 669.386 575.556 665.107 576.314C666.626 574.133 669.148 572.678 671.706 572.124C675.596 571.275 679.612 572.099 683.447 572.998C685.634 573.553 686.114 570.109 683.978 569.643C679.237 568.507 674.141 567.694 669.411 569.231C667.551 569.856 665.822 570.804 664.403 572.096C664.207 570.632 663.832 569.147 663.33 567.73C661.404 562.296 657.548 557.82 653.438 553.844L653.14 553.607C653.078 553.074 652.776 552.567 652.164 552.297C650.118 551.321 648.195 552.696 647.462 554.655C647.075 555.752 646.94 556.928 646.524 558.001C646.137 559.098 645.622 560.141 645.036 561.152C642.503 565.553 638.842 569.201 636.092 573.477C630.757 581.823 627.692 591.443 627.243 601.355C627.241 601.571 627.253 601.799 627.317 601.995C622.141 605.284 618.105 610.014 615.565 615.645C614.728 617.642 617.874 619.01 618.788 616.976L618.717 616.944Z" fill="url(#paint3_linear_4407_35889)"/>
<path d="M573.123 653.523C574.812 647.335 577.6 641.486 581.304 636.293C580.677 642.141 584.465 647.253 588.24 651.472C583.461 653.085 578.41 653.966 573.326 654.019C573.249 653.861 573.186 653.692 573.108 653.535M583.516 633.541C586.738 630.2 591.57 628.592 596.128 629.791C600.294 630.865 603.583 634.206 604.962 638.224C603.815 638.974 602.79 639.967 602.024 641.192C601.647 641.812 601.703 642.426 601.959 642.928C601.184 643.233 600.471 643.585 599.826 644.054C599.749 644.018 599.669 644.009 599.616 644.003C598.465 643.78 597.401 643.877 596.456 644.244C592.559 640.66 588.446 637.322 584.127 634.272C583.815 634.034 583.462 633.927 583.109 633.942C583.138 633.918 583.159 633.853 583.188 633.829C583.262 633.77 583.395 633.663 583.49 633.538L583.516 633.541ZM595.568 622.284C597.06 620.965 598.522 619.548 599.77 617.985C600.139 617.567 602.371 614.263 602.853 613.169C602.904 613.445 602.958 613.694 603.143 613.985C606.254 618.737 609.04 624.116 609.172 629.94C609.217 632.296 608.784 634.45 607.967 636.399C606.141 631.763 602.281 627.953 597.414 626.611C595.328 626.04 593.142 625.89 591.009 626.138C592.507 624.887 594.059 623.642 595.551 622.323L595.568 622.284ZM558.104 665.745C561.018 661.869 564.813 658.849 569.205 656.935C569.449 657.179 569.796 657.339 570.265 657.378C580.032 657.863 589.842 655.556 598.274 650.595C599.268 650.017 600.253 649.398 601.211 648.775C602.089 649.657 602.808 650.764 603.443 651.768C604.565 653.65 607.735 652.302 606.598 650.432C605.879 649.203 605.005 647.903 604.008 646.751C604.51 646.348 604.998 645.956 605.462 645.535C609.449 645.509 614.083 648.648 616.884 650.867C618.612 652.262 620.629 649.448 618.871 648.076C615.782 645.65 612.351 643.131 608.447 642.384C608.792 641.936 609.155 641.449 609.476 640.972C609.747 640.583 609.95 640.201 610.198 639.783C614.249 639.412 619.055 641.828 622.305 643.637C624.23 644.703 626.256 641.931 624.292 640.846C620.599 638.758 616.639 636.518 612.298 636.316C614.26 634.522 617.04 633.658 619.658 633.68C623.639 633.707 627.375 635.395 630.918 637.116C632.929 638.138 634.156 634.884 632.175 633.959C627.8 631.808 623.008 629.894 618.056 630.353C616.103 630.553 614.208 631.098 612.539 632.046C612.67 630.575 612.632 629.044 612.454 627.551C611.771 621.827 608.994 616.612 605.859 611.83L605.621 611.533C605.678 610.999 605.495 610.438 604.957 610.04C603.176 608.638 600.998 609.556 599.851 611.306C599.232 612.291 598.842 613.409 598.2 614.364C597.581 615.349 596.849 616.253 596.055 617.11C592.616 620.846 588.242 623.599 584.618 627.166C577.578 634.133 572.471 642.844 569.852 652.414C569.802 652.624 569.764 652.85 569.783 653.055C564.01 655.124 559.032 658.851 555.316 663.785C554.06 665.549 556.827 667.575 558.166 665.793L558.104 665.745Z" fill="url(#paint4_linear_4407_35889)"/>
<path d="M505.385 691.307C508.407 685.649 512.425 680.565 517.19 676.325C515.279 681.887 517.836 687.713 520.58 692.665C515.562 693.177 510.442 692.913 505.473 691.835C505.432 691.665 505.408 691.486 505.368 691.315M519.959 674.133C523.842 671.591 528.91 671.097 533.088 673.278C536.912 675.251 539.376 679.238 539.828 683.463C538.543 683.939 537.323 684.68 536.304 685.704C535.798 686.225 535.716 686.836 535.855 687.382C535.031 687.507 534.257 687.692 533.525 688.006C533.458 687.954 533.382 687.927 533.331 687.91C532.258 687.436 531.199 687.295 530.197 687.443C527.193 683.083 523.925 678.915 520.392 674.981C520.14 674.68 519.819 674.497 519.472 674.433C519.506 674.417 519.541 674.357 519.575 674.341C519.66 674.299 519.813 674.225 519.933 674.125L519.959 674.133ZM534.211 665.835C535.959 664.88 537.699 663.823 539.263 662.576C539.716 662.25 542.625 659.525 543.339 658.565C543.327 658.845 543.325 659.101 543.44 659.425C545.417 664.75 546.939 670.613 545.774 676.321C545.294 678.628 544.393 680.632 543.163 682.35C542.413 677.425 539.496 672.853 535.049 670.464C533.142 669.443 531.044 668.812 528.909 668.579C530.648 667.692 532.437 666.823 534.185 665.868L534.211 665.835ZM488.025 699.888C491.728 696.756 496.099 694.654 500.806 693.764C500.99 694.055 501.293 694.289 501.742 694.431C511.157 697.073 521.234 697.003 530.558 694.039C531.656 693.696 532.754 693.311 533.826 692.917C534.486 693.972 534.941 695.211 535.337 696.331C536.013 698.415 539.403 697.805 538.71 695.729C538.282 694.371 537.719 692.909 537.003 691.565C537.582 691.283 538.145 691.01 538.69 690.702C542.584 691.562 546.404 695.652 548.643 698.438C550.017 700.182 552.609 697.886 551.2 696.158C548.727 693.106 545.942 689.888 542.301 688.292C542.737 687.932 543.199 687.539 543.618 687.145C543.969 686.826 544.252 686.498 544.586 686.145C548.618 686.684 552.768 690.107 555.534 692.593C557.174 694.06 559.766 691.807 558.092 690.313C554.956 687.457 551.592 684.393 547.404 683.232C549.715 681.919 552.618 681.693 555.166 682.297C559.042 683.207 562.309 685.683 565.382 688.148C567.115 689.591 569.034 686.691 567.308 685.35C563.521 682.28 559.274 679.349 554.343 678.697C552.395 678.459 550.426 678.569 548.589 679.122C549.043 677.717 549.346 676.215 549.504 674.721C550.11 668.988 548.561 663.286 546.568 657.927L546.401 657.585C546.576 657.077 546.522 656.489 546.086 655.982C544.66 654.219 542.333 654.631 540.826 656.082C540.004 656.905 539.375 657.909 538.536 658.697C537.714 659.519 536.8 660.239 535.835 660.898C531.652 663.776 526.775 665.489 522.45 668.162C514.037 673.391 507.122 680.75 502.442 689.499C502.346 689.693 502.26 689.905 502.232 690.108C496.144 690.844 490.462 693.371 485.742 697.357C484.126 698.798 486.374 701.388 488.076 699.948L488.025 699.888Z" fill="url(#paint5_linear_4407_35889)"/>
<path d="M430.932 712.95C435.144 708.111 440.198 704.055 445.79 700.988C442.684 705.982 443.872 712.232 445.438 717.672C440.433 717.049 435.501 715.647 430.9 713.484C430.898 713.309 430.915 713.129 430.914 712.954M448.979 699.472C453.333 697.862 458.384 698.514 461.968 701.575C465.253 704.353 466.762 708.791 466.257 713.009C464.898 713.186 463.543 713.635 462.321 714.405C461.712 714.799 461.495 715.377 461.508 715.94C460.677 715.878 459.882 715.885 459.098 716.027C459.044 715.961 458.975 715.919 458.93 715.89C457.99 715.189 456.99 714.814 455.98 714.734C454.028 709.812 451.776 705.019 449.212 700.395C449.034 700.045 448.762 699.795 448.438 699.655C448.475 699.646 448.522 699.597 448.559 699.588C448.651 699.567 448.818 699.528 448.957 699.457L448.979 699.472ZM464.727 694.571C466.645 694.032 468.577 693.391 470.381 692.526C470.895 692.309 474.341 690.304 475.25 689.528C475.177 689.799 475.117 690.047 475.157 690.389C475.892 696.021 476.064 702.076 473.651 707.379C472.667 709.52 471.34 711.271 469.757 712.671C470.128 707.702 468.308 702.594 464.508 699.271C462.878 697.849 460.975 696.765 458.946 696.06C460.839 695.585 462.777 695.138 464.695 694.598L464.727 694.571ZM412.093 717.43C416.402 715.206 421.133 714.135 425.92 714.32C426.034 714.645 426.277 714.941 426.682 715.18C435.268 719.861 445.105 722.046 454.856 721.244C456.003 721.155 457.159 721.025 458.292 720.881C458.699 722.057 458.865 723.367 459.001 724.546C459.194 726.729 462.634 726.893 462.424 724.714C462.31 723.295 462.089 721.745 461.691 720.274C462.319 720.129 462.928 719.988 463.529 719.811C467.131 721.52 469.939 726.361 471.498 729.576C472.447 731.584 475.487 729.926 474.501 727.927C472.773 724.399 470.778 720.64 467.587 718.27C468.093 718.016 468.631 717.736 469.128 717.446C469.541 717.214 469.89 716.957 470.295 716.688C474.104 718.115 477.382 722.379 479.523 725.421C480.793 727.218 483.823 725.602 482.526 723.772C480.108 720.286 477.515 716.547 473.694 714.479C476.24 713.716 479.12 714.146 481.467 715.304C485.042 717.058 487.672 720.202 490.115 723.292C491.482 725.086 494.001 722.689 492.619 720.995C489.614 717.156 486.131 713.35 481.471 711.611C479.626 710.943 477.682 710.61 475.767 710.739C476.525 709.47 477.156 708.075 477.644 706.653C479.518 701.201 479.284 695.298 478.54 689.629L478.455 689.258C478.739 688.802 478.818 688.217 478.506 687.625C477.511 685.588 475.15 685.468 473.357 686.546C472.372 687.164 471.535 688.001 470.541 688.582C469.555 689.2 468.503 689.696 467.415 690.123C462.694 691.993 457.558 692.572 452.744 694.209C443.374 697.424 434.988 703.049 428.468 710.529C428.332 710.697 428.2 710.884 428.128 711.076C422.029 710.432 415.926 711.624 410.434 714.453C408.536 715.496 410.148 718.523 412.128 717.5L412.093 717.43Z" fill="url(#paint6_linear_4407_35889)"/>
<path d="M352.206 717.308C357.412 713.559 363.259 710.765 369.405 709.056C365.239 713.209 364.968 719.565 365.25 725.219C360.519 723.469 356.038 720.977 352.053 717.821C352.091 717.65 352.149 717.479 352.187 717.307M372.856 708.308C377.463 707.736 382.23 709.525 385.02 713.323C387.584 716.778 388.039 721.443 386.584 725.434C385.22 725.296 383.799 725.424 382.433 725.894C381.749 726.139 381.406 726.652 381.291 727.203C380.496 726.953 379.72 726.778 378.924 726.737C378.886 726.661 378.83 726.604 378.792 726.565C378.038 725.668 377.149 725.074 376.184 724.766C375.409 719.529 374.311 714.348 372.871 709.26C372.778 708.879 372.571 708.574 372.287 708.363C372.325 708.363 372.382 708.325 372.42 708.326C372.515 708.326 372.685 708.327 372.837 708.289L372.856 708.308ZM389.307 707.135C391.297 707.047 393.325 706.865 395.278 706.434C395.828 706.341 399.641 705.176 400.704 704.628C400.571 704.875 400.456 705.103 400.417 705.445C399.846 711.096 398.629 717.03 395.068 721.641C393.621 723.501 391.929 724.903 390.068 725.905C391.565 721.152 390.96 715.763 388.02 711.66C386.758 709.904 385.153 708.413 383.338 707.264C385.29 707.233 387.279 707.241 389.269 707.153L389.307 707.135ZM332.841 717.366C337.545 716.185 342.396 716.223 347.014 717.497C347.05 717.84 347.22 718.183 347.559 718.508C354.848 725.026 363.926 729.401 373.603 730.847C374.739 731.023 375.894 731.16 377.031 731.279C377.158 732.517 377.021 733.829 376.884 735.009C376.572 737.178 379.884 738.123 380.177 735.954C380.391 734.547 380.529 732.987 380.478 731.464C381.123 731.466 381.748 731.469 382.373 731.433C385.49 733.919 387.118 739.274 387.9 742.76C388.365 744.932 391.704 744.012 391.201 741.84C390.325 738.011 389.242 733.896 386.677 730.859C387.227 730.728 387.815 730.578 388.365 730.409C388.82 730.278 389.218 730.108 389.674 729.938C393.057 732.197 395.274 737.098 396.663 740.548C397.488 742.588 400.808 741.706 399.963 739.628C398.406 735.682 396.736 731.45 393.488 728.564C396.141 728.402 398.846 729.479 400.867 731.143C403.946 733.667 405.789 737.328 407.461 740.894C408.382 742.953 411.382 741.195 410.424 739.231C408.375 734.807 405.854 730.305 401.715 727.548C400.071 726.476 398.255 725.708 396.361 725.396C397.388 724.334 398.321 723.12 399.122 721.847C402.192 716.968 403.313 711.167 403.884 705.478L403.886 705.097C404.266 704.718 404.477 704.167 404.309 703.519C403.806 701.309 401.535 700.653 399.543 701.293C398.442 701.669 397.435 702.293 396.335 702.632C395.235 703.008 394.097 703.251 392.941 703.418C387.917 704.16 382.784 703.55 377.723 704.044C367.867 705.034 358.417 708.595 350.361 714.388C350.19 714.521 350.018 714.672 349.904 714.843C344.114 712.822 337.9 712.589 331.907 714.089C329.82 714.671 330.698 717.986 332.86 717.442L332.841 717.366Z" fill="url(#paint7_linear_4407_35889)"/>
<path d="M275.838 704.337C281.744 701.831 288.064 700.397 294.435 700.088C289.455 703.218 287.786 709.357 286.811 714.934C282.585 712.182 278.765 708.762 275.575 704.803C275.651 704.645 275.744 704.491 275.82 704.332M297.966 700.121C302.586 700.581 306.84 703.378 308.722 707.699C310.458 711.635 309.872 716.285 307.571 719.856C306.271 719.42 304.857 719.231 303.42 719.388C302.7 719.476 302.252 719.9 302.017 720.412C301.298 719.992 300.579 719.651 299.812 719.435C299.792 719.352 299.75 719.284 299.721 719.238C299.184 718.196 298.449 717.421 297.576 716.907C297.976 711.628 298.051 706.332 297.771 701.053C297.764 700.66 297.63 700.317 297.4 700.049C297.437 700.058 297.501 700.033 297.537 700.042C297.63 700.063 297.796 700.101 297.952 700.098L297.966 700.121ZM314.27 702.61C316.23 702.965 318.249 703.235 320.249 703.246C320.806 703.277 324.782 702.983 325.94 702.683C325.755 702.895 325.593 703.092 325.479 703.417C323.673 708.802 321.175 714.32 316.683 718.031C314.861 719.525 312.901 720.519 310.865 721.085C313.375 716.78 313.976 711.391 312.015 706.739C311.172 704.748 309.936 702.939 308.42 701.418C310.331 701.819 312.269 702.266 314.229 702.62L314.27 702.61ZM256.939 700.116C261.787 700.003 266.51 701.112 270.732 703.374C270.692 703.717 270.781 704.089 271.041 704.481C276.709 712.448 284.596 718.72 293.714 722.268C294.784 722.69 295.88 723.08 296.962 723.446C296.813 724.682 296.389 725.932 295.994 727.052C295.211 729.098 298.233 730.752 298.997 728.701C299.517 727.376 299.997 725.884 300.284 724.388C300.912 724.533 301.521 724.673 302.139 724.777C304.629 727.89 305.033 733.472 305.026 737.045C305 739.266 308.459 739.106 308.448 736.877C308.44 732.949 308.293 728.696 306.462 725.168C307.028 725.161 307.634 725.145 308.208 725.102C308.681 725.074 309.107 724.996 309.589 724.932C312.389 727.882 313.469 733.151 314.061 736.823C314.415 738.995 317.847 738.868 317.483 736.655C316.836 732.462 316.142 727.966 313.612 724.433C316.236 724.862 318.636 726.51 320.24 728.579C322.685 731.721 323.673 735.699 324.516 739.546C324.959 741.758 328.274 740.705 327.773 738.578C326.753 733.811 325.288 728.864 321.861 725.261C320.494 723.852 318.893 722.701 317.115 721.979C318.351 721.17 319.53 720.192 320.592 719.128C324.664 715.046 327.039 709.637 328.853 704.214L328.939 703.844C329.394 703.558 329.721 703.067 329.7 702.398C329.698 700.131 327.628 698.99 325.544 699.174C324.387 699.298 323.268 699.684 322.12 699.771C320.963 699.895 319.8 699.881 318.635 699.788C313.571 699.402 308.7 697.674 303.655 697.038C293.824 695.826 283.821 697.211 274.683 701.082C274.487 701.173 274.287 701.283 274.138 701.425C268.937 698.175 262.928 696.575 256.752 696.713C254.588 696.82 254.712 700.247 256.94 700.195L256.939 700.116Z" fill="url(#paint8_linear_4407_35889)"/>
<path d="M204.353 674.599C210.67 673.478 217.151 673.494 223.429 674.618C217.875 676.554 214.875 682.165 212.677 687.382C209.173 683.754 206.216 679.566 203.993 674.995C204.101 674.857 204.227 674.728 204.336 674.591M226.864 675.44C231.263 676.921 234.784 680.599 235.651 685.232C236.463 689.456 234.851 693.858 231.809 696.823C230.64 696.108 229.303 695.607 227.868 695.438C227.147 695.363 226.615 695.676 226.272 696.123C225.664 695.553 225.04 695.059 224.341 694.677C224.34 694.592 224.314 694.516 224.297 694.465C224.006 693.329 223.463 692.41 222.727 691.714C224.299 686.658 225.556 681.513 226.465 676.304C226.546 675.921 226.492 675.556 226.328 675.243C226.362 675.26 226.43 675.25 226.464 675.267C226.549 675.308 226.702 675.383 226.855 675.415L226.864 675.44ZM242.198 681.513C244.029 682.297 245.935 683.012 247.882 683.471C248.418 683.625 252.359 684.228 253.555 684.195C253.327 684.359 253.125 684.515 252.942 684.807C249.977 689.651 246.307 694.471 241.099 697.083C238.988 698.132 236.856 698.662 234.745 698.758C238.154 695.123 239.946 690.005 239.076 685.033C238.699 682.903 237.9 680.864 236.763 679.042C238.535 679.861 240.324 680.73 242.155 681.514L242.198 681.513ZM186.878 666.258C191.628 667.232 195.983 669.369 199.592 672.519C199.477 672.844 199.48 673.226 199.646 673.666C203.387 682.7 209.671 690.577 217.764 696.074C218.712 696.725 219.693 697.35 220.666 697.949C220.244 699.12 219.551 700.243 218.916 701.247C217.695 703.066 220.269 705.354 221.473 703.526C222.277 702.35 223.078 701.005 223.692 699.61C224.272 699.892 224.834 700.165 225.413 700.404C227.144 703.995 226.289 709.526 225.482 713.007C224.96 715.166 228.367 715.784 228.855 713.609C229.726 709.778 230.535 705.6 229.54 701.752C230.092 701.873 230.687 701.992 231.256 702.078C231.724 702.157 232.156 702.177 232.64 702.221C234.709 705.724 234.582 711.1 234.337 714.812C234.197 717.008 237.571 717.652 237.71 715.413C238.018 711.182 238.348 706.645 236.673 702.636C239.134 703.641 241.105 705.783 242.205 708.159C243.885 711.768 243.957 715.866 243.919 719.805C243.855 722.059 247.322 721.775 247.309 719.589C247.382 714.715 247.061 709.566 244.527 705.287C243.51 703.608 242.207 702.129 240.636 701.027C242.022 700.515 243.389 699.825 244.663 699.026C249.545 695.959 253.07 691.218 256.052 686.339L256.218 685.997C256.726 685.82 257.154 685.414 257.284 684.758C257.789 682.548 256.027 680.973 253.954 680.685C252.799 680.548 251.622 680.674 250.483 680.502C249.328 680.364 248.198 680.09 247.083 679.739C242.234 678.23 237.874 675.456 233.099 673.707C223.787 670.327 213.728 669.44 203.956 671.168C203.745 671.214 203.525 671.276 203.347 671.38C199.006 667.049 193.508 664.146 187.457 662.899C185.324 662.519 184.677 665.887 186.862 666.334L186.878 666.258Z" fill="url(#paint9_linear_4407_35889)"/>
<path d="M141.316 629.695C147.724 630.005 154.039 631.46 159.911 633.951C154.066 634.605 149.894 639.409 146.591 644.008C143.981 639.692 142.028 634.952 140.876 630.001C141.013 629.891 141.165 629.793 141.302 629.683M163.077 635.516C167.038 637.937 169.653 642.306 169.469 647.014C169.322 651.314 166.772 655.247 163.147 657.463C162.166 656.505 160.975 655.72 159.613 655.237C158.926 655.004 158.338 655.191 157.904 655.55C157.438 654.859 156.94 654.24 156.343 653.712C156.361 653.629 156.352 653.549 156.347 653.495C156.316 652.323 155.99 651.306 155.427 650.464C158.084 645.883 160.453 641.146 162.496 636.27C162.661 635.914 162.689 635.546 162.598 635.205C162.628 635.228 162.696 635.234 162.726 635.258C162.799 635.317 162.932 635.424 163.074 635.489L163.077 635.516ZM176.678 644.843C178.289 646.014 179.99 647.134 181.786 648.014C182.274 648.284 185.983 649.747 187.156 649.981C186.898 650.09 186.666 650.197 186.422 650.441C182.454 654.506 177.806 658.39 172.147 659.78C169.856 660.333 167.659 660.377 165.58 660.001C169.711 657.215 172.596 652.623 172.852 647.582C172.958 645.422 172.632 643.256 171.928 641.227C173.474 642.418 175.026 643.664 176.637 644.834L176.678 644.843ZM126.131 617.681C130.546 619.686 134.317 622.737 137.136 626.61C136.951 626.901 136.87 627.274 136.933 627.74C138.574 637.379 142.95 646.455 149.62 653.613C150.399 654.458 151.217 655.285 152.032 656.086C151.361 657.133 150.435 658.075 149.593 658.912C147.998 660.415 150.001 663.217 151.581 661.703C152.625 660.735 153.705 659.6 154.614 658.377C155.117 658.78 155.604 659.172 156.116 659.533C157.005 663.42 154.942 668.622 153.382 671.837C152.394 673.826 155.578 675.185 156.538 673.173C158.238 669.632 159.955 665.738 159.84 661.765C160.352 662.005 160.905 662.254 161.441 662.464C161.879 662.645 162.296 662.76 162.758 662.911C163.997 666.785 162.679 671.999 161.615 675.563C160.991 677.673 164.137 679.051 164.771 676.899C166.011 672.842 167.341 668.492 166.598 664.211C168.774 665.737 170.22 668.264 170.765 670.824C171.6 674.716 170.761 678.729 169.848 682.56C169.285 684.744 172.728 685.237 173.201 683.103C174.355 678.367 175.187 673.275 173.667 668.54C173.048 666.678 172.106 664.945 170.819 663.522C172.285 663.331 173.771 662.962 175.19 662.466C180.632 660.56 185.123 656.72 189.114 652.626L189.352 652.329C189.886 652.269 190.394 651.969 190.667 651.358C191.65 649.316 190.282 647.388 188.325 646.648C187.23 646.257 186.053 646.118 184.982 645.698C183.886 645.307 182.845 644.788 181.836 644.199C177.444 641.65 173.808 637.977 169.541 635.211C161.214 629.847 151.603 626.747 141.691 626.262C141.475 626.259 141.246 626.271 141.051 626.334C137.78 621.147 133.064 617.094 127.441 614.535C125.447 613.691 124.068 616.831 126.098 617.752L126.131 617.681Z" fill="url(#paint10_linear_4407_35889)"/>
<path d="M89.8691 572.11C96.0521 573.822 101.892 576.631 107.072 580.352C101.226 579.705 96.0989 583.473 91.8655 587.232C90.2691 582.449 89.4068 577.395 89.3726 572.312C89.5303 572.235 89.6997 572.172 89.8573 572.095M109.816 582.575C113.147 585.808 114.737 590.645 113.521 595.198C112.431 599.359 109.079 602.635 105.054 604C104.309 602.85 103.319 601.822 102.097 601.051C101.478 600.672 100.864 600.725 100.361 600.98C100.059 600.204 99.7087 599.49 99.2427 598.844C99.2786 598.767 99.2879 598.687 99.294 598.633C99.5216 597.483 99.4284 596.419 99.0645 595.474C102.663 591.59 106.017 587.49 109.083 583.183C109.322 582.871 109.431 582.519 109.417 582.166C109.441 582.195 109.506 582.216 109.53 582.246C109.589 582.32 109.695 582.453 109.819 582.548L109.816 582.575ZM121.031 594.666C122.345 596.162 123.757 597.629 125.316 598.882C125.733 599.253 129.029 601.496 130.122 601.982C129.846 602.032 129.596 602.086 129.304 602.27C124.54 605.362 119.15 608.129 113.324 608.24C110.968 608.276 108.815 607.834 106.869 607.011C111.513 605.202 115.337 601.357 116.697 596.495C117.275 594.412 117.433 592.227 117.193 590.093C118.439 591.595 119.679 593.151 120.993 594.648L121.031 594.666ZM77.6995 557.05C81.5653 559.977 84.5727 563.782 86.4706 568.181C86.2262 568.424 86.0644 568.771 86.0238 569.239C85.5033 579.002 87.7751 588.819 92.706 597.268C93.2803 598.264 93.8962 599.251 94.5152 600.211C93.63 601.086 92.52 601.8 91.5142 602.432C89.6278 603.547 90.9642 606.721 92.8387 605.591C94.0704 604.877 95.3741 604.008 96.5298 603.015C96.9312 603.518 97.3208 604.007 97.7402 604.473C97.7524 608.459 94.5955 613.081 92.3664 615.873C90.9641 617.596 93.7715 619.623 95.1502 617.871C97.5882 614.79 100.12 611.369 100.882 607.469C101.328 607.815 101.813 608.18 102.29 608.503C102.677 608.775 103.059 608.98 103.477 609.229C103.833 613.28 101.399 618.077 99.5777 621.32C98.5039 623.241 101.27 625.276 102.361 623.317C104.464 619.632 106.719 615.681 106.936 611.341C108.723 613.309 109.578 616.092 109.545 618.709C109.504 622.69 107.802 626.419 106.069 629.955C105.039 631.962 108.289 633.201 109.221 631.223C111.388 626.857 113.32 622.073 112.879 617.12C112.686 615.167 112.148 613.27 111.206 611.598C112.677 611.734 114.209 611.701 115.702 611.529C121.429 610.867 126.656 608.109 131.45 604.993L131.748 604.756C132.282 604.815 132.843 604.634 133.243 604.097C134.652 602.322 133.741 600.14 131.996 598.988C131.013 598.366 129.896 597.972 128.943 597.326C127.961 596.703 127.059 595.969 126.205 595.171C122.481 591.719 119.743 587.336 116.189 583.7C109.246 576.635 100.552 571.497 90.9903 568.844C90.7798 568.793 90.5545 568.755 90.3496 568.773C88.3005 562.993 84.592 558.003 79.6703 554.269C77.91 553.007 75.8741 555.767 77.6517 557.112L77.6995 557.05Z" fill="url(#paint11_linear_4407_35889)"/>
<path d="M52.4543 504.547C58.1021 507.59 63.1717 511.626 67.3949 516.406C61.8388 514.475 56.0027 517.01 51.0395 519.735C50.5463 514.716 50.8288 509.597 51.9254 504.634C52.0962 504.593 52.2752 504.57 52.4461 504.53M69.5765 519.182C72.105 523.075 72.5804 528.144 70.3829 532.313C68.3956 536.128 64.3984 538.577 60.1717 539.014C59.7002 537.727 58.9638 536.504 57.9434 535.482C57.4246 534.974 56.8135 534.89 56.2667 535.027C56.1446 534.203 55.9621 533.428 55.6513 532.695C55.7035 532.628 55.7303 532.552 55.7482 532.501C56.2257 531.43 56.3713 530.372 56.2267 529.37C60.5988 526.383 64.7798 523.13 68.7271 519.612C69.029 519.362 69.2131 519.042 69.2785 518.695C69.295 518.729 69.3539 518.764 69.3704 518.798C69.4115 518.883 69.4854 519.037 69.5855 519.157L69.5765 519.182ZM77.8238 533.463C78.7723 535.214 79.8231 536.958 81.0639 538.526C81.388 538.98 84.1031 541.899 85.0607 542.616C84.7802 542.604 84.5251 542.6 84.1999 542.715C78.867 544.671 72.9974 546.171 67.2925 544.985C64.987 544.496 62.9863 543.588 61.2719 542.353C66.2012 541.62 70.7845 538.721 73.1907 534.284C74.2183 532.381 74.8578 530.286 75.0982 528.152C75.9789 529.893 76.8417 531.686 77.7902 533.437L77.8238 533.463ZM43.9365 487.159C47.055 490.873 49.1414 495.251 50.0142 499.961C49.7218 500.144 49.487 500.446 49.3433 500.893C46.6657 510.297 46.6988 520.373 49.6283 529.706C49.9669 530.805 50.3481 531.904 50.7381 532.978C49.6807 533.634 48.4396 534.084 47.3185 534.476C45.2316 535.144 45.829 538.536 47.9077 537.851C49.2675 537.428 50.7316 536.87 52.0792 536.159C52.3586 536.739 52.6298 537.303 52.9352 537.849C52.0611 541.739 47.9558 545.544 45.1618 547.771C43.4117 549.139 45.6984 551.739 47.4321 550.337C50.4937 547.875 53.7223 545.102 55.3322 541.468C55.6906 541.906 56.0826 542.369 56.4752 542.79C56.7925 543.141 57.1194 543.426 57.471 543.761C56.9177 547.791 53.4789 551.926 50.9821 554.683C49.5082 556.318 51.7524 558.917 53.2524 557.249C56.1212 554.124 59.198 550.772 60.3748 546.59C61.6796 548.905 61.894 551.808 61.2809 554.353C60.3559 558.225 57.8677 561.483 55.3913 564.546C53.9414 566.273 56.8349 568.203 58.1827 566.482C61.2666 562.706 64.2138 558.471 64.8844 553.544C65.1301 551.597 65.0275 549.628 64.4802 547.789C65.8845 548.248 67.385 548.556 68.8794 548.72C74.6108 549.347 80.3192 547.82 85.6864 545.847L86.0295 545.682C86.5369 545.858 87.1247 545.807 87.634 545.372C89.4019 543.954 88.9991 541.625 87.5531 540.113C86.7335 539.288 85.7319 538.656 84.9466 537.814C84.1269 536.989 83.4109 536.072 82.7553 535.105C79.8917 530.912 78.1967 526.03 75.5396 521.695C70.3405 513.264 63.0065 506.323 54.2735 501.612C54.0795 501.516 53.8683 501.428 53.6646 501.4C52.9514 495.31 50.4449 489.62 46.4761 484.886C45.0405 483.264 42.4419 485.503 43.8761 487.209L43.9365 487.159Z" fill="url(#paint12_linear_4407_35889)"/>
<path d="M31.0795 430.414C35.9028 434.643 39.9402 439.711 42.9864 445.315C38.0034 442.19 31.7479 443.354 26.3007 444.899C26.9435 439.897 28.3648 434.972 30.5447 430.379C30.7202 430.378 30.8998 430.396 31.0753 430.395M44.491 448.509C46.084 452.868 45.4125 457.916 42.3375 461.487C39.5465 464.761 35.1024 466.253 30.8853 465.732C30.7138 464.373 30.2698 463.017 29.5042 461.791C29.1121 461.181 28.5355 460.962 27.9719 460.973C28.0374 460.142 28.0329 459.347 27.8941 458.563C27.96 458.509 28.0032 458.441 28.0319 458.395C28.7371 457.459 29.1158 456.46 29.1993 455.45C34.1292 453.518 38.9322 451.284 43.5669 448.738C43.9173 448.561 44.1683 448.291 44.3097 447.968C44.3181 448.004 44.3678 448.051 44.3762 448.088C44.3971 448.181 44.4348 448.347 44.5054 448.487L44.491 448.509ZM49.3322 464.273C49.8646 466.192 50.4983 468.127 51.3566 469.933C51.5709 470.448 53.5636 473.901 54.3364 474.813C54.0658 474.739 53.8179 474.678 53.4753 474.717C47.8397 475.43 41.7833 475.579 36.4887 473.146C34.351 472.154 32.6045 470.821 31.2102 469.233C36.1783 469.623 41.2943 467.823 44.6329 464.036C46.0605 462.411 47.1527 460.513 47.8647 458.487C48.3331 460.381 48.7728 462.321 49.3052 464.24L49.3322 464.273ZM26.6704 411.561C28.8784 415.878 29.9318 420.612 29.728 425.397C29.4022 425.51 29.1057 425.752 28.8654 426.156C24.1506 434.722 21.9272 444.55 22.6929 454.302C22.777 455.448 22.9025 456.605 23.0423 457.739C21.8648 458.141 20.5544 458.302 19.374 458.434C17.1905 458.618 17.0135 462.057 19.1928 461.855C20.6128 461.747 22.1645 461.531 23.6373 461.139C23.7796 461.767 23.9178 462.377 24.0931 462.978C22.3703 466.574 17.5175 469.363 14.2958 470.909C12.2839 471.85 13.9306 474.896 15.9341 473.917C19.4691 472.204 23.2365 470.224 25.6191 467.042C25.8705 467.548 26.1488 468.088 26.4373 468.585C26.6678 468.999 26.9228 469.35 27.1904 469.755C25.7491 473.559 21.4716 476.82 18.421 478.948C16.6186 480.211 18.224 483.247 20.0593 481.957C23.5549 479.553 27.304 476.975 29.3873 473.162C30.1406 475.711 29.6996 478.588 28.5324 480.931C26.7641 484.498 23.6098 487.116 20.5105 489.547C18.7105 490.906 21.0988 493.435 22.7975 492.059C26.6485 489.069 30.4691 485.601 32.2256 480.949C32.9011 479.106 33.2418 477.164 33.1201 475.249C34.3859 476.011 35.7793 476.648 37.1991 477.142C42.6447 479.035 48.5502 478.824 54.223 478.102L54.5943 478.018C55.0493 478.304 55.6338 478.385 56.2274 478.076C58.268 477.089 58.3968 474.729 57.3259 472.932C56.7118 471.944 55.8772 471.104 55.3001 470.108C54.686 469.12 54.1934 468.067 53.7709 466.977C51.9187 462.25 51.3595 457.112 49.7403 452.293C46.5605 442.912 40.9663 434.506 33.5098 427.959C33.3421 427.823 33.1559 427.69 32.9637 427.617C33.6319 421.522 32.4628 415.415 29.6544 409.913C28.6183 408.011 25.5846 409.612 26.6003 411.596L26.6704 411.561Z" fill="url(#paint13_linear_4407_35889)"/>
<path d="M26.8403 350.844C30.5694 356.063 33.3417 361.92 35.0266 368.071C30.8897 363.89 24.5335 363.595 18.8774 363.854C20.6463 359.131 23.1557 354.661 26.3275 350.688C26.4986 350.727 26.6695 350.785 26.8405 350.825M35.7615 371.524C36.316 376.132 34.5088 380.892 30.699 383.667C27.2335 386.217 22.566 386.654 18.5795 385.184C18.7233 383.821 18.601 382.399 18.1356 381.031C17.8934 380.347 17.3821 380.002 16.8309 379.884C17.0845 379.091 17.2618 378.315 17.306 377.52C17.3825 377.483 17.44 377.426 17.4784 377.389C18.3789 376.638 18.9759 375.752 19.288 374.788C24.5291 374.033 29.7156 372.955 34.8095 371.536C35.191 371.444 35.4972 371.238 35.7087 370.956C35.7085 370.994 35.7461 371.051 35.7458 371.089C35.7451 371.183 35.7437 371.354 35.7806 371.506L35.7615 371.524ZM36.8718 387.977C36.9517 389.967 37.1264 391.995 37.5491 393.95C37.6401 394.5 38.7909 398.317 39.3348 399.382C39.0883 399.247 38.8608 399.132 38.5184 399.091C32.8689 398.498 26.9388 397.259 22.3404 393.681C20.4859 392.227 19.0903 390.53 18.0957 388.666C22.8433 390.18 28.2354 389.596 32.351 386.673C34.1122 385.417 35.6094 383.818 36.7656 382.009C36.7886 383.96 36.7733 385.949 36.8531 387.939L36.8718 387.977ZM26.8566 331.482C28.0196 336.189 27.9631 341.039 26.671 345.651C26.3281 345.687 25.9841 345.854 25.6579 346.193C19.11 353.455 14.6996 362.515 13.2161 372.184C13.036 373.319 12.8939 374.474 12.7709 375.609C11.5325 375.733 10.22 375.59 9.04079 375.448C6.873 375.128 5.91462 378.436 8.08256 378.737C9.48963 378.956 11.0496 379.101 12.5729 379.056C12.5679 379.7 12.5631 380.325 12.5964 380.951C10.0975 384.057 4.73561 385.664 1.24583 386.433C-0.927953 386.89 -0.0209236 390.231 2.15316 389.736C5.98631 388.875 10.1066 387.808 13.1533 385.255C13.2823 385.806 13.43 386.394 13.5971 386.945C13.7269 387.401 13.8951 387.8 14.0629 388.256C11.7905 391.629 6.88091 393.827 3.42453 395.202C1.38121 396.02 2.25032 399.342 4.33185 398.506C8.28449 396.964 12.5236 395.31 15.4232 392.074C15.574 394.728 14.4871 397.428 12.8153 399.443C10.2787 402.511 6.60936 404.339 3.03657 405.998C0.973487 406.91 2.72074 409.917 4.68894 408.966C9.12128 406.935 13.6334 404.431 16.4067 400.304C17.4854 398.664 18.2609 396.851 18.5801 394.959C19.6383 395.99 20.8494 396.928 22.1187 397.733C26.9875 400.821 32.785 401.965 38.4726 402.558L38.8533 402.561C39.2311 402.943 39.7816 403.155 40.4301 402.99C42.6423 402.496 43.3071 400.227 42.6752 398.233C42.303 397.132 41.6825 396.123 41.3484 395.021C40.9761 393.92 40.7374 392.781 40.575 391.624C39.8523 386.598 40.4821 381.469 40.0072 376.407C39.0553 366.548 35.5303 357.087 29.7672 349.009C29.6353 348.838 29.4843 348.666 29.3139 348.551C31.3574 342.77 31.6148 336.558 30.1381 330.56C29.5641 328.472 26.2449 329.336 26.7803 331.5L26.8566 331.482Z" fill="url(#paint14_linear_4407_35889)"/>
<path d="M40.0158 274.949C42.4996 280.864 43.9097 287.188 44.1941 293.559C41.083 288.568 34.949 286.876 29.3753 285.88C32.1438 281.665 35.5788 277.859 39.55 274.685C39.7081 274.761 39.862 274.855 40.0201 274.931M44.1478 297.09C43.6707 301.706 40.8565 305.95 36.5279 307.814C32.5847 309.536 27.9358 308.932 24.3726 306.617C24.814 305.32 25.0088 303.906 24.8571 302.469C24.7719 301.749 24.3494 301.299 23.8379 301.063C24.2606 300.345 24.6048 299.627 24.8237 298.862C24.9065 298.842 24.975 298.8 25.0208 298.772C26.0649 298.238 26.8429 297.506 27.3601 296.635C32.6386 297.056 37.9351 297.15 43.2168 296.891C43.6091 296.885 43.9533 296.752 44.222 296.523C44.2134 296.56 44.2375 296.624 44.2288 296.661C44.2072 296.753 44.1682 296.919 44.1707 297.076L44.1478 297.09ZM41.5961 313.381C41.2344 315.34 40.9566 317.356 40.9372 319.356C40.9043 319.913 41.1835 323.889 41.4787 325.048C41.268 324.863 41.0716 324.7 40.7466 324.585C35.3677 322.759 29.8578 320.24 26.1634 315.735C24.676 313.907 23.6897 311.944 23.1315 309.906C27.4274 312.432 32.8152 313.053 37.475 311.111C39.4701 310.275 41.2836 309.046 42.811 307.537C42.4024 309.445 41.9479 311.382 41.5862 313.34L41.5961 313.381ZM44.3089 256.07C44.4033 260.918 43.2768 265.635 40.9977 269.848C40.6554 269.807 40.2829 269.894 39.8899 270.153C31.8995 275.789 25.5965 283.651 22.0136 292.754C21.5872 293.821 21.1934 294.916 20.8226 295.997C19.5876 295.843 18.3391 295.414 17.2203 295.015C15.1767 294.225 13.5112 297.239 15.5591 298.012C16.883 298.536 18.3725 299.022 19.8681 299.314C19.721 299.941 19.5782 300.55 19.4724 301.167C16.349 303.645 10.7646 304.028 7.19115 304.007C4.97013 303.973 5.11661 307.432 7.34629 307.43C11.2749 307.437 15.5292 307.306 19.0646 305.489C19.0688 306.054 19.0829 306.661 19.1242 307.235C19.1501 307.708 19.226 308.134 19.289 308.616C16.3274 311.404 11.0536 312.463 7.37874 313.041C5.20523 313.388 5.31897 316.82 7.53387 316.463C11.7295 315.833 16.2291 315.156 19.7721 312.64C19.333 315.262 17.6763 317.656 15.6008 319.251C12.4489 321.683 8.46638 322.656 4.61544 323.485C2.40176 323.919 3.44161 327.237 5.57128 326.744C10.3428 325.743 15.2966 324.297 18.9132 320.884C20.3276 319.523 21.4844 317.926 22.2137 316.151C23.0179 317.391 23.992 318.573 25.052 319.639C29.1184 323.725 34.5201 326.121 39.9361 327.956L40.3068 328.043C40.5909 328.498 41.0808 328.827 41.7499 328.809C44.0166 328.815 45.1661 326.75 44.9904 324.666C44.8707 323.509 44.4885 322.388 44.4059 321.24C44.2862 320.083 44.3049 318.92 44.4021 317.756C44.8076 312.695 46.5549 307.831 47.21 302.789C48.4596 292.964 47.1119 282.957 43.2755 273.807C43.1847 273.611 43.0754 273.41 42.9346 273.26C46.2049 268.073 47.8282 262.071 47.7131 255.895C47.6146 253.732 44.1863 253.842 44.2304 256.071L44.3089 256.07Z" fill="url(#paint15_linear_4407_35889)"/>
<path d="M69.8374 203.794C70.9355 210.114 70.8953 216.593 69.7473 222.866C67.8315 217.306 62.2313 214.286 57.0215 212.068C60.6627 208.579 64.8621 205.637 69.4427 203.431C69.5798 203.541 69.7086 203.667 69.8457 203.777M68.9125 226.297C67.4149 230.69 63.7228 234.197 59.0867 235.046C54.8584 235.842 50.4623 234.214 47.5072 231.162C48.2275 229.996 48.7336 228.661 48.9071 227.227C48.9852 226.506 48.6739 225.973 48.2283 225.628C48.801 225.023 49.2969 224.401 49.6815 223.703C49.7665 223.703 49.8428 223.677 49.8937 223.66C51.0308 223.373 51.9527 222.834 52.6517 222.1C57.7024 223.691 62.8436 224.967 68.0496 225.895C68.4331 225.978 68.7984 225.925 69.1115 225.762C69.0948 225.796 69.104 225.864 69.0873 225.898C69.0456 225.983 68.9705 226.136 68.9379 226.289L68.9125 226.297ZM62.7814 241.606C61.9908 243.433 61.2689 245.337 60.8027 247.282C60.6462 247.817 60.0288 251.755 60.0573 252.951C59.8935 252.723 59.7384 252.52 59.4475 252.335C54.6132 249.353 49.8062 245.666 47.2131 240.449C46.1722 238.335 45.65 236.201 45.5618 234.09C49.1839 237.512 54.2962 239.323 59.2725 238.471C61.404 238.103 63.4463 237.311 65.2728 236.181C64.4476 237.949 63.5716 239.735 62.781 241.563L62.7814 241.606ZM78.2447 186.352C77.2523 191.098 75.0993 195.444 71.9355 199.041C71.6111 198.924 71.2284 198.927 70.7877 199.09C61.7388 202.798 53.837 209.051 48.3087 217.122C47.6543 218.067 47.0257 219.046 46.4225 220.016C45.2532 219.591 44.1322 218.893 43.131 218.255C41.316 217.027 39.0184 219.593 40.8417 220.803C42.0147 221.611 43.3578 222.417 44.7502 223.037C44.4665 223.615 44.1912 224.176 43.9501 224.754C40.3515 226.471 34.8228 225.596 31.3446 224.776C29.1875 224.246 28.5566 227.65 30.7303 228.146C34.5579 229.032 38.7336 229.855 42.5859 228.875C42.4636 229.427 42.3417 230.021 42.2536 230.59C42.173 231.057 42.1516 231.489 42.1052 231.973C38.5949 234.029 33.2177 233.882 29.5067 233.623C27.3108 233.475 26.654 236.845 28.8925 236.993C33.123 237.317 37.6599 237.664 41.6758 236.004C40.6616 238.46 38.5113 240.423 36.1316 241.514C32.5155 243.18 28.4162 243.238 24.4775 243.184C22.2227 243.112 22.494 246.579 24.68 246.575C29.5547 246.666 34.7064 246.364 38.9948 243.846C40.6779 242.836 42.1625 241.538 43.2703 239.972C43.7769 241.359 44.4619 242.729 45.2567 244.005C48.306 248.898 53.035 252.44 57.9035 255.44L58.2454 255.607C58.4203 256.115 58.8242 256.545 59.4804 256.677C61.6883 257.19 63.2707 255.434 63.5656 253.363C63.7077 252.209 63.5859 251.031 63.7621 249.894C63.9042 248.739 64.1826 247.61 64.5378 246.497C66.0651 241.654 68.856 237.305 70.6222 232.537C74.0379 223.24 74.9626 213.186 73.2701 203.409C73.2255 203.198 73.1639 202.977 73.0601 202.8C77.4079 198.475 80.3325 192.989 81.6017 186.943C81.9896 184.813 78.6235 184.154 78.168 186.336L78.2447 186.352Z" fill="url(#paint16_linear_4407_35889)"/>
<path d="M114.745 141.014C114.411 147.42 112.933 153.728 110.42 159.59C109.787 153.743 104.998 149.555 100.411 146.236C104.736 143.642 109.484 141.707 114.44 140.573C114.55 140.71 114.647 140.862 114.756 140.999M108.844 162.75C106.408 166.701 102.029 169.3 97.3201 169.099C93.0205 168.936 89.0959 166.372 86.8927 162.739C87.854 161.763 88.6439 160.574 89.1316 159.214C89.368 158.528 89.1828 157.94 88.825 157.505C89.5178 157.041 90.1395 156.545 90.6694 155.95C90.7525 155.969 90.8326 155.96 90.886 155.955C92.0583 155.928 93.0771 155.607 93.9216 155.047C98.4928 157.719 103.222 160.105 108.092 162.166C108.447 162.332 108.815 162.361 109.157 162.272C109.133 162.302 109.127 162.37 109.103 162.399C109.044 162.473 108.936 162.605 108.871 162.747L108.844 162.75ZM99.4654 176.314C98.2885 177.921 97.1618 179.617 96.2752 181.41C96.0037 181.897 94.5269 185.6 94.2891 186.772C94.18 186.513 94.0739 186.281 93.8312 186.036C89.7802 182.054 85.9122 177.393 84.5428 171.73C83.9975 169.437 83.9624 167.241 84.3453 165.163C87.1169 169.304 91.6993 172.204 96.7404 172.479C98.9005 172.593 101.068 172.275 103.1 171.578C101.902 173.12 100.651 174.666 99.4744 176.273L99.4654 176.314ZM126.816 125.875C124.794 130.282 121.73 134.041 117.846 136.846C117.556 136.66 117.182 136.577 116.716 136.639C107.07 138.244 97.976 142.587 90.7929 149.229C89.9449 150.005 89.1145 150.82 88.3109 151.632C87.2653 150.957 86.3273 150.028 85.4929 149.183C83.9959 147.583 81.1858 149.575 82.6946 151.16C83.659 152.207 84.7895 153.292 86.0094 154.205C85.6044 154.706 85.2113 155.192 84.8477 155.702C80.9576 156.577 75.7615 154.496 72.5522 152.924C70.5668 151.928 69.1954 155.108 71.2046 156.074C74.7399 157.787 78.6284 159.518 82.6023 159.417C82.3604 159.928 82.1095 160.481 81.8973 161.015C81.715 161.453 81.598 161.87 81.4453 162.331C77.5661 163.556 72.3559 162.218 68.795 161.142C66.6868 160.51 65.2978 163.651 67.4474 164.292C71.5004 165.547 75.847 166.892 80.1314 166.166C78.5967 168.336 76.0642 169.772 73.5016 170.307C69.6057 171.129 65.596 170.275 61.7675 169.348C59.585 168.777 59.0794 172.218 61.2117 172.699C65.9446 173.87 71.0345 174.72 75.7752 173.217C77.6406 172.606 79.3764 171.67 80.8046 170.389C80.9902 171.854 81.3539 173.342 81.8453 174.763C83.7317 180.21 87.5557 184.714 91.6363 188.72L91.9324 188.959C91.9902 189.493 92.2884 190.002 92.8989 190.277C94.9377 191.267 96.8706 189.906 97.6182 187.952C98.0131 186.859 98.1561 185.683 98.5806 184.613C98.9755 183.52 99.4978 182.48 100.091 181.474C102.656 177.091 106.344 173.47 109.125 169.214C114.52 160.907 117.655 151.309 118.177 141.401C118.181 141.185 118.169 140.957 118.108 140.761C123.307 137.509 127.378 132.809 129.958 127.197C130.81 125.205 127.674 123.815 126.745 125.842L126.816 125.875Z" fill="url(#paint17_linear_4407_35889)"/>
<path d="M171.878 90.0764C170.144 96.252 167.313 102.081 163.572 107.246C164.241 101.403 160.491 96.2637 156.747 92.0173C161.537 90.4386 166.594 89.5949 171.679 89.5793C171.755 89.7371 171.817 89.9068 171.893 90.0646M161.339 109.982C158.094 113.3 153.25 114.872 148.701 113.64C144.542 112.535 141.278 109.171 139.928 105.143C141.081 104.401 142.113 103.416 142.888 102.196C143.27 101.579 143.218 100.965 142.965 100.461C143.743 100.162 144.459 99.8145 145.106 99.3509C145.183 99.3871 145.263 99.3966 145.317 99.403C146.466 99.6348 147.531 99.5454 148.478 99.185C152.349 102.797 156.437 106.165 160.734 109.247C161.045 109.487 161.397 109.597 161.75 109.585C161.72 109.608 161.699 109.673 161.669 109.697C161.595 109.755 161.461 109.861 161.366 109.985L161.339 109.982ZM149.206 121.151C147.704 122.459 146.232 123.866 144.973 125.419C144.601 125.835 142.345 129.122 141.855 130.213C141.806 129.937 141.753 129.687 141.57 129.395C138.495 124.62 135.747 119.221 135.658 113.396C135.63 111.04 136.079 108.889 136.91 106.946C138.703 111.596 142.534 115.433 147.392 116.81C149.474 117.397 151.658 117.562 153.793 117.33C152.286 118.57 150.725 119.804 149.224 121.112L149.206 121.151ZM186.986 77.9638C184.044 81.8183 180.227 84.8113 175.821 86.6928C175.579 86.4475 175.233 86.2845 174.764 86.2422C165.001 85.6862 155.175 87.9219 146.706 92.8211C145.708 93.3917 144.719 94.0039 143.756 94.6193C142.885 93.7311 142.174 92.6186 141.546 91.6107C140.438 89.7206 137.258 91.0452 138.381 92.9235C139.091 94.1576 139.956 95.4641 140.945 96.6233C140.439 97.0228 139.949 97.4106 139.482 97.8282C135.495 97.8259 130.884 94.6526 128.099 92.4138C126.381 91.0055 124.344 93.805 126.091 95.1898C129.163 97.6386 132.575 100.182 136.474 100.958C136.126 101.403 135.759 101.887 135.435 102.362C135.161 102.749 134.955 103.13 134.704 103.546C130.651 103.888 125.862 101.437 122.625 99.6039C120.708 98.5234 118.662 101.281 120.618 102.38C124.296 104.495 128.24 106.764 132.579 106.998C130.604 108.777 127.818 109.621 125.2 109.579C121.219 109.524 117.495 107.809 113.965 106.062C111.961 105.026 110.711 108.271 112.685 109.209C117.044 111.392 121.822 113.341 126.778 112.918C128.732 112.732 130.631 112.201 132.306 111.265C132.165 112.736 132.192 114.267 132.359 115.761C133 121.49 135.74 126.725 138.839 131.53L139.075 131.829C139.014 132.362 139.193 132.925 139.728 133.326C141.499 134.741 143.684 133.839 144.843 132.097C145.469 131.117 145.867 130.002 146.517 129.052C147.142 128.072 147.881 127.173 148.681 126.321C152.148 122.611 156.541 119.889 160.191 116.349C167.282 109.433 172.452 100.76 175.141 91.2093C175.193 90.999 175.232 90.7738 175.215 90.569C181.003 88.5413 186.008 84.8517 189.76 79.9444C191.029 78.1891 188.276 76.1434 186.924 77.9158L186.986 77.9638Z" fill="url(#paint18_linear_4407_35889)"/>
<path d="M239.397 52.6521C236.332 58.2876 232.277 63.3413 227.481 67.546C229.433 61.998 226.919 56.1536 224.212 51.1812C229.233 50.7067 234.352 51.0082 239.312 52.123C239.352 52.2939 239.374 52.473 239.414 52.644M224.696 69.7169C220.793 72.2305 215.722 72.687 211.56 70.4744C207.751 68.4733 205.317 64.4677 204.896 60.2401C206.185 59.7734 207.41 59.0418 208.437 58.0253C208.946 57.5085 209.033 56.8978 208.898 56.3507C209.723 56.2316 210.498 56.052 211.233 55.744C211.3 55.7964 211.376 55.8235 211.426 55.8416C212.495 56.323 213.553 56.4725 214.556 56.3316C217.528 60.7141 220.765 64.9064 224.269 68.866C224.518 69.1689 224.838 69.3541 225.184 69.4208C225.15 69.4371 225.115 69.496 225.081 69.5123C224.995 69.553 224.841 69.6264 224.721 69.726L224.696 69.7169ZM210.382 77.9097C208.627 78.8516 206.879 79.8956 205.306 81.1305C204.851 81.4528 201.921 84.1566 201.201 85.1113C201.214 84.8309 201.218 84.5758 201.105 84.2503C199.168 78.911 197.69 73.0369 198.898 67.3375C199.395 65.0342 200.311 63.0373 201.553 61.3278C202.266 66.2589 205.149 70.8522 209.579 73.2744C211.478 74.3089 213.571 74.9561 215.704 75.2043C213.959 76.0784 212.163 76.9343 210.408 77.8762L210.382 77.9097ZM256.819 44.2004C253.094 47.3046 248.707 49.3743 243.993 50.2294C243.811 49.9365 243.51 49.7006 243.063 49.5553C233.668 46.8432 223.59 46.8388 214.244 49.7331C213.144 50.0676 212.043 50.4446 210.968 50.8307C210.316 49.771 209.87 48.5284 209.482 47.4061C208.822 45.317 205.427 45.9017 206.105 47.9827C206.523 49.3438 207.075 50.8097 207.781 52.1597C207.2 52.4369 206.636 52.7059 206.088 53.0093C202.2 52.1208 198.411 48.0021 196.193 45.2004C194.832 43.4455 192.223 45.7221 193.618 47.4607C196.069 50.531 198.83 53.7693 202.459 55.3924C202.02 55.7491 201.556 56.1392 201.133 56.5303C200.78 56.8462 200.495 57.172 200.158 57.5223C196.13 56.9541 192.006 53.5005 189.258 50.994C187.629 49.5143 185.021 51.7484 186.683 53.2543C189.799 56.1342 193.139 59.2229 197.318 60.4151C194.997 61.711 192.093 61.9146 189.55 61.2921C185.681 60.353 182.432 57.8531 179.378 55.3657C177.655 53.9096 175.715 56.7955 177.431 58.1494C181.195 61.2469 185.421 64.2092 190.346 64.898C192.293 65.1509 194.262 65.0556 196.104 64.5153C195.639 65.9177 195.325 67.4167 195.155 68.9102C194.507 74.6383 196.014 80.3513 197.967 85.7249L198.131 86.0685C197.953 86.5752 198.002 87.1631 198.434 87.6739C199.846 89.4468 202.177 89.0527 203.695 87.6126C204.523 86.7962 205.159 85.7971 206.004 85.0151C206.832 84.1986 207.752 83.4861 208.721 82.8342C212.926 79.9867 217.815 78.3101 222.16 75.6696C230.612 70.5028 237.581 63.1958 242.326 54.4819C242.423 54.2883 242.511 54.0775 242.54 53.8739C248.634 53.1834 254.334 50.6985 259.083 46.748C260.711 45.3187 258.482 42.7123 256.769 44.1399L256.819 44.2004Z" fill="url(#paint19_linear_4407_35889)"/>
<path d="M313.604 31.2212C309.355 36.0276 304.271 40.045 298.655 43.0692C301.8 38.099 300.659 31.8402 299.135 26.3881C304.135 27.0498 309.056 28.4896 313.64 30.6867C313.641 30.8621 313.622 31.0417 313.623 31.2171M295.455 44.5614C291.089 46.1375 286.043 45.4469 282.483 42.3588C279.219 39.5558 277.743 35.1069 278.28 30.8925C279.641 30.7262 280.999 30.2875 282.227 29.5267C282.839 29.137 283.061 28.5613 283.052 27.9978C283.882 28.0664 284.678 28.0649 285.463 27.9292C285.516 27.9953 285.584 28.0386 285.629 28.0676C286.564 28.7761 287.561 29.1586 288.57 29.246C290.485 34.1823 292.701 38.993 295.229 43.6366C295.404 43.9876 295.674 44.2396 295.997 44.3822C295.96 44.3904 295.913 44.44 295.876 44.4482C295.783 44.4688 295.617 44.5058 295.477 44.5759L295.455 44.5614ZM279.67 49.3416C277.748 49.8667 275.811 50.4929 274.001 51.3441C273.485 51.5564 270.024 53.5356 269.109 54.3048C269.184 54.0345 269.246 53.7869 269.208 53.4442C268.516 47.8069 268.391 41.751 270.844 36.4667C271.845 34.3331 273.185 32.592 274.778 31.2039C274.369 36.1697 276.15 41.2917 279.925 44.6441C281.544 46.0776 283.439 47.1769 285.463 47.8965C283.566 48.3576 281.624 48.7898 279.703 49.3148L279.67 49.3416ZM332.477 26.8847C328.151 29.076 323.412 30.111 318.626 29.8891C318.515 29.5629 318.274 29.2655 317.871 29.0238C309.321 24.2771 299.501 22.0167 289.744 22.7451C288.597 22.8249 287.44 22.9459 286.305 23.0813C285.907 21.9025 285.751 20.5918 285.624 19.4111C285.448 17.2272 282.009 17.0371 282.203 19.2169C282.306 20.637 282.516 22.1893 282.902 23.6632C282.273 23.8032 281.663 23.939 281.061 24.112C277.471 22.3758 274.7 17.5132 273.166 14.2862C272.233 12.2711 269.18 13.9058 270.151 15.9127C271.852 19.4536 273.818 23.2279 276.991 25.6222C276.483 25.8716 275.943 26.1479 275.444 26.4344C275.029 26.6633 274.678 26.9169 274.271 27.1829C270.472 25.7273 267.227 21.4382 265.11 18.38C263.853 16.5732 260.811 18.1667 262.094 20.0065C264.486 23.5108 267.05 27.269 270.855 29.3664C268.303 30.1099 265.427 29.658 263.088 28.4821C259.528 26.7005 256.921 23.5367 254.501 20.4288C253.149 18.624 250.611 21.0021 251.98 22.7058C254.956 26.5675 258.41 30.4006 263.056 32.1746C264.897 32.8569 266.838 33.2049 268.753 33.0906C267.986 34.3533 267.345 35.744 266.845 37.1617C264.93 42.5991 265.119 48.5044 265.819 54.1788L265.902 54.5504C265.615 55.0043 265.531 55.5884 265.839 56.183C266.818 58.227 269.178 58.3648 270.979 57.301C271.969 56.6907 272.813 55.8594 273.811 55.2863C274.801 54.676 275.857 54.1875 276.948 53.7692C281.684 51.9354 286.824 51.3959 291.65 49.7953C301.044 46.6518 309.473 41.0907 316.049 33.6604C316.187 33.4933 316.32 33.3077 316.394 33.1158C322.488 33.8071 328.6 32.6614 334.113 29.8745C336.019 28.8458 334.431 25.8065 332.442 26.8145L332.477 26.8847Z" fill="url(#paint20_linear_4407_35889)"/>
<path d="M394.642 26.9787C389.407 30.687 383.539 33.4362 377.38 35.0971C381.578 30.9771 381.897 24.6231 381.66 18.967C386.376 20.7538 390.838 23.28 394.799 26.4666C394.759 26.6375 394.701 26.8081 394.661 26.979M373.923 35.8184C369.312 36.3551 364.558 34.5299 361.798 30.71C359.261 27.2353 358.842 22.5669 360.328 18.5868C361.69 18.7358 363.113 18.619 364.483 18.159C365.168 17.9195 365.515 17.4096 365.635 16.859C366.428 17.1156 367.202 17.2959 367.998 17.3432C368.035 17.4197 368.091 17.4775 368.128 17.516C368.876 18.4193 369.759 19.0196 370.722 19.3353C371.457 24.5784 372.515 29.7681 373.915 34.8666C374.005 35.2484 374.21 35.5553 374.492 35.7679C374.454 35.7675 374.397 35.8049 374.359 35.8045C374.264 35.8034 374.094 35.8014 373.942 35.8377L373.923 35.8184ZM357.463 36.8651C355.473 36.9373 353.443 37.1041 351.487 37.5192C350.936 37.608 347.115 38.744 346.047 39.2836C346.183 39.0377 346.299 38.8106 346.341 38.4685C346.956 32.8223 348.218 26.898 351.815 22.3142C353.276 20.4657 354.979 19.0769 356.847 18.0897C355.314 22.8306 355.877 28.224 358.785 32.3501C360.034 34.1158 361.628 35.619 363.433 36.782C361.481 36.7974 359.492 36.7744 357.501 36.8465L357.463 36.8651ZM414.006 27.0697C409.294 28.2143 404.444 28.1392 399.835 26.8295C399.802 26.4865 399.635 26.1419 399.298 25.8144C392.06 19.2397 383.016 14.7951 373.35 13.2746C372.216 13.0901 371.061 12.9435 369.926 12.8162C369.808 11.5775 369.956 10.2659 370.102 9.08739C370.43 6.92122 367.125 5.95025 366.816 8.11663C366.591 9.52261 366.441 11.0817 366.48 12.605C365.836 12.5975 365.21 12.5903 364.585 12.6211C361.487 10.1107 359.901 4.74354 359.145 1.25142C358.697 -0.92374 355.352 -0.0297697 355.838 2.14583C356.684 5.98163 357.735 10.1053 360.277 13.1613C359.726 13.2882 359.137 13.4336 358.586 13.5985C358.129 13.7265 357.729 13.8932 357.273 14.0592C353.907 11.7741 351.728 6.85695 350.366 3.39588C349.556 1.34977 346.23 2.2059 347.059 4.29029C348.586 8.24817 350.223 12.4929 353.448 15.4045C350.794 15.545 348.097 14.4479 346.089 12.7686C343.03 10.2206 341.215 6.54488 339.57 2.96632C338.666 0.900083 335.652 2.63542 336.595 4.60693C338.609 9.04633 341.096 13.5673 345.214 16.356C346.85 17.4409 348.66 18.2233 350.551 18.5497C349.515 19.6037 348.573 20.811 347.762 22.077C344.655 26.9329 343.489 32.725 342.874 38.4093L342.869 38.79C342.486 39.1662 342.271 39.7158 342.434 40.3648C342.92 42.5785 345.186 43.2519 347.183 42.6279C348.286 42.2599 349.298 41.6435 350.401 41.3136C351.504 40.9457 352.644 40.7115 353.801 40.5536C358.831 39.8504 363.959 40.4998 369.023 40.0445C378.887 39.1309 388.364 35.643 396.465 29.9122C396.637 29.7809 396.809 29.6306 396.925 29.4607C402.699 31.5262 408.911 31.8075 414.916 30.3542C417.007 29.7884 416.155 26.4664 413.988 26.9934L414.006 27.0697Z" fill="url(#paint21_linear_4407_35889)"/>
<path d="M470.14 40.3614C464.216 42.8223 457.885 44.2081 451.512 44.4682C456.516 41.3766 458.231 35.2502 459.249 29.6812C463.454 32.4653 467.248 35.9142 470.407 39.8967C470.331 40.0546 470.236 40.208 470.159 40.3658M447.981 44.4084C443.365 43.9139 439.132 41.084 437.284 36.749C435.577 32.8 436.199 28.1542 438.527 24.6005C439.823 25.0467 441.236 25.2469 442.674 25.1007C443.395 25.0183 443.846 24.5975 444.085 24.087C444.801 24.5124 445.517 24.8593 446.282 25.081C446.301 25.1638 446.344 25.2326 446.372 25.2784C446.901 26.3244 447.63 27.105 448.5 27.6255C448.059 32.9014 447.944 38.1966 448.183 43.4784C448.187 43.8706 448.319 44.2152 448.547 44.4848C448.51 44.476 448.446 44.4999 448.409 44.4911C448.317 44.4691 448.151 44.4295 447.995 44.4314L447.981 44.4084ZM431.696 41.7952C429.739 41.426 427.723 41.1407 425.723 41.1136C425.166 41.0787 421.188 41.3427 420.028 41.6334C420.214 41.4235 420.378 41.2277 420.494 40.9032C422.341 35.5322 424.881 30.0329 429.401 26.3563C431.235 24.8761 433.202 23.8975 435.242 23.3471C432.7 27.6326 432.058 33.0171 433.983 37.6835C434.811 39.6814 436.033 41.4992 437.537 43.0321C435.63 42.6163 433.695 42.1546 431.738 41.7854L431.696 41.7952ZM489.007 44.7256C484.158 44.8015 479.444 43.6574 475.239 41.3626C475.282 41.0205 475.195 40.6477 474.939 40.2538C469.331 32.2434 461.492 25.9116 452.402 22.2947C451.335 21.8642 450.242 21.4664 449.163 21.0915C449.321 19.8573 449.755 18.6107 450.158 17.4936C450.957 15.4534 447.948 13.7767 447.168 15.8213C446.638 17.143 446.147 18.6303 445.848 20.1246C445.222 19.9751 444.614 19.83 443.997 19.7219C441.53 16.5896 441.168 11.0047 441.203 7.43204C441.246 5.21154 437.785 5.34483 437.779 7.57412C437.757 11.502 437.872 15.756 439.676 19.2977C439.111 19.2998 438.504 19.3116 437.93 19.3507C437.456 19.3748 437.03 19.4491 436.547 19.5102C433.77 16.5385 432.731 11.2616 432.167 7.5852C431.828 5.41076 428.396 5.51142 428.743 7.72728C429.358 11.9246 430.018 16.426 432.52 19.9779C429.9 19.5289 427.512 17.8633 425.925 15.7822C423.504 12.6216 422.546 8.63606 421.732 4.78265C421.306 2.5677 417.983 3.59474 418.468 5.72591C419.452 10.5004 420.879 15.4588 424.279 19.0878C425.635 20.5071 427.227 21.6698 429 22.4057C427.757 23.205 426.571 24.1744 425.501 25.2302C421.398 29.2803 418.982 34.672 417.126 40.08L417.038 40.4503C416.581 40.7327 416.25 41.2212 416.265 41.8902C416.25 44.1565 418.312 45.3137 420.397 45.1459C421.555 45.0306 422.677 44.6527 423.826 44.5745C424.983 44.4593 426.146 44.4824 427.31 44.584C432.371 45.0087 437.228 46.7742 442.269 47.4484C452.091 48.7351 462.104 47.4258 471.271 43.6249C471.467 43.5349 471.669 43.4264 471.819 43.2861C476.995 46.5756 482.991 48.2215 489.168 48.1299C491.333 48.0396 491.235 44.6116 489.006 44.6472L489.007 44.7256Z" fill="url(#paint22_linear_4407_35889)"/>
<path d="M541.202 70.3714C534.877 71.4459 528.397 71.3816 522.127 70.2106C527.695 68.3157 530.737 62.7277 532.974 57.5271C536.45 61.1806 539.377 65.3901 541.566 69.9781C541.456 70.1148 541.329 70.2431 541.219 70.3798M518.699 69.3632C514.311 67.8496 510.817 64.1451 509.985 59.5067C509.204 55.2762 510.849 50.887 513.913 47.9436C515.076 48.6682 516.409 49.1792 517.843 49.3579C518.564 49.4387 519.098 49.1295 519.444 48.6852C520.048 49.26 520.668 49.7581 521.364 50.1452C521.365 50.2303 521.39 50.3067 521.407 50.3576C521.689 51.4955 522.226 52.4193 522.957 53.1209C521.347 58.1648 520.052 63.3004 519.104 68.5019C519.02 68.8851 519.072 69.2505 519.233 69.5642C519.199 69.5474 519.132 69.5563 519.098 69.5395C519.013 69.4975 518.86 69.4218 518.707 69.3887L518.699 69.3632ZM503.41 63.1764C501.585 62.3791 499.684 61.6504 497.741 61.177C497.206 61.0185 493.269 60.3867 492.073 60.4107C492.302 60.2478 492.505 60.0935 492.691 59.8033C495.692 54.9809 499.397 50.1884 504.625 47.6152C506.743 46.5823 508.879 46.0681 510.991 45.9877C507.555 49.5965 505.725 54.7012 506.558 59.6798C506.919 61.8122 507.704 63.8572 508.827 65.6875C507.061 64.8559 505.278 63.9734 503.453 63.1761L503.41 63.1764ZM558.616 78.842C553.872 77.8322 549.534 75.6634 545.948 72.4868C546.066 72.1629 546.065 71.7803 545.903 71.339C542.229 62.278 536.004 54.3544 527.952 48.7971C527.009 48.1393 526.032 47.5072 525.064 46.9006C525.494 45.733 526.196 44.6148 526.838 43.6161C528.073 41.806 525.515 39.4993 524.298 41.3178C523.486 42.4876 522.674 43.8275 522.05 45.2173C521.472 44.9315 520.912 44.6542 520.335 44.4109C518.631 40.8066 519.527 35.2822 520.359 31.8076C520.898 29.6529 517.495 29.0094 516.991 31.1809C516.091 35.0046 515.252 39.1765 516.218 43.0318C515.667 42.9074 515.073 42.7833 514.504 42.6931C514.038 42.6108 513.605 42.5878 513.121 42.5396C511.079 39.0223 511.245 33.6467 511.518 29.9373C511.674 27.7423 508.306 27.0731 508.149 29.3106C507.81 33.5392 507.446 38.074 509.092 42.0954C506.638 41.0722 504.683 38.915 503.601 36.5317C501.948 32.91 501.906 28.8113 501.974 24.8735C502.054 22.6194 498.586 22.8777 498.582 25.0633C498.473 29.9369 498.755 35.0887 501.258 39.3858C502.262 41.0722 503.554 42.5614 505.117 43.6749C503.727 44.1762 502.355 44.856 501.076 45.6459C496.171 48.6765 492.61 53.3916 489.592 58.2481L489.423 58.5892C488.915 58.7623 488.483 59.1645 488.349 59.8201C487.828 62.0257 489.578 63.6143 491.648 63.9169C492.802 64.0632 493.981 63.9458 495.118 64.1262C496.271 64.2726 497.4 64.5551 498.512 64.9143C503.349 66.4594 507.689 69.2659 512.451 71.0495C521.737 74.499 531.79 75.4608 541.574 73.8049C541.786 73.7612 542.006 73.7004 542.184 73.5973C546.494 77.9603 551.97 80.9048 558.012 82.1962C560.142 82.5919 560.813 79.2289 558.632 78.7654L558.616 78.842Z" fill="url(#paint23_linear_4407_35889)"/>
<path d="M603.965 115.525C597.559 115.168 591.255 113.667 585.401 111.133C591.251 110.522 595.458 105.749 598.794 101.174C601.372 105.508 603.291 110.263 604.407 115.222C604.269 115.331 604.117 115.428 603.979 115.537M582.247 109.546C578.304 107.096 575.72 102.708 575.939 98.001C576.117 93.7028 578.696 89.7882 582.337 87.5986C583.311 88.5634 584.497 89.3575 585.855 89.85C586.54 90.0889 587.129 89.9058 587.566 89.5497C588.026 90.244 588.521 90.8674 589.114 91.3995C589.095 91.4824 589.103 91.5626 589.108 91.616C589.131 92.7882 589.448 93.808 590.005 94.6543C587.316 99.215 584.912 103.935 582.833 108.796C582.666 109.151 582.635 109.519 582.723 109.861C582.694 109.837 582.626 109.83 582.597 109.806C582.523 109.747 582.391 109.639 582.249 109.573L582.247 109.546ZM568.714 100.12C567.111 98.9372 565.419 97.8045 563.63 96.9115C563.144 96.6383 559.445 95.1483 558.274 94.9062C558.533 94.7981 558.766 94.6928 559.011 94.4511C563.008 90.4153 567.685 86.565 573.354 85.2165C575.649 84.6796 577.846 84.6525 579.923 85.0429C575.771 87.7989 572.853 92.3699 572.56 97.4092C572.438 99.5685 572.749 101.737 573.438 103.771C571.901 102.568 570.358 101.311 568.755 100.129L568.714 100.12ZM619.062 127.65C614.662 125.612 610.913 122.534 608.122 118.641C608.309 118.351 608.393 117.978 608.333 117.512C606.763 107.861 602.453 98.7534 595.836 91.5474C595.063 90.6967 594.251 89.8635 593.441 89.0571C594.12 88.0141 595.052 87.0797 595.901 86.2485C597.506 84.7576 595.525 81.9407 593.934 83.4435C592.883 84.4039 591.794 85.5302 590.876 86.7467C590.377 86.3399 589.892 85.945 589.383 85.5797C588.522 81.6871 590.623 76.4995 592.206 73.2964C593.209 71.315 590.035 69.9323 589.061 71.9376C587.334 75.4661 585.589 79.3476 585.676 83.3211C585.165 83.0774 584.614 82.8246 584.08 82.6104C583.643 82.4266 583.226 82.3081 582.765 82.1538C581.555 78.2707 582.911 73.0664 584 69.51C584.64 67.4045 581.504 66.0042 580.855 68.1512C579.585 72.1989 578.224 76.5398 578.935 80.8261C576.77 79.2838 575.343 76.7465 574.817 74.1824C574.009 70.2842 574.878 66.2783 575.819 62.4539C576.398 60.2739 572.959 59.7558 572.469 61.886C571.281 66.6137 570.412 71.6997 571.898 76.445C572.503 78.3123 573.432 80.0512 574.709 81.4838C573.242 81.6641 571.753 82.0222 570.33 82.5084C564.875 84.3746 560.356 88.1815 556.335 92.2468L556.095 92.542C555.56 92.5978 555.05 92.8941 554.774 93.5036C553.776 95.5384 555.13 97.4759 557.081 98.2305C558.173 98.6293 559.349 98.7765 560.417 99.2048C561.51 99.6036 562.547 100.13 563.552 100.727C567.925 103.307 571.534 107.007 575.781 109.803C584.069 115.228 593.657 118.398 603.565 118.955C603.781 118.959 604.01 118.949 604.206 118.888C607.439 124.099 612.125 128.186 617.729 130.786C619.717 131.645 621.119 128.515 619.096 127.579L619.062 127.65Z" fill="url(#paint24_linear_4407_35889)"/>
<path d="M654.904 173.033C648.734 171.277 642.915 168.425 637.762 164.666C643.603 165.357 648.757 161.626 653.018 157.897C654.58 162.692 655.405 167.752 655.402 172.835C655.244 172.911 655.074 172.972 654.916 173.048M635.034 162.424C631.727 159.167 630.172 154.318 631.421 149.774C632.541 145.62 635.918 142.369 639.952 141.034C640.689 142.189 641.671 143.225 642.888 144.004C643.504 144.388 644.118 144.339 644.623 144.088C644.92 144.866 645.264 145.583 645.726 146.232C645.689 146.309 645.679 146.389 645.673 146.443C645.437 147.591 645.522 148.656 645.879 149.604C642.252 153.461 638.869 157.536 635.771 161.821C635.53 162.131 635.419 162.483 635.43 162.836C635.406 162.806 635.341 162.785 635.318 162.755C635.259 162.68 635.154 162.546 635.031 162.45L635.034 162.424ZM623.907 150.252C622.604 148.746 621.203 147.268 619.653 146.004C619.239 145.63 615.96 143.363 614.87 142.869C615.147 142.821 615.397 142.769 615.69 142.588C620.477 139.53 625.886 136.803 631.713 136.734C634.069 136.715 636.219 137.172 638.159 138.01C633.502 139.785 629.65 143.602 628.255 148.454C627.661 150.533 627.487 152.716 627.712 154.852C626.477 153.341 625.249 151.776 623.946 150.27L623.907 150.252ZM666.964 188.182C663.119 185.227 660.14 181.4 658.274 176.988C658.52 176.746 658.685 176.401 658.729 175.933C659.32 166.173 657.12 156.341 652.251 147.856C651.684 146.856 651.075 145.864 650.463 144.9C651.355 144.031 652.47 143.325 653.48 142.701C655.375 141.6 654.061 138.416 652.179 139.532C650.942 140.237 649.632 141.097 648.469 142.081C648.071 141.575 647.685 141.083 647.269 140.615C647.286 136.628 650.477 132.03 652.726 129.253C654.141 127.541 651.348 125.494 649.957 127.236C647.496 130.298 644.94 133.701 644.15 137.596C643.706 137.246 643.223 136.878 642.749 136.551C642.364 136.276 641.983 136.069 641.568 135.817C641.241 131.763 643.71 126.984 645.555 123.755C646.642 121.842 643.891 119.786 642.785 121.737C640.656 125.406 638.373 129.341 638.123 133.679C636.351 131.698 635.517 128.909 635.568 126.292C635.638 122.312 637.367 118.595 639.127 115.072C640.171 113.072 636.93 111.811 635.984 113.781C633.785 118.131 631.818 122.902 632.223 127.857C632.402 129.812 632.926 131.713 633.856 133.391C632.386 133.244 630.854 133.266 629.359 133.427C623.627 134.048 618.381 136.767 613.564 139.849L613.265 140.084C612.731 140.021 612.168 140.197 611.764 140.731C610.343 142.496 611.237 144.684 612.975 145.85C613.953 146.479 615.067 146.881 616.015 147.534C616.993 148.163 617.889 148.905 618.738 149.708C622.437 153.188 625.142 157.591 628.67 161.252C635.561 168.368 644.217 173.569 653.759 176.292C653.969 176.344 654.194 176.384 654.399 176.367C656.406 182.162 660.078 187.179 664.973 190.949C666.724 192.224 668.78 189.479 667.012 188.12L666.964 188.182Z" fill="url(#paint25_linear_4407_35889)"/>
<path d="M692.235 241.053C686.61 237.969 681.57 233.895 677.383 229.084C682.924 231.056 688.779 228.565 693.762 225.877C694.218 230.899 693.898 236.016 692.764 240.971C692.593 241.01 692.414 241.032 692.243 241.071M675.222 226.292C672.722 222.381 672.284 217.308 674.513 213.155C676.529 209.355 680.544 206.935 684.774 206.531C685.236 207.821 685.963 209.049 686.976 210.079C687.491 210.59 688.101 210.679 688.649 210.546C688.765 211.372 688.942 212.147 689.247 212.883C689.194 212.95 689.167 213.025 689.149 213.076C688.663 214.143 688.51 215.2 688.647 216.204C684.253 219.158 680.048 222.379 676.074 225.868C675.77 226.116 675.584 226.435 675.516 226.781C675.5 226.747 675.441 226.712 675.425 226.677C675.385 226.592 675.312 226.438 675.213 226.317L675.222 226.292ZM667.081 211.95C666.145 210.192 665.108 208.44 663.878 206.863C663.558 206.407 660.864 203.467 659.912 202.744C660.192 202.758 660.448 202.763 660.774 202.651C666.121 200.734 672.001 199.278 677.697 200.507C679.999 201.012 681.993 201.936 683.698 203.184C678.764 203.879 674.159 206.744 671.72 211.164C670.678 213.059 670.023 215.149 669.767 217.281C668.899 215.533 668.05 213.734 667.114 211.976L667.081 211.95ZM700.623 258.504C697.532 254.768 695.478 250.374 694.641 245.658C694.934 245.477 695.171 245.177 695.318 244.73C698.066 235.347 698.108 225.271 695.248 215.916C694.917 214.815 694.544 213.713 694.162 212.637C695.224 211.988 696.469 211.548 697.593 211.164C699.685 210.511 699.112 207.115 697.029 207.785C695.666 208.198 694.198 208.744 692.845 209.446C692.57 208.863 692.303 208.298 692.001 207.749C692.904 203.866 697.038 200.092 699.848 197.885C701.608 196.53 699.341 193.914 697.597 195.303C694.517 197.741 691.268 200.49 689.631 204.112C689.276 203.672 688.888 203.206 688.498 202.782C688.183 202.428 687.859 202.142 687.51 201.803C688.093 197.778 691.562 193.668 694.079 190.93C695.565 189.306 693.341 186.69 691.828 188.347C688.936 191.451 685.835 194.78 684.627 198.953C683.339 196.628 683.146 193.723 683.779 191.184C684.732 187.318 687.245 184.079 689.744 181.035C691.206 179.318 688.327 177.367 686.967 179.078C683.855 182.83 680.876 187.044 680.169 191.966C679.909 193.911 679.997 195.881 680.53 197.724C679.13 197.254 677.631 196.935 676.138 196.76C670.412 196.09 664.692 197.575 659.31 199.508L658.966 199.671C658.46 199.491 657.872 199.538 657.359 199.968C655.581 201.373 655.966 203.705 657.401 205.228C658.215 206.059 659.211 206.699 659.99 207.546C660.804 208.377 661.513 209.299 662.162 210.271C664.994 214.486 666.653 219.38 669.277 223.735C674.414 232.204 681.696 239.199 690.394 243.976C690.587 244.073 690.797 244.162 691.001 244.192C691.669 250.287 694.133 255.995 698.067 260.759C699.49 262.391 702.105 260.172 700.684 258.455L700.623 258.504Z" fill="url(#paint26_linear_4407_35889)"/>
<path d="M713.373 315.784C708.582 311.517 704.584 306.419 701.58 300.792C706.539 303.955 712.804 302.838 718.262 301.335C717.581 306.332 716.123 311.246 713.908 315.822C713.732 315.822 713.553 315.803 713.377 315.802M700.1 297.586C698.54 293.215 699.25 288.173 702.352 284.625C705.168 281.373 709.624 279.914 713.837 280.467C713.998 281.828 714.431 283.188 715.188 284.419C715.575 285.032 716.15 285.256 716.714 285.249C716.642 286.079 716.64 286.874 716.773 287.66C716.707 287.713 716.663 287.781 716.634 287.826C715.922 288.757 715.535 289.753 715.444 290.762C710.5 292.657 705.68 294.854 701.026 297.365C700.674 297.539 700.421 297.807 700.277 298.129C700.269 298.092 700.22 298.045 700.212 298.008C700.191 297.915 700.155 297.749 700.085 297.609L700.1 297.586ZM695.379 281.786C694.861 279.863 694.242 277.924 693.398 276.111C693.188 275.594 691.221 272.126 690.455 271.208C690.726 271.285 690.973 271.347 691.316 271.311C696.957 270.64 703.014 270.538 708.29 273.011C710.42 274.02 712.156 275.366 713.539 276.964C708.573 276.537 703.444 278.298 700.077 282.059C698.637 283.673 697.53 285.563 696.802 287.584C696.349 285.685 695.924 283.742 695.406 281.819L695.379 281.786ZM717.638 334.67C715.463 330.336 714.446 325.594 714.686 320.81C715.013 320.7 715.311 320.46 715.555 320.058C720.335 311.528 722.633 301.718 721.942 291.96C721.866 290.813 721.75 289.655 721.618 288.521C722.799 288.127 724.111 287.976 725.292 287.854C727.477 287.686 727.68 284.248 725.499 284.434C724.078 284.531 722.525 284.735 721.049 285.116C720.912 284.486 720.778 283.876 720.608 283.273C722.358 279.691 727.232 276.939 730.465 275.418C732.484 274.492 730.861 271.433 728.85 272.397C725.302 274.083 721.519 276.035 719.113 279.198C718.865 278.69 718.591 278.148 718.306 277.648C718.079 277.233 717.827 276.88 717.562 276.473C719.032 272.68 723.335 269.452 726.401 267.347C728.213 266.098 726.631 263.05 724.786 264.326C721.272 266.703 717.504 269.253 715.391 273.05C714.657 270.495 715.12 267.621 716.305 265.287C718.101 261.734 721.275 259.14 724.393 256.733C726.203 255.387 723.834 252.841 722.125 254.203C718.251 257.163 714.404 260.603 712.612 265.241C711.923 267.079 711.567 269.018 711.674 270.934C710.415 270.162 709.026 269.515 707.61 269.01C702.179 267.075 696.272 267.241 690.594 267.92L690.222 268.001C689.769 267.712 689.185 267.627 688.589 267.931C686.541 268.903 686.395 271.262 687.452 273.067C688.058 274.059 688.886 274.906 689.456 275.906C690.063 276.898 690.547 277.956 690.961 279.048C692.777 283.79 693.297 288.931 694.88 293.763C697.988 303.167 703.518 311.616 710.924 318.219C711.091 318.357 711.276 318.491 711.468 318.566C710.753 324.656 711.876 330.771 714.642 336.294C715.664 338.204 718.709 336.627 717.709 334.635L717.638 334.67Z" fill="url(#paint27_linear_4407_35889)"/>
</g>
<defs>
<linearGradient id="paint0_linear_4407_35889" x1="56.3936" y1="-25.8282" x2="816.416" y2="348.773" gradientUnits="userSpaceOnUse">
<stop stop-color="#C62D80"/>
<stop offset="1" stop-color="#7CDAEC"/>
</linearGradient>
<linearGradient id="paint1_linear_4407_35889" x1="56.3936" y1="-25.8282" x2="816.416" y2="348.773" gradientUnits="userSpaceOnUse">
<stop stop-color="#C62D80"/>
<stop offset="1" stop-color="#7CDAEC"/>
</linearGradient>
<linearGradient id="paint2_linear_4407_35889" x1="56.3936" y1="-25.8282" x2="816.416" y2="348.773" gradientUnits="userSpaceOnUse">
<stop stop-color="#C62D80"/>
<stop offset="1" stop-color="#7CDAEC"/>
</linearGradient>
<linearGradient id="paint3_linear_4407_35889" x1="56.3936" y1="-25.8282" x2="816.416" y2="348.773" gradientUnits="userSpaceOnUse">
<stop stop-color="#C62D80"/>
<stop offset="1" stop-color="#7CDAEC"/>
</linearGradient>
<linearGradient id="paint4_linear_4407_35889" x1="56.3936" y1="-25.8282" x2="816.416" y2="348.773" gradientUnits="userSpaceOnUse">
<stop stop-color="#C62D80"/>
<stop offset="1" stop-color="#7CDAEC"/>
</linearGradient>
<linearGradient id="paint5_linear_4407_35889" x1="56.3936" y1="-25.8282" x2="816.416" y2="348.773" gradientUnits="userSpaceOnUse">
<stop stop-color="#C62D80"/>
<stop offset="1" stop-color="#7CDAEC"/>
</linearGradient>
<linearGradient id="paint6_linear_4407_35889" x1="56.3936" y1="-25.8282" x2="816.416" y2="348.773" gradientUnits="userSpaceOnUse">
<stop stop-color="#C62D80"/>
<stop offset="1" stop-color="#7CDAEC"/>
</linearGradient>
<linearGradient id="paint7_linear_4407_35889" x1="56.3936" y1="-25.8282" x2="816.416" y2="348.773" gradientUnits="userSpaceOnUse">
<stop stop-color="#C62D80"/>
<stop offset="1" stop-color="#7CDAEC"/>
</linearGradient>
<linearGradient id="paint8_linear_4407_35889" x1="56.3936" y1="-25.8282" x2="816.416" y2="348.773" gradientUnits="userSpaceOnUse">
<stop stop-color="#C62D80"/>
<stop offset="1" stop-color="#7CDAEC"/>
</linearGradient>
<linearGradient id="paint9_linear_4407_35889" x1="56.3936" y1="-25.8282" x2="816.416" y2="348.773" gradientUnits="userSpaceOnUse">
<stop stop-color="#C62D80"/>
<stop offset="1" stop-color="#7CDAEC"/>
</linearGradient>
<linearGradient id="paint10_linear_4407_35889" x1="56.3936" y1="-25.8282" x2="816.416" y2="348.773" gradientUnits="userSpaceOnUse">
<stop stop-color="#C62D80"/>
<stop offset="1" stop-color="#7CDAEC"/>
</linearGradient>
<linearGradient id="paint11_linear_4407_35889" x1="56.3936" y1="-25.8282" x2="816.416" y2="348.773" gradientUnits="userSpaceOnUse">
<stop stop-color="#C62D80"/>
<stop offset="1" stop-color="#7CDAEC"/>
</linearGradient>
<linearGradient id="paint12_linear_4407_35889" x1="56.3936" y1="-25.8282" x2="816.416" y2="348.773" gradientUnits="userSpaceOnUse">
<stop stop-color="#C62D80"/>
<stop offset="1" stop-color="#7CDAEC"/>
</linearGradient>
<linearGradient id="paint13_linear_4407_35889" x1="56.3936" y1="-25.8282" x2="816.416" y2="348.773" gradientUnits="userSpaceOnUse">
<stop stop-color="#C62D80"/>
<stop offset="1" stop-color="#7CDAEC"/>
</linearGradient>
<linearGradient id="paint14_linear_4407_35889" x1="56.3936" y1="-25.8282" x2="816.416" y2="348.773" gradientUnits="userSpaceOnUse">
<stop stop-color="#C62D80"/>
<stop offset="1" stop-color="#7CDAEC"/>
</linearGradient>
<linearGradient id="paint15_linear_4407_35889" x1="56.3936" y1="-25.8282" x2="816.416" y2="348.773" gradientUnits="userSpaceOnUse">
<stop stop-color="#C62D80"/>
<stop offset="1" stop-color="#7CDAEC"/>
</linearGradient>
<linearGradient id="paint16_linear_4407_35889" x1="56.3936" y1="-25.8282" x2="816.416" y2="348.773" gradientUnits="userSpaceOnUse">
<stop stop-color="#C62D80"/>
<stop offset="1" stop-color="#7CDAEC"/>
</linearGradient>
<linearGradient id="paint17_linear_4407_35889" x1="56.3936" y1="-25.8282" x2="816.416" y2="348.773" gradientUnits="userSpaceOnUse">
<stop stop-color="#C62D80"/>
<stop offset="1" stop-color="#7CDAEC"/>
</linearGradient>
<linearGradient id="paint18_linear_4407_35889" x1="56.3936" y1="-25.8282" x2="816.416" y2="348.773" gradientUnits="userSpaceOnUse">
<stop stop-color="#C62D80"/>
<stop offset="1" stop-color="#7CDAEC"/>
</linearGradient>
<linearGradient id="paint19_linear_4407_35889" x1="56.3936" y1="-25.8282" x2="816.416" y2="348.773" gradientUnits="userSpaceOnUse">
<stop stop-color="#C62D80"/>
<stop offset="1" stop-color="#7CDAEC"/>
</linearGradient>
<linearGradient id="paint20_linear_4407_35889" x1="56.3936" y1="-25.8282" x2="816.416" y2="348.773" gradientUnits="userSpaceOnUse">
<stop stop-color="#C62D80"/>
<stop offset="1" stop-color="#7CDAEC"/>
</linearGradient>
<linearGradient id="paint21_linear_4407_35889" x1="56.3936" y1="-25.8282" x2="816.416" y2="348.773" gradientUnits="userSpaceOnUse">
<stop stop-color="#C62D80"/>
<stop offset="1" stop-color="#7CDAEC"/>
</linearGradient>
<linearGradient id="paint22_linear_4407_35889" x1="56.3936" y1="-25.8282" x2="816.416" y2="348.773" gradientUnits="userSpaceOnUse">
<stop stop-color="#C62D80"/>
<stop offset="1" stop-color="#7CDAEC"/>
</linearGradient>
<linearGradient id="paint23_linear_4407_35889" x1="56.3936" y1="-25.8282" x2="816.416" y2="348.773" gradientUnits="userSpaceOnUse">
<stop stop-color="#C62D80"/>
<stop offset="1" stop-color="#7CDAEC"/>
</linearGradient>
<linearGradient id="paint24_linear_4407_35889" x1="56.3936" y1="-25.8282" x2="816.416" y2="348.773" gradientUnits="userSpaceOnUse">
<stop stop-color="#C62D80"/>
<stop offset="1" stop-color="#7CDAEC"/>
</linearGradient>
<linearGradient id="paint25_linear_4407_35889" x1="56.3936" y1="-25.8282" x2="816.416" y2="348.773" gradientUnits="userSpaceOnUse">
<stop stop-color="#C62D80"/>
<stop offset="1" stop-color="#7CDAEC"/>
</linearGradient>
<linearGradient id="paint26_linear_4407_35889" x1="56.3936" y1="-25.8282" x2="816.416" y2="348.773" gradientUnits="userSpaceOnUse">
<stop stop-color="#C62D80"/>
<stop offset="1" stop-color="#7CDAEC"/>
</linearGradient>
<linearGradient id="paint27_linear_4407_35889" x1="56.3936" y1="-25.8282" x2="816.416" y2="348.773" gradientUnits="userSpaceOnUse">
<stop stop-color="#C62D80"/>
<stop offset="1" stop-color="#7CDAEC"/>
</linearGradient>
</defs>
</svg>
