<svg width="360" height="13" viewBox="0 0 360 13" fill="none" xmlns="http://www.w3.org/2000/svg">
<path d="M360 0.291992C357.135 -0.278497 354.811 0.0147676 352.866 0.947266C350.734 1.97004 349.266 3.66702 348.095 5.25488C347.671 5.82894 347.297 6.36945 346.945 6.87695C346.252 7.87821 345.644 8.75536 344.913 9.52539C343.915 10.5757 342.926 11.1386 341.587 11.1387C341.573 11.1387 341.559 11.1393 341.546 11.1396C341.529 11.1401 341.512 11.1407 341.495 11.1416C341.465 11.14 341.434 11.1387 341.403 11.1387C338.87 11.1387 337.598 9.56912 337.459 7.89551C337.32 6.21439 338.331 4.25895 341.068 3.6084C341.787 3.43754 342.296 2.81375 342.306 2.09277C342.315 1.37167 341.822 0.736177 341.107 0.547852C337.727 -0.342622 335.057 -0.102345 332.868 0.947266C330.736 1.97001 329.269 3.66706 328.098 5.25488C327.674 5.82929 327.299 6.36919 326.947 6.87695C326.254 7.87823 325.646 8.75535 324.915 9.52539C323.917 10.5757 322.928 11.1387 321.589 11.1387C321.558 11.1387 321.527 11.14 321.497 11.1416C321.482 11.1408 321.466 11.1401 321.45 11.1396C321.435 11.1393 321.42 11.1387 321.405 11.1387C318.872 11.1387 317.599 9.56912 317.461 7.89551C317.322 6.21439 318.333 4.25895 321.07 3.6084C321.789 3.43757 322.298 2.81377 322.308 2.09277C322.317 1.37164 321.824 0.736146 321.109 0.547852C317.729 -0.342622 315.059 -0.102347 312.87 0.947266C310.738 1.97002 309.271 3.66706 308.1 5.25488C307.677 5.82736 307.304 6.36579 306.953 6.87207L306.951 6.875L306.949 6.87695C306.256 7.87823 305.648 8.75535 304.917 9.52539C303.919 10.5757 302.929 11.1387 301.591 11.1387C301.579 11.1387 301.567 11.1394 301.556 11.1396H301.54C301.531 11.1399 301.522 11.1402 301.513 11.1406L301.499 11.1416C301.491 11.1411 301.482 11.141 301.474 11.1406C301.465 11.1403 301.455 11.1399 301.446 11.1396C301.433 11.1393 301.42 11.1387 301.407 11.1387C298.874 11.1387 297.601 9.56912 297.463 7.89551C297.324 6.21441 298.335 4.25897 301.072 3.6084C301.791 3.43757 302.3 2.81377 302.31 2.09277C302.319 1.37162 301.826 0.736123 301.111 0.547852C297.731 -0.342622 295.061 -0.102347 292.872 0.947266C290.74 1.97004 289.273 3.66707 288.102 5.25488C287.678 5.82934 287.303 6.37013 286.951 6.87793C286.258 7.87896 285.65 8.75551 284.919 9.52539C283.921 10.5757 282.931 11.1387 281.593 11.1387C281.562 11.1387 281.531 11.1399 281.501 11.1416C281.484 11.1407 281.467 11.1401 281.45 11.1396C281.437 11.1393 281.423 11.1387 281.409 11.1387C278.876 11.1387 277.603 9.56912 277.465 7.89551C277.326 6.21442 278.337 4.25899 281.074 3.6084C281.793 3.43757 282.302 2.81377 282.312 2.09277C282.321 1.37158 281.828 0.736092 281.113 0.547852C277.733 -0.342622 275.063 -0.102347 272.874 0.947266C270.742 1.97005 269.275 3.66707 268.104 5.25488C267.68 5.8293 267.305 6.36918 266.953 6.87695C266.259 7.87824 265.652 8.75535 264.921 9.52539C263.923 10.5757 262.933 11.1387 261.595 11.1387C261.587 11.1387 261.578 11.1395 261.57 11.1396C261.548 11.14 261.525 11.1404 261.503 11.1416C261.487 11.1408 261.472 11.1401 261.456 11.1396C261.441 11.1393 261.426 11.1387 261.411 11.1387C258.878 11.1387 257.605 9.56911 257.467 7.89551C257.328 6.21445 258.339 4.25901 261.076 3.6084C261.795 3.43757 262.304 2.81377 262.313 2.09277C262.323 1.37157 261.83 0.736076 261.115 0.547852C257.735 -0.342622 255.065 -0.102347 252.876 0.947266C250.744 1.97006 249.277 3.66709 248.105 5.25488C247.682 5.82849 247.308 6.36785 246.957 6.875L246.956 6.87695C246.262 7.87828 245.654 8.75532 244.923 9.52539C243.925 10.5757 242.935 11.1387 241.597 11.1387C241.566 11.1387 241.535 11.14 241.505 11.1416C241.475 11.14 241.444 11.1387 241.413 11.1387C238.88 11.1386 237.607 9.56909 237.469 7.89551C237.33 6.21447 238.341 4.25903 241.078 3.6084C241.797 3.43757 242.306 2.81377 242.315 2.09277C242.325 1.37156 241.832 0.736072 241.117 0.547852C237.737 -0.342596 235.067 -0.102338 232.878 0.947266C230.746 1.97006 229.279 3.66711 228.107 5.25488C227.684 5.82849 227.31 6.36785 226.959 6.875L226.958 6.87695C226.264 7.87828 225.656 8.75532 224.925 9.52539C223.927 10.5756 222.937 11.1387 221.599 11.1387C221.568 11.1387 221.537 11.14 221.507 11.1416C221.477 11.14 221.446 11.1387 221.415 11.1387C218.882 11.1386 217.61 9.56907 217.472 7.89551C217.333 6.21447 218.343 4.25905 221.08 3.6084C221.799 3.43757 222.308 2.81377 222.317 2.09277C222.327 1.37156 221.834 0.736072 221.119 0.547852C217.739 -0.342515 215.069 -0.102171 212.881 0.947266C210.748 1.97004 209.281 3.66702 208.109 5.25488C207.686 5.82917 207.312 6.36928 206.96 6.87695C206.266 7.87828 205.658 8.75532 204.927 9.52539C203.929 10.5756 202.939 11.1387 201.601 11.1387C201.57 11.1387 201.539 11.14 201.509 11.1416C201.478 11.14 201.448 11.1387 201.417 11.1387C198.884 11.1386 197.612 9.56905 197.474 7.89551C197.335 6.21438 198.346 4.25895 201.083 3.6084C201.802 3.43743 202.31 2.81363 202.319 2.09277C202.329 1.37156 201.835 0.736072 201.121 0.547852C197.741 -0.342502 195.071 -0.102192 192.883 0.947266C190.75 1.97004 189.283 3.66702 188.111 5.25488C187.688 5.82917 187.314 6.36928 186.962 6.87695C186.268 7.87828 185.66 8.75532 184.929 9.52539C183.931 10.5755 182.942 11.1386 181.604 11.1387C181.573 11.1387 181.541 11.1399 181.511 11.1416C181.48 11.14 181.45 11.1387 181.419 11.1387C178.886 11.1385 177.614 9.56903 177.476 7.89551C177.337 6.21438 178.348 4.25895 181.085 3.6084C181.804 3.43746 182.313 2.81367 182.322 2.09277C182.331 1.37156 181.837 0.736072 181.123 0.547852C177.743 -0.342486 175.073 -0.102213 172.885 0.947266C170.752 1.97004 169.285 3.66702 168.113 5.25488C167.69 5.82917 167.316 6.36928 166.964 6.87695C166.27 7.87822 165.663 8.75536 164.932 9.52539C163.934 10.5757 162.944 11.1386 161.605 11.1387C161.575 11.1387 161.544 11.14 161.514 11.1416C161.496 11.1407 161.478 11.1401 161.461 11.1396C161.448 11.1393 161.434 11.1387 161.421 11.1387C158.888 11.1385 157.616 9.56901 157.478 7.89551C157.339 6.21438 158.35 4.25895 161.087 3.6084C161.806 3.43748 162.315 2.81369 162.324 2.09277C162.333 1.37173 161.84 0.736238 161.126 0.547852C157.746 -0.342598 155.075 -0.102276 152.887 0.947266C150.754 1.97004 149.287 3.66702 148.115 5.25488C147.692 5.82916 147.318 6.36929 146.966 6.87695C146.272 7.87823 145.665 8.75535 144.934 9.52539C143.936 10.5757 142.946 11.1386 141.607 11.1387C141.59 11.1387 141.571 11.1391 141.554 11.1396C141.541 11.1401 141.528 11.1409 141.516 11.1416C141.485 11.14 141.455 11.1387 141.424 11.1387C138.89 11.1387 137.618 9.56912 137.479 7.89551C137.341 6.21438 138.352 4.25895 141.089 3.6084C141.808 3.43751 142.317 2.81372 142.326 2.09277C142.335 1.37171 141.842 0.736211 141.128 0.547852C137.747 -0.342609 135.077 -0.102309 132.889 0.947266C130.756 1.97004 129.289 3.66702 128.117 5.25488C127.694 5.82911 127.319 6.36933 126.968 6.87695C126.274 7.87824 125.667 8.75534 124.936 9.52539C123.938 10.5757 122.948 11.1386 121.609 11.1387C121.579 11.1387 121.548 11.14 121.518 11.1416C121.487 11.14 121.457 11.1387 121.426 11.1387C118.892 11.1387 117.62 9.56912 117.481 7.89551C117.343 6.21439 118.354 4.25895 121.091 3.6084C121.81 3.43753 122.319 2.81374 122.328 2.09277C122.337 1.37168 121.844 0.736184 121.13 0.547852C117.749 -0.342618 115.079 -0.102334 112.891 0.947266C110.758 1.97001 109.292 3.66706 108.12 5.25488C107.696 5.82928 107.321 6.36919 106.97 6.87695C106.276 7.87826 105.669 8.75533 104.938 9.52539C103.94 10.5757 102.95 11.1386 101.611 11.1387C101.581 11.1387 101.55 11.14 101.52 11.1416C101.489 11.1399 101.458 11.1387 101.428 11.1387C98.8941 11.1387 97.6219 9.56912 97.4834 7.89551C97.3445 6.21439 98.3557 4.25895 101.093 3.6084C101.812 3.43756 102.321 2.81377 102.33 2.09277C102.339 1.37165 101.846 0.736157 101.132 0.547852C97.7513 -0.342622 95.0812 -0.102347 92.8926 0.947266C90.7601 1.97002 89.2935 3.66706 88.1221 5.25488C87.6986 5.82887 87.3242 6.36853 86.9727 6.87598L86.9717 6.87695C86.278 7.87826 85.6709 8.75533 84.9395 9.52539C83.9417 10.5757 82.952 11.1387 81.6133 11.1387C81.5825 11.1387 81.5519 11.1399 81.5215 11.1416C81.4911 11.1399 81.4605 11.1387 81.4297 11.1387C78.8961 11.1387 77.6238 9.56912 77.4854 7.89551C77.3465 6.21441 78.3577 4.25897 81.0947 3.6084C81.8135 3.43757 82.3226 2.81377 82.332 2.09277C82.3412 1.37162 81.8481 0.73613 81.1338 0.547852C77.7532 -0.342622 75.0831 -0.102347 72.8945 0.947266C70.7621 1.97003 69.2954 3.66707 68.124 5.25488C67.7004 5.82914 67.3253 6.3693 66.9736 6.87695C66.2799 7.87826 65.6728 8.75534 64.9414 9.52539C63.9437 10.5757 62.9539 11.1387 61.6152 11.1387C61.5844 11.1387 61.5538 11.1399 61.5234 11.1416C61.4931 11.1399 61.4625 11.1387 61.4316 11.1387C58.898 11.1387 57.6258 9.56912 57.4873 7.89551C57.3484 6.21442 58.3597 4.25898 61.0967 3.6084C61.8155 3.43757 62.3245 2.81377 62.334 2.09277C62.3431 1.3716 61.8501 0.736102 61.1357 0.547852C57.7552 -0.342622 55.0851 -0.102347 52.8965 0.947266C50.7641 1.97005 49.2974 3.66707 48.126 5.25488C47.7022 5.8293 47.3274 6.36918 46.9756 6.87695C46.2819 7.87824 45.6748 8.75535 44.9434 9.52539C43.9456 10.5757 42.9558 11.1387 41.6172 11.1387C41.5864 11.1387 41.5557 11.1399 41.5254 11.1416C41.495 11.1399 41.4644 11.1387 41.4336 11.1387C38.9 11.1387 37.6277 9.56911 37.4893 7.89551C37.3504 6.21444 38.3618 4.259 41.0986 3.6084C41.8174 3.43757 42.3265 2.81377 42.3359 2.09277C42.3451 1.37157 41.8521 0.736076 41.1377 0.547852C37.7571 -0.342622 35.087 -0.102347 32.8984 0.947266C30.766 1.97005 29.2993 3.66708 28.1279 5.25488C27.7042 5.8293 27.3293 6.36918 26.9775 6.87695C26.2839 7.87823 25.6767 8.75536 24.9453 9.52539C23.9476 10.5757 22.9578 11.1387 21.6191 11.1387C21.5884 11.1387 21.5577 11.14 21.5273 11.1416C21.497 11.14 21.4663 11.1387 21.4355 11.1387C18.902 11.1386 17.6297 9.56909 17.4912 7.89551C17.3524 6.21446 18.3638 4.25902 21.1006 3.6084C21.8194 3.43757 22.3285 2.81377 22.3379 2.09277C22.3471 1.37156 21.854 0.736072 21.1396 0.547852C17.7591 -0.3426 15.089 -0.10234 12.9004 0.947266C10.768 1.97006 9.30124 3.6671 8.12988 5.25488C7.70626 5.82912 7.33215 6.36932 6.98047 6.87695C6.28677 7.87827 5.67871 8.75533 4.94727 9.52539C3.94957 10.5756 2.9597 11.1387 1.62109 11.1387C0.725755 11.1389 0 11.847 0 12.7197C1.11551e-05 12.7464 0.000599984 12.7734 0.00195312 12.7998H0V0H360V0.291992ZM360 10.9521C358.394 10.4893 357.567 9.22571 357.457 7.89551C357.338 6.45392 358.065 4.81114 360 3.96191V10.9521Z" fill="white"/>
</svg>
