<svg width="2471" height="100" viewBox="0 0 2471 100" fill="none" xmlns="http://www.w3.org/2000/svg">
<path d="M2470.55 100H2470.55V55.6504H2470.54C2470.54 55.5349 2470.55 55.4187 2470.55 55.3018C2470.55 51.507 2467.47 48.4298 2463.67 48.4297C2452.94 48.4297 2447.55 41.6054 2446.96 34.3281C2446.37 27.0188 2450.66 18.5169 2462.26 15.6885C2465.3 14.9455 2467.46 12.2335 2467.5 9.09766C2467.54 5.96189 2465.45 3.19811 2462.42 2.37988C2448.1 -1.49174 2436.78 -0.445367 2427.51 4.11816C2418.47 8.56498 2412.25 15.9428 2407.29 22.8467C2405.49 25.3433 2403.91 27.6904 2402.42 29.8975L2402.42 29.9004C2399.48 34.2542 2396.9 38.0648 2393.8 41.4131C2389.58 45.9805 2385.38 48.4297 2379.71 48.4297C2379.58 48.4297 2379.45 48.4342 2379.32 48.4414C2379.19 48.4342 2379.06 48.4297 2378.93 48.4297C2368.19 48.4297 2362.8 41.6054 2362.22 34.3281C2361.63 27.0188 2365.91 18.5169 2377.51 15.6885C2380.56 14.9455 2382.72 12.2335 2382.75 9.09766C2382.79 5.96191 2380.7 3.19814 2377.68 2.37988C2363.35 -1.49173 2352.04 -0.445341 2342.76 4.11816C2333.73 8.56498 2327.51 15.9428 2322.54 22.8467C2320.75 25.3443 2319.16 27.6916 2317.67 29.8994C2314.73 34.2534 2312.16 38.0647 2309.06 41.4131C2304.83 45.9805 2300.64 48.4297 2294.96 48.4297L2294.87 48.4307L2294.8 48.4316C2294.72 48.4334 2294.65 48.4373 2294.58 48.4414C2294.45 48.4342 2294.32 48.4297 2294.19 48.4297C2283.45 48.4297 2278.06 41.6054 2277.47 34.3281C2276.88 27.0188 2281.17 18.5169 2292.77 15.6885C2295.81 14.9455 2297.97 12.2335 2298.01 9.09766C2298.05 5.96189 2295.96 3.19811 2292.93 2.37988C2278.61 -1.49174 2267.29 -0.445364 2258.02 4.11816C2248.98 8.56498 2242.76 15.9428 2237.8 22.8467C2236 25.3445 2234.42 27.6924 2232.93 29.9004L2232.93 29.9033C2229.99 34.256 2227.41 38.0655 2224.32 41.4131C2220.09 45.9805 2215.89 48.4297 2210.22 48.4297C2210.09 48.4297 2209.96 48.4342 2209.83 48.4414C2209.7 48.4342 2209.57 48.4297 2209.44 48.4297C2198.7 48.4295 2193.31 41.6053 2192.73 34.3281C2192.14 27.0187 2196.42 18.5169 2208.02 15.6885C2211.07 14.9455 2213.23 12.2335 2213.27 9.09766C2213.31 5.96191 2211.22 3.19814 2208.19 2.37988C2193.86 -1.49173 2182.55 -0.445337 2173.27 4.11816C2164.24 8.56498 2158.02 15.9428 2153.06 22.8467C2151.26 25.3445 2149.68 27.6924 2148.18 29.9004L2148.18 29.9033C2145.24 34.256 2142.67 38.0655 2139.57 41.4131C2135.34 45.9805 2131.15 48.4296 2125.48 48.4297C2125.38 48.4297 2125.29 48.4319 2125.2 48.4355C2125.16 48.437 2125.12 48.4393 2125.09 48.4414C2124.96 48.4342 2124.83 48.4297 2124.7 48.4297C2113.96 48.4295 2108.57 41.6053 2107.98 34.3281C2107.4 27.0187 2111.68 18.5169 2123.28 15.6885C2126.33 14.9455 2128.48 12.2335 2128.52 9.09766C2128.56 5.96194 2126.47 3.19816 2123.44 2.37988C2109.12 -1.49172 2097.8 -0.445311 2088.53 4.11816C2079.49 8.56498 2073.28 15.9428 2068.31 22.8467C2066.52 25.3446 2064.93 27.6923 2063.44 29.9004L2063.44 29.9033C2060.5 34.2558 2057.93 38.0656 2054.83 41.4131C2050.6 45.9805 2046.41 48.4296 2040.73 48.4297C2040.67 48.4297 2040.6 48.4307 2040.53 48.4326C2040.47 48.4344 2040.41 48.4379 2040.34 48.4414C2040.3 48.4389 2040.25 48.4362 2040.21 48.4346L2040.13 48.4326C2040.07 48.4311 2040.01 48.4297 2039.95 48.4297C2029.22 48.4296 2023.83 41.6053 2023.24 34.3281C2022.65 27.0187 2026.94 18.5169 2038.54 15.6885C2041.58 14.9455 2043.74 12.2335 2043.78 9.09766C2043.82 5.96196 2041.73 3.19819 2038.7 2.37988C2024.37 -1.49171 2013.06 -0.445284 2003.79 4.11816C1994.75 8.56498 1988.53 15.9428 1983.57 22.8467C1981.77 25.3447 1980.19 27.6923 1978.7 29.9004L1978.69 29.9033C1975.75 34.2558 1973.18 38.0656 1970.08 41.4131C1965.85 45.9805 1961.66 48.4296 1955.99 48.4297L1955.92 48.4307C1955.89 48.431 1955.85 48.4318 1955.82 48.4326C1955.78 48.4335 1955.75 48.4342 1955.71 48.4355L1955.66 48.4375L1955.6 48.4414C1955.47 48.4342 1955.34 48.4297 1955.21 48.4297C1944.47 48.4296 1939.08 41.6053 1938.5 34.3281C1937.91 27.0187 1942.19 18.5169 1953.79 15.6885C1956.84 14.9455 1959 12.2335 1959.03 9.09766C1959.07 5.96199 1956.98 3.19821 1953.96 2.37988C1939.63 -1.4917 1928.32 -0.445257 1919.04 4.11816C1910 8.56498 1903.79 15.9428 1898.82 22.8467C1897.03 25.3447 1895.44 27.6923 1893.95 29.9004L1893.95 29.9033C1891.01 34.2558 1888.44 38.0656 1885.34 41.4131C1881.11 45.9804 1876.92 48.4296 1871.24 48.4297C1871.11 48.4297 1870.98 48.4342 1870.85 48.4414C1870.78 48.4373 1870.71 48.4344 1870.63 48.4326C1870.58 48.4312 1870.52 48.4297 1870.46 48.4297C1859.73 48.4296 1854.34 41.6053 1853.75 34.3281C1853.16 27.0187 1857.45 18.5169 1869.05 15.6885C1872.09 14.9455 1874.25 12.2335 1874.29 9.09766C1874.33 5.96196 1872.24 3.19819 1869.21 2.37988C1854.89 -1.4917 1843.57 -0.44523 1834.3 4.11816C1825.26 8.56498 1819.04 15.9428 1814.08 22.8467C1812.28 25.3447 1810.7 27.6923 1809.21 29.9004L1809.21 29.9033C1806.27 34.2558 1803.69 38.0656 1800.59 41.4131C1796.37 45.9804 1792.17 48.4296 1786.5 48.4297C1786.37 48.4297 1786.24 48.4342 1786.11 48.4414C1785.98 48.4342 1785.85 48.4297 1785.72 48.4297C1774.98 48.4297 1769.59 41.6053 1769.01 34.3281C1768.42 27.0187 1772.7 18.5169 1784.3 15.6885C1787.35 14.9455 1789.51 12.2334 1789.54 9.09766C1789.58 5.96199 1787.49 3.19821 1784.47 2.37988C1770.14 -1.49169 1758.83 -0.445203 1749.55 4.11816C1740.52 8.56498 1734.3 15.9428 1729.34 22.8467C1727.54 25.3396 1725.96 27.6825 1724.47 29.8867L1724.46 29.9004L1724.46 29.9033C1721.52 34.2558 1718.95 38.0656 1715.85 41.4131C1711.62 45.9805 1707.43 48.4297 1701.75 48.4297C1701.62 48.4297 1701.49 48.4342 1701.37 48.4414C1701.24 48.4342 1701.11 48.4297 1700.98 48.4297C1690.24 48.4297 1684.85 41.6054 1684.26 34.3281C1683.67 27.0187 1687.96 18.5169 1699.56 15.6885C1702.61 14.9454 1704.76 12.2334 1704.8 9.09766C1704.84 5.96201 1702.75 3.19824 1699.72 2.37988C1685.4 -1.49174 1674.08 -0.445368 1664.81 4.11816C1655.77 8.565 1649.56 15.9428 1644.59 22.8467C1642.8 25.3396 1641.22 27.6825 1639.73 29.8867L1639.72 29.9004C1636.78 34.2543 1634.21 38.0648 1631.11 41.4131C1626.88 45.9805 1622.68 48.4297 1617.01 48.4297C1616.96 48.4297 1616.91 48.4305 1616.86 48.4316C1616.78 48.4334 1616.7 48.4371 1616.62 48.4414C1616.57 48.4387 1616.53 48.4363 1616.48 48.4346L1616.42 48.4326C1616.38 48.4316 1616.35 48.4311 1616.31 48.4307L1616.23 48.4297C1605.5 48.4297 1600.1 41.6054 1599.52 34.3281C1598.93 27.0187 1603.22 18.5169 1614.81 15.6885C1617.86 14.9454 1620.02 12.2334 1620.06 9.09766C1620.1 5.96204 1618.01 3.19826 1614.98 2.37988C1600.65 -1.49174 1589.34 -0.445368 1580.06 4.11816C1571.03 8.56499 1564.81 15.9428 1559.85 22.8467C1558.05 25.3435 1556.47 27.6903 1554.98 29.8975L1554.97 29.9004C1552.03 34.2543 1549.46 38.0648 1546.36 41.4131C1542.13 45.9805 1537.94 48.4297 1532.27 48.4297C1532.14 48.4297 1532.01 48.4342 1531.88 48.4414C1531.75 48.4342 1531.62 48.4297 1531.49 48.4297C1520.75 48.4297 1515.36 41.6054 1514.77 34.3281C1514.19 27.0187 1518.47 18.5169 1530.07 15.6885C1533.12 14.9454 1535.27 12.2334 1535.31 9.09766C1535.35 5.96185 1533.26 3.19808 1530.23 2.37988C1515.91 -1.49165 1504.59 -0.445339 1495.32 4.11816C1486.28 8.56499 1480.07 15.9428 1475.1 22.8467C1473.31 25.3435 1471.72 27.6902 1470.23 29.8975L1470.23 29.9004C1467.29 34.2543 1464.72 38.0648 1461.62 41.4131C1457.39 45.9805 1453.2 48.4297 1447.52 48.4297C1447.46 48.4297 1447.41 48.4312 1447.35 48.4326C1447.28 48.4344 1447.2 48.4374 1447.13 48.4414C1447 48.4342 1446.87 48.4297 1446.74 48.4297C1436.01 48.4297 1430.62 41.6054 1430.03 34.3281C1429.44 27.0188 1433.73 18.517 1445.33 15.6885C1448.37 14.9455 1450.53 12.2335 1450.57 9.09766C1450.61 5.96185 1448.52 3.19808 1445.49 2.37988C1431.16 -1.49168 1419.85 -0.445347 1410.58 4.11816C1401.54 8.56499 1395.32 15.9428 1390.36 22.8467C1388.56 25.3446 1386.98 27.6923 1385.49 29.9004C1382.55 34.2542 1379.97 38.0648 1376.87 41.4131C1372.64 45.9805 1368.45 48.4297 1362.78 48.4297C1362.65 48.4297 1362.52 48.4342 1362.39 48.4414C1362.32 48.4377 1362.26 48.4344 1362.19 48.4326C1362.13 48.4309 1362.06 48.4297 1362 48.4297C1351.26 48.4297 1345.87 41.6054 1345.29 34.3281C1344.7 27.0188 1348.98 18.517 1360.58 15.6885C1363.63 14.9455 1365.79 12.2335 1365.82 9.09766C1365.86 5.96185 1363.77 3.19808 1360.75 2.37988C1346.42 -1.4917 1335.11 -0.445355 1325.83 4.11816C1316.79 8.56499 1310.58 15.9428 1305.61 22.8467C1303.82 25.3365 1302.24 27.6771 1300.76 29.8789L1300.75 29.8896L1300.74 29.8965L1300.74 29.9004C1297.8 34.2542 1295.23 38.0648 1292.13 41.4131C1287.9 45.9805 1283.71 48.4297 1278.03 48.4297C1277.98 48.4297 1277.93 48.4306 1277.89 48.4316L1277.82 48.4336C1277.78 48.4348 1277.74 48.4367 1277.7 48.4385L1277.64 48.4414C1277.61 48.4394 1277.57 48.437 1277.54 48.4355C1277.5 48.434 1277.46 48.4335 1277.42 48.4326C1277.37 48.4313 1277.31 48.4297 1277.26 48.4297C1266.52 48.4297 1261.13 41.6054 1260.54 34.3281C1259.95 27.0188 1264.24 18.517 1275.84 15.6885C1278.88 14.9455 1281.04 12.2335 1281.08 9.09766C1281.12 5.96185 1279.03 3.19808 1276 2.37988C1261.68 -1.49172 1250.36 -0.445362 1241.09 4.11816C1232.05 8.56498 1225.83 15.9428 1220.87 22.8467C1219.07 25.3445 1217.49 27.6924 1216 29.9004L1216 29.9014C1213.06 34.2546 1210.48 38.0652 1207.38 41.4131C1203.16 45.9805 1198.96 48.4297 1193.29 48.4297C1193.16 48.4297 1193.03 48.4342 1192.9 48.4414C1192.83 48.4374 1192.76 48.4344 1192.68 48.4326C1192.63 48.4312 1192.57 48.4297 1192.51 48.4297C1181.77 48.4297 1176.38 41.6054 1175.8 34.3281C1175.21 27.0188 1179.49 18.517 1191.09 15.6885C1194.14 14.9455 1196.3 12.2335 1196.34 9.09766C1196.37 5.96185 1194.29 3.19808 1191.26 2.37988C1176.93 -1.49174 1165.62 -0.445368 1156.34 4.11816C1147.31 8.56498 1141.09 15.9428 1136.13 22.8467C1134.33 25.3444 1132.74 27.6924 1131.25 29.9004C1128.31 34.2543 1125.74 38.0648 1122.64 41.4131C1118.41 45.9805 1114.22 48.4297 1108.55 48.4297C1108.51 48.4297 1108.48 48.4301 1108.44 48.4307C1108.35 48.4321 1108.25 48.4361 1108.16 48.4414C1108.09 48.4377 1108.02 48.4344 1107.96 48.4326C1107.89 48.4309 1107.83 48.4297 1107.77 48.4297C1097.03 48.4297 1091.64 41.6054 1091.05 34.3281C1090.47 27.0188 1094.75 18.517 1106.35 15.6885C1109.4 14.9455 1111.55 12.2335 1111.59 9.09766C1111.63 5.96191 1109.54 3.19813 1106.51 2.37988C1092.19 -1.49174 1080.87 -0.445368 1071.6 4.11816C1062.56 8.56498 1056.35 15.9428 1051.38 22.8467C1049.59 25.3415 1048 27.6869 1046.51 29.8926L1046.51 29.9004C1043.57 34.2543 1041 38.0648 1037.9 41.4131C1033.67 45.9805 1029.47 48.4297 1023.8 48.4297C1023.67 48.4297 1023.54 48.4342 1023.41 48.4414C1023.28 48.4342 1023.15 48.4297 1023.02 48.4297C1012.29 48.4295 1006.9 41.6053 1006.31 34.3281C1005.72 27.0188 1010.01 18.5169 1021.6 15.6885C1024.65 14.9455 1026.81 12.2335 1026.85 9.09766C1026.89 5.96193 1024.8 3.19816 1021.77 2.37988C1007.44 -1.49173 996.13 -0.445343 986.855 4.11816C977.818 8.56498 971.602 15.9428 966.638 22.8467C964.844 25.3415 963.26 27.6869 961.771 29.8926L961.766 29.9004C958.826 34.2543 956.252 38.0648 953.152 41.4131C948.924 45.9805 944.731 48.4297 939.058 48.4297C938.927 48.4297 938.797 48.4342 938.668 48.4414C938.539 48.4342 938.409 48.4297 938.278 48.4297C927.541 48.4295 922.151 41.6053 921.565 34.3281C920.977 27.0187 925.261 18.5169 936.86 15.6885C939.907 14.9455 942.065 12.2335 942.104 9.09766C942.142 5.96193 940.053 3.19816 937.025 2.37988C922.7 -1.49172 911.386 -0.445316 902.111 4.11816C893.074 8.56498 886.858 15.9428 881.894 22.8467C880.098 25.3445 878.512 27.6924 877.021 29.9004C874.082 34.2543 871.508 38.0648 868.408 41.4131C864.18 45.9805 859.987 48.4296 854.313 48.4297C854.183 48.4297 854.053 48.4342 853.924 48.4414C853.795 48.4342 853.665 48.4297 853.534 48.4297C842.797 48.4295 837.407 41.6053 836.821 34.3281C836.233 27.0187 840.517 18.5169 852.116 15.6885C855.163 14.9455 857.321 12.2335 857.359 9.09766C857.398 5.96196 855.309 3.19818 852.281 2.37988C837.956 -1.49172 826.642 -0.445289 817.367 4.11816C808.33 8.56498 802.114 15.9428 797.149 22.8467C795.353 25.3445 793.768 27.6924 792.277 29.9004C789.337 34.2543 786.764 38.0648 783.664 41.4131C779.436 45.9805 775.243 48.4296 769.569 48.4297C769.439 48.4297 769.309 48.4342 769.18 48.4414C769.051 48.4342 768.921 48.4297 768.79 48.4297C758.053 48.4296 752.663 41.6053 752.077 34.3281C751.488 27.0187 755.773 18.5169 767.372 15.6885C770.419 14.9455 772.575 12.2335 772.614 9.09766C772.653 5.96198 770.564 3.19821 767.537 2.37988C753.212 -1.49171 741.897 -0.445263 732.623 4.11816C723.586 8.56498 717.369 15.9428 712.405 22.8467C710.609 25.3445 709.024 27.6924 707.533 29.9004C704.593 34.2543 702.02 38.0648 698.92 41.4131C694.692 45.9804 690.498 48.4296 684.825 48.4297C684.695 48.4297 684.564 48.4342 684.436 48.4414C684.362 48.4373 684.289 48.4344 684.215 48.4326C684.159 48.4313 684.102 48.4297 684.046 48.4297C673.309 48.4296 667.919 41.6053 667.333 34.3281C666.744 27.0187 671.029 18.5169 682.628 15.6885C685.675 14.9455 687.831 12.2335 687.87 9.09766C687.909 5.96201 685.82 3.19823 682.793 2.37988C668.468 -1.4917 657.153 -0.445236 647.879 4.11816C638.842 8.56498 632.625 15.9428 627.661 22.8467C625.865 25.3445 624.28 27.6924 622.789 29.9004C619.849 34.2542 617.275 38.0648 614.176 41.4131C609.947 45.9804 605.754 48.4296 600.081 48.4297C600.006 48.4297 599.93 48.4312 599.855 48.4336C599.801 48.4354 599.746 48.4384 599.691 48.4414C599.563 48.4342 599.432 48.4297 599.302 48.4297C588.565 48.4296 583.175 41.6053 582.589 34.3281C582 27.0187 586.285 18.5169 597.884 15.6885C600.931 14.9455 603.087 12.2335 603.126 9.09766C603.165 5.96203 601.076 3.19826 598.049 2.37988C583.723 -1.49169 572.409 -0.445222 563.135 4.11816C554.097 8.56498 547.881 15.9428 542.917 22.8467C541.121 25.3443 539.535 27.6925 538.044 29.9004C535.104 34.2543 532.53 38.0648 529.431 41.4131C525.202 45.9805 521.009 48.4297 515.336 48.4297C515.205 48.4297 515.076 48.4342 514.947 48.4414C514.818 48.4342 514.688 48.4297 514.558 48.4297C503.82 48.4297 498.431 41.6053 497.845 34.3281C497.256 27.0187 501.54 18.5169 513.14 15.6885C516.186 14.9454 518.343 12.2334 518.382 9.09766C518.421 5.96184 516.331 3.19808 513.304 2.37988C498.978 -1.49165 487.664 -0.445338 478.39 4.11816C469.352 8.565 463.137 15.9428 458.173 22.8467C456.377 25.3446 454.791 27.6923 453.3 29.9004C450.36 34.2543 447.786 38.0648 444.687 41.4131C440.458 45.9805 436.265 48.4297 430.592 48.4297C430.461 48.4297 430.332 48.4342 430.203 48.4414C430.074 48.4342 429.944 48.4297 429.813 48.4297C419.076 48.4297 413.687 41.6053 413.101 34.3281C412.512 27.0187 416.796 18.5169 428.396 15.6885C431.442 14.9454 433.599 12.2334 433.638 9.09766C433.676 5.96185 431.587 3.19808 428.56 2.37988C414.234 -1.49166 402.92 -0.445342 393.646 4.11816C384.608 8.56499 378.393 15.9428 373.429 22.8467C371.634 25.3434 370.048 27.6894 368.558 29.8965L368.556 29.9004C365.616 34.2543 363.042 38.0648 359.942 41.4131C355.714 45.9805 351.521 48.4297 345.848 48.4297C345.717 48.4297 345.588 48.4342 345.459 48.4414C345.33 48.4342 345.2 48.4297 345.069 48.4297C334.332 48.4297 328.942 41.6054 328.355 34.3281C327.767 27.0188 332.052 18.517 343.65 15.6885C346.697 14.9455 348.855 12.2335 348.894 9.09766C348.932 5.96185 346.843 3.19808 343.815 2.37988C329.49 -1.49168 318.176 -0.445349 308.901 4.11816C299.864 8.56499 293.649 15.9428 288.685 22.8467C286.889 25.3439 285.304 27.6909 283.813 29.8984L283.812 29.9004C280.872 34.2543 278.298 38.0648 275.198 41.4131C270.97 45.9805 266.777 48.4297 261.104 48.4297C260.973 48.4297 260.844 48.4342 260.715 48.4414C260.586 48.4342 260.456 48.4297 260.325 48.4297C249.588 48.4297 244.197 41.6054 243.611 34.3281C243.023 27.0188 247.307 18.517 258.906 15.6885C261.953 14.9455 264.111 12.2335 264.149 9.09766C264.188 5.96185 262.099 3.19808 259.071 2.37988C244.746 -1.49171 233.432 -0.445357 224.157 4.11816C215.12 8.56499 208.904 15.9428 203.939 22.8467C202.144 25.3444 200.558 27.6925 199.067 29.9004C196.127 34.2543 193.554 38.0648 190.454 41.4131C186.226 45.9805 182.033 48.4297 176.359 48.4297C176.229 48.4297 176.099 48.4342 175.97 48.4414C175.841 48.4342 175.711 48.4297 175.581 48.4297C164.844 48.4297 159.453 41.6054 158.867 34.3281C158.279 27.0188 162.563 18.517 174.162 15.6885C177.209 14.9455 179.366 12.2335 179.405 9.09766C179.444 5.96185 177.355 3.19808 174.327 2.37988C160.002 -1.49173 148.688 -0.445365 139.413 4.11816C130.376 8.56499 124.159 15.9428 119.195 22.8467C117.399 25.3445 115.814 27.6924 114.323 29.9004C111.383 34.2543 108.81 38.0648 105.71 41.4131C101.481 45.9805 97.2886 48.4297 91.6152 48.4297C91.4846 48.4297 91.3544 48.4342 91.2256 48.4414C91.0969 48.4342 90.9674 48.4297 90.8369 48.4297C80.0995 48.4297 74.7092 41.6054 74.123 34.3281C73.5344 27.0188 77.819 18.517 89.418 15.6885C92.4648 14.9455 94.6223 12.2335 94.6611 9.09766C94.6999 5.96185 92.6104 3.19808 89.583 2.37988C75.2574 -1.49174 63.9435 -0.445369 54.6689 4.11816C45.6317 8.56498 39.4153 15.9428 34.4512 22.8467C32.6553 25.3443 31.0699 27.6926 29.5791 29.9004C26.6392 34.2543 24.0656 38.0648 20.9658 41.4131C16.7374 45.9805 12.5444 48.4297 6.87109 48.4297C3.07629 48.4297 0 51.5069 0 55.3018C7.80321e-06 55.4187 0.00301092 55.5349 0.00878906 55.6504H0V0H2470.55V100Z" fill="white"/>
</svg>
