<svg width="42" height="42" viewBox="0 0 42 42" fill="none" xmlns="http://www.w3.org/2000/svg">
<circle cx="21" cy="21" r="18.375" fill="#1D1347"/>
<g clip-path="url(#clip0_6348_19900)">
<path d="M17.1942 20.9982L14.4999 22.5034L12 26.6982L22.1979 20.9982H17.1942Z" fill="#874691"/>
<path d="M24.8934 16.7002L22.1992 18.2055L19.6992 22.4002L29.8933 16.7002H24.8934Z" fill="#DA1844"/>
<path d="M22.1992 15.1948L19.6992 11V19.5999V22.4001V31L22.1992 26.8052V15.1948Z" fill="#F9B229"/>
<path d="M19.6992 11L22.1992 15.1948L24.8934 16.7H29.8933L19.6992 11Z" fill="#F07F1A"/>
<path d="M19.6992 19.5999V31L22.1992 26.8052V23.791L19.6992 19.5999Z" fill="#72B22C"/>
<path d="M24.8934 25.2998L22.1992 26.8051L19.6992 30.9999L29.8933 25.2998H24.8934Z" fill="#00743E"/>
<path d="M12 15.298V26.6981L14.4999 22.5033V19.4928L12 15.298Z" fill="#5F5A94"/>
<path d="M19.698 19.5998V19.6035L12 15.298L14.4999 19.4928L24.8922 25.2998H29.8921L19.698 19.5998Z" fill="#0D90CD"/>
<path d="M17.1942 20.9982L14.4999 22.5034L12 26.6982L22.1979 20.9982H17.1942Z" fill="#874691"/>
<path d="M24.8934 16.7002L22.1992 18.2055L19.6992 22.4002L29.8933 16.7002H24.8934Z" fill="#DA1844"/>
<path d="M22.1992 15.1948L19.6992 11V19.5999V22.4001V31L22.1992 26.8052V15.1948Z" fill="#F9B229"/>
<path d="M19.6992 11L22.1992 15.1948L24.8934 16.7H29.8933L19.6992 11Z" fill="#F07F1A"/>
<path d="M19.6992 19.5999V31L22.1992 26.8052V23.791L19.6992 19.5999Z" fill="#72B22C"/>
<path d="M24.8934 25.2998L22.1992 26.8051L19.6992 30.9999L29.8933 25.2998H24.8934Z" fill="#00743E"/>
<path d="M19.698 19.5998V19.6035L12 15.298L14.4999 19.4928L24.8922 25.2998H29.8921L19.698 19.5998Z" fill="#0D90CD"/>
<path d="M17.1942 20.9982L14.4999 22.5034L12 26.6982L22.1979 20.9982H17.1942Z" fill="#874691"/>
<path d="M24.8934 16.7002L22.1992 18.2055L19.6992 22.4002L29.8933 16.7002H24.8934Z" fill="#DA1844"/>
<path d="M22.1992 15.1948L19.6992 11V19.5999V22.4001V31L22.1992 26.8052V15.1948Z" fill="#F9B229"/>
<path d="M19.6992 19.5999V31L22.1992 26.8052V23.791L19.6992 19.5999Z" fill="#72B22C"/>
<path d="M24.8934 25.2998L22.1992 26.8051L19.6992 30.9999L29.8933 25.2998H24.8934Z" fill="#00743E"/>
<path d="M12 15.298V26.6981L14.4999 22.5033V19.4928L12 15.298Z" fill="#5F5A94"/>
<path d="M19.698 19.5998V19.6035L12 15.298L14.4999 19.4928L24.8922 25.2998H29.8921L19.698 19.5998Z" fill="#0D90CD"/>
<path d="M17.1942 20.9982L14.4999 22.5034L12 26.6982L22.1979 20.9982H17.1942Z" fill="#874691"/>
<path d="M24.8934 16.7002L22.1992 18.2055L19.6992 22.4002L29.8933 16.7002H24.8934Z" fill="#DA1844"/>
<path d="M22.1992 15.1948L19.6992 11V19.5999V22.4001V31L22.1992 26.8052V15.1948Z" fill="#F9B229"/>
<path d="M19.6992 19.5999V31L22.1992 26.8052V23.791L19.6992 19.5999Z" fill="#72B22C"/>
<path d="M24.8934 25.2998L22.1992 26.8051L19.6992 30.9999L29.8933 25.2998H24.8934Z" fill="#00743E"/>
<path d="M19.698 19.5998V19.6035L12 15.298L14.4999 19.4928L24.8922 25.2998H29.8921L19.698 19.5998Z" fill="#0D90CD"/>
</g>
<defs>
<clipPath id="clip0_6348_19900">
<rect width="18" height="20" fill="white" transform="translate(12 11)"/>
</clipPath>
</defs>
</svg>
