<svg width="257" height="50" viewBox="0 0 257 50" fill="none" xmlns="http://www.w3.org/2000/svg">
<path d="M13.7118 50C13.2963 50 13.0885 49.5495 13.0885 48.6486C13.0885 48.048 13.2072 47.2973 13.4447 46.3964C13.7415 45.5556 14.0976 44.5646 14.5131 43.4234C14.988 43.003 15.2254 42.4625 15.2254 41.8018C15.3441 41.8619 15.4035 41.8619 15.4035 41.8018C15.4629 41.6817 15.4925 41.6216 15.4925 41.6216C15.6113 41.4414 15.6706 41.2613 15.6706 41.0811C15.6706 40.8408 15.7003 40.6306 15.7597 40.4504V40.2703C15.5222 39.6697 15.4035 39.1592 15.4035 38.7387L15.2254 38.6486C15.1067 38.2883 15.0177 37.8979 14.9583 37.4775C14.9583 37.0571 14.988 36.6667 15.0474 36.3063C15.1067 35.9459 15.077 35.7658 14.9583 35.7658C14.899 35.7057 14.8693 35.6156 14.8693 35.4955C14.8693 35.3754 14.8693 35.2853 14.8693 35.2252C14.9286 35.1051 14.988 34.9249 15.0474 34.6847C15.1067 34.5646 15.1957 34.3544 15.3145 34.0541C15.4925 33.6937 15.5816 33.4835 15.5816 33.4234C15.5816 33.3033 15.5519 33.2132 15.4925 33.1531C15.4332 33.033 15.4035 32.9429 15.4035 32.8829L15.6706 32.5225V31.8919C15.73 31.7718 15.7597 31.6216 15.7597 31.4414C15.819 31.3213 15.908 31.2312 16.0268 31.1712C16.1455 31.051 16.2345 30.961 16.2939 30.9009C16.4126 30.7808 16.5016 30.6306 16.561 30.4504C16.6797 30.2102 16.7687 30.03 16.8281 29.9099C16.8875 29.7898 16.9468 29.6997 17.0062 29.6396C17.1249 29.5195 17.2139 29.3694 17.2733 29.1892C17.392 29.009 17.481 28.8589 17.5404 28.7387C17.5998 28.5586 17.6888 28.3784 17.8075 28.1982L18.4308 27.6577C18.6682 27.4174 18.9056 27.2973 19.1431 27.2973C19.3805 27.2973 19.5289 27.5375 19.5883 28.018L19.4992 28.4685L18.0746 30C17.9559 30.1201 17.8966 30.2703 17.8966 30.4504C17.8372 30.5105 17.7778 30.5706 17.7185 30.6306C17.7185 30.6907 17.6888 30.7808 17.6294 30.9009C17.6294 31.021 17.5404 31.1712 17.3623 31.3513L17.0952 32.1622C16.9765 32.1622 16.9171 32.2222 16.9171 32.3423C16.8578 32.4024 16.7984 32.7628 16.7391 33.4234C16.7391 34.024 16.7391 34.3844 16.7391 34.5045H17.0062C17.0062 34.5646 17.0062 34.6547 17.0062 34.7748C17.0655 34.8348 17.0655 34.9249 17.0062 35.045V35.5856C17.0062 35.7057 16.9765 35.8258 16.9171 35.9459C16.9171 35.9459 16.8875 35.976 16.8281 36.036C16.8281 36.036 16.8281 36.0661 16.8281 36.1261C16.8281 36.1862 16.8578 36.2763 16.9171 36.3964C16.9765 36.4565 17.0062 36.5465 17.0062 36.6667C17.0062 36.7267 16.9765 36.7868 16.9171 36.8468C16.9171 36.8468 16.9171 36.8769 16.9171 36.9369C16.9171 36.997 16.9468 37.0571 17.0062 37.1171C17.0655 37.1171 17.0952 37.1471 17.0952 37.2072V37.2973C17.5701 36.3964 18.0153 35.4655 18.4308 34.5045C18.9056 33.5435 19.3805 32.5826 19.8554 31.6216C19.9741 31.3814 20.0928 31.3213 20.2115 31.4414C20.3896 31.5015 20.5083 31.4715 20.5677 31.3513C20.627 31.2913 20.6567 31.1411 20.6567 30.9009C20.6567 30.7207 20.627 30.5405 20.5677 30.3604C20.5677 30.1802 20.6567 29.97 20.8348 29.7297L22.0813 27.4775C23.8027 24.3544 25.5241 21.3513 27.2455 18.4685C29.0262 15.5856 30.6883 13.3634 32.2316 11.8018L32.4987 11.6216L32.7658 11.1712C32.7658 11.1712 32.8252 11.1411 32.9439 11.0811C33.0626 11.021 33.1517 11.051 33.211 11.1712C33.211 11.2312 33.1517 11.3514 33.0329 11.5315C32.9736 11.7117 32.9439 11.8318 32.9439 11.8919C33.122 12.1922 33.3297 12.2222 33.5672 11.982C33.6265 11.8619 33.6265 11.5916 33.5672 11.1712C33.5078 10.7507 33.5078 10.5405 33.5672 10.5405C33.6859 10.4805 33.7452 10.4805 33.7452 10.5405C33.8046 10.6006 33.864 10.6306 33.9233 10.6306C34.042 10.6306 34.1014 10.5405 34.1014 10.3604C34.1014 10.1802 34.1311 10.0601 34.1904 10C34.8434 9.75976 35.437 9.63964 35.9712 9.63964C36.268 9.63964 36.6835 9.78979 37.2177 10.0901C37.8113 10.3904 38.1081 10.8108 38.1081 11.3513C38.1081 11.6516 37.9597 12.012 37.6629 12.4324C37.6035 12.4925 37.5442 12.6126 37.4848 12.7928C37.4255 12.9129 37.3364 13.033 37.2177 13.1532C37.1583 13.2132 37.099 13.2432 37.0396 13.2432C37.0396 13.1832 36.9803 13.1832 36.8616 13.2432C36.8022 13.3033 36.7132 13.3333 36.5944 13.3333C36.5351 13.2733 36.446 13.2432 36.3273 13.2432C36.2086 13.2432 36.1789 13.3333 36.2383 13.5135C36.357 13.6937 36.3867 13.8138 36.3273 13.8739C36.268 13.9339 36.2086 13.9339 36.1493 13.8739C36.0899 13.8138 36.0009 13.8438 35.8821 13.964C35.8228 14.024 35.8525 14.0841 35.9712 14.1441C36.1493 14.1441 36.1789 14.2042 36.0602 14.3243C35.7041 14.6847 35.2589 15.0751 34.7247 15.4955C34.2498 15.8559 33.7749 16.2162 33.3001 16.5766C33.2407 16.6366 33.1813 16.6366 33.122 16.5766C33.0626 16.4565 33.0033 16.4264 32.9439 16.4865L32.3206 17.3874C31.7271 17.988 31.1335 18.6186 30.5399 19.2793C29.9463 19.9399 29.323 20.6907 28.6701 21.5315C28.492 21.8919 28.2843 22.2222 28.0468 22.5225C27.8094 22.8228 27.4829 22.9429 27.0674 22.8829C27.0674 22.9429 27.1268 23.033 27.2455 23.1532C27.3642 23.2132 27.3642 23.3333 27.2455 23.5135C26.2364 24.955 25.2273 26.4565 24.2182 28.018C23.2091 29.5796 22.2594 31.2012 21.369 32.8829C20.9535 33.6036 20.449 34.5345 19.8554 35.6757L19.054 37.2973C18.9947 37.4775 18.9056 37.5676 18.7869 37.5676C18.7276 37.5075 18.6385 37.4775 18.5198 37.4775C18.6979 37.8378 18.7276 38.2282 18.6089 38.6486C18.6682 38.6486 18.6979 38.6787 18.6979 38.7387C19.8257 39.5195 20.627 40.0601 21.1019 40.3604C21.6361 40.6607 22.5265 40.961 23.773 41.2613C24.2479 41.3814 24.7228 41.5315 25.1976 41.7117C25.6725 41.8318 26.177 41.8919 26.7113 41.8919C26.7706 41.8919 26.7706 41.9219 26.7113 41.982C26.7113 42.042 26.741 42.0721 26.8003 42.0721C27.0377 42.0721 27.2752 42.1021 27.5126 42.1622C27.75 42.1622 27.9875 42.1622 28.2249 42.1622C28.2843 42.1622 28.3139 42.1622 28.3139 42.1622C28.3733 42.1021 28.4327 42.0721 28.492 42.0721C28.6107 42.0721 28.7888 42.1321 29.0263 42.2523C29.4418 42.2523 29.8869 42.2523 30.3618 42.2523C30.896 42.2523 31.3709 42.2222 31.7864 42.1622C32.2613 42.1021 32.7065 42.042 33.122 41.982C33.5968 41.8619 34.042 41.7718 34.4575 41.7117C35.2886 41.6516 36.0899 41.5015 36.8616 41.2613C37.6926 40.961 38.4939 40.6907 39.2656 40.4504C40.1559 40.1501 41.1057 39.8198 42.1148 39.4595C43.1832 39.039 44.2814 38.5586 45.4092 38.018C45.5279 37.958 45.5872 38.1081 45.5872 38.4685C45.6466 38.7688 45.7356 38.8889 45.8544 38.8288C45.9731 38.7688 46.1215 38.5285 46.2995 38.1081C46.537 37.6877 46.6854 37.4474 46.7447 37.3874L47.5461 36.3063L48.2584 35.4955C48.3771 35.3153 48.4958 35.0751 48.6145 34.7748C48.7332 34.4745 48.8223 34.2342 48.8816 34.0541C49.0597 33.5736 49.2081 33.0631 49.3268 32.5225C49.4455 31.982 49.5049 31.4114 49.5049 30.8108C49.5049 30.5105 49.6533 30.3604 49.9501 30.3604C50.2469 30.3604 50.3953 30.5105 50.3953 30.8108C50.3953 31.1111 50.3953 31.4414 50.3953 31.8018C50.3953 32.1622 50.3359 32.4925 50.2172 32.7928C50.2172 32.8529 50.1578 32.8829 50.0391 32.8829C49.9798 32.8228 49.9501 32.8228 49.9501 32.8829C49.8907 33.3033 49.8314 33.7538 49.772 34.2342C49.7126 34.6547 49.5643 35.0751 49.3268 35.4955L48.7926 36.3964C50.0391 35.7357 51.2263 35.045 52.3541 34.3243C53.5413 33.5435 54.5504 32.6727 55.3814 31.7117L56.1827 30.8108C56.2421 30.6907 56.3311 30.6006 56.4498 30.5405C56.5685 30.4805 56.6576 30.5706 56.7169 30.8108C56.5389 30.991 56.5092 31.2312 56.6279 31.5315C56.9247 31.4715 57.1028 31.2012 57.1621 30.7207C57.2215 30.1802 57.3105 29.6997 57.4292 29.2793C57.9635 28.6186 58.4977 27.8979 59.0319 27.1171C59.0913 27.0571 59.1803 27.027 59.299 27.027C59.5365 27.027 59.7442 27.0571 59.9223 27.1171C60.1004 27.1772 60.2784 27.0871 60.4565 26.8468C60.3378 26.5465 60.2191 26.3363 60.1004 26.2162C59.9816 26.036 60.0113 25.7958 60.1894 25.4955L60.4565 25.045C60.7533 24.5045 61.0798 24.1141 61.4359 23.8739C61.7921 23.6336 62.0295 23.1231 62.1482 22.3423C63.276 20.3003 63.8399 18.0781 63.8399 15.6757C63.8399 12.9129 62.9792 10.3604 61.2579 8.01802C59.5958 5.61561 57.0434 4.11411 53.6006 3.51351C53.4819 3.51351 53.1258 3.42342 52.5322 3.24324C51.9979 3.003 51.6715 2.88288 51.5528 2.88288C51.434 2.88288 51.3153 2.88288 51.1966 2.88288C51.0779 2.82282 50.9592 2.79279 50.8405 2.79279C50.603 2.79279 50.4249 2.82282 50.3062 2.88288C50.1875 2.88288 49.9204 2.82282 49.5049 2.7027C48.9707 2.4024 48.288 2.22222 47.457 2.16216C46.6854 2.04204 46.2402 1.95195 46.1215 1.89189L44.5188 2.25225C44.222 2.25225 43.9252 2.25225 43.6284 2.25225C43.391 2.19219 43.1535 2.16216 42.9161 2.16216C41.5509 2.16216 40.4231 2.28228 39.5327 2.52252C38.7017 2.7027 37.9597 2.82282 37.3067 2.88288L33.6562 3.24324C33.3001 3.06306 32.9736 3.12312 32.6768 3.42342H32.5878C32.1722 3.42342 31.7567 3.48348 31.3412 3.6036C30.9851 3.66366 30.5992 3.75375 30.1837 3.87387C29.9463 3.93393 29.6792 3.96396 29.3824 3.96396C29.145 3.96396 28.8779 4.02402 28.5811 4.14414V4.23423C28.3436 4.29429 28.0765 4.35435 27.7797 4.41441C27.5423 4.41441 27.2752 4.47447 26.9784 4.59459H26.8893C26.6519 4.71471 26.4145 4.83483 26.177 4.95495C25.999 5.07507 25.7615 5.1051 25.4647 5.04504C25.2273 5.1051 24.9602 5.16516 24.6634 5.22522C24.426 5.28528 24.1589 5.37537 23.8621 5.49549H23.684C23.5059 5.49549 23.3278 5.31531 23.1498 4.95495C22.9717 4.59459 22.8827 4.35435 22.8827 4.23423C22.8233 4.59459 22.7343 4.98498 22.6155 5.40541C22.5562 5.82583 22.3484 6.03604 21.9923 6.03604V6.12612C21.5768 6.18618 21.1909 6.3063 20.8348 6.48649C20.4786 6.66667 20.0928 6.81682 19.6773 6.93694C19.4399 6.99699 19.2024 7.02702 18.965 7.02702C18.7276 6.96697 18.4605 6.93694 18.1637 6.93694C18.0449 6.93694 17.9262 6.96697 17.8075 7.02702C17.6888 7.02702 17.5701 7.05705 17.4514 7.11712C17.2733 7.17718 17.1546 7.2973 17.0952 7.47748C17.0952 7.65766 17.0359 7.80781 16.9171 7.92793C16.6797 8.16817 16.3829 8.34835 16.0268 8.46847C15.6706 8.58859 15.3738 8.70871 15.1364 8.82883C15.0177 8.88889 14.8396 8.82883 14.6022 8.64865C14.4241 8.46847 14.2757 8.43844 14.157 8.55856C14.0976 8.61862 14.0383 8.76877 13.9789 9.00901C13.9789 9.24925 13.9195 9.3994 13.8008 9.45946H13.7118L11.5749 10.4504C11.2781 10.5706 10.9219 10.7507 10.5064 10.991C10.0909 11.2312 9.73477 11.3814 9.43798 11.4414C9.37862 11.4414 9.34895 11.3213 9.34895 11.0811C9.34895 10.8408 9.28959 10.7808 9.17087 10.9009C8.87408 11.021 8.54761 11.3514 8.19146 11.8919C7.89467 12.3724 7.59787 12.7027 7.30108 12.8829C7.00429 13.1231 6.7075 13.2432 6.41071 13.2432C6.11391 13.2432 5.8468 13.3634 5.60937 13.6036C5.43129 13.7237 5.25322 13.994 5.07514 14.4144C4.95643 14.7748 4.80803 15.045 4.62995 15.2252L3.38343 16.9369C3.26471 17.0571 3.14599 17.1772 3.02728 17.2973C2.90856 17.4174 2.8492 17.5676 2.8492 17.7477C2.49305 18.3483 2.31498 19.039 2.31498 19.8198C2.31498 21.1411 2.76016 22.1021 3.65054 22.7027C4.60028 23.2432 5.63905 23.6637 6.76686 23.964H6.85589C7.2714 24.2643 7.65723 24.3844 8.01338 24.3243C8.25082 24.2042 8.45857 24.1441 8.63664 24.1441C8.87408 24.1441 9.08183 24.2643 9.25991 24.5045L10.5064 24.7748C11.1594 24.955 11.4858 25.1351 11.4858 25.3153C11.4858 25.4354 11.3375 25.5556 11.0407 25.6757C10.8032 25.7357 10.5361 25.7658 10.2393 25.7658C9.23023 25.7658 7.9837 25.5556 6.49974 25.1351C5.07514 24.7147 3.79894 24.0541 2.67113 23.1532C1.54332 22.1922 0.890376 21.021 0.712301 19.6396C0.712301 19.5796 0.623263 19.4294 0.445188 19.1892C0.326471 18.9489 0.237434 18.7387 0.178075 18.5586C0.118717 18.2583 0.0593585 17.988 0 17.7477C0 17.4474 0 17.1772 0 16.9369C0 15.015 0.74198 13.2432 2.22594 11.6216C2.52273 11.3213 2.78984 11.1111 3.02728 10.991C3.26471 10.8709 3.5615 10.6907 3.91765 10.4504C4.21445 10.2102 4.36284 10.03 4.36284 9.90991C4.36284 9.72973 4.54092 9.51952 4.89707 9.27928C5.37193 8.91892 5.9952 8.55856 6.76686 8.1982C7.53851 7.77778 8.16178 7.44745 8.63664 7.2072V7.11712H8.81472C9.05215 7.11712 9.28959 6.997 9.52702 6.75676C10.5955 6.21621 11.7233 5.73573 12.9104 5.31531C14.157 4.83483 15.4035 4.38438 16.65 3.96396C17.0062 3.78378 17.3326 3.69369 17.6294 3.69369C17.9262 3.69369 18.1637 3.78378 18.3417 3.96396C18.3417 3.84384 18.3417 3.75375 18.3417 3.69369C18.3417 3.57357 18.3714 3.48348 18.4308 3.42342V3.33333C19.796 2.91291 21.1613 2.49249 22.5265 2.07207C23.8917 1.59159 25.2273 1.35135 26.5332 1.35135H26.6222C26.9784 1.35135 27.2455 1.29129 27.4236 1.17117L27.9578 1.08108H28.0468C28.403 1.2012 28.7295 1.14114 29.0263 0.9009C30.5102 0.6006 31.9348 0.420419 33.3001 0.360358C34.6653 0.300299 35.8228 0.240239 36.7725 0.180178C36.9506 0.240239 37.1287 0.270269 37.3067 0.270269C37.4848 0.210208 37.6332 0.180178 37.7519 0.180178L38.6423 0.0900889C38.8204 0.0900889 38.9985 0.120119 39.1765 0.180178C39.414 0.180178 39.6217 0.150148 39.7998 0.0900889L44.7859 0H44.8749C45.053 0 45.2014 0.0900898 45.3201 0.270269C45.4982 0.39039 45.6763 0.33033 45.8544 0.0900889C46.3292 0.0900889 47.0415 0.180179 47.9913 0.360358C49.0003 0.54054 50.0094 0.72072 51.0185 0.9009C52.0276 1.02102 52.7696 1.14114 53.2445 1.26126C54.1348 1.44144 55.3814 1.86186 56.984 2.52252C58.6461 3.12312 60.3081 4.05405 61.9702 5.31531C63.6322 6.51652 64.9678 8.13814 65.9768 10.1802C67.0453 12.1622 67.4311 14.6547 67.1343 17.6577C67.075 18.7387 66.8375 19.7598 66.422 20.7207C66.0065 21.6817 65.5613 22.6727 65.0865 23.6937L64.1961 25.6757C64.1367 25.7357 64.0477 25.8258 63.929 25.9459C63.8103 26.006 63.6915 26.0961 63.5728 26.2162C63.5135 26.3964 63.4244 26.5465 63.3057 26.6667C63.187 26.7267 63.0683 26.8468 62.9496 27.027C62.7121 27.3874 62.445 27.7477 62.1482 28.1081C61.8514 28.4084 61.5546 28.7688 61.2579 29.1892L61.0798 29.4595C60.2488 30.7808 59.21 31.982 57.9635 33.0631C56.7169 34.0841 55.4704 35.015 54.2239 35.8559V35.9459C54.1052 36.006 53.9568 36.0961 53.7787 36.2162C53.66 36.2763 53.5413 36.3664 53.4225 36.4865L53.3335 36.5766H53.2445C53.1258 36.6366 52.9774 36.6967 52.7993 36.7568C52.6212 36.8168 52.4728 36.967 52.3541 37.2072C52.1167 37.3874 51.8792 37.4775 51.6418 37.4775C50.8701 37.8979 50.1578 38.2583 49.5049 38.5586C48.8519 38.7988 48.288 39.039 47.8132 39.2793C47.8132 39.3994 47.7241 39.5796 47.5461 39.8198C47.368 40.0601 47.2196 40.2402 47.1009 40.3604C46.0918 41.2012 45.4092 41.8919 45.053 42.4324C44.6969 42.973 44.2517 43.3934 43.7175 43.6937C43.6581 43.7537 43.5691 43.7838 43.4503 43.7838C43.2129 43.7838 43.0348 43.8739 42.9161 44.0541C42.7974 44.2342 42.6787 44.4144 42.56 44.5946C42.2632 44.8949 41.6696 45.1952 40.7792 45.4955C39.9482 45.7958 39.3249 46.0961 38.9094 46.3964C38.7313 46.4565 38.5236 46.5165 38.2862 46.5766C38.1081 46.6967 38.019 46.7568 38.019 46.7568H37.5739C37.5145 46.7568 37.3958 46.8168 37.2177 46.9369C37.0396 47.1171 36.8912 47.2372 36.7725 47.2973C36.6538 47.3574 36.5351 47.3874 36.4164 47.3874C36.2977 47.3874 36.2086 47.4474 36.1493 47.5676C35.8525 47.5676 35.526 47.6276 35.1698 47.7477C35.1105 47.7477 34.8137 47.7477 34.2795 47.7477C33.7452 47.8078 33.4188 47.8679 33.3001 47.9279C33.2407 47.988 33.0329 48.0781 32.6768 48.1982C32.3206 48.3183 32.0832 48.3784 31.9645 48.3784C31.9051 48.3784 31.8458 48.3483 31.7864 48.2883C31.7271 48.2883 31.638 48.3183 31.5193 48.3784C31.4599 48.4985 31.3709 48.5586 31.2522 48.5586C31.1928 48.5586 31.0741 48.5285 30.896 48.4685C30.7773 48.4685 30.6586 48.4685 30.5399 48.4685C30.4805 48.4084 30.3618 48.4384 30.1837 48.5586C30.065 48.6787 29.9463 48.7387 29.8276 48.7387C29.7682 48.7387 29.7089 48.7087 29.6495 48.6486C29.6495 48.6486 29.6198 48.6486 29.5605 48.6486C29.4418 48.6486 29.323 48.6787 29.2043 48.7387C29.0856 48.7988 28.9669 48.8288 28.8482 48.8288C28.4327 48.8288 28.0468 48.7988 27.6907 48.7387C27.3345 48.6787 26.9784 48.6486 26.6222 48.6486C26.5629 48.6486 26.3848 48.5586 26.088 48.3784C25.8506 48.1982 25.7022 48.1081 25.6428 48.1081C25.2273 48.1081 24.8118 48.0781 24.3963 48.018C24.0401 48.018 23.684 47.988 23.3278 47.9279C23.2685 47.9279 23.2091 47.8679 23.1498 47.7477C23.1498 47.6877 23.0904 47.6577 22.9717 47.6577H22.7936C22.7343 47.6577 22.5859 47.5976 22.3484 47.4775C22.1704 47.3574 22.0516 47.2673 21.9923 47.2072L21.9032 47.1171C21.6658 47.0571 21.5174 46.967 21.4581 46.8468C21.4581 46.7267 21.3987 46.6667 21.28 46.6667C21.2206 46.6667 21.1909 46.6667 21.1909 46.6667C21.1909 46.7267 21.1613 46.7568 21.1019 46.7568C20.9832 46.7568 20.9238 46.6967 20.9238 46.5766C20.7458 46.4565 20.449 46.3063 20.0335 46.1261C19.6773 45.9459 19.4399 45.7357 19.3212 45.4955C19.0837 45.4354 18.9353 45.3754 18.876 45.3153C18.876 45.2553 18.8166 45.1351 18.6979 44.955L18.3417 44.7748L17.4514 43.964C17.4514 43.7838 17.4217 43.6937 17.3623 43.6937L17.0952 43.5135C17.0952 43.2733 17.0062 43.1531 16.8281 43.1531C16.7094 42.7928 16.65 42.6126 16.65 42.6126C16.1158 43.8138 15.6409 44.985 15.2254 46.1261C14.8693 47.2673 14.5428 48.3183 14.246 49.2793C14.1273 49.7598 13.9492 50 13.7118 50ZM29.2934 47.2973C29.4121 47.2973 29.5011 47.2673 29.5605 47.2072C29.6792 47.1471 29.7682 47.0871 29.8276 47.027H30.1837C30.5992 46.7868 30.807 46.7868 30.807 47.027C30.807 47.2673 30.9554 47.2673 31.2522 47.027H31.6974C31.7567 46.8468 31.8458 46.7568 31.9645 46.7568C32.1426 46.7568 32.2613 46.7267 32.3206 46.6667C32.4394 46.6667 32.4987 46.6066 32.4987 46.4865C32.5581 46.4264 32.6768 46.3964 32.8549 46.3964C32.9142 46.3964 33.0033 46.4565 33.122 46.5766C33.3594 46.5766 33.8343 46.4565 34.5466 46.2162C35.3182 45.976 35.7337 45.8559 35.7931 45.8559C35.8525 45.9159 35.9415 45.8559 36.0602 45.6757C36.2383 45.4955 36.357 45.4354 36.4164 45.4955C36.4164 45.4354 36.5054 45.3754 36.6835 45.3153C36.8616 45.3153 36.9803 45.2853 37.0396 45.2252C37.3958 45.045 37.6926 44.955 37.93 44.955C37.9894 44.8949 38.1378 44.7748 38.3752 44.5946C38.672 44.4745 38.8204 44.3844 38.8204 44.3243C38.9391 44.2042 39.1172 44.1141 39.3546 44.0541C39.592 43.994 39.7404 43.9339 39.7998 43.8739C39.9779 43.8739 40.5715 43.5736 41.5806 42.973C42.649 42.3123 43.6284 41.5315 44.5188 40.6306C43.5097 40.991 42.5303 41.2913 41.5806 41.5315C40.6902 41.7117 40.2153 41.8018 40.1559 41.8018C40.0372 41.9219 39.9482 41.982 39.8888 41.982C39.6514 41.8619 39.5327 41.8018 39.5327 41.8018L39.4436 41.8919C39.3843 41.8919 39.3249 41.9219 39.2656 41.982C39.2062 42.042 39.0875 42.0721 38.9094 42.0721C38.8501 42.012 38.672 42.0721 38.3752 42.2523C38.1378 42.3724 37.9894 42.4324 37.93 42.4324C37.8707 42.4324 37.7816 42.4625 37.6629 42.5225C37.6035 42.5225 37.5145 42.4925 37.3958 42.4324C37.1583 42.6727 36.5351 42.8529 35.526 42.973C34.5763 43.033 33.953 43.0631 33.6562 43.0631H33.5672C33.5078 43.003 33.4188 43.003 33.3001 43.0631C33.2407 43.0631 33.1517 43.0631 33.0329 43.0631C33.0329 43.1231 33.0033 43.1832 32.9439 43.2432H32.4097C32.1722 43.2432 31.9348 43.2733 31.6974 43.3333C31.5193 43.3934 31.3116 43.4234 31.0741 43.4234L30.9851 43.3333C30.9257 43.3333 30.8367 43.3634 30.718 43.4234C30.5992 43.4835 30.5102 43.5135 30.4509 43.5135C30.3915 43.5135 30.3321 43.4835 30.2728 43.4234C30.2728 43.3033 30.2134 43.2432 30.0947 43.2432C30.0353 43.2432 29.9463 43.3033 29.8276 43.4234C29.7682 43.4835 29.7089 43.4835 29.6495 43.4234H29.2934C29.1153 43.4234 29.0263 43.4234 29.0263 43.4234C28.9669 43.4234 28.9075 43.4535 28.8482 43.5135C28.8482 43.5135 28.8185 43.5135 28.7591 43.5135C28.7591 43.5135 28.6998 43.4534 28.5811 43.3333C28.5217 43.3333 28.403 43.3934 28.2249 43.5135C28.1062 43.5736 27.9875 43.5736 27.8688 43.5135H27.6907C27.572 43.3934 27.5126 43.3333 27.5126 43.3333C27.4533 43.3333 27.4236 43.3634 27.4236 43.4234H26.6222C26.2661 43.4234 25.9099 43.3033 25.5538 43.0631C25.1976 42.8228 24.8712 42.7027 24.5744 42.7027C24.515 42.7027 24.4557 42.7327 24.3963 42.7928C24.3963 42.7928 24.3666 42.7928 24.3073 42.7928C24.2479 42.7928 24.1885 42.7928 24.1292 42.7928C24.1292 42.7327 24.0995 42.7027 24.0401 42.7027C24.0401 42.7027 24.0105 42.7027 23.9511 42.7027C23.9511 42.7027 23.9214 42.7327 23.8621 42.7928C23.8621 42.7327 23.8324 42.7027 23.773 42.7027C23.773 42.6426 23.773 42.6126 23.773 42.6126L22.9717 42.4324C22.9717 42.2523 22.9123 42.1622 22.7936 42.1622C22.7343 41.982 22.3484 41.8018 21.6361 41.6216C20.9238 41.4414 20.5083 41.3213 20.3896 41.2613C20.3302 41.2613 20.2115 41.2012 20.0335 41.0811C19.9147 40.961 19.8554 40.9309 19.8554 40.991H19.7663C19.5883 40.991 19.3508 40.8709 19.054 40.6306C18.8166 40.3303 18.5792 40.1501 18.3417 40.0901C18.1637 39.9099 18.0746 39.7297 18.0746 39.5495H17.9856L17.8966 39.6396L17.7185 40.1802C17.7185 40.2402 17.7482 40.3604 17.8075 40.5405C17.8669 40.7207 17.8669 40.8709 17.8075 40.991C17.9262 41.1111 17.9856 41.2613 17.9856 41.4414C17.9856 41.5616 18.0449 41.6516 18.1637 41.7117C18.223 41.8919 18.2824 42.0721 18.3417 42.2523C18.4605 42.4324 18.5495 42.6126 18.6089 42.7928C18.6089 42.8529 18.7572 42.973 19.054 43.1531C19.3508 43.2733 19.4992 43.3934 19.4992 43.5135C19.5586 43.5736 19.6179 43.6336 19.6773 43.6937C19.796 43.7537 19.8554 43.8438 19.8554 43.964C19.9147 44.024 19.9741 44.1141 20.0335 44.2342C20.0928 44.3544 20.1225 44.4745 20.1225 44.5946C20.2412 44.5946 20.3302 44.6246 20.3896 44.6847C20.449 44.8048 20.5974 44.985 20.8348 45.2252C21.0722 45.5255 21.2503 45.7057 21.369 45.7658C21.4284 45.7658 21.4581 45.7357 21.4581 45.6757C21.4581 45.6757 21.4877 45.6757 21.5471 45.6757C21.6658 45.7357 21.8142 45.8559 21.9923 46.036C22.1704 46.2763 22.2891 46.3964 22.3484 46.3964C22.4671 46.3964 22.5265 46.3964 22.5265 46.3964C23.0014 46.4565 23.4762 46.5165 23.9511 46.5766C24.426 46.6967 24.9008 46.7868 25.3757 46.8468C25.4351 46.8468 25.5241 46.8769 25.6428 46.9369C25.7615 47.0571 25.9099 47.1171 26.088 47.1171C26.5629 47.1772 27.1268 47.2072 27.7797 47.2072C28.492 47.2072 28.9669 47.2072 29.2043 47.2072L29.2934 47.2973Z" fill="white"/>
<path d="M69.0159 31.0811C68.6004 31.0811 68.2443 31.051 67.9475 30.991C67.6507 30.9309 67.532 30.8709 67.5913 30.8108C67.6507 30.6907 67.6507 30.5706 67.5913 30.4504C67.532 30.2703 67.5023 30.1501 67.5023 30.0901C67.5023 29.97 67.5913 29.7898 67.7694 29.5495C68.0069 29.3093 68.1553 29.039 68.2146 28.7387C68.5114 28.7387 68.8082 28.5886 69.105 28.2883C69.105 28.4084 69.1643 28.5285 69.2831 28.6486C69.2831 28.5886 69.3127 28.5285 69.3721 28.4685C69.3721 28.4685 69.4315 28.4985 69.5502 28.5586C69.7282 28.5586 69.8173 28.5886 69.8173 28.6486C70.0547 28.5285 70.2625 28.4384 70.4405 28.3784C70.6186 28.3183 70.8264 28.2583 71.0638 28.1982C71.1232 28.1982 71.1232 28.2282 71.0638 28.2883C71.0638 28.3483 71.0935 28.4084 71.1528 28.4685L71.42 28.3784C71.42 28.4384 71.7464 28.4084 72.3994 28.2883C73.0523 28.1682 73.4085 28.1081 73.4678 28.1081H73.824C74.2988 28.1081 74.655 28.048 74.8924 27.9279C74.9518 27.8679 75.1299 27.958 75.4267 28.1982C75.7828 28.3784 75.9906 28.4084 76.0499 28.2883C76.1686 28.2282 76.4654 28.1682 76.9403 28.1081C77.4745 28.048 77.801 28.1081 77.9197 28.2883C77.9791 28.2282 78.0681 28.1982 78.1868 28.1982C78.3055 28.4384 78.3352 28.6186 78.2759 28.7387C78.2165 28.7988 78.2165 28.8589 78.2759 28.9189C78.3946 28.9189 78.4836 28.8889 78.543 28.8288C78.6023 28.7688 78.6617 28.7688 78.721 28.8288C78.7804 28.8288 78.8101 28.7988 78.8101 28.7387C78.8101 28.6787 78.8398 28.6186 78.8991 28.5586C79.0772 28.5586 79.2553 28.5586 79.4333 28.5586C79.6114 28.5586 79.8192 28.5285 80.0566 28.4685C80.1753 28.7087 80.2644 28.8288 80.3237 28.8288C80.4424 28.8288 80.6205 28.7688 80.8579 28.6486C81.1547 28.4685 81.3328 28.4084 81.3922 28.4685C81.3922 28.4685 81.5109 28.5886 81.7483 28.8288C81.867 28.7087 81.9264 28.6486 81.9264 28.6486C82.2232 28.6486 82.5497 28.6186 82.9058 28.5586C83.3213 28.4384 83.5587 28.4084 83.6181 28.4685C83.7368 28.4685 83.7665 28.4985 83.7071 28.5586C83.6478 28.6186 83.6478 28.6787 83.7071 28.7387C83.7665 28.7387 83.7962 28.7087 83.7962 28.6486C83.8555 28.5886 83.9149 28.5586 83.9743 28.5586C84.093 28.6186 84.1523 28.6787 84.1523 28.7387C84.1523 28.7387 84.182 28.7688 84.2414 28.8288C84.4194 28.5886 84.6272 28.3784 84.8646 28.1982C85.1614 28.018 85.5176 27.988 85.9331 28.1081C86.0518 28.1081 86.0815 28.1381 86.0221 28.1982C85.9628 28.1982 85.9628 28.1982 86.0221 28.1982C86.7344 28.3784 87.0906 28.5285 87.0906 28.6486C87.0906 28.8288 86.8531 28.979 86.3783 29.0991C85.9034 29.2192 85.6363 29.2793 85.5769 29.2793C85.5176 29.2192 85.4879 29.1892 85.4879 29.1892C85.5473 29.1892 85.5769 29.1892 85.5769 29.1892H85.3989C85.2801 29.1892 84.9834 29.2492 84.5085 29.3694C84.0336 29.4294 83.6478 29.4895 83.351 29.5495C83.1729 29.6096 82.9058 29.7297 82.5497 29.9099C82.1935 30.03 81.9561 30.0901 81.8373 30.0901C81.778 30.0901 81.5999 30.1501 81.3031 30.2703C81.0063 30.3303 80.7986 30.3604 80.6799 30.3604C80.6205 30.3003 80.6205 30.2703 80.6799 30.2703C80.7392 30.2102 80.7095 30.1501 80.5908 30.0901C80.5315 30.0901 80.5018 30.1501 80.5018 30.2703C80.5611 30.3303 80.5315 30.3604 80.4128 30.3604C80.294 30.3604 80.116 30.3604 79.8785 30.3604C79.7005 30.3003 79.5224 30.2703 79.3443 30.2703C78.8694 30.2703 78.543 30.3904 78.3649 30.6306H78.1868C78.1275 30.6306 78.0681 30.6006 78.0087 30.5405C77.9494 30.4204 77.8603 30.3604 77.7416 30.3604C77.5042 30.3604 77.2964 30.4504 77.1184 30.6306C77.059 30.7507 76.7919 30.8408 76.317 30.9009C75.9015 30.961 75.397 30.991 74.8034 30.991C74.0911 30.991 73.3788 30.961 72.6665 30.9009C71.9542 30.8408 71.509 30.7808 71.3309 30.7207C71.2716 30.7207 71.2122 30.7808 71.1528 30.9009C71.1528 30.961 71.0935 30.961 70.9748 30.9009C70.9154 30.9009 70.9154 30.9009 70.9748 30.9009C71.0341 30.8408 71.0045 30.8108 70.8857 30.8108C70.8264 30.8108 70.7077 30.9009 70.5296 31.0811C70.5889 31.021 70.5889 30.961 70.5296 30.9009C70.3515 30.961 70.1141 31.021 69.8173 31.0811C69.5798 31.0811 69.3127 31.0811 69.0159 31.0811Z" fill="white"/>
<path d="M109.615 46.3063C109.437 46.3063 109.14 46.2763 108.725 46.2162C108.368 46.2162 108.161 46.1862 108.101 46.1261C108.042 46.006 108.101 45.8859 108.279 45.7658C108.517 45.7057 108.517 45.6456 108.279 45.5856C108.042 45.5255 107.864 45.4054 107.745 45.2252C107.626 45.1051 107.419 45.045 107.122 45.045C106.825 45.045 106.41 45.1652 105.875 45.4054C105.341 45.6456 104.985 45.7357 104.807 45.6757C103.56 45.3754 102.344 44.955 101.156 44.4144C100.029 43.9339 98.9602 43.3033 97.9511 42.5225C97.8324 42.4024 97.7433 42.1922 97.684 41.8919C97.6246 41.5916 97.4168 41.4114 97.0607 41.3513C96.6452 41.2913 96.3187 41.0811 96.0813 40.7207C95.8438 40.3003 95.5471 39.9399 95.1909 39.6396C94.7754 39.2793 94.4786 38.8589 94.3005 38.3784C94.1818 37.8378 94.0631 37.3273 93.9444 36.8468C93.7069 36.1862 93.5586 35.5856 93.4992 35.045C93.4992 34.5045 93.4992 33.8739 93.4992 33.1531C93.4992 32.6727 93.5882 31.8018 93.7663 30.5405C94.0037 29.2793 94.1225 28.4084 94.1225 27.9279V27.8378C94.538 26.8769 94.7754 26.2162 94.8348 25.8559C94.9535 25.4955 95.0425 25.2252 95.1019 25.045C95.1612 24.8048 95.3393 24.4745 95.6361 24.0541C95.9329 23.6336 96.4671 22.8829 97.2388 21.8018C97.5949 21.3213 97.8027 21.0511 97.862 20.991C97.9807 20.9309 98.1588 20.7808 98.3963 20.5405C98.7524 20.0601 99.1679 19.4895 99.6428 18.8288C100.118 18.1682 100.563 17.6577 100.978 17.2973C101.631 16.7568 102.403 16.1862 103.293 15.5856C104.184 14.9249 104.985 14.3844 105.697 13.964C105.935 13.7838 106.143 13.6937 106.321 13.6937C106.499 13.6336 106.706 13.5736 106.944 13.5135C107.122 13.4535 107.508 13.2432 108.101 12.8829C108.695 12.4625 109.289 12.0721 109.882 11.7117C110.535 11.3513 110.921 11.2012 111.04 11.2613C111.099 11.2613 111.129 11.2913 111.129 11.3513C111.188 11.3513 111.247 11.3513 111.307 11.3513C111.425 11.3513 111.574 11.2913 111.752 11.1712C111.93 10.991 112.078 10.8709 112.197 10.8108C112.85 10.3904 113.533 10.1802 114.245 10.1802C114.779 10.1201 115.224 10.03 115.581 9.90991C115.937 9.78979 116.322 9.66967 116.738 9.54955C117.094 9.42943 117.688 9.27928 118.519 9.0991C119.35 8.91892 120.121 8.82883 120.834 8.82883C121.249 8.82883 121.576 8.88889 121.813 9.00901C122.169 9.18919 122.407 9.27928 122.525 9.27928C122.644 9.27928 122.763 9.27928 122.882 9.27928C123 9.21922 123.149 9.15916 123.327 9.0991C123.505 9.03904 123.713 9.00901 123.95 9.00901C124.069 9.00901 124.158 9.06907 124.217 9.18919C124.336 9.24925 124.514 9.3994 124.751 9.63964C124.811 9.6997 124.929 9.72973 125.108 9.72973C125.226 9.72973 125.345 9.6997 125.464 9.63964C125.642 9.57958 125.79 9.54955 125.909 9.54955C126.206 9.54955 126.413 9.66967 126.532 9.90991C126.71 10.0901 126.918 10.2102 127.155 10.2703C127.452 10.3303 127.719 10.3904 127.957 10.4504C128.194 10.4504 128.432 10.5105 128.669 10.6306C129.203 10.8709 129.767 11.2913 130.361 11.8919C131.014 12.4324 131.4 13.033 131.518 13.6937C131.518 13.8138 131.518 13.994 131.518 14.2342C131.518 14.4144 131.4 14.4144 131.162 14.2342C130.331 13.4535 129.53 12.7928 128.758 12.2523C128.046 11.6517 127.066 11.3513 125.82 11.3513C124.692 11.3513 123.297 11.4715 121.635 11.7117C119.973 11.952 118.37 12.3123 116.827 12.7928C115.284 13.2132 114.067 13.7237 113.176 14.3243C112.88 14.5646 112.672 14.7447 112.553 14.8649C112.435 14.9249 112.138 14.955 111.663 14.955C111.069 14.955 110.476 15.1952 109.882 15.6757C109.348 16.0961 108.814 16.4565 108.279 16.7568C108.042 16.8769 107.745 16.967 107.389 17.027C107.033 17.0871 106.766 17.2072 106.588 17.3874C106.469 17.5075 106.41 17.5976 106.41 17.6577C106.41 17.7177 106.35 17.8078 106.232 17.9279L106.143 18.018C105.43 18.7387 104.718 19.2793 104.006 19.6396C103.353 20 102.611 20.5105 101.78 21.1712C101.72 21.1712 101.542 21.4114 101.245 21.8919C100.949 22.3123 100.652 22.7327 100.355 23.1532C100.058 23.5736 99.8505 23.8138 99.7318 23.8739C99.257 23.994 98.8414 24.3243 98.4853 24.8649C98.1291 25.3453 97.862 25.7658 97.684 26.1261C97.5059 26.3664 97.2684 26.6667 96.9717 27.027C96.7342 27.3273 96.5265 27.6276 96.3484 27.9279C95.9329 28.7087 95.6361 29.5495 95.458 30.4504C95.2799 31.3513 95.1909 32.2823 95.1909 33.2432C95.1909 33.6637 95.1909 34.1141 95.1909 34.5946C95.2503 35.0751 95.3096 35.5556 95.369 36.036C95.4283 36.4565 95.458 36.7568 95.458 36.9369C95.458 37.0571 95.6064 37.2673 95.9032 37.5676C96.2 37.9279 96.4374 38.3183 96.6155 38.7387C96.8529 39.0991 97.12 39.4294 97.4168 39.7297C97.4762 39.7898 97.5059 39.8799 97.5059 40C97.5059 40.4805 97.5652 40.7507 97.684 40.8108C97.862 40.8709 98.0401 40.9009 98.2182 40.9009C98.3963 40.9009 98.5447 41.1111 98.6634 41.5315L98.8414 41.7117C99.5537 41.8318 100.207 42.0721 100.8 42.4324C101.394 42.7327 102.017 42.973 102.67 43.1531C103.086 43.2132 103.501 43.3033 103.917 43.4234C104.391 43.4835 104.807 43.5736 105.163 43.6937C105.341 43.7537 105.49 43.8438 105.608 43.964C105.786 44.1441 105.905 44.2643 105.964 44.3243H106.053C106.172 44.3243 106.261 44.2643 106.321 44.1441C106.439 44.024 106.588 43.964 106.766 43.964C106.944 43.964 107.181 43.9339 107.478 43.8739C107.775 43.8739 107.983 43.9339 108.101 44.0541C108.398 44.2342 108.665 44.3243 108.903 44.3243C109.14 44.3243 109.378 44.2643 109.615 44.1441C109.734 44.0841 110.031 44.0541 110.505 44.0541C111.04 44.0541 111.336 44.0541 111.396 44.0541C111.514 44.1141 111.663 44.2042 111.841 44.3243C112.078 44.4444 112.286 44.4745 112.464 44.4144C112.583 44.2943 112.613 44.2042 112.553 44.1441C112.553 44.0841 112.672 44.024 112.909 43.964L114.601 43.7838C114.72 43.7237 114.839 43.6937 114.957 43.6937C115.491 43.6336 116.115 43.5135 116.827 43.3333C117.599 43.0931 118.192 42.9429 118.608 42.8829C119.32 42.8829 120.062 42.6426 120.834 42.1622C121.724 41.6817 122.644 41.2613 123.594 40.9009C124.544 40.4805 125.493 40.0901 126.443 39.7297C127.096 39.4895 127.66 39.1892 128.135 38.8288C128.61 38.4685 129.085 38.1081 129.559 37.7477C130.034 37.4474 130.479 37.1471 130.895 36.8468C131.37 36.5465 131.785 36.2462 132.142 35.9459C132.32 35.7658 132.468 35.5556 132.587 35.3153C132.705 35.0751 132.883 34.8949 133.121 34.7748C134.664 33.8739 135.911 32.8529 136.86 31.7117C137.81 30.5706 138.938 29.4294 140.244 28.2883C140.541 27.988 140.748 27.7477 140.867 27.5676C140.986 27.3874 141.134 27.1471 141.312 26.8468C141.728 26.1862 142.262 25.5255 142.915 24.8649C143.568 24.1441 144.102 23.3033 144.518 22.3423C144.696 21.9219 144.963 21.6516 145.319 21.5315C145.675 21.3513 145.883 21.1111 145.942 20.8108C145.942 20.8108 145.853 20.5706 145.675 20.0901C145.556 19.5495 145.646 19.1892 145.942 19.009C146.239 18.8288 146.388 18.6186 146.388 18.3784C146.388 18.018 146.209 17.6877 145.853 17.3874C145.556 17.027 145.408 16.7267 145.408 16.4865C145.467 14.9249 145.349 13.6937 145.052 12.7928C144.815 11.8318 144.369 10.961 143.716 10.1802C143.063 9.3994 142.232 8.52853 141.223 7.56757C140.096 6.48649 138.552 5.7057 136.593 5.22522C134.694 4.68468 132.973 4.32432 131.429 4.14414C131.073 4.14414 130.687 4.05405 130.272 3.87387C129.916 3.69369 129.559 3.66366 129.203 3.78378C129.085 3.84384 128.788 3.87387 128.313 3.87387C127.897 3.87387 127.423 3.87387 126.888 3.87387C126.354 3.81381 126.028 3.75375 125.909 3.69369C125.315 3.57357 124.781 3.6036 124.306 3.78378C123.831 3.9039 123.327 3.96396 122.793 3.96396C122.436 3.96396 122.169 3.93393 121.991 3.87387C121.813 3.81381 121.635 3.78378 121.457 3.78378C121.22 3.78378 121.012 3.84384 120.834 3.96396C120.715 4.02402 120.507 4.11411 120.21 4.23423C118.548 4.83483 116.768 5.28528 114.868 5.58558C114.809 5.58558 114.364 5.7057 113.533 5.94594C112.702 6.18619 111.871 6.45646 111.04 6.75676C110.209 6.997 109.704 7.14715 109.526 7.2072C108.932 7.44745 108.368 7.65766 107.834 7.83784C107.3 8.01802 106.795 8.28829 106.321 8.64865C106.202 8.70871 106.053 8.7988 105.875 8.91892C105.697 9.03904 105.519 9.0991 105.341 9.0991C104.926 9.15916 104.57 9.30931 104.273 9.54955C104.035 9.72973 103.768 9.90991 103.471 10.0901C103.234 10.2703 102.907 10.3904 102.492 10.4504C102.136 10.5105 101.839 10.6306 101.602 10.8108C101.483 10.8709 101.424 11.051 101.424 11.3513C101.483 11.6516 101.424 11.8318 101.245 11.8919C101.008 12.012 100.711 12.1021 100.355 12.1622C100.058 12.1622 99.7615 12.1922 99.4647 12.2523C99.0492 12.3123 98.6337 12.6126 98.2182 13.1532C97.8027 13.6336 97.4465 14.024 97.1497 14.3243C96.7936 14.5646 96.3187 15.015 95.7251 15.6757C95.1315 16.2763 94.6567 16.6967 94.3005 16.9369C94.0037 17.1171 93.7069 17.2372 93.4102 17.2973C93.1134 17.3574 92.9353 17.6577 92.8759 18.1982L91.7184 19.2793C91.3029 19.3393 91.0358 19.5195 90.9171 19.8198C90.7984 20.0601 90.5906 20.3003 90.2938 20.5405C89.819 20.9009 89.5222 21.1712 89.4035 21.3514C89.3441 21.4715 89.077 21.7417 88.6021 22.1622C88.1866 22.5826 87.8008 22.7928 87.4446 22.7928C87.2666 22.7928 87.1775 22.7027 87.1775 22.5225C87.1775 22.1021 87.4446 21.5015 87.9789 20.7207C88.5131 20.4204 88.8989 20 89.1364 19.4595C89.3738 18.9189 89.7299 18.4685 90.2048 18.1081C90.6797 17.8078 91.0358 17.4775 91.2733 17.1171C91.57 16.7568 91.8668 16.3664 92.1636 15.9459C92.2823 15.8258 92.3714 15.7658 92.4307 15.7658C92.9056 15.4054 93.2914 15.015 93.5882 14.5946C93.9444 14.1141 94.3896 13.7538 94.9238 13.5135C95.458 13.2733 95.9032 12.973 96.2594 12.6126C96.6155 12.1922 97.0013 11.8318 97.4168 11.5315C100.325 9.48949 103.501 7.65766 106.944 6.03604C110.387 4.35435 113.829 3.3033 117.272 2.88288C117.747 2.82282 118.163 2.76276 118.519 2.7027C118.934 2.58258 119.35 2.49249 119.765 2.43243C119.943 2.37237 120.329 2.31231 120.923 2.25225C121.576 2.13213 122.199 2.04204 122.793 1.98198C123.445 1.86186 123.831 1.83183 123.95 1.89189C124.128 1.89189 124.306 1.92192 124.484 1.98198C124.662 1.98198 124.811 1.98198 124.929 1.98198C125.345 1.98198 125.671 1.95195 125.909 1.89189C126.206 1.83183 126.562 1.8018 126.977 1.8018C129.53 1.86186 131.934 2.19219 134.189 2.79279C136.445 3.39339 138.641 4.38438 140.778 5.76576C141.075 6.006 141.312 6.24624 141.49 6.48649C141.669 6.66667 141.936 6.81682 142.292 6.93694C142.589 7.11712 142.885 7.38739 143.182 7.74775C143.598 8.34835 144.073 8.94895 144.607 9.54955C145.141 10.0901 145.586 10.6907 145.942 11.3513C146.595 12.5526 147.07 13.8138 147.367 15.1351C147.723 16.4565 147.901 17.7778 147.901 19.0991C147.901 23.7237 146.388 27.6577 143.36 30.9009C143.123 31.1411 142.737 31.2913 142.203 31.3513C141.728 31.3513 141.431 31.4114 141.312 31.5315C141.253 31.5916 141.342 31.7718 141.579 32.0721C141.817 32.3724 141.876 32.5826 141.758 32.7027C140.927 33.5435 140.066 34.3243 139.175 35.045C139.116 35.1051 139.057 35.015 138.997 34.7748C138.938 34.4745 138.819 34.2943 138.641 34.2342C138.463 34.1141 138.344 34.2943 138.285 34.7748C138.285 35.2553 138.226 35.5556 138.107 35.6757L137.306 34.7748C137.187 34.8348 137.187 35.1351 137.306 35.6757C137.424 36.2162 137.424 36.5465 137.306 36.6667C136 37.6276 134.664 38.5285 133.299 39.3694C131.934 40.2102 130.479 40.991 128.936 41.7117C125.85 43.2132 122.614 44.3544 119.231 45.1351C115.907 45.976 112.702 46.3664 109.615 46.3063Z" fill="white"/>
<path d="M159.746 43.7838C157.55 43.7838 155.888 43.3934 154.76 42.6126C153.632 41.8318 152.86 40.9009 152.445 39.8198C152.029 38.7387 151.911 37.5075 152.089 36.1261L152.267 35.8559C152.385 35.6757 152.475 35.4354 152.534 35.1351C152.593 34.8348 152.653 34.6547 152.712 34.5946L153.424 34.7748C153.543 34.8348 153.632 34.7447 153.691 34.5045C153.751 34.2643 153.721 34.1742 153.602 34.2342C153.246 34.2943 153.068 34.3544 153.068 34.4144C153.068 34.4745 153.009 34.3544 152.89 34.0541L153.157 33.8739L153.068 33.7838C153.068 33.6637 153.127 33.6036 153.246 33.6036L153.068 33.3333C153.068 33.3333 153.306 33.3634 153.78 33.4234C154.315 33.4234 154.522 33.3634 154.404 33.2432C154.463 33.2432 154.433 33.2132 154.315 33.1531C154.196 33.033 154.137 32.9429 154.137 32.8829C154.077 32.9429 154.048 32.9429 154.048 32.8829C154.048 32.7628 153.84 32.7628 153.424 32.8829C153.246 32.9429 153.157 32.9129 153.157 32.7928C153.157 32.6727 153.157 32.6126 153.157 32.6126C153.335 32.5526 153.513 32.4925 153.691 32.4324C153.869 32.3123 153.988 32.1321 154.048 31.8919C154.107 31.2913 154.166 30.961 154.226 30.9009C154.285 30.8408 154.344 30.7507 154.404 30.6306C154.463 30.5105 154.552 30.3604 154.671 30.1802C154.79 29.9399 154.879 29.8198 154.938 29.8198C154.879 29.7598 154.849 29.6697 154.849 29.5495C154.849 29.2492 155.057 29.1291 155.472 29.1892C155.947 29.2492 156.095 29.0691 155.917 28.6486C155.739 28.4084 155.828 28.2883 156.184 28.2883L156.095 28.1982C156.333 28.0781 156.481 28.018 156.541 28.018C156.659 27.958 156.6 27.8378 156.363 27.6577L156.719 26.8468C156.778 26.7267 156.897 26.5465 157.075 26.3063C157.312 26.006 157.668 25.7057 158.143 25.4054C158.143 25.4054 158.114 25.4354 158.054 25.4955C158.054 25.4955 158.054 25.5255 158.054 25.5856H158.143C158.321 25.5856 158.648 25.4054 159.123 25.045C159.063 24.985 158.945 24.955 158.767 24.955C158.648 24.8949 158.559 24.8348 158.499 24.7748C158.44 24.5946 158.737 24.2042 159.39 23.6036C160.043 23.003 160.755 22.4324 161.527 21.8919C162.298 21.2913 162.773 20.9309 162.951 20.8108C163.842 20.3303 164.821 19.9399 165.89 19.6396C167.017 19.2793 167.997 19.1892 168.828 19.3694C169.006 19.4294 169.273 19.6697 169.629 20.0901C170.045 20.5105 170.341 20.6306 170.519 20.4504C171.054 19.97 171.677 19.4895 172.389 19.009C173.102 18.5285 173.517 18.3183 173.636 18.3784C173.933 18.4384 174.229 18.5586 174.526 18.7387C174.823 18.8589 174.971 19.2192 174.971 19.8198C174.971 20.2402 174.942 20.6006 174.882 20.9009C174.823 21.2613 174.675 21.5616 174.437 21.8018C174.2 22.042 173.962 22.3123 173.725 22.6126C173.487 22.973 173.042 23.5435 172.389 24.3243C171.796 25.045 171.35 25.4955 171.054 25.6757C170.876 25.7357 170.668 25.9159 170.43 26.2162C170.252 26.4565 170.015 26.6967 169.718 26.9369C169.481 27.1171 169.184 27.2673 168.828 27.3874C168.531 27.4474 168.323 27.5075 168.204 27.5676C168.086 27.6276 167.878 27.6577 167.581 27.6577C167.344 27.5976 167.284 27.4775 167.403 27.2973C167.463 27.2372 167.463 27.1772 167.403 27.1171C167.403 26.997 167.403 26.9069 167.403 26.8468C167.463 26.7267 167.552 26.6366 167.67 26.5766C167.789 26.5165 167.878 26.4264 167.937 26.3063C167.997 26.2462 168.145 26.036 168.383 25.6757C168.679 25.3153 168.828 25.1051 168.828 25.045C168.768 24.985 168.768 24.9249 168.828 24.8649C168.887 24.7447 168.917 24.6547 168.917 24.5946C168.976 24.5345 169.006 24.4444 169.006 24.3243C169.006 24.2042 169.065 24.1441 169.184 24.1441C169.421 24.0841 169.54 23.994 169.54 23.8739C169.54 23.3934 169.57 22.9429 169.629 22.5225C169.748 22.1021 169.718 21.7417 169.54 21.4414C169.303 20.961 168.857 20.7207 168.204 20.7207C167.314 20.7207 166.275 21.1111 165.088 21.8919C163.901 22.6126 163.1 23.2132 162.684 23.6937C160.785 25.8559 159.241 28.2883 158.054 30.991C156.867 33.6937 156.392 36.0961 156.63 38.1982C156.748 39.2192 157.164 40.0601 157.876 40.7207C158.588 41.3814 159.39 41.7117 160.28 41.7117H161.794C161.972 41.7117 162.15 41.7117 162.328 41.7117C162.565 41.6516 162.803 41.5916 163.04 41.5315C163.396 41.4114 163.664 41.3513 163.842 41.3513C164.138 41.051 164.317 41.051 164.376 41.3513C164.851 41.1111 165.059 41.021 164.999 41.0811C164.94 41.1411 165.029 41.1411 165.266 41.0811C166.453 40.7808 167.611 40.2703 168.739 39.5495C169.867 38.8288 170.905 38.1081 171.855 37.3874C172.033 37.2673 172.33 37.0871 172.745 36.8468C173.161 36.6066 173.458 36.4264 173.636 36.3063C173.755 36.1261 173.844 35.976 173.903 35.8559C174.022 35.6757 174.17 35.5556 174.348 35.4955C174.467 35.3153 174.615 35.1351 174.793 34.955C174.971 34.7147 175.09 34.5646 175.149 34.5045C175.446 34.3844 175.535 34.2943 175.417 34.2342C175.298 34.1141 175.446 33.964 175.862 33.7838C175.98 33.7237 176.099 33.6937 176.218 33.6937C176.337 33.6937 176.396 33.7538 176.396 33.8739C176.396 33.994 176.218 34.3243 175.862 34.8649C175.624 35.2853 175.179 35.8258 174.526 36.4865L173.636 37.3874L172.567 37.9279C172.449 38.048 172.389 38.1682 172.389 38.2883C172.389 38.3483 172.33 38.4384 172.211 38.5586C170.549 40.0601 168.65 41.3213 166.513 42.3423C164.435 43.3033 162.18 43.7838 159.746 43.7838Z" fill="white"/>
<path d="M182.531 43.6937C181.047 43.6937 179.741 43.2733 178.613 42.4324C177.485 41.5916 176.921 40.1502 176.921 38.1081C176.921 37.3273 177.01 36.5465 177.188 35.7658C177.366 34.9249 177.574 34.1141 177.812 33.3333C177.93 32.5526 178.108 31.8619 178.346 31.2613C178.405 31.021 178.435 30.9009 178.435 30.9009C178.494 30.8408 178.643 30.7507 178.88 30.6306L179.592 29.5495V29.1892C179.533 29.1892 179.503 29.1892 179.503 29.1892C179.503 29.1291 179.503 29.0991 179.503 29.0991C179.503 28.9189 179.652 28.7087 179.948 28.4685C180.245 28.2282 180.394 28.1081 180.394 28.1081C180.453 27.8078 180.542 27.6577 180.661 27.6577C180.779 27.6577 180.928 27.5676 181.106 27.3874H182.085V27.2072C182.085 26.9069 181.937 26.7868 181.64 26.8468C181.403 26.8468 181.284 26.8168 181.284 26.7568C181.284 26.6967 181.373 26.5766 181.551 26.3964C181.789 26.1562 181.937 26.006 181.996 25.9459C182.174 25.7057 182.323 25.4955 182.441 25.3153C182.56 25.0751 182.738 24.8949 182.976 24.7748C184.044 23.4535 184.697 22.6126 184.935 22.2523C185.231 21.8919 185.528 21.6216 185.825 21.4414C185.944 21.4414 186.033 21.5015 186.092 21.6216C186.211 21.6817 186.211 21.7718 186.092 21.8919C186.211 22.0721 186.3 22.1021 186.359 21.982C186.478 21.8619 186.537 21.8018 186.537 21.8018L186.893 21.6216C186.775 21.5015 186.715 21.3514 186.715 21.1712C186.715 20.8709 186.775 20.6306 186.893 20.4504C187.012 20.2102 187.22 19.97 187.517 19.7297C187.873 19.4895 188.051 19.3393 188.051 19.2793C188.407 19.1592 188.674 19.039 188.852 18.9189C189.09 18.7988 189.327 18.7387 189.564 18.7387C189.98 18.7387 190.395 18.8889 190.811 19.1892C191.939 19.7898 192.889 20.3904 193.66 20.991C194.432 21.5916 194.818 22.4324 194.818 23.5135C194.818 24.6547 194.343 25.6456 193.393 26.4865C192.503 27.2673 191.405 27.9279 190.099 28.4685C188.793 29.009 187.487 29.4595 186.181 29.8198C184.935 30.1201 183.955 30.3604 183.243 30.5405C182.827 30.6006 182.62 30.7808 182.62 31.0811C182.679 31.3213 182.649 31.5916 182.531 31.8919L181.907 32.8829L181.373 34.1441L180.928 34.955C180.512 35.3153 180.364 35.5856 180.483 35.7658C180.601 35.9459 180.809 35.9159 181.106 35.6757C181.165 35.7357 181.195 35.8258 181.195 35.9459C181.195 36.1862 181.136 36.4865 181.017 36.8468C180.898 37.1471 180.809 37.3874 180.75 37.5676C180.69 37.8078 180.69 37.9279 180.75 37.9279C180.868 37.8679 180.928 37.988 180.928 38.2883L181.017 39.5495C181.373 40.6907 182.174 41.3513 183.421 41.5315C183.54 41.5315 183.658 41.5616 183.777 41.6216C183.955 41.6216 184.104 41.6216 184.222 41.6216C185.291 41.6216 185.855 41.5315 185.914 41.3513C186.033 41.1712 186.181 41.051 186.359 40.991C186.893 40.8709 187.339 40.7507 187.695 40.6306C188.11 40.5105 188.526 40.3303 188.941 40.0901C189.654 39.7898 190.336 39.3994 190.989 38.9189C191.642 38.4384 192.325 37.958 193.037 37.4775L193.927 36.8468C193.987 36.7267 193.987 36.6366 193.927 36.5766C193.868 36.5165 193.868 36.4565 193.927 36.3964C194.046 36.3363 194.135 36.3363 194.194 36.3964C194.313 36.3964 194.402 36.3664 194.462 36.3063C194.58 36.2462 194.699 36.1562 194.818 36.036C194.936 35.8559 195.055 35.7057 195.174 35.5856C195.293 35.4655 195.352 35.3453 195.352 35.2252C195.411 35.1051 195.5 34.985 195.619 34.8649C196.094 34.3844 196.569 33.8739 197.044 33.3333C197.578 32.7928 198.023 32.3123 198.379 31.8919C198.795 31.2913 199.121 30.991 199.359 30.991C199.477 30.991 199.537 31.051 199.537 31.1712C199.537 31.4715 199.329 31.9219 198.913 32.5225C197.904 34.024 196.747 35.4955 195.441 36.9369C194.135 38.3183 192.71 39.5796 191.167 40.7207C190.039 41.5015 188.704 42.1922 187.16 42.7928C185.617 43.3934 184.074 43.6937 182.531 43.6937ZM183.866 29.1892C184.756 29.1291 185.914 28.8889 187.339 28.4685C188.763 27.988 189.95 27.3574 190.9 26.5766C191.909 25.7357 192.414 24.8048 192.414 23.7838C192.414 22.8228 191.909 21.8919 190.9 20.991C190.069 21.5916 189.149 22.4625 188.14 23.6036C187.19 24.6847 186.329 25.7658 185.558 26.8468C184.786 27.8679 184.222 28.6486 183.866 29.1892Z" fill="white"/>
<path d="M213.22 43.7838C212.864 43.7838 212.686 43.5736 212.686 43.1531C212.686 42.8528 212.775 42.4925 212.953 42.0721C213.428 41.051 213.962 39.6096 214.556 37.7477C215.208 35.8859 216.01 34.2943 216.96 32.973C217.612 31.6516 218.206 30.3604 218.74 29.0991C219.334 27.7778 219.898 26.4565 220.432 25.1351C220.432 25.1351 220.373 25.1051 220.254 25.045C220.135 24.9249 220.076 24.8048 220.076 24.6847C219.779 24.4444 219.423 24.1141 219.007 23.6937C218.592 23.2132 218.562 22.7327 218.918 22.2523C219.037 22.1321 219.096 22.0721 219.096 22.0721C219.156 22.0721 219.185 22.0721 219.185 22.0721C219.185 22.012 219.156 21.982 219.096 21.982C219.096 21.982 219.096 21.952 219.096 21.8919L219.007 21.8018C218.948 21.8018 218.889 21.8018 218.829 21.8018C218.829 21.7417 218.8 21.7117 218.74 21.7117C218.503 21.7117 218.236 21.7718 217.939 21.8919C217.642 21.952 217.345 21.982 217.049 21.982C216.692 21.982 216.218 22.1321 215.624 22.4324C215.03 22.6727 214.496 22.8829 214.021 23.0631C213.784 23.1231 213.635 23.1532 213.576 23.1532C213.576 23.0931 213.457 23.1231 213.22 23.2432C213.161 23.3033 213.161 23.2132 213.22 22.973C213.339 22.6727 213.398 22.4625 213.398 22.3423C213.398 22.2823 213.368 22.2523 213.309 22.2523C213.19 22.2523 212.953 22.4324 212.597 22.7928C212.241 23.0931 212.003 23.2733 211.884 23.3333C211.825 23.3934 211.795 23.4835 211.795 23.6036C211.855 23.7237 211.884 23.8438 211.884 23.964C211.884 24.1441 211.736 24.3544 211.439 24.5946C211.142 24.7748 210.935 24.9249 210.816 25.045C210.579 25.2252 210.282 25.3453 209.926 25.4054C209.629 25.4054 209.332 25.5255 209.035 25.7658C208.679 26.006 208.501 26.1862 208.501 26.3063C208.56 26.4264 208.382 26.6366 207.967 26.9369C207.433 27.3574 206.691 27.988 205.741 28.8288C204.85 29.6697 204.168 30.4204 203.693 31.0811C202.565 32.4625 201.526 34.0541 200.577 35.8559C199.686 37.6577 199.241 39.0691 199.241 40.0901C199.241 40.8709 199.568 41.2613 200.22 41.2613C200.339 41.2613 200.458 41.2613 200.577 41.2613C200.695 41.2012 200.844 41.1411 201.022 41.0811L203.337 39.7297L203.871 39.6396V39.5495L204.227 39.8198C204.287 39.7598 204.257 39.6697 204.138 39.5495C204.079 39.3694 204.079 39.2793 204.138 39.2793C204.197 39.2793 204.227 39.3093 204.227 39.3694C204.287 39.3694 204.346 39.3694 204.405 39.3694L204.583 39.0991C204.583 39.0991 204.672 39.1291 204.85 39.1892C205.088 39.1892 205.266 39.1291 205.385 39.009C205.563 38.9489 205.592 38.8589 205.474 38.7387C205.414 38.6186 205.325 38.5285 205.207 38.4685L205.83 37.9279C205.889 37.8078 206.127 37.6877 206.542 37.5676C207.551 36.9069 208.382 36.1261 209.035 35.2252C209.747 34.2643 210.549 33.3934 211.439 32.6126H211.528L212.597 31.5315L212.508 31.2613L213.665 29.9099H213.843C213.903 29.7898 214.021 29.6396 214.199 29.4595C214.437 29.2793 214.585 29.1291 214.645 29.009C214.763 28.9489 215.03 28.6486 215.446 28.1081C215.921 27.5075 216.366 27.027 216.781 26.6667C217.256 26.3063 217.523 26.1261 217.583 26.1261C217.642 26.1261 217.672 26.1562 217.672 26.2162C217.672 26.3964 217.583 26.6667 217.405 27.027C217.286 27.3874 217.167 27.6276 217.049 27.7477C216.633 28.4084 216.099 29.1592 215.446 30C214.793 30.7808 214.407 31.2613 214.288 31.4414C213.576 32.2222 212.715 33.2733 211.706 34.5946C210.697 35.8559 209.599 37.1171 208.412 38.3784C207.225 39.6396 206.038 40.7207 204.85 41.6216C203.723 42.4625 202.654 42.8829 201.645 42.8829C200.695 42.8829 199.686 42.5826 198.618 41.982C197.549 41.3814 197.015 40.2402 197.015 38.5586C197.015 38.018 197.074 37.4174 197.193 36.7568C197.371 36.036 197.638 35.2853 197.995 34.5045C197.995 34.5045 198.054 34.4444 198.173 34.3243C198.291 34.1441 198.38 34.0841 198.44 34.1441C198.558 33.964 198.588 33.7838 198.529 33.6036C198.529 33.3634 198.529 33.2132 198.529 33.1531L198.707 32.973C198.826 32.3123 199.271 31.7117 200.042 31.1712C200.814 30.6306 201.23 30.2102 201.289 29.9099C201.348 29.8498 201.378 29.7598 201.378 29.6396L201.734 28.4685V28.1081H202.09L202.357 27.7477L202.446 27.5676C202.328 27.5075 202.357 27.4174 202.535 27.2973C202.773 27.1171 202.892 27.027 202.892 27.027C202.951 26.9069 203.01 26.8168 203.07 26.7568C203.188 26.6967 203.277 26.6366 203.337 26.5766H203.96C204.079 26.3964 204.019 26.3063 203.782 26.3063C203.545 26.3063 203.426 26.3063 203.426 26.3063C203.426 26.2462 203.426 26.2162 203.426 26.2162C203.485 26.1562 203.515 26.0961 203.515 26.036L204.494 25.2252C204.791 24.985 205.088 24.7748 205.385 24.5946C205.681 24.4144 205.949 24.2042 206.186 23.964C206.364 23.964 206.394 24.0541 206.275 24.2342C206.334 24.3544 206.394 24.3544 206.453 24.2342C206.572 24.1141 206.631 24.0541 206.631 24.0541L207.076 23.964V23.8739C207.076 23.7537 207.106 23.5736 207.165 23.3333C207.225 23.0931 207.254 22.9429 207.254 22.8829C208.501 21.9219 209.807 21.0811 211.172 20.3604C212.537 19.5796 213.873 19.1892 215.179 19.1892C216.722 19.1892 218.117 19.7898 219.364 20.991L219.809 21.2613C219.868 21.2613 219.898 21.2312 219.898 21.1712C220.016 20.3303 220.699 19.6997 221.946 19.2793C223.252 18.8589 224.409 18.6486 225.418 18.6486C226.487 18.6486 227.021 18.7988 227.021 19.0991C227.021 19.2192 226.843 19.4294 226.487 19.7297C226.308 19.8498 226.012 20.1201 225.596 20.5405C225.181 20.961 224.765 21.4715 224.35 22.0721C224.29 22.2523 224.201 22.4324 224.083 22.6126C223.964 22.7928 223.845 22.973 223.726 23.1532C223.667 23.2733 223.578 23.4234 223.459 23.6036C223.4 23.7237 223.311 23.8438 223.192 23.964C222.183 25.7057 221.382 27.1772 220.788 28.3784C220.195 29.5796 219.482 31.1111 218.651 32.973C218.533 33.3333 218.473 33.5435 218.473 33.6036C218.473 34.0841 218.74 34.3243 219.275 34.3243C219.631 34.3243 219.987 34.2342 220.343 34.0541L221.233 33.6937C222.658 32.3724 224.142 31.2613 225.685 30.3604C225.745 30.3604 225.774 30.3604 225.774 30.3604C225.834 30.3003 225.893 30.2703 225.952 30.2703C226.13 30.2703 226.249 30.3904 226.308 30.6306C226.368 30.8108 226.308 30.961 226.13 31.0811C224.409 32.042 222.806 33.2733 221.322 34.7748C221.263 34.8949 221.204 35.015 221.144 35.1351C221.085 35.2553 220.996 35.3754 220.877 35.4955C220.699 35.6156 220.521 35.8258 220.343 36.1261C220.165 36.4264 220.076 36.6066 220.076 36.6667C220.016 36.8468 219.927 36.9069 219.809 36.8468C219.749 36.7868 219.571 36.8769 219.275 37.1171C219.215 37.1772 219.156 37.2973 219.096 37.4775C219.096 37.6577 219.067 37.8078 219.007 37.9279C218.889 38.1081 218.77 38.2583 218.651 38.3784C218.533 38.4384 218.473 38.4985 218.473 38.5586C218.414 38.7988 218.295 38.9489 218.117 39.009C217.998 39.009 217.88 39.0691 217.761 39.1892C217.702 39.1892 217.672 39.2192 217.672 39.2793C217.672 39.8198 217.612 40.0601 217.494 40C217.375 39.9399 217.256 40 217.138 40.1802C217.019 40.4204 216.87 40.5405 216.692 40.5405C216.336 40.6607 216.188 40.7507 216.247 40.8108C216.366 40.8709 216.455 40.9309 216.514 40.991C216.633 40.991 216.544 41.0811 216.247 41.2613C216.129 41.3213 216.01 41.5015 215.891 41.8018C215.772 42.042 215.654 42.2222 215.535 42.3423C215.357 42.4625 215.179 42.5525 215.001 42.6126C214.823 42.6727 214.674 42.7928 214.556 42.973C214.021 43.5135 213.576 43.7838 213.22 43.7838Z" fill="white"/>
<path d="M225.28 43.7838C224.924 43.7838 224.746 43.5736 224.746 43.1531C224.746 42.8528 224.835 42.4925 225.013 42.0721C225.488 41.051 226.052 39.6096 226.705 37.7477C227.358 35.8859 228.159 34.2943 229.109 32.973L232.581 25.1351C232.581 25.1351 232.522 25.1051 232.403 25.045C232.285 24.9249 232.225 24.8048 232.225 24.6847C231.869 24.4444 231.483 24.1141 231.068 23.6937C230.712 23.2132 230.682 22.7327 230.979 22.2523C231.097 22.1321 231.187 22.0721 231.246 22.0721C231.305 22.0721 231.335 22.0721 231.335 22.0721V21.8919C231.335 21.6516 231.424 21.5015 231.602 21.4414C231.839 21.3814 231.988 21.2913 232.047 21.1712C232.166 20.3303 232.849 19.6997 234.095 19.2793C235.401 18.8589 236.558 18.6486 237.568 18.6486C238.577 18.6486 239.081 18.7988 239.081 19.0991C239.081 19.2793 238.903 19.4895 238.547 19.7297C238.428 19.8498 238.131 20.1201 237.657 20.5405C237.241 20.961 236.855 21.4715 236.499 22.0721L235.876 23.1532L235.253 23.964C234.303 25.7057 233.531 27.1772 232.938 28.3784C232.344 29.5796 231.632 31.1111 230.801 32.973C230.623 33.3333 230.534 33.6336 230.534 33.8739C230.534 34.1742 230.652 34.3243 230.89 34.3243C231.008 34.3243 231.127 34.2943 231.246 34.2342C231.424 34.1141 231.602 34.024 231.78 33.964C232.255 33.6637 232.641 33.3934 232.938 33.1531C233.294 32.8528 233.68 32.5526 234.095 32.2523C234.273 32.0721 234.422 32.0721 234.54 32.2523C234.659 32.3724 234.659 32.5526 234.54 32.7928C234.303 33.2733 234.125 33.5736 234.006 33.6937C233.947 33.7538 233.858 33.8138 233.739 33.8739C233.62 33.9339 233.353 34.2042 232.938 34.6847L232.581 35.4054C232.463 35.5255 232.314 35.7658 232.136 36.1261C232.018 36.4264 231.958 36.6066 231.958 36.6667C231.958 36.7868 231.899 36.8468 231.78 36.8468C231.661 36.7868 231.483 36.8769 231.246 37.1171C231.187 37.1772 231.157 37.2973 231.157 37.4775C231.216 37.6577 231.187 37.8078 231.068 37.9279C231.008 38.1081 230.919 38.2583 230.801 38.3784C230.682 38.4384 230.623 38.4985 230.623 38.5586C230.563 38.7988 230.445 38.9489 230.266 39.009C230.148 39.009 230.029 39.0691 229.91 39.1892C229.851 39.1892 229.821 39.2492 229.821 39.3694C229.821 39.8498 229.762 40.0601 229.643 40C229.524 39.9399 229.406 40 229.287 40.1802C229.168 40.4204 229.02 40.5405 228.842 40.5405C228.486 40.6607 228.337 40.7507 228.397 40.8108C228.456 40.8709 228.545 40.9309 228.664 40.991C228.783 40.991 228.693 41.0811 228.397 41.2613C228.219 41.3213 228.07 41.5015 227.952 41.8018C227.833 42.042 227.714 42.2222 227.595 42.3423C227.477 42.4625 227.328 42.5525 227.15 42.6126C226.972 42.6727 226.824 42.7928 226.705 42.973C226.171 43.5135 225.696 43.7838 225.28 43.7838ZM251.814 43.0631C251.576 43.0631 251.368 43.0631 251.19 43.0631C251.012 43.003 250.834 42.9429 250.656 42.8829C250.062 42.7628 249.528 42.5826 249.053 42.3423C248.638 42.1021 248.282 41.6516 247.985 40.991C247.926 40.6907 247.777 40.3003 247.54 39.8198C247.362 39.3393 247.243 38.8889 247.184 38.4685C247.124 38.1682 247.095 37.8078 247.095 37.3874C247.035 37.0871 247.006 36.6967 247.006 36.2162C246.887 35.6156 246.827 35.0751 246.827 34.5946C246.887 34.1141 246.916 33.5435 246.916 32.8829C246.916 32.2222 246.946 31.7417 247.006 31.4414C247.124 30.9009 247.184 30.6306 247.184 30.6306C247.184 30.5706 247.184 30.2703 247.184 29.7297C247.243 29.009 247.273 28.2583 247.273 27.4775C247.273 26.6967 247.302 26.0661 247.362 25.5856C247.54 23.7838 247.184 22.8829 246.293 22.8829C245.937 22.8829 245.462 23.033 244.869 23.3333C244.809 23.5135 244.691 23.6336 244.512 23.6937C244.394 23.6937 244.216 23.7537 243.978 23.8739L243.533 24.1441C243.533 24.2042 243.474 24.2342 243.355 24.2342C243.236 24.1742 243.177 24.2042 243.177 24.3243C243.236 24.5646 243.207 24.7147 243.088 24.7748C243.029 24.8348 242.939 24.8048 242.821 24.6847L241.841 25.4054C241.841 25.4655 241.752 25.5856 241.574 25.7658L241.485 25.8559C241.248 26.0961 241.04 26.2162 240.862 26.2162L240.595 26.4865C240.595 26.5465 240.535 26.6667 240.417 26.8468C240.357 26.967 240.209 26.997 239.972 26.9369L239.526 27.3874C239.289 27.7477 239.081 27.958 238.903 28.018C238.784 28.0781 238.636 28.1381 238.458 28.1982L237.746 29.0991L237.389 29.1892C237.389 29.4294 237.122 29.7898 236.588 30.2703C236.113 30.7507 235.787 31.0811 235.609 31.2613C235.431 31.4414 235.253 31.5315 235.075 31.5315C234.956 31.5315 234.896 31.4715 234.896 31.3513C234.896 31.2913 235.045 31.0511 235.342 30.6306C235.579 30.3904 235.935 29.9399 236.41 29.2793C236.944 28.6186 237.241 28.3183 237.3 28.3784C237.597 28.0781 237.805 27.7778 237.924 27.4775C238.042 27.1171 238.25 26.8168 238.547 26.5766C238.547 26.6366 238.547 26.6967 238.547 26.7568C238.606 26.7568 238.636 26.7568 238.636 26.7568C238.755 26.7568 238.903 26.6066 239.081 26.3063C239.259 25.9459 239.378 25.7958 239.437 25.8559L240.951 24.5045C240.951 24.4444 241.099 24.3243 241.396 24.1441C241.634 24.024 241.782 23.964 241.841 23.964C241.901 23.964 242.049 23.7838 242.287 23.4234L242.91 22.973C242.969 22.8528 243.029 22.8829 243.088 23.0631C243.207 23.1832 243.296 23.2132 243.355 23.1532L243.622 22.5225C243.741 22.3423 243.919 22.1922 244.156 22.0721C244.453 21.8919 244.75 21.7117 245.047 21.5315C245.759 20.8108 246.293 20.4504 246.649 20.4504H247.006C247.777 20.1501 248.489 20 249.142 20C250.092 20 250.834 20.3604 251.368 21.0811C251.487 21.2613 251.606 21.5916 251.725 22.0721C251.843 22.1321 251.873 22.2222 251.814 22.3423C251.814 22.4024 251.843 22.4925 251.903 22.6126C251.962 22.7327 252.081 22.8829 252.259 23.0631C252.437 23.1832 252.526 23.3333 252.526 23.5135V23.6937C252.526 23.9339 252.377 24.1441 252.081 24.3243C252.377 24.5646 252.496 24.7147 252.437 24.7748C252.437 24.7748 252.407 24.8649 252.348 25.045L252.17 26.3063C252.11 26.7267 252.021 27.0571 251.903 27.2973C251.784 27.4775 251.665 27.8078 251.546 28.2883C251.784 28.6486 251.784 28.8889 251.546 29.009H251.368L251.279 29.3694C251.279 29.4895 251.339 29.6096 251.457 29.7297L251.19 30.2703C251.25 30.2102 251.279 30.2102 251.279 30.2703C251.339 30.2703 251.368 30.2703 251.368 30.2703C251.309 30.3904 251.22 30.6306 251.101 30.991C250.983 31.2913 250.894 31.5315 250.834 31.7117C250.775 32.012 250.656 32.1622 250.478 32.1622C250.3 32.1622 250.241 32.3123 250.3 32.6126C250.359 32.6727 250.389 32.8829 250.389 33.2432C250.448 33.5435 250.419 33.6937 250.3 33.6937L250.122 34.7748V35.045C250.122 35.3453 250.062 35.6456 249.944 35.9459C249.884 36.2462 249.825 36.5465 249.766 36.8468C249.706 37.1471 249.647 37.4775 249.588 37.8378C249.588 38.1381 249.588 38.4384 249.588 38.7387C249.588 38.979 249.588 39.2492 249.588 39.5495C249.647 39.7898 249.706 40.03 249.766 40.2703C249.766 40.3303 249.855 40.5105 250.033 40.8108C250.211 41.1111 250.3 41.2913 250.3 41.3513L250.567 41.6216C250.686 41.6817 250.864 41.6817 251.101 41.6216C251.398 41.5616 251.606 41.5916 251.725 41.7117C252.259 41.7718 252.941 41.5015 253.772 40.9009C254.663 40.2402 255.464 39.5195 256.176 38.7387C256.354 38.5586 256.533 38.4685 256.711 38.4685C256.829 38.4685 256.918 38.5586 256.978 38.7387C257.037 38.9189 256.978 39.1592 256.8 39.4595C255.85 40.8408 254.96 41.8018 254.129 42.3423C253.298 42.8228 252.526 43.0631 251.814 43.0631Z" fill="white"/>
</svg>
