<svg width="132" height="120" viewBox="0 0 132 120" fill="none" xmlns="http://www.w3.org/2000/svg">
<g clip-path="url(#clip0_4407_35895)">
<path d="M10.611 48.4117C12.1746 46.4588 13.6962 44.3891 14.2174 41.9689C14.7386 39.5403 13.94 36.6778 11.7291 35.4844C8.55987 33.7736 3.87749 36.0853 1.30512 33.5733C4.50797 26.2542 11.8888 21.6391 19.1015 18.134C32.9301 11.3657 47.8347 6.79233 63.1092 4.60579C69.0442 3.72951 75.0548 3.25381 80.9813 4.20521C78.6191 5.03976 76.3326 6.15807 74.1637 7.46832C73.1633 8.0692 72.0369 9.13744 72.5245 10.214C72.7262 10.6897 73.2054 10.9735 73.6846 11.2489C81.9397 15.5886 91.8845 12.3588 101.056 10.7314C111.278 8.90376 121.895 9.17917 132 11.5243C125.83 11.7246 119.458 13.1183 114.607 16.9322C109.319 21.0716 106.428 27.5978 101.619 32.288C95.0537 38.7392 85.8403 41.1427 76.5259 42.6783C78.3585 43.371 80.0819 44.314 81.595 45.5992C80.6703 48.2114 76.6184 48.1947 74.996 50.4564C74.6261 50.9738 74.4243 51.5663 74.3655 52.1839C81.0822 50.9905 87.8998 50.3896 94.7259 50.4063C100.947 50.4063 107.663 51.124 112.413 55.1299C111.488 57.742 107.436 57.7253 105.814 59.987C104.688 61.5643 105.116 63.826 106.31 65.3448C107.504 66.8554 109.277 67.7818 111.034 68.608C113.556 69.7847 121.324 71.8794 116.339 73.9575C115.221 74.4081 114.01 74.7503 112.732 75.0257C113.237 75.2177 113.733 75.4096 114.229 75.6182C109.353 75.443 104.133 76.5529 99.7277 80.3585C94.9276 84.4812 91.6407 91.3246 87.1264 96.0816C79.258 104.427 69.0358 105.387 59.5869 106.455C48.4904 107.74 37.3687 109.802 26.2806 112.556C21.0014 113.866 14.5032 117.379 9.30804 117.446C3.7766 117.446 10.9725 110.603 13.175 107.74C14.705 105.737 16.2265 103.609 17.0168 101.022C17.807 98.4434 17.6304 95.3054 16.0836 93.8867C13.8643 91.8504 9.82924 94.0369 8.2068 91.1827C10.5606 86.2422 14.0997 82.6118 17.9751 79.7743C15.7306 79.7076 13.5113 79.3654 11.334 78.6393C6.3742 76.9953 5.36543 77.98 0.372005 74.116C-3.13348 71.8043 19.6816 64.4769 4.32303 63.4421C11.2667 61.4725 19.2949 60.3542 23.557 54.5457C23.7923 54.1868 24.0361 53.8363 24.0109 53.4357C24.0109 53.3022 23.9773 53.177 23.9268 53.0685C18.5299 54.8378 12.7042 57.2496 7.50906 57.6002C0.531719 58.0007 8.34972 51.1908 10.5942 48.4117" fill="#FF7DBC"/>
<path d="M77.3416 30.669C71.2889 35.0087 64.4797 38.2718 57.3006 40.2581C62.1511 35.4427 62.4286 28.1236 62.0671 21.5974C67.5985 23.5836 72.8525 26.4545 77.5013 30.0765C77.4593 30.2768 77.3836 30.4771 77.3416 30.669ZM53.2571 41.1344C47.8854 41.8104 42.312 39.7824 39.025 35.401C36.0155 31.4201 35.4607 26.0539 37.142 21.4388C38.7476 21.5974 40.3869 21.4388 41.9925 20.8797C42.7911 20.6043 43.1946 20.0034 43.3123 19.3691C44.237 19.6445 45.1534 19.8448 46.0781 19.8865C46.1201 19.97 46.1957 20.0451 46.2378 20.0868C47.1204 21.1217 48.1629 21.7977 49.2809 22.1565C50.2056 28.2071 51.5254 34.1742 53.2067 40.0244C53.3244 40.4584 53.5682 40.8172 53.8876 41.0593C53.8456 41.0593 53.7699 41.101 53.7279 41.101C53.6102 41.101 53.4085 41.101 53.2487 41.1427L53.2571 41.1344ZM34.0568 42.5698C31.7283 42.6866 29.3661 42.8869 27.0795 43.4044C26.4406 43.5212 21.9852 44.8732 20.7494 45.5158C20.9092 45.2404 21.0269 44.9566 21.0689 44.5644C21.7078 38.0382 23.1117 31.1948 27.2392 25.862C28.9205 23.7172 30.8876 22.0814 33.0481 20.9297C31.3248 26.4211 32.0477 32.6302 35.4943 37.3622C36.9739 39.3901 38.8653 41.101 40.9837 42.4112C38.6972 42.453 36.377 42.453 34.0484 42.5698H34.0568ZM99.9045 30.4771C94.4151 31.8708 88.7659 31.8291 83.3522 30.3936C83.3102 29.993 83.1084 29.6008 82.7133 29.2419C74.1724 21.7643 63.555 16.7486 52.2568 15.1129C50.937 14.9126 49.5751 14.754 48.2469 14.6372C48.0872 13.2017 48.2469 11.6912 48.4066 10.3392C48.7681 7.83554 44.8759 6.75896 44.5565 9.26263C44.3127 10.89 44.153 12.6843 44.237 14.4369C43.4721 14.4369 42.7575 14.4369 42.0345 14.4786C38.3861 11.6161 36.4611 5.4487 35.5448 1.42614C34.9816 -1.07753 31.0978 -0.00929745 31.6946 2.50272C32.737 6.91753 34.0232 11.6578 37.0243 15.1546C36.3854 15.3132 35.7045 15.4717 35.0572 15.672C34.536 15.8306 34.0568 16.0309 33.5356 16.2312C29.5678 13.6441 26.9618 7.99411 25.3226 4.01327C24.3642 1.66816 20.472 2.70301 21.4724 5.08984C23.3134 9.62983 25.2805 14.5203 29.0886 17.8252C26.0035 18.0255 22.8343 16.7903 20.472 14.8792C16.8657 11.9749 14.6968 7.76043 12.7381 3.65441C11.6537 1.34269 8.16502 3.379 9.29148 5.64065C11.6957 10.7315 14.6632 15.9057 19.5137 19.0937C21.4388 20.3289 23.5656 21.2051 25.7681 21.564C24.566 22.7991 23.4815 24.1929 22.5652 25.6617C19.0009 31.3116 17.7147 37.9964 17.0758 44.5644V44.9984C16.6387 45.4323 16.3949 46.0749 16.5967 46.826C17.2019 49.3714 19.8416 50.1309 22.1701 49.3714C23.4563 48.9375 24.6164 48.2197 25.8942 47.8192C27.1804 47.3852 28.5002 47.1014 29.862 46.9012C35.7129 46.0249 41.7235 46.7009 47.6164 46.1083C59.1164 44.9149 70.1373 40.7755 79.5189 34.049C79.7206 33.8904 79.9224 33.7318 80.0401 33.5315C86.8156 35.8433 94.0704 36.0769 101.039 34.3244C103.486 33.6484 102.443 29.8261 99.9129 30.4687L99.9045 30.4771Z" fill="#272425"/>
<path d="M53.2552 40.0578C51.5739 34.1658 50.2457 28.1987 49.3294 22.1899C48.2113 21.8311 47.1689 21.1551 46.2863 20.1202C46.2442 20.0368 46.1686 19.9617 46.1265 19.9199C45.1682 19.8365 44.2435 19.6779 43.3608 19.4025C43.2431 20.0368 42.8396 20.6376 42.041 20.913C40.4354 21.4722 38.7961 21.6308 37.1905 21.4722C35.5092 26.0873 36.0724 31.4201 39.0735 35.4343C42.3604 39.8074 47.9339 41.8437 53.3056 41.1677C53.5074 41.126 53.6671 41.126 53.8689 41.1677C53.9109 41.1677 53.9865 41.126 54.0286 41.126C53.6251 40.8506 53.3897 40.4918 53.2636 40.0494" fill="#98FF3C"/>
<path d="M35.5027 37.3956C32.0561 32.6636 31.3751 26.4545 33.0564 20.9631C30.896 22.1148 28.8868 23.7506 27.2476 25.8954C23.12 31.2282 21.7161 38.0298 21.0772 44.5978C21.0352 44.9566 20.9175 45.2738 20.7578 45.5492C22.002 44.9149 26.449 43.5629 27.0879 43.4378C29.3744 42.9621 31.7366 42.72 34.0652 42.6032C36.3938 42.4864 38.6719 42.4864 41.0005 42.4864C38.8737 41.1344 36.9906 39.4235 35.5111 37.3956" fill="white"/>
<path d="M57.3418 40.2581C64.5125 38.2718 71.2881 35.0087 77.3827 30.669C77.4248 30.4687 77.4668 30.2684 77.5425 30.0681C72.8937 26.4461 67.6817 23.5836 62.1082 21.589C62.4697 28.1153 62.1923 35.4343 57.3418 40.2497" fill="#98FF3C"/>
<path d="M83.3951 116.887V119.908H84.1685V116.829C84.1685 116.303 83.9835 115.886 83.6052 115.577C83.2269 115.268 82.6805 115.11 81.9659 115.11C81.4616 115.11 81.016 115.201 80.6377 115.393C80.2594 115.585 79.9736 115.852 79.7803 116.186V115.21H79.0069V119.9H79.7803V117.046C79.7803 116.77 79.8644 116.528 80.0409 116.311C80.2174 116.094 80.4528 115.919 80.7554 115.794C81.0581 115.669 81.4027 115.602 81.7894 115.602C82.3442 115.602 82.7478 115.71 83.0084 115.936C83.269 116.161 83.3951 116.47 83.3951 116.87M72.2649 116.053C72.391 115.986 72.5507 115.911 72.7525 115.836C72.9458 115.76 73.1728 115.694 73.4418 115.644C73.7108 115.585 74.0135 115.56 74.3497 115.56C74.686 115.56 74.955 115.594 75.182 115.652C75.4089 115.71 75.5939 115.794 75.7284 115.894C75.8629 115.994 75.9554 116.111 76.0226 116.236C76.0815 116.361 76.1151 116.495 76.1151 116.628V119.883H76.8885V116.562C76.8885 116.253 76.7876 115.986 76.5942 115.769C76.3925 115.552 76.1151 115.385 75.7452 115.268C75.3753 115.151 74.9382 115.093 74.417 115.093C73.8117 115.093 73.3073 115.16 72.8954 115.285C72.4835 115.41 72.1472 115.535 71.8866 115.66L72.2733 116.061L72.2649 116.053ZM72.2313 118.481C72.2313 118.239 72.307 118.047 72.4667 117.897C72.6264 117.747 72.845 117.638 73.1308 117.563C73.4166 117.488 73.7444 117.455 74.1396 117.455C74.5599 117.455 74.955 117.496 75.3417 117.571C75.72 117.647 76.0815 117.772 76.4177 117.93V117.596C76.3252 117.538 76.1823 117.463 75.9722 117.371C75.762 117.279 75.5014 117.204 75.1736 117.129C74.8541 117.054 74.4674 117.021 74.0219 117.021C73.2317 117.021 72.6012 117.154 72.1388 117.421C71.6765 117.688 71.4495 118.047 71.4495 118.506C71.4495 118.84 71.5588 119.115 71.7773 119.332C71.9959 119.549 72.2817 119.716 72.6432 119.825C73.0047 119.933 73.3746 119.992 73.7613 119.992C74.148 119.992 74.5515 119.933 74.9382 119.816C75.3249 119.7 75.6443 119.524 75.9049 119.282C76.1655 119.04 76.2916 118.74 76.2916 118.373L76.1151 117.922C76.1151 118.272 76.0142 118.565 75.8208 118.798C75.6191 119.032 75.3585 119.216 75.039 119.341C74.7196 119.466 74.3581 119.524 73.9714 119.524C73.652 119.524 73.3662 119.483 73.0972 119.407C72.8366 119.332 72.6264 119.216 72.4751 119.057C72.3238 118.898 72.2481 118.706 72.2481 118.473L72.2313 118.481ZM67.095 119.992C67.7759 119.992 68.3811 119.892 68.8855 119.7C69.3983 119.508 69.8439 119.207 70.2306 118.798L69.6085 118.523C69.2975 118.857 68.9528 119.099 68.5577 119.257C68.1626 119.416 67.7086 119.491 67.179 119.491C66.683 119.491 66.2459 119.407 65.876 119.249C65.5062 119.082 65.2203 118.857 65.0102 118.556C64.8084 118.256 64.7075 117.905 64.7075 117.505C64.7075 117.104 64.8084 116.77 65.0186 116.478C65.2288 116.186 65.5146 115.969 65.8928 115.802C66.2627 115.644 66.6999 115.56 67.2127 115.56C67.6498 115.56 68.0449 115.635 68.3896 115.777C68.7342 115.919 69.0116 116.119 69.2134 116.37C69.4151 116.62 69.516 116.904 69.516 117.229C69.516 117.288 69.5076 117.338 69.4824 117.396C69.4572 117.455 69.432 117.496 69.4151 117.538L69.743 117.221H64.4133V117.68H70.3231C70.3231 117.68 70.3399 117.605 70.3483 117.555C70.3483 117.505 70.3483 117.463 70.3483 117.421C70.3483 116.962 70.2138 116.562 69.9532 116.211C69.6926 115.861 69.3227 115.585 68.8519 115.393C68.3812 115.193 67.8347 115.101 67.2042 115.101C66.5738 115.101 65.9853 115.201 65.4893 115.41C64.9934 115.619 64.6067 115.902 64.3293 116.27C64.0518 116.637 63.9089 117.054 63.9089 117.538C63.9089 118.022 64.0434 118.439 64.3208 118.807C64.5898 119.174 64.9681 119.466 65.4473 119.675C65.9265 119.883 66.4729 119.992 67.0866 119.992H67.095ZM57.4612 117.546C57.4612 117.163 57.5789 116.829 57.8143 116.537C58.0496 116.244 58.3775 116.019 58.7894 115.852C59.2013 115.685 59.6637 115.602 60.1849 115.602C60.5548 115.602 60.891 115.635 61.2105 115.71C61.5299 115.785 61.8073 115.877 62.0343 115.994C62.2697 116.111 62.4378 116.236 62.5303 116.361V115.702C62.3201 115.535 62.0007 115.402 61.5719 115.276C61.1432 115.16 60.6725 115.101 60.1765 115.101C59.5124 115.101 58.9155 115.21 58.3943 115.418C57.8647 115.627 57.4528 115.919 57.1333 116.286C56.8223 116.653 56.6626 117.071 56.6626 117.555C56.6626 118.039 56.8223 118.448 57.1333 118.815C57.4444 119.182 57.8647 119.474 58.3943 119.683C58.9239 119.892 59.5124 120 60.1765 120C60.6725 120 61.1348 119.942 61.5719 119.825C62.0007 119.708 62.3201 119.566 62.5303 119.399V118.74C62.4294 118.865 62.2613 118.982 62.0343 119.099C61.7989 119.216 61.5215 119.316 61.2105 119.391C60.891 119.466 60.5464 119.499 60.1849 119.499C59.6721 119.499 59.2013 119.416 58.7894 119.249C58.3775 119.082 58.0496 118.857 57.8143 118.565C57.5789 118.272 57.4612 117.939 57.4612 117.555V117.546ZM45.1542 116.32C45.1542 116.845 45.2803 117.329 45.5409 117.772C45.8015 118.214 46.1629 118.606 46.6253 118.932C47.0961 119.266 47.6425 119.516 48.273 119.7C48.9034 119.883 49.5928 119.975 50.3325 119.975C51.0723 119.975 51.7616 119.883 52.3921 119.7C53.0226 119.516 53.569 119.257 54.0398 118.932C54.5021 118.606 54.872 118.214 55.1242 117.772C55.3848 117.329 55.5109 116.845 55.5109 116.32C55.5109 115.794 55.3848 115.31 55.1242 114.867C54.8636 114.425 54.5021 114.033 54.0398 113.707C53.5774 113.374 53.0226 113.123 52.3921 112.94C51.7616 112.756 51.0723 112.664 50.3325 112.664C49.5928 112.664 48.9034 112.756 48.273 112.94C47.6425 113.123 47.0961 113.382 46.6253 113.707C46.1629 114.041 45.7931 114.425 45.5409 114.867C45.2803 115.31 45.1542 115.794 45.1542 116.32ZM46.02 116.32C46.02 115.719 46.205 115.193 46.5749 114.726C46.9447 114.258 47.4575 113.891 48.1048 113.624C48.7521 113.357 49.5003 113.223 50.3325 113.223C51.1648 113.223 51.9045 113.357 52.5602 113.624C53.2075 113.891 53.7203 114.258 54.0902 114.726C54.4601 115.193 54.645 115.727 54.645 116.32C54.645 116.912 54.4601 117.438 54.0902 117.914C53.7203 118.381 53.2159 118.748 52.5602 119.024C51.9129 119.291 51.1648 119.424 50.3325 119.424C49.5003 119.424 48.7605 119.291 48.1048 119.024C47.4575 118.757 46.9447 118.389 46.5749 117.914C46.205 117.446 46.02 116.912 46.02 116.32ZM41.4469 117.588H44.4228V117.087H41.4469V117.588ZM35.5961 119.892C36.6048 119.892 37.4959 119.741 38.2693 119.441C39.0343 119.14 39.6395 118.723 40.0683 118.189C40.497 117.655 40.7156 117.029 40.7156 116.32C40.7156 115.61 40.497 114.984 40.0683 114.45C39.6395 113.916 39.0343 113.499 38.2693 113.198C37.5043 112.898 36.6132 112.748 35.5961 112.748H33.217V113.307H35.5961C36.2434 113.307 36.8318 113.382 37.3614 113.524C37.891 113.666 38.345 113.866 38.7233 114.133C39.1015 114.392 39.3873 114.709 39.5975 115.084C39.7993 115.452 39.9002 115.869 39.9002 116.32C39.9002 116.77 39.7993 117.188 39.5975 117.555C39.3958 117.922 39.1015 118.239 38.7233 118.506C38.345 118.765 37.891 118.974 37.3614 119.115C36.8318 119.257 36.2434 119.332 35.5961 119.332H33.217V119.892H35.5961ZM32.7715 112.756V119.892H33.5869V112.756H32.7715Z" fill="#272425"/>
<path d="M35.5703 74.1327C38.3361 74.1327 40.1771 73.4651 41.1018 72.1381C42.0265 70.8112 42.4804 68.9835 42.4804 66.6468C42.4804 64.31 42.0013 62.5908 41.0345 61.2054C40.0678 59.8201 38.252 59.1274 35.5703 59.1274C32.6869 59.1274 30.5349 59.2192 29.1058 59.3945V74.1327H35.5703ZM66.4808 74.3581C69.7761 74.3581 72.1551 73.7321 73.6179 72.4803C75.0722 71.2285 75.8035 69.2673 75.8035 66.6134C75.8035 63.9595 75.0722 62.0817 73.6179 60.8132C72.1635 59.5447 69.7845 58.9104 66.4808 58.9104C63.1771 58.9104 60.8485 59.5447 59.3942 60.8132C57.9399 62.0817 57.2085 64.0179 57.2085 66.6134C57.2085 69.2088 57.9399 71.1867 59.3942 72.4553C60.8485 73.7238 63.2107 74.3581 66.4808 74.3581ZM37.8064 94.0536C39.555 98.3432 43.8759 101.172 50.7692 102.549C49.6259 103.826 48.7432 105.095 48.1127 106.347C47.4823 107.598 46.7677 109.259 45.9607 111.337C43.3379 110.569 40.8075 109.243 38.3697 107.381C35.9318 105.512 33.9731 103.167 32.4852 100.355C31.0056 103.15 29.0385 105.487 26.5838 107.365C24.1292 109.243 21.6072 110.569 19.0097 111.337C18.211 109.268 17.4965 107.598 16.8576 106.347C16.2271 105.095 15.3444 103.826 14.2012 102.549C21.0692 101.222 25.3649 98.3933 27.0882 94.0536H15.8741V86.0669H27.9961L28.0298 82.9456H26.2392C23.5071 82.9456 20.7414 82.929 17.9504 82.9039C18.1858 77.0871 18.3035 71.6791 18.3035 66.6634C18.3035 61.6478 18.1858 56.2899 17.9504 50.7735C21.4896 50.4814 26.2392 50.3312 32.2162 50.3312C37.8064 50.3312 42.2198 50.9988 45.4563 52.3424C47.457 53.1687 49.0879 54.1952 50.3404 55.422C50.6767 55.0381 51.0382 54.6709 51.4165 54.312C54.6109 51.3577 59.6296 49.8889 66.464 49.8889C73.2984 49.8889 78.3591 51.366 81.5535 54.312C84.748 57.2663 86.3452 61.364 86.3452 66.6134C86.3452 71.8627 84.7564 76.0856 81.5788 79.0065C79.4099 81.0011 76.3668 82.3114 72.4662 82.9456L73.8364 86.6094L75.2235 82.9206L83.8569 83.6467L82.5119 86.7512H85.4625V92.2426H77.8127V93.4694H85.1683V99.4699H77.8127V100.772H85.9669V106.739H77.8127V110.82H69.5491V106.739H61.7564V100.772H69.5491V99.4699H62.1599V93.4694H69.5491V92.2426H62.0842L62.4877 92.3845L58.9234 97.4836L62.1599 97.951L59.0243 110.636L58.2257 110.453C54.779 109.777 52.2319 109.318 50.5758 109.076C51.282 107.39 51.8704 105.787 52.3412 104.269C52.8119 102.75 53.3331 100.955 53.888 98.8857L54.4344 96.8577L57.2757 97.2583C55.6701 96.4905 53.5601 95.7978 50.9373 95.197L54.8715 89.6638C55.6701 89.8558 56.5192 90.1062 57.4019 90.4233C58.2845 90.7404 59.142 91.0659 59.9658 91.3997L61.9329 92.1592V87.1018L59.8902 90.6403C57.0488 89.4802 54.0393 88.6373 50.8616 88.1116L54.468 82.3281C55.4179 82.5451 56.4856 82.8538 57.6877 83.2461C58.8898 83.6467 59.5959 83.8804 59.8145 83.9471C61.2184 84.4562 62.328 84.8151 63.1266 85.032L62.1431 86.7345H65.1274L63.7823 83.63L66.8591 83.3713H66.4556C59.6464 83.3713 54.6445 81.9025 51.4333 78.9732C50.9625 78.5392 50.5254 78.0885 50.1219 77.6045C48.8189 78.9481 47.1964 80.0497 45.2714 80.926C42.926 81.9859 40.1518 82.6285 36.949 82.8538L36.9154 86.0586H49.0795V94.0453H37.7896L37.8064 94.0536Z" fill="#272425"/>
</g>
<defs>
<clipPath id="clip0_4407_35895">
<rect width="132" height="120" fill="white"/>
</clipPath>
</defs>
</svg>
