<svg width="144" height="144" viewBox="0 0 144 144" fill="none" xmlns="http://www.w3.org/2000/svg">
<path d="M130.773 42.0915C130.046 42.4227 129.482 42.8769 129.083 43.4542C128.699 44.0372 128.482 44.6654 128.432 45.3389C128.393 46.0075 128.518 46.6589 128.806 47.293C129.047 47.8215 129.33 48.2606 129.654 48.6104C129.979 48.9602 130.332 49.2461 130.713 49.4682C131.1 49.7008 131.485 49.8762 131.87 49.9945L129.323 51.1538C128.757 50.8625 128.252 50.493 127.806 50.0451C127.365 49.6079 126.959 48.9823 126.589 48.1685C126.204 47.323 125.982 46.4732 125.924 45.6191C125.871 44.7756 125.98 43.9667 126.252 43.1925C126.528 42.4288 126.947 41.7406 127.508 41.1279C128.085 40.5209 128.8 40.023 129.654 39.6342C130.509 39.2453 131.349 39.0352 132.175 39.0038C133.016 38.9781 133.816 39.1119 134.573 39.4051C135.335 39.7089 136.017 40.1578 136.618 40.7517C137.225 41.3561 137.72 42.0811 138.105 42.9267C138.476 43.7405 138.681 44.4572 138.721 45.0769C138.766 45.7071 138.713 46.3311 138.562 46.9488L136.015 48.108C136.178 47.7401 136.299 47.3343 136.377 46.8904C136.46 46.4572 136.476 46.0033 136.425 45.5287C136.375 45.0541 136.229 44.5525 135.988 44.0241C135.7 43.3899 135.285 42.8706 134.744 42.4659C134.214 42.0565 133.603 41.8051 132.911 41.7117C132.224 41.6289 131.512 41.7555 130.773 42.0915Z" fill="black"/>
<path d="M135.632 54.4105C134.872 54.5718 134.232 54.874 133.71 55.3172C133.188 55.7603 132.817 56.2962 132.596 56.9249C132.374 57.5535 132.342 58.2369 132.5 58.9751C132.658 59.7132 132.966 60.3244 133.425 60.8086C133.884 61.2928 134.44 61.6256 135.095 61.807C135.753 61.9998 136.461 62.0155 137.221 61.8542C137.98 61.693 138.622 61.3964 139.146 60.9646C139.67 60.5328 140.043 60.0026 140.264 59.374C140.485 58.7453 140.516 58.0562 140.356 57.3068C140.198 56.5686 139.89 55.9575 139.431 55.4732C138.972 54.989 138.414 54.6505 137.757 54.4578C137.1 54.265 136.391 54.2492 135.632 54.4105ZM135.083 51.8385C135.99 51.6459 136.851 51.6291 137.667 51.7882C138.494 51.9448 139.246 52.2481 139.923 52.6979C140.6 53.1477 141.167 53.7218 141.624 54.42C142.095 55.1272 142.426 55.9294 142.618 56.8265C142.811 57.7349 142.837 58.6021 142.693 59.4279C142.561 60.2514 142.277 61.0059 141.843 61.6917C141.411 62.3888 140.848 62.9713 140.154 63.4392C139.474 63.916 138.68 64.2508 137.773 64.4434C136.878 64.6335 136.011 64.6515 135.172 64.4972C134.347 64.3519 133.59 64.0556 132.902 63.6081C132.217 63.1721 131.633 62.6017 131.151 61.8969C130.682 61.201 130.35 60.3932 130.153 59.4734C129.957 58.5536 129.93 57.6751 130.071 56.8379C130.226 56.0096 130.526 55.2514 130.972 54.5633C131.417 53.8751 131.987 53.2971 132.681 52.8292C133.387 52.3589 134.187 52.0286 135.083 51.8385Z" fill="black"/>
<path d="M137.239 68.3303L139.308 68.3299L139.316 72.3173C139.318 73.1066 139.163 73.809 138.851 74.4243C138.551 75.0512 138.117 75.5446 137.549 75.9045C136.994 76.2761 136.339 76.462 135.586 76.4621C134.844 76.4622 134.188 76.2766 133.62 75.9053C133.051 75.5455 132.609 75.0522 132.295 74.4255C131.981 73.8103 131.823 73.108 131.822 72.3187L131.814 68.3313L133.918 68.3309L133.925 71.8656C133.926 72.2835 133.984 72.6491 134.101 72.9625C134.229 73.2759 134.415 73.5138 134.659 73.6763C134.902 73.8504 135.21 73.9374 135.581 73.9373C135.963 73.9372 136.276 73.8501 136.519 73.676C136.762 73.5134 136.942 73.2754 137.057 72.962C137.184 72.6485 137.247 72.2829 137.246 71.865L137.239 68.3303ZM143.984 67.5107L144 75.5377L141.896 75.5381L141.885 70.0358L131.817 70.0377L131.812 67.5129L143.984 67.5107Z" fill="black"/>
<path d="M137.271 81.5765C136.485 81.4252 135.763 81.4693 135.103 81.7087C134.453 81.9617 133.913 82.3482 133.484 82.8681C133.066 83.3903 132.792 83.9934 132.661 84.6773C132.553 85.2473 132.53 85.7688 132.594 86.2419C132.657 86.715 132.781 87.1523 132.964 87.5539C133.145 87.9669 133.359 88.333 133.605 88.6522L130.855 88.1228C130.561 87.5581 130.361 86.9642 130.255 86.3412C130.147 85.7296 130.177 84.9849 130.344 84.1071C130.518 83.1952 130.827 82.3745 131.273 81.6449C131.716 80.9268 132.273 80.3307 132.941 79.8568C133.608 79.3942 134.347 79.0757 135.159 78.9012C135.981 78.7403 136.853 78.7486 137.775 78.9262C138.698 79.1037 139.505 79.4188 140.198 79.8712C140.901 80.3373 141.477 80.909 141.926 81.5864C142.373 82.2751 142.671 83.0356 142.82 83.8678C142.966 84.7113 142.953 85.589 142.779 86.501C142.612 87.3787 142.366 88.0817 142.042 88.6101C141.715 89.1498 141.311 89.6274 140.83 90.0431L138.08 89.5137C138.426 89.3085 138.759 89.0476 139.079 88.7311C139.397 88.4259 139.672 88.0653 139.905 87.6492C140.137 87.2332 140.308 86.7402 140.416 86.1702C140.547 85.4862 140.508 84.8229 140.299 84.1801C140.102 83.5396 139.748 82.981 139.237 82.5044C138.723 82.0393 138.068 81.73 137.271 81.5765Z" fill="black"/>
<path d="M138.787 92.697L140.881 93.5054L137.642 101.953L135.548 101.145L136.725 98.0743L127.455 94.4964L128.346 92.1732L137.616 95.7512L138.787 92.697Z" fill="black"/>
<path d="M130.064 103.533L131.036 104.111L130.035 105.802C129.852 106.112 129.742 106.411 129.706 106.699C129.67 106.988 129.711 107.249 129.83 107.481C129.942 107.724 130.128 107.922 130.388 108.076C130.787 108.314 131.173 108.355 131.548 108.2C131.917 108.056 132.241 107.749 132.518 107.28L133.201 106.128L126.14 101.926L125.324 103.303C125.111 103.662 124.969 104.016 124.898 104.365C124.836 104.719 124.873 105.045 125.007 105.341C125.136 105.647 125.38 105.907 125.739 106.12C125.999 106.275 126.248 106.355 126.486 106.362C126.729 106.385 126.963 106.343 127.189 106.234C127.42 106.142 127.627 105.996 127.813 105.796C128.009 105.602 128.187 105.37 128.346 105.101L129.481 103.185L130.648 103.88L129.398 105.99C129.096 106.499 128.755 106.95 128.374 107.344C127.986 107.747 127.563 108.062 127.105 108.289C126.657 108.522 126.187 108.633 125.694 108.623C125.195 108.623 124.686 108.469 124.167 108.16C123.479 107.75 123.013 107.251 122.769 106.66C122.52 106.08 122.464 105.433 122.603 104.72C122.743 104.007 123.043 103.261 123.503 102.483L125.702 98.7714L136.174 105.002L134.109 108.489C133.695 109.188 133.232 109.742 132.719 110.152C132.217 110.568 131.682 110.81 131.116 110.878C130.55 110.946 129.967 110.801 129.369 110.445C128.84 110.131 128.475 109.711 128.273 109.186C128.072 108.662 128.028 108.076 128.141 107.428C128.265 106.787 128.534 106.117 128.947 105.418L130.064 103.533Z" fill="black"/>
<path d="M118.815 109.373L120.405 110.755L116.387 115.395L114.797 114.013L118.815 109.373ZM126.426 115.986L128.016 117.368L123.998 122.008L122.408 120.626L126.426 115.986ZM122.916 112.937L124.48 114.296L120.69 118.673L119.126 117.313L122.916 112.937ZM129.064 116.159L127.493 117.973L118.291 109.978L119.862 108.164L129.064 116.159Z" fill="black"/>
<path d="M115.882 120.44L117.27 122.207L110.248 127.731L108.86 125.964L115.882 120.44ZM114.32 130.356L112.366 131.893L104.836 122.303L106.79 120.767L114.32 130.356ZM120.741 125.305L118.787 126.842L111.257 117.252L113.211 115.715L120.741 125.305Z" fill="black"/>
<path d="M104.311 128.794L105.281 130.821L97.223 134.678L96.2527 132.652L104.311 128.794ZM100.628 138.128L98.386 139.201L93.1208 128.202L95.3627 127.129L100.628 138.128ZM107.996 134.601L105.755 135.674L100.489 124.675L102.731 123.602L107.996 134.601Z" fill="black"/>
<path d="M90.532 135.354C90.3581 134.596 90.0455 133.958 89.5942 133.442C89.1429 132.926 88.6016 132.561 87.9701 132.348C87.3386 132.134 86.6557 132.112 85.9213 132.279C85.1869 132.447 84.5819 132.764 84.1061 133.229C83.6303 133.695 83.3074 134.257 83.1373 134.916C82.9559 135.576 82.9521 136.286 83.126 137.044C83.2998 137.802 83.6068 138.441 84.0467 138.96C84.4867 139.479 85.0225 139.845 85.6539 140.058C86.2854 140.271 86.974 140.293 87.7197 140.123C88.454 139.955 89.0591 139.638 89.5349 139.172C90.0107 138.706 90.3392 138.143 90.5207 137.482C90.7021 136.822 90.7058 136.112 90.532 135.354ZM93.091 134.77C93.2986 135.675 93.3299 136.538 93.1848 137.357C93.0423 138.187 92.7522 138.944 92.3144 139.628C91.8767 140.311 91.313 140.887 90.6235 141.354C89.9253 141.835 89.1299 142.177 88.2374 142.381C87.3335 142.587 86.468 142.624 85.641 142.491C84.8165 142.369 84.0583 142.096 83.3662 141.67C82.6628 141.247 82.0717 140.691 81.5928 140.002C81.1052 139.328 80.7576 138.537 80.5499 137.632C80.3449 136.738 80.3124 135.87 80.4523 135.028C80.5835 134.2 80.8666 133.439 81.3018 132.744C81.7257 132.052 82.2854 131.459 82.981 130.967C83.668 130.489 84.469 130.145 85.3841 129.936C86.2993 129.727 87.1761 129.688 88.0144 129.818C88.8441 129.963 89.6062 130.253 90.3009 130.69C90.9955 131.127 91.5823 131.69 92.0613 132.379C92.5428 133.079 92.886 133.876 93.091 134.77Z" fill="black"/>
<path d="M75.8533 131.677L75.9039 133.784L69.7675 133.921L69.7169 131.814L75.8533 131.677ZM76.0957 141.756L76.1463 143.863L70.0099 144L69.9593 141.894L76.0957 141.756ZM75.9839 137.109L76.0337 139.18L70.245 139.31L70.1952 137.238L75.9839 137.109ZM77.7456 143.827L75.3467 143.881L75.0536 131.695L77.4526 131.642L77.7456 143.827Z" fill="black"/>
<path d="M47.669 137.243L52.6823 138.931L55.831 129.507L58.2223 130.312L54.3621 141.865L44.5664 138.567L48.4265 127.015L50.8177 127.82L47.669 137.243Z" fill="black"/>
<path d="M40.2081 136.513L38.0413 135.288L44.0124 124.677L46.1792 125.902L40.2081 136.513ZM39.922 133.933L38.8898 135.768L36.7836 134.577C35.9452 134.102 35.3097 133.563 34.8774 132.959C34.4349 132.349 34.1993 131.703 34.1705 131.021C34.1417 130.338 34.3235 129.649 34.7158 128.951C35.1025 128.264 35.5975 127.751 36.2007 127.413C36.7982 127.085 37.4717 126.953 38.2212 127.017C38.9607 127.076 39.7496 127.342 40.5881 127.816L42.6943 129.007L41.6621 130.841L39.5559 129.65C38.9801 129.325 38.4516 129.199 37.9704 129.273C37.4892 129.347 37.1064 129.637 36.8221 130.142C36.532 130.658 36.4826 131.136 36.6738 131.577C36.8593 132.028 37.24 132.417 37.8158 132.742L39.922 133.933Z" fill="black"/>
<path d="M32.0186 124.281C32.5271 123.694 32.8559 123.066 33.0051 122.397C33.1543 121.728 33.1281 121.076 32.9263 120.44C32.7245 119.804 32.3388 119.239 31.7692 118.744C31.1996 118.249 30.5862 117.946 29.9291 117.836C29.2721 117.726 28.6279 117.796 27.9967 118.046C27.3567 118.288 26.7825 118.703 26.2741 119.29C25.7657 119.877 25.4325 120.501 25.2745 121.162C25.1165 121.824 25.1384 122.472 25.3402 123.108C25.5419 123.744 25.932 124.313 26.5104 124.816C27.08 125.311 27.6934 125.613 28.3504 125.724C29.0075 125.834 29.656 125.768 30.296 125.525C30.936 125.283 31.5102 124.868 32.0186 124.281ZM34.0036 126.006C33.3965 126.707 32.7199 127.24 31.9736 127.605C31.2198 127.979 30.4379 128.19 29.6279 128.238C28.8179 128.287 28.0207 128.17 27.2362 127.888C26.4354 127.607 25.6888 127.165 24.9965 126.564C24.2954 125.955 23.7537 125.277 23.3715 124.53C22.9816 123.792 22.7535 123.018 22.6872 122.208C22.612 121.39 22.7104 120.585 22.9822 119.793C23.2377 119.001 23.6689 118.255 24.276 117.554C24.8755 116.862 25.5559 116.324 26.3173 115.942C27.0624 115.56 27.8437 115.341 28.6613 115.283C29.4701 115.218 30.2788 115.322 31.0872 115.595C31.8792 115.868 32.6302 116.313 33.34 116.93C34.0499 117.547 34.6003 118.232 34.9913 118.987C35.366 119.742 35.5827 120.529 35.6415 121.348C35.7002 122.167 35.5937 122.973 35.3219 123.765C35.0425 124.567 34.6031 125.313 34.0036 126.006Z" fill="black"/>
<path d="M13.022 108.356L27.6764 111.347L25.0021 113.165L10.3478 110.175L13.022 108.356ZM15.9062 116.862L24.1713 110.909L27.6764 111.347L17.3097 118.813L15.9062 116.862ZM10.3478 110.175L20.7145 102.708L22.118 104.66L13.9092 110.572L10.3478 110.175Z" fill="black"/>
<path d="M12.3108 98.9464L11.2136 99.4306C10.9744 98.8888 10.7061 98.4677 10.4088 98.1673C10.1115 97.8669 9.80642 97.6778 9.49345 97.6001C9.1652 97.5165 8.85796 97.5378 8.57172 97.6641C8.29609 97.7858 8.08805 97.9601 7.9476 98.1871C7.79186 98.4081 7.71666 98.6825 7.72199 99.0102C7.72263 99.3272 7.80973 99.6823 7.98327 100.075C8.1615 100.479 8.37989 100.802 8.63843 101.043C8.88637 101.289 9.15918 101.448 9.45685 101.52C9.73923 101.585 10.0182 101.557 10.2939 101.436L11.2296 103.555C10.5935 103.836 9.96128 103.925 9.33292 103.821C8.68926 103.712 8.0883 103.412 7.53003 102.922C6.97176 102.432 6.50267 101.757 6.12275 100.896C5.73346 100.015 5.5453 99.2154 5.55827 98.4988C5.56656 97.7716 5.72827 97.1481 6.04342 96.6282C6.35856 96.1084 6.79707 95.7245 7.35893 95.4766C7.81479 95.2754 8.27687 95.2175 8.74519 95.3028C9.20291 95.3928 9.64749 95.5964 10.0789 95.9138C10.5104 96.2311 10.9163 96.6486 11.2968 97.1661C11.6773 97.6837 12.0153 98.2771 12.3108 98.9464ZM17.6534 95.7702C18.0005 96.5564 18.2076 97.2837 18.2748 97.9522C18.3372 98.6101 18.2886 99.2028 18.1288 99.7303C17.9537 100.252 17.6963 100.702 17.3567 101.08C17.0065 101.463 16.5928 101.76 16.1158 101.97L15.1168 99.7075C15.4678 99.5272 15.7283 99.2853 15.8983 98.9818C16.0684 98.6783 16.1496 98.3315 16.142 97.9413C16.1191 97.5452 16.0068 97.1188 15.8052 96.6619C15.5003 95.9714 15.1333 95.4987 14.7041 95.2438C14.2643 94.9936 13.7846 94.9831 13.2652 95.2123C12.9153 95.3667 12.6601 95.6062 12.4995 95.931C12.3236 96.2498 12.2582 96.6467 12.3033 97.1219C12.3484 97.597 12.5046 98.1374 12.7719 98.7429L11.5634 99.2762C11.1366 98.3095 10.868 97.3998 10.7576 96.5473C10.6319 95.6888 10.7062 94.9389 10.9803 94.2975C11.2392 93.6501 11.745 93.1604 12.4976 92.8282C13.1337 92.5476 13.7683 92.4643 14.4013 92.5784C15.0344 92.6926 15.6341 93.0182 16.2006 93.5553C16.7517 94.0864 17.236 94.8247 17.6534 95.7702Z" fill="black"/>
<path d="M8.54203 89.4007L7.44141 89.6563L6.99432 87.7396C6.91255 87.389 6.7849 87.0968 6.61135 86.8629C6.43779 86.6291 6.22795 86.4692 5.98182 86.3833C5.73305 86.2861 5.46192 86.2715 5.16842 86.3397C4.71689 86.4446 4.40952 86.6828 4.24632 87.0545C4.08048 87.4149 4.05955 87.8608 4.18352 88.3923L4.48817 89.6984L12.4803 87.8425L12.1163 86.2819C12.0214 85.8748 11.8792 85.5204 11.6898 85.2187C11.4892 84.9196 11.2379 84.7097 10.9361 84.5891C10.6316 84.4571 10.2762 84.4383 9.86981 84.5327C9.57631 84.6009 9.34115 84.7151 9.16434 84.8754C8.9736 85.0269 8.83424 85.2202 8.74625 85.4552C8.64435 85.6815 8.59551 85.9313 8.59973 86.2045C8.59267 86.4803 8.62474 86.7709 8.69596 87.0762L9.2024 89.2474L7.88166 89.5541L7.32379 87.1624C7.18927 86.5857 7.12342 86.0228 7.12626 85.4738C7.12646 84.9135 7.21322 84.3926 7.38655 83.9113C7.54859 83.4326 7.81075 83.026 8.17302 82.6916C8.53267 82.3458 9.00598 82.1048 9.59298 81.9685C10.3719 81.7876 11.0532 81.8261 11.6369 82.0839C12.218 82.3304 12.7049 82.7598 13.0976 83.3719C13.4903 83.984 13.7895 84.7311 13.9952 85.6132L14.9764 89.8199L3.12364 92.5723L2.20177 88.62C2.01713 87.8285 1.96779 87.1068 2.05376 86.455C2.12845 85.8059 2.34634 85.2606 2.70746 84.8191C3.06858 84.3776 3.58779 84.0782 4.26509 83.9209C4.86337 83.782 5.41656 83.8324 5.92465 84.072C6.43274 84.3116 6.86957 84.7049 7.23513 85.2518C7.58941 85.8013 7.85887 86.4719 8.04351 87.2635L8.54203 89.4007Z" fill="black"/>
<path d="M6.40749 77.2634C7.18402 77.2489 7.87032 77.0736 8.46638 76.7374C9.06245 76.4012 9.52855 75.9455 9.86467 75.3703C10.2008 74.7951 10.3612 74.1303 10.3458 73.3759C10.3305 72.6215 10.1431 71.9632 9.78385 71.401C9.42457 70.8388 8.9404 70.4066 8.33134 70.1045C7.72204 69.7908 7.02913 69.6411 6.25259 69.6556C5.47606 69.6701 4.78964 69.8396 4.19334 70.1642C3.59704 70.4889 3.13083 70.9388 2.7947 71.5139C2.45858 72.0891 2.29831 72.7597 2.31391 73.5257C2.32927 74.2801 2.51659 74.9384 2.87587 75.5006C3.23515 76.0629 3.71944 76.5008 4.32874 76.8146C4.93804 77.1283 5.63095 77.2779 6.40749 77.2634ZM6.46101 79.8922C5.5338 79.9095 4.68442 79.7628 3.91286 79.4521C3.12971 79.1416 2.44827 78.7015 1.86855 78.1318C1.28882 77.5621 0.840371 76.8912 0.523198 76.1192C0.194198 75.3359 0.0203636 74.4857 0.00169624 73.5688C-0.0172074 72.6404 0.121891 71.7844 0.418991 71.0009C0.704501 70.2177 1.1253 69.5306 1.6814 68.9398C2.23726 68.3372 2.90027 67.8721 3.67042 67.5442C4.42875 67.205 5.27151 67.0267 6.19872 67.0094C7.11433 66.9923 7.96951 67.1389 8.76425 67.4492C9.54716 67.7481 10.2343 68.1823 10.8256 68.7518C11.4167 69.3097 11.8825 69.9802 12.2231 70.7634C12.5519 71.5351 12.7258 72.3911 12.745 73.3312C12.7641 74.2713 12.6252 75.1388 12.3284 75.9339C12.0197 76.7176 11.5815 77.4049 11.0138 77.9961C10.4461 78.5872 9.7772 79.0467 9.00704 79.3745C8.2253 79.7026 7.37662 79.8751 6.46101 79.8922Z" fill="black"/>
<path d="M5.8294 57.5928L12.612 61.9753L12.0009 64.7456L1.24488 56.5711L14.4303 53.7322L13.8192 56.5025L5.8294 57.5928ZM14.6472 55.1714L12.8027 63.5334L14.6704 63.9497L14.1493 66.3122L10.1591 65.4229L13.0459 52.3359L17.0361 53.2252L16.515 55.5877L14.6472 55.1714Z" fill="black"/>
<path d="M11.3081 46.4981C12.032 46.84 12.7432 46.9772 13.4416 46.9095C14.1344 46.8263 14.7535 46.5865 15.2987 46.1899C15.8335 45.7884 16.2488 45.2727 16.5446 44.6429C16.7912 44.118 16.9424 43.6187 16.9983 43.1449C17.0542 42.6711 17.0432 42.2169 16.9653 41.7825C16.8922 41.3376 16.7761 40.93 16.6167 40.5597L19.1504 41.7566C19.2951 42.3764 19.3413 43.0011 19.2892 43.6306C19.242 44.2497 19.0285 44.9633 18.6489 45.7716C18.2544 46.6113 17.7506 47.3289 17.1376 47.9244C16.5295 48.5093 15.8427 48.948 15.0772 49.2405C14.3165 49.5225 13.521 49.6469 12.6905 49.6137C11.8544 49.5651 11.0115 49.34 10.1617 48.9386C9.31185 48.5372 8.6073 48.0312 8.04799 47.4207C7.48313 46.7947 7.06693 46.0978 6.79939 45.3301C6.53679 44.552 6.43675 43.7415 6.49927 42.8989C6.56673 42.0457 6.79769 41.1993 7.19216 40.3595C7.57184 39.5513 7.98463 38.9318 8.43051 38.5011C8.88132 38.0599 9.3911 37.6979 9.95984 37.415L12.4935 38.6119C12.1073 38.7245 11.7199 38.8942 11.3313 39.1211C10.9477 39.3375 10.5915 39.6181 10.2628 39.9631C9.9341 40.308 9.64648 40.7429 9.39994 41.2678C9.10408 41.8976 8.9773 42.5496 9.01958 43.2237C9.05137 43.8928 9.25591 44.5218 9.63319 45.1104C10.0154 45.6886 10.5737 46.1511 11.3081 46.4981Z" fill="black"/>
<path d="M12.5306 35.4166L10.7002 34.115L15.9271 26.7359L17.7575 28.0376L15.8577 30.7196L23.9597 36.4811L22.5223 38.5104L14.4203 32.7488L12.5306 35.4166Z" fill="black"/>
<path d="M23.5376 27.1933L22.7385 26.3915L24.128 25.0028C24.3821 24.7488 24.5625 24.4865 24.669 24.2158C24.7756 23.9451 24.8002 23.6825 24.7429 23.428C24.6937 23.1652 24.5626 22.9269 24.3495 22.7131C24.0216 22.3842 23.6568 22.2481 23.2552 22.3048C22.8617 22.3533 22.4723 22.5701 22.087 22.9552L21.1402 23.9015L26.9433 29.7236L28.0746 28.5929C28.3697 28.298 28.5952 27.9906 28.7509 27.6708C28.8985 27.3427 28.9436 27.0186 28.8863 26.6983C28.8371 26.3699 28.665 26.0577 28.3699 25.7617C28.1568 25.5478 27.9355 25.4079 27.706 25.3418C27.4765 25.2593 27.2388 25.2425 26.9928 25.2913C26.7469 25.3236 26.5092 25.4135 26.2797 25.5608C26.0419 25.6999 25.8124 25.8801 25.5911 26.1013L24.0171 27.6744L23.0581 26.7122L24.7919 24.9794C25.21 24.5616 25.6527 24.2094 26.1199 23.923C26.5954 23.6284 27.0831 23.4282 27.5832 23.3224C28.075 23.2084 28.5586 23.2175 29.0341 23.3497C29.5177 23.4737 29.9726 23.7495 30.3988 24.1771C30.9644 24.7445 31.2922 25.3443 31.3823 25.9765C31.4806 26.6005 31.374 27.2405 31.0625 27.8966C30.751 28.5527 30.2755 29.2003 29.6361 29.8393L26.5865 32.8872L17.9802 24.2528L20.8453 21.3893C21.4191 20.8158 22.0053 20.3941 22.6037 20.1243C23.1939 19.8463 23.7718 19.7448 24.3374 19.8197C24.903 19.8946 25.4317 20.1788 25.9235 20.6722C26.3579 21.108 26.6078 21.6051 26.6734 22.1633C26.7389 22.7216 26.6364 23.3001 26.3659 23.8988C26.0871 24.4893 25.6608 25.0713 25.087 25.6448L23.5376 27.1933Z" fill="black"/>
<path d="M32.5604 19.0611C32.9851 19.713 33.4981 20.2034 34.0994 20.5321C34.7008 20.8609 35.3344 21.0161 36.0001 20.9979C36.6659 20.9796 37.3142 20.7648 37.9451 20.3534C38.576 19.9419 39.0342 19.4352 39.3196 18.8331C39.6051 18.231 39.7141 17.5915 39.6465 16.9146C39.5887 16.2314 39.3475 15.5638 38.9228 14.9119C38.4981 14.2599 37.9899 13.7664 37.3983 13.4314C36.8066 13.0963 36.1779 12.9379 35.5121 12.9561C34.8464 12.9744 34.1932 13.1924 33.5526 13.6101C32.9217 14.0216 32.4635 14.5283 32.1781 15.1304C31.8926 15.7325 31.7788 16.3751 31.8366 17.0584C31.8945 17.7416 32.1357 18.4092 32.5604 19.0611ZM30.3619 20.4948C29.8549 19.7164 29.5281 18.9174 29.3815 18.098C29.2286 17.2688 29.2395 16.4576 29.4142 15.6643C29.589 14.871 29.9191 14.1358 30.4046 13.4587C30.8935 12.7656 31.5213 12.169 32.2881 11.6689C33.0646 11.1625 33.8636 10.8286 34.685 10.6673C35.5001 10.4962 36.3056 10.4907 37.1015 10.651C37.9071 10.805 38.6533 11.1225 39.34 11.6036C40.0301 12.0685 40.6287 12.6902 41.1358 13.4687C41.6365 14.2374 41.9665 15.0412 42.1257 15.8801C42.2884 16.7029 42.2855 17.5159 42.1171 18.3189C41.9584 19.1156 41.6378 19.8654 41.1552 20.5682C40.6761 21.2551 40.0434 21.8548 39.2572 22.3676C38.471 22.8803 37.6623 23.2205 36.8311 23.3882C36.0033 23.5398 35.1883 23.5306 34.3861 23.3606C33.5839 23.1906 32.8394 22.8651 32.1527 22.384C31.4596 21.8933 30.8627 21.2635 30.3619 20.4948Z" fill="black"/>
<path d="M55.7814 7.9459L55.545 6.83872L57.4665 6.43067C57.8179 6.35604 58.1119 6.23426 58.3484 6.06533C58.5849 5.8964 58.7481 5.68962 58.8381 5.44497C58.9394 5.19791 58.9585 4.92676 58.8955 4.63151C58.7985 4.17728 58.5659 3.86463 58.1976 3.69357C57.8406 3.5201 57.3957 3.48993 56.8629 3.60308L55.5536 3.88113L57.2698 11.921L58.8342 11.5888C59.2423 11.5021 59.5986 11.3671 59.9031 11.1837C60.2052 10.989 60.4191 10.7418 60.5447 10.4421C60.6816 10.14 60.7065 9.78454 60.6192 9.37573C60.5562 9.08048 60.4462 8.84269 60.2892 8.66236C60.1411 8.46826 59.9505 8.32475 59.7174 8.23181C59.4931 8.12511 59.2446 8.07106 58.9717 8.06965C58.6965 8.05689 58.4058 8.083 58.0997 8.148L55.9232 8.61022L55.6395 7.28159L58.0371 6.77243C58.6153 6.64966 59.1784 6.59536 59.7266 6.60953C60.286 6.6213 60.8046 6.71891 61.2822 6.90238C61.7574 7.07449 62.1588 7.34535 62.4866 7.71496C62.8257 8.08216 63.0583 8.56101 63.1843 9.15151C63.3516 9.93506 63.3015 10.6164 63.034 11.1955C62.7779 11.7722 62.3409 12.2508 61.723 12.6313C61.1051 13.0118 60.354 13.2959 59.4698 13.4837L55.2527 14.3792L52.7074 2.45567L56.6694 1.6143C57.463 1.44578 58.1844 1.41129 58.8337 1.51081C59.4805 1.59898 60.0213 1.82839 60.4559 2.19905C60.8905 2.5697 61.1806 3.0957 61.326 3.77705C61.4545 4.3789 61.3948 4.9317 61.1468 5.43544C60.8988 5.93918 60.4987 6.36841 59.9463 6.72311C59.3916 7.06646 58.7174 7.32239 57.9239 7.49091L55.7814 7.9459Z" fill="black"/>
<path d="M76.5275 0L78.9965 0.3L77.5512 12.3998L75.0822 12.0998L76.5275 0ZM77.7798 2.27405L78.0296 0.182518L80.4295 0.474123C81.3849 0.590206 82.1778 0.844374 82.8082 1.23663C83.4502 1.63028 83.9152 2.13688 84.2032 2.75641C84.4912 3.37595 84.5877 4.08328 84.4927 4.8784C84.3991 5.66201 84.1388 6.32599 83.7118 6.87033C83.2861 7.40316 82.7152 7.78387 81.9989 8.01249C81.2941 8.24251 80.4641 8.29948 79.5087 8.1834L77.1088 7.89179L77.3586 5.80026L79.7585 6.09187C80.4146 6.17159 80.9505 6.08472 81.3661 5.83126C81.7817 5.5778 82.024 5.16298 82.0928 4.5868C82.163 3.9991 82.0254 3.53813 81.6799 3.20388C81.3359 2.85812 80.8358 2.64537 80.1797 2.56565L77.7798 2.27405Z" fill="black"/>
<path d="M93.8969 3.39095L96.2852 4.20454L92.3832 15.7429L89.9949 14.9293L93.8969 3.39095ZM97.3978 11.0174C97.5873 10.4569 97.6024 9.95963 97.4431 9.52545C97.2875 9.08029 96.9887 8.69662 96.5466 8.37445C96.1045 8.05228 95.5485 7.7771 94.8787 7.54892L93.001 6.90927C92.3312 6.68109 91.7232 6.55976 91.177 6.54527C90.6309 6.53079 90.1611 6.65262 89.7676 6.91074C89.3779 7.15789 89.0883 7.56167 88.8988 8.12211C88.713 8.67155 88.6979 9.16886 88.8534 9.61402C89.009 10.0592 89.3079 10.4428 89.75 10.765C90.1921 11.0872 90.7481 11.3624 91.4179 11.5906L93.2956 12.2302C93.9654 12.4584 94.5734 12.5797 95.1195 12.5942C95.6657 12.6087 96.1355 12.4869 96.5289 12.2287C96.9223 11.9706 97.212 11.5668 97.3978 11.0174ZM99.7861 11.831C99.4739 12.754 98.9684 13.4703 98.2696 13.9798C97.5854 14.482 96.7757 14.776 95.8405 14.8619C94.92 14.9404 93.9546 14.8077 92.9444 14.4635L90.342 13.577C89.3318 13.2328 88.4799 12.7466 87.7862 12.1181C87.1072 11.4824 86.6432 10.7545 86.394 9.93427C86.1595 9.10684 86.1983 8.23159 86.5105 7.30852C86.8264 6.37446 87.3264 5.65631 88.0106 5.15408C88.7057 4.6556 89.5135 4.36706 90.434 4.28849C91.3692 4.20266 92.3419 4.33181 93.3522 4.67595L95.9546 5.56249C96.9648 5.90663 97.8094 6.39655 98.4883 7.03225C99.182 7.6607 99.6479 8.38315 99.8861 9.1996C100.135 10.0198 100.102 10.8969 99.7861 11.831Z" fill="black"/>
<path d="M115.479 20.5146C115.741 20.2196 116.06 20.061 116.436 20.0389C116.829 20.0158 117.177 20.1392 117.481 20.4092C117.793 20.6868 117.957 21.0184 117.972 21.404C117.995 21.781 117.875 22.1169 117.614 22.4119C117.368 22.6895 117.053 22.8437 116.669 22.8745C116.285 22.9053 115.937 22.7819 115.624 22.5043C115.321 22.2343 115.157 21.9027 115.133 21.5094C115.118 21.1238 115.233 20.7922 115.479 20.5146Z" fill="black"/>
</svg>
