<svg width="32" height="32" viewBox="0 0 32 32" fill="none" xmlns="http://www.w3.org/2000/svg">
<path d="M16.001 12V17.3333M16.001 22.6667H16.0143M14.1547 5.18897L3.18822 24.1311C2.57995 25.1818 2.27581 25.7071 2.32076 26.1383C2.35997 26.5143 2.55699 26.8561 2.8628 27.0784C3.21341 27.3333 3.82043 27.3333 5.03446 27.3333H26.9675C28.1815 27.3333 28.7885 27.3333 29.1391 27.0784C29.445 26.8561 29.642 26.5143 29.6812 26.1383C29.7261 25.7071 29.422 25.1818 28.8137 24.1311L17.8472 5.18896C17.2411 4.14208 16.9381 3.61864 16.5427 3.44283C16.1978 3.28948 15.8041 3.28948 15.4592 3.44283C15.0639 3.61864 14.7608 4.14208 14.1547 5.18897Z" stroke="#F4D400" stroke-width="2" stroke-linecap="round" stroke-linejoin="round"/>
</svg>
