<svg width="101" height="22" viewBox="0 0 101 22" fill="none" xmlns="http://www.w3.org/2000/svg">
<g clip-path="url(#clip0_6056_13145)">
<path d="M11.763 16.7592C14.3751 16.4282 16.484 14.3261 16.8164 11.7229C17.3033 7.90401 14.0661 4.67748 10.2341 5.16293C7.62205 5.49376 5.51292 7.5958 5.18097 10.1991C4.69367 14.0181 7.93129 17.2447 11.763 16.7592ZM12.1208 0.0549866C17.2681 0.563062 21.4316 4.71255 21.9413 9.84291C22.6302 16.7752 16.8324 22.5535 9.87632 21.8669C4.72907 21.3589 0.565582 17.2096 0.0560008 12.0794C-0.633298 5.14695 5.16473 -0.631372 12.1208 0.0549866ZM27.8429 0.48876H43.9433C44.5545 0.48876 44.9019 1.18612 44.5327 1.67136L33.3943 16.3169H42.1214C43.712 16.3169 44.9646 17.7594 44.6343 19.4032C44.3921 20.6084 43.2582 21.4317 42.0247 21.4317H24.5397C23.9341 21.4317 23.5898 20.741 23.9555 20.2601L35.1024 5.60355H27.9395C26.7061 5.60355 25.5721 4.78042 25.33 3.57499C24.9997 1.93121 26.2523 0.48876 27.8429 0.48876ZM97.7126 0.547081C99.3734 0.198609 100.836 1.45199 100.836 3.04595V20.6941C100.836 21.3099 100.123 21.6534 99.6387 21.2707L85.7498 10.2893V18.8789C85.7498 20.4729 84.2869 21.726 82.6261 21.3778C81.4349 21.1281 80.6178 20.0233 80.6178 18.8108V1.22638C80.6178 0.61059 81.3312 0.266892 81.8152 0.649609L95.7045 11.6313L95.7043 3.11402C95.7043 1.90133 96.522 0.79676 97.7126 0.547081ZM61.5498 -0.000428473C70.0526 -0.000428473 76.946 4.90599 76.946 10.9581C76.946 17.0101 70.0528 21.9166 61.5498 21.9166C53.0466 21.9166 46.1534 17.0101 46.1534 10.9581C46.1534 4.90599 53.0464 -0.000428473 61.5498 -0.000428473ZM61.5498 5.11436C55.6751 5.11436 51.2857 8.19955 51.2857 10.9581C51.2857 13.7166 55.6751 16.8018 61.5498 16.8018C67.4243 16.8018 71.8137 13.7166 71.8137 10.9581C71.8137 8.19976 67.4243 5.11436 61.5498 5.11436Z" fill="#005CFD"/>
</g>
<defs>
<clipPath id="clip0_6056_13145">
<rect width="101" height="22" fill="white"/>
</clipPath>
</defs>
</svg>
