<svg width="28" height="30" viewBox="0 0 28 30" fill="none" xmlns="http://www.w3.org/2000/svg">
<path d="M24.3333 8.7037L13 15M13 15L1.66662 8.7037M13 15L13 27.6667M15.6667 26.8519L14.036 27.7578C13.6579 27.9679 13.4688 28.0729 13.2686 28.1141C13.0914 28.1505 12.9086 28.1505 12.7314 28.1141C12.5312 28.0729 12.3421 27.9679 11.964 27.7578L2.0973 22.2763C1.69794 22.0544 1.49824 21.9435 1.35284 21.7857C1.22421 21.6461 1.12686 21.4807 1.06731 21.3005C1 21.0967 1 20.8683 1 20.4114V9.58863C1 9.13177 1 8.90334 1.06731 8.69961C1.12686 8.51938 1.22421 8.35393 1.35284 8.21435C1.49825 8.05656 1.69793 7.94563 2.09729 7.72376L11.964 2.24228C12.3421 2.0322 12.5312 1.92716 12.7314 1.88598C12.9086 1.84953 13.0914 1.84953 13.2686 1.88598C13.4688 1.92716 13.6579 2.0322 14.036 2.24227L23.9027 7.72376C24.3021 7.94563 24.5018 8.05656 24.6472 8.21434C24.7758 8.35393 24.8731 8.51937 24.9327 8.69961C25 8.90334 25 9.13177 25 9.58863L25 15.6667M7 5.00003L19 11.6667M18.3333 23L21 25.6667L26.3333 20.3334" stroke="#FF7DBC" stroke-width="2" stroke-linecap="round" stroke-linejoin="round"/>
</svg>
