<svg width="73" height="97" viewBox="0 0 73 97" fill="none" xmlns="http://www.w3.org/2000/svg">
<rect width="73" height="88" rx="16" fill="#FF7DBC"/>
<g clip-path="url(#clip0_48_418)">
<path d="M47.8443 28.3572C44.6628 30.6755 41.0865 32.4084 37.3244 33.4739C39.8673 30.9097 40.0182 26.9989 39.8325 23.5214C42.7353 24.5869 45.4872 26.1091 47.9372 28.041C47.914 28.1464 47.8792 28.2518 47.8559 28.3572M35.2111 33.9422C32.3896 34.3052 29.4635 33.2163 27.745 30.8862C26.1659 28.767 25.8756 25.8983 26.7581 23.4395C27.5941 23.5214 28.4649 23.4395 29.301 23.1468C29.719 22.9946 29.928 22.6784 29.9976 22.3389C30.4853 22.4911 30.9614 22.5965 31.4491 22.6199C31.4723 22.6667 31.5071 22.7018 31.5303 22.7253C31.9948 23.2756 32.5405 23.6385 33.1327 23.8259C33.6204 27.0458 34.3055 30.2306 35.1995 33.3568C35.2576 33.591 35.3853 33.7783 35.5595 33.9071C35.5363 33.9071 35.5014 33.9305 35.4782 33.9305C35.4201 33.9305 35.3156 33.9305 35.2228 33.9539L35.2111 33.9422ZM25.1325 34.7033C23.9133 34.7618 22.6709 34.8789 21.4749 35.1482C21.1382 35.2068 18.8043 35.9327 18.154 36.2723C18.2353 36.1201 18.305 35.9796 18.3282 35.7688C18.6649 32.2913 19.3965 28.6382 21.5678 25.7929C22.4502 24.6455 23.4837 23.779 24.6216 23.1585C23.7159 26.0857 24.0991 29.3992 25.9104 31.9166C26.6884 32.9938 27.6754 33.9071 28.7901 34.6096C27.5941 34.633 26.3749 34.633 25.1557 34.6916L25.1325 34.7033ZM51.0258 74.3374V75.9415H51.4322V74.3023C51.4322 74.0213 51.3277 73.7988 51.1303 73.6349C50.9329 73.471 50.6427 73.389 50.2711 73.389C50.004 73.389 49.7718 73.4358 49.5744 73.5412C49.377 73.6466 49.2261 73.7871 49.1216 73.9627V73.4358H48.7152V75.9415H49.1216V74.4194C49.1216 74.2789 49.168 74.1384 49.2609 74.033C49.3538 73.9159 49.4815 73.8222 49.6325 73.7637C49.795 73.6934 49.9692 73.6583 50.1782 73.6583C50.4685 73.6583 50.6891 73.7168 50.8168 73.8339C50.9562 73.951 51.0142 74.1149 51.0142 74.3374H51.0258ZM45.1853 73.9042C45.255 73.869 45.3363 73.8339 45.4408 73.7871C45.5453 73.752 45.6614 73.7168 45.8007 73.6817C45.9401 73.6583 46.1026 73.6349 46.2768 73.6349C46.451 73.6349 46.5903 73.6466 46.718 73.6817C46.8341 73.7168 46.9386 73.752 47.0083 73.8105C47.078 73.8691 47.1244 73.9276 47.1592 73.9978C47.1941 74.0681 47.2057 74.1384 47.2057 74.2086V75.9415H47.6121V74.1735C47.6121 74.0096 47.5656 73.8691 47.4611 73.752C47.3566 73.6349 47.2057 73.5529 47.0199 73.4827C46.8225 73.4241 46.5903 73.389 46.3232 73.389C46.0097 73.389 45.7427 73.4241 45.522 73.4944C45.3014 73.5646 45.1273 73.6232 44.9995 73.6934L45.1969 73.9042H45.1853ZM45.1737 75.2038C45.1737 75.0751 45.2201 74.9697 45.3014 74.8994C45.3827 74.8175 45.4988 74.7589 45.6498 74.7238C45.8007 74.6887 45.9749 74.6652 46.1723 74.6652C46.3929 74.6652 46.6019 74.6887 46.7993 74.7238C46.9967 74.7706 47.1941 74.8292 47.3683 74.9111V74.7355C47.3683 74.7355 47.2405 74.6652 47.136 74.6184C47.0315 74.5716 46.8922 74.5247 46.718 74.4896C46.5438 74.4545 46.3465 74.4311 46.1142 74.4311C45.6962 74.4311 45.3711 74.5013 45.1273 74.6418C44.8834 74.7823 44.7673 74.9697 44.7673 75.2156C44.7673 75.3912 44.8254 75.5434 44.9415 75.6605C45.0576 75.7776 45.2085 75.8595 45.3943 75.9298C45.5801 75.9883 45.7775 76.0235 45.9749 76.0235C46.1723 76.0235 46.3929 75.9883 46.5903 75.9298C46.7993 75.8712 46.9619 75.7776 47.1012 75.6488C47.2405 75.52 47.3102 75.3561 47.3102 75.1687L47.2173 74.9345C47.2173 75.1219 47.1709 75.2741 47.0664 75.4029C46.9619 75.5317 46.8225 75.6254 46.66 75.6956C46.4858 75.7659 46.3 75.7893 46.1026 75.7893C45.9401 75.7893 45.7891 75.7659 45.6498 75.7307C45.5104 75.6839 45.4059 75.6254 45.3246 75.5434C45.2434 75.4614 45.2085 75.3561 45.2085 75.239L45.1737 75.2038ZM42.4799 76.0117C42.8398 76.0117 43.1533 75.9649 43.4204 75.8595C43.6874 75.7542 43.9197 75.5902 44.1287 75.3795L43.8036 75.2273C43.641 75.4029 43.4552 75.5317 43.2578 75.6137C43.0488 75.6956 42.8166 75.7424 42.5379 75.7424C42.2825 75.7424 42.0502 75.6956 41.8528 75.6137C41.6555 75.5317 41.5045 75.4029 41.4 75.239C41.2955 75.0751 41.2374 74.8877 41.2374 74.677C41.2374 74.4662 41.2955 74.2789 41.4 74.1266C41.5045 73.9744 41.6671 73.8573 41.8528 73.7637C42.0502 73.6817 42.2825 73.6349 42.5495 73.6349C42.7818 73.6349 42.9792 73.67 43.1649 73.752C43.3507 73.8339 43.4901 73.9276 43.5946 74.0681C43.6991 74.1969 43.7571 74.3491 43.7571 74.5247C43.7571 74.5482 43.7571 74.5833 43.7339 74.6184C43.7223 74.6535 43.7107 74.677 43.6991 74.6887L43.8732 74.5247H41.0749V74.7706H44.1751C44.1751 74.7706 44.1751 74.7355 44.1867 74.7004C44.1867 74.677 44.1867 74.6535 44.1867 74.6301C44.1867 74.3842 44.1171 74.1735 43.9777 73.9861C43.8384 73.7988 43.6526 73.6583 43.3972 73.5529C43.1533 73.4475 42.863 73.4007 42.5379 73.4007C42.2128 73.4007 41.8993 73.4592 41.6438 73.5646C41.3884 73.67 41.1794 73.8339 41.0401 74.0213C40.8891 74.2203 40.8194 74.4428 40.8194 74.7004C40.8194 74.958 40.8891 75.1804 41.0401 75.3795C41.1794 75.5785 41.3768 75.7307 41.6322 75.8478C41.8877 75.9649 42.1664 76.0117 42.4915 76.0117H42.4799ZM37.4289 74.7121C37.4289 74.513 37.487 74.3257 37.6147 74.1735C37.7424 74.0213 37.905 73.8925 38.1256 73.8105C38.3462 73.7168 38.5901 73.6817 38.8571 73.6817C39.0545 73.6817 39.2287 73.7051 39.3912 73.7403C39.5538 73.7754 39.7047 73.8339 39.8209 73.8925C39.9486 73.951 40.0299 74.0213 40.0879 74.0915V73.7403C39.9834 73.6583 39.8092 73.5763 39.5886 73.5178C39.3564 73.4592 39.1242 73.4241 38.8571 73.4241C38.5088 73.4241 38.1953 73.4827 37.9166 73.588C37.6379 73.7051 37.4173 73.8573 37.2547 74.0447C37.0922 74.2437 37.0109 74.4662 37.0109 74.7238C37.0109 74.9814 37.0922 75.1921 37.2547 75.3912C37.4173 75.5902 37.6379 75.7425 37.9166 75.8595C38.1953 75.9766 38.5088 76.0235 38.8571 76.0235C39.1126 76.0235 39.3564 75.9883 39.5886 75.9298C39.8209 75.8712 39.9834 75.7893 40.0879 75.7073V75.3561C40.0415 75.4263 39.9486 75.4849 39.8209 75.5434C39.6931 75.6019 39.5538 75.6605 39.3912 75.6956C39.2287 75.7307 39.0429 75.7542 38.8571 75.7542C38.5901 75.7542 38.3462 75.7073 38.1256 75.6254C37.905 75.5317 37.7424 75.4146 37.6147 75.2624C37.487 75.1102 37.4289 74.9228 37.4289 74.7238V74.7121ZM30.9614 74.0564C30.9614 74.3374 31.031 74.595 31.1588 74.8292C31.2981 75.0633 31.4839 75.2741 31.7277 75.4497C31.9716 75.6254 32.2619 75.7659 32.587 75.8595C32.9121 75.9532 33.2837 76.0117 33.6668 76.0117C34.05 76.0117 34.4216 75.9649 34.7467 75.8595C35.0718 75.7659 35.3621 75.6254 35.6059 75.4497C35.8498 75.2741 36.0355 75.0633 36.1749 74.8292C36.3142 74.595 36.3723 74.3374 36.3723 74.0564C36.3723 73.7754 36.3026 73.5178 36.1749 73.2836C36.0355 73.0494 35.8498 72.8387 35.6059 72.6631C35.3621 72.4874 35.0718 72.3469 34.7467 72.2532C34.4216 72.1596 34.05 72.101 33.6668 72.101C33.2837 72.101 32.9121 72.1479 32.587 72.2532C32.2619 72.3586 31.9716 72.4874 31.7277 72.6631C31.4839 72.8387 31.2981 73.0494 31.1588 73.2836C31.0194 73.5178 30.9614 73.7754 30.9614 74.0564ZM31.4142 74.0564C31.4142 73.7403 31.5071 73.4592 31.7045 73.2017C31.9019 72.9558 32.169 72.7567 32.5057 72.6162C32.8424 72.4757 33.2372 72.4055 33.6784 72.4055C34.1197 72.4055 34.5028 72.4757 34.8512 72.6162C35.1879 72.7567 35.455 72.9558 35.6524 73.2017C35.8498 73.4475 35.9427 73.7285 35.9427 74.0564C35.9427 74.3842 35.8498 74.6535 35.6524 74.8994C35.455 75.1453 35.1879 75.3444 34.8512 75.4849C34.5145 75.6254 34.1197 75.6956 33.6784 75.6956C33.2372 75.6956 32.854 75.6254 32.5057 75.4849C32.169 75.3444 31.9019 75.1453 31.7045 74.8994C31.5071 74.6535 31.4142 74.3725 31.4142 74.0564ZM29.0107 74.7355H30.5782V74.4662H29.0107V74.7355ZM25.9453 75.9649C26.4794 75.9649 26.9438 75.883 27.3502 75.7307C27.7566 75.5668 28.0701 75.3444 28.2908 75.0633C28.523 74.7823 28.6275 74.4428 28.6275 74.0681C28.6275 73.6934 28.5114 73.3539 28.2908 73.0729C28.0585 72.7918 27.745 72.5694 27.3502 72.4055C26.9438 72.2415 26.4794 72.1713 25.9453 72.1713H24.6912V72.4757H25.9453C26.282 72.4757 26.5955 72.5108 26.8742 72.5928C27.1528 72.663 27.3967 72.7801 27.5941 72.9206C27.7915 73.0611 27.9424 73.2251 28.0469 73.4241C28.1514 73.6232 28.2095 73.8456 28.2095 74.0798C28.2095 74.314 28.1514 74.5482 28.0469 74.7355C27.9424 74.9345 27.7915 75.0985 27.5941 75.239C27.3967 75.3795 27.1528 75.4849 26.8742 75.5668C26.5955 75.6371 26.282 75.6839 25.9453 75.6839H24.6912V75.9883H25.9453V75.9649ZM24.459 72.1596V75.9649H24.8886V72.1596H24.459ZM25.9337 51.5522C27.3851 51.5522 28.3488 51.2009 28.8365 50.4867C29.3242 49.7842 29.5564 48.8006 29.5564 47.5595C29.5564 46.3184 29.301 45.3934 28.7901 44.6557C28.2792 43.9181 27.327 43.5434 25.922 43.5434C24.4126 43.5434 23.2746 43.5902 22.5315 43.6839V51.5405H25.922L25.9337 51.5522ZM42.1547 51.6693C43.8848 51.6693 45.1389 51.3297 45.9052 50.6623C46.6716 49.9949 47.0547 48.9528 47.0547 47.5361C47.0547 46.1193 46.6716 45.1241 45.9052 44.445C45.1389 43.7659 43.8965 43.4263 42.1547 43.4263C40.413 43.4263 39.1938 43.7659 38.4391 44.445C37.6728 45.1241 37.2896 46.1545 37.2896 47.5361C37.2896 48.9177 37.6728 49.9715 38.4391 50.6506C39.2055 51.3297 40.4479 51.6693 42.1547 51.6693ZM27.1064 62.172C28.0237 64.4552 30.2879 65.9656 33.9107 66.7033C33.3069 67.3824 32.8424 68.0615 32.5173 68.7289C32.1806 69.3963 31.809 70.2862 31.391 71.3868C30.0092 70.977 28.6856 70.2745 27.4083 69.2792C26.131 68.284 25.0976 67.0311 24.3197 65.5324C23.5417 67.0194 22.5083 68.2723 21.2194 69.2675C19.9306 70.2745 18.6069 70.977 17.2483 71.3868C16.8303 70.2862 16.4472 69.3963 16.122 68.7289C15.7853 68.0615 15.3209 67.3824 14.7287 66.7033C18.3398 66.0008 20.5924 64.4903 21.4981 62.172H15.5763V57.91H21.9393L21.9626 56.2474H21.022C19.5822 56.2474 18.1308 56.2474 16.6678 56.224C16.7955 53.1212 16.8536 50.2408 16.8536 47.5595C16.8536 44.8782 16.7955 42.033 16.6678 39.0824C18.5256 38.9302 21.022 38.8482 24.1571 38.8482C27.0948 38.8482 29.4055 39.2112 31.1123 39.9254C32.1573 40.3703 33.0166 40.9089 33.6784 41.5646C33.8526 41.3539 34.0384 41.1665 34.2474 40.9792C35.9194 39.4102 38.5552 38.614 42.1431 38.614C45.731 38.614 48.3901 39.3985 50.0621 40.9792C51.7341 42.5482 52.5818 44.7377 52.5818 47.5361C52.5818 50.3345 51.7457 52.5826 50.0737 54.1398C48.9358 55.2053 47.3334 55.9078 45.2898 56.2357L46.0097 58.191L46.7412 56.224L51.2697 56.6104L50.5614 58.273H52.1057V61.2002H48.0882V61.8559H51.9547V65.0524H48.0882V65.7432H52.3728V68.928H48.0882V71.1058H43.7455V68.928H39.6583V65.7432H43.7455V65.0524H39.8673V61.8559H43.7455V61.2002H39.8325L40.0415 61.2822L38.172 63.9986L39.8673 64.2445L38.2185 71.0121L37.8005 70.9184C35.9891 70.5555 34.6538 70.3096 33.7829 70.1808C34.1545 69.2792 34.4564 68.4245 34.7119 67.6166C34.9557 66.8087 35.2344 65.8486 35.5246 64.7479L35.8149 63.6707L37.3012 63.8815C36.4652 63.4717 35.3505 63.1087 33.9803 62.7809L36.0472 59.8303C36.4652 59.9356 36.9064 60.0644 37.3709 60.2401C37.8353 60.404 38.2882 60.5796 38.7178 60.7553L39.7512 61.1651V58.472L38.6829 60.3572C37.1967 59.7366 35.6175 59.2917 33.9455 59.0107L35.8382 55.9313C36.3374 56.0483 36.8948 56.2123 37.5334 56.423C38.1604 56.6338 38.532 56.7626 38.6481 56.7977C39.3912 57.067 39.9718 57.266 40.3898 57.3714L39.8789 58.273H41.4465L40.7382 56.6104L42.3521 56.4699H42.1431C38.5668 56.4699 35.9427 55.6854 34.259 54.1281C34.0152 53.8939 33.7829 53.6598 33.5739 53.4022C32.8889 54.1164 32.0412 54.7018 31.031 55.1702C29.8002 55.7322 28.3372 56.0835 26.6652 56.2006L26.6419 57.91H33.0282V62.172H27.1064ZM59.7111 28.2752C56.8315 29.0128 53.859 29.0011 51.0258 28.2284C51.0026 28.0176 50.8981 27.8068 50.6891 27.6078C46.2071 23.6151 40.6337 20.9455 34.7002 20.0791C34.0036 19.9737 33.2953 19.8917 32.5986 19.8215C32.5173 19.0604 32.5986 18.2525 32.6799 17.5266C32.8656 16.1918 30.8337 15.618 30.6595 16.9528C30.5318 17.8193 30.4505 18.7794 30.4853 19.7161C30.0905 19.7161 29.7074 19.7161 29.3242 19.7395C27.4083 18.2174 26.3981 14.9272 25.9104 12.7845C25.6201 11.4497 23.5765 12.0235 23.8901 13.3583C24.4358 15.7117 25.1092 18.2408 26.6884 20.1025C26.3517 20.1845 25.9917 20.2781 25.655 20.3835C25.3763 20.4655 25.1325 20.5708 24.8538 20.6762C22.7754 19.2946 21.4052 16.2854 20.546 14.1662C20.0351 12.9133 18.0031 13.4636 18.5256 14.7399C19.4893 17.1636 20.5228 19.7629 22.5199 21.531C20.8943 21.6363 19.2339 20.9807 17.9915 19.962C16.0988 18.4164 14.9609 16.1684 13.9275 13.9788C13.3585 12.7143 11.5239 13.8032 12.1161 15.0092C13.3818 17.7256 14.9377 20.4889 17.4806 22.1749C18.4908 22.8306 19.6055 23.299 20.7666 23.4863C20.1396 24.142 19.5706 24.8914 19.0829 25.6759C17.2135 28.685 16.5401 32.2562 16.2033 35.7571V35.9913C15.9711 36.2254 15.8434 36.565 15.9479 36.9631C16.2614 38.3213 17.6547 38.7194 18.8739 38.3213C19.5474 38.0871 20.1628 37.7007 20.8363 37.49C21.5097 37.2558 22.2064 37.1036 22.9147 36.9982C25.9917 36.5299 29.1384 36.8928 32.2386 36.5767C38.2765 35.9444 44.059 33.7315 48.9822 30.1486C49.0867 30.0666 49.1912 29.973 49.2609 29.8676C52.814 31.097 56.6225 31.2258 60.2917 30.2891C61.569 29.9261 61.0232 27.8888 59.6995 28.2284L59.7111 28.2752Z" fill="#181D27"/>
</g>
<path d="M36 97L30.8038 88L41.1961 88L36 97Z" fill="#FF7DBC"/>
<defs>
<clipPath id="clip0_48_418">
<rect width="49" height="64" fill="white" transform="translate(12 12)"/>
</clipPath>
</defs>
</svg>
