<svg width="161" height="160" viewBox="0 0 161 160" fill="none" xmlns="http://www.w3.org/2000/svg">
<circle cx="81" cy="79.5" r="62.5" fill="#DBFFEE"/>
<path d="M81.0714 150.857C41.6694 150.857 9.64285 118.831 9.64285 79.4286C9.64285 40.0266 41.6694 8 81.0714 8C120.473 8 152.5 40.0266 152.5 79.4286C152.5 118.831 120.473 150.857 81.0714 150.857ZM81.0714 17.9668C47.1844 17.9668 19.6096 45.5415 19.6096 79.4286C19.6096 113.316 47.1844 140.89 81.0714 140.89C114.958 140.89 142.533 113.316 142.533 79.4286C142.533 45.5415 114.958 17.9668 81.0714 17.9668Z" fill="#00C566"/>
<path d="M71.0333 103.867C69.7 103.867 68.4333 103.333 67.5 102.4L48.6333 83.5334C46.7 81.6 46.7 78.4 48.6333 76.4667C50.5667 74.5334 53.7667 74.5334 55.7 76.4667L71.0333 91.8L105.3 57.5334C107.233 55.6 110.433 55.6 112.367 57.5334C114.3 59.4667 114.3 62.6667 112.367 64.6L74.5667 102.4C73.6333 103.333 72.3667 103.867 71.0333 103.867Z" fill="#00C566"/>
</svg>
