<svg width="50" height="64" viewBox="0 0 50 64" fill="none" xmlns="http://www.w3.org/2000/svg">
<g filter="url(#filter0_d_2009_427)">
<path d="M36.5641 16.3568C33.3225 18.6713 29.6757 20.4116 25.8308 21.471C28.4286 18.9028 28.5772 14.9993 28.3836 11.5186C31.3461 12.5779 34.16 14.1091 36.6497 16.0408C36.6272 16.1476 36.5867 16.2544 36.5641 16.3568ZM23.6652 21.9383C20.7883 22.2989 17.8033 21.2173 16.0429 18.8805C14.4311 16.7574 14.134 13.8954 15.0344 11.434C15.8943 11.5186 16.7723 11.434 17.6322 11.1358C18.0599 10.9889 18.276 10.6685 18.3391 10.3302C18.8343 10.4771 19.3251 10.5839 19.8203 10.6062C19.8428 10.6507 19.8833 10.6907 19.9058 10.713C20.3786 11.2649 20.9369 11.6254 21.5357 11.8168C22.0309 15.0438 22.7377 18.2262 23.6382 21.3464C23.7012 21.5778 23.8318 21.7692 24.0029 21.8983C23.9804 21.8983 23.9398 21.9205 23.9173 21.9205C23.8543 21.9205 23.7463 21.9205 23.6607 21.9428L23.6652 21.9383ZM13.3821 22.7039C12.135 22.7662 10.8698 22.873 9.64521 23.149C9.30304 23.2113 6.91684 23.9324 6.25501 24.2751C6.34056 24.1282 6.40359 23.9769 6.4261 23.7677C6.76827 20.287 7.52015 16.6372 9.73075 13.7931C10.6312 12.6492 11.6847 11.7768 12.8418 11.1625C11.9189 14.0913 12.306 17.4028 14.152 19.9265C14.9444 21.0081 15.9574 21.9205 17.0919 22.6193C15.8673 22.6416 14.6247 22.6416 13.3776 22.7039H13.3821ZM48.6482 16.2544C45.7082 16.9978 42.6827 16.9755 39.7833 16.2099C39.7608 15.9963 39.6527 15.7871 39.4411 15.5957C34.8668 11.6076 29.1805 8.93259 23.1294 8.0602C22.4226 7.95338 21.6932 7.86881 20.9819 7.80649C20.8963 7.04093 20.9819 6.2353 21.0674 5.51425C21.261 4.17896 19.1765 3.60478 19.0054 4.94007C18.8748 5.80801 18.7893 6.76497 18.8343 7.69967C18.4246 7.69967 18.0419 7.69967 17.6547 7.72193C15.7007 6.19525 14.6697 2.90598 14.179 0.760608C13.8773 -0.574683 11.7973 -0.00495863 12.1169 1.33478C12.6752 3.68935 13.3641 6.2175 14.9714 8.08246C14.6292 8.16702 14.2645 8.25159 13.9178 8.35842C13.6387 8.44299 13.3821 8.54981 13.1029 8.65663C10.9779 7.27683 9.58218 4.26352 8.70424 2.14041C8.19098 0.889687 6.10644 1.44161 6.64221 2.71458C7.6282 5.13591 8.68173 7.74418 10.7213 9.50677C9.06892 9.61359 7.37158 8.95485 6.10644 7.93557C4.17498 6.38663 3.01339 4.1389 1.96437 1.94902C1.38358 0.716099 -0.484849 1.80213 0.118452 3.00835C1.4061 5.72344 2.99539 8.48304 5.59319 10.1833C6.6242 10.8421 7.76327 11.3094 8.94286 11.5008C8.29904 12.1595 7.71825 12.9029 7.2275 13.6862C5.31855 16.6995 4.6297 20.2648 4.28753 23.7677V23.9991C4.05342 24.2306 3.92285 24.5733 4.03091 24.9739C4.35507 26.3314 5.76877 26.7365 7.01589 26.3314C7.70474 26.1 8.32605 25.7172 9.01039 25.5036C9.69924 25.2721 10.4061 25.1208 11.1355 25.014C14.269 24.5466 17.4881 24.9071 20.6442 24.5911C26.8033 23.9546 32.7057 21.7469 37.7302 18.1595C37.8383 18.0749 37.9464 17.9903 38.0094 17.8835C41.6382 19.1164 45.5236 19.241 49.256 18.3063C50.5661 17.9458 50.0079 15.9073 48.6527 16.25L48.6482 16.2544Z" fill="white"/>
<path d="M23.6652 21.3642C22.7648 18.2218 22.0534 15.0393 21.5627 11.8346C20.9639 11.6432 20.4056 11.2827 19.9329 10.7308C19.9103 10.6863 19.8698 10.6462 19.8473 10.624C19.3341 10.5795 18.8388 10.4949 18.3661 10.348C18.303 10.6863 18.0869 11.0067 17.6592 11.1536C16.7993 11.4518 15.9213 11.5364 15.0614 11.4518C14.161 13.9132 14.4626 16.7574 16.0699 18.8983C17.8303 21.2306 20.8153 22.3167 23.6922 21.9561C23.8003 21.9339 23.8858 21.9339 23.9939 21.9561C24.0164 21.9561 24.0569 21.9339 24.0794 21.9339C23.8633 21.787 23.7373 21.5956 23.6697 21.3597" fill="#6ECF18"/>
<path d="M25.8532 21.471C29.6936 20.4116 33.3225 18.6713 36.5866 16.3568C36.6091 16.25 36.6316 16.1432 36.6721 16.0363C34.1824 14.1046 31.391 12.5779 28.406 11.5141C28.5996 14.9948 28.451 18.8983 25.8532 21.4665" fill="#6ECF18"/>
<path d="M39.8057 62.3398V63.951H40.22V62.3086C40.22 62.0282 40.1209 61.8057 39.9183 61.641C39.7157 61.4763 39.423 61.3917 39.0404 61.3917C38.7702 61.3917 38.5316 61.4407 38.329 61.5431C38.1264 61.6454 37.9733 61.7879 37.8698 61.9659V61.4451H37.4556V63.9466H37.8698V62.4244C37.8698 62.2775 37.9148 62.1484 38.0093 62.0327C38.1039 61.917 38.23 61.8235 38.392 61.7567C38.5541 61.6899 38.7387 61.6543 38.9458 61.6543C39.243 61.6543 39.4591 61.7122 39.5986 61.8324C39.7382 61.9526 39.8057 62.1172 39.8057 62.3309M33.8448 61.8947C33.9123 61.8591 33.9978 61.819 34.1059 61.779C34.2094 61.7389 34.331 61.7033 34.4751 61.6766C34.6192 61.6454 34.7812 61.6321 34.9613 61.6321C35.1414 61.6321 35.2855 61.6499 35.4071 61.681C35.5286 61.7122 35.6277 61.7567 35.6997 61.8101C35.7717 61.8635 35.8213 61.9258 35.8573 61.9926C35.8888 62.0594 35.9068 62.1306 35.9068 62.2018V63.9377H36.321V62.1662C36.321 62.0015 36.267 61.8591 36.1634 61.7434C36.0554 61.6276 35.9068 61.5386 35.7087 61.4763C35.5106 61.414 35.2765 61.3828 34.9973 61.3828C34.6732 61.3828 34.403 61.4184 34.1824 61.4852C33.9618 61.552 33.7817 61.6187 33.6422 61.6855L33.8493 61.8992L33.8448 61.8947ZM33.8268 63.1899C33.8268 63.0609 33.8673 62.9585 33.9528 62.8784C34.0384 62.7982 34.1554 62.7404 34.3085 62.7003C34.4616 62.6603 34.6372 62.6425 34.8488 62.6425C35.0739 62.6425 35.2855 62.6647 35.4926 62.7048C35.6952 62.7448 35.8888 62.8116 36.0689 62.8962V62.7181C36.0194 62.687 35.9428 62.6469 35.8303 62.5979C35.7177 62.549 35.5781 62.5089 35.4025 62.4689C35.2315 62.4288 35.0244 62.411 34.7857 62.411C34.3625 62.411 34.0249 62.4822 33.7772 62.6247C33.5296 62.7671 33.4081 62.9585 33.4081 63.2033C33.4081 63.3813 33.4666 63.5282 33.5836 63.6439C33.7007 63.7597 33.8538 63.8487 34.0474 63.9065C34.241 63.9644 34.4391 63.9956 34.6462 63.9956C34.8533 63.9956 35.0694 63.9644 35.2765 63.9021C35.4836 63.8398 35.6547 63.7463 35.7942 63.6172C35.9338 63.4881 36.0013 63.3279 36.0013 63.1321L35.9068 62.8917C35.9068 63.0787 35.8528 63.2344 35.7492 63.3591C35.6412 63.4837 35.5016 63.5816 35.3305 63.6484C35.1594 63.7151 34.9658 63.7463 34.7587 63.7463C34.5876 63.7463 34.4346 63.724 34.2905 63.684C34.1509 63.6439 34.0384 63.5816 33.9573 63.497C33.8763 63.4125 33.8358 63.3101 33.8358 63.1855L33.8268 63.1899ZM31.0759 63.9956C31.4406 63.9956 31.7647 63.9421 32.0349 63.8398C32.3095 63.7374 32.5481 63.5772 32.7552 63.3591L32.4221 63.2122C32.2555 63.3902 32.0709 63.5193 31.8593 63.6039C31.6477 63.6884 31.4045 63.7285 31.1209 63.7285C30.8553 63.7285 30.6212 63.684 30.4231 63.5994C30.225 63.5104 30.0719 63.3902 29.9593 63.23C29.8513 63.0697 29.7972 62.8828 29.7972 62.6692C29.7972 62.4555 29.8513 62.2775 29.9638 62.1217C30.0764 61.9659 30.2295 61.8502 30.4321 61.7612C30.6302 61.6766 30.8643 61.6321 31.1389 61.6321C31.373 61.6321 31.5846 61.6721 31.7692 61.7478C31.9538 61.8235 32.1024 61.9303 32.2104 62.0638C32.3185 62.1974 32.3725 62.3487 32.3725 62.5223C32.3725 62.5534 32.368 62.5801 32.3545 62.6113C32.341 62.6425 32.3275 62.6647 32.3185 62.687L32.4941 62.5178H29.6397V62.7626H32.8048C32.8048 62.7626 32.8138 62.7226 32.8183 62.6959C32.8183 62.6692 32.8183 62.6469 32.8183 62.6247C32.8183 62.3798 32.7462 62.1662 32.6067 61.9793C32.4671 61.7923 32.269 61.6454 32.0169 61.5431C31.7647 61.4362 31.4721 61.3873 31.1344 61.3873C30.7967 61.3873 30.4816 61.4407 30.216 61.552C29.9503 61.6632 29.7432 61.8146 29.5946 62.0104C29.4461 62.2063 29.3695 62.4288 29.3695 62.687C29.3695 62.9451 29.4416 63.1677 29.5901 63.3635C29.7342 63.5594 29.9368 63.7151 30.1934 63.8264C30.4501 63.9377 30.7427 63.9956 31.0714 63.9956H31.0759ZM25.9163 62.6914C25.9163 62.4867 25.9793 62.3086 26.1054 62.1529C26.2315 61.9971 26.4071 61.8769 26.6277 61.7879C26.8483 61.6989 27.0959 61.6543 27.375 61.6543C27.5731 61.6543 27.7532 61.6721 27.9243 61.7122C28.0954 61.7523 28.244 61.8012 28.3655 61.8635C28.4916 61.9259 28.5816 61.9926 28.6312 62.0594V61.7078C28.5186 61.6187 28.3475 61.5475 28.1179 61.4808C27.8883 61.4184 27.6362 61.3873 27.3705 61.3873C27.0149 61.3873 26.6952 61.4451 26.4161 61.5564C26.1324 61.6677 25.9118 61.8235 25.7407 62.0193C25.5741 62.2152 25.4886 62.4377 25.4886 62.6959C25.4886 62.954 25.5741 63.1721 25.7407 63.368C25.9073 63.5638 26.1324 63.7196 26.4161 63.8309C26.6997 63.9421 27.0149 64 27.3705 64C27.6362 64 27.8838 63.9688 28.1179 63.9065C28.3475 63.8442 28.5186 63.7686 28.6312 63.6795V63.3279C28.5771 63.3947 28.4871 63.457 28.3655 63.5193C28.2395 63.5816 28.0909 63.635 27.9243 63.6751C27.7532 63.7151 27.5686 63.7329 27.375 63.7329C27.1004 63.7329 26.8483 63.6884 26.6277 63.5994C26.4071 63.5104 26.2315 63.3902 26.1054 63.2344C25.9793 63.0787 25.9163 62.9006 25.9163 62.6959V62.6914ZM19.325 62.0371C19.325 62.3175 19.3925 62.5757 19.5321 62.8116C19.6717 63.0475 19.8653 63.2567 20.1129 63.4303C20.365 63.6083 20.6577 63.7419 20.9953 63.8398C21.333 63.9377 21.7022 63.9867 22.0984 63.9867C22.4946 63.9867 22.8638 63.9377 23.2014 63.8398C23.5391 63.7419 23.8318 63.6039 24.0839 63.4303C24.3315 63.2567 24.5296 63.0475 24.6647 62.8116C24.8042 62.5757 24.8718 62.3175 24.8718 62.0371C24.8718 61.7567 24.8042 61.4986 24.6647 61.2627C24.5251 61.0268 24.3315 60.8176 24.0839 60.644C23.8363 60.4659 23.5391 60.3324 23.2014 60.2345C22.8638 60.1366 22.4946 60.0876 22.0984 60.0876C21.7022 60.0876 21.333 60.1366 20.9953 60.2345C20.6577 60.3324 20.365 60.4704 20.1129 60.644C19.8653 60.822 19.6672 61.0268 19.5321 61.2627C19.3925 61.4986 19.325 61.7567 19.325 62.0371ZM19.7887 62.0371C19.7887 61.7167 19.8878 61.4362 20.0859 61.187C20.284 60.9377 20.5586 60.7419 20.9053 60.5995C21.252 60.457 21.6527 60.3858 22.0984 60.3858C22.5441 60.3858 22.9403 60.457 23.2915 60.5995C23.6382 60.7419 23.9128 60.9377 24.1109 61.187C24.309 61.4362 24.408 61.7211 24.408 62.0371C24.408 62.3531 24.309 62.6336 24.1109 62.8873C23.9128 63.1365 23.6427 63.3324 23.2915 63.4792C22.9448 63.6217 22.5441 63.6929 22.0984 63.6929C21.6527 63.6929 21.2565 63.6217 20.9053 63.4792C20.5586 63.3368 20.284 63.141 20.0859 62.8873C19.8878 62.638 19.7887 62.3531 19.7887 62.0371ZM17.3395 62.7137H18.9333V62.4466H17.3395V62.7137ZM14.206 63.9421C14.7462 63.9421 15.2235 63.862 15.6377 63.7018C16.0474 63.5416 16.3715 63.319 16.6011 63.0341C16.8308 62.7493 16.9478 62.4155 16.9478 62.0371C16.9478 61.6588 16.8308 61.325 16.6011 61.0401C16.3715 60.7552 16.0474 60.5327 15.6377 60.3725C15.228 60.2122 14.7507 60.1321 14.206 60.1321H12.9318V60.4303H14.206C14.5526 60.4303 14.8678 60.4704 15.1514 60.5461C15.4351 60.6217 15.6782 60.7285 15.8808 60.871C16.0834 61.009 16.2365 61.1781 16.349 61.3784C16.4571 61.5742 16.5111 61.7968 16.5111 62.0371C16.5111 62.2775 16.4571 62.5 16.349 62.6959C16.241 62.8917 16.0834 63.0609 15.8808 63.2033C15.6782 63.3413 15.4351 63.4525 15.1514 63.5282C14.8678 63.6039 14.5526 63.6439 14.206 63.6439H12.9318V63.9421H14.206ZM12.6932 60.1366V63.9421H13.1299V60.1366H12.6932Z" fill="white"/>
<path d="M14.1924 39.5375C15.6737 39.5375 16.6597 39.1814 17.1549 38.4737C17.6501 37.766 17.8933 36.7912 17.8933 35.5449C17.8933 34.2987 17.6366 33.3818 17.1189 32.6429C16.6011 31.904 15.6286 31.5346 14.1924 31.5346C12.6482 31.5346 11.4956 31.5836 10.7302 31.6771V39.5375H14.1924ZM30.7472 39.6576C32.5121 39.6576 33.7862 39.3238 34.5696 38.6562C35.3485 37.9885 35.7402 36.9426 35.7402 35.5271C35.7402 34.1117 35.3485 33.1103 34.5696 32.4337C33.7907 31.7572 32.5166 31.4189 30.7472 31.4189C28.9778 31.4189 27.7307 31.7572 26.9518 32.4337C26.1729 33.1103 25.7812 34.1429 25.7812 35.5271C25.7812 36.9114 26.1729 37.9663 26.9518 38.6428C27.7307 39.3194 28.9958 39.6576 30.7472 39.6576ZM15.39 50.1619C16.3265 52.4497 18.6406 53.9586 22.3325 54.693C21.7202 55.374 21.2474 56.0506 20.9098 56.7182C20.5721 57.3859 20.1894 58.2716 19.7572 59.3799C18.3525 58.9704 16.9973 58.2627 15.6917 57.2701C14.386 56.2731 13.337 55.0224 12.5401 53.5224C11.7477 55.0135 10.6942 56.2598 9.37951 57.2612C8.06486 58.2627 6.71418 58.9704 5.32299 59.3799C4.89528 58.2761 4.51259 57.3859 4.17041 56.7182C3.83275 56.0506 3.36001 55.374 2.7477 54.693C6.42604 53.9853 8.72669 52.4764 9.64965 50.1619H3.64365V45.9024H10.1359L10.1539 44.2377H9.19493C7.7317 44.2377 6.25045 44.2288 4.75571 44.2154C4.88177 41.1131 4.9448 38.2289 4.9448 35.5538C4.9448 32.8788 4.88177 30.0213 4.75571 27.0792C6.65115 26.9234 9.19492 26.8433 12.396 26.8433C15.39 26.8433 17.7537 27.1994 19.4871 27.916C20.5586 28.3566 21.432 28.9041 22.1029 29.5584C22.283 29.3536 22.4766 29.1578 22.6792 28.9664C24.39 27.3908 27.0779 26.6074 30.7382 26.6074C34.3985 26.6074 37.1089 27.3952 38.8197 28.9664C40.5306 30.5421 41.386 32.7275 41.386 35.5271C41.386 38.3268 40.5351 40.579 38.8332 42.1368C37.6716 43.2006 36.0418 43.8994 33.9528 44.2377L34.6867 46.1917L35.4295 44.2243L40.0533 44.6116L39.333 46.2673H40.9133V49.1961H36.8162V49.8504H40.7557V53.0506H36.8162V53.745H41.1834V56.9274H36.8162V59.1039H32.3905V56.9274H28.2169V53.745H32.3905V53.0506H28.433V49.8504H32.3905V49.1961H28.3925L28.6086 49.2717L26.6997 51.9913L28.433 52.2405L26.7537 59.006L26.326 58.9081C24.4801 58.5476 23.1159 58.3028 22.2289 58.1737C22.6071 57.2746 22.9223 56.42 23.1744 55.6099C23.4265 54.7998 23.7057 53.8429 24.0028 52.739L24.2955 51.6575L25.8172 51.8711C24.9573 51.4616 23.8272 51.0922 22.4225 50.7717L24.5296 47.8207C24.9573 47.9231 25.412 48.0566 25.8848 48.2258C26.3575 48.3949 26.8167 48.5685 27.2579 48.7465L28.3115 49.1516V46.4543L27.2174 48.3415C25.6957 47.7228 24.0839 47.2733 22.382 46.9928L24.3135 43.9083C24.8222 44.024 25.394 44.1887 26.0378 44.3979C26.6817 44.6116 27.0599 44.7362 27.1769 44.7718C27.9288 45.0433 28.5231 45.2347 28.9508 45.3504L28.424 46.2584H30.0223L29.302 44.6027L30.9498 44.4647H30.7337C27.0869 44.4647 24.408 43.6813 22.6882 42.119C22.436 41.8876 22.2019 41.6472 21.9858 41.3891C21.288 42.1057 20.419 42.6932 19.388 43.1606C18.1319 43.7258 16.6461 44.0686 14.9308 44.1887L14.9128 45.8979H21.4275V50.1575H15.381L15.39 50.1619Z" fill="white"/>
</g>
<defs>
<filter id="filter0_d_2009_427" x="-1" y="-1" width="51" height="65" filterUnits="userSpaceOnUse" color-interpolation-filters="sRGB">
<feFlood flood-opacity="0" result="BackgroundImageFix"/>
<feColorMatrix in="SourceAlpha" type="matrix" values="0 0 0 0 0 0 0 0 0 0 0 0 0 0 0 0 0 0 127 0" result="hardAlpha"/>
<feOffset dx="-1" dy="-1"/>
<feComposite in2="hardAlpha" operator="out"/>
<feColorMatrix type="matrix" values="0 0 0 0 1 0 0 0 0 0.490196 0 0 0 0 0.737255 0 0 0 1 0"/>
<feBlend mode="normal" in2="BackgroundImageFix" result="effect1_dropShadow_2009_427"/>
<feBlend mode="normal" in="SourceGraphic" in2="effect1_dropShadow_2009_427" result="shape"/>
</filter>
</defs>
</svg>
