<svg width="790" height="708" viewBox="0 0 790 708" fill="none" xmlns="http://www.w3.org/2000/svg">
<path d="M203.36 267.896C229.702 267.896 247.194 261.519 256.044 248.552C264.895 235.797 269.11 217.941 269.11 195.408C269.11 172.875 264.474 156.081 255.202 142.689C245.929 129.297 228.649 122.494 203.15 122.494C175.754 122.494 155.102 123.345 141.615 125.045V267.684H203.15L203.36 267.896ZM497.759 270.022C529.159 270.022 551.918 263.857 565.827 251.741C579.735 239.624 586.69 220.705 586.69 194.983C586.69 169.261 579.735 151.192 565.827 138.863C551.918 126.533 529.369 120.369 497.759 120.369C466.148 120.369 444.021 126.533 430.323 138.863C416.415 151.192 409.46 169.899 409.46 194.983C409.46 220.067 416.415 239.199 430.323 251.528C444.232 263.857 466.781 270.022 497.759 270.022ZM224.645 460.703C241.293 502.155 282.386 529.577 348.136 542.97C337.178 555.299 328.748 567.628 322.848 579.745C316.736 591.862 309.993 608.018 302.406 628C277.329 620.56 253.305 607.805 230.124 589.736C206.943 571.667 188.187 548.922 174.068 521.712C159.949 548.709 141.193 571.455 117.802 589.524C94.4098 607.805 70.3859 620.56 45.7297 628C38.1432 608.018 31.189 591.862 25.2883 579.745C19.177 567.628 10.7475 555.299 0 542.97C65.5389 530.215 106.422 502.793 122.859 460.703H15.3837V383.325H130.867L131.289 353.139H114.219C88.0877 353.139 61.7457 353.139 35.1929 352.714C37.511 296.382 38.5647 244.088 38.5647 195.408C38.5647 146.728 37.511 95.0722 35.1929 41.503C68.9107 38.7395 114.219 37.2515 171.118 37.2515C224.434 37.2515 266.37 43.8414 297.349 56.8085C316.315 64.8864 331.909 74.6649 343.921 86.5691C347.082 82.7428 350.454 79.3416 354.247 75.9403C384.594 47.4552 432.431 33 497.548 33C562.666 33 610.924 47.2426 641.27 75.9403C671.616 104.426 687 144.177 687 194.983C687 245.788 671.827 286.603 641.481 314.876C620.829 334.22 591.747 346.975 554.658 352.927L567.723 388.427L581 352.714L663.187 359.729L650.332 389.915H678.36V443.059H605.445V454.963H675.62V512.996H605.445V525.538H683.207V583.359H605.445V622.898H526.63V583.359H452.451V525.538H526.63V512.996H456.244V454.963H526.63V443.059H455.612L459.405 444.547L425.476 493.865L456.244 498.329L426.319 621.198L418.733 619.497C385.858 612.907 361.623 608.443 345.818 606.105C352.562 589.736 358.041 574.218 362.677 559.551C367.102 544.883 372.16 527.452 377.428 507.469L382.697 487.912L409.671 491.739C394.498 484.299 374.267 477.709 349.401 471.757L386.912 418.188C394.498 420.101 402.506 422.439 410.936 425.628C419.365 428.604 427.584 431.792 435.381 434.981L454.136 442.421V393.529L434.749 427.753C407.775 416.487 379.114 408.409 348.768 403.307L383.118 347.4C392.18 349.526 402.295 352.502 413.886 356.328C425.266 360.154 432.009 362.493 434.117 363.13C447.604 368.02 458.14 371.633 465.727 373.547L456.455 389.915H484.904L472.049 359.729L501.341 357.178H497.548C432.641 357.178 385.015 342.936 354.458 314.663C350.033 310.412 345.818 306.16 342.025 301.483C329.591 314.451 314.208 325.079 295.874 333.582C273.536 343.786 246.983 350.163 216.637 352.289L216.215 383.325H332.12V460.703H224.645Z" fill="url(#paint0_linear_4005_621)"/>
<circle cx="681" cy="580" r="21" stroke="white" stroke-width="16"/>
<path d="M658 21.4395L753.4 21.4395L659.563 115.277L674.723 130.437L768.56 36.5995V132H769.168L790 111.168L790 23.3668L766.633 0L678.82 6.23667e-06L658 20.8205L658 21.4395Z" fill="white"/>
<path d="M25.2057 708C24.7449 708 24.5145 707.505 24.5145 706.514C24.5145 705.853 24.6462 705.027 24.9095 704.036C25.2386 703.111 25.6335 702.021 26.0943 700.766C26.6209 700.303 26.8842 699.709 26.8842 698.982C27.0159 699.048 27.0817 699.048 27.0817 698.982C27.1475 698.85 27.1804 698.784 27.1804 698.784C27.3121 698.586 27.3779 698.387 27.3779 698.189C27.3779 697.925 27.4108 697.694 27.4767 697.495V697.297C27.2134 696.637 27.0817 696.075 27.0817 695.613L26.8842 695.514C26.7526 695.117 26.6538 694.688 26.588 694.225C26.588 693.763 26.6209 693.333 26.6868 692.937C26.7526 692.541 26.7197 692.342 26.588 692.342C26.5222 692.276 26.4893 692.177 26.4893 692.045C26.4893 691.913 26.4893 691.814 26.4893 691.748C26.5551 691.616 26.6209 691.417 26.6868 691.153C26.7526 691.021 26.8513 690.79 26.983 690.459C27.1804 690.063 27.2792 689.832 27.2792 689.766C27.2792 689.634 27.2463 689.535 27.1804 689.468C27.1146 689.336 27.0817 689.237 27.0817 689.171L27.3779 688.775V688.081C27.4437 687.949 27.4767 687.784 27.4767 687.586C27.5425 687.453 27.6412 687.354 27.7729 687.288C27.9045 687.156 28.0033 687.057 28.0691 686.991C28.2007 686.859 28.2995 686.694 28.3653 686.495C28.497 686.231 28.5957 686.033 28.6615 685.901C28.7273 685.769 28.7932 685.67 28.859 685.604C28.9906 685.471 29.0894 685.306 29.1552 685.108C29.2869 684.91 29.3856 684.745 29.4514 684.613C29.5172 684.414 29.616 684.216 29.7476 684.018L30.4388 683.423C30.7021 683.159 30.9654 683.027 31.2287 683.027C31.492 683.027 31.6566 683.291 31.7224 683.82L31.6237 684.315L30.0438 686C29.9122 686.132 29.8464 686.297 29.8464 686.495C29.7805 686.562 29.7147 686.628 29.6489 686.694C29.6489 686.76 29.616 686.859 29.5502 686.991C29.5502 687.123 29.4514 687.288 29.2539 687.486L28.9577 688.378C28.8261 688.378 28.7603 688.444 28.7603 688.577C28.6944 688.643 28.6286 689.039 28.5628 689.766C28.5628 690.426 28.5628 690.823 28.5628 690.955H28.859C28.859 691.021 28.859 691.12 28.859 691.252C28.9248 691.318 28.9248 691.417 28.859 691.55V692.144C28.859 692.276 28.8261 692.408 28.7603 692.541C28.7603 692.541 28.7273 692.574 28.6615 692.64C28.6615 692.64 28.6615 692.673 28.6615 692.739C28.6615 692.805 28.6944 692.904 28.7603 693.036C28.8261 693.102 28.859 693.201 28.859 693.333C28.859 693.399 28.8261 693.465 28.7603 693.532C28.7603 693.532 28.7603 693.565 28.7603 693.631C28.7603 693.697 28.7932 693.763 28.859 693.829C28.9248 693.829 28.9577 693.862 28.9577 693.928V694.027C29.4843 693.036 29.978 692.012 30.4388 690.955C30.9654 689.898 31.492 688.841 32.0186 687.784C32.1503 687.52 32.2819 687.453 32.4136 687.586C32.611 687.652 32.7427 687.619 32.8085 687.486C32.8743 687.42 32.9073 687.255 32.9073 686.991C32.9073 686.793 32.8743 686.595 32.8085 686.396C32.8085 686.198 32.9073 685.967 33.1047 685.703L34.4871 683.225C36.396 679.79 38.3049 676.486 40.2139 673.315C42.1886 670.144 44.0318 667.7 45.7432 665.982L46.0394 665.784L46.3356 665.288C46.3356 665.288 46.4015 665.255 46.5331 665.189C46.6648 665.123 46.7635 665.156 46.8293 665.288C46.8293 665.354 46.7635 665.486 46.6319 665.685C46.566 665.883 46.5331 666.015 46.5331 666.081C46.7306 666.411 46.961 666.444 47.2243 666.18C47.2901 666.048 47.2901 665.751 47.2243 665.288C47.1585 664.826 47.1585 664.595 47.2243 664.595C47.3559 664.529 47.4218 664.529 47.4218 664.595C47.4876 664.661 47.5534 664.694 47.6192 664.694C47.7509 664.694 47.8167 664.595 47.8167 664.396C47.8167 664.198 47.8496 664.066 47.9155 664C48.6395 663.736 49.2978 663.604 49.8902 663.604C50.2193 663.604 50.6801 663.769 51.2726 664.099C51.9308 664.429 52.2599 664.892 52.2599 665.486C52.2599 665.817 52.0954 666.213 51.7662 666.676C51.7004 666.742 51.6346 666.874 51.5688 667.072C51.5029 667.204 51.4042 667.336 51.2726 667.468C51.2067 667.535 51.1409 667.568 51.0751 667.568C51.0751 667.502 51.0093 667.502 50.8776 667.568C50.8118 667.634 50.713 667.667 50.5814 667.667C50.5156 667.601 50.4168 667.568 50.2852 667.568C50.1535 667.568 50.1206 667.667 50.1864 667.865C50.3181 668.063 50.351 668.195 50.2852 668.261C50.2193 668.327 50.1535 668.327 50.0877 668.261C50.0219 668.195 49.9231 668.228 49.7915 668.36C49.7257 668.426 49.7586 668.492 49.8902 668.559C50.0877 668.559 50.1206 668.625 49.989 668.757C49.594 669.153 49.1003 669.583 48.5079 670.045C47.9813 670.441 47.4547 670.838 46.9281 671.234C46.8622 671.3 46.7964 671.3 46.7306 671.234C46.6648 671.102 46.5989 671.069 46.5331 671.135L45.842 672.126C45.1837 672.787 44.5254 673.48 43.8672 674.207C43.2089 674.934 42.5178 675.76 41.7937 676.685C41.5962 677.081 41.3658 677.444 41.1025 677.775C40.8392 678.105 40.4772 678.237 40.0164 678.171C40.0164 678.237 40.0822 678.336 40.2139 678.468C40.3455 678.535 40.3455 678.667 40.2139 678.865C39.0948 680.45 37.9758 682.102 36.8568 683.82C35.7377 685.538 34.6845 687.321 33.6972 689.171C33.2364 689.964 32.6769 690.988 32.0186 692.243L31.13 694.027C31.0641 694.225 30.9654 694.324 30.8338 694.324C30.7679 694.258 30.6692 694.225 30.5375 694.225C30.735 694.622 30.7679 695.051 30.6363 695.514C30.7021 695.514 30.735 695.547 30.735 695.613C31.9857 696.471 32.8743 697.066 33.4009 697.396C33.9934 697.727 34.9808 698.057 36.3631 698.387C36.8897 698.52 37.4163 698.685 37.9429 698.883C38.4695 699.015 39.029 699.081 39.6215 699.081C39.6873 699.081 39.6873 699.114 39.6215 699.18C39.6215 699.246 39.6544 699.279 39.7202 699.279C39.9835 699.279 40.2468 699.312 40.5101 699.378C40.7734 699.378 41.0367 699.378 41.3 699.378C41.3658 699.378 41.3987 699.378 41.3987 699.378C41.4646 699.312 41.5304 699.279 41.5962 699.279C41.7279 699.279 41.9253 699.345 42.1886 699.477C42.6494 699.477 43.1431 699.477 43.6697 699.477C44.2621 699.477 44.7887 699.444 45.2495 699.378C45.7761 699.312 46.2698 699.246 46.7306 699.18C47.2572 699.048 47.7509 698.949 48.2117 698.883C49.1332 698.817 50.0219 698.652 50.8776 698.387C51.7992 698.057 52.6878 697.76 53.5435 697.495C54.5309 697.165 55.5841 696.802 56.7032 696.405C57.888 695.943 59.1058 695.414 60.3565 694.82C60.4881 694.754 60.5539 694.919 60.5539 695.315C60.6198 695.646 60.7185 695.778 60.8502 695.712C60.9818 695.646 61.1464 695.381 61.3438 694.919C61.6071 694.456 61.7717 694.192 61.8375 694.126L62.7262 692.937L63.5161 692.045C63.6477 691.847 63.7794 691.583 63.911 691.252C64.0427 690.922 64.1414 690.658 64.2073 690.459C64.4047 689.931 64.5693 689.369 64.7009 688.775C64.8326 688.18 64.8984 687.553 64.8984 686.892C64.8984 686.562 65.063 686.396 65.3921 686.396C65.7212 686.396 65.8858 686.562 65.8858 686.892C65.8858 687.222 65.8858 687.586 65.8858 687.982C65.8858 688.378 65.82 688.742 65.6883 689.072C65.6883 689.138 65.6225 689.171 65.4909 689.171C65.425 689.105 65.3921 689.105 65.3921 689.171C65.3263 689.634 65.2605 690.129 65.1946 690.658C65.1288 691.12 64.9642 691.583 64.7009 692.045L64.1085 693.036C65.4909 692.309 66.8074 691.55 68.058 690.757C69.3745 689.898 70.4936 688.94 71.4151 687.883L72.3038 686.892C72.3696 686.76 72.4683 686.661 72.6 686.595C72.7317 686.529 72.8304 686.628 72.8962 686.892C72.6987 687.09 72.6658 687.354 72.7975 687.685C73.1266 687.619 73.3241 687.321 73.3899 686.793C73.4557 686.198 73.5545 685.67 73.6861 685.207C74.2785 684.48 74.871 683.688 75.4634 682.829C75.5292 682.763 75.628 682.73 75.7596 682.73C76.0229 682.73 76.2533 682.763 76.4508 682.829C76.6483 682.895 76.8457 682.796 77.0432 682.532C76.9116 682.201 76.7799 681.97 76.6483 681.838C76.5166 681.64 76.5495 681.375 76.747 681.045L77.0432 680.55C77.3723 679.955 77.7344 679.526 78.1293 679.261C78.5243 678.997 78.7876 678.435 78.9192 677.577C80.1699 675.33 80.7953 672.886 80.7953 670.243C80.7953 667.204 79.8408 664.396 77.9319 661.82C76.0887 659.177 73.2583 657.526 69.4404 656.865C69.3087 656.865 68.9138 656.766 68.2555 656.568C67.6631 656.303 67.3011 656.171 67.1694 656.171C67.0378 656.171 66.9061 656.171 66.7744 656.171C66.6428 656.105 66.5111 656.072 66.3795 656.072C66.1162 656.072 65.9187 656.105 65.7871 656.171C65.6554 656.171 65.3592 656.105 64.8984 655.973C64.306 655.643 63.549 655.444 62.6274 655.378C61.7717 655.246 61.278 655.147 61.1464 655.081L59.3691 655.477C59.04 655.477 58.7108 655.477 58.3817 655.477C58.1184 655.411 57.8551 655.378 57.5918 655.378C56.0778 655.378 54.8271 655.511 53.8397 655.775C52.9182 655.973 52.0954 656.105 51.3713 656.171L47.323 656.568C46.9281 656.369 46.566 656.435 46.2369 656.766H46.1382C45.6774 656.766 45.2166 656.832 44.7558 656.964C44.3609 657.03 43.933 657.129 43.4722 657.261C43.2089 657.327 42.9127 657.36 42.5836 657.36C42.3203 657.36 42.0241 657.426 41.695 657.559V657.658C41.4317 657.724 41.1354 657.79 40.8063 657.856C40.543 657.856 40.2468 657.922 39.9177 658.054H39.8189C39.5556 658.186 39.2923 658.318 39.029 658.45C38.8315 658.583 38.5682 658.616 38.2391 658.55C37.9758 658.616 37.6796 658.682 37.3505 658.748C37.0872 658.814 36.791 658.913 36.4618 659.045H36.2644C36.0669 659.045 35.8694 658.847 35.6719 658.45C35.4744 658.054 35.3757 657.79 35.3757 657.658C35.3099 658.054 35.2111 658.483 35.0795 658.946C35.0137 659.408 34.7833 659.64 34.3883 659.64V659.739C33.9276 659.805 33.4997 659.937 33.1047 660.135C32.7098 660.333 32.2819 660.498 31.8211 660.631C31.5578 660.697 31.2945 660.73 31.0312 660.73C30.7679 660.664 30.4717 660.631 30.1426 660.631C30.0109 660.631 29.8793 660.664 29.7476 660.73C29.616 660.73 29.4843 660.763 29.3527 660.829C29.1552 660.895 29.0236 661.027 28.9577 661.225C28.9577 661.423 28.8919 661.589 28.7603 661.721C28.497 661.985 28.1678 662.183 27.7729 662.315C27.3779 662.447 27.0488 662.58 26.7855 662.712C26.6538 662.778 26.4564 662.712 26.1931 662.514C25.9956 662.315 25.831 662.282 25.6994 662.414C25.6335 662.48 25.5677 662.646 25.5019 662.91C25.5019 663.174 25.4361 663.339 25.3044 663.405H25.2057L22.836 664.495C22.5068 664.628 22.1119 664.826 21.6511 665.09C21.1903 665.354 20.7954 665.52 20.4662 665.586C20.4004 665.586 20.3675 665.453 20.3675 665.189C20.3675 664.925 20.3017 664.859 20.17 664.991C19.8409 665.123 19.4789 665.486 19.0839 666.081C18.7548 666.61 18.4257 666.973 18.0965 667.171C17.7674 667.435 17.4383 667.568 17.1091 667.568C16.78 667.568 16.4838 667.7 16.2205 667.964C16.023 668.096 15.8256 668.393 15.6281 668.856C15.4964 669.252 15.3319 669.55 15.1344 669.748L13.7521 671.631C13.6204 671.763 13.4887 671.895 13.3571 672.027C13.2254 672.159 13.1596 672.324 13.1596 672.523C12.7647 673.183 12.5672 673.943 12.5672 674.802C12.5672 676.255 13.0609 677.312 14.0483 677.973C15.1015 678.568 16.2534 679.03 17.5041 679.36H17.6028C18.0636 679.691 18.4915 679.823 18.8864 679.757C19.1497 679.625 19.3801 679.559 19.5776 679.559C19.8409 679.559 20.0713 679.691 20.2688 679.955L21.6511 680.252C22.3752 680.45 22.7372 680.649 22.7372 680.847C22.7372 680.979 22.5727 681.111 22.2435 681.243C21.9802 681.309 21.684 681.342 21.3549 681.342C20.2359 681.342 18.8535 681.111 17.2079 680.649C15.6281 680.186 14.2128 679.459 12.9621 678.468C11.7115 677.411 10.9874 676.123 10.7899 674.604C10.7899 674.538 10.6912 674.372 10.4937 674.108C10.362 673.844 10.2633 673.613 10.1975 673.414C10.1317 673.084 10.0658 672.787 10 672.523C10 672.192 10 671.895 10 671.631C10 669.517 10.8228 667.568 12.4685 665.784C12.7976 665.453 13.0938 665.222 13.3571 665.09C13.6204 664.958 13.9495 664.76 14.3445 664.495C14.6736 664.231 14.8382 664.033 14.8382 663.901C14.8382 663.703 15.0356 663.471 15.4306 663.207C15.9572 662.811 16.6484 662.414 17.5041 662.018C18.3598 661.556 19.051 661.192 19.5776 660.928V660.829H19.7751C20.0384 660.829 20.3017 660.697 20.565 660.432C21.7498 659.838 23.0005 659.309 24.317 658.847C25.6994 658.318 27.0817 657.823 28.464 657.36C28.859 657.162 29.221 657.063 29.5502 657.063C29.8793 657.063 30.1426 657.162 30.3401 657.36C30.3401 657.228 30.3401 657.129 30.3401 657.063C30.3401 656.931 30.373 656.832 30.4388 656.766V656.667C31.9528 656.204 33.4668 655.742 34.9808 655.279C36.4947 654.751 37.9758 654.486 39.424 654.486H39.5227C39.9177 654.486 40.2139 654.42 40.4114 654.288L41.0038 654.189H41.1025C41.4975 654.321 41.8595 654.255 42.1886 653.991C43.8343 653.661 45.4141 653.462 46.9281 653.396C48.4421 653.33 49.7257 653.264 50.7789 653.198C50.9763 653.264 51.1738 653.297 51.3713 653.297C51.5688 653.231 51.7333 653.198 51.865 653.198L52.8524 653.099C53.0498 653.099 53.2473 653.132 53.4448 653.198C53.7081 653.198 53.9385 653.165 54.136 653.099L59.6653 653H59.764C59.9615 653 60.1261 653.099 60.2577 653.297C60.4552 653.429 60.6527 653.363 60.8502 653.099C61.3768 653.099 62.1667 653.198 63.2199 653.396C64.3389 653.595 65.4579 653.793 66.577 653.991C67.696 654.123 68.5188 654.255 69.0454 654.387C70.0328 654.586 71.4151 655.048 73.1924 655.775C75.0355 656.435 76.8787 657.459 78.7218 658.847C80.5649 660.168 82.046 661.952 83.165 664.198C84.3498 666.378 84.7777 669.12 84.4486 672.423C84.3828 673.613 84.1195 674.736 83.6587 675.793C83.1979 676.85 82.7042 677.94 82.1776 679.063L81.1902 681.243C81.1244 681.309 81.0257 681.408 80.894 681.541C80.7624 681.607 80.6307 681.706 80.4991 681.838C80.4332 682.036 80.3345 682.201 80.2028 682.333C80.0712 682.399 79.9395 682.532 79.8079 682.73C79.5446 683.126 79.2484 683.523 78.9192 683.919C78.5901 684.249 78.261 684.646 77.9319 685.108L77.7344 685.405C76.8128 686.859 75.6609 688.18 74.2785 689.369C72.8962 690.492 71.5139 691.517 70.1315 692.441V692.541C69.9999 692.607 69.8353 692.706 69.6379 692.838C69.5062 692.904 69.3746 693.003 69.2429 693.135L69.1442 693.234H69.0454C68.9138 693.3 68.7492 693.366 68.5517 693.432C68.3543 693.498 68.1897 693.664 68.058 693.928C67.7947 694.126 67.5314 694.225 67.2681 694.225C66.4124 694.688 65.6225 695.084 64.8984 695.414C64.1743 695.679 63.549 695.943 63.0224 696.207C63.0224 696.339 62.9237 696.538 62.7262 696.802C62.5287 697.066 62.3641 697.264 62.2325 697.396C61.1135 698.321 60.3565 699.081 59.9615 699.676C59.5666 700.27 59.0729 700.733 58.4804 701.063C58.4146 701.129 58.3159 701.162 58.1842 701.162C57.9209 701.162 57.7234 701.261 57.5918 701.459C57.4601 701.658 57.3285 701.856 57.1968 702.054C56.8677 702.384 56.2095 702.715 55.2221 703.045C54.3005 703.375 53.6094 703.706 53.1486 704.036C52.9511 704.102 52.7207 704.168 52.4574 704.234C52.2599 704.366 52.1612 704.432 52.1612 704.432H51.6675C51.6017 704.432 51.47 704.498 51.2726 704.631C51.0751 704.829 50.9105 704.961 50.7789 705.027C50.6472 705.093 50.5156 705.126 50.3839 705.126C50.2523 705.126 50.1535 705.192 50.0877 705.324C49.7586 705.324 49.3965 705.39 49.0016 705.523C48.9358 705.523 48.6066 705.523 48.0142 705.523C47.4218 705.589 47.0597 705.655 46.9281 705.721C46.8622 705.787 46.6319 705.886 46.2369 706.018C45.842 706.15 45.5787 706.216 45.447 706.216C45.3812 706.216 45.3154 706.183 45.2495 706.117C45.1837 706.117 45.085 706.15 44.9533 706.216C44.8875 706.348 44.7887 706.414 44.6571 706.414C44.5913 706.414 44.4596 706.381 44.2621 706.315C44.1305 706.315 43.9988 706.315 43.8672 706.315C43.8014 706.249 43.6697 706.282 43.4722 706.414C43.3406 706.547 43.2089 706.613 43.0773 706.613C43.0115 706.613 42.9456 706.58 42.8798 706.514C42.8798 706.514 42.8469 706.514 42.7811 706.514C42.6494 706.514 42.5178 706.547 42.3861 706.613C42.2545 706.679 42.1228 706.712 41.9912 706.712C41.5304 706.712 41.1025 706.679 40.7076 706.613C40.3126 706.547 39.9177 706.514 39.5227 706.514C39.4569 706.514 39.2594 706.414 38.9303 706.216C38.667 706.018 38.5024 705.919 38.4366 705.919C37.9758 705.919 37.515 705.886 37.0543 705.82C36.6593 705.82 36.2644 705.787 35.8694 705.721C35.8036 705.721 35.7377 705.655 35.6719 705.523C35.6719 705.456 35.6061 705.423 35.4744 705.423H35.277C35.2111 705.423 35.0466 705.357 34.7833 705.225C34.5858 705.093 34.4542 704.994 34.3883 704.928L34.2896 704.829C34.0263 704.763 33.8617 704.664 33.7959 704.532C33.7959 704.399 33.7301 704.333 33.5984 704.333C33.5326 704.333 33.4997 704.333 33.4997 704.333C33.4997 704.399 33.4668 704.432 33.4009 704.432C33.2693 704.432 33.2035 704.366 33.2035 704.234C33.006 704.102 32.6769 703.937 32.2161 703.739C31.8211 703.541 31.5578 703.309 31.4262 703.045C31.1629 702.979 30.9983 702.913 30.9325 702.847C30.9325 702.781 30.8667 702.649 30.735 702.45L30.3401 702.252L29.3527 701.36C29.3527 701.162 29.3198 701.063 29.2539 701.063L28.9577 700.865C28.9577 700.601 28.859 700.468 28.6615 700.468C28.5299 700.072 28.464 699.874 28.464 699.874C27.8716 701.195 27.345 702.483 26.8842 703.739C26.4893 704.994 26.1272 706.15 25.7981 707.207C25.6665 707.736 25.469 708 25.2057 708ZM42.4849 705.027C42.6165 705.027 42.7152 704.994 42.7811 704.928C42.9127 704.862 43.0115 704.796 43.0773 704.73H43.4722C43.933 704.465 44.1634 704.465 44.1634 704.73C44.1634 704.994 44.328 704.994 44.6571 704.73H45.1508C45.2166 704.532 45.3153 704.432 45.447 704.432C45.6445 704.432 45.7761 704.399 45.842 704.333C45.9736 704.333 46.0394 704.267 46.0394 704.135C46.1053 704.069 46.2369 704.036 46.4344 704.036C46.5002 704.036 46.5989 704.102 46.7306 704.234C46.9939 704.234 47.5205 704.102 48.3104 703.838C49.1661 703.574 49.6269 703.441 49.6927 703.441C49.7586 703.508 49.8573 703.441 49.989 703.243C50.1864 703.045 50.3181 702.979 50.3839 703.045C50.3839 702.979 50.4826 702.913 50.6801 702.847C50.8776 702.847 51.0093 702.814 51.0751 702.748C51.47 702.55 51.7992 702.45 52.0625 702.45C52.1283 702.384 52.2929 702.252 52.5561 702.054C52.8853 701.922 53.0498 701.823 53.0498 701.757C53.1815 701.625 53.379 701.526 53.6423 701.459C53.9056 701.393 54.0701 701.327 54.136 701.261C54.3334 701.261 54.9917 700.931 56.1107 700.27C57.2956 699.544 58.3817 698.685 59.3691 697.694C58.2501 698.09 57.1639 698.42 56.1107 698.685C55.1233 698.883 54.5967 698.982 54.5309 698.982C54.3993 699.114 54.3005 699.18 54.2347 699.18C53.9714 699.048 53.8397 698.982 53.8397 698.982L53.741 699.081C53.6752 699.081 53.6094 699.114 53.5435 699.18C53.4777 699.246 53.3461 699.279 53.1486 699.279C53.0828 699.213 52.8853 699.279 52.5561 699.477C52.2929 699.61 52.1283 699.676 52.0625 699.676C51.9966 699.676 51.8979 699.709 51.7662 699.775C51.7004 699.775 51.6017 699.742 51.47 699.676C51.2067 699.94 50.5156 700.138 49.3965 700.27C48.3433 700.336 47.6522 700.369 47.323 700.369H47.2243C47.1585 700.303 47.0597 700.303 46.9281 700.369C46.8622 700.369 46.7635 700.369 46.6319 700.369C46.6319 700.435 46.5989 700.501 46.5331 700.568H45.9407C45.6774 700.568 45.4141 700.601 45.1508 700.667C44.9533 700.733 44.7229 700.766 44.4596 700.766L44.3609 700.667C44.2951 700.667 44.1963 700.7 44.0647 700.766C43.933 700.832 43.8343 700.865 43.7685 700.865C43.7026 700.865 43.6368 700.832 43.571 700.766C43.571 700.634 43.5052 700.568 43.3735 700.568C43.3077 700.568 43.2089 700.634 43.0773 700.766C43.0115 700.832 42.9456 700.832 42.8798 700.766H42.4849C42.2874 700.766 42.1886 700.766 42.1886 700.766C42.1228 700.766 42.057 700.799 41.9912 700.865C41.9912 700.865 41.9583 700.865 41.8924 700.865C41.8924 700.865 41.8266 700.799 41.695 700.667C41.6291 700.667 41.4975 700.733 41.3 700.865C41.1683 700.931 41.0367 700.931 40.905 700.865H40.7076C40.5759 700.733 40.5101 700.667 40.5101 700.667C40.4443 700.667 40.4114 700.7 40.4114 700.766H39.5227C39.1278 700.766 38.7328 700.634 38.3379 700.369C37.9429 700.105 37.5809 699.973 37.2517 699.973C37.1859 699.973 37.1201 700.006 37.0543 700.072C37.0543 700.072 37.0213 700.072 36.9555 700.072C36.8897 700.072 36.8239 700.072 36.758 700.072C36.758 700.006 36.7251 699.973 36.6593 699.973C36.6593 699.973 36.6264 699.973 36.5606 699.973C36.5606 699.973 36.5277 700.006 36.4618 700.072C36.4618 700.006 36.4289 699.973 36.3631 699.973C36.3631 699.907 36.3631 699.874 36.3631 699.874L35.4744 699.676C35.4744 699.477 35.4086 699.378 35.277 699.378C35.2111 699.18 34.7833 698.982 33.9934 698.784C33.2035 698.586 32.7427 698.453 32.611 698.387C32.5452 698.387 32.4136 698.321 32.2161 698.189C32.0844 698.057 32.0186 698.024 32.0186 698.09H31.9199C31.7224 698.09 31.4591 697.958 31.13 697.694C30.8667 697.363 30.6034 697.165 30.3401 697.099C30.1426 696.901 30.0438 696.703 30.0438 696.505H29.9451L29.8464 696.604L29.6489 697.198C29.6489 697.264 29.6818 697.396 29.7476 697.595C29.8135 697.793 29.8135 697.958 29.7476 698.09C29.8793 698.222 29.9451 698.387 29.9451 698.586C29.9451 698.718 30.0109 698.817 30.1426 698.883C30.2084 699.081 30.2742 699.279 30.3401 699.477C30.4717 699.676 30.5705 699.874 30.6363 700.072C30.6363 700.138 30.8008 700.27 31.13 700.468C31.4591 700.601 31.6237 700.733 31.6237 700.865C31.6895 700.931 31.7553 700.997 31.8211 701.063C31.9528 701.129 32.0186 701.228 32.0186 701.36C32.0844 701.426 32.1503 701.526 32.2161 701.658C32.2819 701.79 32.3148 701.922 32.3148 702.054C32.4465 702.054 32.5452 702.087 32.611 702.153C32.6769 702.285 32.8414 702.483 33.1047 702.748C33.368 703.078 33.5655 703.276 33.6972 703.342C33.763 703.342 33.7959 703.309 33.7959 703.243C33.7959 703.243 33.8288 703.243 33.8946 703.243C34.0263 703.309 34.1909 703.441 34.3883 703.64C34.5858 703.904 34.7175 704.036 34.7833 704.036C34.9149 704.036 34.9808 704.036 34.9808 704.036C35.5074 704.102 36.034 704.168 36.5606 704.234C37.0872 704.366 37.6138 704.465 38.1404 704.532C38.2062 704.532 38.3049 704.565 38.4366 704.631C38.5682 704.763 38.7328 704.829 38.9303 704.829C39.4569 704.895 40.0822 704.928 40.8063 704.928C41.5962 704.928 42.1228 704.928 42.3861 704.928L42.4849 705.027Z" fill="white"/>
<path d="M86.5352 687.189C86.0744 687.189 85.6795 687.156 85.3503 687.09C85.0212 687.024 84.8896 686.958 84.9554 686.892C85.0212 686.76 85.0212 686.628 84.9554 686.495C84.8896 686.297 84.8566 686.165 84.8566 686.099C84.8566 685.967 84.9554 685.769 85.1529 685.505C85.4162 685.24 85.5807 684.943 85.6465 684.613C85.9757 684.613 86.3048 684.447 86.6339 684.117C86.6339 684.249 86.6998 684.381 86.8314 684.514C86.8314 684.447 86.8643 684.381 86.9301 684.315C86.9301 684.315 86.996 684.348 87.1276 684.414C87.3251 684.414 87.4238 684.447 87.4238 684.514C87.6871 684.381 87.9175 684.282 88.115 684.216C88.3125 684.15 88.5429 684.084 88.8062 684.018C88.872 684.018 88.872 684.051 88.8062 684.117C88.8062 684.183 88.8391 684.249 88.9049 684.315L89.2011 684.216C89.2011 684.282 89.5632 684.249 90.2872 684.117C91.0113 683.985 91.4063 683.919 91.4721 683.919H91.8671C92.3937 683.919 92.7886 683.853 93.0519 683.721C93.1177 683.655 93.3152 683.754 93.6443 684.018C94.0393 684.216 94.2697 684.249 94.3355 684.117C94.4672 684.051 94.7963 683.985 95.3229 683.919C95.9153 683.853 96.2774 683.919 96.409 684.117C96.4748 684.051 96.5736 684.018 96.7052 684.018C96.8369 684.282 96.8698 684.48 96.804 684.613C96.7381 684.679 96.7381 684.745 96.804 684.811C96.9356 684.811 97.0343 684.778 97.1002 684.712C97.166 684.646 97.2318 684.646 97.2977 684.712C97.3635 684.712 97.3964 684.679 97.3964 684.613C97.3964 684.547 97.4293 684.48 97.4951 684.414C97.6926 684.414 97.8901 684.414 98.0876 684.414C98.285 684.414 98.5154 684.381 98.7787 684.315C98.9104 684.58 99.0091 684.712 99.0749 684.712C99.2066 684.712 99.4041 684.646 99.6674 684.514C99.9965 684.315 100.194 684.249 100.26 684.315C100.26 684.315 100.391 684.447 100.655 684.712C100.786 684.58 100.852 684.514 100.852 684.514C101.181 684.514 101.543 684.48 101.938 684.414C102.399 684.282 102.662 684.249 102.728 684.315C102.86 684.315 102.893 684.348 102.827 684.414C102.761 684.48 102.761 684.547 102.827 684.613C102.893 684.613 102.926 684.58 102.926 684.514C102.992 684.447 103.057 684.414 103.123 684.414C103.255 684.48 103.321 684.547 103.321 684.613C103.321 684.613 103.354 684.646 103.419 684.712C103.617 684.447 103.847 684.216 104.111 684.018C104.44 683.82 104.835 683.787 105.295 683.919C105.427 683.919 105.46 683.952 105.394 684.018C105.328 684.018 105.328 684.018 105.394 684.018C106.184 684.216 106.579 684.381 106.579 684.514C106.579 684.712 106.316 684.877 105.789 685.009C105.263 685.141 104.966 685.207 104.9 685.207C104.835 685.141 104.802 685.108 104.802 685.108C104.868 685.108 104.9 685.108 104.9 685.108H104.703C104.571 685.108 104.242 685.174 103.716 685.306C103.189 685.372 102.761 685.438 102.432 685.505C102.235 685.571 101.938 685.703 101.543 685.901C101.148 686.033 100.885 686.099 100.753 686.099C100.688 686.099 100.49 686.165 100.161 686.297C99.8319 686.363 99.6015 686.396 99.4699 686.396C99.4041 686.33 99.4041 686.297 99.4699 686.297C99.5357 686.231 99.5028 686.165 99.3712 686.099C99.3053 686.099 99.2724 686.165 99.2724 686.297C99.3382 686.363 99.3053 686.396 99.1737 686.396C99.042 686.396 98.8446 686.396 98.5812 686.396C98.3838 686.33 98.1863 686.297 97.9888 686.297C97.4622 686.297 97.1002 686.429 96.9027 686.694H96.7052C96.6394 686.694 96.5736 686.661 96.5077 686.595C96.4419 686.462 96.3432 686.396 96.2115 686.396C95.9482 686.396 95.7178 686.495 95.5204 686.694C95.4545 686.826 95.1583 686.925 94.6317 686.991C94.1709 687.057 93.6114 687.09 92.9532 687.09C92.1633 687.09 91.3734 687.057 90.5835 686.991C89.7935 686.925 89.2999 686.859 89.1024 686.793C89.0366 686.793 88.9707 686.859 88.9049 686.991C88.9049 687.057 88.8391 687.057 88.7074 686.991C88.6416 686.991 88.6416 686.991 88.7074 686.991C88.7733 686.925 88.7403 686.892 88.6087 686.892C88.5429 686.892 88.4112 686.991 88.2137 687.189C88.2796 687.123 88.2796 687.057 88.2137 686.991C88.0163 687.057 87.753 687.123 87.4238 687.189C87.1605 687.189 86.8643 687.189 86.5352 687.189Z" fill="white"/>
<path d="M131.557 703.937C131.36 703.937 131.031 703.904 130.57 703.838C130.175 703.838 129.945 703.805 129.879 703.739C129.813 703.607 129.879 703.474 130.076 703.342C130.34 703.276 130.34 703.21 130.076 703.144C129.813 703.078 129.616 702.946 129.484 702.748C129.352 702.616 129.122 702.55 128.793 702.55C128.464 702.55 128.003 702.682 127.41 702.946C126.818 703.21 126.423 703.309 126.226 703.243C124.843 702.913 123.494 702.45 122.177 701.856C120.927 701.327 119.742 700.634 118.623 699.775C118.491 699.643 118.392 699.411 118.327 699.081C118.261 698.751 118.03 698.553 117.635 698.486C117.175 698.42 116.813 698.189 116.549 697.793C116.286 697.33 115.957 696.934 115.562 696.604C115.101 696.207 114.772 695.745 114.575 695.216C114.443 694.622 114.311 694.06 114.18 693.532C113.916 692.805 113.752 692.144 113.686 691.55C113.686 690.955 113.686 690.261 113.686 689.468C113.686 688.94 113.785 687.982 113.982 686.595C114.245 685.207 114.377 684.249 114.377 683.721V683.622C114.838 682.565 115.101 681.838 115.167 681.441C115.299 681.045 115.397 680.748 115.463 680.55C115.529 680.285 115.726 679.922 116.056 679.459C116.385 678.997 116.977 678.171 117.833 676.982C118.228 676.453 118.458 676.156 118.524 676.09C118.656 676.024 118.853 675.859 119.116 675.595C119.511 675.066 119.972 674.438 120.499 673.712C121.025 672.985 121.519 672.423 121.98 672.027C122.704 671.432 123.56 670.805 124.547 670.144C125.534 669.417 126.423 668.823 127.213 668.36C127.476 668.162 127.707 668.063 127.904 668.063C128.102 667.997 128.332 667.931 128.595 667.865C128.793 667.799 129.221 667.568 129.879 667.171C130.537 666.709 131.195 666.279 131.854 665.883C132.578 665.486 133.006 665.321 133.137 665.387C133.203 665.387 133.236 665.42 133.236 665.486C133.302 665.486 133.368 665.486 133.434 665.486C133.565 665.486 133.73 665.42 133.927 665.288C134.125 665.09 134.289 664.958 134.421 664.892C135.145 664.429 135.902 664.198 136.692 664.198C137.284 664.132 137.778 664.033 138.173 663.901C138.568 663.769 138.996 663.637 139.457 663.505C139.851 663.372 140.51 663.207 141.431 663.009C142.353 662.811 143.209 662.712 143.998 662.712C144.459 662.712 144.821 662.778 145.085 662.91C145.48 663.108 145.743 663.207 145.875 663.207C146.006 663.207 146.138 663.207 146.269 663.207C146.401 663.141 146.566 663.075 146.763 663.009C146.961 662.943 147.191 662.91 147.454 662.91C147.586 662.91 147.685 662.976 147.751 663.108C147.882 663.174 148.08 663.339 148.343 663.604C148.409 663.67 148.54 663.703 148.738 663.703C148.87 663.703 149.001 663.67 149.133 663.604C149.33 663.538 149.495 663.505 149.627 663.505C149.956 663.505 150.186 663.637 150.318 663.901C150.515 664.099 150.746 664.231 151.009 664.297C151.338 664.363 151.634 664.429 151.898 664.495C152.161 664.495 152.424 664.562 152.687 664.694C153.28 664.958 153.905 665.42 154.563 666.081C155.288 666.676 155.715 667.336 155.847 668.063C155.847 668.195 155.847 668.393 155.847 668.658C155.847 668.856 155.715 668.856 155.452 668.658C154.531 667.799 153.642 667.072 152.786 666.477C151.996 665.817 150.91 665.486 149.528 665.486C148.277 665.486 146.73 665.619 144.887 665.883C143.044 666.147 141.267 666.544 139.555 667.072C137.844 667.535 136.494 668.096 135.507 668.757C135.178 669.021 134.947 669.219 134.816 669.351C134.684 669.417 134.355 669.45 133.828 669.45C133.17 669.45 132.512 669.715 131.854 670.243C131.261 670.706 130.669 671.102 130.076 671.432C129.813 671.565 129.484 671.664 129.089 671.73C128.694 671.796 128.398 671.928 128.2 672.126C128.069 672.258 128.003 672.357 128.003 672.423C128.003 672.489 127.937 672.589 127.805 672.721L127.707 672.82C126.917 673.613 126.127 674.207 125.337 674.604C124.613 675 123.79 675.562 122.869 676.288C122.803 676.288 122.605 676.553 122.276 677.081C121.947 677.544 121.618 678.006 121.289 678.468C120.96 678.931 120.729 679.195 120.598 679.261C120.071 679.393 119.61 679.757 119.215 680.351C118.82 680.88 118.524 681.342 118.327 681.739C118.129 682.003 117.866 682.333 117.537 682.73C117.273 683.06 117.043 683.39 116.845 683.721C116.385 684.58 116.056 685.505 115.858 686.495C115.661 687.486 115.562 688.511 115.562 689.568C115.562 690.03 115.562 690.526 115.562 691.054C115.628 691.583 115.694 692.111 115.759 692.64C115.825 693.102 115.858 693.432 115.858 693.631C115.858 693.763 116.023 693.994 116.352 694.324C116.681 694.721 116.944 695.15 117.142 695.613C117.405 696.009 117.701 696.372 118.03 696.703C118.096 696.769 118.129 696.868 118.129 697C118.129 697.529 118.195 697.826 118.327 697.892C118.524 697.958 118.722 697.991 118.919 697.991C119.116 697.991 119.281 698.222 119.413 698.685L119.61 698.883C120.4 699.015 121.124 699.279 121.782 699.676C122.441 700.006 123.132 700.27 123.856 700.468C124.317 700.535 124.777 700.634 125.238 700.766C125.765 700.832 126.226 700.931 126.621 701.063C126.818 701.129 126.983 701.228 127.114 701.36C127.312 701.559 127.443 701.691 127.509 701.757H127.608C127.74 701.757 127.838 701.691 127.904 701.559C128.036 701.426 128.2 701.36 128.398 701.36C128.595 701.36 128.859 701.327 129.188 701.261C129.517 701.261 129.747 701.327 129.879 701.459C130.208 701.658 130.504 701.757 130.768 701.757C131.031 701.757 131.294 701.691 131.557 701.559C131.689 701.492 132.018 701.459 132.545 701.459C133.137 701.459 133.466 701.459 133.532 701.459C133.664 701.526 133.828 701.625 134.026 701.757C134.289 701.889 134.52 701.922 134.717 701.856C134.849 701.724 134.882 701.625 134.816 701.559C134.816 701.492 134.947 701.426 135.211 701.36L137.087 701.162C137.218 701.096 137.35 701.063 137.482 701.063C138.074 700.997 138.765 700.865 139.555 700.667C140.411 700.402 141.069 700.237 141.53 700.171C142.32 700.171 143.143 699.907 143.998 699.378C144.986 698.85 146.006 698.387 147.059 697.991C148.113 697.529 149.166 697.099 150.219 696.703C150.943 696.438 151.568 696.108 152.095 695.712C152.622 695.315 153.148 694.919 153.675 694.523C154.201 694.192 154.695 693.862 155.156 693.532C155.683 693.201 156.143 692.871 156.538 692.541C156.736 692.342 156.9 692.111 157.032 691.847C157.164 691.583 157.361 691.384 157.624 691.252C159.336 690.261 160.718 689.138 161.771 687.883C162.825 686.628 164.075 685.372 165.523 684.117C165.853 683.787 166.083 683.523 166.215 683.324C166.346 683.126 166.511 682.862 166.708 682.532C167.169 681.805 167.761 681.078 168.486 680.351C169.21 679.559 169.802 678.634 170.263 677.577C170.46 677.114 170.757 676.817 171.151 676.685C171.546 676.486 171.777 676.222 171.843 675.892C171.843 675.892 171.744 675.628 171.546 675.099C171.415 674.505 171.514 674.108 171.843 673.91C172.172 673.712 172.336 673.48 172.336 673.216C172.336 672.82 172.139 672.456 171.744 672.126C171.415 671.73 171.25 671.399 171.25 671.135C171.316 669.417 171.184 668.063 170.855 667.072C170.592 666.015 170.098 665.057 169.374 664.198C168.65 663.339 167.729 662.381 166.61 661.324C165.359 660.135 163.647 659.276 161.475 658.748C159.369 658.153 157.46 657.757 155.748 657.559C155.353 657.559 154.926 657.459 154.465 657.261C154.07 657.063 153.675 657.03 153.28 657.162C153.148 657.228 152.819 657.261 152.292 657.261C151.832 657.261 151.305 657.261 150.713 657.261C150.12 657.195 149.758 657.129 149.627 657.063C148.968 656.931 148.376 656.964 147.849 657.162C147.323 657.294 146.763 657.36 146.171 657.36C145.776 657.36 145.48 657.327 145.282 657.261C145.085 657.195 144.887 657.162 144.69 657.162C144.426 657.162 144.196 657.228 143.998 657.36C143.867 657.426 143.636 657.526 143.307 657.658C141.464 658.318 139.489 658.814 137.383 659.144C137.317 659.144 136.824 659.276 135.902 659.541C134.98 659.805 134.059 660.102 133.137 660.432C132.216 660.697 131.656 660.862 131.459 660.928C130.8 661.192 130.175 661.423 129.583 661.622C128.99 661.82 128.431 662.117 127.904 662.514C127.773 662.58 127.608 662.679 127.41 662.811C127.213 662.943 127.016 663.009 126.818 663.009C126.357 663.075 125.962 663.24 125.633 663.505C125.37 663.703 125.074 663.901 124.745 664.099C124.481 664.297 124.119 664.429 123.658 664.495C123.263 664.562 122.934 664.694 122.671 664.892C122.539 664.958 122.474 665.156 122.474 665.486C122.539 665.817 122.474 666.015 122.276 666.081C122.013 666.213 121.684 666.312 121.289 666.378C120.96 666.378 120.63 666.411 120.301 666.477C119.841 666.544 119.38 666.874 118.919 667.468C118.458 667.997 118.063 668.426 117.734 668.757C117.339 669.021 116.813 669.517 116.154 670.243C115.496 670.904 114.969 671.366 114.575 671.631C114.245 671.829 113.916 671.961 113.587 672.027C113.258 672.093 113.061 672.423 112.995 673.018L111.711 674.207C111.25 674.273 110.954 674.471 110.822 674.802C110.691 675.066 110.46 675.33 110.131 675.595C109.605 675.991 109.276 676.288 109.144 676.486C109.078 676.619 108.782 676.916 108.255 677.378C107.794 677.841 107.367 678.072 106.972 678.072C106.774 678.072 106.675 677.973 106.675 677.775C106.675 677.312 106.972 676.652 107.564 675.793C108.157 675.462 108.584 675 108.848 674.405C109.111 673.811 109.506 673.315 110.033 672.919C110.559 672.589 110.954 672.225 111.217 671.829C111.547 671.432 111.876 671.003 112.205 670.541C112.336 670.408 112.435 670.342 112.501 670.342C113.028 669.946 113.455 669.517 113.785 669.054C114.18 668.526 114.673 668.129 115.266 667.865C115.858 667.601 116.352 667.27 116.747 666.874C117.142 666.411 117.57 666.015 118.03 665.685C121.256 663.438 124.777 661.423 128.595 659.64C132.413 657.79 136.231 656.634 140.049 656.171C140.576 656.105 141.036 656.039 141.431 655.973C141.892 655.841 142.353 655.742 142.814 655.676C143.011 655.61 143.439 655.544 144.097 655.477C144.821 655.345 145.512 655.246 146.171 655.18C146.895 655.048 147.323 655.015 147.454 655.081C147.652 655.081 147.849 655.114 148.047 655.18C148.244 655.18 148.409 655.18 148.54 655.18C149.001 655.18 149.363 655.147 149.627 655.081C149.956 655.015 150.351 654.982 150.811 654.982C153.642 655.048 156.308 655.411 158.809 656.072C161.311 656.733 163.746 657.823 166.116 659.342C166.445 659.607 166.708 659.871 166.906 660.135C167.103 660.333 167.399 660.498 167.794 660.631C168.124 660.829 168.453 661.126 168.782 661.523C169.243 662.183 169.769 662.844 170.362 663.505C170.954 664.099 171.448 664.76 171.843 665.486C172.567 666.808 173.093 668.195 173.422 669.649C173.817 671.102 174.015 672.556 174.015 674.009C174.015 679.096 172.336 683.423 168.979 686.991C168.716 687.255 168.288 687.42 167.696 687.486C167.169 687.486 166.84 687.553 166.708 687.685C166.642 687.751 166.741 687.949 167.004 688.279C167.268 688.61 167.334 688.841 167.202 688.973C166.28 689.898 165.326 690.757 164.339 691.55C164.273 691.616 164.207 691.517 164.141 691.252C164.075 690.922 163.944 690.724 163.746 690.658C163.549 690.526 163.417 690.724 163.351 691.252C163.351 691.781 163.285 692.111 163.154 692.243L162.265 691.252C162.133 691.318 162.133 691.649 162.265 692.243C162.397 692.838 162.397 693.201 162.265 693.333C160.817 694.39 159.336 695.381 157.822 696.306C156.308 697.231 154.695 698.09 152.984 698.883C149.561 700.535 145.973 701.79 142.221 702.649C138.535 703.574 134.98 704.003 131.557 703.937Z" fill="white"/>
<path d="M187.15 701.162C184.715 701.162 182.871 700.733 181.621 699.874C180.37 699.015 179.514 697.991 179.054 696.802C178.593 695.613 178.461 694.258 178.659 692.739L178.856 692.441C178.988 692.243 179.087 691.979 179.152 691.649C179.218 691.318 179.284 691.12 179.35 691.054L180.14 691.252C180.271 691.318 180.37 691.219 180.436 690.955C180.502 690.691 180.469 690.592 180.337 690.658C179.942 690.724 179.745 690.79 179.745 690.856C179.745 690.922 179.679 690.79 179.547 690.459L179.844 690.261L179.745 690.162C179.745 690.03 179.811 689.964 179.942 689.964L179.745 689.667C179.745 689.667 180.008 689.7 180.535 689.766C181.127 689.766 181.358 689.7 181.226 689.568C181.292 689.568 181.259 689.535 181.127 689.468C180.995 689.336 180.93 689.237 180.93 689.171C180.864 689.237 180.831 689.237 180.831 689.171C180.831 689.039 180.601 689.039 180.14 689.171C179.942 689.237 179.844 689.204 179.844 689.072C179.844 688.94 179.844 688.874 179.844 688.874C180.041 688.808 180.238 688.742 180.436 688.676C180.633 688.544 180.765 688.345 180.831 688.081C180.897 687.42 180.963 687.057 181.028 686.991C181.094 686.925 181.16 686.826 181.226 686.694C181.292 686.562 181.39 686.396 181.522 686.198C181.654 685.934 181.752 685.802 181.818 685.802C181.752 685.736 181.72 685.637 181.72 685.505C181.72 685.174 181.95 685.042 182.411 685.108C182.937 685.174 183.102 684.976 182.904 684.514C182.707 684.249 182.806 684.117 183.201 684.117L183.102 684.018C183.365 683.886 183.53 683.82 183.596 683.82C183.727 683.754 183.661 683.622 183.398 683.423L183.793 682.532C183.859 682.399 183.991 682.201 184.188 681.937C184.451 681.607 184.846 681.276 185.373 680.946C185.373 680.946 185.34 680.979 185.274 681.045C185.274 681.045 185.274 681.078 185.274 681.144H185.373C185.57 681.144 185.932 680.946 186.459 680.55C186.393 680.483 186.262 680.45 186.064 680.45C185.932 680.384 185.834 680.318 185.768 680.252C185.702 680.054 186.031 679.625 186.755 678.964C187.479 678.303 188.269 677.676 189.125 677.081C189.981 676.42 190.507 676.024 190.705 675.892C191.692 675.363 192.778 674.934 193.963 674.604C195.214 674.207 196.3 674.108 197.221 674.306C197.419 674.372 197.715 674.637 198.11 675.099C198.571 675.562 198.9 675.694 199.097 675.495C199.69 674.967 200.381 674.438 201.171 673.91C201.961 673.381 202.422 673.15 202.553 673.216C202.882 673.282 203.212 673.414 203.541 673.613C203.87 673.745 204.034 674.141 204.034 674.802C204.034 675.264 204.001 675.661 203.936 675.991C203.87 676.387 203.705 676.718 203.442 676.982C203.179 677.246 202.915 677.544 202.652 677.874C202.389 678.27 201.895 678.898 201.171 679.757C200.513 680.55 200.019 681.045 199.69 681.243C199.492 681.309 199.262 681.508 198.999 681.838C198.801 682.102 198.538 682.366 198.209 682.631C197.946 682.829 197.616 682.994 197.221 683.126C196.892 683.192 196.662 683.258 196.53 683.324C196.399 683.39 196.168 683.423 195.839 683.423C195.576 683.357 195.51 683.225 195.642 683.027C195.707 682.961 195.707 682.895 195.642 682.829C195.642 682.697 195.642 682.598 195.642 682.532C195.707 682.399 195.806 682.3 195.938 682.234C196.07 682.168 196.168 682.069 196.234 681.937C196.3 681.871 196.464 681.64 196.728 681.243C197.057 680.847 197.221 680.616 197.221 680.55C197.156 680.483 197.156 680.417 197.221 680.351C197.287 680.219 197.32 680.12 197.32 680.054C197.386 679.988 197.419 679.889 197.419 679.757C197.419 679.625 197.485 679.559 197.616 679.559C197.88 679.492 198.011 679.393 198.011 679.261C198.011 678.733 198.044 678.237 198.11 677.775C198.242 677.312 198.209 676.916 198.011 676.586C197.748 676.057 197.254 675.793 196.53 675.793C195.543 675.793 194.391 676.222 193.074 677.081C191.758 677.874 190.869 678.535 190.409 679.063C188.302 681.441 186.591 684.117 185.274 687.09C183.958 690.063 183.431 692.706 183.694 695.018C183.826 696.141 184.287 697.066 185.077 697.793C185.867 698.52 186.755 698.883 187.743 698.883H189.421C189.619 698.883 189.816 698.883 190.014 698.883C190.277 698.817 190.54 698.751 190.803 698.685C191.198 698.553 191.495 698.486 191.692 698.486C192.021 698.156 192.219 698.156 192.285 698.486C192.811 698.222 193.042 698.123 192.976 698.189C192.91 698.255 193.009 698.255 193.272 698.189C194.588 697.859 195.872 697.297 197.123 696.505C198.373 695.712 199.525 694.919 200.579 694.126C200.776 693.994 201.105 693.796 201.566 693.532C202.027 693.267 202.356 693.069 202.553 692.937C202.685 692.739 202.784 692.574 202.85 692.441C202.981 692.243 203.146 692.111 203.343 692.045C203.475 691.847 203.639 691.649 203.837 691.45C204.034 691.186 204.166 691.021 204.232 690.955C204.561 690.823 204.66 690.724 204.528 690.658C204.396 690.526 204.561 690.36 205.022 690.162C205.153 690.096 205.285 690.063 205.417 690.063C205.548 690.063 205.614 690.129 205.614 690.261C205.614 690.393 205.417 690.757 205.022 691.351C204.758 691.814 204.265 692.408 203.541 693.135L202.553 694.126L201.368 694.721C201.237 694.853 201.171 694.985 201.171 695.117C201.171 695.183 201.105 695.282 200.973 695.414C199.13 697.066 197.024 698.453 194.654 699.577C192.35 700.634 189.849 701.162 187.15 701.162Z" fill="white"/>
<path d="M212.417 701.063C210.771 701.063 209.323 700.601 208.073 699.676C206.822 698.751 206.197 697.165 206.197 694.919C206.197 694.06 206.295 693.201 206.493 692.342C206.69 691.417 206.921 690.526 207.184 689.667C207.316 688.808 207.513 688.048 207.776 687.387C207.842 687.123 207.875 686.991 207.875 686.991C207.941 686.925 208.106 686.826 208.369 686.694L209.159 685.505V685.108C209.093 685.108 209.06 685.108 209.06 685.108C209.06 685.042 209.06 685.009 209.06 685.009C209.06 684.811 209.225 684.58 209.554 684.315C209.883 684.051 210.047 683.919 210.047 683.919C210.113 683.589 210.212 683.423 210.344 683.423C210.475 683.423 210.64 683.324 210.837 683.126H211.923V682.928C211.923 682.598 211.759 682.465 211.43 682.532C211.166 682.532 211.035 682.498 211.035 682.432C211.035 682.366 211.133 682.234 211.331 682.036C211.594 681.772 211.759 681.607 211.825 681.541C212.022 681.276 212.187 681.045 212.318 680.847C212.45 680.583 212.647 680.384 212.911 680.252C214.096 678.799 214.82 677.874 215.083 677.477C215.412 677.081 215.741 676.784 216.07 676.586C216.202 676.586 216.301 676.652 216.367 676.784C216.498 676.85 216.498 676.949 216.367 677.081C216.498 677.279 216.597 677.312 216.663 677.18C216.794 677.048 216.86 676.982 216.86 676.982L217.255 676.784C217.124 676.652 217.058 676.486 217.058 676.288C217.058 675.958 217.124 675.694 217.255 675.495C217.387 675.231 217.617 674.967 217.946 674.703C218.341 674.438 218.539 674.273 218.539 674.207C218.934 674.075 219.23 673.943 219.428 673.811C219.691 673.679 219.954 673.613 220.217 673.613C220.678 673.613 221.139 673.778 221.6 674.108C222.85 674.769 223.904 675.429 224.759 676.09C225.615 676.751 226.043 677.676 226.043 678.865C226.043 680.12 225.516 681.21 224.463 682.135C223.476 682.994 222.258 683.721 220.81 684.315C219.362 684.91 217.914 685.405 216.465 685.802C215.083 686.132 213.997 686.396 213.207 686.595C212.746 686.661 212.516 686.859 212.516 687.189C212.582 687.453 212.549 687.751 212.417 688.081L211.726 689.171L211.133 690.559L210.64 691.45C210.179 691.847 210.014 692.144 210.146 692.342C210.278 692.541 210.508 692.508 210.837 692.243C210.903 692.309 210.936 692.408 210.936 692.541C210.936 692.805 210.87 693.135 210.739 693.532C210.607 693.862 210.508 694.126 210.442 694.324C210.377 694.589 210.377 694.721 210.442 694.721C210.574 694.655 210.64 694.787 210.64 695.117L210.739 696.505C211.133 697.76 212.022 698.486 213.404 698.685C213.536 698.685 213.668 698.718 213.799 698.784C213.997 698.784 214.161 698.784 214.293 698.784C215.478 698.784 216.103 698.685 216.169 698.486C216.301 698.288 216.465 698.156 216.663 698.09C217.255 697.958 217.749 697.826 218.144 697.694C218.605 697.562 219.065 697.363 219.526 697.099C220.316 696.769 221.073 696.339 221.797 695.811C222.521 695.282 223.278 694.754 224.068 694.225L225.056 693.532C225.121 693.399 225.121 693.3 225.056 693.234C224.99 693.168 224.99 693.102 225.056 693.036C225.187 692.97 225.286 692.97 225.352 693.036C225.483 693.036 225.582 693.003 225.648 692.937C225.78 692.871 225.911 692.772 226.043 692.64C226.175 692.441 226.306 692.276 226.438 692.144C226.57 692.012 226.635 691.88 226.635 691.748C226.701 691.616 226.8 691.483 226.932 691.351C227.458 690.823 227.985 690.261 228.511 689.667C229.104 689.072 229.598 688.544 229.992 688.081C230.453 687.42 230.815 687.09 231.079 687.09C231.21 687.09 231.276 687.156 231.276 687.288C231.276 687.619 231.046 688.114 230.585 688.775C229.466 690.426 228.182 692.045 226.734 693.631C225.286 695.15 223.706 696.538 221.995 697.793C220.744 698.652 219.263 699.411 217.551 700.072C215.84 700.733 214.129 701.063 212.417 701.063ZM213.898 685.108C214.886 685.042 216.169 684.778 217.749 684.315C219.329 683.787 220.645 683.093 221.698 682.234C222.818 681.309 223.377 680.285 223.377 679.162C223.377 678.105 222.818 677.081 221.698 676.09C220.777 676.751 219.757 677.709 218.638 678.964C217.584 680.153 216.63 681.342 215.774 682.532C214.918 683.655 214.293 684.514 213.898 685.108Z" fill="white"/>
<path d="M246.45 701.162C246.055 701.162 245.858 700.931 245.858 700.468C245.858 700.138 245.956 699.742 246.154 699.279C246.681 698.156 247.273 696.571 247.931 694.523C248.655 692.474 249.544 690.724 250.597 689.27C251.321 687.817 251.979 686.396 252.572 685.009C253.23 683.556 253.855 682.102 254.448 680.649C254.448 680.649 254.382 680.616 254.25 680.55C254.119 680.417 254.053 680.285 254.053 680.153C253.724 679.889 253.329 679.526 252.868 679.063C252.407 678.535 252.374 678.006 252.769 677.477C252.901 677.345 252.967 677.279 252.967 677.279C253.033 677.279 253.066 677.279 253.066 677.279C253.066 677.213 253.033 677.18 252.967 677.18C252.967 677.18 252.967 677.147 252.967 677.081L252.868 676.982C252.802 676.982 252.736 676.982 252.671 676.982C252.671 676.916 252.638 676.883 252.572 676.883C252.309 676.883 252.012 676.949 251.683 677.081C251.354 677.147 251.025 677.18 250.696 677.18C250.301 677.18 249.774 677.345 249.116 677.676C248.458 677.94 247.865 678.171 247.339 678.369C247.075 678.435 246.911 678.468 246.845 678.468C246.845 678.402 246.713 678.435 246.45 678.568C246.384 678.634 246.384 678.535 246.45 678.27C246.582 677.94 246.648 677.709 246.648 677.577C246.648 677.511 246.615 677.477 246.549 677.477C246.417 677.477 246.154 677.676 245.759 678.072C245.364 678.402 245.101 678.601 244.969 678.667C244.903 678.733 244.87 678.832 244.87 678.964C244.936 679.096 244.969 679.228 244.969 679.36C244.969 679.559 244.804 679.79 244.475 680.054C244.146 680.252 243.916 680.417 243.784 680.55C243.521 680.748 243.192 680.88 242.797 680.946C242.468 680.946 242.139 681.078 241.809 681.342C241.414 681.607 241.217 681.805 241.217 681.937C241.283 682.069 241.085 682.3 240.625 682.631C240.032 683.093 239.209 683.787 238.156 684.712C237.169 685.637 236.412 686.462 235.885 687.189C234.634 688.709 233.483 690.459 232.429 692.441C231.442 694.423 230.948 695.976 230.948 697.099C230.948 697.958 231.31 698.387 232.034 698.387C232.166 698.387 232.298 698.387 232.429 698.387C232.561 698.321 232.726 698.255 232.923 698.189L235.49 696.703L236.083 696.604V696.505L236.478 696.802C236.543 696.736 236.51 696.637 236.379 696.505C236.313 696.306 236.313 696.207 236.379 696.207C236.445 696.207 236.478 696.24 236.478 696.306C236.543 696.306 236.609 696.306 236.675 696.306L236.873 696.009C236.873 696.009 236.971 696.042 237.169 696.108C237.432 696.108 237.63 696.042 237.761 695.91C237.959 695.844 237.992 695.745 237.86 695.613C237.794 695.48 237.695 695.381 237.564 695.315L238.255 694.721C238.321 694.589 238.584 694.456 239.045 694.324C240.164 693.598 241.085 692.739 241.809 691.748C242.599 690.691 243.488 689.733 244.475 688.874H244.574L245.759 687.685L245.66 687.387L246.944 685.901H247.141C247.207 685.769 247.339 685.604 247.536 685.405C247.8 685.207 247.964 685.042 248.03 684.91C248.162 684.844 248.458 684.514 248.919 683.919C249.445 683.258 249.939 682.73 250.4 682.333C250.926 681.937 251.222 681.739 251.288 681.739C251.354 681.739 251.387 681.772 251.387 681.838C251.387 682.036 251.288 682.333 251.091 682.73C250.959 683.126 250.828 683.39 250.696 683.523C250.235 684.249 249.643 685.075 248.919 686C248.195 686.859 247.767 687.387 247.635 687.586C246.845 688.444 245.891 689.601 244.772 691.054C243.653 692.441 242.435 693.829 241.118 695.216C239.802 696.604 238.485 697.793 237.169 698.784C235.918 699.709 234.733 700.171 233.614 700.171C232.561 700.171 231.442 699.841 230.257 699.18C229.072 698.52 228.48 697.264 228.48 695.414C228.48 694.82 228.546 694.159 228.677 693.432C228.875 692.64 229.171 691.814 229.566 690.955C229.566 690.955 229.632 690.889 229.763 690.757C229.895 690.559 229.994 690.492 230.06 690.559C230.191 690.36 230.224 690.162 230.158 689.964C230.158 689.7 230.158 689.535 230.158 689.468L230.356 689.27C230.487 688.544 230.981 687.883 231.837 687.288C232.693 686.694 233.153 686.231 233.219 685.901C233.285 685.835 233.318 685.736 233.318 685.604L233.713 684.315V683.919H234.108L234.404 683.523L234.503 683.324C234.371 683.258 234.404 683.159 234.602 683.027C234.865 682.829 234.997 682.73 234.997 682.73C235.062 682.598 235.128 682.498 235.194 682.432C235.326 682.366 235.424 682.3 235.49 682.234H236.181C236.313 682.036 236.247 681.937 235.984 681.937C235.721 681.937 235.589 681.937 235.589 681.937C235.589 681.871 235.589 681.838 235.589 681.838C235.655 681.772 235.688 681.706 235.688 681.64L236.774 680.748C237.103 680.483 237.432 680.252 237.761 680.054C238.09 679.856 238.387 679.625 238.65 679.36C238.847 679.36 238.88 679.459 238.749 679.658C238.814 679.79 238.88 679.79 238.946 679.658C239.078 679.526 239.144 679.459 239.144 679.459L239.637 679.36V679.261C239.637 679.129 239.67 678.931 239.736 678.667C239.802 678.402 239.835 678.237 239.835 678.171C241.217 677.114 242.665 676.189 244.179 675.396C245.693 674.538 247.174 674.108 248.622 674.108C250.334 674.108 251.881 674.769 253.263 676.09L253.757 676.387C253.823 676.387 253.855 676.354 253.855 676.288C253.987 675.363 254.744 674.67 256.126 674.207C257.575 673.745 258.858 673.514 259.977 673.514C261.162 673.514 261.755 673.679 261.755 674.009C261.755 674.141 261.557 674.372 261.162 674.703C260.965 674.835 260.636 675.132 260.175 675.595C259.714 676.057 259.253 676.619 258.792 677.279C258.727 677.477 258.628 677.676 258.496 677.874C258.365 678.072 258.233 678.27 258.101 678.468C258.035 678.601 257.937 678.766 257.805 678.964C257.739 679.096 257.64 679.228 257.509 679.36C256.39 681.276 255.501 682.895 254.843 684.216C254.185 685.538 253.395 687.222 252.473 689.27C252.342 689.667 252.276 689.898 252.276 689.964C252.276 690.492 252.572 690.757 253.164 690.757C253.559 690.757 253.954 690.658 254.349 690.459L255.337 690.063C256.916 688.61 258.562 687.387 260.273 686.396C260.339 686.396 260.372 686.396 260.372 686.396C260.438 686.33 260.504 686.297 260.57 686.297C260.767 686.297 260.899 686.429 260.965 686.694C261.03 686.892 260.965 687.057 260.767 687.189C258.858 688.246 257.081 689.601 255.435 691.252C255.369 691.384 255.304 691.517 255.238 691.649C255.172 691.781 255.073 691.913 254.942 692.045C254.744 692.177 254.547 692.408 254.349 692.739C254.152 693.069 254.053 693.267 254.053 693.333C253.987 693.532 253.888 693.598 253.757 693.532C253.691 693.465 253.493 693.565 253.164 693.829C253.098 693.895 253.033 694.027 252.967 694.225C252.967 694.423 252.934 694.589 252.868 694.721C252.736 694.919 252.605 695.084 252.473 695.216C252.342 695.282 252.276 695.348 252.276 695.414C252.21 695.679 252.078 695.844 251.881 695.91C251.749 695.91 251.617 695.976 251.486 696.108C251.42 696.108 251.387 696.141 251.387 696.207C251.387 696.802 251.321 697.066 251.19 697C251.058 696.934 250.926 697 250.795 697.198C250.663 697.462 250.498 697.595 250.301 697.595C249.906 697.727 249.741 697.826 249.807 697.892C249.939 697.958 250.038 698.024 250.103 698.09C250.235 698.09 250.136 698.189 249.807 698.387C249.676 698.453 249.544 698.652 249.412 698.982C249.281 699.246 249.149 699.444 249.017 699.577C248.82 699.709 248.622 699.808 248.425 699.874C248.227 699.94 248.063 700.072 247.931 700.27C247.339 700.865 246.845 701.162 246.45 701.162Z" fill="white"/>
<path d="M259.825 701.162C259.43 701.162 259.232 700.931 259.232 700.468C259.232 700.138 259.331 699.742 259.528 699.279C260.055 698.156 260.68 696.571 261.404 694.523C262.128 692.474 263.017 690.724 264.07 689.27L267.921 680.649C267.921 680.649 267.855 680.616 267.724 680.55C267.592 680.417 267.526 680.285 267.526 680.153C267.131 679.889 266.703 679.526 266.243 679.063C265.848 678.535 265.815 678.006 266.144 677.477C266.275 677.345 266.374 677.279 266.44 677.279C266.506 677.279 266.539 677.279 266.539 677.279V677.081C266.539 676.817 266.637 676.652 266.835 676.586C267.098 676.52 267.263 676.42 267.329 676.288C267.46 675.363 268.217 674.67 269.6 674.207C271.048 673.745 272.331 673.514 273.45 673.514C274.569 673.514 275.129 673.679 275.129 674.009C275.129 674.207 274.931 674.438 274.536 674.703C274.405 674.835 274.076 675.132 273.549 675.595C273.088 676.057 272.66 676.619 272.266 677.279L271.574 678.468L270.883 679.36C269.83 681.276 268.974 682.895 268.316 684.216C267.658 685.538 266.868 687.222 265.946 689.27C265.749 689.667 265.65 689.997 265.65 690.261C265.65 690.592 265.782 690.757 266.045 690.757C266.177 690.757 266.308 690.724 266.44 690.658C266.637 690.526 266.835 690.426 267.032 690.36C267.559 690.03 267.987 689.733 268.316 689.468C268.711 689.138 269.139 688.808 269.6 688.477C269.797 688.279 269.962 688.279 270.093 688.477C270.225 688.61 270.225 688.808 270.093 689.072C269.83 689.601 269.633 689.931 269.501 690.063C269.435 690.129 269.336 690.195 269.205 690.261C269.073 690.327 268.777 690.625 268.316 691.153L267.921 691.946C267.789 692.078 267.625 692.342 267.427 692.739C267.296 693.069 267.23 693.267 267.23 693.333C267.23 693.465 267.164 693.532 267.032 693.532C266.901 693.465 266.703 693.565 266.44 693.829C266.374 693.895 266.341 694.027 266.341 694.225C266.407 694.423 266.374 694.589 266.243 694.721C266.177 694.919 266.078 695.084 265.946 695.216C265.815 695.282 265.749 695.348 265.749 695.414C265.683 695.679 265.551 695.844 265.354 695.91C265.222 695.91 265.091 695.976 264.959 696.108C264.893 696.108 264.86 696.174 264.86 696.306C264.86 696.835 264.794 697.066 264.663 697C264.531 696.934 264.399 697 264.268 697.198C264.136 697.462 263.972 697.595 263.774 697.595C263.379 697.727 263.215 697.826 263.28 697.892C263.346 697.958 263.445 698.024 263.577 698.09C263.708 698.09 263.609 698.189 263.28 698.387C263.083 698.453 262.918 698.652 262.787 698.982C262.655 699.246 262.523 699.444 262.392 699.577C262.26 699.709 262.096 699.808 261.898 699.874C261.701 699.94 261.536 700.072 261.404 700.27C260.812 700.865 260.285 701.162 259.825 701.162ZM289.249 700.369C288.985 700.369 288.755 700.369 288.557 700.369C288.36 700.303 288.162 700.237 287.965 700.171C287.307 700.039 286.714 699.841 286.188 699.577C285.727 699.312 285.332 698.817 285.003 698.09C284.937 697.76 284.772 697.33 284.509 696.802C284.312 696.273 284.18 695.778 284.114 695.315C284.048 694.985 284.015 694.589 284.015 694.126C283.95 693.796 283.917 693.366 283.917 692.838C283.785 692.177 283.719 691.583 283.719 691.054C283.785 690.526 283.818 689.898 283.818 689.171C283.818 688.444 283.851 687.916 283.917 687.586C284.048 686.991 284.114 686.694 284.114 686.694C284.114 686.628 284.114 686.297 284.114 685.703C284.18 684.91 284.213 684.084 284.213 683.225C284.213 682.366 284.246 681.673 284.312 681.144C284.509 679.162 284.114 678.171 283.127 678.171C282.732 678.171 282.205 678.336 281.547 678.667C281.481 678.865 281.349 678.997 281.152 679.063C281.02 679.063 280.823 679.129 280.56 679.261L280.066 679.559C280.066 679.625 280 679.658 279.868 679.658C279.737 679.592 279.671 679.625 279.671 679.757C279.737 680.021 279.704 680.186 279.572 680.252C279.506 680.318 279.408 680.285 279.276 680.153L278.19 680.946C278.19 681.012 278.091 681.144 277.894 681.342L277.795 681.441C277.532 681.706 277.301 681.838 277.104 681.838L276.807 682.135C276.807 682.201 276.742 682.333 276.61 682.532C276.544 682.664 276.38 682.697 276.116 682.631L275.623 683.126C275.359 683.523 275.129 683.754 274.931 683.82C274.8 683.886 274.635 683.952 274.438 684.018L273.648 685.009L273.253 685.108C273.253 685.372 272.957 685.769 272.364 686.297C271.838 686.826 271.476 687.189 271.278 687.387C271.081 687.586 270.883 687.685 270.686 687.685C270.554 687.685 270.488 687.619 270.488 687.486C270.488 687.42 270.653 687.156 270.982 686.694C271.245 686.429 271.64 685.934 272.167 685.207C272.759 684.48 273.088 684.15 273.154 684.216C273.483 683.886 273.714 683.556 273.845 683.225C273.977 682.829 274.207 682.498 274.536 682.234C274.536 682.3 274.536 682.366 274.536 682.432C274.602 682.432 274.635 682.432 274.635 682.432C274.767 682.432 274.931 682.267 275.129 681.937C275.326 681.541 275.458 681.375 275.524 681.441L277.202 679.955C277.202 679.889 277.367 679.757 277.696 679.559C277.959 679.426 278.124 679.36 278.19 679.36C278.256 679.36 278.42 679.162 278.684 678.766L279.375 678.27C279.44 678.138 279.506 678.171 279.572 678.369C279.704 678.502 279.803 678.535 279.868 678.468L280.165 677.775C280.296 677.577 280.494 677.411 280.757 677.279C281.086 677.081 281.415 676.883 281.744 676.685C282.534 675.892 283.127 675.495 283.522 675.495H283.917C284.772 675.165 285.562 675 286.286 675C287.34 675 288.162 675.396 288.755 676.189C288.886 676.387 289.018 676.751 289.15 677.279C289.281 677.345 289.314 677.444 289.249 677.577C289.249 677.643 289.281 677.742 289.347 677.874C289.413 678.006 289.545 678.171 289.742 678.369C289.94 678.502 290.038 678.667 290.038 678.865V679.063C290.038 679.327 289.874 679.559 289.545 679.757C289.874 680.021 290.005 680.186 289.94 680.252C289.94 680.252 289.907 680.351 289.841 680.55L289.643 681.937C289.578 682.399 289.479 682.763 289.347 683.027C289.216 683.225 289.084 683.589 288.952 684.117C289.216 684.514 289.216 684.778 288.952 684.91H288.755L288.656 685.306C288.656 685.438 288.722 685.571 288.854 685.703L288.557 686.297C288.623 686.231 288.656 686.231 288.656 686.297C288.722 686.297 288.755 686.297 288.755 686.297C288.689 686.429 288.59 686.694 288.459 687.09C288.327 687.42 288.228 687.685 288.162 687.883C288.097 688.213 287.965 688.378 287.767 688.378C287.57 688.378 287.504 688.544 287.57 688.874C287.636 688.94 287.669 689.171 287.669 689.568C287.735 689.898 287.702 690.063 287.57 690.063L287.372 691.252V691.55C287.372 691.88 287.307 692.21 287.175 692.541C287.109 692.871 287.043 693.201 286.978 693.532C286.912 693.862 286.846 694.225 286.78 694.622C286.78 694.952 286.78 695.282 286.78 695.613C286.78 695.877 286.78 696.174 286.78 696.505C286.846 696.769 286.912 697.033 286.978 697.297C286.978 697.363 287.076 697.562 287.274 697.892C287.471 698.222 287.57 698.42 287.57 698.486L287.866 698.784C287.998 698.85 288.195 698.85 288.459 698.784C288.788 698.718 289.018 698.751 289.15 698.883C289.742 698.949 290.499 698.652 291.421 697.991C292.408 697.264 293.297 696.471 294.087 695.613C294.284 695.414 294.482 695.315 294.679 695.315C294.811 695.315 294.909 695.414 294.975 695.613C295.041 695.811 294.975 696.075 294.778 696.405C293.725 697.925 292.737 698.982 291.816 699.577C290.894 700.105 290.038 700.369 289.249 700.369Z" fill="white"/>
<defs>
<linearGradient id="paint0_linear_4005_621" x1="52.0731" y1="12.3444" x2="710.964" y2="387.314" gradientUnits="userSpaceOnUse">
<stop stop-color="#C62D80"/>
<stop offset="1" stop-color="#FFEE6B"/>
</linearGradient>
</defs>
</svg>
