<svg width="47" height="32" viewBox="0 0 47 32" fill="none" xmlns="http://www.w3.org/2000/svg">
<path d="M4.66406 0.5H42.6641C44.5971 0.5 46.1641 2.067 46.1641 4V28C46.1641 29.933 44.5971 31.5 42.6641 31.5H4.66406C2.73107 31.5 1.16406 29.933 1.16406 28V4C1.16406 2.067 2.73107 0.5 4.66406 0.5Z" fill="white"/>
<path d="M4.66406 0.5H42.6641C44.5971 0.5 46.1641 2.067 46.1641 4V28C46.1641 29.933 44.5971 31.5 42.6641 31.5H4.66406C2.73107 31.5 1.16406 29.933 1.16406 28V4C1.16406 2.067 2.73107 0.5 4.66406 0.5Z" stroke="#E9EAEB"/>
<path d="M31.457 15.1064V20.4881H34.4908V17.299H37.9291C39.3752 17.289 40.6038 16.3771 41.069 15.1064H31.457Z" fill="#37A72E"/>
<path d="M31.0508 10.6716C31.2278 12.8691 33.3413 14.6082 35.92 14.6082C35.9301 14.6082 41.1937 14.6082 41.1937 14.6082C41.2341 14.4089 41.2544 14.1996 41.2544 13.9853C41.2544 12.1615 39.7628 10.6866 37.9172 10.6716H31.0508Z" fill="url(#paint0_linear_6348_16370)"/>
<path d="M26.563 14.5534C26.5984 14.4936 26.654 14.4587 26.7248 14.4587C26.826 14.4587 26.9018 14.5384 26.9069 14.6331V20.4383H29.9406V10.6716H26.9069C26.5226 10.6866 26.0877 10.9606 25.9259 11.3045L23.5141 16.4071C23.509 16.427 23.4989 16.4469 23.4888 16.4669C23.4534 16.5167 23.3927 16.5516 23.322 16.5516C23.2107 16.5516 23.1197 16.4619 23.1197 16.3523V10.6716H20.0859V20.4383H23.1197C23.4989 20.4184 23.9237 20.1443 24.0855 19.8055L26.563 14.5683C26.558 14.5634 26.563 14.5584 26.563 14.5534Z" fill="#37A72E"/>
<path d="M15.235 14.7228L13.4603 20.4383H11.276L9.50628 14.7178C9.49111 14.6281 9.41021 14.5584 9.30909 14.5584C9.19785 14.5584 9.11189 14.648 9.11189 14.7527V20.4333H6.07812V10.6666H8.68211H9.45572C10.0119 10.6666 10.5984 11.0952 10.7602 11.6184L12.2367 16.3771C12.3125 16.6163 12.4288 16.6113 12.5047 16.3771L13.9811 11.6184C14.1429 11.0902 14.7294 10.6666 15.2856 10.6666H16.0592H18.6632V20.4333H15.6294V14.7527C15.6294 14.7527 15.6294 14.7527 15.6294 14.7477C15.6294 14.6381 15.5384 14.5534 15.4322 14.5534C15.3311 14.5584 15.2502 14.6281 15.235 14.7228Z" fill="#37A72E"/>
<defs>
<linearGradient id="paint0_linear_6348_16370" x1="31.052" y1="12.6399" x2="41.2537" y2="12.6399" gradientUnits="userSpaceOnUse">
<stop stop-color="#00A0E5"/>
<stop offset="1" stop-color="#0077C3"/>
</linearGradient>
</defs>
</svg>
