<svg width="42" height="42" viewBox="0 0 42 42" fill="none" xmlns="http://www.w3.org/2000/svg">
<path d="M10.5 10.5L14 7M14 7L10.5 3.5M14 7H10.5C6.63401 7 3.5 10.134 3.5 14M31.5 31.5L28 35M28 35L31.5 38.5M28 35H31.5C35.366 35 38.5 31.866 38.5 28M17.8308 11.375C18.9964 6.84628 23.1074 3.5 28 3.5C33.799 3.5 38.5 8.20101 38.5 14C38.5 18.8925 35.1538 23.0035 30.6251 24.1692M24.5 28C24.5 33.799 19.799 38.5 14 38.5C8.20101 38.5 3.5 33.799 3.5 28C3.5 22.201 8.20101 17.5 14 17.5C19.799 17.5 24.5 22.201 24.5 28Z" stroke="#F4D400" stroke-width="2" stroke-linecap="round" stroke-linejoin="round"/>
</svg>
