<svg width="42" height="42" viewBox="0 0 42 42" fill="none" xmlns="http://www.w3.org/2000/svg">
<path d="M8.74988 22.75C8.74988 16.951 13.4509 12.25 19.2499 12.25M8.74988 22.75C8.74988 25.6347 9.91315 28.2477 11.7962 30.1454C11.9778 30.3285 12.0686 30.42 12.1222 30.508C12.1733 30.5919 12.2031 30.6642 12.2259 30.7599C12.2499 30.8601 12.2499 30.9741 12.2499 31.2022V35.35C12.2499 35.84 12.2499 36.0851 12.3452 36.2722C12.4291 36.4369 12.563 36.5707 12.7276 36.6546C12.9148 36.75 13.1598 36.75 13.6499 36.75H16.9749C17.4649 36.75 17.7099 36.75 17.8971 36.6546C18.0618 36.5707 18.1956 36.4369 18.2795 36.2722C18.3749 36.0851 18.3749 35.84 18.3749 35.35V34.65C18.3749 34.16 18.3749 33.9149 18.4702 33.7278C18.5541 33.5631 18.688 33.4293 18.8526 33.3454C19.0398 33.25 19.2848 33.25 19.7749 33.25H22.2249C22.7149 33.25 22.9599 33.25 23.1471 33.3454C23.3118 33.4293 23.4456 33.5631 23.5295 33.7278C23.6249 33.9149 23.6249 34.16 23.6249 34.65V35.35C23.6249 35.84 23.6249 36.0851 23.7202 36.2722C23.8041 36.4369 23.938 36.5707 24.1026 36.6546C24.2898 36.75 24.5348 36.75 25.0249 36.75H28.35C28.84 36.75 29.0851 36.75 29.2722 36.6546C29.4369 36.5707 29.5707 36.4369 29.6546 36.2722C29.75 36.0851 29.75 35.84 29.75 35.35V33.6426C29.75 33.289 29.75 33.1122 29.8003 32.9702C29.8486 32.8342 29.9094 32.739 30.0124 32.6379C30.12 32.5325 30.3021 32.4479 30.6665 32.2788C32.3853 31.4808 33.8521 30.2314 34.9145 28.6828C35.1013 28.4105 35.1947 28.2743 35.2944 28.1939C35.3898 28.117 35.4754 28.0719 35.5928 28.0367C35.7156 28 35.8613 28 36.1528 28H37.1C37.59 28 37.8351 28 38.0222 27.9046C38.1869 27.8207 38.3207 27.6869 38.4046 27.5222C38.5 27.3351 38.5 27.09 38.5 26.6V20.6251C38.5 20.1585 38.5 19.9253 38.4133 19.7453C38.3273 19.5667 38.1833 19.4227 38.0047 19.3367C37.8247 19.25 37.5915 19.25 37.1249 19.25C36.7873 19.25 36.6184 19.25 36.4824 19.2042C36.3358 19.1547 36.2329 19.089 36.1265 18.9766C36.0279 18.8724 35.9473 18.6981 35.7862 18.3496C35.2691 17.2309 34.561 16.2186 33.7037 15.3546C33.5221 15.1715 33.4313 15.08 33.3777 14.992C33.3266 14.9081 33.2968 14.8358 33.2739 14.7401C33.25 14.6399 33.25 14.5259 33.25 14.2978V12.356C33.25 11.7259 33.25 11.4109 33.1188 11.1991C33.0038 11.0136 32.8237 10.8778 32.6138 10.8182C32.3742 10.7502 32.0712 10.8368 31.4654 11.0099L27.3134 12.1961C27.2428 12.2163 27.2076 12.2264 27.1717 12.2334C27.1399 12.2397 27.1077 12.2442 27.0753 12.247C27.0389 12.25 27.0019 12.25 26.9279 12.25H19.2499M8.74988 22.75H7C5.067 22.75 3.5 21.183 3.5 19.25C3.5 17.9545 4.20385 16.8234 5.25 16.2182M19.2499 12.25H26.188C26.2288 11.9642 26.25 11.6721 26.25 11.375C26.25 7.99226 23.5077 5.25 20.125 5.25C16.7423 5.25 14 7.99226 14 11.375C14 12.1051 14.1277 12.8054 14.3621 13.4547C15.822 12.6854 17.485 12.25 19.2499 12.25Z" stroke="#F4D400" stroke-width="2" stroke-linecap="round" stroke-linejoin="round"/>
</svg>
