<svg width="42" height="42" viewBox="0 0 42 42" fill="none" xmlns="http://www.w3.org/2000/svg">
<path d="M15.75 20.1251L19.25 23.6251L27.125 15.7501M35 21.0001C35 29.5899 25.6306 35.8373 22.2215 37.8262C21.834 38.0522 21.6403 38.1652 21.3669 38.2238C21.1548 38.2693 20.8452 38.2693 20.6331 38.2238C20.3597 38.1652 20.166 38.0522 19.7785 37.8262C16.3694 35.8373 7 29.5899 7 21.0001V12.6309C7 11.2318 7 10.5322 7.22883 9.93087C7.43098 9.39964 7.75947 8.92563 8.1859 8.54982C8.66862 8.12441 9.32365 7.87877 10.6337 7.3875L20.0169 3.86882C20.3807 3.73239 20.5626 3.66417 20.7497 3.63713C20.9157 3.61314 21.0843 3.61314 21.2503 3.63713C21.4374 3.66417 21.6193 3.73239 21.9831 3.86882L31.3663 7.3875C32.6764 7.87877 33.3314 8.12441 33.8141 8.54982C34.2405 8.92563 34.569 9.39964 34.7712 9.93087C35 10.5322 35 11.2318 35 12.6309V21.0001Z" stroke="#F4D400" stroke-width="2" stroke-linecap="round" stroke-linejoin="round"/>
</svg>
