<svg width="1920" height="930" viewBox="0 0 1920 930" fill="none" xmlns="http://www.w3.org/2000/svg">
<g opacity="0.1" clip-path="url(#clip0_29_161)">
<path d="M825.875 433.897C819.738 441.467 811.944 450.144 804.85 456.984C818.851 471.435 833.086 485.862 847.32 500.289C853.81 506.828 860.277 513.135 866.475 519.704C878.059 494.734 888.365 469.362 896.973 443.511C890.186 439.3 880.312 433.689 875.071 427.849C860.927 430.798 840.019 430.359 825.875 433.897ZM-223.56 544.402C-229.698 551.971 -237.492 560.649 -244.586 567.489C-230.585 581.94 -216.35 596.367 -202.116 610.794C-195.626 617.333 -189.159 623.639 -182.961 630.208C-171.377 605.239 -161.071 579.866 -152.463 554.016C-159.25 549.805 -169.124 544.193 -174.365 538.354C-188.509 541.303 -209.417 540.864 -223.56 544.402ZM-49.7038 526.1C-55.841 533.669 -63.6353 542.347 -70.7297 549.187C-56.7284 563.637 -42.4937 578.064 -28.259 592.491C-21.769 599.031 -15.3025 605.337 -9.10434 611.906C2.47985 586.936 12.7861 561.564 21.3941 535.714C14.607 531.502 4.73283 525.891 -0.508256 520.051C-14.6522 523.001 -35.5599 522.561 -49.7038 526.1ZM126.429 507.569C120.291 515.138 112.497 523.816 105.403 530.656C119.404 545.107 133.639 559.533 147.873 573.96C154.363 580.5 160.83 586.806 167.028 593.375C178.612 568.406 188.918 543.033 197.526 517.183C190.739 512.972 180.865 507.36 175.624 501.521C161.188 504.499 140.572 504.031 126.429 507.569ZM300.285 489.267C294.148 496.836 286.354 505.514 279.259 512.354C293.261 526.804 307.495 541.231 321.73 555.658C328.22 562.198 334.686 568.504 340.885 575.073C352.469 550.103 362.775 524.731 371.383 498.881C364.596 494.669 354.722 489.058 349.481 483.218C335.045 486.197 314.429 485.728 300.285 489.267ZM469.532 471.426C463.395 478.995 455.601 487.673 448.506 494.513C462.507 508.963 476.742 523.39 490.977 537.817C497.467 544.357 503.933 550.663 510.132 557.232C521.716 532.262 532.022 506.89 540.63 481.04C533.843 476.829 523.969 471.217 518.728 465.377C504.584 468.327 483.676 467.887 469.532 471.426ZM643.389 453.124C637.251 460.693 629.457 469.371 622.363 476.21C636.364 490.661 650.599 505.088 664.833 519.515C671.323 526.054 677.79 532.361 683.988 538.93C695.572 513.96 705.879 488.588 714.487 462.737C707.699 458.526 697.825 452.915 692.584 447.075C678.44 450.024 657.533 449.585 643.447 453.118L643.389 453.124ZM-164.775 393.477C-170.912 401.046 -178.706 409.724 -185.801 416.564C-171.799 431.014 -157.565 445.441 -143.33 459.868C-136.84 466.408 -130.374 472.714 -124.175 479.283C-112.591 454.313 -102.285 428.941 -93.6769 403.091C-100.464 398.88 -110.338 393.268 -115.579 387.429C-129.753 390.086 -150.66 389.647 -164.775 393.477ZM9.08184 375.175C2.94458 382.744 -4.84968 391.422 -11.9441 398.262C2.05724 412.712 16.2919 427.139 30.5266 441.566C37.0165 448.105 43.4831 454.412 49.6813 460.981C61.2655 436.011 71.5717 410.639 80.1797 384.789C73.3926 380.577 63.5184 374.966 58.2774 369.126C44.1041 371.784 23.1965 371.344 9.08184 375.175ZM185.214 356.644C179.077 364.213 171.283 372.891 164.188 379.731C178.19 394.181 192.424 408.608 206.659 423.035C213.149 429.575 219.615 435.881 225.814 442.45C237.398 417.48 247.704 392.108 256.312 366.258C249.525 362.046 239.651 356.435 234.41 350.595C219.945 353.282 199.329 352.814 185.214 356.644ZM359.071 338.342C352.934 345.911 345.139 354.589 338.045 361.428C352.046 375.879 366.281 390.306 380.516 404.733C387.005 411.272 393.472 417.579 399.67 424.148C411.254 399.178 421.561 373.806 430.169 347.955C423.382 343.744 413.507 338.133 408.266 332.293C393.801 334.98 373.185 334.511 359.071 338.342ZM528.318 320.501C522.18 328.07 514.386 336.748 507.292 343.588C521.293 358.038 535.528 372.465 549.762 386.892C556.252 393.432 562.719 399.738 568.917 406.307C580.501 381.337 590.807 355.965 599.416 330.115C592.628 325.903 582.754 320.292 577.513 314.452C563.34 317.11 542.432 316.67 528.318 320.501ZM702.174 302.198C696.037 309.767 688.243 318.445 681.148 325.285C695.15 339.736 709.384 354.163 723.619 368.59C730.109 375.129 736.576 381.436 742.774 388.004C754.358 363.035 764.664 337.663 773.272 311.812C766.485 307.601 756.611 301.99 751.37 296.15C737.197 298.807 716.289 298.368 702.174 302.198ZM-293.858 251.002C-299.995 258.571 -307.789 267.249 -314.884 274.089C-300.883 288.539 -286.648 302.966 -272.413 317.393C-265.923 323.933 -259.457 330.239 -253.258 336.808C-241.674 311.838 -231.368 286.466 -222.76 260.616C-229.547 256.404 -239.421 250.793 -244.662 244.953C-259.127 247.64 -279.714 247.463 -293.858 251.002ZM-120.001 232.699C-126.139 240.269 -133.933 248.947 -141.027 255.786C-127.026 270.237 -112.791 284.664 -98.5565 299.091C-92.0666 305.63 -85.6 311.937 -79.4019 318.506C-67.8177 293.536 -57.5115 268.164 -48.9034 242.313C-55.6906 238.102 -65.5647 232.491 -70.8058 226.651C-85.2708 229.338 -105.857 229.161 -120.001 232.699ZM55.8392 214.198C49.7078 221.826 41.9077 230.445 34.8133 237.285C48.8146 251.735 63.0493 266.162 77.284 280.589C83.774 287.129 90.2405 293.435 96.4387 300.004C108.023 275.034 118.329 249.662 126.937 223.812C120.15 219.601 110.276 213.989 105.035 208.15C90.8615 210.807 69.9831 210.66 55.8976 214.192L55.8392 214.198ZM229.696 195.896C223.559 203.465 215.764 212.143 208.67 218.983C222.671 233.433 236.906 247.86 251.141 262.287C257.631 268.827 264.097 275.133 270.295 281.702C281.88 256.732 292.186 231.36 300.794 205.51C294.007 201.298 284.132 195.687 278.891 189.847C264.718 192.505 243.84 192.357 229.696 195.896ZM399.235 178.026C393.097 185.595 385.303 194.273 378.209 201.113C392.21 215.563 406.445 229.99 420.679 244.417C427.169 250.957 433.636 257.263 439.834 263.832C451.418 238.862 461.724 213.49 470.332 187.64C463.545 183.428 453.671 177.817 448.43 171.977C433.965 174.664 413.378 174.487 399.235 178.026ZM573.091 159.723C566.954 167.292 559.16 175.97 552.065 182.81C566.067 197.261 580.301 211.688 594.536 226.114C601.026 232.654 607.492 238.96 613.691 245.529C625.275 220.56 635.581 195.187 644.189 169.337C637.402 165.126 627.528 159.514 622.287 153.675C607.822 156.362 587.235 156.185 573.091 159.723ZM-235.107 99.7267C-241.245 107.296 -249.039 115.974 -256.133 122.814C-242.132 137.264 -227.897 151.691 -213.663 166.118C-207.173 172.658 -200.706 178.964 -194.508 185.533C-182.924 160.563 -172.618 135.191 -164.01 109.341C-170.797 105.129 -180.671 99.5179 -185.912 93.6781C-200.348 96.6567 -220.964 96.188 -235.107 99.7267ZM-61.2508 81.4242C-67.388 88.9932 -75.1823 97.6712 -82.2767 104.511C-68.2754 118.961 -54.0407 133.388 -39.806 147.815C-33.3161 154.355 -26.8495 160.661 -20.6513 167.23C-9.06713 142.261 1.23904 116.888 9.84709 91.0381C3.05997 86.8266 -6.81419 81.2153 -12.0553 75.3756C-26.4911 78.3542 -47.1069 77.8855 -61.2508 81.4242ZM114.59 62.9229C108.452 70.492 100.658 79.17 93.5639 86.0098C107.565 100.46 121.8 114.887 136.035 129.314C142.524 135.854 148.991 142.16 155.189 148.729C166.773 123.759 177.08 98.3871 185.688 72.5368C178.901 68.3253 169.026 62.7141 163.785 56.8743C149.641 59.8237 128.734 59.3842 114.59 62.9229ZM288.446 44.6204C282.309 52.1894 274.515 60.8674 267.421 67.7073C281.422 82.1577 295.656 96.5846 309.891 111.012C316.381 117.551 322.848 123.858 329.046 130.426C340.63 105.457 350.936 80.0846 359.544 54.2343C352.757 50.0228 342.883 44.4115 337.642 38.5718C323.498 41.5212 302.59 41.0817 288.446 44.6204ZM457.985 26.7505C451.848 34.3195 444.054 42.9975 436.959 49.8374C450.96 64.2878 465.195 78.7147 479.43 93.1417C485.92 99.6814 492.386 105.988 498.584 112.557C510.169 87.5868 520.475 62.2147 529.083 36.3644C522.296 32.1529 512.422 26.5416 507.181 20.7019C492.745 23.6805 472.129 23.2118 457.985 26.7505ZM999.732 415.595C993.595 423.164 985.801 431.842 978.706 438.682C992.707 453.132 1006.94 467.559 1021.18 481.986C1027.67 488.526 1034.13 494.832 1040.33 501.401C1051.92 476.431 1062.22 451.059 1070.83 425.209C1064.04 420.997 1054.17 415.386 1048.93 409.546C1034.78 412.496 1013.88 412.056 999.732 415.595ZM1175.86 397.064C1169.73 404.633 1161.93 413.311 1154.84 420.151C1168.84 434.602 1183.07 449.029 1197.31 463.456C1203.8 469.995 1210.27 476.302 1216.46 482.871C1228.05 457.901 1238.35 432.529 1246.96 406.678C1240.18 402.467 1230.3 396.856 1225.06 391.016C1210.62 393.994 1190.01 393.526 1175.92 397.059L1175.86 397.064ZM1349.72 378.762C1343.58 386.331 1335.79 395.009 1328.7 401.849C1342.7 416.299 1356.93 430.726 1371.17 445.153C1377.66 451.693 1384.12 457.999 1390.32 464.568C1401.9 439.598 1412.21 414.226 1420.82 388.376C1414.03 384.164 1404.16 378.553 1398.92 372.713C1384.48 375.692 1363.86 375.223 1349.72 378.762ZM1518.97 360.921C1512.83 368.49 1505.04 377.168 1497.94 384.008C1511.94 398.459 1526.18 412.885 1540.41 427.312C1546.9 433.852 1553.37 440.158 1559.57 446.727C1571.15 421.758 1581.46 396.385 1590.07 370.535C1583.28 366.324 1573.4 360.712 1568.16 354.873C1554.02 357.822 1533.11 357.383 1518.97 360.921ZM1692.82 342.619C1686.69 350.188 1678.89 358.866 1671.8 365.706C1685.8 380.156 1700.03 394.583 1714.27 409.01C1720.76 415.55 1727.23 421.856 1733.42 428.425C1745.01 403.455 1755.31 378.083 1763.92 352.233C1757.14 348.021 1747.26 342.41 1742.02 336.57C1727.88 339.519 1706.97 339.08 1692.82 342.619ZM884.778 282.961C878.64 290.53 870.846 299.208 863.752 306.047C877.753 320.498 891.988 334.925 906.222 349.352C912.712 355.891 919.179 362.198 925.377 368.767C936.961 343.797 947.268 318.425 955.876 292.575C949.088 288.363 939.214 282.752 933.973 276.912C919.8 279.57 898.892 279.13 884.778 282.961ZM1058.63 264.658C1052.5 272.227 1044.7 280.905 1037.61 287.745C1051.61 302.195 1065.84 316.622 1080.08 331.049C1086.57 337.589 1093.04 343.895 1099.23 350.464C1110.82 325.494 1121.12 300.122 1129.73 274.272C1122.95 270.061 1113.07 264.449 1107.83 258.609C1093.66 261.267 1072.75 260.828 1058.63 264.658ZM1234.77 246.128C1228.63 253.697 1220.84 262.375 1213.74 269.214C1227.74 283.665 1241.98 298.092 1256.21 312.519C1262.7 319.058 1269.17 325.365 1275.37 331.934C1286.95 306.964 1297.26 281.592 1305.86 255.741C1299.08 251.53 1289.2 245.919 1283.96 240.079C1269.5 242.766 1248.88 242.297 1234.77 246.128ZM1408.62 227.825C1402.49 235.394 1394.69 244.072 1387.6 250.912C1401.6 265.362 1415.83 279.789 1430.07 294.216C1436.56 300.756 1443.02 307.062 1449.22 313.631C1460.81 288.661 1471.11 263.289 1479.72 237.439C1472.93 233.227 1463.06 227.616 1457.82 221.776C1443.35 224.463 1422.74 223.995 1408.62 227.825ZM1577.87 209.984C1571.73 217.553 1563.94 226.231 1556.84 233.071C1570.85 247.522 1585.08 261.949 1599.31 276.376C1605.8 282.915 1612.27 289.222 1618.47 295.79C1630.05 270.821 1640.36 245.449 1648.97 219.598C1642.18 215.387 1632.31 209.776 1627.07 203.936C1612.89 206.593 1591.98 206.154 1577.87 209.984ZM1751.73 191.682C1745.59 199.251 1737.8 207.929 1730.7 214.769C1744.7 229.219 1758.94 243.646 1773.17 258.073C1779.66 264.613 1786.13 270.919 1792.33 277.488C1803.91 252.518 1814.21 227.088 1822.82 201.296C1816.04 197.084 1806.16 191.473 1800.92 185.633C1786.75 188.291 1765.84 187.851 1751.73 191.682ZM755.759 140.538C749.621 148.107 741.827 156.785 734.733 163.625C748.734 178.075 762.969 192.502 777.204 206.929C783.694 213.469 790.16 219.775 796.358 226.344C807.942 201.374 818.249 176.002 826.857 150.152C820.07 145.94 810.195 140.329 804.954 134.489C790.489 137.176 769.903 136.999 755.759 140.538ZM929.615 122.235C923.478 129.804 915.684 138.483 908.59 145.322C922.591 159.773 936.826 174.2 951.06 188.627C957.55 195.166 964.017 201.473 970.215 208.042C981.799 183.072 992.105 157.7 1000.71 131.849C993.926 127.638 984.052 122.027 978.811 116.187C964.346 118.874 943.759 118.697 929.674 122.23L929.615 122.235ZM1105.46 103.734C1099.32 111.303 1091.52 119.981 1084.43 126.821C1098.43 141.271 1112.67 155.698 1126.9 170.125C1133.39 176.665 1139.86 182.971 1146.06 189.54C1157.64 164.57 1167.95 139.198 1176.55 113.348C1169.77 109.137 1159.89 103.525 1154.65 97.6856C1140.48 100.343 1119.6 100.195 1105.46 103.734ZM1279.31 85.4317C1273.18 93.0007 1265.38 101.679 1258.29 108.519C1272.29 122.969 1286.52 137.396 1300.76 151.823C1307.25 158.363 1313.71 164.669 1319.91 171.238C1331.5 146.268 1341.8 120.896 1350.41 95.0456C1343.62 90.8341 1333.75 85.2228 1328.51 79.3831C1314.33 82.0407 1293.46 81.893 1279.31 85.4317ZM1448.85 67.5618C1442.71 75.1308 1434.92 83.8088 1427.83 90.6487C1441.83 105.099 1456.06 119.526 1470.3 133.953C1476.79 140.493 1483.25 146.799 1489.45 153.368C1501.03 128.398 1511.34 103.026 1519.95 77.1756C1513.16 72.9642 1503.29 67.3529 1498.05 61.5132C1483.58 64.2 1463 64.0231 1448.85 67.5618ZM1622.71 49.2592C1616.57 56.8283 1608.78 65.5063 1601.68 72.3461C1615.68 86.7965 1629.92 101.223 1644.15 115.65C1650.64 122.19 1657.11 128.496 1663.31 135.065C1674.89 110.096 1685.2 84.7234 1693.81 58.8731C1687.02 54.6616 1677.14 49.0504 1671.9 43.2106C1657.44 45.8975 1636.85 45.7206 1622.71 49.2592ZM814.328 -10.7781C808.191 -3.20907 800.397 5.46893 793.303 12.3088C807.304 26.7592 821.539 41.1861 835.773 55.6131C842.263 62.1528 848.73 68.4591 854.928 75.028C866.512 50.0582 876.818 24.6861 885.426 -1.1642C878.639 -5.37571 868.765 -10.987 863.524 -16.8267C849.088 -13.8481 828.472 -14.3168 814.328 -10.7781ZM988.185 -29.0806C982.048 -21.5116 974.254 -12.8336 967.159 -5.99372C981.16 8.45664 995.395 22.8836 1009.63 37.3106C1016.12 43.8503 1022.59 50.1565 1028.78 56.7254C1040.37 31.7557 1050.67 6.38354 1059.28 -19.4667C1052.5 -23.6782 1042.62 -29.2895 1037.38 -35.1292C1022.94 -32.1506 1002.33 -32.6193 988.185 -29.0806ZM1164.03 -47.5819C1157.89 -40.0129 1150.09 -31.3349 1143 -24.495C1157 -10.0446 1171.24 4.38232 1185.47 18.8093C1191.96 25.349 1198.43 31.6553 1204.62 38.2242C1216.21 13.2544 1226.52 -12.1177 1235.12 -37.968C1228.34 -42.1795 1218.46 -47.7908 1213.22 -53.6305C1199.08 -50.6812 1178.17 -51.1206 1164.03 -47.5819ZM1337.88 -65.8844C1331.74 -58.3154 1323.95 -49.6374 1316.86 -42.7975C1330.86 -28.3472 1345.09 -13.9202 1359.33 0.506778C1365.82 7.04646 1372.28 13.3527 1378.48 19.9216C1390.07 -5.04814 1400.37 -30.4203 1408.98 -56.2705C1402.19 -60.482 1392.32 -66.0933 1387.08 -71.933C1372.93 -68.9837 1352.03 -69.4231 1337.94 -65.8903L1337.88 -65.8844ZM1507.42 -83.7543C1501.28 -76.1853 1493.49 -67.5073 1486.4 -60.6674C1500.4 -46.2171 1514.63 -31.7901 1528.87 -17.3631C1535.36 -10.8235 1541.82 -4.51716 1548.02 2.05174C1559.6 -22.918 1569.91 -48.2902 1578.52 -74.1404C1571.73 -78.3519 1561.86 -83.9632 1556.62 -89.8029C1542.18 -86.8244 1521.56 -87.293 1507.48 -83.7602L1507.42 -83.7543ZM1681.28 -102.057C1675.14 -94.4878 1667.35 -85.8098 1660.25 -78.9699C1674.25 -64.5196 1688.49 -50.0926 1702.72 -35.6656C1709.21 -29.126 1715.68 -22.8197 1721.88 -16.2508C1733.46 -41.2206 1743.77 -66.5927 1752.38 -92.4429C1745.59 -96.6544 1735.71 -102.266 1730.47 -108.105C1716.04 -105.127 1695.42 -105.596 1681.28 -102.057ZM1936.97 908.201C1930.83 915.77 1923.04 924.448 1915.94 931.288C1929.94 945.739 1944.18 960.166 1958.41 974.593C1964.9 981.132 1971.37 987.438 1977.57 994.007C1989.15 969.038 1999.46 943.666 2008.07 917.815C2001.28 913.604 1991.4 907.992 1986.16 902.153C1972.02 905.102 1951.11 904.663 1936.97 908.201ZM2110.82 889.899C2104.69 897.468 2096.89 906.146 2089.8 912.986C2103.8 927.436 2118.03 941.863 2132.27 956.29C2138.76 962.83 2145.23 969.136 2151.42 975.705C2163.01 950.735 2173.31 925.363 2181.92 899.513C2175.13 895.301 2165.26 889.69 2160.02 883.85C2145.88 886.799 2124.97 886.36 2110.82 889.899ZM2286.96 871.368C2280.82 878.937 2273.02 887.615 2265.93 894.455C2279.93 908.906 2294.17 923.333 2308.4 937.76C2314.89 944.299 2321.36 950.605 2327.56 957.174C2339.14 932.205 2349.45 906.832 2358.05 880.982C2351.27 876.771 2341.39 871.159 2336.15 865.32C2321.72 868.298 2301.1 867.83 2286.96 871.368ZM2460.81 853.066C2454.68 860.635 2446.88 869.313 2439.79 876.153C2453.79 890.603 2468.02 905.03 2482.26 919.457C2488.75 925.997 2495.21 932.303 2501.41 938.872C2513 913.902 2523.3 888.53 2531.91 862.68C2525.12 858.468 2515.25 852.857 2510.01 847.017C2495.57 849.996 2474.96 849.527 2460.81 853.066ZM2630.06 835.225C2623.93 842.852 2616.13 851.472 2609.03 858.312C2623.04 872.762 2637.27 887.189 2651.5 901.616C2657.99 908.156 2664.46 914.462 2670.66 921.031C2682.24 896.061 2692.55 870.689 2701.16 844.839C2694.37 840.627 2684.5 835.016 2679.26 829.176C2665.11 832.126 2644.2 831.686 2630.06 835.225ZM2803.92 816.923C2797.78 824.492 2789.98 833.17 2782.89 840.009C2796.89 854.46 2811.13 868.887 2825.36 883.314C2831.85 889.853 2838.32 896.16 2844.52 902.729C2856.1 877.759 2866.41 852.387 2875.01 826.537C2868.23 822.325 2858.35 816.714 2853.11 810.874C2838.97 813.823 2818.06 813.384 2803.92 816.923ZM1995.87 757.264C1989.73 764.833 1981.94 773.511 1974.84 780.351C1988.85 794.802 2003.08 809.229 2017.31 823.656C2023.8 830.195 2030.27 836.502 2036.47 843.07C2048.05 818.101 2058.36 792.729 2066.97 766.878C2060.18 762.667 2050.31 757.056 2045.06 751.216C2030.89 753.873 2009.98 753.434 1995.93 757.259L1995.87 757.264ZM2169.73 738.962C2163.59 746.531 2155.79 755.209 2148.7 762.049C2162.7 776.499 2176.94 790.926 2191.17 805.353C2197.66 811.893 2204.13 818.199 2210.33 824.768C2221.91 799.798 2232.22 774.426 2240.82 748.576C2234.04 744.364 2224.16 738.753 2218.92 732.913C2204.75 735.571 2183.84 735.131 2169.73 738.962ZM2345.86 720.431C2339.72 728 2331.93 736.678 2324.83 743.518C2338.83 757.969 2353.07 772.396 2367.3 786.823C2373.79 793.362 2380.26 799.669 2386.46 806.237C2398.04 781.268 2408.35 755.896 2416.96 730.045C2410.17 725.834 2400.3 720.222 2395.05 714.383C2380.59 717.07 2359.97 716.601 2345.86 720.431ZM2519.72 702.129C2513.58 709.698 2505.78 718.376 2498.69 725.216C2512.69 739.666 2526.93 754.093 2541.16 768.52C2547.65 775.06 2554.12 781.366 2560.31 787.935C2571.9 762.965 2582.2 737.593 2590.81 711.743C2584.03 707.531 2574.15 701.92 2568.91 696.08C2554.45 698.767 2533.83 698.298 2519.72 702.129ZM2688.96 684.288C2682.82 691.857 2675.03 700.535 2667.94 707.375C2681.94 721.825 2696.17 736.252 2710.41 750.679C2716.9 757.219 2723.36 763.525 2729.56 770.094C2741.15 745.124 2751.45 719.752 2760.06 693.902C2753.27 689.691 2743.4 684.079 2738.16 678.24C2723.98 680.897 2703.08 680.458 2688.96 684.288ZM2862.82 665.986C2856.68 673.555 2848.89 682.233 2841.79 689.073C2855.79 703.523 2870.03 717.95 2884.26 732.377C2890.75 738.916 2897.22 745.223 2903.42 751.792C2915 726.822 2925.31 701.45 2933.92 675.6C2927.13 671.388 2917.26 665.777 2912.01 659.937C2897.84 662.595 2876.93 662.155 2862.82 665.986ZM1866.85 614.842C1860.71 622.411 1852.92 631.089 1845.82 637.929C1859.83 652.379 1874.06 666.806 1888.3 681.233C1894.79 687.773 1901.25 694.079 1907.45 700.648C1919.03 675.678 1929.34 650.306 1937.95 624.456C1931.16 620.244 1921.29 614.633 1916.05 608.793C1901.58 611.48 1880.99 611.303 1866.85 614.842ZM2040.71 596.539C2034.57 604.108 2026.78 612.786 2019.68 619.626C2033.68 634.077 2047.92 648.503 2062.15 662.93C2068.64 669.47 2075.11 675.776 2081.31 682.345C2092.89 657.376 2103.2 632.003 2111.81 606.153C2105.02 601.942 2095.14 596.33 2089.9 590.491C2075.44 593.177 2054.85 593.001 2040.71 596.539ZM2216.55 578.038C2210.41 585.607 2202.62 594.285 2195.52 601.125C2209.52 615.575 2223.76 630.002 2237.99 644.429C2244.48 650.969 2250.95 657.275 2257.15 663.844C2268.73 638.874 2279.04 613.502 2287.65 587.652C2280.86 583.44 2270.98 577.829 2265.74 571.989C2251.57 574.647 2230.69 574.499 2216.55 578.038ZM2390.4 559.735C2384.27 567.304 2376.47 575.983 2369.38 582.822C2383.38 597.273 2397.61 611.7 2411.85 626.127C2418.34 632.666 2424.81 638.973 2431 645.542C2442.59 620.572 2452.89 595.141 2461.5 569.349C2454.72 565.138 2444.84 559.527 2439.6 553.687C2425.43 556.344 2404.55 556.197 2390.4 559.735ZM2559.94 541.865C2553.81 549.435 2546.01 558.113 2538.92 564.952C2552.92 579.403 2567.15 593.83 2581.39 608.257C2587.88 614.796 2594.34 621.103 2600.54 627.672C2612.13 602.702 2622.43 577.33 2631.04 551.479C2624.25 547.268 2614.38 541.657 2609.14 535.817C2594.67 538.504 2574.09 538.327 2559.94 541.865ZM2733.8 523.563C2727.66 531.132 2719.87 539.81 2712.77 546.65C2726.78 561.1 2741.01 575.527 2755.24 589.954C2761.73 596.494 2768.2 602.8 2774.4 609.369C2785.98 584.399 2796.29 559.027 2804.9 533.177C2798.11 528.965 2788.24 523.354 2783 517.514C2768.53 520.201 2747.94 520.024 2733.8 523.563ZM1925.72 463.613C1919.59 471.182 1911.79 479.86 1904.7 486.7C1918.7 501.15 1932.93 515.577 1947.17 530.004C1953.66 536.544 1960.13 542.85 1966.32 549.419C1977.91 524.449 1988.21 499.077 1996.82 473.227C1990.03 469.015 1980.16 463.404 1974.92 457.564C1960.48 460.543 1939.87 460.074 1925.78 463.607L1925.72 463.613ZM2099.58 445.311C2093.44 452.88 2085.65 461.558 2078.55 468.398C2092.56 482.848 2106.79 497.275 2121.02 511.702C2127.51 518.242 2133.98 524.548 2140.18 531.117C2151.76 506.147 2162.07 480.775 2170.68 454.924C2163.89 450.713 2154.02 445.102 2148.78 439.262C2134.34 442.241 2113.72 441.772 2099.58 445.311ZM2275.42 426.809C2269.28 434.378 2261.49 443.056 2254.4 449.896C2268.4 464.347 2282.63 478.774 2296.87 493.201C2303.36 499.74 2309.82 506.046 2316.02 512.615C2327.6 487.646 2337.91 462.273 2346.52 436.423C2339.73 432.212 2329.86 426.6 2324.62 420.761C2310.47 423.71 2289.56 423.271 2275.42 426.809ZM2449.28 408.507C2443.14 416.076 2435.35 424.754 2428.25 431.594C2442.25 446.044 2456.49 460.471 2470.72 474.898C2477.21 481.438 2483.68 487.744 2489.88 494.313C2501.46 469.343 2511.77 443.971 2520.38 418.121C2513.59 413.909 2503.71 408.298 2498.47 402.458C2484.33 405.408 2463.42 404.968 2449.28 408.507ZM2618.82 390.637C2612.68 398.206 2604.88 406.884 2597.79 413.724C2611.79 428.174 2626.03 442.601 2640.26 457.028C2646.75 463.568 2653.22 469.874 2659.42 476.443C2671 451.473 2681.31 426.101 2689.91 400.251C2683.13 396.039 2673.25 390.428 2668.01 384.588C2653.58 387.567 2632.96 387.098 2618.82 390.637ZM2792.67 372.334C2786.54 379.903 2778.74 388.581 2771.65 395.421C2785.65 409.872 2799.88 424.299 2814.12 438.726C2820.61 445.265 2827.07 451.571 2833.27 458.14C2844.86 433.171 2855.16 407.799 2863.77 381.948C2856.98 377.737 2847.11 372.125 2841.87 366.286C2827.43 369.264 2806.82 368.796 2792.67 372.334ZM1875.74 323.527C1869.6 331.096 1861.81 339.774 1854.71 346.614C1868.71 361.064 1882.95 375.491 1897.18 389.918C1903.67 396.458 1910.14 402.764 1916.34 409.333C1927.92 384.363 1938.23 358.991 1946.84 333.141C1940.05 328.929 1930.17 323.318 1924.93 317.478C1910.79 320.428 1889.88 319.988 1875.74 323.527ZM2049.59 305.224C2043.46 312.793 2035.66 321.471 2028.57 328.311C2042.57 342.762 2056.8 357.188 2071.04 371.615C2077.53 378.155 2084 384.461 2090.19 391.03C2101.78 366.061 2112.08 340.63 2120.69 314.838C2113.9 310.627 2104.03 305.015 2098.79 299.176C2084.65 302.125 2063.74 301.686 2049.59 305.224ZM2225.73 286.694C2219.59 294.263 2211.79 302.941 2204.7 309.781C2218.7 324.231 2232.94 338.658 2247.17 353.085C2253.66 359.625 2260.13 365.931 2266.33 372.5C2277.91 347.53 2288.22 322.158 2296.82 296.308C2290.04 292.096 2280.16 286.485 2274.92 280.645C2260.49 283.624 2239.87 283.155 2225.73 286.694ZM2399.58 268.391C2393.45 275.96 2385.65 284.638 2378.56 291.478C2392.56 305.928 2406.79 320.355 2421.03 334.782C2427.52 341.322 2433.98 347.628 2440.18 354.197C2451.77 329.228 2462.07 303.855 2470.68 278.005C2463.89 273.794 2454.02 268.182 2448.78 262.343C2434.34 265.321 2413.73 264.853 2399.58 268.391ZM2568.83 250.551C2562.69 258.12 2554.9 266.798 2547.8 273.637C2561.81 288.088 2576.04 302.515 2590.27 316.942C2596.76 323.481 2603.23 329.788 2609.43 336.357C2621.01 311.387 2631.32 286.015 2639.93 260.164C2633.14 255.953 2623.27 250.342 2618.03 244.502C2603.88 247.451 2582.97 247.012 2568.83 250.551ZM2742.69 232.248C2736.55 239.817 2728.75 248.495 2721.66 255.335C2735.66 269.785 2749.9 284.212 2764.13 298.639C2770.62 305.179 2777.09 311.485 2783.29 318.054C2794.87 293.084 2805.18 267.712 2813.78 241.862C2807 237.65 2797.12 232.039 2791.88 226.199C2777.74 229.149 2756.83 228.709 2742.74 232.242L2742.69 232.248ZM1934.64 172.59C1928.5 180.159 1920.71 188.837 1913.61 195.677C1927.62 210.127 1941.85 224.554 1956.08 238.981C1962.57 245.521 1969.04 251.827 1975.24 258.396C1986.82 233.426 1997.13 208.054 2005.74 182.204C1998.95 177.992 1989.08 172.381 1983.83 166.541C1969.66 169.199 1948.75 168.759 1934.64 172.59ZM2108.5 154.287C2102.36 161.856 2094.56 170.534 2087.47 177.374C2101.47 191.825 2115.71 206.252 2129.94 220.679C2136.43 227.218 2142.9 233.525 2149.1 240.093C2160.68 215.124 2170.99 189.752 2179.59 163.901C2172.81 159.69 2162.93 154.078 2157.69 148.239C2143.52 150.896 2122.61 150.457 2108.55 154.282L2108.5 154.287ZM2284.63 135.757C2278.49 143.326 2270.7 152.004 2263.6 158.844C2277.6 173.294 2291.84 187.721 2306.07 202.148C2312.56 208.688 2319.03 214.994 2325.23 221.563C2336.81 196.593 2347.12 171.221 2355.73 145.371C2348.94 141.159 2339.07 135.548 2333.82 129.708C2319.36 132.395 2298.74 131.926 2284.63 135.757ZM2458.49 117.454C2452.35 125.023 2444.55 133.701 2437.46 140.541C2451.46 154.992 2465.7 169.419 2479.93 183.846C2486.42 190.385 2492.89 196.691 2499.08 203.26C2510.67 178.291 2520.97 152.919 2529.58 127.068C2522.8 122.857 2512.92 117.245 2507.68 111.406C2493.22 114.093 2472.6 113.624 2458.49 117.454ZM2627.73 99.6137C2621.59 107.183 2613.8 115.861 2606.71 122.701C2620.71 137.151 2634.94 151.578 2649.18 166.005C2655.67 172.545 2662.13 178.851 2668.33 185.42C2679.92 160.45 2690.22 135.078 2698.83 109.228C2692.04 105.016 2682.17 99.4048 2676.93 93.5651C2662.75 96.2227 2641.85 95.7832 2627.73 99.6137ZM2801.59 81.3112C2795.45 88.8802 2787.66 97.5582 2780.56 104.398C2794.56 118.848 2808.8 133.275 2823.03 147.702C2829.52 154.242 2835.99 160.548 2842.19 167.117C2853.77 142.147 2864.08 116.775 2872.69 90.925C2865.9 86.7136 2856.03 81.1023 2850.78 75.2626C2836.61 77.9202 2815.7 77.4808 2801.59 81.3112ZM1805.62 30.1673C1799.48 37.7363 1791.69 46.4143 1784.59 53.2542C1798.6 67.7045 1812.83 82.1315 1827.07 96.5585C1833.56 103.098 1840.02 109.404 1846.22 115.973C1857.8 91.0036 1868.11 65.6314 1876.72 39.7812C1869.93 35.5697 1860.06 29.9584 1854.82 24.1187C1840.35 26.8055 1819.76 26.6286 1805.62 30.1673ZM1979.48 11.8647C1973.34 19.4338 1965.55 28.1118 1958.45 34.9516C1972.45 49.402 1986.69 63.829 2000.92 78.2559C2007.41 84.7956 2013.88 91.1019 2020.08 97.6708C2031.66 72.7011 2041.97 47.3289 2050.58 21.4787C2043.79 17.2672 2033.91 11.6559 2028.67 5.81614C2014.21 8.503 1993.62 8.32609 1979.48 11.8647ZM2155.32 -6.63652C2149.18 0.932498 2141.39 9.6105 2134.29 16.4504C2148.29 30.9007 2162.53 45.3277 2176.76 59.7547C2183.25 66.2944 2189.72 72.6007 2195.92 79.1695C2207.5 54.1998 2217.81 28.8276 2226.42 2.97737C2219.63 -1.23411 2209.75 -6.8454 2204.51 -12.6851C2190.34 -10.0275 2169.46 -10.1752 2155.32 -6.63652ZM2329.17 -24.9391C2323.04 -17.37 2315.24 -8.69201 2308.15 -1.85214C2322.15 12.5982 2336.38 27.0252 2350.62 41.4522C2357.11 47.9918 2363.58 54.2981 2369.77 60.867C2381.36 35.8972 2391.66 10.5251 2400.27 -15.3252C2393.49 -19.5366 2383.61 -25.1479 2378.37 -30.9876C2364.2 -28.33 2343.32 -28.4777 2329.17 -24.9391ZM2498.71 -42.809C2492.58 -35.2399 2484.78 -26.5619 2477.69 -19.722C2491.69 -5.27169 2505.92 9.15528 2520.16 23.5823C2526.65 30.1219 2533.11 36.4282 2539.31 42.9971C2550.9 18.0274 2561.2 -7.34478 2569.81 -33.1951C2563.02 -37.4066 2553.15 -43.0178 2547.91 -48.8575C2533.44 -46.1707 2512.86 -46.3476 2498.77 -42.8148L2498.71 -42.809ZM2672.57 -61.1115C2666.43 -53.5424 2658.64 -44.8645 2651.54 -38.0246C2665.55 -23.5742 2679.78 -9.1472 2694.01 5.27977C2700.5 11.8194 2706.97 18.1257 2713.17 24.6946C2724.75 -0.275185 2735.06 -25.6473 2743.67 -51.4975C2736.88 -55.7091 2727.01 -61.3203 2721.76 -67.16C2707.3 -64.4732 2686.71 -64.6502 2672.57 -61.1115ZM1863.76 -121.283C1857.63 -113.714 1849.83 -105.036 1842.74 -98.196C1856.74 -83.7457 1870.97 -69.3187 1885.21 -54.8918C1891.7 -48.3521 1898.17 -42.0458 1904.36 -35.4769C1915.95 -60.4466 1926.25 -85.8188 1934.86 -111.669C1928.07 -115.881 1918.2 -121.492 1912.96 -127.332C1898.52 -124.353 1877.91 -124.822 1863.76 -121.283ZM2037.62 -139.585C2031.48 -132.016 2023.69 -123.338 2016.59 -116.499C2030.6 -102.048 2044.83 -87.6212 2059.07 -73.1942C2065.56 -66.6546 2072.02 -60.3483 2078.22 -53.7794C2089.8 -78.7491 2100.11 -104.121 2108.72 -129.972C2101.93 -134.183 2092.06 -139.794 2086.82 -145.634C2072.38 -142.655 2051.76 -143.124 2037.62 -139.585ZM2213.46 -158.087C2207.32 -150.518 2199.53 -141.84 2192.44 -135C2206.44 -120.549 2220.67 -106.123 2234.91 -91.6955C2241.4 -85.1559 2247.86 -78.8496 2254.06 -72.2807C2265.64 -97.2504 2275.95 -122.623 2284.56 -148.473C2277.77 -152.684 2267.9 -158.296 2262.66 -164.135C2248.51 -161.186 2227.61 -161.625 2213.46 -158.087ZM2387.32 -176.389C2381.18 -168.82 2373.39 -160.142 2366.29 -153.302C2380.29 -138.852 2394.53 -124.425 2408.76 -109.998C2415.25 -103.458 2421.72 -97.1521 2427.92 -90.5832C2439.5 -115.553 2449.81 -140.925 2458.42 -166.775C2451.63 -170.987 2441.75 -176.598 2436.51 -182.438C2422.37 -179.488 2401.46 -179.928 2387.32 -176.389ZM2556.86 -194.259C2550.72 -186.69 2542.93 -178.012 2535.83 -171.172C2549.83 -156.722 2564.07 -142.295 2578.3 -127.868C2584.79 -121.328 2591.26 -115.022 2597.46 -108.453C2609.04 -133.423 2619.35 -158.795 2627.95 -184.645C2621.17 -188.857 2611.29 -194.468 2606.05 -200.308C2591.62 -197.329 2571 -197.798 2556.86 -194.259ZM2730.71 -212.562C2724.58 -204.993 2716.78 -196.315 2709.69 -189.475C2723.69 -175.024 2737.92 -160.597 2752.16 -146.17C2758.65 -139.631 2765.11 -133.325 2771.31 -126.756C2782.9 -151.725 2793.2 -177.098 2801.81 -202.948C2795.02 -207.159 2785.15 -212.771 2779.91 -218.61C2765.47 -215.632 2744.86 -216.1 2730.71 -212.562ZM887.473 1018.71C881.336 1026.28 873.542 1034.96 866.447 1041.8C880.449 1056.25 894.683 1070.68 908.918 1085.1C915.408 1091.64 921.874 1097.95 928.073 1104.52C939.657 1079.55 949.963 1054.18 958.571 1028.33C951.784 1024.11 941.91 1018.5 936.669 1012.66C922.525 1015.61 901.617 1015.17 887.473 1018.71ZM1061.33 1000.41C1055.19 1007.98 1047.4 1016.66 1040.3 1023.5C1054.31 1037.95 1068.54 1052.37 1082.77 1066.8C1089.26 1073.34 1095.73 1079.65 1101.93 1086.22C1113.51 1061.25 1123.82 1035.87 1132.43 1010.02C1125.64 1005.81 1115.77 1000.2 1110.53 994.361C1096.38 997.31 1075.47 996.871 1061.33 1000.41ZM1237.46 981.879C1231.32 989.448 1223.53 998.126 1216.44 1004.97C1230.44 1019.42 1244.67 1033.84 1258.91 1048.27C1265.4 1054.81 1271.86 1061.12 1278.06 1067.68C1289.65 1042.72 1299.95 1017.34 1308.56 991.493C1301.77 987.281 1291.9 981.67 1286.66 975.83C1272.22 978.809 1251.61 978.34 1237.46 981.879ZM1411.32 963.576C1405.18 971.145 1397.39 979.823 1390.29 986.663C1404.29 1001.11 1418.53 1015.54 1432.76 1029.97C1439.25 1036.51 1445.72 1042.81 1451.92 1049.38C1463.5 1024.41 1473.8 998.982 1482.42 973.19C1475.63 968.979 1465.76 963.367 1460.51 957.528C1446.08 960.506 1425.46 960.038 1411.32 963.576ZM1580.57 945.736C1574.43 953.305 1566.63 961.983 1559.54 968.823C1573.54 983.273 1587.78 997.7 1602.01 1012.13C1608.5 1018.67 1614.97 1024.97 1621.17 1031.54C1632.75 1006.57 1643.06 981.2 1651.66 955.35C1644.88 951.138 1635 945.527 1629.76 939.687C1615.62 942.637 1594.71 942.197 1580.57 945.736ZM1754.42 927.433C1748.28 935.002 1740.49 943.68 1733.4 950.52C1747.4 964.97 1761.63 979.397 1775.87 993.824C1782.36 1000.36 1788.82 1006.67 1795.02 1013.24C1806.61 988.27 1816.91 962.897 1825.52 937.047C1818.73 932.836 1808.86 927.224 1803.62 921.385C1789.47 924.334 1768.57 923.894 1754.42 927.433ZM946.375 867.775C940.238 875.344 932.444 884.022 925.35 890.862C939.351 905.312 953.586 919.739 967.82 934.166C974.31 940.706 980.777 947.012 986.975 953.581C998.559 928.611 1008.87 903.239 1017.47 877.389C1010.69 873.177 1000.81 867.566 995.571 861.727C981.398 864.384 960.49 863.945 946.375 867.775ZM1120.23 849.473C1114.09 857.042 1106.3 865.72 1099.21 872.559C1113.21 887.01 1127.44 901.437 1141.68 915.864C1148.17 922.403 1154.63 928.71 1160.83 935.279C1172.42 910.309 1182.72 884.937 1191.33 859.086C1184.54 854.875 1174.67 849.264 1169.43 843.424C1155.25 846.082 1134.35 845.642 1120.23 849.473ZM1296.36 830.942C1290.23 838.511 1282.43 847.189 1275.34 854.029C1289.34 868.479 1303.57 882.906 1317.81 897.333C1324.3 903.873 1330.77 910.179 1336.96 916.748C1348.55 891.778 1358.85 866.406 1367.46 840.556C1360.68 836.344 1350.8 830.733 1345.56 824.893C1331.09 827.58 1310.48 827.112 1296.36 830.942ZM1470.22 812.639C1464.08 820.209 1456.29 828.887 1449.2 835.726C1463.2 850.177 1477.43 864.604 1491.67 879.031C1498.16 885.57 1504.62 891.877 1510.82 898.446C1522.4 873.476 1532.71 848.104 1541.32 822.253C1534.53 818.042 1524.66 812.431 1519.42 806.591C1504.95 809.278 1484.34 808.809 1470.22 812.639ZM1639.47 794.799C1633.33 802.368 1625.54 811.046 1618.44 817.886C1632.44 832.336 1646.68 846.763 1660.91 861.19C1667.4 867.73 1673.87 874.036 1680.07 880.605C1691.65 855.635 1701.96 830.263 1710.57 804.413C1703.78 800.201 1693.9 794.59 1688.66 788.75C1674.49 791.408 1653.58 790.968 1639.47 794.799ZM1813.32 776.496C1807.19 784.065 1799.39 792.743 1792.3 799.583C1806.3 814.034 1820.53 828.461 1834.77 842.888C1841.26 849.427 1847.73 855.733 1853.92 862.302C1865.51 837.333 1875.81 811.961 1884.42 786.11C1877.64 781.899 1867.76 776.288 1862.52 770.448C1848.35 773.105 1827.44 772.666 1813.32 776.496ZM817.357 725.352C811.219 732.921 803.425 741.6 796.331 748.439C810.332 762.89 824.567 777.317 838.801 791.744C845.291 798.283 851.758 804.59 857.956 811.159C869.54 786.189 879.846 760.817 888.454 734.966C881.667 730.755 871.793 725.144 866.552 719.304C852.087 721.991 831.5 721.814 817.357 725.352ZM991.213 707.05C985.076 714.619 977.282 723.297 970.187 730.137C984.188 744.587 998.423 759.014 1012.66 773.441C1019.15 779.981 1025.61 786.287 1031.81 792.856C1043.4 767.886 1053.7 742.514 1062.31 716.664C1055.52 712.452 1045.65 706.841 1040.41 701.001C1025.94 703.688 1005.36 703.511 991.213 707.05ZM1167.05 688.549C1160.92 696.118 1153.12 704.796 1146.03 711.636C1160.03 726.086 1174.26 740.513 1188.5 754.94C1194.99 761.48 1201.46 767.786 1207.65 774.355C1219.24 749.385 1229.54 724.013 1238.15 698.163C1231.36 693.951 1221.49 688.34 1216.25 682.5C1202.08 685.158 1181.2 685.01 1167.05 688.549ZM1340.91 670.246C1334.77 677.815 1326.98 686.493 1319.88 693.333C1333.89 707.783 1348.12 722.21 1362.36 736.637C1368.85 743.177 1375.31 749.483 1381.51 756.052C1393.09 731.082 1403.4 705.71 1412.01 679.86C1405.22 675.649 1395.35 670.037 1390.11 664.197C1375.93 666.855 1355.05 666.707 1340.91 670.246ZM1510.45 652.376C1504.31 659.945 1496.52 668.623 1489.42 675.463C1503.42 689.913 1517.66 704.341 1531.89 718.767C1538.38 725.307 1544.85 731.613 1551.05 738.182C1562.63 713.213 1572.94 687.84 1581.55 661.99C1574.76 657.779 1564.89 652.167 1559.64 646.328C1545.18 649.014 1524.59 648.838 1510.45 652.376ZM1684.31 634.074C1678.17 641.643 1670.37 650.321 1663.28 657.161C1677.28 671.611 1691.52 686.038 1705.75 700.465C1712.24 707.005 1718.71 713.311 1724.9 719.88C1736.49 694.91 1746.79 669.48 1755.4 643.688C1748.62 639.476 1738.74 633.865 1733.5 628.025C1719.04 630.712 1698.45 630.535 1684.36 634.068L1684.31 634.074ZM876.23 574.124C870.092 581.693 862.298 590.371 855.204 597.211C869.205 611.661 883.44 626.088 897.674 640.515C904.164 647.055 910.631 653.361 916.829 659.93C928.413 634.96 938.719 609.588 947.327 583.738C940.54 579.526 930.666 573.915 925.425 568.075C910.989 571.054 890.373 570.585 876.23 574.124ZM1050.09 555.821C1043.95 563.39 1036.15 572.068 1029.06 578.908C1043.06 593.359 1057.3 607.785 1071.53 622.212C1078.02 628.752 1084.49 635.058 1090.69 641.627C1102.27 616.658 1112.58 591.285 1121.18 565.435C1114.4 561.224 1104.52 555.612 1099.28 549.773C1084.85 552.751 1064.23 552.283 1050.09 555.821ZM1225.93 537.32C1219.8 544.947 1212 553.567 1204.9 560.407C1218.9 574.857 1233.14 589.284 1247.37 603.711C1253.86 610.251 1260.33 616.557 1266.53 623.126C1278.11 598.156 1288.42 572.784 1297.02 546.934C1290.24 542.722 1280.36 537.111 1275.12 531.271C1260.98 534.221 1240.07 533.781 1225.93 537.32ZM1399.78 519.017C1393.65 526.586 1385.85 535.265 1378.76 542.104C1392.76 556.555 1406.99 570.982 1421.23 585.409C1427.72 591.948 1434.18 598.255 1440.38 604.824C1451.97 579.854 1462.27 554.482 1470.88 528.631C1464.09 524.42 1454.22 518.809 1448.98 512.969C1434.83 515.918 1413.93 515.479 1399.78 519.017ZM1569.32 501.148C1563.18 508.717 1555.39 517.395 1548.3 524.235C1562.3 538.685 1576.53 553.112 1590.77 567.539C1597.26 574.078 1603.72 580.385 1609.92 586.954C1621.51 561.984 1631.81 536.612 1640.42 510.761C1633.63 506.55 1623.76 500.939 1618.52 495.099C1604.08 498.078 1583.47 497.609 1569.32 501.148ZM1743.18 482.845C1737.04 490.414 1729.25 499.092 1722.15 505.932C1736.15 520.382 1750.39 534.809 1764.62 549.236C1771.11 555.776 1777.58 562.082 1783.78 568.651C1795.36 543.681 1805.67 518.309 1814.28 492.459C1807.49 488.248 1797.62 482.636 1792.37 476.796C1777.94 479.775 1757.32 479.306 1743.18 482.845ZM-161.957 1129.28C-168.094 1136.84 -175.888 1145.52 -182.983 1152.36C-168.981 1166.81 -154.747 1181.24 -140.512 1195.67C-134.022 1202.21 -127.556 1208.51 -121.357 1215.08C-109.773 1190.11 -99.467 1164.74 -90.8589 1138.89C-97.646 1134.68 -107.52 1129.07 -112.761 1123.23C-126.905 1126.18 -147.813 1125.74 -161.957 1129.28ZM11.8998 1110.97C5.76255 1118.54 -2.03174 1127.22 -9.1261 1134.06C4.87519 1148.51 19.1099 1162.94 33.3446 1177.36C39.8345 1183.9 46.3011 1190.21 52.4993 1196.78C64.0834 1171.81 74.3896 1146.44 82.9977 1120.59C76.2106 1116.38 66.3364 1110.76 61.0953 1104.92C46.9513 1107.87 26.0437 1107.43 11.8998 1110.97ZM188.032 1092.44C181.901 1100.07 174.101 1108.69 167.006 1115.53C181.008 1129.98 195.242 1144.41 209.477 1158.83C215.967 1165.37 222.433 1171.68 228.632 1178.25C240.216 1153.28 250.522 1127.91 259.13 1102.06C252.343 1097.84 242.469 1092.23 237.228 1086.39C222.792 1089.37 202.176 1088.9 188.032 1092.44ZM361.889 1074.14C355.751 1081.71 347.957 1090.39 340.863 1097.23C354.864 1111.68 369.099 1126.1 383.333 1140.53C389.823 1147.07 396.29 1153.38 402.488 1159.95C414.072 1134.98 424.379 1109.6 432.987 1083.75C426.2 1079.54 416.325 1073.93 411.084 1068.09C396.649 1071.07 376.033 1070.6 361.889 1074.14ZM531.136 1056.3C524.998 1063.87 517.204 1072.55 510.11 1079.39C524.111 1093.84 538.346 1108.26 552.58 1122.69C559.07 1129.23 565.537 1135.54 571.735 1142.11C583.319 1117.14 593.625 1091.76 602.233 1065.91C595.446 1061.7 585.572 1056.09 580.331 1050.25C566.187 1053.2 545.279 1052.76 531.194 1056.29L531.136 1056.3ZM704.992 1038C698.855 1045.57 691.061 1054.24 683.966 1061.08C697.968 1075.53 712.202 1089.96 726.437 1104.39C732.927 1110.93 739.394 1117.23 745.592 1123.8C757.176 1098.83 767.482 1073.46 776.09 1047.61C769.303 1043.4 759.429 1037.79 754.188 1031.95C740.044 1034.9 719.136 1034.46 704.992 1038ZM-103.055 978.338C-109.192 985.907 -116.986 994.585 -124.08 1001.43C-110.079 1015.88 -95.8444 1030.3 -81.6097 1044.73C-75.1198 1051.27 -68.6533 1057.58 -62.4551 1064.14C-50.8709 1039.17 -40.5647 1013.8 -31.9566 987.952C-38.7438 983.741 -48.6179 978.129 -53.859 972.29C-68.0323 974.947 -88.9399 974.508 -103.055 978.338ZM70.8021 960.036C64.6648 967.605 56.8706 976.283 49.7762 983.123C63.7775 997.573 78.0122 1012 92.2469 1026.43C98.7368 1032.97 105.203 1039.27 111.402 1045.84C122.986 1020.87 133.292 995.5 141.9 969.65C135.113 965.438 125.239 959.827 119.998 953.987C105.824 956.645 84.9167 956.205 70.8021 960.036ZM246.934 941.505C240.797 949.074 233.003 957.752 225.909 964.592C239.91 979.042 254.144 993.469 268.379 1007.9C274.869 1014.44 281.336 1020.74 287.534 1027.31C299.118 1002.34 309.424 976.969 318.032 951.119C311.245 946.908 301.371 941.296 296.13 935.457C281.665 938.143 261.049 937.675 246.934 941.505ZM420.791 923.203C414.654 930.772 406.86 939.45 399.765 946.29C413.766 960.74 428.001 975.167 442.236 989.594C448.726 996.134 455.192 1002.44 461.39 1009.01C472.975 984.039 483.281 958.667 491.889 932.817C485.102 928.605 475.228 922.994 469.987 917.154C455.522 919.841 434.906 919.372 420.791 923.203ZM590.038 905.362C583.901 912.931 576.106 921.609 569.012 928.449C583.013 942.899 597.248 957.326 611.483 971.753C617.973 978.293 624.439 984.599 630.637 991.168C642.222 966.198 652.528 940.826 661.136 914.976C654.349 910.764 644.474 905.153 639.233 899.313C625.06 901.971 604.153 901.532 590.038 905.362ZM763.895 887.06C757.757 894.629 749.963 903.307 742.869 910.146C756.87 924.597 771.105 939.024 785.339 953.451C791.829 959.99 798.296 966.297 804.494 972.866C816.078 947.896 826.384 922.524 834.992 896.673C828.205 892.462 818.331 886.851 813.09 881.011C798.917 883.669 778.009 883.229 763.953 887.054L763.895 887.06ZM-232.26 835.816C-238.397 843.385 -246.192 852.063 -253.286 858.903C-239.285 873.354 -225.05 887.781 -210.815 902.208C-204.325 908.747 -197.859 915.054 -191.661 921.623C-180.077 896.653 -169.77 871.281 -161.162 845.43C-167.949 841.219 -177.824 835.608 -183.065 829.768C-197.53 832.455 -218.116 832.278 -232.26 835.816ZM-58.4036 817.514C-64.5409 825.083 -72.3351 833.761 -79.4295 840.601C-65.4282 855.051 -51.1935 869.478 -36.9588 883.905C-30.4689 890.445 -24.0023 896.751 -17.8041 903.32C-6.21996 878.35 4.08625 852.978 12.6943 827.128C5.90718 822.916 -3.96701 817.305 -9.20808 811.465C-23.6731 814.152 -44.2597 813.975 -58.4036 817.514ZM117.437 799.013C111.3 806.582 103.505 815.26 96.4111 822.1C110.412 836.55 124.647 850.977 138.882 865.404C145.372 871.944 151.838 878.25 158.036 884.819C169.621 859.849 179.927 834.477 188.535 808.627C181.748 804.415 171.874 798.804 166.632 792.964C152.459 795.622 131.581 795.474 117.437 799.013ZM291.294 780.71C285.156 788.279 277.362 796.957 270.268 803.797C284.269 818.247 298.504 832.674 312.738 847.101C319.228 853.641 325.695 859.947 331.893 866.516C343.477 841.546 353.783 816.174 362.391 790.324C355.604 786.113 345.73 780.501 340.489 774.662C326.316 777.319 305.437 777.171 291.294 780.71ZM460.832 762.84C454.695 770.409 446.901 779.087 439.806 785.927C453.808 800.377 468.042 814.804 482.277 829.231C488.767 835.771 495.234 842.077 501.432 848.646C513.016 823.677 523.322 798.304 531.93 772.454C525.143 768.243 515.269 762.631 510.028 756.792C495.563 759.478 474.976 759.302 460.832 762.84ZM634.689 744.538C628.552 752.107 620.757 760.785 613.663 767.625C627.664 782.075 641.899 796.502 656.134 810.929C662.624 817.469 669.09 823.775 675.288 830.344C686.873 805.374 697.179 780.002 705.787 754.152C699 749.94 689.125 744.329 683.884 738.489C669.419 741.176 648.833 740.999 634.689 744.538ZM-173.504 684.599C-179.641 692.168 -187.435 700.847 -194.53 707.686C-180.528 722.137 -166.294 736.564 -152.059 750.991C-145.569 757.53 -139.103 763.837 -132.904 770.406C-121.32 745.436 -111.014 720.064 -102.406 694.213C-109.193 690.002 -119.067 684.391 -124.308 678.551C-138.744 681.53 -159.36 681.061 -173.504 684.599ZM0.352783 666.297C-5.78449 673.866 -13.5787 682.544 -20.6731 689.384C-6.67181 703.834 7.56287 718.261 21.7976 732.688C28.2875 739.228 34.754 745.534 40.9522 752.103C52.5364 727.133 62.8426 701.761 71.4507 675.911C64.6636 671.699 54.7894 666.088 49.5483 660.248C35.1125 663.227 14.4967 662.758 0.352783 666.297ZM176.193 647.796C170.056 655.365 162.262 664.043 155.167 670.883C169.169 685.333 183.403 699.76 197.638 714.187C204.128 720.727 210.595 727.033 216.793 733.602C228.377 708.632 238.683 683.26 247.291 657.41C240.504 653.198 230.63 647.587 225.389 641.747C211.245 644.696 190.337 644.257 176.193 647.796ZM350.05 629.493C343.913 637.062 336.118 645.74 329.024 652.58C343.025 667.03 357.26 681.457 371.495 695.884C377.985 702.424 384.451 708.73 390.649 715.299C402.234 690.33 412.54 664.957 421.148 639.107C414.361 634.896 404.487 629.284 399.245 623.445C385.101 626.394 364.194 625.955 350.05 629.493ZM519.589 611.623C513.451 619.192 505.657 627.87 498.563 634.71C512.564 649.161 526.799 663.587 541.033 678.014C547.523 684.554 553.99 690.86 560.188 697.429C571.772 672.46 582.078 647.087 590.687 621.237C583.899 617.026 574.025 611.414 568.784 605.575C554.348 608.553 533.733 608.085 519.589 611.623ZM693.445 593.321C687.308 600.89 679.514 609.568 672.419 616.408C686.421 630.858 700.655 645.285 714.89 659.712C721.38 666.252 727.846 672.558 734.045 679.127C745.629 654.157 755.935 628.785 764.543 602.935C757.756 598.723 747.882 593.112 742.641 587.272C728.205 590.251 707.589 589.782 693.445 593.321ZM631.848 8.50632C625.71 16.0754 617.916 24.7534 610.822 31.5932C624.823 46.0436 639.058 60.4706 653.292 74.8975C659.782 81.4372 666.249 87.7435 672.447 94.3124C684.031 69.3426 694.337 43.9705 702.945 18.1202C696.158 13.9087 686.284 8.29746 681.043 2.45773C666.607 5.43631 645.991 4.96766 631.848 8.50632Z" fill="url(#paint0_linear_29_161)"/>
</g>
<defs>
<linearGradient id="paint0_linear_29_161" x1="39" y1="-10.5" x2="1946" y2="932.5" gradientUnits="userSpaceOnUse">
<stop stop-color="#C8337F"/>
<stop offset="1" stop-color="#FFED6A"/>
</linearGradient>
<clipPath id="clip0_29_161">
<rect width="1920" height="930" fill="white"/>
</clipPath>
</defs>
</svg>
