<svg width="610" height="480" viewBox="0 0 610 480" fill="none" xmlns="http://www.w3.org/2000/svg">
<g filter="url(#filter0_d_4150_3184)">
<path d="M197 370.087V407.635H169.929V433H122.355C122.886 427.408 123.284 418.953 123.55 407.635H29V367.291C59.9194 343.457 87.5213 317.027 111.806 288H169.929V370.087H197ZM124.545 327.545C115.389 336.999 107.493 344.921 100.858 351.313C94.2227 357.571 86.7251 363.829 78.3649 370.087H123.948L124.545 327.545Z" fill="white"/>
</g>
<g clip-path="url(#clip0_4150_3184)">
<path d="M250.996 66.4393C250.996 66.4393 346.655 47.6146 354.684 45.1967C362.713 42.7788 402.738 32.7793 427.999 0H349.728C349.728 0 282.68 27.1837 244.434 40.2919L243.571 41.3281C240.981 36.976 237.251 33.3837 232.416 32.1748C215.322 43.8669 198.228 55.559 181.151 67.251C178.44 69.099 175.712 70.9815 173.519 73.4166C171.205 75.9899 169.599 79.1158 168.114 82.2418C157.357 104.918 152.056 131.324 159.567 155.261C164.557 171.133 174.883 184.966 187.367 195.968C212.611 218.212 246.558 232.978 280.159 235.569C297.202 236.881 314.106 232.063 331.097 233.565C340.059 234.36 349.089 237.244 355.771 243.271C363.127 249.903 366.96 259.799 367.807 269.678C368.894 282.51 364.75 296.326 354.684 304.374C344.082 312.854 327.644 313.165 315.747 307.258C307.338 303.096 299.792 293.666 303.798 284.029C305.041 281.059 308.201 276.102 311.792 275.032C313.157 274.617 313.398 272.769 312.086 272.216C311.499 271.975 310.808 271.785 309.893 271.698C295.372 270.075 286.082 288.606 288.81 300.747C291.849 314.287 307.614 324.684 320.478 327.326C355.495 334.545 379.047 317.741 390.685 289.798C399.146 269.505 395.175 245.344 383.191 227.313C374.247 213.842 360.589 203.705 344.652 200.337C309.168 192.807 259.543 220.785 230.966 187.436C221.469 176.348 217.204 161.478 214.441 147.438C210.884 129.442 208.346 111.809 217.239 94.7801C224.197 81.4301 236.595 71.016 250.961 66.4739L250.996 66.4393Z" fill="#E5D0CA"/>
<path d="M336.675 49.0998C336.675 49.0998 395.866 41.5354 428 0H347.847C347.847 0 336.468 21.3808 318.545 16.8905C318.545 16.8905 325.711 43.6078 336.658 49.0998H336.675Z" fill="#E5D0CA"/>
<g style="mix-blend-mode:multiply">
<path d="M347.847 0.0172741H291.867V24.3168C291.867 24.3168 332.911 27.3391 347.847 0.0172741Z" fill="#E5D0CA"/>
</g>
<g style="mix-blend-mode:multiply">
<path d="M184.985 134.571C188.923 134.571 192.116 129.205 192.116 122.585C192.116 115.966 188.923 110.6 184.985 110.6C181.046 110.6 177.854 115.966 177.854 122.585C177.854 129.205 181.046 134.571 184.985 134.571Z" fill="#E5D0CA"/>
</g>
<g style="mix-blend-mode:multiply">
<path d="M189.56 121.497C189.56 125.332 187.523 128.44 185.002 128.44C182.481 128.44 180.443 125.332 180.443 121.497C180.443 117.663 182.481 114.555 185.002 114.555C187.523 114.555 189.56 117.663 189.56 121.497Z" fill="#E5D0CA"/>
</g>
<g style="mix-blend-mode:multiply">
<path d="M221.659 151.945C222.834 158.456 220.658 164.311 216.773 165.019C212.888 165.727 208.796 161.012 207.621 154.484C206.447 147.973 208.64 142.118 212.508 141.41C216.376 140.702 220.485 145.417 221.659 151.945Z" fill="#E5D0CA"/>
</g>
<g style="mix-blend-mode:multiply">
<path d="M219.138 151.306C219.829 155.088 218.361 158.508 215.892 158.957C213.406 159.406 210.85 156.712 210.177 152.93C209.486 149.147 210.954 145.728 213.423 145.279C215.909 144.83 218.465 147.524 219.138 151.306Z" fill="#E5D0CA"/>
</g>
<g style="mix-blend-mode:multiply">
<path d="M217.861 114.106C216.134 120.496 211.662 124.848 207.863 123.829C204.064 122.81 202.372 116.783 204.099 110.393C205.825 104.003 210.298 99.6504 214.096 100.669C217.895 101.688 219.587 107.716 217.861 114.106Z" fill="#E5D0CA"/>
</g>
<g style="mix-blend-mode:multiply">
<path d="M215.409 112.344C214.407 116.057 211.627 118.527 209.193 117.871C206.758 117.214 205.601 113.674 206.603 109.978C207.604 106.265 210.384 103.795 212.819 104.452C215.253 105.108 216.41 108.648 215.409 112.344Z" fill="#E5D0CA"/>
</g>
<g style="mix-blend-mode:multiply">
<path d="M236.422 71.7759C231.086 75.6963 224.87 76.3007 222.539 73.123C220.208 69.9452 222.642 64.1942 227.978 60.2738C233.313 56.3534 239.53 55.7489 241.861 58.9267C244.192 62.1045 241.757 67.8555 236.422 71.7759Z" fill="#E5D0CA"/>
</g>
<g style="mix-blend-mode:multiply">
<path d="M234.971 68.65C231.881 70.9124 228.168 71.1196 226.666 69.0817C225.181 67.0438 226.476 63.5724 229.567 61.2927C232.658 59.0303 236.37 58.8231 237.872 60.861C239.374 62.8989 238.062 66.3703 234.971 68.65Z" fill="#E5D0CA"/>
</g>
<g style="mix-blend-mode:multiply">
<path d="M208.83 84.6424C204.513 89.6681 198.608 91.6714 195.621 89.0981C192.634 86.5421 193.704 80.3766 198.004 75.3509C202.32 70.3252 208.226 68.3218 211.213 70.8951C214.2 73.4511 213.13 79.6167 208.83 84.6424Z" fill="#E5D0CA"/>
</g>
<g style="mix-blend-mode:multiply">
<path d="M206.931 81.8964C204.427 84.8151 200.853 85.8513 198.954 84.2106C197.037 82.5699 197.521 78.874 200.007 75.9726C202.511 73.0539 206.085 72.0177 207.984 73.6584C209.884 75.2991 209.418 78.9949 206.931 81.8964Z" fill="#E5D0CA"/>
</g>
<g style="mix-blend-mode:multiply">
<path d="M203.667 167.143C207.517 172.532 208.052 178.749 204.841 181.046C201.629 183.343 195.914 180.821 192.063 175.433C188.213 170.045 187.677 163.827 190.889 161.53C194.101 159.233 199.816 161.755 203.667 167.143Z" fill="#E5D0CA"/>
</g>
<g style="mix-blend-mode:multiply">
<path d="M201.544 167.54C203.771 170.666 203.926 174.38 201.872 175.847C199.817 177.315 196.346 175.968 194.119 172.842C191.891 169.717 191.736 166.003 193.791 164.535C195.845 163.067 199.316 164.414 201.544 167.54Z" fill="#E5D0CA"/>
</g>
<g style="mix-blend-mode:multiply">
<path d="M239.565 196.33C243.416 201.719 243.951 207.936 240.739 210.233C237.527 212.53 231.812 210.008 227.962 204.62C224.111 199.232 223.576 193.014 226.787 190.717C229.999 188.42 235.714 190.942 239.565 196.33Z" fill="#E5D0CA"/>
</g>
<g style="mix-blend-mode:multiply">
<path d="M237.442 196.745C239.669 199.871 239.825 203.584 237.77 205.052C235.715 206.52 232.245 205.173 230.017 202.047C227.79 198.921 227.634 195.208 229.689 193.74C231.744 192.272 235.215 193.619 237.442 196.745Z" fill="#E5D0CA"/>
</g>
<g style="mix-blend-mode:multiply">
<path d="M274.221 218.385C280.178 221.286 283.596 226.519 281.852 230.059C280.126 233.6 273.892 234.118 267.953 231.199C261.995 228.298 258.577 223.065 260.321 219.524C262.047 215.984 268.281 215.466 274.221 218.385Z" fill="#E5D0CA"/>
</g>
<g style="mix-blend-mode:multiply">
<path d="M273.03 219.628C276.483 221.321 278.383 224.516 277.26 226.778C276.155 229.04 272.46 229.507 269.024 227.831C265.57 226.139 263.671 222.944 264.793 220.682C265.899 218.419 269.594 217.953 273.03 219.628Z" fill="#E5D0CA"/>
</g>
<g style="mix-blend-mode:multiply">
<path d="M315.038 210.388C319.182 213.532 320.616 218.626 318.233 221.77C315.85 224.913 310.566 224.895 306.405 221.752C302.244 218.609 300.828 213.514 303.211 210.371C305.593 207.228 310.877 207.245 315.038 210.388Z" fill="#E5D0CA"/>
</g>
<g style="mix-blend-mode:multiply">
<path d="M313.449 211.373C315.849 213.203 316.557 216.295 315.038 218.315C313.518 220.319 310.324 220.474 307.924 218.644C305.524 216.813 304.816 213.704 306.335 211.701C307.855 209.698 311.049 209.542 313.449 211.373Z" fill="#E5D0CA"/>
</g>
<g style="mix-blend-mode:multiply">
<path d="M343.167 195.432C349.539 197.246 353.821 201.788 352.75 205.57C351.68 209.352 345.636 210.958 339.265 209.145C332.893 207.331 328.611 202.789 329.682 199.007C330.752 195.225 336.796 193.619 343.167 195.432Z" fill="#E5D0CA"/>
</g>
<g style="mix-blend-mode:multiply">
<path d="M347.825 203.132C348.513 200.71 346.082 197.896 342.394 196.847C338.707 195.799 335.16 196.912 334.471 199.335C333.783 201.757 336.214 204.57 339.901 205.619C343.589 206.667 347.136 205.554 347.825 203.132Z" fill="#E5D0CA"/>
</g>
<g style="mix-blend-mode:multiply">
<path d="M385.679 219.369C389.219 224.965 389.391 231.217 386.059 233.324C382.726 235.43 377.166 232.598 373.627 227.003C370.087 221.407 369.914 215.155 373.247 213.048C376.579 210.941 382.139 213.773 385.679 219.369Z" fill="#E5D0CA"/>
</g>
<g style="mix-blend-mode:multiply">
<path d="M383.487 220.664C385.542 223.911 385.473 227.624 383.349 228.971C381.225 230.318 377.841 228.781 375.786 225.535C373.731 222.288 373.8 218.575 375.924 217.227C378.048 215.88 381.432 217.417 383.487 220.664Z" fill="#E5D0CA"/>
</g>
<g style="mix-blend-mode:multiply">
<path d="M401.408 260.507C401.546 267.122 398.455 272.562 394.518 272.631C390.581 272.7 387.283 267.398 387.145 260.783C387.007 254.169 390.098 248.729 394.035 248.66C397.971 248.59 401.269 253.893 401.408 260.507Z" fill="#E5D0CA"/>
</g>
<g style="mix-blend-mode:multiply">
<path d="M398.851 260.473C398.92 264.307 396.952 267.467 394.431 267.502C391.91 267.553 389.803 264.479 389.734 260.645C389.665 256.811 391.634 253.651 394.155 253.616C396.676 253.564 398.782 256.639 398.851 260.473Z" fill="#E5D0CA"/>
</g>
<g style="mix-blend-mode:multiply">
<path d="M392.517 304.564C388.683 309.97 382.968 312.491 379.756 310.211C376.545 307.932 377.045 301.697 380.879 296.309C384.712 290.903 390.427 288.382 393.639 290.661C396.851 292.941 396.35 299.176 392.517 304.564Z" fill="#E5D0CA"/>
</g>
<g style="mix-blend-mode:multiply">
<path d="M390.479 303.027C388.252 306.153 384.799 307.517 382.744 306.049C380.689 304.599 380.827 300.868 383.055 297.742C385.282 294.616 388.735 293.252 390.79 294.72C392.845 296.171 392.707 299.901 390.479 303.027Z" fill="#E5D0CA"/>
</g>
<g style="mix-blend-mode:multiply">
<path d="M310.999 299.037C313.244 302.284 313.503 306.015 311.569 307.345C309.635 308.674 306.251 307.12 304.006 303.873C301.761 300.626 301.502 296.896 303.436 295.566C305.37 294.236 308.754 295.791 310.999 299.037Z" fill="#E5D0CA"/>
</g>
<g style="mix-blend-mode:multiply">
<path d="M309.721 299.866C311.016 301.749 311.068 303.977 309.842 304.823C308.616 305.669 306.544 304.84 305.249 302.958C303.954 301.075 303.902 298.847 305.128 298.001C306.371 297.155 308.426 297.984 309.721 299.866Z" fill="#E5D0CA"/>
</g>
<g style="mix-blend-mode:multiply">
<path d="M332.393 306.861C336.347 307.034 339.455 309.072 339.369 311.42C339.265 313.769 335.984 315.531 332.03 315.375C328.076 315.203 324.968 313.165 325.054 310.816C325.141 308.467 328.439 306.705 332.393 306.861Z" fill="#E5D0CA"/>
</g>
<g style="mix-blend-mode:multiply">
<path d="M332.288 308.381C334.585 308.484 336.381 309.78 336.312 311.282C336.242 312.785 334.343 313.925 332.047 313.821C329.75 313.717 327.954 312.422 328.023 310.92C328.092 309.417 329.992 308.277 332.288 308.381Z" fill="#E5D0CA"/>
</g>
<path d="M236.457 0.0172652C236.388 -0.328143 207.189 15.3016 205.48 16.4414C185.122 30.1369 167.355 48.3399 156.735 70.636C136.602 112.879 142.007 166.97 175.798 200.613C200.455 225.155 237.061 237.935 271.613 236.329C274.479 236.19 277.328 235.949 280.177 235.586C275.67 236.156 268.867 233.254 264.619 232.097C252.412 228.781 240.446 224.343 229.188 218.557C202.735 204.983 181.099 180.7 172.794 151.911C164.108 121.791 177.024 90.9288 196.812 68.3045C203.304 60.8955 210.85 50.6714 221.625 50.0497C240.946 48.9271 244.417 40.3092 244.417 40.3092C244.417 40.3092 330.303 32.3302 349.711 0.0172652H236.44" fill="#BC608C"/>
<g style="mix-blend-mode:multiply">
<path d="M157.477 125.591C157.218 127.007 155.284 127.818 153.143 127.438C151.002 127.059 149.483 125.591 149.742 124.174C150.001 122.758 151.935 121.946 154.076 122.326C156.217 122.724 157.736 124.174 157.477 125.591Z" fill="#995074"/>
</g>
<g style="mix-blend-mode:multiply">
<path d="M176.679 99.7885C176.075 103.07 171.792 105.039 167.096 104.175C162.399 103.312 159.084 99.9612 159.688 96.6798C160.293 93.3985 164.575 91.4296 169.271 92.2932C173.968 93.1567 177.283 96.5071 176.679 99.7885Z" fill="#995074"/>
</g>
<g style="mix-blend-mode:multiply">
<path d="M168.701 87.5611C168.459 88.8391 165.921 89.4608 163.003 88.9254C160.085 88.39 157.926 86.9221 158.151 85.644C158.375 84.366 160.931 83.7443 163.849 84.2797C166.767 84.8151 168.925 86.283 168.701 87.5611Z" fill="#995074"/>
</g>
<g style="mix-blend-mode:multiply">
<path d="M170.757 169.008C171.206 170.235 169.307 172.048 166.509 173.05C163.729 174.051 161.105 173.879 160.673 172.635C160.224 171.409 162.124 169.596 164.921 168.594C167.701 167.592 170.325 167.765 170.757 169.008Z" fill="#995074"/>
</g>
<g style="mix-blend-mode:multiply">
<path d="M220.795 10.2586C220.122 9.82688 219.414 9.46419 218.723 9.11878C212.99 12.2275 205.617 16.4242 199.885 20.4136C200.99 24.1959 203.804 27.9435 207.966 30.5687C215.46 35.3007 224.404 34.6099 227.944 28.997C231.483 23.3842 228.289 15.008 220.795 10.2759V10.2586Z" fill="#995074"/>
</g>
<g style="mix-blend-mode:multiply">
<path d="M191.683 28.6516C191.269 28.3926 190.837 28.1853 190.406 27.9608C187.488 30.465 183.602 33.9537 180.184 37.3732C181.185 38.6167 182.48 39.7911 184.034 40.7755C189.145 44.0051 194.999 43.9187 197.105 40.5682C199.212 37.2178 196.794 31.8985 191.683 28.6689V28.6516Z" fill="#995074"/>
</g>
<g style="mix-blend-mode:multiply">
<path d="M169.6 53.4692C168.737 53.3138 167.891 53.2275 167.079 53.2102C165.059 56.0771 162.383 60.0665 159.982 64.2633C161.692 65.8176 164.161 67.0438 167.027 67.5619C172.967 68.65 178.372 66.3703 179.08 62.4844C179.788 58.5986 175.557 54.5573 169.6 53.4692Z" fill="#995074"/>
</g>
<g style="mix-blend-mode:multiply">
<path d="M161.744 154.95C160.742 151.116 155.182 149.251 149.346 150.788C149.053 150.857 148.776 150.944 148.5 151.047C149.519 154.657 151.228 160.477 152.696 164.725C152.782 164.708 152.886 164.691 152.972 164.656C158.826 163.119 162.745 158.784 161.744 154.95Z" fill="#995074"/>
</g>
</g>
<g filter="url(#filter1_d_4150_3184)">
<path d="M280.29 403.767C252.544 396.945 233.662 385.523 223.644 369.5C213.626 353.477 211.413 334.099 217.005 311.368C222.565 288.765 233.483 272.754 249.76 263.333C266.198 253.815 288.225 252.451 315.842 259.241C343.459 266.031 362.277 277.438 372.295 293.461C382.345 309.355 384.589 328.603 379.029 351.205C373.438 373.937 362.487 390.078 346.179 399.628C329.87 409.178 307.907 410.558 280.29 403.767ZM288.824 369.911C300.696 372.83 310.232 371.34 317.432 365.44C324.663 359.411 329.645 350.842 332.377 339.735C335.078 328.757 334.607 318.985 330.967 310.419C327.357 301.725 319.616 295.918 307.744 292.998C295.484 289.984 285.674 291.476 278.313 297.473C271.114 303.373 266.164 311.812 263.463 322.791C260.763 333.769 261.217 343.605 264.826 352.3C268.565 361.026 276.564 366.897 288.824 369.911Z" fill="white"/>
</g>
<g clip-path="url(#clip1_4150_3184)">
<g filter="url(#filter2_d_4150_3184)">
<path d="M427.999 0C402.738 32.7782 362.714 42.7782 354.684 45.1963C346.65 47.6146 251.069 66.425 250.995 66.4395L250.961 66.4736C236.596 71.0159 224.197 81.4306 217.239 94.7803C208.347 111.809 210.884 129.442 214.441 147.438C217.203 161.478 221.47 176.348 230.966 187.436C259.543 220.784 309.168 192.808 344.652 200.337C360.589 203.705 374.247 213.843 383.192 227.313C395.175 245.344 399.146 269.505 390.685 289.798C379.047 317.741 355.495 334.545 320.478 327.326C307.614 324.683 291.849 314.287 288.81 300.747C286.082 288.606 295.372 270.076 309.893 271.698C310.807 271.785 311.499 271.975 312.086 272.217C313.398 272.77 313.156 274.617 311.792 275.031C308.201 276.103 305.041 281.059 303.798 284.029C299.793 293.666 307.338 303.095 315.746 307.258C327.643 313.164 344.082 312.853 354.684 304.374C364.75 296.326 368.894 282.51 367.806 269.678C366.96 259.799 363.127 249.903 355.772 243.271C349.09 237.245 340.058 234.36 331.097 233.565C314.107 232.063 297.202 236.881 280.159 235.568C246.558 232.978 212.611 218.212 187.367 195.968C174.883 184.967 164.557 171.132 159.567 155.261C152.056 131.324 157.357 104.918 168.114 82.2422C169.598 79.1165 171.205 75.9902 173.519 73.417C175.712 70.9821 178.44 69.0987 181.151 67.251C198.227 55.5591 215.322 43.8667 232.416 32.1748C237.251 33.3837 240.981 36.9763 243.571 41.3281L244.434 40.292C282.593 27.2136 349.424 0.123314 349.728 0H427.999Z" fill="#E5D0CA"/>
</g>
<g style="mix-blend-mode:multiply">
<path d="M310.999 299.037C313.244 302.284 313.503 306.015 311.569 307.345C309.635 308.674 306.251 307.12 304.006 303.873C301.761 300.626 301.502 296.896 303.436 295.566C305.37 294.236 308.754 295.791 310.999 299.037Z" fill="#E5D0CA"/>
</g>
<g style="mix-blend-mode:multiply">
<path d="M309.721 299.866C311.016 301.749 311.068 303.977 309.842 304.823C308.616 305.669 306.544 304.84 305.249 302.958C303.954 301.075 303.902 298.847 305.128 298.001C306.371 297.155 308.426 297.984 309.721 299.866Z" fill="#E5D0CA"/>
</g>
<g style="mix-blend-mode:multiply">
<path d="M332.393 306.861C336.347 307.034 339.455 309.072 339.369 311.42C339.265 313.769 335.984 315.531 332.03 315.375C328.076 315.203 324.968 313.165 325.054 310.816C325.141 308.467 328.439 306.705 332.393 306.861Z" fill="#E5D0CA"/>
</g>
<g style="mix-blend-mode:multiply">
<path d="M332.288 308.381C334.585 308.484 336.381 309.78 336.312 311.282C336.242 312.785 334.343 313.925 332.047 313.821C329.75 313.717 327.954 312.422 328.023 310.92C328.092 309.417 329.992 308.277 332.288 308.381Z" fill="#E5D0CA"/>
</g>
</g>
<g clip-path="url(#clip2_4150_3184)">
<path d="M252.571 -24.5812C253.624 -12.976 255.619 -1.35207 259.983 9.46441C267.884 29.0693 283.517 43.9608 305.47 44.5053C347.345 45.5382 388.186 30.2336 430.343 31.0786C453.049 31.5481 475.642 36.1488 494.924 48.5991C514.526 61.2559 530.159 85.8183 539.264 107.057C553.561 140.445 553.467 183.749 529.971 213.607C510.933 237.813 476.282 250.094 447.481 239.146C439.73 236.198 432.45 231.616 427.446 225.006C419.113 214.001 418.266 198.753 421.934 185.439C423.515 179.711 425.998 173.984 430.475 170.059C436.909 164.426 446.86 163.562 454.517 167.355C459.05 169.609 462.737 173.308 465.239 177.721C466.105 179.242 464.242 180.894 462.831 179.862C458.26 176.557 452.015 175.336 446.578 177.101C437.981 179.899 432.281 189.101 432.601 198.114C432.92 207.128 438.677 215.504 446.503 219.992C454.328 224.48 463.96 225.343 472.783 223.391C489.093 219.804 502.374 207.203 510.124 192.425C517.781 177.796 523.293 158.848 521.449 142.229C520.791 136.22 518.947 129.779 514.771 125.216C513.605 123.939 510.2 122.362 509.447 121.047C509.447 121.047 474.984 59.6597 327.762 97.9305C327.762 97.9305 174.182 115.77 187.858 -31.811C209.435 -29.4261 231.013 -27.1727 252.571 -24.6188V-24.5812Z" fill="#F2E5E2"/>
<g style="mix-blend-mode:multiply">
<path d="M236.674 15.3797C236.468 22.5719 232.799 28.3182 228.51 28.1867C224.221 28.0553 220.91 22.1212 221.136 14.929C221.343 7.73681 225.011 1.99055 229.3 2.122C233.589 2.25345 236.9 8.18749 236.674 15.3797Z" fill="#E5D0CA"/>
</g>
<g style="mix-blend-mode:multiply">
<path d="M233.911 15.2107C233.779 19.3795 231.466 22.7034 228.719 22.6095C225.973 22.5343 223.847 19.0791 223.978 14.9102C224.11 10.7414 226.424 7.41755 229.171 7.51144C231.917 7.58656 234.043 11.0418 233.911 15.2107Z" fill="#E5D0CA"/>
</g>
<g style="mix-blend-mode:multiply">
<path d="M262.186 17.4453C261.979 24.6375 258.311 30.3838 254.022 30.2524C249.733 30.1209 246.422 24.1869 246.648 16.9947C246.855 9.80244 250.523 4.05618 254.812 4.18763C259.101 4.31908 262.412 10.2531 262.186 17.4453Z" fill="#E5D0CA"/>
</g>
<g style="mix-blend-mode:multiply">
<path d="M259.403 17.2763C259.272 21.4452 256.958 24.769 254.211 24.6751C251.465 24.6 249.339 21.1447 249.471 16.9759C249.602 12.807 251.916 9.48321 254.663 9.5771C257.409 9.671 259.535 13.1075 259.403 17.2763Z" fill="#E5D0CA"/>
</g>
<g style="mix-blend-mode:multiply">
<path d="M262.788 43.435C266.343 49.707 266.193 56.5049 262.449 58.6081C258.706 60.7113 252.818 57.3311 249.262 51.0779C245.707 44.8058 245.857 38.0079 249.601 35.9047C253.344 33.8015 259.233 37.1817 262.788 43.435Z" fill="#E5D0CA"/>
</g>
<g style="mix-blend-mode:multiply">
<path d="M260.324 44.7307C262.375 48.355 262.111 52.3924 259.722 53.7444C257.333 55.0965 253.721 53.2374 251.671 49.6131C249.62 45.9889 249.884 41.9515 252.273 40.5994C254.662 39.2473 258.274 41.1064 260.324 44.7307Z" fill="#E5D0CA"/>
</g>
<g style="mix-blend-mode:multiply">
<path d="M304.191 54.1388C311.377 54.7585 316.908 58.7208 316.55 62.9835C316.193 67.2463 310.06 70.2133 302.874 69.5936C295.688 68.9739 290.157 65.0116 290.514 60.7489C290.872 56.4861 297.005 53.5191 304.191 54.1388Z" fill="#E5D0CA"/>
</g>
<g style="mix-blend-mode:multiply">
<path d="M303.873 56.8992C308.03 57.256 311.228 59.7536 310.984 62.4765C310.758 65.1994 307.184 67.1336 303.026 66.7768C298.869 66.42 295.671 63.9225 295.915 61.1996C296.141 58.4767 299.715 56.5425 303.873 56.8992Z" fill="#E5D0CA"/>
</g>
<g style="mix-blend-mode:multiply">
<path d="M340.724 45.2377C347.891 44.4866 354.08 47.3409 354.513 51.6037C354.965 55.8664 349.49 59.9226 342.323 60.655C335.156 61.4061 328.967 58.5518 328.534 54.289C328.082 50.0263 333.557 45.9701 340.724 45.2377Z" fill="#E5D0CA"/>
</g>
<g style="mix-blend-mode:multiply">
<path d="M340.933 48.017C345.09 47.5851 348.683 49.4441 348.966 52.167C349.248 54.8899 346.106 57.4438 341.949 57.8757C337.791 58.3076 334.198 56.4486 333.916 53.7256C333.634 51.0027 336.775 48.4489 340.933 48.017Z" fill="#E5D0CA"/>
</g>
<g style="mix-blend-mode:multiply">
<path d="M520.379 116.916C527.283 114.813 533.886 116.409 535.146 120.502C536.407 124.596 531.835 129.629 524.931 131.732C518.027 133.835 511.424 132.239 510.164 128.145C508.904 124.052 513.475 119.019 520.379 116.916Z" fill="#E5D0CA"/>
<g style="mix-blend-mode:multiply">
<path d="M521.114 119.601C525.102 118.38 528.997 119.507 529.805 122.136C530.614 124.765 528.018 127.864 524.03 129.084C520.042 130.305 516.148 129.178 515.339 126.549C514.53 123.92 517.126 120.822 521.114 119.601Z" fill="#E5D0CA"/>
</g>
</g>
<g style="mix-blend-mode:multiply">
<path d="M366.534 56.9368C373.702 56.1857 379.891 59.04 380.324 63.3028C380.775 67.5655 375.301 71.6217 368.133 72.3728C360.966 73.124 354.777 70.2696 354.344 66.0069C353.893 61.7441 359.367 57.6879 366.534 56.9556V56.9368Z" fill="#E5D0CA"/>
</g>
<g style="mix-blend-mode:multiply">
<path d="M366.743 59.716C370.901 59.2841 374.494 61.1432 374.776 63.8661C375.058 66.589 371.917 69.1429 367.759 69.5748C363.602 70.0067 360.009 68.1476 359.727 65.4247C359.444 62.7018 362.586 60.1479 366.743 59.716Z" fill="#E5D0CA"/>
</g>
<g style="mix-blend-mode:multiply">
<path d="M402.501 28.7876C409.669 28.0365 415.858 30.8908 416.29 35.1536C416.742 39.4163 411.268 43.4725 404.1 44.2049C396.933 44.9373 390.744 42.1017 390.311 37.8389C389.86 33.5762 395.334 29.52 402.501 28.7876Z" fill="#E5D0CA"/>
</g>
<g style="mix-blend-mode:multiply">
<path d="M402.71 31.5669C406.868 31.135 410.461 32.994 410.743 35.7169C411.025 38.4398 407.884 40.9937 403.726 41.4256C399.569 41.8576 395.976 39.9985 395.693 37.2756C395.411 34.5527 398.553 31.9988 402.71 31.5669Z" fill="#E5D0CA"/>
</g>
<g style="mix-blend-mode:multiply">
<path d="M427.318 55.6035C434.485 54.8524 440.674 57.7067 441.107 61.9695C441.558 66.2322 436.084 70.2884 428.917 71.0208C421.749 71.7719 415.56 68.9176 415.128 64.6548C414.676 60.3921 420.15 56.3359 427.318 55.5847V55.6035Z" fill="#E5D0CA"/>
</g>
<g style="mix-blend-mode:multiply">
<path d="M427.523 58.364C431.68 57.9321 435.273 59.7911 435.555 62.514C435.838 65.2369 432.696 67.7908 428.539 68.2227C424.381 68.6547 420.788 66.7956 420.506 64.0727C420.224 61.3498 423.365 58.7959 427.523 58.364Z" fill="#E5D0CA"/>
</g>
<g style="mix-blend-mode:multiply">
<path d="M474.927 41.4535C475.983 37.302 471.174 32.5003 464.186 30.7286C457.197 28.9569 450.676 30.8861 449.619 35.0376C448.563 39.1891 453.372 43.9908 460.361 45.7625C467.349 47.5342 473.871 45.605 474.927 41.4535Z" fill="#E5D0CA"/>
</g>
<g style="mix-blend-mode:multiply">
<path d="M463.396 33.3884C467.441 34.4212 470.188 37.407 469.51 40.0548C468.833 42.7026 464.995 44.0359 460.951 43.0031C456.906 41.9702 454.16 38.9844 454.837 36.3367C455.514 33.6889 459.352 32.3556 463.396 33.3884Z" fill="#E5D0CA"/>
</g>
<g style="mix-blend-mode:multiply">
<path d="M478.203 71.4151C484.75 74.4572 488.569 80.0721 486.763 83.9592C484.957 87.8464 478.184 88.5224 471.638 85.4803C465.091 82.4382 461.273 76.8234 463.079 72.9362C464.884 69.049 471.657 68.373 478.203 71.4151Z" fill="#E5D0CA"/>
</g>
<g style="mix-blend-mode:multiply">
<path d="M476.962 73.9127C480.743 75.6778 482.888 79.1143 481.721 81.5931C480.555 84.0719 476.548 84.654 472.767 82.8889C468.986 81.1237 466.841 77.6872 468.007 75.2084C469.174 72.7296 473.181 72.1475 476.962 73.9127Z" fill="#E5D0CA"/>
</g>
<g style="mix-blend-mode:multiply">
<path d="M504.165 49.876C510.316 53.6317 513.496 59.6409 511.257 63.3027C509.018 66.9646 502.209 66.8707 496.057 63.1149C489.906 59.3592 486.726 53.3501 488.965 49.6882C491.204 46.0264 498.014 46.1203 504.165 49.876Z" fill="#E5D0CA"/>
</g>
<g style="mix-blend-mode:multiply">
<path d="M502.639 52.2046C506.213 54.3829 507.925 58.0447 506.495 60.3733C505.065 62.7018 501.021 62.8333 497.447 60.655C493.872 58.4766 492.16 54.8148 493.59 52.4863C495.02 50.1577 499.064 50.0263 502.639 52.2046Z" fill="#E5D0CA"/>
</g>
<g style="mix-blend-mode:multiply">
<path d="M520.095 85.8559C526.246 89.6116 529.425 95.6208 527.187 99.2826C524.948 102.944 518.138 102.851 511.987 99.0948C505.835 95.3391 502.656 89.3299 504.895 85.6681C507.133 82.0063 513.943 82.1002 520.095 85.8559Z" fill="#E5D0CA"/>
</g>
<g style="mix-blend-mode:multiply">
<path d="M518.574 88.1845C522.148 90.3628 523.86 94.0246 522.431 96.3532C521.001 98.6817 516.938 98.8132 513.382 96.6348C509.808 94.4565 508.096 90.7947 509.526 88.4661C510.955 86.1376 515 86.0061 518.574 88.1845Z" fill="#E5D0CA"/>
</g>
<g style="mix-blend-mode:multiply">
<path d="M543.874 197.269C541.692 204.142 536.612 208.649 532.53 207.372C528.448 206.077 526.887 199.467 529.069 192.594C531.251 185.721 536.33 181.214 540.412 182.491C544.495 183.786 546.056 190.396 543.892 197.269H543.874Z" fill="#E5D0CA"/>
</g>
<g style="mix-blend-mode:multiply">
<path d="M541.24 196.349C539.979 200.33 536.838 202.884 534.223 202.058C531.608 201.232 530.498 197.345 531.759 193.364C533.019 189.382 536.16 186.829 538.775 187.655C541.39 188.481 542.5 192.368 541.24 196.349Z" fill="#E5D0CA"/>
</g>
<g style="mix-blend-mode:multiply">
<path d="M512.647 234.301C506.759 238.47 499.968 238.996 497.503 235.503C495.02 232.01 497.785 225.794 503.674 221.644C509.562 217.475 516.353 216.949 518.817 220.442C521.3 223.935 518.535 230.151 512.647 234.301Z" fill="#E5D0CA"/>
</g>
<g style="mix-blend-mode:multiply">
<path d="M511.125 231.991C507.72 234.395 503.657 234.545 502.076 232.31C500.496 230.076 501.963 226.301 505.387 223.898C508.792 221.494 512.856 221.344 514.436 223.578C516.016 225.813 514.549 229.587 511.125 231.991Z" fill="#E5D0CA"/>
</g>
<g style="mix-blend-mode:multiply">
<path d="M471.823 244.986C466.707 245.925 462.098 244.235 461.533 241.193C460.969 238.151 464.675 234.921 469.792 233.982C474.909 233.043 479.518 234.733 480.082 237.775C480.646 240.817 476.94 244.047 471.823 244.986Z" fill="#E5D0CA"/>
</g>
<g style="mix-blend-mode:multiply">
<path d="M471.522 242.995C468.55 243.54 465.86 242.413 465.502 240.46C465.145 238.526 467.252 236.498 470.224 235.953C473.196 235.409 475.887 236.536 476.244 238.489C476.601 240.423 474.494 242.451 471.522 242.995Z" fill="#E5D0CA"/>
</g>
<g style="mix-blend-mode:multiply">
<path d="M431.058 175.693C428.706 177.571 425.791 177.852 424.549 176.313C423.307 174.773 424.21 171.993 426.581 170.116C428.932 168.238 431.848 167.956 433.09 169.496C434.331 171.036 433.428 173.815 431.058 175.693Z" fill="#E5D0CA"/>
</g>
<g style="mix-blend-mode:multiply">
<path d="M423.459 191.373C422.725 194.302 420.58 196.274 418.662 195.805C416.743 195.335 415.783 192.575 416.498 189.645C417.232 186.716 419.376 184.744 421.295 185.214C423.214 185.683 424.173 188.444 423.459 191.373Z" fill="#E5D0CA"/>
</g>
<g style="mix-blend-mode:multiply">
<path d="M424.908 209.889C425.454 212.856 424.325 215.541 422.369 215.898C420.431 216.255 418.4 214.151 417.854 211.184C417.308 208.217 418.437 205.532 420.394 205.175C422.331 204.818 424.363 206.922 424.908 209.889Z" fill="#E5D0CA"/>
</g>
<path d="M169.368 -33.8015C170.685 -10.3846 173.338 13.1826 180.712 35.454C199.449 92.0904 249.3 123.714 308.727 117.442C360.384 111.996 411.063 87.4896 463.567 101.348C488.606 107.958 511.444 125.028 515.733 151.769C517.313 161.628 515.112 171.317 515.902 180.97C530.782 169.139 529.39 140.539 521.339 125.366C499.009 83.2081 430.91 69.7438 387.605 74.9643C347.216 79.8279 312.677 91.9965 271.987 79.6401C234.909 68.3917 219.765 43.604 214.724 6.72274C214.047 1.82152 208.704 -29.5012 219.483 -28.3369C202.778 -30.1585 186.073 -31.98 169.35 -33.8015H169.368Z" fill="#BC608C"/>
<g style="mix-blend-mode:multiply" opacity="0.69">
<path d="M228.909 87.0577C226.031 84.1846 226.821 78.7012 230.715 74.8328C234.59 70.9644 240.083 70.1569 242.962 73.0301C245.84 75.9032 245.05 81.3866 241.156 85.2737C237.262 89.1609 231.787 89.9496 228.909 87.0765V87.0577Z" fill="#995074"/>
</g>
<g style="mix-blend-mode:multiply" opacity="0.69">
<path d="M216.681 40.1111C217.941 43.0406 215.101 47.078 210.341 49.1061C205.582 51.153 200.71 50.4206 199.449 47.4911C198.189 44.5617 201.03 40.5243 205.789 38.4962C210.548 36.4493 215.421 37.1817 216.681 40.1111Z" fill="#995074"/>
</g>
<g style="mix-blend-mode:multiply" opacity="0.69">
<path d="M197.699 32.2992C198.131 33.6513 195.987 35.5479 192.92 36.5244C189.854 37.5009 187.014 37.2005 186.581 35.8484C186.148 34.4963 188.293 32.5997 191.359 31.6232C194.425 30.6467 197.266 30.9472 197.699 32.2992Z" fill="#995074"/>
</g>
<g style="mix-blend-mode:multiply" opacity="0.69">
<path d="M249.112 90.851C250.053 91.9026 248.886 94.5128 246.478 96.6536C244.07 98.7943 241.362 99.6769 240.421 98.6253C239.48 97.5737 240.647 94.9635 243.055 92.8227C245.463 90.682 248.171 89.7994 249.112 90.851Z" fill="#995074"/>
</g>
<g style="mix-blend-mode:multiply" opacity="0.69">
<path d="M184.87 -0.394364C180.224 -0.394364 176.104 1.8403 173.508 5.27679C174.542 10.7226 176.687 21.6705 177.872 26.2337C179.941 27.398 182.331 28.074 184.87 28.074C192.734 28.074 199.13 21.7081 199.13 13.8398C199.13 5.97159 192.752 -0.394364 184.87 -0.394364Z" fill="#995074"/>
</g>
<g style="mix-blend-mode:multiply" opacity="0.69">
<path d="M210.397 84.9169C214.291 82.3818 216.849 77.9876 216.849 73.0113C216.849 65.1618 210.472 58.7771 202.59 58.7771C198.959 58.7771 195.648 60.1479 193.146 62.3826C196.42 67.5467 203.042 77.3867 210.397 84.9169Z" fill="#995074"/>
</g>
<g style="mix-blend-mode:multiply" opacity="0.69">
<path d="M302.404 118.474C304.248 115.77 305.301 112.672 305.301 109.348C305.301 99.0761 295.218 90.7383 282.783 90.7383C270.349 90.7383 260.266 99.0761 260.266 109.348C260.266 110.925 260.529 112.446 260.98 113.911C263.878 114.606 284.872 119.451 302.385 118.474H302.404Z" fill="#995074"/>
</g>
</g>
<g filter="url(#filter3_d_4150_3184)">
<path d="M569 370.087V407.635H541.768V433H493.911C494.445 427.408 494.846 418.953 495.113 407.635H400V367.291C431.103 343.457 458.87 317.027 483.299 288H541.768V370.087H569ZM496.114 327.545C486.903 336.999 478.96 344.921 472.286 351.313C465.611 357.571 458.069 363.829 449.659 370.087H495.513L496.114 327.545Z" fill="white"/>
</g>
<defs>
<filter id="filter0_d_4150_3184" x="0" y="265" width="238" height="215" filterUnits="userSpaceOnUse" color-interpolation-filters="sRGB">
<feFlood flood-opacity="0" result="BackgroundImageFix"/>
<feColorMatrix in="SourceAlpha" type="matrix" values="0 0 0 0 0 0 0 0 0 0 0 0 0 0 0 0 0 0 127 0" result="hardAlpha"/>
<feOffset dx="6" dy="12"/>
<feGaussianBlur stdDeviation="17.5"/>
<feComposite in2="hardAlpha" operator="out"/>
<feColorMatrix type="matrix" values="0 0 0 0 0 0 0 0 0 0 0 0 0 0 0 0 0 0 0.25 0"/>
<feBlend mode="normal" in2="BackgroundImageFix" result="effect1_dropShadow_4150_3184"/>
<feBlend mode="normal" in="SourceGraphic" in2="effect1_dropShadow_4150_3184" result="shape"/>
</filter>
<filter id="filter1_d_4150_3184" x="185" y="232" width="238" height="223" filterUnits="userSpaceOnUse" color-interpolation-filters="sRGB">
<feFlood flood-opacity="0" result="BackgroundImageFix"/>
<feColorMatrix in="SourceAlpha" type="matrix" values="0 0 0 0 0 0 0 0 0 0 0 0 0 0 0 0 0 0 127 0" result="hardAlpha"/>
<feOffset dx="6" dy="12"/>
<feGaussianBlur stdDeviation="17.5"/>
<feComposite in2="hardAlpha" operator="out"/>
<feColorMatrix type="matrix" values="0 0 0 0 0 0 0 0 0 0 0 0 0 0 0 0 0 0 0.25 0"/>
<feBlend mode="normal" in2="BackgroundImageFix" result="effect1_dropShadow_4150_3184"/>
<feBlend mode="normal" in="SourceGraphic" in2="effect1_dropShadow_4150_3184" result="shape"/>
</filter>
<filter id="filter2_d_4150_3184" x="154.051" y="-2" width="283.949" height="341" filterUnits="userSpaceOnUse" color-interpolation-filters="sRGB">
<feFlood flood-opacity="0" result="BackgroundImageFix"/>
<feColorMatrix in="SourceAlpha" type="matrix" values="0 0 0 0 0 0 0 0 0 0 0 0 0 0 0 0 0 0 127 0" result="hardAlpha"/>
<feOffset dx="4" dy="4"/>
<feGaussianBlur stdDeviation="3"/>
<feComposite in2="hardAlpha" operator="out"/>
<feColorMatrix type="matrix" values="0 0 0 0 0 0 0 0 0 0 0 0 0 0 0 0 0 0 0.25 0"/>
<feBlend mode="normal" in2="BackgroundImageFix" result="effect1_dropShadow_4150_3184"/>
<feBlend mode="normal" in="SourceGraphic" in2="effect1_dropShadow_4150_3184" result="shape"/>
</filter>
<filter id="filter3_d_4150_3184" x="371" y="265" width="239" height="215" filterUnits="userSpaceOnUse" color-interpolation-filters="sRGB">
<feFlood flood-opacity="0" result="BackgroundImageFix"/>
<feColorMatrix in="SourceAlpha" type="matrix" values="0 0 0 0 0 0 0 0 0 0 0 0 0 0 0 0 0 0 127 0" result="hardAlpha"/>
<feOffset dx="6" dy="12"/>
<feGaussianBlur stdDeviation="17.5"/>
<feComposite in2="hardAlpha" operator="out"/>
<feColorMatrix type="matrix" values="0 0 0 0 0 0 0 0 0 0 0 0 0 0 0 0 0 0 0.25 0"/>
<feBlend mode="normal" in2="BackgroundImageFix" result="effect1_dropShadow_4150_3184"/>
<feBlend mode="normal" in="SourceGraphic" in2="effect1_dropShadow_4150_3184" result="shape"/>
</filter>
<clipPath id="clip0_4150_3184">
<rect width="283" height="329" fill="white" transform="translate(145)"/>
</clipPath>
<clipPath id="clip1_4150_3184">
<rect width="43" height="58" fill="white" transform="translate(286 271)"/>
</clipPath>
<clipPath id="clip2_4150_3184">
<rect width="380" height="246" fill="white" transform="translate(169)"/>
</clipPath>
</defs>
</svg>
