<svg width="190" height="272" viewBox="0 0 190 272" fill="none" xmlns="http://www.w3.org/2000/svg">
<g clip-path="url(#clip0_4148_3005)">
<path d="M54.2198 101.546C62.9438 97.1854 70.1737 89.9072 70.3617 79.6632C70.5552 69.2381 64.2637 55.7022 52.3349 55.3577C47.9575 55.2333 43.7283 57.8329 41.0902 61.2232C39.5884 63.158 38.6448 65.6145 38.9174 68.0465C39.1801 70.4828 40.8054 72.8195 43.1302 73.5438C44.4636 73.9572 45.9797 73.7438 47.1806 73.0468C48.3154 72.3903 48.1387 70.6794 46.9387 70.1607C46.3984 69.9293 45.9167 69.6129 45.5254 69.1742C42.6779 65.9352 46.6721 62.8175 49.7615 62.1633C54.2491 61.2155 59.3611 64.347 62.0725 67.74C65.584 72.1341 65.9144 78.1035 62.9713 82.8883C58.8138 89.6389 50.3231 94.4588 42.4296 94.8272C40.3172 94.9286 38.18 94.6953 36.1968 93.907C23.2776 88.7715 18.6202 70.8965 22.2642 58.5534C26.0767 45.661 37.4953 35.6339 50.526 32.8102C65.6898 29.5187 81.4501 35.7753 89.1836 49.4514C95.9118 61.3453 93.5856 74.2039 89.8584 86.6305C66.5889 164.286 119.415 236.254 191.005 264.287C191.623 264.533 192.328 264.372 192.786 263.888L200.883 255.497C201.664 254.683 201.412 253.35 200.402 252.857C134.633 221.383 125.437 183.115 120.994 171.022C120.917 170.817 120.89 170.614 120.902 170.394L121.494 156.688C121.51 156.228 121.34 155.777 121.01 155.455C118.766 153.23 110.249 141.966 117.54 104.089C125.895 60.7966 104.704 38.4645 104.704 38.4645C104.704 38.4645 66.9599 1.00786 34.5084 17.9316C3.32396 34.2013 8.93926 76.659 9.4317 79.9612C9.45779 80.1048 9.48523 80.224 9.54578 80.3647C10.7612 83.1881 25.5782 115.837 54.2111 101.526L54.2198 101.546Z" fill="#BC608C"/>
<path d="M33.1568 109.23C45.4083 111.902 59.2494 107.668 66.6799 97.5631C74.8382 86.4648 73.289 68.8927 62.3734 60.4977C69.3405 70.1797 68.2495 84.8285 59.9275 93.3882C56.6488 96.7571 52.4036 99.2087 47.7953 100.125C40.3474 101.612 32.3969 98.9428 26.6915 93.9348C20.986 88.9268 17.3908 81.7928 15.7469 74.3767C11.7744 56.4326 20.2295 34.0426 36.6599 24.7834C54.3357 14.8201 77.1795 26.5741 89.733 39.6594C108.048 58.7411 105.498 80.7633 101.045 105.036C95.5443 135.063 106.49 160.351 122.567 184.998C137.023 207.151 156.037 229.267 179.519 242.199L201.486 254.296L211.251 233.068C211.251 233.068 192.118 227.278 192.104 227.272C167.467 219.819 147.529 199.817 135.05 177.859C121.26 153.572 122.239 124.579 128.428 98.1152C134.91 70.3934 131.541 37.2484 108.558 17.8936C104.636 14.594 100.317 11.8112 95.7508 9.50466C63.0718 -7.00017 24.0385 4.65042 8.02138 38.3341C2.10852 50.7747 -0.210698 65.2268 3.28147 78.5411C6.77796 91.8654 16.5478 103.769 29.5793 108.225C30.7518 108.624 31.9572 108.962 33.1669 109.226L33.1568 109.23Z" fill="#E5D0CA"/>
<g style="mix-blend-mode:multiply">
<path d="M166.046 218.955C169.144 220.81 170.765 223.802 169.665 225.647C168.564 227.492 165.154 227.487 162.061 225.642C158.963 223.787 157.341 220.795 158.442 218.95C159.543 217.105 162.952 217.11 166.046 218.955Z" fill="#E5D0CA"/>
</g>
<g style="mix-blend-mode:multiply">
<path d="M165.288 220.128C167.083 221.199 167.963 223.023 167.258 224.208C166.553 225.394 164.525 225.472 162.73 224.4C160.934 223.329 160.054 221.506 160.759 220.32C161.464 219.134 163.492 219.057 165.288 220.128Z" fill="#E5D0CA"/>
</g>
<g style="mix-blend-mode:multiply">
<path d="M194.31 223.759C197.407 225.614 199.029 228.607 197.928 230.452C196.828 232.297 193.418 232.292 190.324 230.447C187.227 228.592 185.605 225.599 186.706 223.754C187.806 221.91 191.216 221.915 194.31 223.759Z" fill="#E5D0CA"/>
</g>
<g style="mix-blend-mode:multiply">
<path d="M193.561 224.928C195.356 225.999 196.237 227.823 195.532 229.009C194.827 230.195 192.799 230.272 191.003 229.201C189.208 228.13 188.328 226.306 189.033 225.12C189.738 223.934 191.766 223.857 193.561 224.928Z" fill="#E5D0CA"/>
</g>
<g style="mix-blend-mode:multiply">
<path d="M181.454 229.45C184.552 231.305 186.173 234.298 185.073 236.143C183.972 237.988 180.562 237.983 177.469 236.138C174.371 234.283 172.75 231.29 173.85 229.445C174.951 227.601 178.361 227.606 181.454 229.45Z" fill="#E5D0CA"/>
</g>
<g style="mix-blend-mode:multiply">
<path d="M180.706 230.619C182.501 231.69 183.381 233.514 182.676 234.7C181.971 235.886 179.943 235.963 178.148 234.892C176.352 233.821 175.472 231.997 176.177 230.811C176.882 229.625 178.91 229.548 180.706 230.619Z" fill="#E5D0CA"/>
</g>
<g style="mix-blend-mode:multiply">
<path d="M158.824 202.639C161.508 205.054 162.516 208.311 161.082 209.907C159.648 211.503 156.3 210.84 153.617 208.425C150.933 206.01 149.925 202.753 151.359 201.157C152.793 199.561 156.141 200.224 158.824 202.639Z" fill="#E5D0CA"/>
</g>
<g style="mix-blend-mode:multiply">
<path d="M157.855 203.653C159.411 205.054 159.921 207.014 159.005 208.041C158.084 209.058 156.083 208.754 154.527 207.353C152.971 205.952 152.461 203.993 153.377 202.966C154.298 201.949 156.299 202.252 157.855 203.653Z" fill="#E5D0CA"/>
</g>
<g style="mix-blend-mode:multiply">
<path d="M142.479 194.944C145.577 196.799 147.199 199.791 146.098 201.636C144.998 203.481 141.588 203.476 138.494 201.631C135.397 199.776 133.775 196.784 134.876 194.939C135.976 193.094 139.386 193.099 142.479 194.944Z" fill="#E5D0CA"/>
</g>
<g style="mix-blend-mode:multiply">
<path d="M141.727 196.127C143.522 197.198 144.403 199.022 143.698 200.207C142.993 201.393 140.965 201.471 139.169 200.399C137.374 199.328 136.494 197.505 137.199 196.319C137.904 195.133 139.932 195.056 141.727 196.127Z" fill="#E5D0CA"/>
</g>
<g style="mix-blend-mode:multiply">
<path d="M143.464 182.484C145.857 185.192 146.488 188.54 144.883 189.96C143.267 191.384 140.034 190.35 137.641 187.642C135.249 184.935 134.618 181.586 136.223 180.166C137.839 178.742 141.072 179.776 143.464 182.484Z" fill="#E5D0CA"/>
</g>
<g style="mix-blend-mode:multiply">
<path d="M142.392 183.375C143.782 184.943 144.063 186.954 143.036 187.862C142.009 188.77 140.055 188.244 138.665 186.676C137.276 185.108 136.994 183.097 138.021 182.189C139.048 181.281 141.003 181.807 142.392 183.375Z" fill="#E5D0CA"/>
</g>
<g style="mix-blend-mode:multiply">
<path d="M125.9 173.253C128.292 175.961 128.923 179.31 127.318 180.729C125.703 182.153 122.469 181.119 120.077 178.412C117.684 175.704 117.054 172.355 118.659 170.936C120.274 169.512 123.508 170.546 125.9 173.253Z" fill="#E5D0CA"/>
</g>
<g style="mix-blend-mode:multiply">
<path d="M124.826 174.135C126.216 175.703 126.497 177.713 125.47 178.621C124.443 179.529 122.489 179.003 121.099 177.435C119.709 175.867 119.428 173.856 120.455 172.948C121.482 172.04 123.436 172.567 124.826 174.135Z" fill="#E5D0CA"/>
</g>
<g style="mix-blend-mode:multiply">
<path d="M131.837 160.207C133.354 163.483 133.002 166.875 131.054 167.775C129.106 168.676 126.291 166.758 124.784 163.478C123.267 160.202 123.618 156.81 125.566 155.909C127.514 155.009 130.33 156.926 131.837 160.207Z" fill="#E5D0CA"/>
</g>
<g style="mix-blend-mode:multiply">
<path d="M130.56 160.758C131.436 162.655 131.134 164.667 129.891 165.239C128.638 165.816 126.926 164.745 126.04 162.852C125.164 160.955 125.466 158.943 126.709 158.37C127.962 157.793 129.674 158.865 130.56 160.758Z" fill="#E5D0CA"/>
</g>
<g style="mix-blend-mode:multiply">
<path d="M118.372 153.972C119.889 157.248 119.537 160.64 117.589 161.54C115.641 162.441 112.826 160.523 111.319 157.243C109.802 153.967 110.154 150.575 112.102 149.674C114.05 148.774 116.865 150.691 118.372 153.972Z" fill="#E5D0CA"/>
</g>
<g style="mix-blend-mode:multiply">
<path d="M117.091 154.513C117.967 156.41 117.666 158.422 116.423 158.994C115.169 159.571 113.457 158.5 112.571 156.607C111.695 154.71 111.997 152.698 113.24 152.125C114.493 151.548 116.205 152.62 117.091 154.513Z" fill="#E5D0CA"/>
</g>
<g style="mix-blend-mode:multiply">
<path d="M127.984 139.053C128.484 142.625 127.157 145.771 125.037 146.079C122.918 146.386 120.782 143.723 120.278 140.141C119.777 136.569 121.104 133.423 123.224 133.115C125.344 132.808 127.479 135.471 127.984 139.053Z" fill="#E5D0CA"/>
</g>
<g style="mix-blend-mode:multiply">
<path d="M126.608 139.207C126.896 141.286 126.026 143.115 124.668 143.308C123.309 143.502 121.971 141.971 121.678 139.905C121.385 137.84 122.26 135.997 123.619 135.804C124.977 135.61 126.315 137.141 126.608 139.207Z" fill="#E5D0CA"/>
</g>
<g style="mix-blend-mode:multiply">
<path d="M113.404 131.584C113.904 135.156 112.577 138.302 110.457 138.61C108.333 138.907 106.202 136.254 105.697 132.672C105.197 129.1 106.524 125.954 108.644 125.646C110.768 125.349 112.899 128.002 113.404 131.584Z" fill="#E5D0CA"/>
</g>
<g style="mix-blend-mode:multiply">
<path d="M112.013 131.732C112.3 133.812 111.43 135.64 110.072 135.833C108.713 136.027 107.375 134.496 107.082 132.431C106.795 130.351 107.665 128.523 109.023 128.329C110.382 128.136 111.72 129.667 112.013 131.732Z" fill="#E5D0CA"/>
</g>
<g style="mix-blend-mode:multiply">
<path d="M129.874 114.838C129.799 118.456 128.006 121.35 125.853 121.303C123.704 121.266 122.022 118.299 122.092 114.695C122.167 111.077 123.96 108.183 126.113 108.23C128.262 108.267 129.944 111.234 129.874 114.838Z" fill="#E5D0CA"/>
</g>
<g style="mix-blend-mode:multiply">
<path d="M128.486 114.77C128.445 116.86 127.295 118.536 125.925 118.508C124.555 118.48 123.472 116.768 123.514 114.677C123.555 112.587 124.705 110.911 126.075 110.939C127.446 110.967 128.528 112.679 128.486 114.77Z" fill="#E5D0CA"/>
</g>
<g style="mix-blend-mode:multiply">
<path d="M112.543 106.757C112.453 110.369 110.645 113.258 108.502 113.206C106.349 113.159 104.677 110.188 104.767 106.576C104.857 102.964 106.664 100.075 108.807 100.127C110.961 100.174 112.632 103.145 112.543 106.757Z" fill="#E5D0CA"/>
</g>
<g style="mix-blend-mode:multiply">
<path d="M111.155 106.69C111.104 108.785 109.95 110.45 108.579 110.422C107.209 110.394 106.132 108.667 106.184 106.573C106.236 104.478 107.389 102.812 108.76 102.84C110.13 102.868 111.207 104.595 111.155 106.69Z" fill="#E5D0CA"/>
</g>
<g style="mix-blend-mode:multiply">
<path d="M126.957 93.5312C126.867 97.1435 125.06 100.032 122.916 99.9806C120.763 99.9333 119.092 96.9623 119.181 93.35C119.271 89.7377 121.078 86.8491 123.221 86.9007C125.375 86.9479 127.046 89.9189 126.957 93.5312Z" fill="#E5D0CA"/>
</g>
<g style="mix-blend-mode:multiply">
<path d="M125.563 93.4537C125.512 95.5486 124.358 97.2141 122.987 97.1863C121.617 97.1585 120.54 95.4316 120.592 93.3366C120.644 91.2417 121.798 89.5761 123.168 89.604C124.538 89.6318 125.615 91.3587 125.563 93.4537Z" fill="#E5D0CA"/>
</g>
<g style="mix-blend-mode:multiply">
<path d="M117.419 68.8022C117.33 72.4145 115.522 75.3031 113.379 75.2515C111.226 75.2042 109.554 72.2333 109.644 68.6209C109.734 65.0086 111.541 62.12 113.684 62.1716C115.838 62.2189 117.509 65.1898 117.419 68.8022Z" fill="#E5D0CA"/>
</g>
<g style="mix-blend-mode:multiply">
<path d="M116.026 68.7247C115.975 70.8197 114.821 72.4852 113.45 72.4574C112.08 72.4295 111.003 70.7026 111.055 68.6077C111.107 66.5127 112.261 64.8472 113.631 64.875C115.001 64.9029 116.078 66.6298 116.026 68.7247Z" fill="#E5D0CA"/>
</g>
<g style="mix-blend-mode:multiply">
<path d="M135.183 66.3195C135.093 69.9318 133.286 72.8204 131.143 72.7688C128.99 72.7216 127.318 69.7506 127.408 66.1383C127.498 62.526 129.305 59.6374 131.448 59.6889C133.601 59.7362 135.273 62.7072 135.183 66.3195Z" fill="#E5D0CA"/>
</g>
<g style="mix-blend-mode:multiply">
<path d="M133.79 66.242C133.738 68.3369 132.584 70.0024 131.214 69.9746C129.844 69.9468 128.767 68.2199 128.819 66.1249C128.87 64.0299 130.024 62.3644 131.395 62.3923C132.765 62.4201 133.842 64.147 133.79 66.242Z" fill="#E5D0CA"/>
</g>
<g style="mix-blend-mode:multiply">
<path d="M120.793 42.8273C122.457 46.0283 122.256 49.4384 120.347 50.4293C118.438 51.4202 115.543 49.6207 113.879 46.4197C112.216 43.2187 112.416 39.8086 114.325 38.8176C116.235 37.8267 119.126 39.6163 120.793 42.8273Z" fill="#E5D0CA"/>
</g>
<g style="mix-blend-mode:multiply">
<path d="M119.538 43.4287C120.505 45.2867 120.29 47.3089 119.073 47.9416C117.856 48.5742 116.085 47.5877 115.119 45.7297C114.152 43.8717 114.366 41.8495 115.584 41.2169C116.801 40.5842 118.572 41.5707 119.538 43.4287Z" fill="#E5D0CA"/>
</g>
<g style="mix-blend-mode:multiply">
<path d="M115.517 18.3104C118.358 20.5382 119.582 23.7144 118.25 25.4092C116.918 27.1039 113.548 26.6649 110.706 24.4371C107.865 22.2093 106.641 19.0331 107.973 17.3384C109.305 15.6436 112.675 16.0826 115.517 18.3104Z" fill="#E5D0CA"/>
</g>
<g style="mix-blend-mode:multiply">
<path d="M114.623 19.3877C116.264 20.6806 116.913 22.604 116.067 23.6839C115.221 24.7638 113.193 24.5913 111.552 23.2984C109.911 22.0055 109.262 20.082 110.108 19.0021C110.954 17.9222 112.983 18.0948 114.623 19.3877Z" fill="#E5D0CA"/>
</g>
<g style="mix-blend-mode:multiply">
<path d="M103.031 32.8598C104.568 36.1272 104.231 39.5247 102.287 40.4353C100.343 41.3458 97.5224 39.4426 95.9952 36.1709C94.458 32.9035 94.7952 29.5059 96.7389 28.5953C98.6825 27.6848 101.503 29.588 103.041 32.8554L103.031 32.8598Z" fill="#E5D0CA"/>
</g>
<g style="mix-blend-mode:multiply">
<path d="M101.744 33.4151C102.63 35.3078 102.339 37.3158 101.1 37.8983C99.8611 38.4807 98.1288 37.4179 97.2428 35.5252C96.3568 33.6325 96.6485 31.6245 97.8873 31.0421C99.1361 30.4553 100.858 31.5224 101.744 33.4151Z" fill="#E5D0CA"/>
</g>
<g style="mix-blend-mode:multiply">
<path d="M92.2064 6.16209C95.5133 7.61701 97.4906 10.3844 96.6229 12.3551C95.7552 14.3258 92.3705 14.7388 89.0679 13.294C85.761 11.839 83.7838 9.07162 84.6514 7.10093C85.5191 5.13025 88.9038 4.71722 92.2064 6.16209Z" fill="#E5D0CA"/>
</g>
<g style="mix-blend-mode:multiply">
<path d="M91.6026 7.41213C93.514 8.25453 94.6266 9.95398 94.0696 11.2069C93.5169 12.4698 91.5138 12.7986 89.5923 11.9605C87.6809 11.1181 86.5683 9.41871 87.1253 8.1658C87.678 6.90285 89.6811 6.57408 91.5882 7.40643L91.6026 7.41213Z" fill="#E5D0CA"/>
</g>
<g style="mix-blend-mode:multiply">
<path d="M82.1671 18.2864C85.0084 20.5142 86.2322 23.6904 84.9002 25.3852C83.5682 27.0799 80.1979 26.6409 77.3566 24.4131C74.5153 22.1853 73.2914 19.0091 74.6235 17.3144C75.9555 15.6196 79.3258 16.0586 82.1671 18.2864Z" fill="#E5D0CA"/>
</g>
<g style="mix-blend-mode:multiply">
<path d="M81.2678 19.3536C82.9084 20.6465 83.5574 22.57 82.7115 23.6499C81.8655 24.7298 79.8372 24.5572 78.1965 23.2643C76.5559 21.9714 75.9069 20.048 76.7528 18.9681C77.5988 17.8882 79.6271 18.0608 81.2678 19.3536Z" fill="#E5D0CA"/>
</g>
<g style="mix-blend-mode:multiply">
<path d="M65.7934 -1.64497C69.3888 -1.29139 72.1232 0.743992 71.9079 2.87368C71.6969 5.0134 68.601 6.45709 65.0114 6.08913C61.4218 5.72117 58.6816 3.7002 58.8969 1.57052C59.108 -0.569212 62.2038 -2.01293 65.7934 -1.64497Z" fill="#E5D0CA"/>
</g>
<g style="mix-blend-mode:multiply">
<path d="M65.6027 -0.264124C67.6826 -0.0543484 69.2556 1.21995 69.1182 2.58945C68.9808 3.95895 67.1782 4.89197 65.0982 4.6822C63.0183 4.47242 61.4453 3.19814 61.5827 1.82864C61.7202 0.45914 63.5227 -0.4739 65.6027 -0.264124Z" fill="#E5D0CA"/>
</g>
<g style="mix-blend-mode:multiply">
<path d="M52.7231 10.6317C56.3185 10.9852 59.0529 13.0206 58.8376 15.1503C58.6265 17.29 55.5307 18.7337 51.9411 18.3658C48.3457 18.0122 45.6113 15.9768 45.8266 13.8471C46.0376 11.7074 49.1335 10.2637 52.7231 10.6317Z" fill="#E5D0CA"/>
<g style="mix-blend-mode:multiply">
<path d="M52.5304 12.013C54.6104 12.2228 56.1833 13.4971 56.0459 14.8666C55.9085 16.2361 54.1059 17.1691 52.026 16.9594C49.946 16.7496 48.373 15.4753 48.5105 14.1058C48.6479 12.7363 50.4505 11.8033 52.5304 12.013Z" fill="#E5D0CA"/>
</g>
</g>
<g style="mix-blend-mode:multiply">
<path d="M31.1716 8.87728C34.1459 6.81911 37.5392 6.59283 38.7653 8.36219C39.9813 10.1359 38.5595 13.227 35.5852 15.2852C32.6108 17.3433 29.2175 17.5696 27.9915 15.8002C26.7755 14.0265 28.1973 10.9354 31.1716 8.87728Z" fill="#E5D0CA"/>
</g>
<g style="mix-blend-mode:multiply">
<path d="M31.9218 10.0422C33.6507 8.85514 35.6771 8.80214 36.4499 9.93349C37.2328 11.0605 36.4584 12.9431 34.7438 14.1359C33.0148 15.323 30.9885 15.376 30.2157 14.2446C29.4328 13.1176 30.2072 11.235 31.9218 10.0422Z" fill="#E5D0CA"/>
</g>
<g style="mix-blend-mode:multiply">
<path d="M13.4587 25.7555C15.2551 23.4792 17.8102 22.4952 19.1646 23.5661C20.519 24.637 20.1579 27.3417 18.3615 29.618C16.5651 31.8942 14.01 32.8782 12.6556 31.8073C11.3012 30.7364 11.6623 28.0317 13.4587 25.7555Z" fill="#E5D0CA"/>
<g style="mix-blend-mode:multiply">
<path d="M14.3024 26.4748C15.3432 25.156 16.8865 24.6446 17.7491 25.3203C18.6161 26.0061 18.469 27.6299 17.4281 28.9487C16.3872 30.2675 14.844 30.7789 13.9814 30.1032C13.1144 29.4174 13.2615 27.7936 14.3024 26.4748Z" fill="#E5D0CA"/>
</g>
</g>
<g style="mix-blend-mode:multiply">
<path d="M9.21223 45.7446C10.0673 42.9694 12.0885 41.132 13.7352 41.6361C15.3819 42.1402 16.0232 44.7935 15.1782 47.5644C14.3231 50.3396 12.302 52.177 10.6553 51.6729C9.00857 51.1688 8.36721 48.5155 9.21223 45.7446Z" fill="#E5D0CA"/>
</g>
<g style="mix-blend-mode:multiply">
<path d="M10.2733 46.1081C10.7623 44.5034 12.0176 43.4612 13.0723 43.7801C14.127 44.099 14.5758 45.6681 14.0868 47.2728C13.5978 48.8776 12.3425 49.9198 11.2878 49.6008C10.2332 49.2819 9.78431 47.7128 10.2733 46.1081Z" fill="#E5D0CA"/>
</g>
<g style="mix-blend-mode:multiply">
<path d="M6.10564 65.5884C5.958 62.698 7.23878 60.2749 8.96374 60.1854C10.6887 60.0959 12.1943 62.3762 12.3419 65.2667C12.4896 68.1571 11.2088 70.5802 9.48384 70.6697C7.75888 70.7592 6.25327 68.4788 6.10564 65.5884Z" fill="#E5D0CA"/>
</g>
<g style="mix-blend-mode:multiply">
<path d="M7.22849 65.568C7.1486 63.8872 7.974 62.4826 9.06986 62.4265C10.1657 62.3703 11.1342 63.6794 11.2141 65.3602C11.294 67.041 10.4686 68.4456 9.37271 68.5018C8.27685 68.558 7.30838 67.2488 7.22849 65.568Z" fill="#E5D0CA"/>
</g>
<g style="mix-blend-mode:multiply">
<path d="M9.31971 83.8238C7.98747 81.2541 8.13457 78.5223 9.66469 77.7307C11.1948 76.9391 13.5137 78.3681 14.8603 80.9435C16.1926 83.5132 16.0455 86.245 14.5154 87.0366C12.9896 87.8383 10.6663 86.3992 9.31971 83.8238Z" fill="#E5D0CA"/>
</g>
<g style="mix-blend-mode:multiply">
<path d="M10.3213 83.3315C9.54938 81.8422 9.71089 80.2239 10.6912 79.7054C11.6658 79.2013 13.0904 79.9919 13.8624 81.4812C14.6343 82.9705 14.4728 84.5887 13.4925 85.1073C12.5179 85.6114 11.0933 84.8208 10.3213 83.3315Z" fill="#E5D0CA"/>
</g>
<g style="mix-blend-mode:multiply">
<path d="M17.8226 102.969C15.717 100.984 14.9765 98.3494 16.1555 97.1019C17.3445 95.8501 20.0055 96.4404 22.1154 98.4361C24.221 100.422 24.9615 103.056 23.7825 104.304C22.5935 105.555 19.9325 104.965 17.8226 102.969Z" fill="#E5D0CA"/>
</g>
<g style="mix-blend-mode:multiply">
<path d="M18.6116 102.176C17.3891 101.024 17.0148 99.4346 17.7807 98.6393C18.5423 97.8341 20.1429 98.1199 21.3653 99.2717C22.5878 100.424 22.962 102.013 22.1961 102.808C21.4345 103.613 19.8341 103.328 18.6116 102.176Z" fill="#E5D0CA"/>
</g>
<g style="mix-blend-mode:multiply">
<path d="M35.8889 110.684C33.0529 110.074 31.0583 108.208 31.4194 106.527C31.7904 104.842 34.3831 103.973 37.2047 104.577C40.0263 105.182 42.0353 107.054 41.6742 108.734C41.3031 110.419 38.7105 111.288 35.8889 110.684Z" fill="#E5D0CA"/>
</g>
<g style="mix-blend-mode:multiply">
<path d="M36.1627 109.601C34.522 109.249 33.3786 108.087 33.6169 107.008C33.8553 105.928 35.3683 105.346 37.009 105.698C38.6497 106.05 39.7931 107.212 39.5547 108.292C39.3164 109.371 37.8034 109.953 36.1627 109.601Z" fill="#E5D0CA"/>
</g>
<g style="mix-blend-mode:multiply">
<path d="M58.4509 107.667C55.823 108.896 53.1097 108.627 52.3766 107.061C51.6434 105.496 53.1841 103.235 55.812 102.005C58.4399 100.776 61.1532 101.045 61.8863 102.611C62.6195 104.176 61.0788 106.437 58.4509 107.667Z" fill="#E5D0CA"/>
</g>
<g style="mix-blend-mode:multiply">
<path d="M58.0098 106.642C56.4942 107.356 54.881 107.124 54.4143 106.122C53.9476 105.121 54.8059 103.738 56.3216 103.024C57.8372 102.31 59.4503 102.543 59.917 103.544C60.3837 104.546 59.5254 105.929 58.0098 106.642Z" fill="#E5D0CA"/>
</g>
<g style="mix-blend-mode:multiply">
<path d="M67.6889 69.2728C67.1623 67.8559 67.4888 66.4283 68.4245 66.084C69.3603 65.7398 70.5307 66.6048 71.0573 68.0217C71.5839 69.4386 71.2574 70.8663 70.3217 71.2105C69.396 71.5504 68.2155 70.6898 67.6889 69.2728Z" fill="#E5D0CA"/>
</g>
<g style="mix-blend-mode:multiply">
<path d="M70.57 81.0872C70.342 79.5891 70.9516 78.2657 71.9206 78.1096C72.9041 77.9592 73.881 79.0388 74.1091 80.5369C74.3371 82.035 73.7275 83.3584 72.7584 83.5145C71.775 83.6649 70.798 82.5853 70.57 81.0872Z" fill="#E5D0CA"/>
</g>
<g style="mix-blend-mode:multiply">
<path d="M69.3954 90.4227C69.9459 89.0175 71.1451 88.1783 72.0749 88.5396C73.0046 88.9008 73.29 90.3384 72.7395 91.7436C72.189 93.1488 70.9898 93.988 70.06 93.6267C69.1403 93.2611 68.8449 91.8279 69.3954 90.4227Z" fill="#E5D0CA"/>
</g>
<g style="mix-blend-mode:multiply" opacity="0.69">
<path d="M103.066 178.211C101.777 175.217 102.509 172.018 104.699 171.073C106.889 170.128 109.713 171.792 111.002 174.787C112.291 177.781 111.56 180.98 109.37 181.925C107.18 182.87 104.355 181.206 103.066 178.211Z" fill="#995074"/>
</g>
<g style="mix-blend-mode:multiply" opacity="0.69">
<path d="M99.6953 159.316C97.4762 160.274 96.2039 162.274 96.8537 163.783C97.5034 165.292 99.8291 165.74 102.048 164.782C104.267 163.824 105.54 161.824 104.89 160.315C104.24 158.806 101.914 158.358 99.6953 159.316Z" fill="#995074"/>
</g>
<g style="mix-blend-mode:multiply" opacity="0.69">
<path d="M92.7891 100.712C90.5699 101.67 89.2977 103.67 89.9474 105.179C90.5972 106.689 92.9229 107.136 95.142 106.178C97.3612 105.22 98.6334 103.22 97.9837 101.711C97.3339 100.202 95.0082 99.7545 92.7891 100.712Z" fill="#995074"/>
</g>
<g style="mix-blend-mode:multiply" opacity="0.69">
<path d="M112.509 205.077C115.194 202.322 116.115 198.124 114.497 194.366C112.408 189.513 106.865 187.235 101.98 189.141C104.829 193.987 109.673 201.035 112.499 205.082L112.509 205.077Z" fill="#995074"/>
</g>
<g style="mix-blend-mode:multiply" opacity="0.69">
<path d="M84.3274 131.695C85.1135 141.352 87.9087 153.573 89.2421 159.05C94.8328 156.542 96.7622 148.489 93.5356 140.994C91.5416 136.362 88.0434 133.023 84.3274 131.695Z" fill="#995074"/>
</g>
<g style="mix-blend-mode:multiply" opacity="0.69">
<path d="M84.5343 123.373C86.2999 124.625 88.6571 124.954 90.7867 124.035C94.0514 122.626 95.5558 118.843 94.1501 115.578C92.7444 112.312 88.9649 110.81 85.7002 112.219C85.3787 112.358 85.0703 112.526 84.7805 112.711C84.6827 115.196 84.5941 119.666 84.5343 123.373Z" fill="#995074"/>
</g>
</g>
<defs>
<clipPath id="clip0_4148_3005">
<rect width="190" height="272" fill="white" transform="matrix(-1 0 0 -1 190 272)"/>
</clipPath>
</defs>
</svg>
