<svg width="700" height="362" viewBox="0 0 700 362" fill="none" xmlns="http://www.w3.org/2000/svg">
<g clip-path="url(#clip0_21_188)">
<path d="M51.4204 434.103C49.231 432.947 46.7376 431.973 44.6699 432.947C42.7238 433.86 41.69 436.415 41.2034 438.85C40.1696 444.63 41.8116 450.959 44.6699 456.192C49.0486 464.285 62.063 471.952 65.7728 460.086C69.2392 449.194 59.0831 438.18 51.4204 434.103ZM22.0467 488.565C17.6072 486.009 12.1338 484.914 7.51184 486.617C6.47798 486.982 5.44412 487.53 4.83597 488.382C3.25478 490.451 4.16701 493.493 5.50494 495.928C7.87673 500.309 11.5256 504.325 16.026 506.333C20.7087 508.463 30.9257 509.862 33.115 504.081C35.426 498.179 26.547 491.059 22.1075 488.565H22.0467ZM25.9388 483.21C27.7025 484.67 29.7702 485.948 32.0204 486.191C33.9056 486.374 35.7301 485.765 37.3113 484.792C41.021 482.54 43.4536 477.977 42.2981 473.778C41.6291 471.405 40.048 469.397 38.4668 467.571C37.0072 465.867 35.5476 464.103 33.7232 462.764C31.1689 460.938 28.0674 460.026 25.0266 459.356C5.99146 454.975 18.9451 477.611 25.878 483.21H25.9388ZM107.614 480.471C114.729 480.715 121.358 474.812 123.061 468.119C123.851 464.833 123.73 461.303 122.209 458.261C120.932 455.705 118.743 453.758 116.371 452.115C113.695 450.289 110.533 448.829 107.249 449.012C103.965 449.194 100.62 451.324 99.9509 454.488C99.2211 457.957 101.593 461.243 102.566 464.711C104.512 470.857 97.7007 480.167 107.614 480.471ZM64.8605 504.69C58.4141 505.785 52.6367 505.359 48.9878 512.053C45.3389 518.686 46.9809 527.266 51.6028 533.229C55.9207 538.706 62.5496 542.296 69.4825 542.843C76.4154 543.391 83.5308 540.835 88.6393 536.089C90.3421 534.507 91.8625 532.62 93.6869 531.099C96.0587 529.152 98.8562 527.813 101.289 525.927C108.039 520.511 110.229 510.349 106.945 502.317C103.661 494.285 95.4506 488.747 86.8756 487.834C82.2537 487.348 77.1452 488.321 73.922 491.668C69.7258 496.049 71.9151 503.473 64.9214 504.69H64.8605ZM200.722 434.164C198.532 433.008 196.039 432.034 193.971 433.008C192.025 433.921 190.991 436.476 190.505 438.91C189.471 444.691 191.113 451.02 193.971 456.253C198.35 464.346 211.364 472.013 215.074 460.147C218.54 449.255 208.384 438.241 200.722 434.164ZM171.348 488.625C166.908 486.07 161.435 484.974 156.813 486.678C155.779 487.043 154.745 487.591 154.137 488.443C152.556 490.512 153.468 493.554 154.806 495.988C157.178 500.37 160.827 504.386 165.327 506.394C170.01 508.524 180.227 509.923 182.416 504.142C184.727 498.24 175.848 491.12 171.409 488.625H171.348ZM175.24 483.271C177.004 484.731 179.071 486.009 181.322 486.252C183.207 486.435 185.031 485.826 186.612 484.853C190.322 482.601 192.755 478.037 191.599 473.839C190.93 471.465 189.349 469.457 187.768 467.632C186.308 465.928 184.849 464.163 183.024 462.825C180.47 460.999 177.369 460.086 174.328 459.417C155.293 455.036 168.246 477.672 175.179 483.271H175.24ZM256.915 480.532C264.03 480.776 270.659 474.873 272.362 468.18C273.152 464.894 273.031 461.364 271.51 458.322C270.233 455.766 268.044 453.819 265.672 452.176C262.996 450.35 259.834 448.89 256.55 449.072C253.266 449.255 249.921 451.385 249.252 454.549C248.522 458.018 250.894 461.303 251.867 464.772C253.874 470.918 247.002 480.228 256.915 480.532ZM214.162 504.751C207.715 505.846 201.938 505.42 198.289 512.114C194.64 518.746 196.282 527.326 200.904 533.29C205.222 538.766 211.851 542.357 218.784 542.904C225.717 543.452 232.832 540.896 237.94 536.15C239.643 534.568 241.164 532.681 242.988 531.16C245.36 529.213 248.157 527.874 250.59 525.988C257.341 520.572 259.53 510.41 256.246 502.378C252.962 494.345 244.752 488.808 236.177 487.895C231.555 487.408 226.446 488.382 223.223 491.729C219.027 496.11 221.216 503.534 214.223 504.751H214.162ZM346.191 434.225C344.002 433.069 341.509 432.095 339.441 433.069C337.495 433.981 336.461 436.537 335.975 438.971C334.941 444.752 336.583 451.081 339.441 456.314C343.82 464.407 356.834 472.074 360.544 460.208C364.01 449.316 353.854 438.302 346.191 434.225ZM316.818 488.686C312.378 486.131 306.905 485.035 302.283 486.739C301.249 487.104 300.215 487.652 299.607 488.504C298.026 490.573 298.938 493.615 300.276 496.049C302.648 500.43 306.297 504.447 310.797 506.455C315.48 508.584 325.697 509.984 327.886 504.203C330.136 498.301 321.318 491.181 316.879 488.686H316.818ZM320.71 483.331C322.474 484.792 324.541 486.07 326.791 486.313C328.677 486.496 330.501 485.887 332.082 484.914C335.792 482.662 338.225 478.098 337.069 473.9C336.4 471.526 334.819 469.518 333.238 467.693C331.778 465.989 330.319 464.224 328.494 462.886C325.94 461.06 322.838 460.147 319.798 459.478C300.702 455.097 313.716 477.733 320.649 483.331H320.71ZM402.385 480.593C409.5 480.837 416.129 474.934 417.832 468.24C418.622 464.954 418.501 461.425 416.98 458.383C415.703 455.827 413.514 453.88 411.142 452.237C408.466 450.411 405.304 448.951 402.02 449.133C398.736 449.316 395.391 451.446 394.722 454.61C393.992 458.078 396.364 461.364 397.337 464.833C399.283 470.979 392.472 480.289 402.385 480.593ZM359.632 504.812C353.185 505.907 347.408 505.481 343.759 512.175C340.11 518.807 341.752 527.387 346.374 533.351C350.692 538.827 357.321 542.417 364.254 542.965C371.187 543.513 378.302 540.957 383.41 536.211C385.113 534.629 386.634 532.742 388.458 531.221C390.83 529.274 393.627 527.935 396.06 526.049C402.81 520.633 405 510.471 401.716 502.439C398.432 494.406 390.222 488.869 381.647 487.956C377.025 487.469 371.916 488.443 368.693 491.79C364.497 496.171 366.686 503.595 359.692 504.812H359.632ZM495.493 434.286C493.303 433.13 490.81 432.156 488.742 433.13C486.796 434.042 485.762 436.598 485.276 439.032C484.242 444.813 485.884 451.141 488.742 456.375C493.121 464.468 506.135 472.135 509.845 460.269C513.312 449.377 503.155 438.363 495.493 434.286ZM466.119 488.747C461.68 486.191 456.206 485.096 451.584 486.8C450.55 487.165 449.516 487.713 448.908 488.565C447.327 490.634 448.239 493.676 449.577 496.11C451.949 500.491 455.598 504.507 460.098 506.516C464.781 508.645 474.998 510.045 477.187 504.264C479.498 498.362 470.619 491.242 466.18 488.747H466.119ZM470.011 483.392C471.775 484.853 473.843 486.131 476.093 486.374C477.978 486.557 479.802 485.948 481.384 484.974C485.093 482.723 487.526 478.159 486.37 473.96C485.702 471.587 484.12 469.579 482.539 467.754C481.08 466.05 479.62 464.285 477.796 462.946C475.241 461.121 472.14 460.208 469.099 459.539C450.064 455.158 463.017 477.794 469.95 483.392H470.011ZM551.686 480.654C558.801 480.897 565.43 474.995 567.133 468.301C567.924 465.015 567.802 461.486 566.282 458.443C565.004 455.888 562.815 453.94 560.443 452.298C557.767 450.472 554.605 449.012 551.321 449.194C548.037 449.377 544.692 451.507 544.023 454.671C543.293 458.139 545.665 461.425 546.638 464.894C548.584 471.04 541.773 480.35 551.686 480.654ZM508.933 504.873C502.486 505.968 496.709 505.542 493.06 512.236C489.411 518.868 491.053 527.448 495.675 533.412C499.993 538.888 506.622 542.478 513.555 543.026C520.488 543.574 527.603 541.018 532.712 536.272C534.414 534.689 535.935 532.803 537.759 531.282C540.131 529.335 542.929 527.996 545.361 526.109C552.112 520.694 554.301 510.532 551.017 502.499C547.733 494.467 539.523 488.93 530.948 488.017C526.326 487.53 521.218 488.504 517.994 491.85C513.798 496.232 515.987 503.656 508.994 504.873H508.933ZM51.4204 171.776C49.231 170.62 46.7376 169.646 44.6699 170.62C42.7238 171.532 41.69 174.088 41.2034 176.522C40.1696 182.303 41.8116 188.631 44.6699 193.865C49.0486 201.958 62.063 209.625 65.7728 197.759C69.2392 186.867 59.0831 175.853 51.4204 171.776ZM22.0467 226.237C17.6072 223.681 12.1338 222.586 7.51184 224.29C6.47798 224.655 5.44412 225.203 4.83597 226.055C3.25478 228.124 4.16701 231.166 5.50494 233.6C7.87673 237.981 11.5256 241.997 16.026 244.006C20.7087 246.135 30.9257 247.535 33.115 241.754C35.426 235.852 26.547 228.732 22.1075 226.237H22.0467ZM25.9388 220.882C27.7025 222.343 29.7702 223.621 32.0204 223.864C33.9056 224.047 35.7301 223.438 37.3113 222.464C41.021 220.213 43.4536 215.649 42.2981 211.45C41.6291 209.077 40.048 207.069 38.4668 205.244C37.0072 203.54 35.5476 201.775 33.7232 200.436C31.1689 198.611 28.0674 197.698 25.0266 197.029C5.99146 192.648 18.9451 215.284 25.878 220.882H25.9388ZM107.614 218.144C114.729 218.387 121.358 212.485 123.061 205.791C123.851 202.505 123.73 198.976 122.209 195.934C120.932 193.378 118.743 191.431 116.371 189.788C113.695 187.962 110.533 186.502 107.249 186.684C103.965 186.867 100.62 188.997 99.9509 192.161C99.2211 195.629 101.593 198.915 102.566 202.384C104.512 208.53 97.7007 217.84 107.614 218.144ZM64.8605 242.363C58.4141 243.458 52.6367 243.032 48.9878 249.726C45.3389 256.358 46.9809 264.938 51.6028 270.902C55.9207 276.378 62.5496 279.968 69.4825 280.516C76.4154 281.064 83.5308 278.508 88.6393 273.762C90.3421 272.119 91.8625 270.293 93.6869 268.772C96.0587 266.825 98.8562 265.486 101.289 263.599C108.039 258.184 110.229 248.022 106.945 239.989C103.661 231.957 95.4506 226.42 86.8756 225.507C82.2537 225.02 77.1452 225.994 73.922 229.341C69.7258 233.722 71.9151 241.146 64.9214 242.363H64.8605ZM200.722 171.837C198.532 170.68 196.039 169.707 193.971 170.68C192.025 171.593 190.991 174.149 190.505 176.583C189.471 182.364 191.113 188.692 193.971 193.925C198.35 202.019 211.364 209.686 215.074 197.82C218.54 186.928 208.384 175.914 200.722 171.837ZM171.348 226.298C166.908 223.742 161.435 222.647 156.813 224.351C155.779 224.716 154.745 225.264 154.137 226.115C152.556 228.184 153.468 231.227 154.806 233.661C157.178 238.042 160.827 242.058 165.327 244.066C170.01 246.196 180.227 247.596 182.416 241.815C184.727 235.912 175.848 228.793 171.409 226.298H171.348ZM175.24 220.943C177.004 222.404 179.071 223.681 181.322 223.925C183.207 224.107 185.031 223.499 186.612 222.525C190.322 220.274 192.755 215.71 191.599 211.511C190.93 209.138 189.349 207.13 187.768 205.305C186.308 203.601 184.849 201.836 183.024 200.497C180.47 198.672 177.369 197.759 174.328 197.09C155.293 192.708 168.246 215.345 175.179 220.943H175.24ZM256.915 218.205C264.03 218.448 270.659 212.546 272.362 205.852C273.152 202.566 273.031 199.037 271.51 195.994C270.233 193.439 268.044 191.491 265.672 189.848C262.996 188.023 259.834 186.562 256.55 186.745C253.266 186.928 249.921 189.057 249.252 192.222C248.522 195.69 250.894 198.976 251.867 202.445C253.874 208.59 247.002 217.901 256.915 218.205ZM214.162 242.423C207.715 243.519 201.938 243.093 198.289 249.786C194.64 256.419 196.282 264.999 200.904 270.962C205.222 276.439 211.851 280.029 218.784 280.577C225.717 281.124 232.832 278.569 237.94 273.822C239.643 272.179 241.164 270.354 242.988 268.833C245.36 266.885 248.157 265.547 250.59 263.66C257.341 258.245 259.53 248.083 256.246 240.05C252.962 232.018 244.752 226.481 236.177 225.568C231.555 225.081 226.446 226.055 223.223 229.401C219.027 233.783 221.216 241.206 214.223 242.423H214.162ZM346.191 171.897C344.002 170.741 341.509 169.768 339.441 170.741C337.495 171.654 336.461 174.21 335.975 176.644C334.941 182.425 336.583 188.753 339.441 193.986C343.82 202.079 356.834 209.747 360.544 197.881C364.01 186.988 353.854 175.974 346.191 171.897ZM316.818 226.359C312.378 223.803 306.905 222.708 302.283 224.412C301.249 224.777 300.215 225.324 299.607 226.176C298.026 228.245 298.938 231.288 300.276 233.722C302.648 238.103 306.297 242.119 310.797 244.127C315.48 246.257 325.697 247.657 327.886 241.876C330.136 235.973 321.318 228.854 316.879 226.359H316.818ZM320.71 221.004C322.474 222.464 324.541 223.742 326.791 223.986C328.677 224.168 330.501 223.56 332.082 222.586C335.792 220.335 338.225 215.771 337.069 211.572C336.4 209.199 334.819 207.191 333.238 205.365C331.778 203.662 330.319 201.897 328.494 200.558C325.94 198.733 322.838 197.82 319.798 197.151C300.702 192.769 313.716 215.406 320.649 221.004H320.71ZM402.385 218.266C409.5 218.509 416.129 212.607 417.832 205.913C418.622 202.627 418.501 199.098 416.98 196.055C415.703 193.499 413.514 191.552 411.142 189.909C408.466 188.084 405.304 186.623 402.02 186.806C398.736 186.988 395.391 189.118 394.722 192.282C393.992 195.751 396.364 199.037 397.337 202.505C399.283 208.651 392.472 217.961 402.385 218.266ZM359.632 242.484C353.185 243.58 347.408 243.154 343.759 249.847C340.11 256.48 341.752 265.06 346.374 271.023C350.692 276.5 357.321 280.09 364.254 280.638C371.187 281.185 378.302 278.63 383.41 273.883C385.113 272.24 386.634 270.415 388.458 268.893C390.83 266.946 393.627 265.608 396.06 263.721C402.81 258.305 405 248.143 401.716 240.111C398.432 232.079 390.222 226.541 381.647 225.629C377.025 225.142 371.916 226.115 368.693 229.462C364.497 233.843 366.686 241.267 359.692 242.484H359.632ZM495.493 171.958C493.303 170.802 490.81 169.829 488.742 170.802C486.796 171.715 485.762 174.271 485.276 176.705C484.242 182.485 485.884 188.814 488.742 194.047C493.121 202.14 506.135 209.807 509.845 197.942C513.312 187.049 503.155 176.035 495.493 171.958ZM466.119 226.42C461.68 223.864 456.206 222.769 451.584 224.472C450.55 224.838 449.516 225.385 448.908 226.237C447.327 228.306 448.239 231.349 449.577 233.783C451.949 238.164 455.598 242.18 460.098 244.188C464.781 246.318 474.998 247.717 477.187 241.937C479.498 236.034 470.619 228.915 466.18 226.42H466.119ZM470.011 221.065C471.775 222.525 473.843 223.803 476.093 224.047C477.978 224.229 479.802 223.621 481.384 222.647C485.093 220.395 487.526 215.832 486.37 211.633C485.702 209.26 484.12 207.252 482.539 205.426C481.08 203.722 479.62 201.958 477.796 200.619C475.241 198.793 472.14 197.881 469.099 197.211C450.064 192.83 463.017 215.467 469.95 221.065H470.011ZM551.686 218.327C558.801 218.57 565.43 212.667 567.133 205.974C567.924 202.688 567.802 199.159 566.282 196.116C565.004 193.56 562.815 191.613 560.443 189.97C557.767 188.145 554.605 186.684 551.321 186.867C548.037 187.049 544.692 189.179 544.023 192.343C543.293 195.812 545.665 199.098 546.638 202.566C548.584 208.712 541.773 218.022 551.686 218.327ZM508.933 242.545C502.486 243.64 496.709 243.214 493.06 249.908C489.411 256.541 491.053 265.121 495.675 271.084C499.993 276.561 506.622 280.151 513.555 280.699C520.488 281.246 527.603 278.69 532.712 273.944C534.414 272.301 535.935 270.476 537.759 268.954C540.131 267.007 542.929 265.668 545.361 263.782C552.112 258.366 554.301 248.204 551.017 240.172C547.733 232.14 539.523 226.602 530.948 225.689C526.326 225.203 521.218 226.176 517.994 229.523C513.798 233.904 515.987 241.328 508.994 242.545H508.933ZM601.919 322.746C605.629 334.612 618.643 327.006 623.022 318.852C625.88 313.619 627.462 307.29 626.489 301.509C626.063 299.015 624.968 296.581 623.022 295.607C620.954 294.572 618.461 295.607 616.272 296.763C608.67 300.779 598.514 311.793 601.919 322.746ZM634.577 366.741C636.766 372.522 646.983 371.123 651.666 368.993C656.227 366.924 659.815 362.969 662.187 358.587C663.464 356.153 664.376 353.111 662.856 351.042C662.187 350.19 661.214 349.642 660.18 349.277C655.558 347.634 650.085 348.608 645.645 351.224C641.267 353.78 632.448 360.9 634.638 366.741H634.577ZM642.665 321.955C639.625 322.625 636.462 323.537 633.969 325.363C632.144 326.641 630.685 328.405 629.225 330.17C627.644 332.057 626.002 334.065 625.394 336.377C624.238 340.576 626.671 345.139 630.381 347.391C631.962 348.365 633.847 348.973 635.672 348.79C637.922 348.547 639.99 347.269 641.753 345.809C648.686 340.211 661.64 317.635 642.605 321.955H642.665ZM565.126 327.371C566.221 323.963 568.593 320.677 567.741 317.148C567.072 313.984 563.727 311.854 560.443 311.672C557.159 311.489 554.058 312.949 551.321 314.775C548.949 316.357 546.76 318.365 545.483 320.921C543.962 323.903 543.841 327.493 544.631 330.779C546.334 337.472 553.024 343.314 560.078 343.131C569.991 342.888 563.18 333.517 565.126 327.371ZM593.892 354.328C590.668 350.92 585.621 350.007 580.938 350.494C572.363 351.346 564.092 356.944 560.869 364.977C557.585 373.009 559.714 383.171 566.525 388.587C568.897 390.473 571.755 391.812 574.127 393.759C575.951 395.28 577.472 397.167 579.174 398.749C584.222 403.556 591.398 406.051 598.331 405.503C605.264 404.956 611.954 401.365 616.211 395.889C620.833 389.926 622.475 381.346 618.826 374.713C615.177 368.019 609.339 368.384 602.953 367.35C595.838 366.194 598.088 358.77 593.952 354.328H593.892ZM452.618 322.746C456.328 334.612 469.342 327.006 473.721 318.852C476.579 313.619 478.16 307.29 477.187 301.509C476.762 299.015 475.667 296.581 473.721 295.607C471.653 294.572 469.16 295.607 466.97 296.763C459.369 300.779 449.212 311.793 452.618 322.746ZM485.276 366.741C487.465 372.522 497.682 371.123 502.365 368.993C506.926 366.924 510.514 362.969 512.886 358.587C514.163 356.153 515.075 353.111 513.555 351.042C512.886 350.19 511.913 349.642 510.879 349.277C506.257 347.634 500.784 348.608 496.344 351.224C491.965 353.78 483.147 360.9 485.337 366.741H485.276ZM493.364 321.955C490.323 322.625 487.161 323.537 484.668 325.363C482.843 326.641 481.384 328.405 479.924 330.17C478.343 332.057 476.701 334.065 476.093 336.377C474.937 340.576 477.37 345.139 481.08 347.391C482.722 348.365 484.546 348.973 486.37 348.79C488.621 348.547 490.688 347.269 492.452 345.809C499.385 340.211 512.339 317.635 493.303 321.955H493.364ZM415.764 327.371C416.859 323.963 419.231 320.677 418.379 317.148C417.71 313.984 414.365 311.854 411.081 311.672C407.797 311.489 404.696 312.949 401.959 314.775C399.587 316.357 397.398 318.365 396.121 320.921C394.6 323.903 394.479 327.493 395.269 330.779C396.972 337.472 403.662 343.314 410.716 343.131C420.69 342.888 413.879 333.517 415.764 327.371ZM444.59 354.328C441.367 350.92 436.32 350.007 431.637 350.494C423.062 351.346 414.791 356.944 411.568 364.977C408.284 373.009 410.412 383.171 417.224 388.587C419.595 390.473 422.454 391.812 424.826 393.759C426.65 395.28 428.17 397.167 429.873 398.749C434.921 403.556 442.097 406.051 448.969 405.503C455.902 404.956 462.592 401.365 466.849 395.889C471.471 389.926 473.113 381.346 469.464 374.713C465.815 368.019 460.038 368.384 453.591 367.35C446.476 366.194 448.726 358.77 444.59 354.328ZM307.27 322.746C310.979 334.612 323.994 327.006 328.373 318.852C331.231 313.619 332.812 307.29 331.839 301.509C331.413 299.015 330.319 296.581 328.373 295.607C326.305 294.572 323.811 295.607 321.622 296.763C313.959 300.779 303.864 311.793 307.27 322.746ZM339.867 366.741C342.056 372.522 352.273 371.123 356.956 368.993C361.517 366.924 365.105 362.969 367.477 358.587C368.754 356.153 369.666 353.111 368.146 351.042C367.477 350.19 366.504 349.642 365.47 349.277C360.848 347.634 355.375 348.608 350.935 351.224C346.556 353.78 337.738 360.9 339.928 366.741H339.867ZM347.955 321.955C344.914 322.625 341.752 323.537 339.259 325.363C337.434 326.641 335.975 328.405 334.515 330.17C332.934 332.057 331.292 334.065 330.684 336.377C329.528 340.576 331.961 345.139 335.67 347.391C337.252 348.365 339.137 348.973 340.961 348.79C343.212 348.547 345.279 347.269 347.043 345.809C353.976 340.211 366.929 317.635 347.894 321.955H347.955ZM270.416 327.371C271.51 323.963 273.882 320.677 273.031 317.148C272.362 313.984 269.017 311.854 265.733 311.672C262.449 311.489 259.347 312.949 256.611 314.775C254.239 316.357 252.05 318.365 250.772 320.921C249.252 323.903 249.13 327.493 249.921 330.779C251.624 337.472 258.314 343.314 265.368 343.131C275.281 342.888 268.47 333.517 270.416 327.371ZM299.181 354.328C295.958 350.92 290.91 350.007 286.228 350.494C277.653 351.346 269.382 356.944 266.159 364.977C262.875 373.009 265.003 383.171 271.815 388.587C274.186 390.473 277.045 391.812 279.416 393.759C281.241 395.28 282.761 397.167 284.464 398.749C289.512 403.556 296.688 406.051 303.621 405.503C310.554 404.956 317.243 401.365 321.501 395.889C326.122 389.926 327.764 381.346 324.116 374.713C320.467 368.019 314.628 368.384 308.243 367.35C301.188 366.194 303.378 358.77 299.242 354.328H299.181ZM157.908 322.746C161.617 334.612 174.632 327.006 179.011 318.852C181.869 313.619 183.45 307.29 182.477 301.509C182.051 299.015 180.957 296.581 179.011 295.607C176.943 294.572 174.449 295.607 172.26 296.763C164.658 300.779 154.502 311.793 157.908 322.746ZM190.565 366.741C192.755 372.522 202.972 371.123 207.655 368.993C212.216 366.924 215.804 362.969 218.176 358.587C219.453 356.153 220.365 353.111 218.845 351.042C218.176 350.19 217.202 349.642 216.169 349.277C211.547 347.634 206.073 348.608 201.634 351.224C197.255 353.78 188.437 360.9 190.626 366.741H190.565ZM198.654 321.955C195.613 322.625 192.451 323.537 189.957 325.363C188.133 326.641 186.673 328.405 185.214 330.17C183.633 332.057 181.991 334.065 181.382 336.377C180.227 340.576 182.66 345.139 186.369 347.391C188.011 348.365 189.836 348.973 191.66 348.79C193.91 348.547 195.978 347.269 197.742 345.809C204.675 340.211 217.628 317.635 198.593 321.955H198.654ZM121.054 327.371C122.148 323.963 124.52 320.677 123.669 317.148C123 313.984 119.655 311.854 116.371 311.672C113.087 311.489 109.985 312.949 107.249 314.775C104.877 316.357 102.688 318.365 101.41 320.921C99.8901 323.903 99.7684 327.493 100.559 330.779C102.262 337.472 108.952 343.314 116.006 343.131C125.98 342.888 119.168 333.517 121.054 327.371ZM149.88 354.328C146.657 350.92 141.609 350.007 136.926 350.494C128.352 351.346 120.081 356.944 116.857 364.977C113.573 373.009 115.702 383.171 122.513 388.587C124.885 390.473 127.743 391.812 130.115 393.759C131.94 395.28 133.46 397.167 135.163 398.749C140.211 403.556 147.387 406.051 154.32 405.503C161.253 404.956 167.942 401.365 172.199 395.889C176.821 389.926 178.463 381.346 174.814 374.713C171.165 368.019 165.388 368.384 158.942 367.35C151.826 366.194 154.076 358.77 149.941 354.328H149.88ZM601.737 66.5649C605.447 78.4308 618.461 70.8244 622.84 62.6705C625.698 57.4373 627.279 51.1088 626.306 45.328C625.88 42.8331 624.786 40.3991 622.84 39.4255C620.772 38.391 618.279 39.4255 616.089 40.5816C608.487 44.5978 598.331 55.6118 601.737 66.5649ZM634.395 110.56C636.584 116.341 646.801 114.941 651.484 112.811C656.045 110.743 659.633 106.787 662.005 102.406C663.282 99.9719 664.194 96.9294 662.674 94.8605C662.005 94.0086 661.032 93.4609 659.998 93.0958C655.376 91.4528 649.902 92.4264 645.463 95.043C641.084 97.6596 632.266 104.718 634.455 110.56H634.395ZM642.483 65.7738C639.442 66.4432 636.28 67.356 633.786 69.1815C631.962 70.4593 630.502 72.224 629.043 73.9887C627.462 75.8751 625.82 77.8831 625.211 80.1955C624.056 84.3942 626.489 88.958 630.198 91.2094C631.779 92.183 633.665 92.7915 635.489 92.609C637.739 92.3656 639.807 91.0877 641.571 89.6273C648.504 84.029 661.457 61.4534 642.422 65.7738H642.483ZM564.944 71.1896C566.038 67.7819 568.41 64.496 567.559 60.9666C566.89 57.8024 563.545 55.6726 560.261 55.4901C556.977 55.3075 553.875 56.7679 551.139 58.5935C548.767 60.1756 546.577 62.1836 545.3 64.7394C543.78 67.7211 543.658 71.3113 544.449 74.5972C546.152 81.2908 552.841 87.1324 559.896 86.9499C569.809 86.7065 562.998 77.3355 564.944 71.1896ZM593.709 98.1464C590.486 94.7388 585.438 93.826 580.756 94.3128C572.181 95.1647 563.91 100.763 560.687 108.795C557.403 116.828 559.531 126.99 566.342 132.405C568.714 134.292 571.572 135.63 573.944 137.578C575.769 139.099 577.289 140.985 578.992 142.567C584.04 147.375 591.216 149.87 598.149 149.322C605.082 148.774 611.771 145.184 616.028 139.707C620.65 133.744 622.292 125.164 618.643 118.531C614.995 111.838 609.156 112.203 602.771 111.168C595.655 110.012 597.905 102.589 593.77 98.1464H593.709ZM452.436 66.5649C456.145 78.4308 469.16 70.8244 473.538 62.6705C476.397 57.4373 477.978 51.1088 477.005 45.328C476.579 42.8331 475.485 40.3991 473.538 39.4255C471.471 38.391 468.977 39.4255 466.788 40.5816C459.186 44.5978 449.03 55.6118 452.436 66.5649ZM485.093 110.56C487.283 116.341 497.5 114.941 502.182 112.811C506.744 110.743 510.332 106.787 512.703 102.406C513.98 99.9719 514.893 96.9294 513.372 94.8605C512.703 94.0086 511.73 93.4609 510.697 93.0958C506.075 91.4528 500.601 92.4264 496.162 95.043C491.783 97.6596 482.965 104.718 485.154 110.56H485.093ZM493.182 65.7738C490.141 66.4432 486.979 67.356 484.485 69.1815C482.661 70.4593 481.201 72.224 479.742 73.9887C478.16 75.8751 476.518 77.8831 475.91 80.1955C474.755 84.3942 477.187 88.958 480.897 91.2094C482.539 92.183 484.364 92.7915 486.188 92.609C488.438 92.3656 490.506 91.0877 492.27 89.6273C499.202 84.029 512.156 61.4534 493.121 65.7738H493.182ZM415.582 71.1896C416.676 67.7819 419.048 64.496 418.197 60.9666C417.528 57.8024 414.183 55.6726 410.899 55.4901C407.615 55.3075 404.513 56.7679 401.777 58.5935C399.405 60.1756 397.215 62.1836 395.938 64.7394C394.418 67.7211 394.296 71.3113 395.087 74.5972C396.79 81.2908 403.479 87.1324 410.534 86.9499C420.508 86.7065 413.696 77.3355 415.582 71.1896ZM444.408 98.1464C441.185 94.7388 436.137 93.826 431.454 94.3128C422.879 95.1647 414.609 100.763 411.385 108.795C408.101 116.828 410.23 126.99 417.041 132.405C419.413 134.292 422.271 135.63 424.643 137.578C426.468 139.099 427.988 140.985 429.691 142.567C434.738 147.375 441.915 149.87 448.787 149.322C455.72 148.774 462.409 145.184 466.666 139.707C471.288 133.744 472.93 125.164 469.281 118.531C465.632 111.838 459.855 112.203 453.409 111.168C446.293 110.012 448.543 102.589 444.408 98.1464ZM307.087 66.5649C310.797 78.4308 323.811 70.8244 328.19 62.6705C331.048 57.4373 332.63 51.1088 331.657 45.328C331.231 42.8331 330.136 40.3991 328.19 39.4255C326.122 38.391 323.629 39.4255 321.44 40.5816C313.777 44.5978 303.682 55.6118 307.087 66.5649ZM339.684 110.56C341.874 116.341 352.091 114.941 356.773 112.811C361.334 110.743 364.923 106.787 367.294 102.406C368.571 99.9719 369.484 96.9294 367.963 94.8605C367.294 94.0086 366.321 93.4609 365.287 93.0958C360.665 91.4528 355.192 92.4264 350.753 95.043C346.374 97.6596 337.556 104.718 339.745 110.56H339.684ZM347.773 65.7738C344.732 66.4432 341.57 67.356 339.076 69.1815C337.252 70.4593 335.792 72.224 334.333 73.9887C332.751 75.8751 331.109 77.8831 330.501 80.1955C329.346 84.3942 331.778 88.958 335.488 91.2094C337.069 92.183 338.954 92.7915 340.779 92.609C343.029 92.3656 345.097 91.0877 346.86 89.6273C353.793 84.029 366.747 61.4534 347.712 65.7738H347.773ZM270.233 71.1896C271.328 67.7819 273.7 64.496 272.848 60.9666C272.179 57.8024 268.835 55.6726 265.551 55.4901C262.267 55.3075 259.165 56.7679 256.428 58.5935C254.057 60.1756 251.867 62.1836 250.59 64.7394C249.07 67.7211 248.948 71.3113 249.739 74.5972C251.441 81.2908 258.131 87.1324 265.186 86.9499C275.099 86.7065 268.287 77.3355 270.233 71.1896ZM298.999 98.1464C295.776 94.7388 290.728 93.826 286.045 94.3128C277.47 95.1647 269.199 100.763 265.976 108.795C262.692 116.828 264.821 126.99 271.632 132.405C274.004 134.292 276.862 135.63 279.234 137.578C281.058 139.099 282.579 140.985 284.282 142.567C289.329 147.375 296.505 149.87 303.438 149.322C310.371 148.774 317.061 145.184 321.318 139.707C325.94 133.744 327.582 125.164 323.933 118.531C320.284 111.838 314.446 112.203 308.06 111.168C301.006 110.012 303.195 102.589 299.06 98.1464H298.999ZM157.725 66.5649C161.435 78.4308 174.449 70.8244 178.828 62.6705C181.686 57.4373 183.268 51.1088 182.295 45.328C181.869 42.8331 180.774 40.3991 178.828 39.4255C176.76 38.391 174.267 39.4255 172.078 40.5816C164.476 44.5978 154.32 55.6118 157.725 66.5649ZM190.383 110.56C192.572 116.341 202.789 114.941 207.472 112.811C212.033 110.743 215.621 106.787 217.993 102.406C219.27 99.9719 220.182 96.9294 218.662 94.8605C217.993 94.0086 217.02 93.4609 215.986 93.0958C211.364 91.4528 205.891 92.4264 201.451 95.043C197.073 97.6596 188.255 104.718 190.444 110.56H190.383ZM198.471 65.7738C195.431 66.4432 192.268 67.356 189.775 69.1815C187.95 70.4593 186.491 72.224 185.031 73.9887C183.45 75.8751 181.808 77.8831 181.2 80.1955C180.044 84.3942 182.477 88.958 186.187 91.2094C187.829 92.183 189.653 92.7915 191.478 92.609C193.728 92.3656 195.796 91.0877 197.559 89.6273C204.492 84.029 217.446 61.4534 198.411 65.7738H198.471ZM120.871 71.1896C121.966 67.7819 124.338 64.496 123.486 60.9666C122.817 57.8024 119.473 55.6726 116.189 55.4901C112.905 55.3075 109.803 56.7679 107.066 58.5935C104.694 60.1756 102.505 62.1836 101.228 64.7394C99.7076 67.7211 99.586 71.3113 100.377 74.5972C102.079 81.2908 108.769 87.1324 115.824 86.9499C125.797 86.7065 118.986 77.3355 120.871 71.1896ZM158.698 111.108C165.145 112.203 170.922 111.777 174.571 118.471C178.22 125.103 176.578 133.683 171.956 139.647C167.638 145.123 161.009 148.713 154.076 149.261C147.143 149.809 140.028 147.253 134.92 142.507C133.217 140.924 131.696 139.038 129.872 137.517C127.5 135.57 124.703 134.231 122.27 132.345C115.52 126.929 113.33 116.767 116.614 108.734C119.898 100.702 128.108 95.1647 136.683 94.252C141.305 93.7652 146.414 94.7388 149.637 98.0856C153.833 102.467 151.583 109.891 158.638 111.108H158.698Z" fill="url(#paint0_linear_21_188)"/>
</g>
<defs>
<linearGradient id="paint0_linear_21_188" x1="54" y1="21.5" x2="645.5" y2="403" gradientUnits="userSpaceOnUse">
<stop stop-color="#C62D80"/>
<stop offset="1" stop-color="#7CDAEC"/>
</linearGradient>
<clipPath id="clip0_21_188">
<rect width="700" height="362" fill="white"/>
</clipPath>
</defs>
</svg>
